<svg width="1239" height="430" viewBox="0 0 1239 430" fill="none" xmlns="http://www.w3.org/2000/svg">
<rect width="1239" height="430" fill="white"/>
<path d="M993.944 394.956H265.287C265.007 394.956 264.738 394.845 264.54 394.647C264.342 394.449 264.231 394.181 264.231 393.901C264.231 393.622 264.342 393.353 264.54 393.155C264.738 392.958 265.007 392.847 265.287 392.847H993.944C994.224 392.847 994.493 392.958 994.691 393.155C994.889 393.353 995 393.622 995 393.901C995 394.181 994.889 394.449 994.691 394.647C994.493 394.845 994.224 394.956 993.944 394.956Z" fill="#CCCCCC"/>
<path d="M921.822 210.992H493.076C491.256 210.992 489.51 211.715 488.222 213.001C486.935 214.286 486.212 216.03 486.212 217.849C486.212 219.667 486.935 221.411 488.222 222.697C489.51 223.983 491.256 224.705 493.076 224.705H505.22V388.731C505.22 390.549 505.944 392.293 507.231 393.579C508.518 394.865 510.264 395.587 512.085 395.587C513.905 395.587 515.651 394.865 516.938 393.579C518.225 392.293 518.949 390.549 518.949 388.731L519.053 224.705H894.894V388.731C894.894 390.549 895.617 392.293 896.904 393.579C898.191 394.865 899.937 395.587 901.758 395.587C903.578 395.587 905.324 394.865 906.611 393.579C907.899 392.293 908.622 390.549 908.622 388.731V228.321L910.619 224.705H921.822C923.643 224.705 925.389 223.983 926.676 222.697C927.963 221.411 928.686 219.667 928.686 217.849C928.686 216.03 927.963 214.286 926.676 213.001C925.389 211.715 923.643 210.992 921.822 210.992Z" fill="#CCCCCC"/>
<path d="M730.776 214.581H600.904C598.39 214.578 595.979 213.579 594.201 211.803C592.422 210.027 591.422 207.618 591.419 205.106V133.685C591.422 131.173 592.422 128.765 594.201 126.989C595.979 125.213 598.39 124.214 600.904 124.211H730.776C733.291 124.214 735.702 125.213 737.48 126.989C739.258 128.765 740.258 131.173 740.261 133.685V205.106C740.258 207.618 739.258 210.027 737.48 211.803C735.702 213.579 733.291 214.578 730.776 214.581Z" fill="#3F3D56"/>
<path d="M730.776 131.503H600.905C600.326 131.504 599.771 131.734 599.361 132.143C598.951 132.553 598.721 133.107 598.719 133.686V205.108C598.721 205.687 598.951 206.242 599.361 206.651C599.771 207.06 600.326 207.291 600.905 207.292H730.776C731.355 207.291 731.91 207.06 732.32 206.651C732.73 206.242 732.96 205.687 732.961 205.108V133.686C732.96 133.107 732.73 132.553 732.32 132.143C731.91 131.734 731.355 131.504 730.776 131.503Z" fill="white"/>
<path d="M676.917 182.069C676.917 182.069 661.37 178.49 652.819 185.051C644.268 191.611 663.702 206.522 663.702 206.522L676.917 182.069Z" fill="#2F2E41"/>
<path d="M666.602 175.308C674.701 175.308 681.267 168.749 681.267 160.659C681.267 152.569 674.701 146.011 666.602 146.011C658.503 146.011 651.937 152.569 651.937 160.659C651.937 168.749 658.503 175.308 666.602 175.308Z" fill="#A0616A"/>
<path d="M655.262 140.096C656.24 138.438 657.657 137.082 659.358 136.179C661.059 135.275 662.977 134.858 664.9 134.974C666.911 135.226 668.874 135.775 670.724 136.603L680.311 140.338C682.792 141.305 685.509 142.489 686.585 144.922C687.584 147.179 686.839 149.787 686.084 152.138L682.497 163.312C682.1 160.783 681.418 158.307 680.465 155.931C679.496 153.538 677.745 151.544 675.497 150.273C673.007 148.997 670.071 149.023 667.276 149.157C663.317 149.348 659.012 149.851 656.199 152.64C654.706 154.224 653.693 156.199 653.28 158.336C652.872 160.46 652.667 162.619 652.667 164.782C651.044 161.995 649.676 159.066 648.581 156.032C647.681 153.773 647.167 151.378 647.063 148.949C646.969 146.499 647.783 144.1 649.349 142.212C650.144 141.289 651.181 140.607 652.344 140.241C653.506 139.876 654.748 139.842 655.928 140.143L655.262 140.096Z" fill="#2F2E41"/>
<path d="M701.618 194.771C701.481 194.276 701.2 193.833 700.811 193.497C700.422 193.161 699.942 192.948 699.432 192.883C699.399 192.859 699.363 192.838 699.327 192.82L677.434 180.564C676.809 180.214 676.073 180.119 675.379 180.297C674.685 180.476 674.086 180.914 673.708 181.522L667.72 191.206L658.702 182.198L658.559 182.054C658.096 181.592 657.485 181.307 656.832 181.25C656.18 181.193 655.529 181.368 654.993 181.743L637 194.328C636.969 194.328 636.937 194.339 636.905 194.339C636.044 194.482 635.258 194.914 634.676 195.565C634.094 196.215 633.752 197.044 633.705 197.914L633.241 207.292H705.093L701.618 194.771Z" fill="#25929B"/>
<path d="M741.721 205.835H727.858C727.858 205.449 727.704 205.078 727.431 204.805C727.157 204.531 726.786 204.378 726.399 204.378H722.021C721.634 204.378 721.263 204.531 720.989 204.805C720.716 205.078 720.562 205.449 720.562 205.835H716.184C716.184 205.449 716.03 205.078 715.757 204.805C715.483 204.531 715.112 204.378 714.725 204.378H710.347C709.96 204.378 709.589 204.531 709.315 204.805C709.042 205.078 708.888 205.449 708.888 205.835H704.51C704.51 205.449 704.356 205.078 704.083 204.805C703.809 204.531 703.438 204.378 703.051 204.378H698.673C698.286 204.378 697.915 204.531 697.641 204.805C697.368 205.078 697.214 205.449 697.214 205.835H692.836C692.836 205.449 692.683 205.078 692.409 204.805C692.135 204.531 691.764 204.378 691.377 204.378H686.999C686.612 204.378 686.241 204.531 685.968 204.805C685.694 205.078 685.54 205.449 685.54 205.835H681.162C681.162 205.449 681.009 205.078 680.735 204.805C680.461 204.531 680.09 204.378 679.703 204.378H675.325C674.938 204.378 674.567 204.531 674.294 204.805C674.02 205.078 673.866 205.449 673.866 205.835H669.489C669.489 205.449 669.335 205.078 669.061 204.805C668.787 204.531 668.416 204.378 668.029 204.378H663.652C663.265 204.378 662.893 204.531 662.62 204.805C662.346 205.078 662.192 205.449 662.192 205.835H657.815C657.815 205.449 657.661 205.078 657.387 204.805C657.114 204.531 656.742 204.378 656.355 204.378H651.978C651.591 204.378 651.22 204.531 650.946 204.805C650.672 205.078 650.519 205.449 650.519 205.835H646.141C646.141 205.449 645.987 205.078 645.713 204.805C645.44 204.531 645.069 204.378 644.682 204.378H640.304C639.917 204.378 639.546 204.531 639.272 204.805C638.998 205.078 638.845 205.449 638.845 205.835H634.467C634.467 205.449 634.313 205.078 634.04 204.805C633.766 204.531 633.395 204.378 633.008 204.378H628.63C628.243 204.378 627.872 204.531 627.598 204.805C627.325 205.078 627.171 205.449 627.171 205.835H622.793C622.793 205.449 622.639 205.078 622.366 204.805C622.092 204.531 621.721 204.378 621.334 204.378H616.956C616.569 204.378 616.198 204.531 615.924 204.805C615.651 205.078 615.497 205.449 615.497 205.835H611.119C611.119 205.449 610.965 205.078 610.692 204.805C610.418 204.531 610.047 204.378 609.66 204.378H605.282C604.895 204.378 604.524 204.531 604.25 204.805C603.977 205.078 603.823 205.449 603.823 205.835H589.96C588.8 205.837 587.689 206.299 586.869 207.118C586.05 207.938 585.589 209.049 585.589 210.208C585.589 211.367 586.05 212.478 586.869 213.298C587.689 214.117 588.8 214.579 589.96 214.581H741.721C742.882 214.581 743.995 214.12 744.816 213.3C745.637 212.48 746.098 211.368 746.098 210.208C746.098 209.048 745.637 207.936 744.816 207.116C743.995 206.296 742.882 205.835 741.721 205.835Z" fill="#3F3D56"/>
<path d="M567.394 180.441V209.476H494.568C492.617 209.544 490.672 209.219 488.849 208.52C487.027 207.821 485.363 206.762 483.959 205.408C482.555 204.053 481.438 202.429 480.675 200.634C479.912 198.839 479.519 196.909 479.519 194.959C479.519 193.009 479.912 191.079 480.675 189.283C481.438 187.488 482.555 185.865 483.959 184.51C485.363 183.155 487.027 182.097 488.849 181.398C490.672 180.699 492.617 180.374 494.568 180.441H567.394Z" fill="#F2F2F2"/>
<path d="M569.182 209.253C569.182 209.549 569.064 209.833 568.855 210.043C568.645 210.252 568.361 210.37 568.064 210.37H493.27C489.208 210.37 485.312 208.758 482.44 205.889C479.568 203.02 477.954 199.128 477.954 195.071C477.954 191.013 479.568 187.122 482.44 184.252C485.312 181.383 489.208 179.771 493.27 179.771H568.064C568.361 179.771 568.645 179.889 568.855 180.099C569.064 180.308 569.182 180.592 569.182 180.888C569.182 181.184 569.064 181.468 568.855 181.678C568.645 181.887 568.361 182.005 568.064 182.005H493.27C489.803 182.008 486.479 183.386 484.029 185.836C481.578 188.286 480.202 191.607 480.202 195.071C480.202 198.534 481.578 201.855 484.029 204.305C486.479 206.755 489.803 208.133 493.27 208.136H568.064C568.361 208.136 568.645 208.254 568.855 208.463C569.064 208.673 569.182 208.957 569.182 209.253Z" fill="#25929B"/>
<path d="M567.393 187.142H489.134C489.104 187.142 489.075 187.136 489.048 187.125C489.02 187.114 488.995 187.098 488.974 187.077C488.954 187.056 488.937 187.031 488.926 187.004C488.914 186.977 488.908 186.948 488.908 186.918C488.908 186.889 488.914 186.86 488.926 186.833C488.937 186.805 488.954 186.781 488.974 186.76C488.995 186.739 489.02 186.723 489.048 186.712C489.075 186.701 489.104 186.695 489.134 186.695H567.393C567.452 186.695 567.509 186.719 567.55 186.761C567.592 186.803 567.615 186.859 567.615 186.918C567.615 186.977 567.592 187.034 567.55 187.076C567.509 187.118 567.452 187.141 567.393 187.142Z" fill="#CCCCCC"/>
<path d="M567.393 192.502H489.134C489.104 192.502 489.075 192.497 489.048 192.486C489.02 192.474 488.995 192.458 488.974 192.437C488.954 192.416 488.937 192.392 488.926 192.365C488.914 192.337 488.908 192.308 488.908 192.279C488.908 192.249 488.914 192.22 488.926 192.193C488.937 192.166 488.954 192.141 488.974 192.12C488.995 192.1 489.02 192.083 489.048 192.072C489.075 192.061 489.104 192.055 489.134 192.055H567.393C567.452 192.056 567.509 192.08 567.55 192.121C567.592 192.163 567.615 192.22 567.615 192.279C567.615 192.338 567.592 192.394 567.55 192.436C567.509 192.478 567.452 192.502 567.393 192.502Z" fill="#CCCCCC"/>
<path d="M567.393 197.862H489.134C489.104 197.863 489.075 197.857 489.048 197.846C489.02 197.835 488.995 197.818 488.974 197.798C488.954 197.777 488.937 197.752 488.926 197.725C488.914 197.698 488.908 197.669 488.908 197.639C488.908 197.61 488.914 197.58 488.926 197.553C488.937 197.526 488.954 197.501 488.974 197.481C488.995 197.46 489.02 197.443 489.048 197.432C489.075 197.421 489.104 197.416 489.134 197.416H567.393C567.452 197.416 567.509 197.44 567.55 197.482C567.592 197.524 567.615 197.58 567.615 197.639C567.615 197.698 567.592 197.755 567.55 197.796C567.509 197.838 567.452 197.862 567.393 197.862Z" fill="#CCCCCC"/>
<path d="M567.393 203.223H489.134C489.104 203.223 489.075 203.217 489.048 203.206C489.02 203.195 488.995 203.179 488.974 203.158C488.954 203.137 488.937 203.112 488.926 203.085C488.914 203.058 488.908 203.029 488.908 202.999C488.908 202.97 488.914 202.941 488.926 202.913C488.937 202.886 488.954 202.862 488.974 202.841C488.995 202.82 489.02 202.804 489.048 202.792C489.075 202.781 489.104 202.776 489.134 202.776H567.393C567.452 202.776 567.509 202.8 567.55 202.842C567.592 202.884 567.615 202.94 567.615 202.999C567.615 203.058 567.592 203.115 567.55 203.157C567.509 203.199 567.452 203.222 567.393 203.223Z" fill="#CCCCCC"/>
<path d="M553.665 149.851V178.886H480.839C478.888 178.954 476.943 178.629 475.12 177.93C473.298 177.231 471.635 176.172 470.23 174.818C468.826 173.463 467.709 171.839 466.946 170.044C466.184 168.249 465.791 166.319 465.791 164.369C465.791 162.419 466.184 160.489 466.946 158.693C467.709 156.898 468.826 155.275 470.23 153.92C471.635 152.565 473.298 151.507 475.12 150.808C476.943 150.109 478.888 149.784 480.839 149.851H553.665Z" fill="#F2F2F2"/>
<path d="M555.454 178.663C555.454 178.959 555.336 179.243 555.126 179.453C554.917 179.662 554.632 179.78 554.336 179.78H479.542C477.531 179.78 475.539 179.384 473.681 178.615C471.822 177.846 470.134 176.719 468.712 175.299C467.289 173.878 466.161 172.192 465.391 170.335C464.622 168.479 464.226 166.49 464.226 164.481C464.226 162.471 464.622 160.482 465.391 158.626C466.161 156.77 467.289 155.083 468.712 153.662C470.134 152.242 471.822 151.115 473.681 150.346C475.539 149.577 477.531 149.181 479.542 149.181H554.336C554.632 149.181 554.917 149.299 555.126 149.509C555.336 149.718 555.454 150.002 555.454 150.298C555.454 150.594 555.336 150.878 555.126 151.088C554.917 151.297 554.632 151.415 554.336 151.415H479.542C476.075 151.418 472.751 152.796 470.3 155.246C467.85 157.696 466.473 161.017 466.473 164.481C466.473 167.944 467.85 171.265 470.3 173.715C472.751 176.165 476.075 177.543 479.542 177.546H554.336C554.632 177.546 554.917 177.664 555.126 177.874C555.336 178.083 555.454 178.367 555.454 178.663Z" fill="#3F3D56"/>
<path d="M553.665 156.552H475.406C475.376 156.552 475.347 156.546 475.32 156.535C475.292 156.524 475.267 156.508 475.246 156.487C475.226 156.466 475.209 156.441 475.198 156.414C475.186 156.387 475.18 156.358 475.18 156.328C475.18 156.299 475.186 156.27 475.198 156.243C475.209 156.215 475.226 156.191 475.246 156.17C475.267 156.149 475.292 156.133 475.32 156.122C475.347 156.111 475.376 156.105 475.406 156.105H553.665C553.724 156.106 553.781 156.129 553.822 156.171C553.864 156.213 553.887 156.27 553.887 156.328C553.887 156.387 553.864 156.444 553.822 156.486C553.781 156.528 553.724 156.551 553.665 156.552Z" fill="#CCCCCC"/>
<path d="M553.665 161.912H475.406C475.376 161.912 475.347 161.907 475.32 161.896C475.292 161.884 475.267 161.868 475.246 161.847C475.226 161.826 475.209 161.802 475.198 161.775C475.186 161.747 475.18 161.718 475.18 161.689C475.18 161.659 475.186 161.63 475.198 161.603C475.209 161.576 475.226 161.551 475.246 161.53C475.267 161.51 475.292 161.493 475.32 161.482C475.347 161.471 475.376 161.465 475.406 161.465H553.665C553.724 161.466 553.781 161.49 553.822 161.531C553.864 161.573 553.887 161.63 553.887 161.689C553.887 161.748 553.864 161.804 553.822 161.846C553.781 161.888 553.724 161.912 553.665 161.912Z" fill="#CCCCCC"/>
<path d="M553.665 167.272H475.406C475.376 167.273 475.347 167.267 475.32 167.256C475.292 167.245 475.267 167.228 475.246 167.208C475.226 167.187 475.209 167.162 475.198 167.135C475.186 167.108 475.18 167.079 475.18 167.049C475.18 167.02 475.186 166.99 475.198 166.963C475.209 166.936 475.226 166.911 475.246 166.891C475.267 166.87 475.292 166.853 475.32 166.842C475.347 166.831 475.376 166.826 475.406 166.826H553.665C553.724 166.826 553.781 166.85 553.822 166.892C553.864 166.934 553.887 166.99 553.887 167.049C553.887 167.108 553.864 167.165 553.822 167.206C553.781 167.248 553.724 167.272 553.665 167.272Z" fill="#CCCCCC"/>
<path d="M553.665 172.633H475.406C475.376 172.633 475.347 172.627 475.32 172.616C475.292 172.605 475.267 172.589 475.246 172.568C475.226 172.547 475.209 172.522 475.198 172.495C475.186 172.468 475.18 172.439 475.18 172.409C475.18 172.38 475.186 172.351 475.198 172.323C475.209 172.296 475.226 172.272 475.246 172.251C475.267 172.23 475.292 172.214 475.32 172.203C475.347 172.191 475.376 172.186 475.406 172.186H553.665C553.724 172.186 553.781 172.21 553.822 172.252C553.864 172.294 553.887 172.35 553.887 172.409C553.887 172.468 553.864 172.525 553.822 172.567C553.781 172.609 553.724 172.632 553.665 172.633Z" fill="#CCCCCC"/>
<path d="M638.384 312.68V287.364C638.384 286.245 637.939 285.172 637.146 284.38C636.354 283.589 635.28 283.145 634.16 283.145H538.061C536.941 283.145 535.867 283.589 535.074 284.38C534.282 285.172 533.837 286.245 533.837 287.364V312.68H638.384Z" fill="#CCCCCC"/>
<path d="M638.384 322.173H533.837V354.873H638.384V322.173Z" fill="#CCCCCC"/>
<path d="M533.837 364.366V389.682C533.837 390.801 534.282 391.874 535.074 392.666C535.867 393.457 536.941 393.901 538.061 393.901H634.16C635.28 393.901 636.354 393.457 637.146 392.666C637.939 391.874 638.384 390.801 638.384 389.682V364.366H533.837Z" fill="#CCCCCC"/>
<path d="M585.583 302.131C587.332 302.131 588.751 300.715 588.751 298.967C588.751 297.219 587.332 295.802 585.583 295.802C583.833 295.802 582.415 297.219 582.415 298.967C582.415 300.715 583.833 302.131 585.583 302.131Z" fill="white"/>
<path d="M585.583 344.324C587.332 344.324 588.751 342.908 588.751 341.16C588.751 339.412 587.332 337.996 585.583 337.996C583.833 337.996 582.415 339.412 582.415 341.16C582.415 342.908 583.833 344.324 585.583 344.324Z" fill="white"/>
<path d="M585.752 385.624C587.502 385.624 588.92 384.207 588.92 382.46C588.92 380.712 587.502 379.295 585.752 379.295C584.002 379.295 582.584 380.712 582.584 382.46C582.584 384.207 584.002 385.624 585.752 385.624Z" fill="white"/>
<path d="M626.531 254.279V283.314H553.705C551.754 283.382 549.809 283.057 547.986 282.358C546.164 281.659 544.501 280.6 543.096 279.246C541.692 277.891 540.575 276.267 539.812 274.472C539.05 272.677 538.656 270.747 538.656 268.797C538.656 266.847 539.05 264.917 539.812 263.121C540.575 261.326 541.692 259.703 543.096 258.348C544.501 256.993 546.164 255.935 547.986 255.236C549.809 254.537 551.754 254.212 553.705 254.279H626.531Z" fill="#F2F2F2"/>
<path d="M628.32 283.091C628.32 283.387 628.202 283.671 627.992 283.88C627.782 284.09 627.498 284.208 627.202 284.208H552.408C550.395 284.209 548.402 283.815 546.543 283.047C544.683 282.279 542.993 281.152 541.569 279.731C540.146 278.31 539.016 276.623 538.246 274.766C537.475 272.909 537.079 270.919 537.079 268.908C537.079 266.898 537.475 264.908 538.246 263.051C539.016 261.194 540.146 259.507 541.569 258.086C542.993 256.665 544.683 255.538 546.543 254.77C548.402 254.002 550.395 253.608 552.408 253.609H627.202C627.498 253.609 627.782 253.727 627.992 253.936C628.202 254.146 628.32 254.43 628.32 254.726C628.32 255.022 628.202 255.306 627.992 255.516C627.782 255.725 627.498 255.843 627.202 255.843H552.408C548.941 255.846 545.617 257.224 543.166 259.674C540.716 262.124 539.339 265.445 539.339 268.908C539.339 272.372 540.716 275.693 543.166 278.143C545.617 280.593 548.941 281.971 552.408 281.974H627.202C627.498 281.974 627.782 282.092 627.992 282.301C628.202 282.511 628.32 282.795 628.32 283.091Z" fill="#3F3D56"/>
<path d="M626.531 260.98H548.272C548.242 260.98 548.213 260.974 548.185 260.963C548.158 260.952 548.133 260.936 548.112 260.915C548.091 260.894 548.075 260.869 548.064 260.842C548.052 260.815 548.046 260.786 548.046 260.756C548.046 260.727 548.052 260.698 548.064 260.671C548.075 260.643 548.091 260.619 548.112 260.598C548.133 260.577 548.158 260.561 548.185 260.55C548.213 260.538 548.242 260.533 548.272 260.533H626.531C626.59 260.533 626.647 260.557 626.688 260.599C626.73 260.641 626.753 260.697 626.753 260.756C626.753 260.815 626.73 260.872 626.688 260.914C626.647 260.956 626.59 260.979 626.531 260.98Z" fill="#CCCCCC"/>
<path d="M626.531 266.34H548.272C548.242 266.34 548.213 266.335 548.185 266.323C548.158 266.312 548.133 266.296 548.112 266.275C548.091 266.254 548.075 266.23 548.064 266.203C548.052 266.175 548.046 266.146 548.046 266.117C548.046 266.087 548.052 266.058 548.064 266.031C548.075 266.004 548.091 265.979 548.112 265.958C548.133 265.937 548.158 265.921 548.185 265.91C548.213 265.899 548.242 265.893 548.272 265.893H626.531C626.59 265.894 626.647 265.917 626.688 265.959C626.73 266.001 626.753 266.058 626.753 266.117C626.753 266.176 626.73 266.232 626.688 266.274C626.647 266.316 626.59 266.34 626.531 266.34Z" fill="#CCCCCC"/>
<path d="M626.531 271.7H548.272C548.242 271.701 548.213 271.695 548.185 271.684C548.158 271.673 548.133 271.656 548.112 271.635C548.091 271.615 548.075 271.59 548.064 271.563C548.052 271.536 548.046 271.506 548.046 271.477C548.046 271.448 548.052 271.418 548.064 271.391C548.075 271.364 548.091 271.339 548.112 271.318C548.133 271.298 548.158 271.281 548.185 271.27C548.213 271.259 548.242 271.253 548.272 271.254H626.531C626.59 271.254 626.647 271.278 626.688 271.32C626.73 271.361 626.753 271.418 626.753 271.477C626.753 271.536 626.73 271.593 626.688 271.634C626.647 271.676 626.59 271.7 626.531 271.7Z" fill="#CCCCCC"/>
<path d="M626.531 277.061H548.272C548.242 277.061 548.213 277.055 548.185 277.044C548.158 277.033 548.133 277.016 548.112 276.996C548.091 276.975 548.075 276.95 548.064 276.923C548.052 276.896 548.046 276.867 548.046 276.837C548.046 276.808 548.052 276.779 548.064 276.751C548.075 276.724 548.091 276.699 548.112 276.679C548.133 276.658 548.158 276.642 548.185 276.63C548.213 276.619 548.242 276.614 548.272 276.614H626.531C626.59 276.614 626.647 276.638 626.688 276.68C626.73 276.722 626.753 276.778 626.753 276.837C626.753 276.896 626.73 276.953 626.688 276.995C626.647 277.036 626.59 277.06 626.531 277.061Z" fill="#CCCCCC"/>
<path d="M798.118 201.923H764.938C764.623 201.923 764.312 201.995 764.03 202.134L755.655 206.321C755.38 206.438 755.145 206.634 754.979 206.883C754.814 207.133 754.726 207.425 754.726 207.724C754.726 208.023 754.814 208.316 754.979 208.565C755.145 208.815 755.38 209.01 755.655 209.127L764.03 213.315C764.312 213.454 764.623 213.526 764.938 213.526H798.118C798.575 213.552 799.024 213.398 799.368 213.096C799.712 212.794 799.923 212.368 799.956 211.912V203.537C799.923 203.08 799.712 202.655 799.368 202.353C799.024 202.051 798.575 201.896 798.118 201.923Z" fill="#3F3D56"/>
<path d="M799.956 203.537V211.912C799.923 212.368 799.712 212.794 799.368 213.096C799.024 213.398 798.575 213.552 798.118 213.526H791.507V201.923H798.118C798.575 201.896 799.024 202.051 799.368 202.353C799.712 202.655 799.923 203.08 799.956 203.537Z" fill="#25929B"/>
<path d="M797.868 139.266C799.371 138.618 800.994 138.295 802.631 138.317C804.267 138.339 805.881 138.707 807.366 139.395C808.85 140.084 810.172 141.078 811.245 142.313C812.319 143.547 813.119 144.995 813.593 146.56C813.74 147.056 813.853 147.561 813.931 148.073L860.33 171.056L871.068 163.948L884.429 179.312L868.033 192.613C866.062 194.2 863.63 195.11 861.1 195.207C858.569 195.305 856.075 194.585 853.987 193.154L806.91 160.636C806.56 160.784 806.202 160.914 805.838 161.026C804.271 161.5 802.622 161.637 800.998 161.429C799.375 161.221 797.813 160.673 796.416 159.821C795.019 158.968 793.818 157.83 792.892 156.482C791.967 155.133 791.336 153.605 791.043 151.996C790.956 151.529 790.899 151.057 790.871 150.583C790.741 148.209 791.341 145.851 792.592 143.828C793.843 141.805 795.684 140.213 797.868 139.266Z" fill="#FFB8B8"/>
<path d="M894.51 280.77H843.81C843.81 282.225 791.558 283.407 791.558 283.407C790.738 284.024 789.99 284.731 789.33 285.516C787.345 287.881 786.261 290.869 786.267 293.955V296.065C786.268 299.561 787.66 302.914 790.135 305.387C792.61 307.859 795.967 309.249 799.467 309.25H894.51C898.01 309.247 901.365 307.857 903.84 305.385C906.315 302.913 907.707 299.561 907.71 296.065V293.955C907.705 290.459 906.313 287.109 903.838 284.637C901.364 282.165 898.009 280.774 894.51 280.77Z" fill="#3F3D56"/>
<path d="M839.36 397.332H853.089V308.726H839.36V397.332Z" fill="#3F3D56"/>
<path d="M800.288 396.85C800.288 398.332 821.091 397.423 846.753 397.423C872.415 397.423 893.218 398.332 893.218 396.85C893.218 395.368 872.415 383.619 846.753 383.619C821.091 383.619 800.288 395.368 800.288 396.85Z" fill="#3F3D56"/>
<path d="M812.681 386.465L799.735 386.464L793.575 352.923L812.683 352.924L812.681 386.465Z" fill="#FFB8B8"/>
<path d="M815.983 399L774.237 398.998V398.471C774.237 396.34 774.658 394.229 775.474 392.26C776.291 390.291 777.488 388.502 778.996 386.995C780.505 385.488 782.296 384.292 784.268 383.476C786.239 382.661 788.352 382.241 790.486 382.241H790.487L815.983 382.242L815.983 399Z" fill="#2F2E41"/>
<path d="M793.317 365.666L767.507 307.853C765.352 302.98 765.114 297.476 766.839 292.435C768.565 287.395 772.128 283.189 776.819 280.655L832.803 250.669L858.349 248.498L881.914 246.359L882.084 246.646C882.302 247.013 887.368 255.754 883.943 265.34C881.345 272.61 874.588 278.289 863.859 282.219C838.816 291.391 809.886 299.23 798.611 302.174C798.113 302.301 797.647 302.533 797.245 302.853C796.842 303.172 796.512 303.574 796.276 304.03C796.039 304.482 795.899 304.977 795.863 305.485C795.827 305.993 795.897 306.503 796.069 306.983L820.047 360.794C820.298 361.477 820.388 362.208 820.311 362.93C820.234 363.653 819.992 364.349 819.603 364.963C819.214 365.578 818.69 366.095 818.069 366.475C817.449 366.855 816.749 367.087 816.025 367.154L798.108 368.457C797.955 368.472 797.804 368.479 797.653 368.479C796.736 368.479 795.838 368.213 795.068 367.713C794.299 367.214 793.69 366.503 793.317 365.666Z" fill="#2F2E41"/>
<path d="M819.017 386.465L806.071 386.464L799.911 352.923L819.019 352.924L819.017 386.465Z" fill="#FFB8B8"/>
<path d="M822.319 399L780.573 398.998V398.471C780.573 396.34 780.994 394.229 781.81 392.26C782.627 390.291 783.824 388.502 785.333 386.995C786.841 385.488 788.633 384.292 790.604 383.476C792.575 382.661 794.688 382.241 796.822 382.241H796.823L822.32 382.242L822.319 399Z" fill="#2F2E41"/>
<path d="M800.709 368.83L774.899 311.018C772.744 306.145 772.505 300.64 774.231 295.6C775.957 290.56 779.52 286.354 784.211 283.82L840.195 253.833L865.741 251.663L889.306 249.523L889.476 249.811C889.693 250.177 894.76 258.919 891.335 268.504C888.737 275.775 881.98 281.454 871.251 285.383C846.208 294.555 817.278 302.395 806.003 305.339C805.505 305.466 805.039 305.697 804.636 306.017C804.234 306.337 803.904 306.738 803.668 307.195C803.431 307.646 803.291 308.141 803.255 308.649C803.219 309.157 803.289 309.667 803.461 310.147L827.439 363.959C827.69 364.641 827.78 365.372 827.703 366.095C827.626 366.818 827.384 367.513 826.995 368.128C826.606 368.742 826.081 369.259 825.461 369.639C824.841 370.019 824.141 370.252 823.416 370.319L805.499 371.622C805.347 371.636 805.196 371.643 805.045 371.643C804.127 371.643 803.23 371.377 802.46 370.878C801.691 370.379 801.082 369.667 800.709 368.83Z" fill="#2F2E41"/>
<path d="M787.844 192.22C776.998 177.809 768.424 161.826 762.42 144.824C762.072 143.807 762.097 142.7 762.49 141.7C762.883 140.699 763.618 139.871 764.566 139.361L801.68 119.497C802.28 119.173 802.947 118.99 803.629 118.963C804.31 118.935 804.989 119.063 805.614 119.337C806.251 119.614 806.815 120.031 807.266 120.558C807.716 121.086 808.04 121.708 808.213 122.38C812.533 138.763 820.653 153.9 831.917 166.567C832.38 167.083 832.72 167.697 832.91 168.364C833.1 169.03 833.135 169.731 833.013 170.414C832.895 171.085 832.626 171.721 832.225 172.272C831.825 172.824 831.303 173.277 830.701 173.597L793.587 193.461C792.637 193.967 791.539 194.12 790.487 193.892C789.436 193.665 788.499 193.072 787.844 192.22Z" fill="#CCCCCC"/>
<path d="M790.377 190.319C790.577 190.568 790.857 190.739 791.17 190.804C791.482 190.868 791.808 190.822 792.09 190.672L829.204 170.808C829.385 170.714 829.541 170.579 829.66 170.415C829.78 170.251 829.86 170.062 829.894 169.861C829.932 169.65 829.921 169.433 829.862 169.226C829.802 169.02 829.696 168.83 829.55 168.672C817.955 155.631 809.596 140.048 805.149 123.182C805.097 122.974 804.998 122.78 804.859 122.616C804.721 122.453 804.546 122.323 804.348 122.238C804.162 122.155 803.96 122.116 803.756 122.125C803.553 122.133 803.354 122.188 803.176 122.287L766.062 142.15C765.781 142.302 765.562 142.547 765.442 142.843C765.323 143.139 765.311 143.468 765.408 143.772C771.305 160.469 779.725 176.166 790.377 190.319Z" fill="white"/>
<path d="M911.144 186.921L882.077 197.954L874.98 178.264C874.038 175.649 874.051 172.786 875.018 170.18C875.985 167.574 877.842 165.394 880.263 164.024C882.711 162.638 885.575 162.172 888.337 162.711C891.099 163.25 893.577 164.757 895.324 166.961L911.144 186.921Z" fill="#25929B"/>
<path d="M837.212 264.936C836.6 264.504 836.088 263.946 835.708 263.301C835.329 262.655 835.091 261.937 835.012 261.192C831.289 226.478 833.882 199.312 842.938 178.141C844.533 174.489 846.936 171.246 849.966 168.656C852.996 166.065 856.575 164.194 860.433 163.184L883.929 161.999L884.051 162.058C889.353 164.652 893.677 168.883 896.382 174.125C899.086 179.367 900.028 185.34 899.067 191.159C891.51 211.056 885.182 231.773 890.008 248.485C890.21 249.183 890.269 249.916 890.181 250.638C890.093 251.36 889.86 252.056 889.497 252.686C889.144 253.295 888.67 253.825 888.104 254.244C887.538 254.663 886.892 254.962 886.206 255.122L841.454 265.756C840.729 265.928 839.976 265.944 839.244 265.803C838.513 265.661 837.82 265.366 837.212 264.936Z" fill="#25929B"/>
<path d="M876.087 153.233C890.412 153.233 902.025 141.634 902.025 127.326C902.025 113.017 890.412 101.418 876.087 101.418C861.763 101.418 850.15 113.017 850.15 127.326C850.15 141.634 861.763 153.233 876.087 153.233Z" fill="#FFB8B8"/>
<path d="M804.117 147.845L783.903 156.758C783.134 157.096 782.262 157.115 781.479 156.812C780.696 156.509 780.065 155.908 779.725 155.141L779.225 154.01C778.887 153.242 778.867 152.371 779.171 151.589C779.474 150.806 780.076 150.176 780.844 149.837L801.058 140.924C801.827 140.586 802.698 140.566 803.481 140.869C804.265 141.173 804.896 141.774 805.236 142.541L805.736 143.672C806.074 144.44 806.093 145.311 805.79 146.093C805.486 146.875 804.885 147.505 804.117 147.845Z" fill="#CCCCCC"/>
<path d="M811.509 161.558L791.295 170.471C790.526 170.809 789.654 170.828 788.871 170.525C788.088 170.222 787.457 169.621 787.117 168.854L786.617 167.722C786.279 166.954 786.259 166.084 786.563 165.302C786.866 164.519 787.468 163.889 788.236 163.549L808.45 154.637C809.219 154.299 810.09 154.279 810.874 154.582C811.657 154.885 812.288 155.486 812.628 156.254L813.128 157.385C813.466 158.153 813.486 159.024 813.182 159.806C812.879 160.588 812.277 161.218 811.509 161.558Z" fill="#CCCCCC"/>
<path d="M827.097 215.119L782.032 179.607C781.673 179.733 781.308 179.841 780.938 179.93C779.347 180.301 777.696 180.334 776.092 180.027C774.488 179.72 772.966 179.079 771.626 178.145C770.277 177.212 769.144 176.001 768.301 174.594C767.458 173.187 766.926 171.617 766.741 169.988C766.438 167.384 767.026 164.755 768.408 162.526C769.79 160.298 771.885 158.601 774.353 157.712C775.894 157.16 777.534 156.939 779.166 157.064C780.798 157.189 782.386 157.658 783.824 158.438C785.262 159.219 786.519 160.294 787.512 161.593C788.506 162.893 789.213 164.387 789.588 165.979C789.704 166.483 789.785 166.995 789.83 167.511L834.691 193.362L845.855 186.942L858.222 203.114L840.889 215.455C838.859 216.888 836.422 217.629 833.937 217.568C831.453 217.508 829.054 216.649 827.097 215.119Z" fill="#FFB8B8"/>
<path d="M863.721 208.151L838.009 190.685L850.093 173.59C851.697 171.32 854.053 169.69 856.745 168.987C859.437 168.284 862.29 168.555 864.802 169.75C867.342 170.96 869.366 173.037 870.507 175.606C871.649 178.176 871.833 181.068 871.026 183.761L863.721 208.151Z" fill="#25929B"/>
<path d="M866.578 123.467C859.912 128.024 851.159 132.709 844.35 127.856C839.879 124.669 838.471 118.768 840.284 113.589C843.544 104.277 852.501 100.177 861.067 97.0342C872.202 92.9488 884.326 89.6987 895.822 92.6244C907.317 95.5502 917.476 106.667 915.401 118.334C913.732 127.716 904.872 135.522 906.13 144.968C907.396 154.474 918.099 159.478 927.548 161.177C936.997 162.876 947.571 163.422 954.361 170.201C963.024 178.849 960.861 194.307 952.709 203.438C944.558 212.569 932.258 216.708 920.338 219.522C904.546 223.25 887.465 225.209 872.466 219.022C857.468 212.835 845.796 196.18 850.141 180.563C851.976 173.966 856.299 168.391 860.478 162.964C864.656 157.536 868.887 151.861 870.481 145.202C871.809 139.653 870.826 133.21 867.142 129.047C866.472 128.319 866.05 127.397 865.937 126.414C865.824 125.431 866.026 124.438 866.514 123.576L866.578 123.467Z" fill="#2F2E41"/>
<path d="M379.414 249.343C372.73 251.69 365.554 252.277 358.577 251.05C351.6 249.822 345.058 246.82 339.579 242.334C325.627 230.637 321.253 211.366 317.693 193.522C314.184 175.929 310.675 158.336 307.166 140.743L329.207 155.902C345.057 166.804 361.265 178.055 372.24 193.846C383.214 209.636 388.005 231.192 379.187 248.278" fill="#E6E6E6"/>
<path d="M377.53 313.243C379.76 297.012 382.054 280.572 380.489 264.167C379.1 249.598 374.65 235.367 365.59 223.699C360.781 217.518 354.93 212.221 348.299 208.048C346.57 206.958 344.978 209.695 346.7 210.781C358.173 218.024 367.048 228.719 372.043 241.325C377.561 255.343 378.447 270.624 377.496 285.515C376.921 294.52 375.703 303.467 374.475 312.402C374.378 312.806 374.438 313.231 374.644 313.593C374.849 313.954 375.184 314.224 375.581 314.348C375.986 314.457 376.418 314.402 376.782 314.195C377.147 313.988 377.416 313.646 377.53 313.243Z" fill="#F2F2F2"/>
<path d="M356.043 284.521C353.176 288.873 349.236 292.414 344.602 294.803C339.968 297.192 334.796 298.349 329.584 298.162C316.19 297.527 305.024 288.189 294.973 279.325L265.242 253.105L284.919 252.164C299.069 251.488 313.585 250.857 327.062 255.215C340.54 259.574 352.97 270.064 355.434 283.999" fill="#E6E6E6"/>
<path d="M383.834 322.573C373.097 303.596 360.642 282.504 338.388 275.763C332.201 273.895 325.713 273.226 319.273 273.792C317.244 273.967 317.751 277.091 319.776 276.917C330.57 276.022 341.343 278.869 350.281 284.978C358.882 290.826 365.579 298.956 371.248 307.578C374.72 312.859 377.83 318.364 380.94 323.862C381.934 325.619 384.84 324.351 383.834 322.573Z" fill="#F2F2F2"/>
<path d="M401.038 342.549C400.677 338.361 399.172 334.354 396.687 330.962C394.203 327.57 390.834 324.924 386.948 323.312V312.341H368.526V323.658C364.831 325.349 361.652 327.988 359.311 331.307C356.971 334.625 355.553 338.504 355.203 342.549L350.871 392.847H405.37L401.038 342.549Z" fill="#F2F2F2"/>
</svg>
