<svg width="1239" height="430" viewBox="0 0 1239 430" fill="none" xmlns="http://www.w3.org/2000/svg">
<rect width="1239" height="430" fill="white"/>
<g clip-path="url(#clip0_40_1631)">
<path d="M834.234 367.771L835.013 350.281C843.134 345.946 852.193 343.657 861.402 343.611C848.727 353.957 850.311 373.901 841.719 387.814C839.005 392.133 835.353 395.787 831.033 398.505C826.714 401.223 821.836 402.936 816.764 403.516L806.157 410C804.702 401.899 805.023 393.58 807.098 385.614C809.173 377.649 812.953 370.228 818.177 363.862C821.143 360.319 824.544 357.164 828.3 354.47C830.84 361.158 834.234 367.771 834.234 367.771Z" fill="#F2F2F2"/>
<path d="M470.108 212.276C469.407 211.638 468.855 210.854 468.491 209.979C468.126 209.104 467.958 208.161 467.999 207.214C468.039 206.268 468.287 205.342 468.725 204.501C469.162 203.661 469.779 202.926 470.532 202.349L463.266 180.495L474.839 183.6L479.965 203.877C480.852 205.204 481.22 206.809 481 208.389C480.78 209.969 479.988 211.413 478.773 212.448C477.558 213.484 476.005 214.038 474.408 214.006C472.811 213.975 471.281 213.359 470.108 212.276Z" fill="#A0616A"/>
<path d="M491.084 93.54C493.005 94.6392 504.367 91.9155 506.586 92.6904C505.361 100.153 512.014 97.3524 504.79 107.152C497.565 116.953 483.014 146.336 479.708 157.318C476.402 168.299 479.674 183.776 479.179 188.98C478.94 191.996 478.955 195.026 479.224 198.04C475.32 197.99 471.473 198.799 467.509 198.282C463.281 186.338 460.438 169.336 458.508 159.939C456.578 150.543 456.507 154.517 457.392 149.818C458.278 145.12 458.492 148.534 457.562 144.039C456.632 139.544 460.393 133.897 463.868 130.676C465.367 126.373 467.303 122.361 468.786 118.103C479.657 108.635 480.371 103.166 491.084 93.54Z" fill="#25929B"/>
<path d="M806.905 397.88H797.302L792.733 360.894H806.907L806.905 397.88Z" fill="#FFB6B6"/>
<path d="M809.355 407.175L778.388 407.174V406.783C778.388 403.592 779.658 400.531 781.919 398.274C784.179 396.017 787.245 394.749 790.441 394.749L796.098 390.464L806.652 394.749L809.355 394.75L809.355 407.175Z" fill="#2F2E41"/>
<path d="M762.288 397.88H752.684L748.116 360.894H762.29L762.288 397.88Z" fill="#FFB6B6"/>
<path d="M764.738 407.175L733.771 407.174V406.783C733.771 403.592 735.041 400.531 737.301 398.274C739.562 396.017 742.627 394.749 745.824 394.749L751.481 390.464L762.035 394.749L764.738 394.75L764.738 407.175Z" fill="#2F2E41"/>
<path d="M758.131 195.673L820.598 197.232C832.462 203.666 832.642 217.592 828.755 234.125C828.755 234.125 830.067 243.952 827.443 246.573C824.818 249.193 823.506 249.193 824.818 253.779C826.13 258.365 819.197 265.855 820.039 266.696C820.881 267.537 822.85 272.123 822.85 272.123L816.288 309.466C816.288 309.466 811.695 374.324 810.383 375.634C809.071 376.944 807.759 375.634 809.071 378.91C810.383 382.185 811.695 380.875 810.383 382.185C809.221 383.437 808.126 384.749 807.102 386.116H791.239C791.239 386.116 790.043 379.565 790.043 378.91C790.043 378.254 788.731 374.324 788.731 373.668C788.731 373.013 789.89 371.855 789.89 371.855C790.291 370.524 790.562 369.156 790.699 367.772C790.699 366.462 794.636 316.017 794.636 316.017L786.762 250.504L767.734 314.707C767.734 314.707 767.734 371.048 766.422 372.358C765.11 373.668 765.11 373.013 765.766 375.634C766.422 378.254 769.046 377.599 767.078 379.565C765.11 381.53 764.453 378.254 765.11 381.53L765.766 384.806L746.082 385.087C746.082 385.087 743.457 379.565 744.769 377.599C746.082 375.634 746.003 376.17 744.402 372.954C742.801 369.738 742.145 369.083 742.801 368.427C743.457 367.772 743.457 364.288 743.457 364.288L746.738 301.604C746.738 301.604 747.394 235.436 747.394 233.47C747.443 232.459 747.257 231.45 746.849 230.523V227.855L749.362 218.402L758.131 195.673Z" fill="#2F2E41"/>
<path d="M795.656 65.9816C806.375 65.9816 815.065 57.3052 815.065 46.6024C815.065 35.8996 806.375 27.2233 795.656 27.2233C784.937 27.2233 776.247 35.8996 776.247 46.6024C776.247 57.3052 784.937 65.9816 795.656 65.9816Z" fill="#FFB6B6"/>
<path d="M785.951 78.7899C781.77 81.2719 779.269 85.8323 777.833 90.4729C775.175 99.0645 773.575 107.947 773.068 116.925L771.551 143.804L752.769 201.036C769.047 214.788 830.235 204.161 830.235 204.161C830.235 204.161 832.113 203.536 830.235 201.661C828.357 199.785 826.528 201.447 828.407 199.571C830.285 197.696 828.99 199.785 828.364 197.91C827.738 196.034 828.364 197.285 828.99 196.66C829.616 196.034 824.143 190.408 824.143 190.408L829.152 157.557L835.413 91.2924C827.9 81.9154 812.79 76.3878 812.79 76.3878L808.886 69.371L789.365 70.9303L785.951 78.7899Z" fill="#3F3D56"/>
<path d="M783.29 35.2293C784.04 35.2352 784.788 35.3331 785.515 35.5209C786.948 35.865 788.404 36.1087 789.871 36.2503C794.365 36.6724 798.586 38.5857 801.863 41.6846C805.139 44.7835 807.281 48.8892 807.946 53.3461C809.074 52.3643 811.64 50.5583 813.744 52.2368C813.776 52.2634 813.795 52.2771 813.868 52.2421C815.265 51.5805 817.745 43.4361 817.82 36.2651C817.86 32.4591 817.26 27.5989 814.177 26.0598L814.014 25.9787L813.972 25.8024C813.766 24.9462 811.465 23.4848 807.465 22.3473C800.197 20.2802 789.576 19.9814 783.475 25.9075C783.013 27.9053 781.297 28.4527 779.78 28.9374C778.099 29.4738 776.648 29.9366 776.419 31.9946C776.228 34.9233 776.242 37.8617 776.461 40.7885C777.03 38.9975 778.148 37.43 779.656 36.3067C780.729 35.5857 781.997 35.2098 783.29 35.2293Z" fill="#2F2E41"/>
<path d="M747.164 142.308L778.869 122.034L762.9 100.839L747.132 120.206L698.003 123.214C696.71 121.939 695.074 121.067 693.294 120.703C691.514 120.34 689.666 120.502 687.977 121.169C686.287 121.837 684.828 122.98 683.779 124.461C682.729 125.942 682.133 127.695 682.064 129.508C681.995 131.321 682.456 133.115 683.39 134.671C684.325 136.227 685.692 137.478 687.326 138.271C688.96 139.064 690.79 139.365 692.593 139.138C694.396 138.911 696.093 138.165 697.478 136.991L747.164 142.308Z" fill="#FFB6B6"/>
<path d="M808.295 93.7367C810.135 104.856 775.386 126.088 775.386 126.088C775.385 123.478 754.645 143.181 753.709 141.016C751.048 134.865 749.178 120.294 745.46 117.962C743.334 116.628 758.265 104.1 758.265 104.1C758.265 104.1 766.081 96.2377 776.338 86.3213C779.185 83.464 782.711 81.3726 786.585 80.2417C790.46 79.1108 794.559 78.9771 798.499 79.8532C798.499 79.8532 806.455 82.6178 808.295 93.7367Z" fill="#3F3D56"/>
<path d="M772.967 221.401C772.981 233.3 770.985 245.116 767.064 256.353C766.884 256.875 766.697 257.39 766.509 257.912C758.483 279.678 743.553 298.228 723.993 310.741C722.658 311.598 721.307 312.417 719.932 313.212C704.305 322.257 686.615 327.148 668.553 327.417C667.96 327.425 667.366 327.433 666.773 327.433C666.008 327.433 665.25 327.425 664.493 327.409C646.407 327.05 628.717 322.063 613.114 312.924C611.74 312.121 610.386 311.286 609.053 310.421C587.337 296.365 571.503 274.881 564.521 249.999C557.538 225.117 559.888 198.546 571.128 175.27C571.378 174.748 571.636 174.233 571.901 173.711C580.754 156.169 594.311 141.426 611.062 131.125C627.813 120.824 647.1 115.37 666.773 115.37C686.446 115.37 705.733 120.824 722.484 131.125C739.235 141.426 752.792 156.169 761.645 173.711C761.91 174.233 762.168 174.748 762.418 175.27C769.385 189.652 772.992 205.425 772.967 221.401Z" fill="#F2F2F2"/>
<path d="M740.109 256.353V257.912H749.62V256.353H740.109ZM721.088 256.353V257.912H730.599V256.353H721.088ZM702.067 256.353V257.912H711.578V256.353H702.067ZM683.046 256.353V257.912H692.556V256.353H683.046ZM664.025 256.353V257.912H673.535V256.353H664.025ZM645.003 256.353V257.912H654.514V256.353H645.003ZM625.982 256.353V257.912H635.493V256.353H625.982ZM606.969 256.353V257.912H616.472V256.353H606.969ZM587.947 256.353V257.912H597.458V256.353H587.947ZM568.926 256.353V257.912H578.437V256.353H568.926ZM767.064 256.353H759.131V257.912H766.51L767.064 256.353Z" fill="#E6E6E6"/>
<path d="M759.131 245.438V246.997H768.641V245.438H759.131ZM740.11 245.438V246.997H749.62V245.438H740.11ZM721.088 245.438V246.997H730.599V245.438H721.088ZM702.067 245.438V246.997H711.578V245.438H702.067ZM683.046 245.438V246.997H692.556V245.438H683.046ZM664.025 245.438V246.997H673.535V245.438H664.025ZM645.003 245.438V246.997H654.514V245.438H645.003ZM625.982 245.438V246.997H635.493V245.438H625.982ZM606.969 245.438V246.997H616.472V245.438H606.969ZM587.947 245.438V246.997H597.458V245.438H587.947ZM568.926 245.438V246.997H578.437V245.438H568.926Z" fill="#E6E6E6"/>
<path d="M759.131 222.828V224.387H768.641V222.828H759.131ZM740.11 222.828V224.387H749.62V222.828H740.11ZM721.088 222.828V224.387H730.599V222.828H721.088ZM702.067 222.828V224.387H711.578V222.828H702.067ZM683.046 222.828V224.387H692.556V222.828H683.046ZM664.025 222.828V224.387H673.535V222.828H664.025ZM645.003 222.828V224.387H654.514V222.828H645.003ZM625.982 222.828V224.387H635.493V222.828H625.982ZM606.969 222.828V224.387H616.472V222.828H606.969ZM587.947 222.828V224.387H597.458V222.828H587.947ZM568.926 222.828V224.387H578.437V222.828H568.926Z" fill="#E6E6E6"/>
<path d="M759.131 207.235V208.795H768.641V207.235H759.131ZM740.11 207.235V208.795H749.62V207.235H740.11ZM721.088 207.235V208.795H730.599V207.235H721.088ZM702.067 207.235V208.795H711.578V207.235H702.067ZM683.046 207.235V208.795H692.556V207.235H683.046ZM664.025 207.235V208.795H673.535V207.235H664.025ZM645.003 207.235V208.795H654.514V207.235H645.003ZM625.982 207.235V208.795H635.493V207.235H625.982ZM606.969 207.235V208.795H616.472V207.235H606.969ZM587.947 207.235V208.795H597.458V207.235H587.947ZM568.926 207.235V208.795H578.437V207.235H568.926Z" fill="#E6E6E6"/>
<path d="M761.645 173.711H759.131V175.27H762.418C762.168 174.748 761.91 174.233 761.645 173.711ZM740.109 173.711V175.27H749.62V173.711H740.109ZM721.088 173.711V175.27H730.599V173.711H721.088ZM702.067 173.711V175.27H711.578V173.711H702.067ZM683.046 173.711V175.27H692.556V173.711H683.046ZM664.025 173.711V175.27H673.535V173.711H664.025ZM645.003 173.711V175.27H654.514V173.711H645.003ZM625.982 173.711V175.27H635.493V173.711H625.982ZM606.969 173.711V175.27H616.471V173.711H606.969ZM587.947 173.711V175.27H597.458V173.711H587.947ZM571.901 173.711C571.636 174.233 571.378 174.747 571.128 175.27H578.437V173.711H571.901Z" fill="#E6E6E6"/>
<path d="M723.993 178.965V310.741C722.658 311.598 721.307 312.417 719.933 313.212V178.965H723.993Z" fill="#3F3D56"/>
<path d="M668.553 222.625V327.417C667.96 327.425 667.367 327.433 666.773 327.433C666.008 327.433 665.251 327.425 664.493 327.409V222.625H668.553Z" fill="#3F3D56"/>
<path d="M613.114 178.965V312.924C611.74 312.121 610.386 311.286 609.053 310.421V178.965H613.114Z" fill="#3F3D56"/>
<path d="M414.154 358.321L412.605 336.812C402.459 331.748 391.229 329.233 379.889 329.486C395.843 341.799 394.565 366.408 405.614 383.25C409.1 388.477 413.72 392.853 419.13 396.054C424.541 399.256 430.603 401.2 436.869 401.744L450.146 409.371C451.665 399.348 450.99 389.115 448.166 379.378C445.343 369.641 440.439 360.63 433.792 352.967C430.021 348.705 425.727 344.935 421.012 341.744C418.109 350.064 414.154 358.321 414.154 358.321Z" fill="#F2F2F2"/>
<path d="M721.432 189.436C729.626 189.436 736.268 182.804 736.268 174.623C736.268 166.442 729.626 159.81 721.432 159.81C713.238 159.81 706.596 166.442 706.596 174.623C706.596 182.804 713.238 189.436 721.432 189.436Z" fill="#25929B"/>
<path d="M729.048 168.449C728.824 168.237 728.528 168.118 728.219 168.118C727.911 168.118 727.614 168.237 727.391 168.449C724.243 170.956 721.416 173.84 718.972 177.035C718.372 175.876 717.773 174.717 717.173 173.559C716.48 172.221 714.458 173.403 715.15 174.739C716.028 176.434 716.905 178.129 717.782 179.824C717.888 179.997 718.037 180.14 718.214 180.239C718.391 180.339 718.591 180.391 718.794 180.391C718.997 180.391 719.196 180.339 719.373 180.239C719.551 180.14 719.699 179.997 719.805 179.824C722.409 176.163 725.521 172.89 729.048 170.103C729.266 169.883 729.388 169.586 729.388 169.276C729.388 168.966 729.266 168.669 729.048 168.449Z" fill="white"/>
<path d="M666.773 233.096C674.967 233.096 681.609 226.464 681.609 218.283C681.609 210.102 674.967 203.47 666.773 203.47C658.579 203.47 651.937 210.102 651.937 218.283C651.937 226.464 658.579 233.096 666.773 233.096Z" fill="#25929B"/>
<path d="M674.389 212.109C674.166 211.897 673.869 211.778 673.561 211.778C673.252 211.778 672.956 211.897 672.733 212.109C669.585 214.616 666.757 217.5 664.314 220.695C663.714 219.536 663.114 218.377 662.514 217.219C661.822 215.881 659.8 217.063 660.491 218.399C661.369 220.094 662.246 221.789 663.124 223.484C663.229 223.657 663.378 223.8 663.555 223.899C663.732 223.999 663.932 224.051 664.135 224.051C664.338 224.051 664.538 223.999 664.715 223.899C664.892 223.8 665.04 223.657 665.146 223.484C667.75 219.823 670.862 216.55 674.389 213.763C674.607 213.543 674.729 213.246 674.729 212.936C674.729 212.626 674.607 212.329 674.389 212.109Z" fill="white"/>
<path d="M611.333 192.555C619.527 192.555 626.169 185.923 626.169 177.741C626.169 169.56 619.527 162.928 611.333 162.928C603.14 162.928 596.498 169.56 596.498 177.741C596.498 185.923 603.14 192.555 611.333 192.555Z" fill="#25929B"/>
<path d="M618.949 171.568C618.726 171.355 618.43 171.237 618.121 171.237C617.813 171.237 617.516 171.355 617.293 171.568C614.145 174.075 611.318 176.958 608.874 180.154C608.274 178.995 607.675 177.836 607.075 176.677C606.382 175.34 604.36 176.521 605.052 177.858C605.929 179.553 606.807 181.248 607.684 182.943C607.79 183.116 607.939 183.259 608.116 183.358C608.293 183.457 608.492 183.509 608.695 183.509C608.899 183.509 609.098 183.457 609.275 183.358C609.452 183.259 609.601 183.116 609.707 182.943C612.311 179.281 615.423 176.008 618.949 173.222C619.167 173.001 619.29 172.704 619.29 172.395C619.29 172.085 619.167 171.788 618.949 171.568Z" fill="white"/>
<path d="M824.094 167.207L833.861 130.903L807.762 125.97L809.165 150.889L774.873 186.145C773.057 186.071 771.259 186.526 769.698 187.454C768.137 188.383 766.881 189.744 766.081 191.374C765.282 193.003 764.975 194.829 765.197 196.63C765.42 198.43 766.162 200.127 767.334 201.514C768.505 202.901 770.056 203.917 771.796 204.439C773.536 204.961 775.391 204.966 777.134 204.454C778.877 203.942 780.433 202.934 781.612 201.554C782.792 200.175 783.544 198.482 783.776 196.682L824.094 167.207Z" fill="#FFB6B6"/>
<path d="M836.532 90.198C845.391 97.1812 834.02 136.242 834.02 136.242C832.26 134.313 830.214 162.823 828.062 161.852C821.947 159.093 810.737 149.579 806.416 150.354C803.944 150.798 806.534 131.496 806.534 131.496C806.534 131.496 807.01 120.429 807.905 106.202C808.083 102.175 809.279 98.2585 811.381 94.8171C813.483 91.3758 816.423 88.5214 819.927 86.5197C819.927 86.5197 827.673 83.2149 836.532 90.198Z" fill="#3F3D56"/>
<path d="M530.542 171.706L541.28 219.549L472.474 215.276L491.184 168.289L530.542 171.706Z" fill="#A0616A"/>
<path d="M519.085 392.522L526.814 392.522L530.491 362.756H519.083L519.085 392.522Z" fill="#A0616A"/>
<path d="M516.467 388.715L528.685 387.987V393.214L540.301 401.224C540.875 401.619 541.307 402.188 541.535 402.846C541.762 403.504 541.773 404.218 541.565 404.882C541.358 405.547 540.943 406.128 540.381 406.54C539.82 406.953 539.141 407.175 538.443 407.175H523.897L521.39 402.005L520.411 407.175H514.927L516.467 388.715Z" fill="#2F2E41"/>
<path d="M446.034 388.683L453.588 390.318L463.502 362.007L452.354 359.593L446.034 388.683Z" fill="#A0616A"/>
<path d="M444.285 384.408L456.38 386.283L455.27 391.391L464.921 401.678C465.398 402.186 465.7 402.833 465.782 403.524C465.865 404.215 465.724 404.915 465.38 405.52C465.036 406.126 464.507 406.606 463.871 406.89C463.234 407.175 462.523 407.248 461.842 407.101L447.627 404.022L446.274 398.438L444.22 403.284L438.86 402.123L444.285 384.408Z" fill="#2F2E41"/>
<path d="M543.036 259.557C537.612 289.322 536.256 302.174 536.256 302.174C536.256 302.174 540.324 306.909 537.612 309.617C534.9 312.325 537.612 317.734 537.612 317.734L531.513 383.353L526.604 382.559L514.778 380.66L510.513 379.972L513.225 318.414C513.225 318.414 510.513 312.998 511.869 311.644C513.225 310.29 510.513 302.174 510.513 302.174L507.127 237.908L486.119 308.263C486.119 308.263 488.157 310.971 486.119 312.998C484.089 315.026 480.028 325.177 480.028 325.177L467.535 368.822L466.475 372.529L459.96 371.311L452.869 369.98L451.566 369.738L449.247 369.299L447.755 369.019L447.247 368.928L444.793 368.467L445.535 365.176L445.922 363.444L456.49 316.576L456.732 315.494L456.99 314.352C456.99 314.352 455.634 310.971 457.664 308.936C458.258 308.316 458.692 307.561 458.928 306.736C459.164 305.911 459.196 305.041 459.02 304.201C458.954 304.13 458.893 304.054 458.838 303.974C458.599 303.645 458.433 303.269 458.354 302.87C458.172 302.023 458.331 300.835 459.702 299.466C460.088 299.056 460.412 298.592 460.664 298.089C462.725 294.194 463.763 285.941 463.763 285.941C463.763 285.941 465.596 220.578 471.596 210.594C471.914 210.072 478.284 200.052 478.617 199.847C485.39 195.793 538.156 201.393 538.156 201.393C538.156 201.393 541.352 209.966 541.496 210.858C542.277 215.873 547.635 234.307 543.036 259.557Z" fill="#2F2E41"/>
<path d="M527.003 102.116C527.003 102.116 528.145 96.1984 517.173 85.2439C511.365 83.3108 501.301 84.4375 497.812 85.2439C481.678 106.508 484.567 102.756 480.367 114.638C479.278 117.719 478.734 120.679 479.218 123.095C481.154 132.761 484.297 182.377 483.652 184.954C483.006 187.532 478.489 190.754 483.006 190.754C487.524 190.754 545.782 189.736 544.491 187.803C543.2 185.869 527.003 102.116 527.003 102.116Z" fill="#25929B"/>
<path d="M596.193 180.739C595.308 181.081 594.359 181.226 593.413 181.162C592.466 181.098 591.545 180.828 590.714 180.37C589.884 179.913 589.164 179.279 588.605 178.513C588.046 177.747 587.662 176.869 587.48 175.939L564.647 172.701L572.587 163.737L593.052 168.186C594.636 167.985 596.24 168.371 597.559 169.271C598.877 170.171 599.82 171.523 600.207 173.07C600.594 174.617 600.399 176.253 599.659 177.666C598.92 179.08 597.686 180.173 596.193 180.739Z" fill="#A0616A"/>
<path d="M499.593 98.307C501.434 97.0799 503.525 96.5036 505.208 94.865C511.354 99.2838 511.806 92.0891 517.376 102.913C522.946 113.736 542.812 139.832 551.187 147.678C559.562 155.525 574.897 159.493 579.344 162.254C581.941 163.811 584.665 165.148 587.487 166.249C585.704 169.717 584.716 173.516 582.487 176.83C569.893 175.289 553.381 170.258 544.096 167.798C534.81 165.338 538.342 167.171 534.523 164.287C530.704 161.403 533.861 162.732 529.416 161.561C524.972 160.391 521.583 154.513 520.243 149.972C517.052 146.716 514.317 143.198 511.159 139.975C507.511 126.041 503.452 112.172 499.593 98.307Z" fill="#25929B"/>
<path d="M514.01 76.9965C524.331 76.9965 532.698 68.6425 532.698 58.3375C532.698 48.0324 524.331 39.6785 514.01 39.6785C503.689 39.6785 495.323 48.0324 495.323 58.3375C495.323 68.6425 503.689 76.9965 514.01 76.9965Z" fill="#A0616A"/>
<path d="M526.496 92.4452C525.61 91.1822 518.987 78.6585 517.019 73.9225C516.816 74.9481 516.689 75.987 516.636 77.031L516.617 77.4201L516.23 77.4701C515.648 77.5443 501.904 79.21 494.751 71.1116C490.513 66.3147 489.552 59.1194 491.89 49.7216C491.465 49.6382 491.057 49.4815 490.686 49.2584C490.067 48.8309 489.55 48.2739 489.169 47.6262C488.788 46.9784 488.553 46.2555 488.481 45.5079L488.085 45.6139C475.36 39.4311 486.323 21.3443 497.946 30.3367C498.966 30.1092 500.029 30.1702 501.015 30.5128C501.967 30.8993 502.796 31.5358 503.415 32.3547C504.034 33.1735 504.419 34.1443 504.53 35.1641C510.536 32.0101 518.484 32.5234 522.595 34.8898C524.316 35.8807 525.304 37.1288 525.48 38.521C530.335 38.7918 535.557 43.5141 535.557 50.2048V50.6707H535.091C533.137 50.7122 531.232 51.2834 529.579 52.3232C527.925 53.3629 526.587 54.8321 525.706 56.5733C524.512 58.7272 523.921 61.1624 523.995 63.6232C524.069 66.0839 524.806 68.4792 526.128 70.5574C527.566 72.7618 528.548 75.2313 529.016 77.8205C529.484 80.4097 529.429 83.0662 528.853 85.6336L527.099 93.3052L526.496 92.4452Z" fill="#2F2E41"/>
<path d="M580.72 407.329C580.72 407.451 580.696 407.572 580.65 407.685C580.603 407.798 580.535 407.9 580.448 407.986C580.362 408.072 580.259 408.141 580.146 408.187C580.034 408.234 579.913 408.258 579.79 408.257H360.929C360.683 408.257 360.446 408.159 360.272 407.985C360.098 407.811 360 407.575 360 407.329C360 407.083 360.098 406.847 360.272 406.673C360.446 406.499 360.683 406.402 360.929 406.402H579.79C579.913 406.401 580.034 406.425 580.146 406.472C580.259 406.518 580.362 406.586 580.448 406.673C580.535 406.759 580.603 406.861 580.65 406.974C580.696 407.087 580.72 407.207 580.72 407.329Z" fill="#CCCCCC"/>
<path d="M879 407.329C879 407.451 878.977 407.572 878.93 407.685C878.883 407.798 878.815 407.9 878.729 407.986C878.642 408.072 878.54 408.141 878.427 408.187C878.314 408.234 878.193 408.258 878.071 408.257H659.209C658.963 408.257 658.727 408.159 658.552 407.985C658.378 407.811 658.28 407.575 658.28 407.329C658.28 407.083 658.378 406.847 658.552 406.673C658.727 406.499 658.963 406.402 659.209 406.402H878.071C878.193 406.401 878.314 406.425 878.427 406.472C878.54 406.518 878.642 406.586 878.729 406.673C878.815 406.759 878.883 406.861 878.93 406.974C878.977 407.087 879 407.207 879 407.329Z" fill="#CCCCCC"/>
<path d="M610.872 340.466C615.439 340.466 619.142 336.769 619.142 332.209C619.142 327.649 615.439 323.952 610.872 323.952C606.305 323.952 602.603 327.649 602.603 332.209C602.603 336.769 606.305 340.466 610.872 340.466Z" fill="#E6E6E6"/>
<path d="M666.312 349.042C670.879 349.042 674.582 345.345 674.582 340.785C674.582 336.225 670.879 332.528 666.312 332.528C661.745 332.528 658.042 336.225 658.042 340.785C658.042 345.345 661.745 349.042 666.312 349.042Z" fill="#E6E6E6"/>
<path d="M721.751 338.906C726.319 338.906 730.021 335.21 730.021 330.65C730.021 326.089 726.319 322.393 721.751 322.393C717.184 322.393 713.482 326.089 713.482 330.65C713.482 335.21 717.184 338.906 721.751 338.906Z" fill="#E6E6E6"/>
</g>
<defs>
<clipPath id="clip0_40_1631">
<rect width="519" height="389" fill="white" transform="translate(360 21)"/>
</clipPath>
</defs>
</svg>
