<svg width="1239" height="430" viewBox="0 0 1239 430" fill="none" xmlns="http://www.w3.org/2000/svg">
<rect width="1239" height="430" fill="white"/>
<g clip-path="url(#clip0_40_1622)">
<path d="M607.632 190.417C605.568 185.86 606.345 181.089 609.367 179.761C612.388 178.433 616.509 181.051 618.573 185.61C619.424 187.419 619.81 189.409 619.7 191.411L628.191 210.831L618.615 214.674L611.262 195.12C609.676 193.863 608.431 192.251 607.632 190.417Z" fill="#FFAFAF"/>
<path d="M666.31 198.664C671.486 203.542 671.162 211.867 665.622 216.328L638.492 238.178C635.531 240.563 631.136 239.72 629.268 236.41C622.138 224.872 620.794 224.239 616.651 212.415L628.336 208.329L634.925 216.575L649.311 199.613C653.658 194.486 661.418 194.053 666.31 198.664Z" fill="#25929B"/>
<path d="M561.561 169.161V160.563H476.328V169.161H561.561Z" fill="#DFDFDF"/>
<path d="M777.381 169.161V160.563H692.148V169.161H777.381Z" fill="#DFDFDF"/>
<path d="M523.544 130.868H508.972C503.32 130.868 498.739 135.447 498.739 141.096V194.886C498.739 200.535 503.32 205.115 508.972 205.115H523.544C529.195 205.115 533.777 200.535 533.777 194.886V141.096C533.777 135.447 529.195 130.868 523.544 130.868Z" fill="#3F3D56"/>
<path d="M753.39 130.868H738.818C733.167 130.868 728.585 135.447 728.585 141.096V194.886C728.585 200.535 733.167 205.115 738.818 205.115H753.39C759.042 205.115 763.623 200.535 763.623 194.886V141.096C763.623 135.447 759.042 130.868 753.39 130.868Z" fill="#3F3D56"/>
<path d="M744.154 186.903H521.61C513.873 186.903 507.253 181.38 505.868 173.772L497.358 126.984C493.657 106.636 501.326 85.9056 517.376 72.8606L534.157 36.7708C538.047 28.4052 546.524 23 555.753 23H681.113C687.777 23 694.18 25.8182 698.68 30.7322L729.517 64.4088C752.076 79.6044 764.875 105.885 762.923 133.009L760.112 172.058C759.513 180.382 752.504 186.903 744.154 186.903Z" fill="#DFDFDF"/>
<path d="M706.174 69.5794H538.039C535.119 69.5794 532.424 68.119 530.831 65.6736C529.238 63.2275 528.992 60.1734 530.173 57.5043L539.035 37.4768C540.384 34.4287 543.409 32.4198 546.742 32.3589L690.072 32.5333C692.801 32.5155 695.407 33.7433 697.062 35.9042L713.004 55.7573C715.008 58.3744 715.345 61.8349 713.885 64.7898C712.425 67.7441 709.47 69.5794 706.174 69.5794Z" fill="white"/>
<path d="M731.389 122.463C739.516 122.463 746.104 115.877 746.104 107.753C746.104 99.6298 739.516 93.0442 731.389 93.0442C723.261 93.0442 716.673 99.6298 716.673 107.753C716.673 115.877 723.261 122.463 731.389 122.463Z" fill="white"/>
<path d="M537.981 122.463C546.108 122.463 552.697 115.877 552.697 107.753C552.697 99.6298 546.108 93.0442 537.981 93.0442C529.854 93.0442 523.265 99.6298 523.265 107.753C523.265 115.877 529.854 122.463 537.981 122.463Z" fill="white"/>
<path d="M717.023 162.738H556.551V162.388C556.551 154.084 563.31 147.328 571.617 147.328H701.957C710.265 147.328 717.023 154.084 717.023 162.388V162.738Z" fill="#3F3D56"/>
<path d="M519.734 75.9456C518.866 75.9456 517.996 75.6693 517.265 75.1111L511.39 70.6212C510.806 70.1752 510.08 69.9296 509.346 69.9296H496.515C495.047 69.9296 493.731 69.1717 492.995 67.9015C492.26 66.632 492.257 65.1141 492.988 63.8418L496.12 58.3874C496.746 57.2978 497.863 56.5481 499.11 56.3818L515.163 54.2422C517.164 53.9768 519.026 55.1855 519.599 57.1172L523.634 70.7279C524.078 72.2266 523.612 73.8682 522.447 74.9114C521.679 75.5981 520.708 75.9456 519.734 75.9456Z" fill="#DFDFDF"/>
<path d="M727.912 73.1437C726.939 73.1437 725.968 72.7962 725.2 72.1094C724.034 71.0663 723.569 69.4246 724.013 67.9259L728.047 54.3152C728.62 52.3822 730.486 51.1694 732.483 51.4409L748.537 53.5799C749.783 53.7461 750.9 54.4958 751.526 55.5854L754.658 61.0399C755.389 62.3121 755.386 63.83 754.651 65.0995C753.915 66.3698 752.6 67.1277 751.132 67.1277H738.301C737.566 67.1277 736.84 67.3732 736.257 67.8192L730.381 72.3092C729.651 72.8673 728.78 73.1437 727.912 73.1437Z" fill="#DFDFDF"/>
<path d="M484.93 49.5747H476.328V402.08H484.93V49.5747Z" fill="#DFDFDF"/>
<path d="M782.072 49.5747H773.471V402.08H782.072V49.5747Z" fill="#DFDFDF"/>
<path d="M415 402.423C415 402.691 415.215 402.906 415.483 402.906H823.517C823.785 402.906 824 402.691 824 402.423C824 402.155 823.785 401.939 823.517 401.939H415.483C415.215 401.939 415 402.155 415 402.423Z" fill="#3F3D56"/>
<path d="M684.415 375.758V391.725L696.493 392.114L695.989 375.758H684.415Z" fill="#FFAFAF"/>
<path d="M682.025 384.642C681.862 384.642 681.702 384.663 681.547 384.707C679.367 385.33 666.749 396.59 662.934 400.026C662.463 400.45 662.213 401.056 662.247 401.689C662.282 402.319 662.595 402.891 663.107 403.259C666 405.342 671.928 408.637 679.12 407.306C682.428 406.693 685.767 406.308 688.712 405.968C695.018 405.24 699.999 404.665 699.999 402.434C699.999 398.648 698.957 388.67 697.65 388.251C697.531 388.215 697.394 388.307 697.236 388.528C695.236 391.327 688.365 389.837 688.074 389.773L687.997 389.756L687.954 389.691C687.918 389.637 684.555 384.642 682.025 384.642Z" fill="#2F2E41"/>
<path d="M661.818 375.758V391.725L673.895 392.114L673.392 375.758H661.818Z" fill="#FFAFAF"/>
<path d="M656.948 261.459L650.519 266.327L649.35 321.237L660.259 381.21L674.48 381.794L674.87 324.548L693.181 272.364L689.48 260.096L656.948 261.459Z" fill="#2F2E41"/>
<path d="M686.947 270.806L693.181 272.363L697.661 381.21L681.493 379.847L670.779 302.934L686.947 270.806Z" fill="#2F2E41"/>
<path d="M653.195 408C647.652 408 643.149 405.551 640.744 403.9C640.017 403.401 639.568 402.61 639.51 401.728C639.452 400.838 639.799 399.986 640.462 399.39C646.431 394.022 656.758 384.928 658.842 384.333C661.544 383.559 665.17 388.724 665.636 389.409C666.391 389.563 672.576 390.744 674.321 388.301C674.654 387.836 674.967 387.815 675.172 387.88C677.037 388.478 677.792 400.479 677.792 402.434C677.792 405.013 672.913 405.576 666.16 406.355C663.221 406.694 659.889 407.079 656.594 407.688C655.425 407.905 654.29 408 653.195 408Z" fill="#2F2E41"/>
<path d="M670.306 190.338L674.743 199.274L657.971 207.37L658.176 193.045L670.306 190.338Z" fill="#FFAFAF"/>
<path d="M658.031 197.098C666.366 197.098 673.123 190.344 673.123 182.012C673.123 173.681 666.366 166.927 658.031 166.927C649.696 166.927 642.939 173.681 642.939 182.012C642.939 190.344 649.696 197.098 658.031 197.098Z" fill="#FFAFAF"/>
<path d="M657.929 203.887L673.404 194.747C684.753 202.703 694.205 204.564 694.505 218.417L692.414 251.462L692.536 265.694C692.588 271.668 687.757 276.538 681.779 276.538H659.682C653.835 276.538 649.478 271.146 650.709 265.432L654.881 246.072L650.426 208.34L657.929 203.887Z" fill="#25929B"/>
<path d="M673.551 189.603L670.761 191.601C670.761 191.601 669.939 182.892 668.807 182.506C667.674 182.119 666.145 184.126 666.145 184.126L665.029 187.396L661.338 185.858C661.338 185.858 657.064 183.557 655.554 183.042C654.043 182.527 654.272 178.152 654.272 178.152C654.272 178.152 636.139 180.633 638.863 170.184C638.863 170.184 639.801 162.497 641.809 164.025C643.817 165.553 643.844 161.769 643.844 161.769L648.394 160.793C648.394 160.793 654.637 152.387 666.952 159.538C679.266 166.688 673.551 189.603 673.551 189.603Z" fill="#2F2E41"/>
<path d="M642.055 222.994L637.978 222.373C636.839 222.199 636.05 221.126 636.223 219.989L636.721 216.719C635.242 217.634 634.156 219.163 633.873 221.017C633.437 223.877 635.054 226.57 637.619 227.619L634.052 251.024C634.043 251.083 634.045 251.14 634.043 251.198C631.274 251.428 628.919 253.521 628.482 256.387C628.226 258.067 628.678 259.691 629.613 260.959L630.062 258.014C630.235 256.876 631.309 256.087 632.447 256.26L636.524 256.881C637.663 257.054 638.452 258.127 638.279 259.265L637.781 262.534C639.26 261.62 640.346 260.09 640.629 258.237C641.066 255.371 639.441 252.672 636.866 251.628C636.882 251.572 636.901 251.518 636.91 251.459L640.477 228.054C643.238 227.816 645.584 225.726 646.02 222.867C646.276 221.187 645.824 219.562 644.889 218.295L644.44 221.24C644.267 222.378 643.193 223.167 642.055 222.994Z" fill="#3F3D56"/>
<path d="M634.461 243.358C629.568 242.305 626.193 238.843 626.923 235.626C627.652 232.408 632.209 230.654 637.103 231.708C639.065 232.101 640.894 232.974 642.439 234.253L663.107 238.985L660.5 248.965L640.401 243.24C638.447 243.767 636.41 243.807 634.461 243.358Z" fill="#FFAFAF"/>
<path d="M675.999 201.12C683.002 199.863 689.503 205.076 689.795 212.181L691.226 246.978C691.382 250.775 688.09 253.805 684.317 253.336C670.797 252.201 671.747 253.585 659.773 249.879L660.575 237.161L671.732 236.992L666.65 215.342C665.114 208.8 669.382 202.307 675.999 201.12Z" fill="#25929B"/>
</g>
<defs>
<clipPath id="clip0_40_1622">
<rect width="409" height="385" fill="white" transform="translate(415 23)"/>
</clipPath>
</defs>
</svg>
