<svg width="1239" height="430" viewBox="0 0 1239 430" fill="none" xmlns="http://www.w3.org/2000/svg">
<rect width="1239" height="430" fill="white"/>
<g clip-path="url(#clip0_40_1368)">
<path d="M435.847 392.641H338.682C338.682 392.641 336.712 363.67 348.365 363.341C360.018 363.011 358.705 376.18 373.313 358.073C387.921 339.966 405.646 340.954 407.944 351.654C410.242 362.354 403.513 370.913 415.822 368.279C428.132 365.645 445.858 372.559 435.847 392.641Z" fill="#E6E6E6"/>
<path d="M385.624 392.648L385.296 392.635C386.061 373.561 390.044 361.307 393.251 354.383C396.733 346.867 400.088 343.825 400.122 343.795L400.34 344.041C400.307 344.071 396.991 347.083 393.537 354.548C390.348 361.44 386.387 373.645 385.624 392.648Z" fill="white"/>
<path d="M420.79 392.687L420.475 392.594C422.919 384.51 427.324 377.161 433.295 371.204L433.516 371.448C427.589 377.363 423.216 384.661 420.79 392.687Z" fill="white"/>
<path d="M353.986 392.664L353.661 392.619C354.72 385.467 353.599 378.162 350.445 371.661C349.152 368.934 347.44 366.428 345.373 364.234L345.6 363.996C347.696 366.217 349.431 368.754 350.742 371.515C353.925 378.075 355.056 385.447 353.986 392.664Z" fill="white"/>
<path d="M449.033 393.081H328.202L328.175 392.671C328.105 391.65 326.564 367.562 334.346 358.967C335.118 358.059 336.071 357.323 337.144 356.807C338.217 356.29 339.385 356.005 340.575 355.969C345.647 355.824 348.835 357.73 351.406 359.259C356.253 362.142 359.454 364.048 371.095 349.618C383.705 333.987 397.312 330.624 405.133 332.493C410.187 333.702 413.67 337.117 414.69 341.864C415.657 346.359 415.348 350.582 415.1 353.976C414.835 357.607 414.627 360.474 416.114 361.774C417.358 362.859 419.833 362.957 423.91 362.085C432.203 360.311 443.777 361.828 449.586 369.356C452.711 373.406 455.173 380.766 449.155 392.838L449.033 393.081ZM329.027 392.2H448.49C452.974 383.076 453.114 375.367 448.891 369.895C443.562 362.99 432.383 361.173 424.093 362.946C419.663 363.894 417.023 363.738 415.537 362.439C413.719 360.85 413.942 357.788 414.224 353.914C414.467 350.577 414.769 346.423 413.831 342.052C412.885 337.65 409.641 334.479 404.929 333.353C397.357 331.541 384.128 334.862 371.777 350.174C359.66 365.195 356.009 363.024 350.958 360.016C348.355 358.468 345.4 356.712 340.599 356.849C339.528 356.883 338.476 357.142 337.511 357.609C336.546 358.075 335.689 358.739 334.995 359.558C328.003 367.283 328.856 388.943 329.027 392.2H329.027Z" fill="#2F2E41"/>
<path d="M843.845 393.57H724.831L724.808 392.901L719.125 229.901H849.55L843.845 393.57ZM726.166 392.184H842.51L848.119 231.287H720.556L726.166 392.184Z" fill="#3F3D56"/>
<path d="M753.221 260.103H744.168V372.45H753.221V260.103Z" fill="#3F3D56"/>
<path d="M788.864 260.103H779.811V372.45H788.864V260.103Z" fill="#3F3D56"/>
<path d="M824.507 260.103H815.454V372.45H824.507V260.103Z" fill="#3F3D56"/>
<path d="M925.177 277.766L924.593 277.396L776.762 183.702L789.585 163.352L790.17 163.722L938 257.415L925.177 277.766ZM778.669 183.271L924.747 275.853L936.093 257.847L790.016 165.264L778.669 183.271Z" fill="#3F3D56"/>
<path d="M889.485 176.151C885.188 173.423 880.201 171.99 875.116 172.02C870.03 172.049 865.061 173.542 860.796 176.32C856.531 179.097 853.15 183.044 851.055 187.691C848.959 192.338 848.237 197.49 848.974 202.537L856.023 207.004C854.252 202.879 853.843 198.293 854.859 193.919C855.874 189.544 858.258 185.61 861.664 182.693C865.069 179.776 869.317 178.029 873.784 177.708C878.251 177.387 882.703 178.509 886.488 180.909C890.274 183.309 893.194 186.861 894.821 191.046C896.447 195.231 896.695 199.828 895.529 204.165C894.362 208.501 891.841 212.349 888.336 215.145C884.831 217.941 880.526 219.538 876.05 219.702L883.099 224.17C887.961 222.673 892.292 219.809 895.579 215.918C898.866 212.026 900.971 207.271 901.644 202.215C902.317 197.16 901.529 192.017 899.375 187.397C897.221 182.777 893.791 178.874 889.491 176.151H889.485Z" fill="#3F3D56"/>
<path d="M930.188 392.614H302V394H930.188V392.614Z" fill="#3F3D56"/>
<path d="M576.383 383.155H566.318L561.527 344.222H576.385L576.383 383.155Z" fill="#FEB8B8"/>
<path d="M546.907 392.527H578.539V380.271H558.959C555.763 380.271 552.697 381.544 550.437 383.811C548.177 386.077 546.907 389.152 546.907 392.357V392.527Z" fill="#2F2E41"/>
<path d="M572.845 322.825L579.788 330.134L611.198 306.758L600.952 295.972L572.845 322.825Z" fill="#FEB8B8"/>
<path d="M586.94 333.482L573.43 319.266L564.582 327.723L586.407 350.69L586.53 350.573C587.676 349.478 588.595 348.167 589.236 346.716C589.877 345.264 590.226 343.7 590.264 342.113C590.302 340.526 590.028 338.947 589.458 337.466C588.887 335.985 588.032 334.632 586.94 333.482Z" fill="#2F2E41"/>
<path d="M502.791 216.161C502.154 215.133 501.749 213.978 501.605 212.776C501.462 211.574 501.582 210.356 501.959 209.206C502.335 208.057 502.959 207.004 503.785 206.122C504.611 205.239 505.62 204.55 506.74 204.101L546.255 103.099L561.658 112.349L517.762 209.242C518.389 211.181 518.286 213.283 517.471 215.15C516.656 217.017 515.187 218.519 513.341 219.372C511.495 220.225 509.402 220.369 507.457 219.777C505.513 219.185 503.852 217.898 502.791 216.161Z" fill="#FEB8B8"/>
<path d="M652.776 223.4C651.572 223.314 650.402 222.964 649.347 222.374C648.293 221.785 647.38 220.971 646.673 219.99C645.966 219.009 645.483 217.884 645.256 216.695C645.03 215.505 645.067 214.281 645.363 213.108L587.068 121.711L603.579 114.641L655.987 207.184C657.922 207.812 659.561 209.13 660.591 210.889C661.621 212.648 661.971 214.725 661.575 216.726C661.179 218.727 660.064 220.512 658.442 221.743C656.82 222.974 654.804 223.564 652.776 223.403V223.4Z" fill="#FEB8B8"/>
<path d="M546.644 206.047L556.963 359.852L581.622 357.67L586.698 244.197L600.478 292.93L630.214 295.112L618.444 198.773L546.644 206.047Z" fill="#2F2E41"/>
<path d="M604.83 285.657L600.476 292.931L570.019 314.025L591.776 325.663C591.776 325.663 633.841 302.387 630.215 295.113L604.83 285.657Z" fill="#2F2E41"/>
<path d="M525.051 143.819L533.635 119.561C535.544 114.164 538.503 109.2 542.338 104.956C546.173 100.713 550.809 97.2744 555.978 94.84C567.597 90.5473 580.233 89.8536 592.249 92.8488L595.373 93.6264C603.702 95.6512 611.507 99.4315 618.267 104.716C623.556 108.898 628.315 114.193 628.738 119.889C628.741 119.901 628.744 119.913 628.749 119.924C630.214 126.364 630.939 159.823 630.939 159.823H618.016L620.06 204.92L619.895 204.594C619.895 204.594 545.358 218.74 545.358 211.467V164.913L543.83 148.057L525.051 143.819Z" fill="#CCCCCC"/>
<path d="M594.624 86.5429C606.031 86.5429 615.279 77.2682 615.279 65.8273C615.279 54.3863 606.031 45.1116 594.624 45.1116C583.216 45.1116 573.968 54.3863 573.968 65.8273C573.968 77.2682 583.216 86.5429 594.624 86.5429Z" fill="#FEB8B8"/>
<path d="M597.718 56.5371L613.756 57.1817C615.774 57.1755 617.977 57.1041 619.514 55.7955C621.829 53.8209 621.442 50.0949 620.202 47.3115C616.746 39.5614 609.039 36.7848 600.575 37.0129C592.112 37.2409 583.243 40.1179 578.685 47.2706C574.128 54.4232 572.896 63.4555 574.613 71.767C576.597 67.5408 579.653 63.9105 583.473 61.2385C587.294 58.5666 591.747 56.9465 596.387 56.5399L597.718 56.5371Z" fill="#2F2E41"/>
<path d="M692.958 259.166L634.906 218.361C634.367 217.981 634 217.401 633.886 216.75C633.771 216.098 633.919 215.428 634.297 214.886L679.86 149.685C680.24 149.144 680.818 148.776 681.467 148.662C682.117 148.547 682.785 148.695 683.326 149.074L741.377 189.878C741.917 190.259 742.284 190.838 742.398 191.489C742.512 192.141 742.364 192.811 741.987 193.354L696.424 258.553C696.045 259.094 695.467 259.463 694.817 259.578C694.167 259.692 693.499 259.544 692.958 259.166Z" fill="#25929B"/>
<path d="M706.013 214.89L671.949 190.947C671.555 190.67 671.22 190.318 670.961 189.911C670.703 189.504 670.527 189.05 670.444 188.575C670.36 188.1 670.371 187.613 670.476 187.142C670.58 186.671 670.776 186.225 671.052 185.83C671.328 185.435 671.679 185.098 672.085 184.839C672.491 184.58 672.943 184.404 673.417 184.32C673.891 184.237 674.376 184.248 674.846 184.352C675.316 184.457 675.76 184.653 676.154 184.93L710.218 208.873C711.013 209.433 711.555 210.286 711.723 211.245C711.891 212.205 711.673 213.192 711.115 213.99C710.557 214.788 709.707 215.331 708.75 215.5C707.793 215.669 706.808 215.45 706.013 214.89Z" fill="white"/>
<path d="M698.195 226.077L664.131 202.134C663.737 201.858 663.401 201.506 663.142 201.099C662.884 200.692 662.707 200.237 662.624 199.762C662.54 199.287 662.551 198.799 662.655 198.328C662.759 197.857 662.955 197.411 663.231 197.015C663.508 196.62 663.859 196.283 664.265 196.024C664.671 195.765 665.124 195.589 665.598 195.505C666.072 195.422 666.558 195.433 667.028 195.538C667.498 195.643 667.942 195.84 668.336 196.117L702.4 220.06C703.194 220.62 703.735 221.473 703.903 222.432C704.071 223.391 703.852 224.378 703.295 225.176C702.737 225.973 701.887 226.516 700.931 226.685C699.975 226.854 698.991 226.636 698.195 226.077Z" fill="white"/>
<path d="M690.293 237.385L656.229 213.442C655.836 213.165 655.5 212.813 655.242 212.406C654.983 211.999 654.807 211.545 654.724 211.069C654.641 210.594 654.652 210.107 654.756 209.636C654.86 209.165 655.056 208.72 655.332 208.325C655.608 207.929 655.959 207.593 656.365 207.334C656.771 207.075 657.224 206.898 657.697 206.815C658.171 206.731 658.657 206.742 659.126 206.847C659.596 206.951 660.04 207.148 660.434 207.425L694.498 231.368C695.293 231.927 695.835 232.78 696.003 233.74C696.171 234.699 695.953 235.687 695.395 236.485C694.838 237.283 693.987 237.826 693.03 237.994C692.073 238.163 691.089 237.944 690.293 237.385Z" fill="white"/>
<path d="M705.917 192.76L692.723 183.486C692.329 183.209 691.993 182.857 691.734 182.45C691.475 182.043 691.299 181.589 691.216 181.114C691.132 180.638 691.143 180.151 691.247 179.68C691.351 179.209 691.547 178.763 691.823 178.367C692.1 177.972 692.451 177.635 692.857 177.376C693.263 177.117 693.716 176.941 694.19 176.857C694.664 176.774 695.15 176.785 695.62 176.89C696.09 176.995 696.534 177.192 696.928 177.469L710.122 186.743C710.917 187.302 711.459 188.155 711.627 189.115C711.796 190.075 711.577 191.062 711.019 191.86C710.462 192.658 709.611 193.201 708.654 193.37C707.697 193.539 706.713 193.319 705.917 192.76Z" fill="white"/>
</g>
<defs>
<clipPath id="clip0_40_1368">
<rect width="636" height="357" fill="white" transform="translate(302 37)"/>
</clipPath>
</defs>
</svg>
