<svg width="1239" height="430" viewBox="0 0 1239 430" fill="none" xmlns="http://www.w3.org/2000/svg">
<rect width="1239" height="430" fill="white"/>
<g clip-path="url(#clip0_40_1628)">
<path opacity="0.1" d="M928 269.423C928.01 279.691 926.769 289.923 924.302 299.89C923.472 303.249 922.508 306.538 921.41 309.757C920.066 313.73 918.509 317.628 916.745 321.433C915.856 323.359 914.916 325.245 913.926 327.094C913.942 337.624 911.775 348.043 907.561 357.692C899.944 375.005 886.361 389.004 869.288 397.137C858.613 402.232 846.947 404.911 835.12 404.984H428.937C410.865 405.023 393.106 400.274 377.464 391.22L377.223 391.084C374.995 389.78 372.823 388.399 370.706 386.941C365.945 383.651 361.471 379.961 357.333 375.913C351.733 370.439 346.799 364.323 342.632 357.692C332.845 342.149 327.661 324.15 327.679 305.781C317.768 288.387 311.989 267.55 311.989 245.159C311.989 216.91 321.173 191.14 336.262 171.632C339.407 167.556 342.853 163.722 346.57 160.16C350.237 156.635 354.179 153.407 358.358 150.508C361.702 148.185 365.196 146.088 368.818 144.23C370.33 143.461 371.847 142.734 373.389 142.059C374.744 141.457 376.114 140.897 377.5 140.369C379.163 139.738 380.847 139.157 382.552 138.627C384.257 138.097 385.94 137.633 387.599 137.235C390.04 136.639 392.523 136.154 395.047 135.781C397.139 135.472 399.231 135.258 401.323 135.096C402.986 134.97 404.665 134.902 406.354 134.881H407.269C409.131 134.881 410.983 134.955 412.818 135.08C413.012 134.693 413.221 134.301 413.415 133.919C414.147 132.522 414.905 131.13 415.669 129.77C415.667 129.758 415.667 129.746 415.669 129.734C415.8 129.493 415.93 129.258 416.066 129.027C416.683 127.913 417.327 126.809 417.986 125.716C418.289 125.193 418.587 124.701 418.896 124.209C418.961 124.087 419.033 123.968 419.11 123.854C419.424 123.33 419.743 122.807 420.067 122.284C421.682 119.703 423.36 117.168 425.104 114.678L425.548 114.039C425.82 113.652 426.071 113.276 426.375 112.888C427.096 111.879 427.839 110.864 428.587 109.87C429.11 109.158 429.633 108.452 430.198 107.777C431.558 106.034 432.952 104.29 434.382 102.546C435.811 100.802 437.297 99.081 438.838 97.3826C439.047 97.1472 439.256 96.917 439.476 96.6868L441.709 94.249C441.819 94.1339 441.913 94.0292 442.018 93.9246C442.284 93.6369 442.541 93.3492 442.828 93.0719C444.026 91.8007 445.255 90.5556 446.489 89.3157C452.771 83.0576 459.463 77.2256 466.52 71.8585C466.797 71.6388 467.08 71.4295 467.357 71.2203C468.685 70.2211 470.035 69.2323 471.384 68.2593C478.806 62.9335 486.564 58.093 494.61 53.7683C495.165 53.4492 495.73 53.151 496.3 52.858C503.513 49.0407 510.932 45.6247 518.522 42.6254C522.659 40.988 526.89 39.4499 531.147 38.0427C533.982 37.1115 536.827 36.2274 539.709 35.3956C544.214 34.0982 548.75 32.9351 553.317 31.9062C566.774 28.8861 580.463 27.0204 594.237 26.3295C598.421 26.1168 602.652 26.0069 606.93 26C627.573 25.9726 648.135 28.5744 668.121 33.7425C668.328 34.0548 668.61 34.3095 668.942 34.4824C669.275 34.6554 669.645 34.741 670.019 34.7312H671.777C672.54 34.9404 673.299 35.1497 674.062 35.3694C678.326 36.5971 682.53 37.938 686.672 39.3924L687.718 39.769C697.941 43.4054 707.889 47.7763 717.482 52.8476C726.129 57.4081 734.456 62.5538 742.403 68.2488C743.627 69.1277 744.833 70.0136 746.022 70.9064C747.465 69.9822 748.933 69.0963 750.426 68.2488C756.189 64.9658 762.309 62.3557 768.668 60.4697C781.961 56.5348 796.027 55.9845 809.587 58.8689C826.977 62.5571 842.719 71.712 855.434 84.733C860.61 90.0606 865.218 95.913 869.183 102.195C869.471 102.645 869.758 103.101 870.036 103.561C873.443 109.121 876.372 114.961 878.791 121.018C878.88 121.243 878.969 121.452 879.047 121.672C881.28 127.343 883.081 133.176 884.434 139.119C884.497 139.422 884.57 139.72 884.633 140.024C885.898 145.775 886.758 151.609 887.206 157.481C887.206 157.69 887.206 157.905 887.248 158.124C887.467 161.162 887.579 164.231 887.582 167.332C887.582 170.104 887.488 172.856 887.316 175.587C887.316 175.885 887.274 176.194 887.248 176.502C887.201 177.292 887.133 178.072 887.065 178.867C891.059 182.09 894.797 185.618 898.246 189.419C899.77 191.082 901.245 192.809 902.671 194.598C907.015 200.043 910.832 205.889 914.072 212.055C922.916 228.754 928 248.398 928 269.423Z" fill="#25929B"/>
<path opacity="0.1" d="M868.901 395.202C868.901 398.775 856.595 402.123 835.121 405H428.938C410.866 405.039 393.106 400.29 377.464 391.236L377.223 391.1C383.395 388.851 394.535 386.753 409.696 384.859L410.376 384.775C417.175 383.944 424.775 383.154 433.08 382.406C433.289 382.406 433.503 382.374 433.713 382.348C440.302 381.762 447.312 381.213 454.742 380.7C454.978 380.7 455.208 380.658 455.443 380.648C458.309 380.442 461.235 380.247 464.219 380.062L465.37 379.989C487.1 378.639 511.802 377.561 538.59 376.85H538.621C542.373 376.745 546.165 376.653 549.996 376.573C554.257 376.471 558.57 376.382 562.936 376.306C566.267 376.232 569.64 376.18 573.024 376.128H573.103C588.369 375.898 604.143 375.783 620.272 375.783C660.156 375.783 697.854 376.51 731.258 377.818H731.352C736.488 378.016 741.53 378.236 746.446 378.461L750.63 378.66C756.177 378.925 761.581 379.209 766.843 379.513C828.714 383.033 868.901 388.751 868.901 395.202Z" fill="#25929B"/>
<g opacity="0.2">
<path d="M667.787 373.381C667.77 373.946 667.705 374.507 667.593 375.061C663.953 374.482 660.292 373.959 656.61 373.491C656.61 373.345 656.61 373.193 656.61 373.041C656.644 371.473 657.095 369.941 657.918 368.605C658.995 366.9 660.632 365.832 662.436 365.89C664.241 365.947 665.804 367.114 666.772 368.877C667.504 370.262 667.854 371.816 667.787 373.381Z" fill="#3F3D56"/>
<path d="M668.087 364.442C668.215 360.396 665.814 357.037 662.725 356.939C659.636 356.842 657.028 360.042 656.9 364.088C656.773 368.134 659.173 371.493 662.262 371.59C665.351 371.688 667.959 368.488 668.087 364.442Z" fill="#3F3D56"/>
<path d="M668.372 355.485C668.5 351.44 666.1 348.081 663.011 347.983C659.921 347.885 657.314 351.086 657.186 355.132C657.058 359.178 659.459 362.536 662.548 362.634C665.637 362.732 668.245 359.531 668.372 355.485Z" fill="#3F3D56"/>
<path d="M668.652 346.529C668.78 342.483 666.38 339.124 663.291 339.027C660.201 338.929 657.594 342.13 657.466 346.175C657.338 350.221 659.739 353.58 662.828 353.678C665.917 353.775 668.525 350.575 668.652 346.529Z" fill="#3F3D56"/>
<path d="M668.933 337.572C669.06 333.527 666.66 330.168 663.571 330.07C660.482 329.972 657.874 333.173 657.746 337.219C657.618 341.265 660.019 344.624 663.108 344.721C666.197 344.819 668.805 341.618 668.933 337.572Z" fill="#3F3D56"/>
<path d="M644.304 275.428C643.567 274.431 642.903 273.382 642.316 272.29L657.096 270.338L641.187 269.956C639.767 266.588 639.049 262.965 639.077 259.309C639.105 255.654 639.878 252.042 641.349 248.696L662.332 260.44L643.111 245.353C645.05 242.216 647.615 239.513 650.645 237.412C653.676 235.311 657.106 233.858 660.724 233.143C664.341 232.428 668.066 232.467 671.668 233.257C675.269 234.047 678.669 235.571 681.655 237.734C684.641 239.898 687.149 242.653 689.022 245.83C690.896 249.006 692.094 252.535 692.543 256.196C692.992 259.856 692.681 263.57 691.63 267.105C690.58 270.64 688.812 273.921 686.437 276.741C687.582 278.293 688.556 279.965 689.339 281.727L669.941 291.039L690.511 284.85C691.806 289.126 692.015 293.657 691.118 298.033C690.222 302.409 688.248 306.493 685.375 309.914C688.361 313.967 690.147 318.779 690.528 323.799C690.91 328.819 689.871 333.846 687.53 338.303C685.19 342.761 681.643 346.47 677.294 349.006C672.946 351.541 667.972 352.802 662.941 352.644C657.91 352.485 653.025 350.913 648.845 348.108C644.665 345.303 641.358 341.378 639.303 336.782C637.248 332.186 636.528 327.104 637.225 322.118C637.921 317.131 640.006 312.442 643.242 308.585C639.674 303.742 637.838 297.839 638.027 291.826C638.217 285.812 640.422 280.037 644.288 275.428H644.304Z" fill="#25929B"/>
<path opacity="0.1" d="M691.651 293.519C691.468 299.535 689.256 305.313 685.375 309.914C688.361 313.967 690.147 318.779 690.528 323.799C690.91 328.819 689.871 333.846 687.53 338.303C685.19 342.761 681.643 346.47 677.294 349.006C672.946 351.542 667.972 352.802 662.941 352.644C657.91 352.485 653.025 350.913 648.845 348.108C644.665 345.303 641.358 341.379 639.303 336.782C637.248 332.186 636.528 327.104 637.225 322.118C637.921 317.132 640.006 312.442 643.242 308.585C639.806 303.913 691.745 290.511 691.651 293.519Z" fill="black"/>
</g>
<g opacity="0.2">
<path d="M588.291 373.381C588.274 373.946 588.209 374.507 588.097 375.061C584.457 374.482 580.796 373.959 577.114 373.491C577.114 373.345 577.114 373.193 577.114 373.041C577.148 371.473 577.599 369.941 578.422 368.605C579.499 366.9 581.136 365.832 582.94 365.89C584.745 365.947 586.308 367.114 587.276 368.877C588.008 370.262 588.358 371.816 588.291 373.381Z" fill="#3F3D56"/>
<path d="M588.585 364.444C588.713 360.398 586.313 357.039 583.223 356.942C580.134 356.844 577.526 360.045 577.399 364.09C577.271 368.136 579.671 371.495 582.761 371.593C585.85 371.69 588.457 368.49 588.585 364.444Z" fill="#3F3D56"/>
<path d="M588.87 355.488C588.998 351.442 586.598 348.083 583.509 347.985C580.419 347.888 577.812 351.088 577.684 355.134C577.556 359.18 579.957 362.539 583.046 362.636C586.135 362.734 588.743 359.533 588.87 355.488Z" fill="#3F3D56"/>
<path d="M589.151 346.531C589.279 342.485 586.878 339.126 583.789 339.029C580.7 338.931 578.092 342.132 577.964 346.178C577.836 350.223 580.237 353.582 583.326 353.68C586.415 353.777 589.023 350.577 589.151 346.531Z" fill="#3F3D56"/>
<path d="M589.431 337.575C589.559 333.529 587.158 330.17 584.069 330.072C580.98 329.975 578.372 333.175 578.244 337.221C578.116 341.267 580.517 344.626 583.606 344.723C586.695 344.821 589.303 341.62 589.431 337.575Z" fill="#3F3D56"/>
<path d="M564.808 275.428C564.071 274.431 563.407 273.382 562.82 272.29L577.6 270.338L561.691 269.956C560.271 266.588 559.553 262.965 559.581 259.309C559.609 255.654 560.382 252.042 561.853 248.696L582.836 260.44L563.615 245.353C565.554 242.216 568.119 239.513 571.149 237.412C574.18 235.311 577.61 233.858 581.227 233.143C584.844 232.428 588.57 232.467 592.171 233.257C595.773 234.047 599.173 235.571 602.159 237.734C605.145 239.898 607.653 242.653 609.526 245.83C611.4 249.006 612.598 252.535 613.047 256.196C613.496 259.856 613.185 263.57 612.134 267.105C611.084 270.64 609.316 273.921 606.941 276.741C608.086 278.293 609.06 279.965 609.843 281.727L590.445 291.039L611.015 284.85C612.31 289.126 612.519 293.657 611.622 298.033C610.725 302.409 608.751 306.493 605.879 309.914C608.865 313.967 610.651 318.779 611.032 323.799C611.414 328.819 610.374 333.846 608.034 338.303C605.694 342.761 602.147 346.47 597.798 349.006C593.45 351.541 588.476 352.802 583.445 352.644C578.414 352.485 573.529 350.913 569.349 348.108C565.169 345.303 561.862 341.378 559.807 336.782C557.752 332.186 557.032 327.104 557.729 322.118C558.425 317.131 560.51 312.442 563.746 308.585C560.178 303.742 558.342 297.839 558.531 291.826C558.721 285.812 560.926 280.037 564.792 275.428H564.808Z" fill="#25929B"/>
<path opacity="0.1" d="M612.155 293.519C611.972 299.535 609.76 305.313 605.879 309.914C608.865 313.967 610.651 318.779 611.032 323.799C611.414 328.819 610.374 333.846 608.034 338.303C605.694 342.761 602.147 346.47 597.798 349.006C593.45 351.542 588.476 352.802 583.445 352.644C578.414 352.485 573.529 350.913 569.349 348.108C565.169 345.303 561.862 341.379 559.807 336.782C557.752 332.186 557.032 327.104 557.729 322.118C558.425 317.132 560.51 312.442 563.746 308.585C560.31 303.913 612.249 290.511 612.155 293.519Z" fill="black"/>
</g>
<g opacity="0.2">
<path d="M805.44 379.105C805.4 380.173 805.273 381.237 805.058 382.285C798.05 381.166 790.991 380.165 783.882 379.282C783.882 379 783.882 378.712 783.882 378.419C783.948 375.398 784.819 372.449 786.403 369.876C788.495 366.596 791.633 364.54 795.1 364.645C798.568 364.75 801.586 367.004 803.468 370.399C804.888 373.074 805.569 376.079 805.44 379.105Z" fill="#3F3D56"/>
<path d="M806.009 361.881C806.255 354.09 801.631 347.621 795.681 347.433C789.731 347.245 784.708 353.409 784.462 361.2C784.216 368.991 788.84 375.46 794.79 375.648C800.74 375.836 805.763 369.672 806.009 361.881Z" fill="#3F3D56"/>
<path d="M806.553 344.638C806.799 336.847 802.175 330.378 796.225 330.19C790.275 330.002 785.252 336.166 785.005 343.957C784.759 351.748 789.383 358.217 795.333 358.405C801.284 358.593 806.307 352.429 806.553 344.638Z" fill="#3F3D56"/>
<path d="M807.102 327.395C807.348 319.604 802.724 313.135 796.774 312.947C790.824 312.759 785.8 318.923 785.554 326.714C785.308 334.505 789.932 340.974 795.882 341.162C801.832 341.35 806.855 335.186 807.102 327.395Z" fill="#3F3D56"/>
<path d="M807.032 309.367C807.266 301.572 802.629 295.108 796.676 294.93C790.723 294.751 785.708 300.925 785.474 308.721C785.24 316.516 789.876 322.98 795.83 323.158C801.783 323.337 806.798 317.163 807.032 309.367Z" fill="#3F3D56"/>
<path d="M760.227 190.533C758.816 188.613 757.538 186.597 756.404 184.501L784.855 180.745L754.233 180.007C751.498 173.523 750.114 166.549 750.166 159.511C750.219 152.473 751.706 145.52 754.537 139.077L794.938 161.682L757.941 132.637C761.682 126.613 766.623 121.423 772.457 117.393C778.291 113.362 784.892 110.576 791.849 109.21C798.806 107.843 805.97 107.924 812.894 109.447C819.819 110.971 826.355 113.905 832.096 118.067C837.838 122.228 842.66 127.528 846.264 133.635C849.868 139.743 852.176 146.527 853.043 153.566C853.911 160.605 853.32 167.747 851.307 174.547C849.294 181.347 845.903 187.66 841.344 193.091C843.547 196.081 845.422 199.299 846.935 202.691L809.588 220.629L849.184 208.702C851.679 216.923 852.086 225.636 850.366 234.054C848.647 242.471 844.855 250.327 839.336 256.909C845.084 264.712 848.521 273.975 849.254 283.639C849.987 293.304 847.986 302.98 843.48 311.56C838.975 320.141 832.146 327.28 823.775 332.162C815.404 337.043 805.829 339.47 796.144 339.165C786.459 338.859 777.056 335.834 769.009 330.435C760.962 325.035 754.597 317.48 750.64 308.632C746.684 299.785 745.297 290.002 746.637 280.403C747.977 270.804 751.99 261.776 758.219 254.351C751.354 245.027 747.82 233.666 748.184 222.092C748.548 210.518 752.789 199.402 760.227 190.528V190.533Z" fill="#25929B"/>
<path opacity="0.1" d="M851.386 225.353C851.043 236.93 846.804 248.052 839.357 256.92C845.105 264.722 848.542 273.985 849.275 283.65C850.008 293.314 848.007 302.99 843.501 311.571C838.996 320.151 832.167 327.291 823.796 332.172C815.425 337.054 805.85 339.481 796.165 339.175C786.48 338.87 777.077 335.844 769.03 330.445C760.983 325.046 754.618 317.49 750.661 308.643C746.705 299.795 745.318 290.013 746.658 280.414C747.998 270.815 752.011 261.786 758.24 254.361C751.577 245.358 851.569 219.562 851.386 225.353Z" fill="black"/>
</g>
<path d="M394.54 380.025L400.026 380.01H407.761L417.541 221.09L514.396 59.4235L510.186 54.9036V43.4573L405.439 217.344L394.54 380.025Z" fill="#F1C0C0"/>
<path opacity="0.1" d="M400.612 380.01H407.761L417.541 221.09L514.396 59.4235L510.186 54.9036L410.282 218.668L400.612 380.01Z" fill="black"/>
<path d="M378.374 381.349L629.336 400.559L629.55 400.574L872.426 385.633L872.609 385.623V375.364L604.99 370.452L381.716 370.237H380.084L379.906 371.388L378.374 381.349Z" fill="#F1C0C0"/>
<path opacity="0.1" d="M378.374 381.349L629.336 400.559L629.55 400.574L872.426 385.633L872.609 385.435V375.579H872.395L629.336 383.698L381.716 370.237H381.679L381.24 370.525L379.906 371.388L378.374 381.349Z" fill="black"/>
<path opacity="0.1" d="M378.374 381.349L629.336 400.559V383.698L381.24 370.525L379.906 371.388L378.374 381.349Z" fill="black"/>
<path d="M510.154 54.689L620.795 173.473L617.375 382.416L626.773 383.551L626.93 383.572H636.328L637.453 182.445L844.629 251.667L848.122 374.919L855.685 375.767L858.247 376.055L852.317 243.119L635.742 167.065L516.99 43.5775H510.154V54.689Z" fill="#F1C0C0"/>
<path opacity="0.1" d="M636.6 178.6L637.453 182.445L844.629 251.667L848.122 374.919L855.685 375.767L849.754 249.104L636.6 178.6Z" fill="black"/>
<path opacity="0.1" d="M510.154 54.689L620.795 173.473L617.375 382.416L626.773 383.551L629.336 166.636L510.154 43.5775V54.689Z" fill="black"/>
<path d="M637.003 262.455L712.989 277.422L713.016 277.427L846.103 303.652L852.196 301.209L852.175 300.78L851.778 292.279L637.081 248.884L637.003 262.455Z" fill="#F1C0C0"/>
<path opacity="0.1" d="M713.016 277.427L846.103 303.652L852.196 301.209L852.175 300.78L713.016 277.427Z" fill="black"/>
<path d="M718.104 209.392L720.16 322.569L721.222 380.632L730.578 380.318L736.467 380.119L734.637 211.03L730.578 209.68L729.689 209.392H718.104Z" fill="#F1C0C0"/>
<path opacity="0.1" d="M718.188 209.366V209.392L720.16 322.569L721.221 380.632L730.578 380.318V209.366H718.188Z" fill="black"/>
<path d="M571.544 238.296C572.093 238.594 572.618 238.935 573.113 239.316C573.699 239.829 574.225 240.406 574.682 241.037C576.926 243.941 578.997 247.315 578.777 250.977C578.782 251.51 578.681 252.038 578.481 252.532C578.281 253.026 577.985 253.475 577.611 253.854C576.685 254.644 575.357 254.681 574.143 254.681C572.825 254.681 571.439 254.681 570.299 254.001C569.159 253.321 568.207 251.997 566.858 252.028C566.667 252.06 566.473 252.06 566.283 252.028C565.817 251.877 565.723 251.265 565.42 250.877C564.897 250.182 563.793 250.354 562.972 250.658C562.151 250.961 561.241 251.416 560.43 251.066C559.96 250.817 559.575 250.433 559.327 249.962C557.386 246.823 556.973 243.051 556.607 239.405C556.382 237.187 554.667 229.622 559.4 231.343C561.492 232.097 563.448 233.603 565.352 234.707L571.544 238.296Z" fill="#3F3D56"/>
<path d="M566.868 239.044C567.291 239.348 567.803 239.502 568.324 239.481C568.844 239.46 569.343 239.266 569.74 238.929C570.518 238.225 571.015 237.262 571.136 236.219C571.659 236.057 571.926 236.742 572.26 237.161C572.846 237.872 574.039 237.862 574.572 238.62C574.943 239.143 574.86 239.871 575.121 240.462C575.461 241.226 576.303 241.623 576.879 242.24C577.422 242.915 577.814 243.698 578.029 244.537L578.887 247.111C579.297 248.181 579.561 249.302 579.671 250.443C579.725 251.014 579.665 251.589 579.495 252.136C579.324 252.683 579.046 253.191 578.678 253.629C577.527 254.869 575.639 255 573.971 254.963C573.413 254.975 572.857 254.91 572.318 254.77C570.838 254.309 569.891 252.818 569.499 251.317C569.107 249.816 569.149 248.241 568.918 246.703C568.67 245.192 568.231 243.719 567.611 242.319C567.151 241.231 565.885 239.609 565.906 238.453C566.283 238.453 566.555 238.798 566.868 239.044Z" fill="#3F3D56"/>
<path d="M568.746 233.745C568.502 233.002 568.359 232.229 568.322 231.448C568.322 229.878 569.039 228.403 569.761 227.001L563.783 227.812C563.061 227.911 562.256 228.058 561.848 228.66C561.693 228.958 561.612 229.289 561.612 229.625C561.612 229.961 561.693 230.292 561.848 230.59C562.147 231.187 562.386 231.813 562.559 232.458C562.572 233.022 562.637 233.584 562.752 234.137C562.938 234.543 563.199 234.91 563.521 235.22C565.231 237.114 566.513 239.347 567.789 241.56C567.752 241.497 571.392 238.678 571.246 237.757C571.162 237.234 570.111 236.606 569.776 236.104C569.314 235.375 568.966 234.579 568.746 233.745Z" fill="#BE6F72"/>
<path d="M620 213.305V218.458L531.786 235.67L527.209 238.442H511.42V235.539L598.092 214.592L620 213.305Z" fill="#F1C0C0"/>
<path opacity="0.1" d="M620 218.458L531.786 235.67L527.209 238.442H511.42L598.735 219.751L620 218.458Z" fill="black"/>
<path d="M549.175 359.586C548.192 358.395 546.836 357.573 545.326 357.252C543.816 356.931 542.242 357.13 540.86 357.818C540.564 357.957 540.303 358.161 540.096 358.414C539.573 359.147 539.908 360.156 539.955 361.061C540.075 363.269 538.318 365.063 536.738 366.607C535.891 367.433 535.028 368.317 534.646 369.442C534.265 370.567 534.547 371.995 535.572 372.581C536.019 372.805 536.506 372.94 537.005 372.979C538.677 373.305 540.391 373.352 542.078 373.12C543.747 372.801 545.384 371.854 546.105 370.316C546.245 369.899 546.475 369.518 546.78 369.201C547.701 368.474 549.113 369.327 550.159 368.809C551.022 368.38 551.058 367.705 551.069 366.816C551.1 364.357 550.734 361.574 549.175 359.586Z" fill="#25929B"/>
<path d="M561.727 359.492C562.371 361.187 562.46 363.034 562.543 364.844C562.59 365.89 562.622 367.01 562.057 367.894C561.492 368.778 560.388 369.243 559.332 369.463C557.151 369.913 554.625 369.489 553.218 367.758C552.141 366.434 551.916 364.619 552.115 362.903C552.282 361.496 552.638 359.848 551.628 358.849C551.367 358.582 551.027 358.393 550.786 358.106C550.263 357.467 550.347 356.505 550.629 355.72C550.997 354.97 551.273 354.178 551.45 353.361C551.492 352.974 558.532 353.633 559.18 353.952C560.064 354.386 559.928 355.113 560.195 355.992C560.566 357.216 561.278 358.32 561.727 359.492Z" fill="#25929B"/>
<path d="M563.019 284.338C564.4 285.232 564.933 286.99 565.148 288.622C565.739 293.095 564.703 297.615 564.625 302.13C564.552 308.454 566.382 314.894 564.818 321.02C563.882 324.682 564.677 328.867 563.799 332.566C563.537 333.665 563.056 334.7 562.805 335.799C562.282 338.179 562.831 340.669 563.568 342.997C563.804 343.625 563.953 344.281 564.013 344.949C563.978 345.976 563.717 346.983 563.249 347.899L560.111 355.323C559.761 356.154 558.38 356.29 557.496 356.4C555.833 356.599 553.977 356.74 552.653 355.71C551.33 354.679 551.011 352.953 550.807 351.341C550.416 348.248 550.241 345.131 550.284 342.014C550.342 341.2 550.269 340.383 550.07 339.592C549.782 338.697 549.149 337.923 548.977 336.976C548.757 335.752 549.379 334.549 549.61 333.314C549.767 332.186 549.75 331.041 549.557 329.919C549.353 328.245 549.118 326.571 548.851 324.907C548.475 322.579 549.013 320.283 549.374 317.949C549.714 315.757 549.28 313.524 548.851 311.347C548.888 313.114 548.668 314.876 548.197 316.579C547.92 317.411 547.523 318.206 547.282 319.053C546.21 322.856 548.496 326.848 548.171 330.787C548.02 332.629 547.298 334.449 547.502 336.265C547.643 337.593 548.26 338.812 548.684 340.078C549.107 341.344 549.327 342.793 548.684 343.976C546.984 347.188 548.255 351.556 549.777 354.852C550.086 355.436 550.355 356.041 550.582 356.662C551.032 358.148 550.656 359.743 550.776 361.292C550.338 361.363 549.889 361.334 549.464 361.206C549.039 361.079 548.649 360.855 548.323 360.554C548.093 360.313 547.905 360.031 547.68 359.78C547.051 359.181 546.307 358.716 545.494 358.414C545.016 358.147 544.471 358.022 543.925 358.053C543.35 358.214 542.833 358.535 542.434 358.979C541.917 359.434 541.368 359.852 540.792 360.23C540.546 360.418 540.259 360.546 539.955 360.601C539.802 360.625 539.645 360.6 539.507 360.529C539.369 360.459 539.257 360.347 539.186 360.209C539.153 360.121 539.134 360.03 539.129 359.937C538.934 358.357 538.831 356.768 538.82 355.176C538.82 352.44 535.546 350.557 535.133 347.852C534.803 345.671 535.415 343.447 535.211 341.25C535.112 340.12 534.798 339.011 534.819 337.881C534.819 337.149 534.986 336.432 535.044 335.705C535.092 334.898 535.08 334.088 535.007 333.283L534.845 330.756C534.688 328.26 534.516 325.713 533.533 323.432C532.367 320.769 531.676 317.921 531.493 315.02C531.388 313.189 531.456 311.358 531.247 309.522C531.059 307.863 530.64 306.215 530.761 304.552C530.86 303.265 531.284 302.02 531.383 300.733C531.587 298.258 530.646 295.852 529.908 293.482C529.171 291.112 528.627 288.486 529.594 286.2C529.733 285.825 529.963 285.49 530.264 285.227C530.635 284.981 531.057 284.824 531.498 284.767C540.471 282.881 549.669 282.294 558.809 283.024C560.299 283.109 561.745 283.56 563.019 284.338Z" fill="#3F3D56"/>
<path d="M533.328 228.775C537.956 228.775 541.707 225.023 541.707 220.394C541.707 215.765 537.956 212.013 533.328 212.013C528.701 212.013 524.95 215.765 524.95 220.394C524.95 225.023 528.701 228.775 533.328 228.775Z" fill="#BE6F72"/>
<path d="M531.707 230.862C531.828 231.341 531.828 231.842 531.707 232.322C531.575 232.656 531.39 232.967 531.158 233.242C530.347 234.289 529.45 235.265 528.475 236.161C528.972 237.271 529.865 238.153 530.98 238.636C532.087 239.107 533.249 239.439 534.437 239.625C535.031 239.781 535.648 239.823 536.257 239.75C536.819 239.609 537.35 239.368 537.826 239.039L542.481 236.25C543.183 235.87 543.834 235.4 544.416 234.854C545.27 233.976 545.753 232.803 545.765 231.579C545.787 231.359 545.728 231.14 545.598 230.961C545.42 230.806 545.196 230.712 544.96 230.695C543.323 230.334 542.031 229.005 541.299 227.498C540.637 225.954 540.209 224.319 540.028 222.649L535.065 225.264C534.327 225.657 533.595 226.049 532.832 226.389C532.345 226.609 531.362 226.792 531.017 227.237C530.358 228.058 531.535 229.873 531.707 230.862Z" fill="#BE6F72"/>
<path d="M528.506 234.639C527.8 235.219 527.248 235.965 526.901 236.81C526.576 237.856 526.901 238.96 527.194 239.996C528.566 244.411 529.615 248.92 530.332 253.488C530.771 256.627 530.933 259.813 531.147 262.988C531.587 269.465 532.225 279.791 533.077 286.226C536.215 286.367 539.275 285.452 542.387 285.117C548.203 284.5 554.191 285.912 559.886 284.594C558.506 279.138 557.125 269.82 555.744 264.369C555.133 262.222 554.71 260.025 554.479 257.804C554.358 256.208 554.431 254.607 554.452 253.001C554.499 249.863 554.327 246.724 554.154 243.585C553.956 239.923 553.757 236.261 552.889 232.677C552.828 232.221 552.614 231.798 552.282 231.479C551.759 231.098 551.079 231.234 550.457 231.317C548.551 231.559 546.622 231.102 545.028 230.03C544.338 229.559 543.412 228.984 542.769 229.507C542.494 229.823 542.313 230.209 542.246 230.621C541.961 231.362 541.522 232.032 540.957 232.589C540.392 233.146 539.716 233.575 538.972 233.849C537.481 234.389 535.92 234.71 534.338 234.801C533.854 234.905 533.349 234.848 532.9 234.639C532.157 234.184 532.105 232.547 531.168 232.437C530.347 232.343 529.061 234.111 528.506 234.639Z" fill="#3F3D56"/>
<path d="M540.881 247.414C538.951 245.568 538.104 242.889 536.697 240.613C535.739 239.083 534.515 237.737 533.083 236.637C532.363 236.162 531.703 235.602 531.116 234.969C530.619 234.357 530.243 233.54 529.49 233.305C529.178 233.237 528.856 233.246 528.548 233.331C528.241 233.416 527.96 233.574 527.727 233.792C527.266 234.231 526.83 234.696 526.42 235.183C524.202 237.48 520.306 237.799 518.549 240.456C518.074 241.02 517.752 241.695 517.612 242.418C517.106 246.286 518.106 250.201 520.405 253.352C520.85 254.082 521.534 254.637 522.34 254.921C522.231 255.897 522.36 256.884 522.717 257.799C523.685 261.11 524.875 264.352 526.278 267.503C525.943 268.735 525.709 269.993 525.578 271.264C525.212 274.461 525.552 277.704 525.206 280.906C524.924 283.521 524.16 286.069 524.134 288.69C524.134 289.109 524.171 289.606 524.532 289.82C524.724 289.919 524.939 289.964 525.154 289.951L531.587 290.144C535.321 290.254 539.092 290.364 542.769 289.674C543.258 289.601 543.733 289.451 544.176 289.229C545.42 288.533 545.833 286.964 546.032 285.567C546.292 283.755 546.395 281.924 546.341 280.095C547.12 282.559 548.046 285.107 550.399 286.174C551.644 286.739 553.067 286.697 554.432 286.66C557.374 286.529 560.306 286.227 563.213 285.755C563.392 285.777 563.574 285.757 563.744 285.697C563.914 285.636 564.067 285.536 564.192 285.406C564.316 285.275 564.409 285.117 564.461 284.944C564.514 284.771 564.525 284.589 564.494 284.411L564.525 281.554C564.588 275.753 563.15 270.207 562.59 264.432C562.413 262.611 562.428 260.77 561.984 258.986C561.801 258.238 561.534 257.506 561.372 256.752C561.232 256.015 561.145 255.268 561.11 254.518L560.702 248.764C560.509 246.101 560.232 243.532 560.028 240.875C559.916 238.287 559.541 235.718 558.908 233.206C558.453 231.636 557.507 229.858 555.87 229.664C554.996 229.565 554.149 229.947 553.318 230.213C551.274 230.857 549.08 230.848 547.042 230.187C546.412 229.938 545.755 229.763 545.086 229.664C544.748 229.618 544.405 229.663 544.091 229.793C543.776 229.924 543.502 230.136 543.297 230.407C543.094 230.816 542.999 231.269 543.02 231.725C542.774 236.951 542.319 242.334 540.881 247.414Z" fill="#25929B"/>
<path d="M532.465 247.571C530.054 245.029 527.581 242.439 524.474 240.823C523.25 240.184 521.859 239.703 520.504 239.944C519.15 240.184 517.889 241.362 517.952 242.737C517.994 243.59 518.512 244.343 518.674 245.18C518.862 246.122 518.59 247.127 518.883 248.037C519.121 248.637 519.477 249.183 519.929 249.643L523.632 254.032C525.201 255.863 526.77 257.72 528.789 258.986C530.808 260.252 533.423 260.843 535.64 259.943C537.218 259.21 538.53 258.006 539.395 256.496C540.316 255.031 540.964 253.43 541.827 251.919C543.17 249.503 544.943 247.352 547.057 245.573C545.969 245.29 544.604 244.893 543.919 244.003C543.724 243.721 543.558 243.419 543.422 243.104L542.575 241.273C542.287 241.258 541.999 241.302 541.729 241.404C541.459 241.506 541.213 241.662 541.006 241.864C540.643 242.284 540.253 242.68 539.84 243.051C539.102 243.606 538.103 243.758 537.434 244.391C537.175 244.662 536.94 244.956 536.733 245.269C536.227 245.935 535.584 246.485 534.848 246.882C534.112 247.279 533.3 247.514 532.465 247.571Z" fill="#3F3D56"/>
<path d="M547.251 236.632C549.065 233.321 548.982 229.35 549.5 225.61C549.556 224.619 549.903 223.667 550.498 222.874C551.544 221.691 553.391 221.676 554.97 221.827C555.436 221.88 556.016 222.099 555.99 222.565C555.953 222.732 555.872 222.886 555.755 223.01C554.224 224.986 553.323 227.378 553.171 229.873C553.992 230.443 555.263 229.272 556.053 229.873C556.576 230.313 556.335 231.181 556.021 231.809C555.293 233.263 554.541 234.707 553.767 236.14C553.149 237.404 552.344 238.566 551.377 239.588C550.713 240.226 549.934 240.728 549.259 241.356C547.69 242.826 546.743 244.903 545.122 246.336C544.985 246.485 544.8 246.58 544.599 246.603C544.393 246.589 544.198 246.501 544.05 246.357C543.24 245.698 542.568 244.886 542.073 243.967C541.456 242.826 541.55 242.491 542.523 241.686C544.343 240.247 546.116 238.704 547.251 236.632Z" fill="#BE6F72"/>
<path d="M529.432 245.322C529.746 245.515 530.133 245.735 530.478 245.573C530.619 245.487 530.739 245.371 530.829 245.233C531.427 244.435 531.925 243.567 532.314 242.648C532.381 242.519 532.418 242.376 532.424 242.23C532.424 241.895 532.126 241.649 531.848 241.456C530.363 240.509 528.766 239.75 527.094 239.196C525.714 238.673 524.27 238.217 522.806 238.348C522.256 238.385 521.718 238.533 521.227 238.783C520.735 239.033 520.299 239.38 519.945 239.803C518.899 241.147 520.651 241.555 521.749 242.042C524.291 243.198 527.042 243.867 529.432 245.322Z" fill="#25929B"/>
<path opacity="0.1" d="M527.785 254.215C527.767 254.335 527.778 254.456 527.816 254.571C527.854 254.685 527.919 254.789 528.004 254.874C528.156 254.131 527.957 253.347 528.114 252.599C528.344 251.474 529.437 250.626 529.531 249.496C527.528 249.104 527.8 253.001 527.785 254.215Z" fill="black"/>
<path opacity="0.2" d="M620 213.305V218.458L598.735 219.751L598.092 214.592L620 213.305Z" fill="black"/>
<path d="M525.787 221.639C527.115 220.556 526.346 218.286 527.246 216.831C527.769 216.036 528.653 215.618 529.521 215.262C530.569 214.772 531.691 214.46 532.842 214.341C533.418 214.286 534 214.361 534.543 214.561C535.086 214.761 535.577 215.081 535.98 215.497C536.32 215.885 536.55 216.355 536.869 216.758C537.264 217.228 537.779 217.582 538.359 217.783C538.94 217.984 539.563 218.024 540.164 217.899C540.86 217.742 541.581 217.213 541.534 216.502C541.456 216.069 541.235 215.675 540.907 215.382L539.411 213.724C537.711 211.841 535.823 209.842 533.329 209.371C531.592 209.042 529.814 209.507 528.14 210.067C527.466 210.292 526.707 210.627 526.519 211.312C526.394 211.783 526.582 212.296 526.472 212.772C526.258 213.719 525.044 214.038 524.479 214.833C523.915 215.628 524.087 216.57 523.925 217.449C523.763 218.328 523.292 219.186 523.235 220.096C523.198 220.645 523.475 221.665 524.092 221.864C524.709 222.063 525.405 220.985 525.787 221.639Z" fill="#3F3D56"/>
<path d="M541.027 215.749C540.586 213.447 539.635 211.273 538.245 209.387C537.008 207.625 535.288 206.259 533.292 205.453C532.294 205.063 531.221 204.904 530.153 204.989C529.085 205.073 528.05 205.398 527.126 205.94C525.754 206.919 524.686 208.267 524.045 209.827C522.691 212.746 522.189 216.314 523.763 219.118C524.39 218.354 525.468 218.699 526.42 218.422C527.612 218.082 528.621 217.287 529.756 216.79C533.182 215.278 537.366 216.502 541.027 215.749Z" fill="#FED253"/>
<path opacity="0.1" d="M524.563 215.586C524.443 214.645 524.364 213.551 525.034 212.882C525.067 212.841 525.109 212.808 525.157 212.786C525.206 212.764 525.258 212.754 525.311 212.756C525.358 212.771 525.401 212.796 525.437 212.828C525.474 212.861 525.504 212.9 525.525 212.944C525.912 213.554 526.241 214.199 526.509 214.87C526.119 214.78 525.711 214.809 525.338 214.954C524.965 215.098 524.644 215.351 524.417 215.68" fill="black"/>
<path opacity="0.1" d="M536.785 212.929L536.597 211.061C536.567 210.907 536.579 210.748 536.634 210.601C536.713 210.478 536.834 210.388 536.975 210.349C537.116 210.311 537.267 210.326 537.397 210.392C537.655 210.534 537.867 210.746 538.009 211.004C538.445 211.672 538.806 212.386 539.087 213.133C538.244 212.97 537.378 212.981 536.54 213.164" fill="black"/>
<path opacity="0.1" d="M541.466 288.727V292.996L537.863 293.236H518.909V288.727H541.466Z" fill="black"/>
<path d="M541.466 288.727V293.236H518.909L458.984 218.15V214.603H471.546L541.466 288.727Z" fill="#F1C0C0"/>
<path opacity="0.1" d="M541.466 288.727V293.236H518.909L458.984 218.15V214.603H471.546L541.466 288.727Z" fill="black"/>
<path opacity="0.1" d="M541.466 288.727V293.236H518.909L458.984 218.15V214.603L519.233 288.727H541.466Z" fill="black"/>
<path d="M466.839 363.986C466.879 364.198 466.874 364.416 466.825 364.626C466.777 364.837 466.685 365.035 466.557 365.208C466.428 365.381 466.265 365.526 466.078 365.634C465.891 365.741 465.684 365.809 465.469 365.832C464.015 366.324 462.472 366.811 461.442 367.925C460.412 369.039 460.208 371.106 461.442 372.011C462.073 372.391 462.797 372.589 463.534 372.581C465.903 372.743 468.372 372.712 470.521 371.707C472.059 370.996 473.508 369.782 475.197 369.892C476.07 369.944 477.001 370.352 477.781 369.955C478.56 369.557 478.779 368.448 478.785 367.522C478.805 365.589 478.513 363.666 477.922 361.825C477.843 361.574 474.517 361.38 474.12 361.302L470.087 360.779C469.324 360.679 467.676 360.104 467.075 360.742C466.473 361.38 466.839 363.227 466.839 363.986Z" fill="#25929B"/>
<path d="M490.903 350.928C491.073 351.87 491.351 352.79 491.729 353.669C492.289 355.092 493.005 356.604 494.375 357.295C495.62 357.917 497.147 357.692 498.413 357.101C498.941 356.882 499.404 356.531 499.757 356.081C500.165 355.369 500.348 354.55 500.28 353.732C500.28 351.708 500.16 349.615 499.234 347.815C498.439 346.246 497.053 344.896 497.032 343.16L492.268 344.08C492.013 344.105 491.77 344.201 491.567 344.358C491.416 344.517 491.311 344.714 491.264 344.928C490.755 346.885 490.632 348.924 490.903 350.928Z" fill="#25929B"/>
<path d="M434.006 301.23C433.807 302.914 433.89 304.719 434.769 306.173C435.648 307.628 437.499 308.59 439.1 308.01C439.182 307.989 439.259 307.951 439.326 307.9C439.393 307.849 439.45 307.785 439.492 307.711C439.534 307.535 439.51 307.348 439.424 307.188C438.717 305.302 438.775 303.215 439.586 301.371C439.691 301.13 439.915 300.848 440.161 300.942C440.264 300.994 440.347 301.079 440.397 301.183C440.65 301.621 440.777 302.121 440.763 302.626C440.689 303.085 440.675 303.551 440.721 304.013C440.82 304.463 441.301 304.886 441.72 304.693C441.841 304.619 441.945 304.52 442.027 304.404C442.109 304.288 442.166 304.157 442.196 304.018C443.362 300.644 442.834 296.956 442.3 293.424C442.305 293.343 442.291 293.262 442.261 293.187C442.231 293.112 442.184 293.044 442.125 292.988C442.066 292.933 441.995 292.891 441.918 292.866C441.84 292.841 441.758 292.834 441.678 292.844C439.209 292.598 437.86 292.007 436.448 294.303C435.235 296.239 434.006 298.902 434.006 301.23Z" fill="#25929B"/>
<path d="M462.865 292.645C462.132 295.69 461.395 298.771 461.348 301.899C461.361 303.848 461.508 305.793 461.787 307.722L462.336 312.252C462.525 313.78 462.708 315.302 462.974 316.814C463.145 317.593 463.237 318.387 463.252 319.184C463.2 319.97 463.076 320.749 462.88 321.512C462.551 323.114 462.368 324.742 462.331 326.377C462.274 328.993 462.598 331.609 462.802 334.224C463.209 339.437 463.148 344.675 462.619 349.877C462.408 351.281 462.712 352.714 463.477 353.91C463.787 354.287 464.042 354.706 464.235 355.155C464.627 356.353 463.712 357.551 463.477 358.78C463.326 359.739 463.562 360.718 464.133 361.503C464.703 362.288 465.562 362.814 466.52 362.966C470.704 363.463 475.003 363.238 478.774 365.152C479.172 363.991 478.304 362.673 478.701 361.49C478.952 360.758 479.642 360.282 480.113 359.665C480.746 358.724 481.061 357.606 481.013 356.473C481.031 354.995 480.769 353.527 480.239 352.147C479.794 350.996 479.156 349.861 479.193 348.626C479.193 348.019 479.407 347.381 479.161 346.821C478.993 346.5 478.764 346.214 478.487 345.979C476.924 344.266 475.963 342.089 475.751 339.78C475.547 337.488 475.621 335.18 475.971 332.906C476.227 330.74 476.572 328.454 477.948 326.764C477.31 321.641 477.685 316.441 479.051 311.462C479.187 311.002 479.402 310.468 479.873 310.359C480.06 310.339 480.248 310.365 480.423 310.435C480.598 310.504 480.754 310.614 480.877 310.756C481.698 311.525 482.09 312.639 482.446 313.707C482.838 314.863 483.235 316.097 482.937 317.28C482.812 317.803 482.561 318.263 482.414 318.765C482.096 319.775 482.152 320.865 482.571 321.836C482.776 322.191 482.904 322.585 482.948 322.992C482.899 323.342 482.793 323.682 482.634 323.997C482.44 324.616 482.378 325.269 482.453 325.913C482.528 326.558 482.737 327.179 483.068 327.737C483.735 328.848 484.557 329.858 485.511 330.735C485.055 332.743 485.173 334.838 485.85 336.782C485.899 336.87 485.931 336.966 485.942 337.066C485.954 337.166 485.946 337.267 485.918 337.363C485.824 337.562 485.584 337.635 485.395 337.776C484.872 338.205 485.197 339.016 485.547 339.576C486.507 341.112 487.568 342.584 488.722 343.981C489.768 345.231 489.674 347.643 491.232 348.093C491.887 348.234 492.565 348.234 493.22 348.093C494.757 347.857 496.473 347.413 497.226 346.052C497.534 345.493 497.66 344.813 498.141 344.394C498.622 343.976 499.244 343.902 499.511 343.4C499.778 342.898 499.48 342.239 499.569 341.658C499.658 341.077 500.165 340.612 500.327 340C500.714 338.587 499.067 337.426 498.842 335.982C498.518 333.889 501.153 332.32 501.044 330.227C500.813 325.681 500.667 321.114 500.432 316.568C500.136 312.496 500.094 308.409 500.306 304.332C500.489 301.795 500.829 299.137 499.898 296.778C498.559 293.451 494.867 291.583 491.295 291.227C487.723 290.872 484.161 291.719 480.62 292.274C474.744 293.179 468.774 293.304 462.865 292.645Z" fill="#3F3D56"/>
<path d="M473.482 242.643C478.109 242.643 481.86 238.891 481.86 234.262C481.86 229.634 478.109 225.882 473.482 225.882C468.854 225.882 465.103 229.634 465.103 234.262C465.103 238.891 468.854 242.643 473.482 242.643Z" fill="#FBBEBE"/>
<path d="M470.072 244.207C469.787 244.87 469.308 245.431 468.699 245.817C468.089 246.203 467.377 246.395 466.656 246.368C466.353 247.623 467.08 248.889 467.912 249.878C469.638 251.888 471.87 253.401 474.376 254.261C476.882 255.121 479.572 255.296 482.169 254.77C483.179 254.589 484.138 254.189 484.977 253.598C486.109 252.652 486.869 251.336 487.121 249.883C487.362 248.441 487.431 246.974 487.325 245.515C487.355 245.227 487.272 244.939 487.095 244.71C486.886 244.548 486.628 244.463 486.363 244.469C484.595 244.312 482.749 244.244 481.196 243.376C479.643 242.507 478.539 240.545 479.287 238.934C479.167 239.185 476.112 239.306 475.71 239.358C474.449 239.536 473.189 239.734 471.934 239.965C471.33 239.998 470.734 240.11 470.161 240.299C469.402 240.692 469.685 240.498 469.862 241.21C470.129 242.298 470.521 243.077 470.072 244.207Z" fill="#FBBEBE"/>
<path d="M476.447 249.303C475.318 249.316 474.193 249.191 473.094 248.931C471.986 248.672 471.008 248.02 470.344 247.095C469.956 246.509 469.705 245.772 469.088 245.442C468.079 244.919 466.928 245.803 466.123 246.614C465.39 247.413 464.54 248.098 463.602 248.644C462.483 249.235 461.175 249.444 460.119 250.14C459.294 250.764 458.585 251.529 458.027 252.4L450.616 262.496C447.64 266.556 445.051 270.914 442.4 275.198C440.104 278.907 438.901 283.176 437.17 287.178C437.032 287.423 436.976 287.705 437.007 287.984C437.07 288.256 437.4 288.476 437.63 288.319C436.851 289.093 437.536 290.411 437.353 291.499C437.145 292.261 436.711 292.941 436.108 293.451C437.259 293.3 438.428 293.355 439.56 293.613C440.73 293.944 441.834 294.475 442.823 295.182C443.456 295.083 443.399 293.958 443.869 293.54C444.152 293.294 444.57 293.325 444.941 293.252C446.338 292.98 446.892 291.3 447.964 290.354C448.859 289.564 450.124 289.307 451.071 288.564C452.609 287.356 452.938 285.206 453.743 283.422C454.429 281.91 455.506 280.592 456.107 279.043C456.5 278.039 456.688 276.951 457.248 276.025C458.142 274.529 459.826 273.733 461.432 273.017C462.446 272.562 463.524 272.091 464.617 272.164C464.559 274.597 464.251 276.993 464.779 279.368C464.962 280.205 465.218 281.021 465.438 281.853C466.437 285.598 466.672 289.501 466.719 293.362C469.122 292.812 471.576 292.517 474.041 292.483C475.981 292.425 477.917 292.676 479.857 292.64C482.158 292.598 484.433 292.153 486.734 291.996C489.036 291.839 491.441 291.996 493.476 293.043C493.311 289.727 493.403 286.404 493.753 283.103L494.307 277.903C494.432 276.392 494.665 274.892 495.003 273.414C495.306 272.222 495.746 271.071 496.08 269.883C497.257 265.698 497.043 261.23 496.818 256.873C496.703 254.634 495.84 252.431 494.825 250.438C494.458 249.698 494.038 248.984 493.57 248.304C492.344 246.614 490.71 245.262 488.82 244.375C486.931 243.487 484.848 243.093 482.765 243.229C482.499 243.237 482.236 243.294 481.991 243.396C481.549 243.679 481.204 244.09 481.002 244.574C479.92 246.519 478.35 248.149 476.447 249.303Z" fill="#3F3D56"/>
<path d="M466.113 237.04C466.348 236.517 466.981 236.324 467.368 235.905C468.11 235.11 467.776 233.839 467.891 232.766C468.079 231.197 469.381 229.884 470.872 229.324C472.392 228.836 474.009 228.734 475.579 229.026C476.334 229.081 477.064 229.324 477.702 229.732C477.974 229.931 478.225 230.187 478.481 230.37C478.949 230.653 479.508 230.741 480.039 230.617C480.571 230.493 481.033 230.166 481.327 229.706C479.475 227.477 477.425 225.123 474.611 224.438C473.646 224.241 472.662 224.148 471.677 224.161C470.375 224.134 469.031 224.114 467.828 224.61C466.191 225.285 465.04 226.839 464.449 228.513C463.933 230.21 463.656 231.971 463.628 233.745C463.521 234.928 463.521 236.119 463.628 237.302C463.83 238.918 464.431 240.458 465.375 241.785C465.503 241.991 465.683 242.159 465.898 242.272C468.283 243.318 465.919 237.475 466.113 237.04Z" fill="#3F3D56"/>
<path d="M481.055 228.414C480.767 225.95 479.01 223.915 477.143 222.277C475.638 220.857 473.845 219.778 471.886 219.112C469.915 218.532 467.645 218.657 465.956 219.834C464.596 220.781 463.733 222.288 463.069 223.805C462.196 225.595 461.764 227.568 461.808 229.559C461.939 231.537 462.901 233.541 464.617 234.54C465.234 233.629 466.306 233.159 467.336 232.787C471.827 231.083 476.406 229.623 481.055 228.414Z" fill="#FED253"/>
<path opacity="0.1" d="M465.192 227.388C465.359 227.388 465.469 227.561 465.553 227.702C465.979 228.366 466.344 229.066 466.646 229.795C466.034 229.926 464.983 230.072 464.679 229.533C464.517 229.261 464.711 227.362 465.192 227.388Z" fill="black"/>
<path opacity="0.1" d="M477.111 226.206C476.986 226.326 476.839 226.08 476.839 225.903V223.873C476.836 223.816 476.848 223.76 476.876 223.711C476.897 223.686 476.924 223.666 476.954 223.651C476.983 223.637 477.015 223.629 477.048 223.627C477.472 223.58 477.822 223.941 478.094 224.286C478.507 224.846 478.866 225.443 479.167 226.07L476.954 226.002" fill="black"/>
<path d="M504.72 259.818C505.202 259.361 505.715 258.94 506.258 258.557C507.707 257.589 509.459 257.207 511.085 256.59C512.712 255.973 514.364 254.974 514.997 253.352C515.314 252.338 515.417 251.269 515.301 250.213C515.316 249.771 515.237 249.331 515.07 248.921C514.871 248.559 514.588 248.25 514.244 248.021C512.037 246.389 509.077 246.258 506.336 246.426C500.294 246.8 494.372 248.279 488.863 250.789C488.572 250.885 488.316 251.067 488.131 251.312C488.023 251.538 487.975 251.788 487.99 252.039C487.892 253.582 488.093 255.129 488.581 256.595C489.302 258.458 490.788 259.959 491.41 261.858C491.692 262.711 491.787 263.616 492.032 264.474C492.234 265.36 492.758 266.139 493.502 266.661C495.568 267.895 497.519 266.237 498.952 264.95L504.72 259.818Z" fill="#3F3D56"/>
<path d="M477.666 267.063L475.014 261.277C474.625 260.476 474.29 259.649 474.01 258.803C473.706 257.793 473.56 256.747 473.278 255.732C472.347 252.353 469.998 249.538 468.853 246.227C468.781 245.928 468.633 245.652 468.424 245.426C468.257 245.308 468.066 245.228 467.864 245.192C467.663 245.156 467.456 245.164 467.258 245.217C465.658 245.494 464.408 246.713 462.943 247.404C462.263 247.718 461.531 247.927 460.851 248.288C460.511 248.449 460.21 248.681 459.968 248.969C459.726 249.257 459.549 249.594 459.45 249.957C459.287 250.757 459.685 251.526 460.02 252.306C461.442 255.518 461.766 259.106 461.829 262.622C461.876 264.987 461.756 267.524 460.36 269.423C457.677 273.085 459.392 278.463 460.396 282.894C460.516 283.417 460.658 283.982 460.741 284.536C460.83 285.23 460.87 285.929 460.862 286.629C460.862 288.978 460.731 291.4 459.748 293.529C460.718 294.046 461.788 294.349 462.886 294.418C465.923 294.806 468.972 295.078 472.033 295.235C472.992 295.325 473.959 295.275 474.904 295.088C476.026 294.785 477.016 294.116 477.716 293.188C478.415 292.259 478.786 291.124 478.769 289.961C478.937 291.41 479.245 292.985 480.296 293.989C481.348 294.994 482.88 295.146 484.308 295.224C488.337 295.438 492.378 295.324 496.389 294.884C496.645 294.872 496.897 294.814 497.132 294.711C497.906 294.324 497.948 293.257 497.885 292.399C497.77 290.793 497.649 289.187 497.456 287.591C497.292 286.574 497.208 285.546 497.205 284.515C497.285 283.455 497.46 282.405 497.728 281.377C498.429 278.112 498.983 274.78 498.748 271.437C498.655 270.623 498.622 269.802 498.648 268.983C498.784 267.137 499.757 265.379 499.574 263.543C499.051 258.144 498.627 252.604 497.121 247.393C496.849 246.462 496.504 245.463 495.693 244.929C494.647 244.228 493.178 244.594 491.98 244.15C491.418 243.888 490.884 243.571 490.385 243.203C489.301 242.525 488.059 242.143 486.782 242.094C485.819 242.057 484.747 242.272 484.167 243.046C483.898 243.482 483.72 243.968 483.644 244.474C482.885 247.665 481.996 250.82 481.107 253.974L480.254 256.998L477.969 265.117C477.744 265.981 477.896 266.247 477.666 267.063Z" fill="#25929B"/>
<path d="M491.039 235.387L541.629 288.564V293.074H519.072L481.055 243.444" fill="#F1C0C0"/>
<path opacity="0.1" d="M491.039 235.387L541.629 288.564V293.074H519.072L481.055 243.444" fill="black"/>
<path opacity="0.1" d="M481.86 242.743L482.022 242.8L519.396 288.564H541.629V293.074H519.072L481.055 243.444L481.86 242.743Z" fill="black"/>
<path d="M487.681 243.862C485.851 244.663 483.816 245.688 483.267 247.613C483.159 247.951 483.135 248.31 483.199 248.659C483.333 249.07 483.588 249.43 483.93 249.692C484.273 249.955 484.687 250.107 485.118 250.129C485.98 250.15 486.836 249.994 487.634 249.669L498.434 246.101C498.727 246.007 499.062 245.866 499.135 245.578C499.154 245.397 499.117 245.215 499.03 245.055C498.695 244.239 498.366 242.57 497.665 242C497.09 241.539 495.95 241.702 495.254 241.712C492.576 241.733 490.061 242.816 487.681 243.862Z" fill="#25929B"/>
<path d="M497.309 246.525C499.129 246.52 500.938 246.8 502.67 247.357C504.41 247.922 505.951 248.975 507.11 250.391C507.448 250.787 507.688 251.256 507.811 251.762C507.916 252.285 509.621 252.599 509.244 252.954C510.39 252.771 510.118 253.31 511.279 253.3C512.44 253.289 513.695 252.991 514.391 252.065C514.874 251.304 515.089 250.404 515.002 249.507C515.018 248.886 514.9 248.269 514.657 247.697C514.134 246.598 512.931 246.007 511.823 245.5L502.482 241.226C501.94 240.937 501.358 240.731 500.756 240.613C500.249 240.566 499.738 240.578 499.234 240.65L495.003 241.137C495.928 241.736 496.682 242.565 497.189 243.544C497.696 244.523 497.939 245.617 497.895 246.719" fill="#3F3D56"/>
</g>
<defs>
<clipPath id="clip0_40_1628">
<rect width="616" height="379" fill="white" transform="translate(312 26)"/>
</clipPath>
</defs>
</svg>
