<svg width="1239" height="430" viewBox="0 0 1239 430" fill="none" xmlns="http://www.w3.org/2000/svg">
<rect width="1239" height="430" fill="white"/>
<g clip-path="url(#clip0_40_1898)">
<path d="M497.519 313.096C572.176 313.096 632.697 252.613 632.697 178.002C632.697 103.392 572.176 42.9089 497.519 42.9089C422.862 42.9089 362.341 103.392 362.341 178.002C362.341 252.613 422.862 313.096 497.519 313.096Z" fill="#F2F2F2"/>
<path d="M720.496 175.782L690.777 201.314L644.199 241.316L637.903 246.725C637.327 247.215 636.854 247.815 636.512 248.49C636.17 249.164 635.965 249.9 635.91 250.655C635.828 251.75 636.06 252.845 636.579 253.813C636.776 254.178 637.013 254.521 637.284 254.835L640.661 258.765L645.802 264.741C645.897 264.847 645.986 264.946 646.088 265.046C647.114 266.073 648.492 266.675 649.944 266.731C651.396 266.787 652.815 266.293 653.918 265.348L706.735 219.994L736.517 194.412C737.671 193.415 738.384 192.002 738.497 190.481C738.611 188.961 738.117 187.457 737.123 186.3L735.326 184.212L728.611 176.401C728.119 175.827 727.519 175.355 726.845 175.013C726.171 174.672 725.436 174.466 724.682 174.409C723.928 174.351 723.17 174.443 722.452 174.679C721.734 174.914 721.069 175.289 720.496 175.782Z" fill="#25929B"/>
<path d="M743.145 154.3C769.312 154.3 790.526 133.101 790.526 106.949C790.526 80.7978 769.312 59.5978 743.145 59.5978C716.977 59.5978 695.764 80.7978 695.764 106.949C695.764 133.101 716.977 154.3 743.145 154.3Z" fill="#25929B"/>
<path d="M746.626 290.83V399.664C746.628 401.188 747.235 402.65 748.313 403.729C749.392 404.807 750.855 405.413 752.381 405.414H765.448C766.974 405.413 768.436 404.807 769.515 403.729C770.594 402.65 771.201 401.188 771.202 399.664V290.83C771.201 289.305 770.594 287.843 769.515 286.765C768.436 285.687 766.974 285.08 765.448 285.079H752.381C750.855 285.08 749.392 285.687 748.313 286.765C747.235 287.843 746.628 289.305 746.626 290.83Z" fill="#2F2E41"/>
<path d="M719.014 290.83V399.664C719.014 400.419 719.162 401.167 719.452 401.864C719.741 402.562 720.165 403.196 720.699 403.73C721.233 404.264 721.868 404.688 722.566 404.977C723.264 405.266 724.012 405.415 724.768 405.414H737.835C739.361 405.413 740.824 404.807 741.903 403.729C742.981 402.65 743.588 401.188 743.59 399.664V290.83C743.588 289.305 742.981 287.843 741.903 286.765C740.824 285.687 739.361 285.08 737.835 285.079H724.768C724.012 285.079 723.264 285.228 722.566 285.517C721.868 285.806 721.233 286.229 720.699 286.763C720.165 287.297 719.741 287.931 719.452 288.629C719.162 289.327 719.014 290.075 719.014 290.83Z" fill="#2F2E41"/>
<path d="M703.133 127.881L703.182 126.111C699.888 126.02 696.984 125.813 694.802 124.22C694.183 123.743 693.675 123.138 693.311 122.447C692.947 121.755 692.737 120.994 692.694 120.214C692.655 119.737 692.727 119.258 692.904 118.814C693.081 118.37 693.358 117.972 693.714 117.653C695.163 116.43 697.494 116.826 699.192 117.604L700.657 118.276L697.848 97.7579L696.094 97.9981L698.484 115.451C696.175 114.773 694.036 115.065 692.571 116.301C692.009 116.792 691.567 117.406 691.282 118.096C690.996 118.785 690.874 119.531 690.924 120.276C690.976 121.324 691.256 122.348 691.746 123.276C692.235 124.204 692.922 125.014 693.757 125.649C696.561 127.697 700.205 127.799 703.133 127.881Z" fill="#2F2E41"/>
<path d="M717.519 99.5032H707.983V101.273H717.519V99.5032Z" fill="#2F2E41"/>
<path d="M755.524 184.624L757.152 223.757L759.693 285.079L760.039 293.369C760.067 294.125 760.244 294.868 760.562 295.554C760.88 296.241 761.331 296.857 761.889 297.368C762.698 298.111 763.702 298.608 764.784 298.801C765.193 298.873 765.609 298.9 766.023 298.881L771.202 298.669L779.082 298.341C779.223 298.333 779.356 298.324 779.498 298.306C780.941 298.137 782.267 297.43 783.211 296.326C784.155 295.222 784.647 293.803 784.588 292.352L781.711 222.819L780.082 183.606C780.015 182.083 779.347 180.648 778.224 179.617C777.1 178.585 775.613 178.041 774.089 178.103L771.335 178.218L761.039 178.643C760.284 178.673 759.542 178.851 758.855 179.168C758.169 179.485 757.552 179.934 757.04 180.49C756.527 181.045 756.13 181.696 755.87 182.406C755.609 183.115 755.492 183.869 755.524 184.624Z" fill="#25929B"/>
<path d="M751.549 187.933V218.015C751.55 219.513 752.136 220.951 753.183 222.024C754.229 223.097 755.654 223.718 757.152 223.757C757.202 223.764 757.253 223.767 757.303 223.765H778.551C778.892 223.765 779.233 223.732 779.569 223.668C780.334 223.535 781.063 223.245 781.711 222.819C782.506 222.294 783.159 221.58 783.612 220.742C784.065 219.904 784.303 218.967 784.305 218.015V187.933C784.3 183.593 782.573 179.433 779.502 176.365C776.432 173.296 772.269 171.57 767.927 171.565C766.802 171.562 765.681 171.678 764.58 171.91C760.899 172.683 757.596 174.696 755.223 177.614C752.851 180.531 751.554 184.174 751.549 187.933Z" fill="#2F2E41"/>
<path d="M689.471 200.488C689.69 201.202 690.048 201.867 690.524 202.443L703.981 218.873C704.221 219.176 704.498 219.45 704.804 219.687C705.832 220.524 707.118 220.981 708.444 220.979C709.771 220.977 711.056 220.518 712.082 219.678L735.374 200.629C738.735 197.879 740.866 193.907 741.296 189.587C741.727 185.267 740.423 180.953 737.671 177.594C736.309 175.931 734.632 174.552 732.736 173.537C730.84 172.521 728.763 171.889 726.622 171.676C722.3 171.245 717.983 172.548 714.622 175.299L691.33 194.347C690.448 195.073 689.801 196.043 689.47 197.136C689.139 198.229 689.14 199.395 689.471 200.488Z" fill="#2F2E41"/>
<path d="M729.16 78.8992C728.835 80.6904 727.855 82.2968 726.411 83.4053C724.966 84.5138 723.16 85.0451 721.345 84.8955C719.529 84.7459 717.835 83.9263 716.591 82.5963C715.348 81.2663 714.644 79.5211 714.618 77.701C714.608 77.4022 714.493 77.1165 714.292 76.8946C714.092 76.6728 713.819 76.529 713.522 76.4889C713.226 76.4488 712.925 76.515 712.673 76.6756C712.42 76.8362 712.233 77.081 712.144 77.3665C710.409 81.8252 705.951 84.8758 701.289 85.5298C698.828 85.8231 696.332 85.4416 694.071 84.4262C691.809 83.4109 689.867 81.7998 688.451 79.7657C686.959 77.7437 685.999 75.3802 685.657 72.8913C685.315 70.4024 685.602 67.8675 686.494 65.5184C687.413 63.137 688.858 60.9935 690.72 59.2475C692.583 57.5014 694.816 56.1979 697.253 55.4338C700.173 54.5877 703.26 54.5027 706.222 55.187C709.184 55.8714 711.92 57.3021 714.172 59.3431C714.329 59.4955 714.523 59.6047 714.735 59.6601C714.947 59.7155 715.17 59.7152 715.381 59.6594C715.593 59.6035 715.787 59.4939 715.944 59.3412C716.101 59.1884 716.215 58.9978 716.277 58.7877C718.643 46.2874 727.153 35.4284 738.443 29.6621C749.98 23.7691 763.736 24.3035 775.144 30.2556C780.83 33.1741 785.755 37.3801 789.526 42.5382C793.982 48.752 796.272 56.112 798.424 63.3603C802.191 76.0495 806.866 91.2489 820.234 96.8829C823.824 98.3765 827.728 98.9625 831.598 98.5891C835.469 98.2157 839.188 96.8944 842.426 94.7422C845.664 92.59 848.322 89.6731 850.163 86.2499C852.004 82.8267 852.973 79.0027 852.982 75.1163C852.971 74.7901 852.834 74.4809 852.599 74.2541C852.364 74.0273 852.05 73.9005 851.723 73.9005C851.396 73.9005 851.082 74.0273 850.848 74.2541C850.613 74.4809 850.475 74.7901 850.464 75.1163C850.476 78.5677 849.64 81.9693 848.027 85.0213C846.414 88.0734 844.075 90.6822 841.216 92.6181C838.357 94.5539 835.065 95.7573 831.631 96.1222C828.197 96.4871 824.725 96.0024 821.523 94.7108C815.326 92.2481 810.842 86.898 807.72 81.1855C804.216 74.7718 802.368 67.6882 800.268 60.7357C798.131 53.6577 795.656 46.5029 791.162 40.5343C787.295 35.4227 782.353 31.2205 776.685 28.2236C765.234 22.1492 751.575 21.1769 739.611 26.3402C733.808 28.8854 728.611 32.6317 724.364 37.332C720.116 42.0322 716.914 47.5794 714.97 53.6072C714.509 55.088 714.134 56.5943 713.848 58.1185L715.953 57.5631C713.656 55.4702 710.912 53.9272 707.93 53.051C704.948 52.1749 701.805 51.9885 698.74 52.506C695.788 53.0474 693.002 54.2676 690.603 56.0701C688.204 57.8726 686.257 60.208 684.917 62.8918C683.573 65.5249 682.917 68.4551 683.012 71.4095C683.106 74.3639 683.947 77.2464 685.457 79.7883C688.437 84.7862 693.829 88.2981 699.75 88.1654C702.94 88.1049 706.042 87.1138 708.676 85.3141C711.309 83.5143 713.359 80.9844 714.573 78.0357L712.099 77.7011C712.127 80.1284 713.052 82.4596 714.696 84.2466C716.34 86.0336 718.587 87.1503 721.005 87.3819C723.423 87.6136 725.841 86.9439 727.795 85.5016C729.748 84.0593 731.099 81.9461 731.589 79.5684C731.928 77.9887 729.501 77.3136 729.16 78.8992Z" fill="#2F2E41"/>
<path d="M790.545 309.74H695.668L725.894 176.325H758.639L790.545 309.74Z" fill="#2F2E41"/>
<path d="M577 303.277C594.353 302.785 611.125 296.129 624.564 285.24C638.243 274.278 647.731 258.946 651.434 241.82C654.971 224.369 652.699 206.242 644.967 190.202C637.215 174.264 624.104 161.556 607.927 154.3C591.934 147.004 573.996 145.116 556.833 148.924C554.688 149.42 552.57 150.018 550.479 150.704C548.568 151.331 549.386 154.362 551.313 153.73C567.363 148.465 584.923 149.094 600.778 154.769C616.775 160.398 630.32 171.405 639.097 185.908C647.811 200.709 651.428 217.958 649.392 235.011C647.3 251.707 639.467 267.158 627.234 278.719C615.287 290.122 599.587 297.863 583.116 299.717C581.084 299.946 579.044 300.082 577 300.14C574.984 300.197 574.975 303.335 577 303.277Z" fill="#3F3D56"/>
<path d="M546.95 121.341L518.756 145.298C516.913 146.864 514.726 148.481 514.228 151.002C514.077 152.067 514.2 153.154 514.585 154.159C514.97 155.163 515.605 156.054 516.43 156.746C518.26 158.485 520.591 159.591 522.781 160.795L530.975 165.298L549.185 175.304C550.956 176.277 552.542 173.569 550.769 172.595C540.902 167.172 530.887 161.951 521.145 156.308C519.67 155.454 517.35 154.073 517.262 152.132C517.168 150.052 520.007 148.34 521.373 147.179L534.478 136.044L549.171 123.559C550.712 122.249 548.482 120.039 546.95 121.341Z" fill="#3F3D56"/>
<path d="M437.55 59.3151C416.429 62.9078 397.083 73.9327 382.539 89.5567C367.882 105.303 358.586 125.725 357.198 147.249C355.888 169.182 361.793 190.943 374.011 209.211C386.235 227.35 404.449 240.62 425.47 246.699C446.129 252.723 468.693 252.205 488.835 244.46C491.371 243.485 493.856 242.388 496.294 241.189C498.521 240.094 496.998 236.531 494.751 237.636C476.047 246.836 454.479 249.094 434.126 244.893C413.705 240.679 395.02 229.728 381.925 213.447C368.721 196.861 361.325 176.406 360.869 155.217C360.543 134.453 367.449 114.222 380.403 97.9849C393.034 81.9916 410.883 69.8247 430.691 64.7198C433.134 64.0899 435.604 63.5724 438.092 63.1493C440.545 62.7319 440.014 58.8959 437.55 59.3151Z" fill="#3F3D56"/>
<path d="M505.673 276.464L535.992 242.327C537.974 240.096 540.368 237.743 540.541 234.577C540.692 231.81 539.028 229.485 536.859 227.937C534.321 226.127 531.283 225.177 528.399 224.084L517.608 219.994L493.629 210.905C491.296 210.021 489.825 213.604 492.16 214.489C505.154 219.414 518.293 224.068 531.173 229.285C533.123 230.074 536.195 231.362 536.638 233.719C537.112 236.244 533.938 238.826 532.469 240.48L518.377 256.346L502.577 274.135C500.92 276.002 504.026 278.318 505.673 276.464Z" fill="#3F3D56"/>
<path d="M882.228 407H598.882C598.677 407 598.481 406.919 598.336 406.774C598.191 406.629 598.11 406.433 598.11 406.229C598.11 406.024 598.191 405.828 598.336 405.683C598.481 405.538 598.677 405.457 598.882 405.457H882.228C882.33 405.457 882.43 405.477 882.524 405.515C882.618 405.554 882.703 405.611 882.775 405.682C882.847 405.754 882.904 405.839 882.943 405.933C882.982 406.027 883.002 406.127 883.002 406.229C883.002 406.33 882.982 406.431 882.943 406.524C882.904 406.618 882.847 406.703 882.775 406.775C882.703 406.847 882.618 406.903 882.524 406.942C882.43 406.981 882.33 407 882.228 407Z" fill="#3F3D56"/>
</g>
<defs>
<clipPath id="clip0_40_1898">
<rect width="526" height="384" fill="white" transform="translate(357 23)"/>
</clipPath>
</defs>
</svg>
