<svg width="1239" height="430" viewBox="0 0 1239 430" fill="none" xmlns="http://www.w3.org/2000/svg">
<rect width="1239" height="430" fill="white"/>
<g clip-path="url(#clip0_40_1625)">
<path d="M974.029 395.217C951.559 411.401 922.439 412.214 894.291 410.225C890.36 409.948 886.458 409.623 882.591 409.272C882.568 409.266 882.537 409.268 882.513 409.262C882.328 409.244 882.141 409.227 881.964 409.216C881.166 409.141 880.367 409.067 879.577 408.992L879.763 409.348L880.349 410.453C880.139 410.083 879.928 409.721 879.718 409.351C879.656 409.24 879.586 409.13 879.525 409.018C872.233 396.332 865.001 383.18 863.156 368.694C861.249 353.659 866.608 336.633 879.844 329.243C881.58 328.276 883.419 327.507 885.325 326.948C886.117 326.707 886.919 326.512 887.731 326.34C892.695 325.238 897.863 325.477 902.704 327.034C907.545 328.591 911.884 331.409 915.274 335.198C918.664 338.987 920.984 343.61 921.995 348.593C923.006 353.575 922.671 358.737 921.025 363.547C932.247 352.043 930.153 333.379 926.282 317.782C922.404 302.184 917.708 284.828 925.597 270.819C929.982 263.021 937.694 258.183 946.348 256.234C946.613 256.176 946.879 256.119 947.145 256.07C957.456 253.982 968.176 255.86 977.163 261.328C993.71 271.753 1002.21 291.52 1004.97 310.883C1009.41 342.041 999.577 376.815 974.029 395.217Z" fill="#F2F2F2"/>
<path d="M966.774 345.269C966.122 352.142 964.471 358.883 961.872 365.279C959.478 370.94 956.25 376.21 952.297 380.916C944.22 390.629 933.542 397.931 921.944 402.797C913.076 406.428 903.785 408.924 894.291 410.225C890.36 409.948 886.458 409.623 882.591 409.272C882.568 409.266 882.537 409.268 882.513 409.262C882.328 409.244 882.141 409.227 881.964 409.216C881.166 409.141 880.367 409.067 879.577 408.992L879.763 409.348L880.349 410.454C880.139 410.084 879.928 409.721 879.718 409.351C879.656 409.24 879.586 409.13 879.525 409.018C886.642 401.929 891.956 393.237 895.022 383.671C898.087 374.105 898.815 363.944 897.143 354.039C895.394 344.204 891.345 334.921 885.325 326.948C886.117 326.707 886.919 326.512 887.731 326.34C890.018 329.466 892.025 332.789 893.727 336.269C899.835 348.68 901.784 362.727 899.285 376.331C896.961 388.642 891.173 400.035 882.599 409.171C883.35 409.118 884.108 409.057 884.85 408.99C898.901 407.799 912.922 404.78 925.666 398.594C936.56 393.435 946.017 385.677 953.205 376.003C960.923 365.362 964.324 352.561 964.909 339.551C965.528 325.622 963.72 311.449 960.541 297.904C957.294 284.018 952.36 270.581 945.849 257.893C945.703 257.605 945.674 257.272 945.767 256.964C945.86 256.655 946.068 256.393 946.348 256.234C946.582 256.076 946.868 256.017 947.145 256.07C947.28 256.106 947.406 256.172 947.512 256.263C947.619 256.354 947.703 256.468 947.759 256.596C948.562 258.163 949.351 259.732 950.109 261.318C956.425 274.528 961.075 288.472 963.952 302.828C966.745 316.678 968.236 331.166 966.774 345.269Z" fill="white"/>
<path d="M673.374 402.368C684.852 410.635 699.727 411.05 714.106 410.035C716.113 409.893 718.107 409.727 720.082 409.548C720.094 409.544 720.11 409.546 720.122 409.543C720.217 409.533 720.312 409.524 720.403 409.519C720.81 409.481 721.218 409.443 721.622 409.404L721.526 409.586L721.227 410.151C721.335 409.962 721.442 409.777 721.55 409.588C721.581 409.531 721.617 409.475 721.648 409.418C725.373 402.938 729.068 396.219 730.01 388.82C730.984 381.139 728.246 372.442 721.485 368.667C720.598 368.173 719.659 367.78 718.685 367.495C718.281 367.372 717.871 367.272 717.457 367.184C714.921 366.621 712.281 366.744 709.808 367.539C707.335 368.334 705.119 369.774 703.387 371.709C701.655 373.645 700.47 376.006 699.954 378.551C699.437 381.097 699.609 383.733 700.449 386.19C694.717 380.314 695.786 370.78 697.764 362.813C699.745 354.845 702.143 345.979 698.114 338.823C696.973 336.903 695.438 335.247 693.612 333.963C691.785 332.679 689.706 331.796 687.514 331.373C687.378 331.343 687.243 331.314 687.107 331.289C681.84 330.222 676.364 331.181 671.773 333.975C663.32 339.3 658.979 349.398 657.569 359.289C655.299 375.205 660.323 392.968 673.374 402.368Z" fill="#F2F2F2"/>
<path d="M677.079 376.854C677.413 380.364 678.256 383.808 679.583 387.075C680.807 389.967 682.455 392.659 684.475 395.063C688.673 399.976 693.991 403.809 699.98 406.24C704.51 408.095 709.256 409.37 714.105 410.035C716.113 409.893 718.107 409.727 720.082 409.548C720.094 409.545 720.109 409.546 720.122 409.543C720.216 409.534 720.312 409.525 720.402 409.519C720.81 409.481 721.218 409.443 721.622 409.405L721.526 409.586L721.227 410.151C721.334 409.962 721.442 409.777 721.55 409.588C721.581 409.531 721.617 409.475 721.648 409.418C718.012 405.797 715.298 401.357 713.732 396.47C712.166 391.584 711.794 386.393 712.648 381.333C713.542 376.31 715.61 371.568 718.685 367.495C718.281 367.372 717.871 367.272 717.456 367.184C716.288 368.781 715.263 370.479 714.393 372.256C711.273 378.596 710.278 385.772 711.554 392.721C712.741 399.01 715.698 404.829 720.078 409.496C719.694 409.469 719.307 409.438 718.928 409.403C711.711 408.926 704.644 407.126 698.078 404.093C692.514 401.458 687.683 397.495 684.011 392.553C680.068 387.117 678.331 380.579 678.033 373.933C677.803 366.773 678.553 359.615 680.264 352.659C681.922 345.565 684.442 338.701 687.769 332.22C687.843 332.073 687.858 331.903 687.81 331.745C687.763 331.588 687.657 331.454 687.514 331.373C687.394 331.292 687.248 331.262 687.107 331.289C687.037 331.307 686.973 331.341 686.919 331.387C686.865 331.434 686.821 331.492 686.793 331.558C686.382 332.358 685.98 333.16 685.592 333.97C682.366 340.718 679.991 347.84 678.521 355.174C676.957 362.288 676.471 369.596 677.079 376.854Z" fill="white"/>
<path d="M367.32 29.7468H247.82C244.156 29.752 240.644 31.2093 238.053 33.7993C235.463 36.3893 234.005 39.9005 234 43.5633V231.305C234.005 234.967 235.463 238.479 238.053 241.069C240.644 243.659 244.156 245.116 247.82 245.121H367.32C370.984 245.116 374.496 243.659 377.087 241.069C379.677 238.479 381.135 234.967 381.14 231.305V43.5633C381.135 39.9005 379.677 36.3893 377.087 33.7993C374.496 31.2093 370.984 29.752 367.32 29.7468ZM379.514 231.305C379.511 234.537 378.225 237.635 375.939 239.921C373.653 242.206 370.553 243.492 367.32 243.496H247.82C244.587 243.492 241.488 242.206 239.202 239.921C236.916 237.635 235.63 234.537 235.626 231.305V43.5633C235.63 40.3312 236.916 37.2327 239.202 34.9473C241.488 32.6619 244.587 31.3762 247.82 31.3723H367.32C370.553 31.3762 373.653 32.6619 375.939 34.9473C378.225 37.2327 379.511 40.3312 379.514 43.5633V231.305Z" fill="#3F3D56"/>
<path d="M623.394 245.121H503.893C500.229 245.117 496.716 243.66 494.125 241.07C491.534 238.48 490.077 234.968 490.073 231.305V43.5633C490.077 39.9002 491.534 36.3883 494.125 33.7981C496.716 31.2079 500.229 29.7509 503.893 29.7468H623.394C627.057 29.7509 630.57 31.2079 633.161 33.7981C635.752 36.3883 637.209 39.9002 637.213 43.5633V231.305C637.209 234.968 635.752 238.48 633.161 241.07C630.57 243.66 627.057 245.117 623.394 245.121ZM503.893 31.3723C500.66 31.3759 497.56 32.6615 495.274 34.947C492.988 37.2325 491.703 40.3312 491.699 43.5633V231.305C491.703 234.537 492.988 237.636 495.274 239.921C497.56 242.206 500.66 243.492 503.893 243.496H623.394C626.626 243.492 629.726 242.206 632.012 239.921C634.298 237.636 635.584 234.537 635.587 231.305V43.5633C635.584 40.3312 634.298 37.2325 632.012 34.947C629.726 32.6615 626.626 31.3759 623.394 31.3723H503.893Z" fill="#3F3D56"/>
<path d="M451.865 138.653H402.277C402.061 138.653 401.854 138.567 401.702 138.415C401.549 138.263 401.464 138.056 401.464 137.84C401.464 137.625 401.549 137.418 401.702 137.266C401.854 137.113 402.061 137.028 402.277 137.028H451.865C452.081 137.028 452.288 137.113 452.44 137.266C452.593 137.418 452.678 137.625 452.678 137.84C452.678 138.056 452.593 138.263 452.44 138.415C452.288 138.567 452.081 138.653 451.865 138.653Z" fill="#3F3D56"/>
<path d="M441.298 160.943C441.128 160.943 440.962 160.89 440.824 160.791C440.685 160.692 440.582 160.552 440.527 160.39C440.473 160.229 440.47 160.055 440.52 159.893C440.57 159.73 440.669 159.587 440.805 159.484L466.675 139.78C466.974 139.552 467.216 139.259 467.382 138.923C467.549 138.586 467.636 138.216 467.636 137.84C467.636 137.465 467.549 137.095 467.382 136.758C467.216 136.422 466.974 136.129 466.675 135.901L440.805 116.197C440.633 116.066 440.521 115.873 440.492 115.66C440.464 115.446 440.521 115.23 440.651 115.059C440.782 114.887 440.975 114.775 441.189 114.746C441.402 114.717 441.618 114.774 441.79 114.904L467.66 134.608C468.158 134.987 468.561 135.476 468.839 136.037C469.117 136.598 469.262 137.215 469.262 137.84C469.262 138.466 469.117 139.083 468.839 139.644C468.561 140.205 468.158 140.694 467.66 141.073L441.79 160.777C441.649 160.885 441.476 160.943 441.298 160.943Z" fill="#3F3D56"/>
<path d="M707.125 138.653H657.537C657.321 138.653 657.114 138.567 656.962 138.415C656.809 138.263 656.724 138.056 656.724 137.84C656.724 137.625 656.809 137.418 656.962 137.266C657.114 137.113 657.321 137.028 657.537 137.028H707.125C707.341 137.028 707.548 137.113 707.7 137.266C707.853 137.418 707.938 137.625 707.938 137.84C707.938 138.056 707.853 138.263 707.7 138.415C707.548 138.567 707.341 138.653 707.125 138.653Z" fill="#3F3D56"/>
<path d="M696.558 160.943C696.387 160.943 696.222 160.89 696.083 160.791C695.945 160.692 695.841 160.552 695.787 160.39C695.732 160.229 695.73 160.055 695.78 159.893C695.829 159.73 695.929 159.587 696.064 159.484L721.935 139.78C722.233 139.552 722.475 139.259 722.642 138.923C722.809 138.586 722.895 138.216 722.895 137.84C722.895 137.465 722.809 137.095 722.642 136.758C722.475 136.422 722.233 136.129 721.935 135.901L696.064 116.197C695.893 116.066 695.781 115.873 695.752 115.66C695.723 115.446 695.781 115.23 695.911 115.059C696.042 114.887 696.235 114.775 696.448 114.746C696.662 114.717 696.878 114.774 697.05 114.904L722.92 134.608C723.418 134.987 723.821 135.476 724.099 136.037C724.377 136.598 724.521 137.215 724.521 137.84C724.521 138.466 724.377 139.083 724.099 139.644C723.821 140.205 723.418 140.694 722.92 141.073L697.05 160.777C696.908 160.885 696.735 160.943 696.558 160.943Z" fill="#3F3D56"/>
<path d="M578.276 105.737H549.823C547.991 105.735 546.235 105.007 544.939 103.712C543.644 102.417 542.915 100.661 542.913 98.829V71.1961C542.915 69.3645 543.644 67.6086 544.939 66.3135C546.235 65.0184 547.991 64.2899 549.823 64.2878H578.276C580.108 64.2899 581.864 65.0184 583.16 66.3135C584.455 67.6086 585.184 69.3645 585.186 71.1961V98.829C585.184 100.661 584.455 102.417 583.16 103.712C581.864 105.007 580.108 105.735 578.276 105.737Z" fill="#25929B"/>
<path d="M583.56 105.331C583.453 105.331 583.347 105.31 583.249 105.269C583.15 105.228 583.06 105.168 582.985 105.093L543.964 66.0816C543.889 66.0062 543.829 65.9166 543.788 65.818C543.747 65.7194 543.726 65.6137 543.726 65.507C543.726 65.4003 543.747 65.2946 543.788 65.196C543.829 65.0974 543.889 65.0078 543.964 64.9323C544.04 64.8569 544.129 64.797 544.228 64.7562C544.327 64.7154 544.432 64.6943 544.539 64.6943C544.646 64.6943 544.752 64.7154 544.85 64.7562C544.949 64.797 545.038 64.8569 545.114 64.9324L584.135 103.944C584.248 104.057 584.326 104.202 584.357 104.36C584.388 104.517 584.372 104.681 584.311 104.829C584.249 104.978 584.145 105.105 584.011 105.194C583.878 105.283 583.721 105.331 583.56 105.331Z" fill="white"/>
<path d="M544.539 105.331C544.379 105.331 544.221 105.283 544.088 105.194C543.954 105.105 543.85 104.978 543.788 104.829C543.727 104.681 543.711 104.518 543.742 104.36C543.774 104.202 543.851 104.057 543.965 103.944L582.985 64.9326C583.061 64.8571 583.15 64.7973 583.249 64.7564C583.348 64.7156 583.453 64.6946 583.56 64.6946C583.667 64.6946 583.772 64.7156 583.871 64.7564C583.97 64.7973 584.059 64.8571 584.135 64.9326C584.21 65.008 584.27 65.0976 584.311 65.1962C584.352 65.2948 584.373 65.4005 584.373 65.5072C584.373 65.6139 584.352 65.7196 584.311 65.8182C584.27 65.9168 584.21 66.0064 584.135 66.0818L545.114 105.093C545.039 105.169 544.949 105.229 544.851 105.269C544.752 105.31 544.646 105.331 544.539 105.331Z" fill="white"/>
<path d="M590.063 148.406H537.223C534.528 148.406 531.943 147.336 530.038 145.43C528.132 143.525 527.061 140.941 527.061 138.247C527.061 135.552 528.132 132.968 530.038 131.063C531.943 129.158 534.528 128.088 537.223 128.088H590.063C592.758 128.088 595.343 129.158 597.249 131.063C599.154 132.968 600.225 135.552 600.225 138.247C600.225 140.941 599.154 143.525 597.249 145.43C595.343 147.336 592.758 148.406 590.063 148.406ZM537.223 129.713C534.959 129.713 532.788 130.612 531.187 132.213C529.586 133.813 528.687 135.984 528.687 138.247C528.687 140.51 529.586 142.681 531.187 144.281C532.788 145.881 534.959 146.781 537.223 146.781H590.063C592.327 146.781 594.498 145.881 596.099 144.281C597.7 142.681 598.599 140.51 598.599 138.247C598.599 135.984 597.7 133.813 596.099 132.213C594.498 130.612 592.327 129.713 590.063 129.713H537.223Z" fill="#3F3D56"/>
<path d="M590.063 179.29H537.223C534.528 179.29 531.943 178.219 530.038 176.314C528.132 174.409 527.061 171.825 527.061 169.131C527.061 166.436 528.132 163.852 530.038 161.947C531.943 160.042 534.528 158.971 537.223 158.971H590.063C592.758 158.971 595.343 160.042 597.249 161.947C599.154 163.852 600.225 166.436 600.225 169.131C600.225 171.825 599.154 174.409 597.249 176.314C595.343 178.219 592.758 179.29 590.063 179.29ZM537.223 160.597C534.959 160.597 532.788 161.496 531.187 163.096C529.586 164.697 528.687 166.867 528.687 169.131C528.687 171.394 529.586 173.564 531.187 175.165C532.788 176.765 534.959 177.664 537.223 177.664H590.063C592.327 177.664 594.498 176.765 596.099 175.165C597.7 173.564 598.599 171.394 598.599 169.131C598.599 166.867 597.7 164.697 596.099 163.096C594.498 161.496 592.327 160.597 590.063 160.597H537.223Z" fill="#3F3D56"/>
<path d="M590.063 210.174H537.223C534.528 210.174 531.943 209.103 530.038 207.198C528.132 205.293 527.061 202.709 527.061 200.014C527.061 197.32 528.132 194.736 530.038 192.831C531.943 190.926 534.528 189.855 537.223 189.855H590.063C592.758 189.855 595.343 190.926 597.249 192.831C599.154 194.736 600.225 197.32 600.225 200.014C600.225 202.709 599.154 205.293 597.249 207.198C595.343 209.103 592.758 210.174 590.063 210.174ZM537.223 191.481C534.959 191.481 532.788 192.38 531.187 193.98C529.586 195.581 528.687 197.751 528.687 200.014C528.687 202.278 529.586 204.448 531.187 206.049C532.788 207.649 534.959 208.548 537.223 208.548H590.063C592.327 208.548 594.498 207.649 596.099 206.049C597.7 204.448 598.599 202.278 598.599 200.014C598.599 197.751 597.7 195.581 596.099 193.98C594.498 192.38 592.327 191.481 590.063 191.481H537.223Z" fill="#3F3D56"/>
<path d="M868.761 19.1875L750.873 38.7482C747.26 39.353 744.034 41.3655 741.902 44.3446C739.771 47.3237 738.908 51.0262 739.502 54.6404L770.248 239.848C770.853 243.461 772.866 246.686 775.846 248.817C778.826 250.948 782.529 251.811 786.144 251.216L904.032 231.656C907.646 231.051 910.872 229.038 913.003 226.059C915.135 223.08 915.998 219.378 915.403 215.763L884.657 30.5554C884.052 26.9429 882.039 23.7176 879.059 21.5867C876.08 19.4557 872.376 18.5929 868.761 19.1875ZM913.799 216.03C914.324 219.219 913.563 222.486 911.682 225.115C909.802 227.743 906.955 229.519 903.766 230.052L785.878 249.613C782.688 250.138 779.42 249.377 776.791 247.497C774.161 245.616 772.385 242.77 771.852 239.582L741.106 54.3742C740.581 51.1851 741.342 47.9179 743.223 45.2891C745.104 42.6604 747.951 40.8848 751.139 40.3517L869.027 20.791C872.217 20.2657 875.485 21.0267 878.115 22.9071C880.744 24.7875 882.52 27.6337 883.053 30.8215L913.799 216.03Z" fill="#3F3D56"/>
<path d="M847.995 95.1322L795.867 103.781C793.208 104.223 790.483 103.59 788.291 102.022C786.099 100.455 784.62 98.0807 784.179 95.4227C783.738 92.7647 784.371 90.0403 785.939 87.8488C787.507 85.6574 789.881 84.1785 792.54 83.7373L844.667 75.088C847.325 74.6487 850.049 75.2825 852.239 76.8501C854.43 78.4177 855.908 80.7908 856.349 83.4478C856.79 86.1048 856.158 88.8281 854.591 91.0191C853.025 93.2102 850.652 94.6896 847.995 95.1322ZM792.806 85.3409C790.573 85.7119 788.579 86.9544 787.262 88.795C785.946 90.6357 785.414 92.9239 785.785 95.1563C786.155 97.3887 787.398 99.3825 789.239 100.699C791.079 102.016 793.368 102.548 795.601 102.178L847.728 93.5287C849.961 93.1576 851.955 91.9151 853.272 90.0745C854.589 88.2338 855.12 85.9456 854.749 83.7132C854.379 81.4808 853.137 79.487 851.296 78.1702C849.455 76.8535 847.166 76.3216 844.933 76.6916L792.806 85.3409Z" fill="#CCCCCC"/>
<path d="M854.117 132.013L801.99 140.663C800.673 140.882 799.326 140.84 798.025 140.538C796.725 140.237 795.496 139.682 794.41 138.906C793.324 138.13 792.402 137.148 791.696 136.015C790.99 134.882 790.514 133.621 790.295 132.305C790.077 130.988 790.12 129.641 790.422 128.341C790.724 127.041 791.28 125.814 792.057 124.729C792.834 123.643 793.817 122.722 794.95 122.016C796.084 121.311 797.345 120.836 798.662 120.618L850.79 111.969C853.448 111.528 856.173 112.161 858.365 113.728C860.557 115.296 862.037 117.67 862.478 120.328C862.919 122.986 862.286 125.71 860.718 127.902C859.15 130.093 856.776 131.572 854.117 132.013ZM798.928 122.222C796.696 122.593 794.702 123.836 793.386 125.677C792.07 127.517 791.539 129.805 791.909 132.037C792.28 134.269 793.522 136.263 795.362 137.58C797.202 138.896 799.491 139.428 801.723 139.059L853.851 130.41C856.083 130.038 858.077 128.796 859.393 126.955C860.709 125.115 861.241 122.827 860.87 120.595C860.499 118.363 859.257 116.369 857.417 115.052C855.577 113.735 853.289 113.203 851.056 113.573L798.928 122.222Z" fill="#CCCCCC"/>
<path d="M860.24 168.895L808.112 177.544C806.795 177.763 805.448 177.721 804.148 177.42C802.847 177.118 801.619 176.564 800.533 175.787C799.447 175.011 798.525 174.029 797.818 172.896C797.112 171.763 796.636 170.503 796.418 169.186C796.199 167.87 796.242 166.523 796.545 165.223C796.847 163.923 797.402 162.695 798.179 161.61C798.956 160.525 799.94 159.603 801.073 158.898C802.206 158.193 803.468 157.717 804.785 157.5L856.912 148.85C859.57 148.411 862.294 149.045 864.484 150.613C866.675 152.18 868.153 154.553 868.594 157.21C869.035 159.867 868.403 162.591 866.836 164.782C865.27 166.973 862.897 168.452 860.24 168.895ZM805.051 159.103C803.945 159.287 802.886 159.686 801.934 160.278C800.983 160.871 800.157 161.645 799.505 162.557C798.852 163.468 798.386 164.499 798.132 165.591C797.878 166.683 797.842 167.814 798.026 168.919C798.209 170.025 798.609 171.084 799.202 172.035C799.795 172.986 800.569 173.812 801.481 174.464C802.393 175.116 803.425 175.582 804.517 175.835C805.609 176.088 806.74 176.124 807.846 175.94L859.973 167.291C861.08 167.108 862.139 166.709 863.091 166.117C864.043 165.524 864.868 164.75 865.521 163.838C866.174 162.927 866.64 161.896 866.894 160.804C867.148 159.712 867.184 158.581 867 157.475C866.817 156.369 866.417 155.31 865.824 154.359C865.231 153.407 864.456 152.582 863.544 151.93C862.632 151.278 861.6 150.812 860.508 150.559C859.416 150.306 858.284 150.27 857.178 150.454L805.051 159.103Z" fill="#CCCCCC"/>
<path d="M866.362 205.776L814.235 214.425C812.918 214.644 811.571 214.601 810.272 214.299C808.972 213.997 807.744 213.442 806.659 212.666C805.573 211.89 804.652 210.908 803.946 209.775C803.24 208.643 802.765 207.383 802.546 206.067C802.328 204.75 802.371 203.404 802.673 202.105C802.975 200.805 803.53 199.578 804.306 198.493C805.082 197.408 806.065 196.486 807.198 195.781C808.33 195.075 809.591 194.6 810.907 194.381L863.034 185.732C865.692 185.292 868.416 185.926 870.607 187.494C872.797 189.061 874.276 191.435 874.717 194.092C875.158 196.749 874.525 199.472 872.959 201.663C871.392 203.854 869.019 205.333 866.362 205.776ZM811.173 195.985C810.067 196.168 809.009 196.568 808.057 197.16C807.106 197.753 806.281 198.527 805.628 199.438C804.311 201.279 803.78 203.568 804.15 205.8C804.521 208.033 805.764 210.027 807.605 211.344C809.446 212.661 811.735 213.192 813.968 212.822L866.096 204.172C868.329 203.801 870.323 202.559 871.639 200.718C872.956 198.878 873.487 196.589 873.117 194.357C872.746 192.125 871.504 190.131 869.663 188.814C867.822 187.497 865.534 186.965 863.301 187.335L811.173 195.985Z" fill="#CCCCCC"/>
<path d="M885.638 41.427L742.087 65.2457C741.982 65.2636 741.874 65.2605 741.769 65.2366C741.665 65.2126 741.566 65.1684 741.479 65.1063C741.392 65.0442 741.318 64.9655 741.262 64.8748C741.205 64.7841 741.167 64.683 741.149 64.5775C741.132 64.472 741.135 64.364 741.159 64.2599C741.184 64.1557 741.228 64.0574 741.291 63.9705C741.353 63.8836 741.432 63.8098 741.523 63.7535C741.614 63.6972 741.715 63.6594 741.821 63.6422L885.372 39.8234C885.477 39.8056 885.585 39.8087 885.689 39.8326C885.794 39.8565 885.892 39.9008 885.979 39.9629C886.066 40.025 886.14 40.1037 886.197 40.1944C886.254 40.2851 886.292 40.3862 886.309 40.4917C886.327 40.5972 886.324 40.7051 886.299 40.8093C886.275 40.9135 886.23 41.0118 886.168 41.0987C886.105 41.1856 886.027 41.2593 885.936 41.3157C885.845 41.372 885.743 41.4098 885.638 41.427Z" fill="#3F3D56"/>
<path d="M757.681 55.6654C760.824 55.6654 763.372 53.1183 763.372 49.9762C763.372 46.8342 760.824 44.2871 757.681 44.2871C754.538 44.2871 751.991 46.8342 751.991 49.9762C751.991 53.1183 754.538 55.6654 757.681 55.6654Z" fill="#25929B"/>
<path d="M871.027 27.8738L854.988 30.5352C854.776 30.5696 854.559 30.5186 854.384 30.3931C854.209 30.2677 854.091 30.0782 854.056 29.866C854.021 29.6538 854.071 29.4364 854.196 29.2612C854.321 29.0861 854.51 28.9676 854.722 28.9316L870.761 26.2703C870.974 26.2358 871.191 26.2868 871.366 26.4122C871.541 26.5377 871.658 26.7272 871.694 26.9394C871.729 27.1516 871.679 27.3691 871.554 27.5443C871.429 27.7194 871.24 27.8379 871.027 27.8738Z" fill="#3F3D56"/>
<path d="M871.826 32.6846L855.787 35.3459C855.574 35.3804 855.357 35.3293 855.182 35.2039C855.007 35.0785 854.889 34.8889 854.854 34.6768C854.819 34.4646 854.869 34.2471 854.994 34.072C855.119 33.8969 855.308 33.7783 855.52 33.7424L871.56 31.0811C871.772 31.0466 871.989 31.0977 872.164 31.2231C872.339 31.3485 872.457 31.5381 872.492 31.7502C872.527 31.9624 872.477 32.1799 872.352 32.355C872.227 32.5301 872.038 32.6487 871.826 32.6846Z" fill="#3F3D56"/>
<path d="M872.624 37.4951L856.585 40.1564C856.48 40.1742 856.372 40.1711 856.268 40.1472C856.163 40.1232 856.065 40.0789 855.978 40.0168C855.891 39.9548 855.817 39.8761 855.76 39.7854C855.703 39.6946 855.665 39.5936 855.648 39.4881C855.63 39.3826 855.634 39.2747 855.658 39.1705C855.682 39.0664 855.727 38.9681 855.789 38.8812C855.852 38.7943 855.93 38.7206 856.021 38.6642C856.112 38.6079 856.214 38.57 856.319 38.5529L872.358 35.8916C872.464 35.8737 872.572 35.8768 872.676 35.9007C872.78 35.9247 872.879 35.9689 872.966 36.031C873.053 36.0931 873.127 36.1718 873.184 36.2625C873.24 36.3532 873.279 36.4543 873.296 36.5598C873.314 36.6653 873.31 36.7733 873.286 36.8774C873.262 36.9816 873.217 37.0799 873.155 37.1668C873.092 37.2537 873.013 37.3275 872.922 37.3838C872.831 37.4401 872.73 37.4779 872.624 37.4951Z" fill="#3F3D56"/>
<path d="M338.055 152.063H277.085C275.253 152.061 273.497 151.333 272.201 150.038C270.906 148.742 270.177 146.987 270.175 145.155V83.3872C270.177 81.5557 270.906 79.7997 272.201 78.5046C273.497 77.2095 275.253 76.481 277.085 76.479H338.055C339.887 76.481 341.643 77.2095 342.939 78.5046C344.234 79.7997 344.963 81.5557 344.965 83.3872V145.155C344.963 146.987 344.234 148.742 342.939 150.038C341.643 151.333 339.887 152.061 338.055 152.063Z" fill="#25929B"/>
<path d="M333.584 197.983H280.743C278.048 197.983 275.464 196.912 273.558 195.007C271.652 193.102 270.582 190.518 270.582 187.823C270.582 185.129 271.652 182.545 273.558 180.64C275.464 178.735 278.048 177.664 280.743 177.664H333.584C336.279 177.664 338.864 178.735 340.769 180.64C342.675 182.545 343.745 185.129 343.745 187.823C343.745 190.518 342.675 193.102 340.769 195.007C338.864 196.912 336.279 197.983 333.584 197.983ZM280.743 179.29C278.48 179.29 276.308 180.189 274.708 181.789C273.107 183.39 272.208 185.56 272.208 187.823C272.208 190.087 273.107 192.257 274.708 193.858C276.308 195.458 278.48 196.357 280.743 196.357H333.584C335.848 196.357 338.019 195.458 339.62 193.858C341.22 192.257 342.12 190.087 342.12 187.823C342.12 185.56 341.22 183.39 339.62 181.789C338.019 180.189 335.848 179.29 333.584 179.29H280.743Z" fill="#3F3D56"/>
<path d="M343.339 150.844C343.232 150.844 343.126 150.823 343.028 150.782C342.929 150.741 342.84 150.682 342.764 150.606L271.226 79.0854C271.15 79.0101 271.089 78.9204 271.048 78.8216C271.006 78.7228 270.985 78.6168 270.985 78.5096C270.984 78.4024 271.005 78.2963 271.046 78.1972C271.087 78.0981 271.147 78.0081 271.223 77.9323C271.299 77.8566 271.389 77.7965 271.488 77.7557C271.587 77.7149 271.693 77.694 271.8 77.6943C271.907 77.6947 272.013 77.7162 272.112 77.7577C272.211 77.7992 272.301 77.8599 272.376 77.9361L343.914 149.457C344.028 149.57 344.105 149.715 344.136 149.873C344.168 150.03 344.152 150.194 344.09 150.342C344.029 150.491 343.924 150.618 343.791 150.707C343.657 150.796 343.5 150.844 343.339 150.844Z" fill="white"/>
<path d="M271.801 150.844C271.64 150.844 271.483 150.797 271.35 150.707C271.216 150.618 271.112 150.491 271.05 150.343C270.989 150.194 270.973 150.031 271.004 149.873C271.035 149.715 271.113 149.571 271.226 149.457L342.764 77.9364C342.839 77.8601 342.929 77.7995 343.028 77.758C343.127 77.7165 343.233 77.6949 343.34 77.6946C343.447 77.6942 343.553 77.7151 343.652 77.7559C343.752 77.7968 343.842 77.8568 343.917 77.9326C343.993 78.0084 344.053 78.0984 344.094 78.1974C344.135 78.2965 344.156 78.4027 344.156 78.5098C344.155 78.617 344.134 78.723 344.092 78.8218C344.051 78.9207 343.99 79.0103 343.914 79.0856L272.376 150.606C272.301 150.682 272.211 150.742 272.112 150.783C272.014 150.823 271.908 150.844 271.801 150.844Z" fill="white"/>
<path d="M899.833 233.897C900.21 232.677 900.314 231.39 900.139 230.126C899.964 228.861 899.514 227.651 898.82 226.579C898.126 225.508 897.206 224.601 896.124 223.924C895.042 223.246 893.825 222.814 892.558 222.658L850.827 173.907L841.094 184.124L882.66 230.867C882.539 233.013 883.209 235.128 884.543 236.813C885.878 238.498 887.784 239.634 889.901 240.008C892.017 240.381 894.198 239.966 896.028 238.839C897.859 237.713 899.213 235.955 899.833 233.897Z" fill="#A0616A"/>
<path d="M862.916 184.177L847.999 195.077C847.575 195.387 847.088 195.602 846.573 195.707C846.058 195.812 845.527 195.805 845.015 195.687C844.502 195.568 844.022 195.34 843.606 195.019C843.19 194.698 842.847 194.291 842.603 193.826L834.031 177.526C832.456 175.346 831.81 172.631 832.235 169.976C832.66 167.32 834.12 164.942 836.296 163.362C838.473 161.781 841.187 161.128 843.844 161.545C846.501 161.963 848.884 163.417 850.471 165.588L863.363 178.657C863.732 179.032 864.016 179.481 864.195 179.975C864.375 180.469 864.446 180.996 864.404 181.52C864.361 182.044 864.206 182.552 863.95 183.011C863.693 183.469 863.34 183.867 862.916 184.177Z" fill="#25929B"/>
<path d="M834.132 151.607C845.159 151.607 854.098 142.67 854.098 131.646C854.098 120.621 845.159 111.684 834.132 111.684C823.105 111.684 814.165 120.621 814.165 131.646C814.165 142.67 823.105 151.607 834.132 151.607Z" fill="#A0616A"/>
<path d="M842.805 221.703C842.597 221.703 842.391 221.686 842.186 221.652L807.153 215.756C806.309 215.616 805.542 215.183 804.984 214.535C804.426 213.886 804.114 213.062 804.102 212.207C803.996 204.194 804.596 183.966 812.448 169.233C814.904 164.627 818.949 161.071 823.831 159.224C828.713 157.378 834.1 157.367 838.99 159.194C843.88 161.021 847.939 164.561 850.414 169.156C852.888 173.751 853.608 179.089 852.441 184.175C849.813 195.493 847.804 206.945 846.424 218.481C846.318 219.367 845.892 220.184 845.225 220.778C844.558 221.371 843.697 221.701 842.805 221.703Z" fill="#2F2E41"/>
<path d="M769.354 155.977C769.453 156.415 769.518 156.861 769.548 157.31L804.469 177.451L812.958 172.565L822.006 184.409L807.821 194.517C806.675 195.334 805.294 195.757 803.888 195.722C802.481 195.688 801.123 195.199 800.018 194.327L764.008 165.925C762.383 166.527 760.613 166.619 758.934 166.191C757.255 165.762 755.746 164.832 754.609 163.526C753.471 162.219 752.758 160.597 752.565 158.875C752.372 157.153 752.708 155.414 753.528 153.887C754.348 152.361 755.614 151.121 757.156 150.331C758.698 149.541 760.445 149.24 762.163 149.467C763.881 149.694 765.489 150.438 766.773 151.601C768.058 152.764 768.958 154.29 769.354 155.977Z" fill="#A0616A"/>
<path d="M804.949 175.437C805.054 174.922 805.269 174.436 805.58 174.012C805.89 173.588 806.288 173.235 806.747 172.979L822.772 164.02C824.901 162.378 827.595 161.646 830.263 161.986C832.931 162.326 835.355 163.709 837.004 165.833C838.654 167.957 839.393 170.648 839.061 173.316C838.728 175.985 837.351 178.412 835.232 180.067L822.455 193.332C822.09 193.71 821.648 194.006 821.159 194.198C820.669 194.391 820.145 194.475 819.62 194.447C819.095 194.418 818.582 194.276 818.117 194.032C817.652 193.787 817.245 193.445 816.923 193.029L805.637 178.405C805.316 177.989 805.088 177.508 804.969 176.996C804.85 176.484 804.844 175.952 804.949 175.437Z" fill="#25929B"/>
<path d="M788.042 400.732H778.075L775.729 362.424L788.043 362.299L788.042 400.732Z" fill="#A0616A"/>
<path d="M790.583 410.391L758.448 410.389V409.983C758.448 408.341 758.771 406.715 759.4 405.198C760.028 403.68 760.95 402.302 762.111 401.141C763.273 399.979 764.652 399.058 766.169 398.43C767.687 397.802 769.313 397.478 770.956 397.478L790.584 397.479L790.583 410.391Z" fill="#2F2E41"/>
<path d="M883.155 400.732H873.188L868.447 362.299H883.156L883.155 400.732Z" fill="#A0616A"/>
<path d="M885.696 410.391L853.561 410.389V409.983C853.561 408.341 853.884 406.715 854.513 405.198C855.141 403.68 856.063 402.302 857.224 401.141C858.386 399.979 859.764 399.058 861.282 398.43C862.8 397.802 864.426 397.478 866.069 397.478L885.697 397.479L885.696 410.391Z" fill="#2F2E41"/>
<path d="M871.824 380.802C871.065 380.8 870.326 380.564 869.707 380.125C869.088 379.687 868.62 379.068 868.366 378.353L836.606 287.63C836.484 287.282 836.27 286.974 835.987 286.739C835.704 286.504 835.362 286.349 834.998 286.293C834.634 286.237 834.261 286.281 833.92 286.42C833.579 286.559 833.282 286.788 833.061 287.082L802.08 328.38C801.839 328.703 801.669 329.072 801.58 329.465L791.708 373.499C791.531 374.281 791.103 374.984 790.488 375.499C789.873 376.015 789.106 376.314 788.305 376.352L776.481 376.889C775.971 376.915 775.461 376.833 774.985 376.647C774.509 376.462 774.078 376.178 773.72 375.815C773.361 375.453 773.081 375.02 772.899 374.544C772.716 374.068 772.635 373.559 772.661 373.049L774.723 332.858C775.373 319.856 778.724 307.132 784.562 295.495C797.54 269.622 805.049 241.354 806.621 212.452L806.646 212.002L843.026 217.789L848.487 225.349C850.924 228.759 853.564 232.02 856.393 235.114C863.348 242.653 865.436 252.736 865.963 259.867C866.643 268.63 867.884 277.341 869.678 285.946L887.72 374.584C887.855 375.088 887.881 375.614 887.797 376.128C887.712 376.642 887.518 377.132 887.228 377.565C886.939 377.999 886.56 378.365 886.117 378.64C885.674 378.915 885.178 379.092 884.661 379.159L872.292 380.772C872.137 380.792 871.98 380.802 871.824 380.802Z" fill="#2F2E41"/>
<path d="M856.209 117.791C854.623 112.984 853.452 108.05 852.709 103.044C852.476 100.129 853.223 96.9923 855.346 94.9811C859.32 91.2172 866.071 93.0099 870.227 96.572C876.232 101.72 879.228 109.632 880.36 117.459C881.492 125.287 880.994 133.247 881.266 141.151C881.539 149.056 882.669 157.183 886.7 163.989C890.731 170.794 898.211 176.018 906.101 175.439C909.285 175.267 912.309 173.986 914.647 171.818C915.795 170.726 916.665 169.375 917.183 167.878C917.7 166.381 917.852 164.782 917.624 163.214C921.656 170.433 919.612 180.217 913.597 185.892C907.582 191.567 898.33 193.172 890.423 190.749C882.516 188.326 876.008 182.25 872.12 174.952C868.233 167.654 866.808 159.223 867.015 150.957C867.173 144.609 868.253 138.21 867.18 131.952C866.107 125.693 862.189 119.339 856.011 117.865L856.209 117.791Z" fill="#2F2E41"/>
<path d="M828.466 126.019C827.413 129.536 823.384 131.706 819.76 131.111C816.136 130.516 813.156 127.532 812.055 124.029C811.059 120.451 811.467 116.629 813.194 113.341C814.146 111.37 815.477 109.607 817.112 108.152C818.746 106.696 820.652 105.577 822.72 104.859C824.799 104.17 827.013 103.991 829.176 104.336C831.339 104.682 833.387 105.542 835.148 106.844C835.336 106.054 835.731 105.328 836.292 104.741C836.854 104.154 837.561 103.727 838.343 103.504C839.916 103.081 841.576 103.105 843.136 103.575C847.631 104.856 851.526 107.689 854.129 111.57C856.698 115.44 858.398 119.82 859.111 124.41C860.337 131.292 859.885 138.813 856.019 144.639C852.152 150.464 844.242 153.903 837.824 151.126C837.424 149.081 838.372 147.022 839.469 145.249C840.566 143.477 841.865 141.751 842.287 139.71C842.708 137.669 841.9 135.173 839.926 134.505C838.241 133.936 836.445 134.858 834.67 134.97C833.662 135.033 832.656 134.83 831.751 134.382C830.846 133.933 830.075 133.254 829.516 132.414C828.956 131.574 828.627 130.601 828.562 129.593C828.498 128.586 828.699 127.579 829.146 126.674L828.466 126.019Z" fill="#2F2E41"/>
<path d="M975.242 410.919H665.515C665.3 410.919 665.093 410.833 664.941 410.681C664.788 410.528 664.702 410.322 664.702 410.106C664.702 409.891 664.788 409.684 664.941 409.531C665.093 409.379 665.3 409.293 665.515 409.293H975.242C975.457 409.293 975.664 409.379 975.816 409.531C975.969 409.684 976.055 409.891 976.055 410.106C976.055 410.322 975.969 410.528 975.816 410.681C975.664 410.833 975.457 410.919 975.242 410.919Z" fill="#CCCCCC"/>
</g>
<defs>
<clipPath id="clip0_40_1625">
<rect width="772" height="392" fill="white" transform="translate(234 19)"/>
</clipPath>
</defs>
</svg>
