<svg width="1239" height="430" viewBox="0 0 1239 430" fill="none" xmlns="http://www.w3.org/2000/svg">
<rect width="1239" height="430" fill="white"/>
<g clip-path="url(#clip0_10_940)">
<path d="M722.225 386.35C720.788 386.35 719.359 386.136 717.984 385.715L422.683 295.676C418.993 294.547 415.903 292.001 414.09 288.598C412.276 285.195 411.888 281.213 413.011 277.524L487.43 33.9292C488.561 30.2431 491.109 27.1555 494.515 25.3439C497.922 23.5324 501.908 23.1448 505.601 24.2662L800.902 114.305C804.591 115.435 807.682 117.98 809.495 121.383C811.309 124.787 811.697 128.769 810.574 132.458L736.155 376.053C735.24 379.032 733.394 381.639 730.887 383.493C728.38 385.346 725.344 386.348 722.225 386.35Z" fill="#25929B"/>
<path d="M766.201 347.306H457.452C453.477 347.301 449.665 345.722 446.853 342.913C444.042 340.104 442.461 336.296 442.456 332.324V77.6364C442.461 73.6644 444.042 69.8564 446.853 67.0477C449.665 64.2391 453.477 62.6592 457.452 62.6548H766.201C770.177 62.6593 773.989 64.2391 776.8 67.0477C779.612 69.8564 781.193 73.6644 781.198 77.6364V332.324C781.193 336.296 779.612 340.104 776.8 342.913C773.989 345.721 770.177 347.301 766.201 347.306ZM457.452 64.4173C453.944 64.4213 450.581 65.8153 448.1 68.2935C445.62 70.7717 444.224 74.1317 444.22 77.6364V332.324C444.224 335.829 445.62 339.189 448.1 341.667C450.581 344.145 453.944 345.539 457.452 345.543H766.201C769.709 345.539 773.073 344.145 775.553 341.667C778.034 339.189 779.429 335.829 779.433 332.324V77.6364C779.429 74.1317 778.034 70.7717 775.553 68.2935C773.073 65.8153 769.709 64.4213 766.201 64.4173H457.452Z" fill="#3F3D56"/>
<path d="M611.827 317.343C611.593 317.343 611.369 317.25 611.203 317.084C611.038 316.919 610.945 316.695 610.945 316.461V144.613C610.945 144.379 611.038 144.155 611.203 143.99C611.369 143.825 611.593 143.732 611.827 143.732C612.061 143.732 612.286 143.825 612.451 143.99C612.616 144.155 612.709 144.379 612.709 144.613V316.461C612.709 316.695 612.616 316.919 612.451 317.084C612.286 317.25 612.061 317.343 611.827 317.343Z" fill="white"/>
<path d="M611.828 276.193C611.628 276.194 611.434 276.126 611.278 276.002C611.122 275.878 611.012 275.704 610.967 275.509C610.923 275.315 610.945 275.111 611.032 274.931C611.118 274.751 611.263 274.606 611.443 274.519L704.95 229.303C705.054 229.253 705.167 229.223 705.283 229.216C705.399 229.209 705.515 229.225 705.625 229.263C705.734 229.301 705.835 229.36 705.922 229.437C706.009 229.514 706.079 229.607 706.13 229.711C706.181 229.816 706.21 229.929 706.217 230.045C706.223 230.161 706.207 230.276 706.169 230.386C706.131 230.495 706.071 230.596 705.994 230.683C705.917 230.769 705.823 230.839 705.718 230.89L612.211 276.105C612.092 276.163 611.961 276.194 611.828 276.193Z" fill="white"/>
<path d="M611.828 230.978C611.631 230.978 611.44 230.913 611.285 230.792C611.13 230.671 611.02 230.502 610.972 230.311C610.924 230.121 610.941 229.92 611.02 229.74C611.1 229.56 611.237 229.412 611.411 229.32L674.043 195.831C674.249 195.722 674.49 195.699 674.714 195.767C674.937 195.834 675.124 195.988 675.235 196.194C675.345 196.4 675.369 196.64 675.301 196.864C675.234 197.087 675.081 197.275 674.875 197.386L612.243 230.874C612.116 230.942 611.973 230.978 611.828 230.978Z" fill="white"/>
<path d="M611.828 180.766C611.632 180.766 611.442 180.701 611.287 180.581C611.132 180.461 611.021 180.293 610.973 180.104C610.924 179.914 610.94 179.714 611.018 179.534C611.096 179.355 611.231 179.206 611.403 179.112L648.453 158.822C648.658 158.71 648.899 158.683 649.124 158.749C649.349 158.814 649.538 158.966 649.651 159.171C649.763 159.376 649.789 159.617 649.724 159.842C649.658 160.066 649.506 160.255 649.301 160.368L612.251 180.658C612.121 180.729 611.976 180.766 611.828 180.766Z" fill="white"/>
<path d="M611.826 276.193C611.693 276.193 611.562 276.163 611.443 276.105L517.936 230.889C517.832 230.839 517.738 230.769 517.661 230.682C517.584 230.596 517.525 230.495 517.487 230.386C517.449 230.276 517.433 230.161 517.44 230.045C517.446 229.93 517.476 229.817 517.526 229.712C517.577 229.608 517.647 229.515 517.734 229.438C517.82 229.361 517.921 229.302 518.031 229.264C518.14 229.226 518.256 229.21 518.371 229.217C518.487 229.224 518.6 229.253 518.705 229.303L612.211 274.519C612.391 274.606 612.536 274.751 612.622 274.931C612.709 275.111 612.731 275.315 612.687 275.509C612.642 275.704 612.533 275.877 612.376 276.002C612.22 276.126 612.026 276.193 611.826 276.193Z" fill="white"/>
<path d="M611.826 230.978C611.681 230.978 611.539 230.942 611.411 230.874L548.779 197.386C548.573 197.275 548.42 197.087 548.353 196.864C548.286 196.64 548.31 196.4 548.42 196.194C548.53 195.988 548.717 195.834 548.941 195.767C549.164 195.699 549.405 195.722 549.612 195.831L612.244 229.32C612.417 229.412 612.554 229.56 612.634 229.74C612.713 229.92 612.731 230.121 612.683 230.311C612.635 230.502 612.525 230.671 612.369 230.792C612.214 230.913 612.023 230.978 611.826 230.978Z" fill="white"/>
<path d="M611.826 180.766C611.678 180.766 611.532 180.729 611.403 180.658L574.353 160.368C574.148 160.255 573.996 160.066 573.93 159.842C573.865 159.617 573.891 159.376 574.003 159.171C574.116 158.966 574.305 158.814 574.53 158.749C574.754 158.683 574.996 158.71 575.201 158.822L612.251 179.112C612.423 179.206 612.558 179.355 612.636 179.534C612.714 179.714 612.73 179.914 612.681 180.104C612.632 180.293 612.522 180.461 612.367 180.581C612.212 180.701 612.022 180.766 611.826 180.766Z" fill="white"/>
<path d="M626.823 346.865H596.831C595.31 346.864 593.853 346.259 592.778 345.186C591.703 344.112 591.098 342.656 591.097 341.137V321.749C591.098 320.23 591.703 318.774 592.778 317.7C593.853 316.627 595.31 316.022 596.831 316.021H626.823C628.344 316.022 629.801 316.627 630.876 317.7C631.951 318.774 632.556 320.23 632.557 321.749V341.137C632.556 342.656 631.951 344.112 630.876 345.186C629.801 346.259 628.344 346.864 626.823 346.865Z" fill="#3F3D56"/>
<path d="M443.769 128.059C450.898 128.059 456.677 122.285 456.677 115.163C456.677 108.041 450.898 102.268 443.769 102.268C436.64 102.268 430.861 108.041 430.861 115.163C430.861 122.285 436.64 128.059 443.769 128.059Z" fill="#FF6584"/>
<path d="M793.576 67.8838C793.576 68.3781 793.561 68.8653 793.518 69.3453C793.301 72.3204 792.423 75.2097 790.946 77.8027C789.47 80.3956 787.434 82.627 784.985 84.3343C782.536 86.0415 779.738 87.1817 776.792 87.6717C773.847 88.1616 770.829 87.9891 767.959 87.1667C765.089 86.3442 762.438 84.8926 760.2 82.9174C757.963 80.9422 756.194 78.4934 755.024 75.7491C753.853 73.0048 753.31 70.0342 753.434 67.0538C753.558 64.0733 754.346 61.158 755.74 58.5202C756.172 57.6936 756.666 56.9009 757.218 56.1489C759.619 52.8217 762.984 50.3103 766.859 48.9533C770.733 47.5963 774.931 47.4591 778.886 48.5601C782.842 49.6612 786.364 51.9475 788.977 55.1108C791.591 58.274 793.171 62.162 793.504 66.2503C793.554 66.7877 793.576 67.3321 793.576 67.8838Z" fill="#3F3D56"/>
<path d="M719.226 358.959C726.355 358.959 732.134 353.186 732.134 346.064C732.134 338.942 726.355 333.168 719.226 333.168C712.097 333.168 706.317 338.942 706.317 346.064C706.317 353.186 712.097 358.959 719.226 358.959Z" fill="#E6E6E6"/>
<path d="M620.426 76.0708C627.555 76.0708 633.334 70.2973 633.334 63.1753C633.334 56.0533 627.555 50.2798 620.426 50.2798C613.297 50.2798 607.518 56.0533 607.518 63.1753C607.518 70.2973 613.297 76.0708 620.426 76.0708Z" fill="#E6E6E6"/>
</g>
<defs>
<clipPath id="clip0_10_940">
<rect width="550" height="425" fill="white" transform="translate(345 3)"/>
</clipPath>
</defs>
</svg>
