<svg width="1239" height="430" viewBox="0 0 1239 430" fill="none" xmlns="http://www.w3.org/2000/svg">
<rect width="1239" height="430" fill="white"/>
<g clip-path="url(#clip0_40_2144)">
<path d="M592.212 110.544C571.714 110.56 551.358 107.147 531.989 100.448C506.022 91.4818 484.75 79.1145 468.763 63.6896C438.521 34.5117 413.728 30.1144 398.257 31.5624C381.511 33.1304 371.763 41.6948 371.666 41.7812L371 41.0395C371.098 40.9512 381.047 32.1924 398.1 30.5764C408.099 29.6294 418.557 31.2794 429.182 35.4823C442.432 40.7234 455.982 49.9726 469.456 62.9729C485.338 78.2964 506.486 90.588 532.315 99.5061C579.73 115.878 633.168 111.914 678.928 88.6307C694.079 80.9212 709.054 75.6589 723.435 72.9901C741.57 69.6238 758.769 70.4051 774.558 75.3108C809.253 86.0906 832.951 85.5189 846.721 83.1422C861.58 80.5775 868.321 75.4446 868.387 75.393L869 76.1795C868.721 76.3962 861.993 81.5172 846.891 84.124C833.012 86.5202 809.144 87.1006 774.262 76.262C738.942 65.2893 703.17 77.4138 679.381 89.5182C656.764 101.088 632.067 108.046 606.729 109.987C601.873 110.358 597.034 110.544 592.212 110.544Z" fill="#3F3D56"/>
<path d="M590.198 122.908C595.782 122.908 600.309 118.387 600.309 112.81C600.309 107.234 595.782 102.713 590.198 102.713C584.614 102.713 580.087 107.234 580.087 112.81C580.087 118.387 584.614 122.908 590.198 122.908Z" fill="#25929B"/>
<path d="M746.839 82.5531C752.423 82.5531 756.949 78.0323 756.949 72.4556C756.949 66.879 752.423 62.3582 746.839 62.3582C741.255 62.3582 736.728 66.879 736.728 72.4556C736.728 78.0323 741.255 82.5531 746.839 82.5531Z" fill="#25929B"/>
<path d="M421.085 43.195C426.669 43.195 431.196 38.6742 431.196 33.0975C431.196 27.5208 426.669 23 421.085 23C415.501 23 410.975 27.5208 410.975 33.0975C410.975 38.6742 415.501 43.195 421.085 43.195Z" fill="#25929B"/>
<path d="M662.704 264.372V361.934H678.064V272.962H739.504V361.934H754.864V166.81H739.504C734.414 166.81 726.601 193.284 726.601 219.886C726.601 239.938 728.946 257.122 732.28 264.372H662.704ZM739.504 264.372H739.354C739.404 264.263 739.454 264.148 739.504 264.034V264.372Z" fill="#3F3D56"/>
<path d="M719.624 118.52C707.016 118.52 696.795 129.848 696.795 143.822V161.576H702.262L705.428 154.998L704.636 161.576H739.779L742.657 155.596L741.937 161.576H745.894V147.636C745.894 131.556 734.132 118.52 719.624 118.52Z" fill="#2F2E41"/>
<path d="M693.466 234.515L679.449 240.465L630.741 280.01C628.95 282.208 627.852 284.888 627.587 287.71C627.236 292.259 612.519 316.056 617.775 319.206C623.031 322.356 641.954 331.805 643.005 325.505C644.057 319.206 649.663 292.259 649.663 292.259L696.619 250.264L693.466 234.515Z" fill="#2F2E41"/>
<path d="M638.45 320.256L632.493 337.754C632.493 337.754 638.801 344.403 635.647 350.003V369.25H630.741L629.339 359.102C629.339 359.102 623.752 369.122 620.929 369.25C615.013 369.519 603.297 371.621 602.946 368.471C602.596 365.322 611.818 362.251 611.818 362.251L621.63 335.304L625.835 318.856L638.45 320.256Z" fill="#2F2E41"/>
<path d="M729.909 229.966C729.909 229.966 733.063 260.762 723.952 266.362C714.841 271.961 674.543 289.809 674.543 289.809C674.543 289.809 691.714 305.908 688.21 309.757C684.705 313.607 668.937 324.106 666.834 322.006C664.731 319.906 641.253 294.709 644.057 286.66C646.86 278.611 685.757 252.363 685.757 252.363L690.312 235.915L691.714 222.617L706.431 213.168L729.909 229.966Z" fill="#2F2E41"/>
<path d="M713.855 158.264C721.923 158.264 728.463 151.732 728.463 143.674C728.463 135.617 721.923 129.085 713.855 129.085C705.787 129.085 699.247 135.617 699.247 143.674C699.247 151.732 705.787 158.264 713.855 158.264Z" fill="#FFB9B9"/>
<path d="M725.179 149.65C725.179 149.65 724.478 162.948 735.341 167.148C746.204 171.347 708.359 198.644 708.359 198.644V168.198C708.359 168.198 713.265 162.948 708.359 154.899L725.179 149.65Z" fill="#FFB9B9"/>
<path d="M748.481 212.118L745.678 225.766L737.268 272.661C737.268 272.661 744.276 292.609 734.815 292.259C725.354 291.909 729.909 270.561 729.909 270.561L734.815 231.716V216.667L748.481 212.118Z" fill="#FFB9B9"/>
<path d="M688.21 205.469L685.056 217.717L670.689 252.363C670.689 252.363 660.877 268.812 668.936 268.462C676.996 268.112 676.996 252.363 676.996 252.363L693.466 224.366V208.618L688.21 205.469Z" fill="#FFB9B9"/>
<path d="M685.757 307.657L697.321 318.506C697.321 318.506 705.38 316.756 708.534 326.205C711.688 335.654 713.79 341.604 713.79 341.604L709.585 344.053L704.329 336.704C704.329 336.704 701.175 350.003 698.022 351.052C694.868 352.102 679.099 359.102 680.501 351.052L688.21 339.854C688.21 339.854 689.261 327.255 686.107 326.205C682.954 325.155 674.543 314.656 674.543 314.656L685.757 307.657Z" fill="#2F2E41"/>
<path d="M730.465 240.815C730.465 240.815 697.526 228.916 695.423 229.966C693.858 230.656 692.191 231.088 690.487 231.245L690.517 226.466C690.517 226.466 701.38 222.617 707.337 225.066C713.294 227.516 731.516 238.365 731.516 238.365L730.465 240.815Z" fill="#3F3D56"/>
<path d="M710.461 191.645C710.461 191.645 719.922 180.796 722.726 174.147C724.499 170.116 727.755 166.919 731.82 165.216C731.82 165.216 752.862 169.947 752.511 178.346C752.161 186.746 739.195 199.694 739.195 199.694C739.195 199.694 740.947 246.239 731.486 245.539C729.445 243.107 728.005 240.23 727.281 237.14C726.23 232.241 693.641 226.991 693.641 226.991C693.641 226.991 690.838 231.891 690.487 229.791C690.137 227.691 693.291 176.247 693.291 176.247L710.001 165.216L710.461 191.645Z" fill="#D0CDE1"/>
<path d="M749.812 174.966L750.047 175.097C750.796 175.517 751.419 176.128 751.853 176.869C752.287 177.609 752.515 178.451 752.515 179.309L752.512 205.28C752.514 205.986 752.671 206.683 752.97 207.323C753.269 207.962 753.704 208.529 754.245 208.984C755.595 210.131 756.847 211.783 754.263 212.643C750.058 214.043 733.589 221.042 733.238 218.592C732.888 216.142 732.187 213.343 733.238 213.343C734.061 213.343 738.965 188.248 742.905 177.518C743.146 176.861 743.526 176.264 744.021 175.769C744.515 175.273 745.111 174.891 745.768 174.648C746.425 174.405 747.127 174.308 747.825 174.363C748.523 174.418 749.201 174.624 749.812 174.966Z" fill="#D0CDE1"/>
<path d="M698.021 175.022L693.116 176.422L687.509 200.569C687.509 200.569 680.851 201.969 682.953 204.419C685.056 206.868 693.816 213.168 693.816 213.168L698.021 175.022Z" fill="#D0CDE1"/>
<path d="M726.114 125.49C725.015 124.017 723.591 122.816 721.953 121.981C720.315 121.146 718.506 120.699 716.667 120.676H716.219C707.577 120.676 700.572 128.485 700.572 138.118L703.467 138.118L703.935 134.564L704.621 138.118H721.794L723.233 135.111L722.873 138.118H726.252C727.828 145.938 725.563 153.757 719.456 161.576H725.211L728.089 155.561L727.369 161.576H738.34L740.498 147.742C740.498 137.382 734.471 128.596 726.114 125.49Z" fill="#2F2E41"/>
<path d="M432.626 286.914C436.313 278.898 438.906 259.897 438.906 237.727C438.906 208.314 430.267 179.042 424.64 179.042H407.657V394.785H424.64V296.412H492.572V394.785H509.555V286.914H432.626ZM424.64 286.54C424.695 286.666 424.749 286.793 424.805 286.914H424.64V286.54Z" fill="#3F3D56"/>
<path d="M503.413 247.555C503.413 247.555 523.866 256.025 517.381 261.007C510.896 265.989 497.427 255.029 497.926 253.534C498.424 252.039 495.93 248.552 495.93 248.552L503.413 247.555Z" fill="#9F616A"/>
<path d="M485.454 180.796L491.939 186.774L493.436 204.212L498.425 222.645C498.425 222.645 506.905 240.082 505.409 243.57C503.912 247.057 506.905 248.054 506.905 248.054L495.431 252.538C495.431 252.538 482.96 238.588 482.96 235.599C482.96 232.609 485.454 180.796 485.454 180.796Z" fill="#575A88"/>
<path opacity="0.1" d="M485.454 180.796L491.939 186.774L493.436 204.212L498.425 222.645C498.425 222.645 506.905 240.082 505.409 243.57C503.912 247.057 506.905 248.054 506.905 248.054L495.431 252.538C495.431 252.538 482.96 238.588 482.96 235.599C482.96 232.609 485.454 180.796 485.454 180.796Z" fill="black"/>
<path d="M546.814 360.15C546.814 360.15 544.32 371.609 543.821 372.605C543.322 373.601 553.299 377.089 553.299 377.089L565.272 368.619C565.272 368.619 560.283 357.659 560.283 355.666L546.814 360.15Z" fill="#575A88"/>
<path d="M481.464 248.552L484.956 252.537C484.956 252.537 557.29 261.505 558.787 275.455C560.283 289.405 570.759 355.168 564.773 357.161C558.787 359.153 543.322 366.626 543.322 362.641C543.322 358.655 533.345 303.853 535.34 293.888C535.34 293.888 449.038 282.928 447.043 270.473C445.047 258.018 449.038 252.537 449.038 252.537L481.464 248.552Z" fill="#2F2E41"/>
<path opacity="0.1" d="M481.464 248.552L484.956 252.537C484.956 252.537 557.29 261.505 558.787 275.455C560.283 289.405 570.759 355.168 564.773 357.161C558.787 359.153 543.322 366.626 543.322 362.641C543.322 358.655 533.345 303.853 535.34 293.888C535.34 293.888 449.038 282.928 447.043 270.473C445.047 258.018 449.038 252.537 449.038 252.537L481.464 248.552Z" fill="black"/>
<path d="M545.816 371.609C545.816 371.609 543.82 367.125 542.823 368.619C541.825 370.114 538.333 387.551 541.825 387.551C545.317 387.551 577.244 395.522 581.734 394.526C586.223 393.53 594.704 395.024 593.706 390.042C592.708 385.06 587.72 384.562 587.72 384.562C587.72 384.562 569.262 373.601 568.264 368.121C567.267 362.641 561.779 365.63 561.779 365.63V369.118C561.779 369.118 551.303 377.089 545.816 371.609Z" fill="#2F2E41"/>
<path d="M451.033 142.932C451.033 142.932 454.525 159.871 447.043 161.366C439.56 162.86 456.521 172.825 456.521 172.825L467.496 178.803L475.477 170.832C475.477 170.832 468.244 156.135 473.731 145.174C479.219 134.214 451.033 142.932 451.033 142.932Z" fill="#9F616A"/>
<path d="M475.477 170.832L467.496 178.803L456.521 172.825C456.521 172.825 439.56 162.86 447.043 161.366C451.856 160.404 452.126 153.051 451.712 147.929C451.577 146.253 451.35 144.584 451.033 142.932C451.033 142.932 479.219 134.214 473.731 145.174C472.898 146.867 472.319 148.673 472.015 150.535C470.334 160.384 475.477 170.832 475.477 170.832Z" fill="#9F616A"/>
<path d="M503.413 374.598V386.057H522.37L523.866 381.573L521.871 369.616L503.413 374.598Z" fill="#575A88"/>
<path d="M425.093 258.516C425.093 258.516 425.093 287.91 437.065 288.907C449.038 289.903 491.94 295.383 491.94 295.383C491.94 295.383 494.434 344.207 498.924 360.15C503.413 376.093 499.422 377.089 503.413 378.085C507.404 379.082 524.365 375.594 523.866 372.107C523.368 368.62 521.372 280.437 521.372 280.437C521.372 280.437 525.862 261.505 465.999 252.538L425.093 258.516Z" fill="#2F2E41"/>
<path d="M504.91 382.569C504.91 382.569 501.917 376.092 501.418 378.085C500.919 380.078 494.933 397.515 500.919 399.01C506.905 400.504 525.862 408.476 538.333 407.977C550.805 407.479 552.301 406.981 552.301 406.981C552.301 406.981 555.793 401.999 551.303 399.01C546.814 396.021 528.356 378.583 527.358 376.591C526.361 374.598 518.878 373.103 518.878 376.591C518.878 380.078 508.402 387.053 504.91 382.569Z" fill="#2F2E41"/>
<path opacity="0.1" d="M473.731 145.174C472.897 146.867 472.319 148.673 472.015 150.535C469.531 152.034 467.87 151.651 464.752 151.651C460.127 151.651 458.262 145.747 455.273 142.683C455.039 139.838 451.033 142.932 451.033 142.932C451.033 142.932 479.219 134.214 473.731 145.174Z" fill="black"/>
<path d="M463.505 151.402C472.597 151.402 479.967 144.041 479.967 134.961C479.967 125.881 472.597 118.52 463.505 118.52C454.413 118.52 447.042 125.881 447.042 134.961C447.042 144.041 454.413 151.402 463.505 151.402Z" fill="#9F616A"/>
<path d="M491.94 186.774C491.94 186.774 489.445 204.71 487.949 211.186C486.452 217.663 484.457 247.556 483.459 251.541C482.461 255.527 476.475 256.523 464.503 255.029C463.751 254.934 462.995 254.878 462.238 254.859C454.865 254.625 446.429 257.38 438.622 259.542C434.132 260.788 429.847 261.834 426.091 262.003C420.404 262.263 418.737 255.965 418.932 249.15C419.117 242.808 420.917 236.007 422.599 233.606C425.627 229.281 422.648 190.456 423.766 177.652V177.647C423.935 175.694 424.2 174.349 424.594 173.821C427.587 169.835 447.043 159.871 449.223 160.275C451.398 160.678 469.99 172.326 469.99 172.326C474.48 172.326 474.335 167.464 474.335 167.464C474.335 167.464 477.473 173.323 483.459 174.817C489.445 176.312 491.94 186.774 491.94 186.774Z" fill="#575A88"/>
<path d="M458.592 251.363C458.592 251.363 490.727 252.385 485.097 256.198C479.468 260.011 454.525 263.498 454.026 258.516C453.527 253.534 458.592 251.363 458.592 251.363Z" fill="#9F616A"/>
<path opacity="0.1" d="M462.237 254.859C462.342 256.772 457.189 261.082 455.523 263.996C454.6 265.61 447.456 263.483 438.622 259.542C431.842 256.503 425.265 253.032 418.932 249.15C419.116 242.807 420.917 236.007 422.598 233.606C425.626 229.281 422.648 190.456 423.766 177.652V177.647C424.032 177.512 424.309 177.399 424.594 177.308H430.58C451.033 186.774 427.587 227.627 427.587 227.627C427.587 227.627 458.516 253.036 461.509 254.032C461.705 254.069 461.884 254.171 462.016 254.321C462.148 254.47 462.226 254.66 462.237 254.859Z" fill="black"/>
<path d="M430.58 174.319H424.594C424.594 174.319 419.106 175.814 414.617 185.778C410.127 195.742 393.665 226.631 408.132 238.588C422.598 250.545 453.528 264.494 455.523 261.007C457.518 257.519 464.502 252.039 461.509 251.043C458.516 250.046 427.587 224.638 427.587 224.638C427.587 224.638 451.033 183.785 430.58 174.319Z" fill="#575A88"/>
<path d="M460.972 127.311C460.972 127.311 461.695 117.323 470.607 121.395C479.519 125.468 478.938 114.243 476.245 112.259C473.551 110.276 473.637 109.785 463.786 111.112C453.936 112.439 434.812 114.688 440.995 134.468C447.179 154.248 452.779 149.16 452.779 149.16C452.779 149.16 447.864 131.36 452.844 134.751L457.825 138.142L460.453 137.587L460.972 127.311Z" fill="#2F2E41"/>
<path d="M828.719 271.129C828.719 262.137 761.808 254.847 679.268 254.847C596.729 254.847 529.817 262.137 529.817 271.129C529.817 274.615 539.874 277.844 556.99 280.492V391.891H565.142V281.641C592.556 285.17 633.506 287.412 679.268 287.412C725.408 287.412 766.659 285.133 794.074 281.553V391.891H802.225V280.385C818.926 277.757 828.719 274.568 828.719 271.129Z" fill="#3F3D56"/>
<path d="M697.991 271.469C714.797 271.469 728.422 268.124 728.422 263.996C728.422 259.869 714.797 256.523 697.991 256.523C681.185 256.523 667.561 259.869 667.561 263.996C667.561 268.124 681.185 271.469 697.991 271.469Z" fill="#F2F2F2"/>
<path d="M697.991 270.122C711.767 270.122 722.934 267.379 722.934 263.996C722.934 260.613 711.767 257.871 697.991 257.871C684.216 257.871 673.048 260.613 673.048 263.996C673.048 267.379 684.216 270.122 697.991 270.122Z" fill="#D0CDE1"/>
<path d="M584.751 277.448C601.557 277.448 615.181 274.102 615.181 269.975C615.181 265.847 601.557 262.501 584.751 262.501C567.944 262.501 554.32 265.847 554.32 269.975C554.32 274.102 567.944 277.448 584.751 277.448Z" fill="#F2F2F2"/>
<path d="M584.751 276.1C598.527 276.1 609.694 273.358 609.694 269.975C609.694 266.592 598.527 263.849 584.751 263.849C570.975 263.849 559.808 266.592 559.808 269.975C559.808 273.358 570.975 276.1 584.751 276.1Z" fill="#D0CDE1"/>
<path d="M697.283 263.468C705.295 263.468 711.79 262.444 711.79 261.181C711.79 259.917 705.295 258.893 697.283 258.893C689.271 258.893 682.776 259.917 682.776 261.181C682.776 262.444 689.271 263.468 697.283 263.468Z" fill="#9F616A"/>
<path d="M689.552 260.323C692.082 260.323 694.133 259.214 694.133 257.845C694.133 256.476 692.082 255.367 689.552 255.367C687.022 255.367 684.971 256.476 684.971 257.845C684.971 259.214 687.022 260.323 689.552 260.323Z" fill="#25929B"/>
<path d="M687.835 260.323C690.365 260.323 692.416 259.214 692.416 257.845C692.416 256.476 690.365 255.367 687.835 255.367C685.304 255.367 683.253 256.476 683.253 257.845C683.253 259.214 685.304 260.323 687.835 260.323Z" fill="#25929B"/>
<path d="M707.877 260.895C710.407 260.895 712.458 259.785 712.458 258.417C712.458 257.048 710.407 255.938 707.877 255.938C705.347 255.938 703.296 257.048 703.296 258.417C703.296 259.785 705.347 260.895 707.877 260.895Z" fill="#25929B"/>
<path d="M697.379 260.323C699.909 260.323 701.96 259.214 701.96 257.845C701.96 256.476 699.909 255.367 697.379 255.367C694.848 255.367 692.797 256.476 692.797 257.845C692.797 259.214 694.848 260.323 697.379 260.323Z" fill="#25929B"/>
<path d="M705.205 260.323C707.735 260.323 709.786 259.214 709.786 257.845C709.786 256.476 707.735 255.367 705.205 255.367C702.675 255.367 700.624 256.476 700.624 257.845C700.624 259.214 702.675 260.323 705.205 260.323Z" fill="#25929B"/>
<path d="M711.122 256.32C702.843 259.126 693.553 259.126 683.253 256.32V255.934C683.252 253.017 684.373 250.21 686.385 248.096C688.397 245.981 691.146 244.72 694.063 244.572C696.519 244.449 698.979 244.452 701.434 244.582C704.058 244.735 706.525 245.885 708.326 247.797C710.128 249.709 711.129 252.238 711.122 254.863V256.32Z" fill="#3F3D56"/>
<path d="M707.057 266.825C700.938 267.442 694.773 267.442 688.654 266.825C687.203 266.683 685.856 266.007 684.876 264.929C683.895 263.85 683.351 262.447 683.349 260.99H712.363C712.36 262.447 711.816 263.85 710.836 264.929C709.855 266.007 708.508 266.683 707.057 266.825Z" fill="#3F3D56"/>
<path d="M693.37 248.123C692.705 248.4 691.991 248.542 691.271 248.542C690.55 248.542 689.836 248.4 689.171 248.123C689.836 247.846 690.55 247.703 691.271 247.703C691.991 247.703 692.705 247.846 693.37 248.123Z" fill="#D0CDE1"/>
<path d="M697.57 249.838C696.904 250.115 696.191 250.258 695.47 250.258C694.749 250.258 694.035 250.115 693.37 249.838C694.035 249.561 694.749 249.419 695.47 249.419C696.191 249.419 696.904 249.561 697.57 249.838Z" fill="#D0CDE1"/>
<path d="M697.951 246.788C697.286 247.065 696.572 247.208 695.852 247.208C695.131 247.208 694.417 247.065 693.752 246.788C694.417 246.511 695.131 246.369 695.852 246.369C696.572 246.369 697.286 246.511 697.951 246.788Z" fill="#D0CDE1"/>
<path d="M705.778 246.788C705.112 247.065 704.399 247.208 703.678 247.208C702.957 247.208 702.243 247.065 701.578 246.788C702.243 246.511 702.957 246.369 703.678 246.369C704.399 246.369 705.112 246.511 705.778 246.788Z" fill="#D0CDE1"/>
<path d="M703.677 248.504C703.012 248.781 702.298 248.923 701.578 248.923C700.857 248.923 700.143 248.781 699.478 248.504C700.143 248.227 700.857 248.084 701.578 248.084C702.298 248.084 703.012 248.227 703.677 248.504Z" fill="#D0CDE1"/>
<path d="M584.542 269.447C592.554 269.447 599.049 268.423 599.049 267.159C599.049 265.896 592.554 264.872 584.542 264.872C576.53 264.872 570.035 265.896 570.035 267.159C570.035 268.423 576.53 269.447 584.542 269.447Z" fill="#9F616A"/>
<path d="M576.811 266.302C579.341 266.302 581.392 265.192 581.392 263.823C581.392 262.455 579.341 261.345 576.811 261.345C574.281 261.345 572.229 262.455 572.229 263.823C572.229 265.192 574.281 266.302 576.811 266.302Z" fill="#25929B"/>
<path d="M575.093 266.302C577.623 266.302 579.674 265.192 579.674 263.823C579.674 262.455 577.623 261.345 575.093 261.345C572.563 261.345 570.512 262.455 570.512 263.823C570.512 265.192 572.563 266.302 575.093 266.302Z" fill="#25929B"/>
<path d="M595.135 266.873C597.665 266.873 599.716 265.764 599.716 264.395C599.716 263.027 597.665 261.917 595.135 261.917C592.605 261.917 590.554 263.027 590.554 264.395C590.554 265.764 592.605 266.873 595.135 266.873Z" fill="#25929B"/>
<path d="M584.637 266.302C587.167 266.302 589.218 265.192 589.218 263.823C589.218 262.455 587.167 261.345 584.637 261.345C582.107 261.345 580.056 262.455 580.056 263.823C580.056 265.192 582.107 266.302 584.637 266.302Z" fill="#25929B"/>
<path d="M592.463 266.302C594.993 266.302 597.044 265.192 597.044 263.823C597.044 262.455 594.993 261.345 592.463 261.345C589.933 261.345 587.882 262.455 587.882 263.823C587.882 265.192 589.933 266.302 592.463 266.302Z" fill="#25929B"/>
<path d="M598.38 262.298C590.101 265.104 580.811 265.104 570.512 262.298V261.912C570.51 258.995 571.631 256.189 573.643 254.074C575.655 251.959 578.404 250.698 581.322 250.551C583.777 250.428 586.237 250.431 588.692 250.56C591.317 250.713 593.783 251.864 595.585 253.776C597.387 255.688 598.387 258.216 598.38 260.842V262.298Z" fill="#3F3D56"/>
<path d="M594.315 272.803C588.197 273.421 582.031 273.421 575.912 272.803C574.461 272.661 573.114 271.985 572.134 270.907C571.153 269.829 570.609 268.425 570.607 266.969H599.621C599.619 268.425 599.074 269.829 598.094 270.907C597.113 271.985 595.767 272.661 594.315 272.803Z" fill="#3F3D56"/>
<path d="M580.629 254.101C579.963 254.378 579.25 254.52 578.529 254.52C577.808 254.52 577.095 254.378 576.429 254.101C577.095 253.824 577.808 253.682 578.529 253.682C579.25 253.682 579.963 253.824 580.629 254.101Z" fill="#D0CDE1"/>
<path d="M584.828 255.817C584.162 256.094 583.449 256.236 582.728 256.236C582.007 256.236 581.294 256.094 580.628 255.817C581.294 255.54 582.007 255.397 582.728 255.397C583.449 255.397 584.162 255.54 584.828 255.817Z" fill="#D0CDE1"/>
<path d="M585.21 252.767C584.544 253.044 583.831 253.186 583.11 253.186C582.389 253.186 581.676 253.044 581.01 252.767C581.676 252.49 582.389 252.347 583.11 252.347C583.831 252.347 584.544 252.49 585.21 252.767Z" fill="#D0CDE1"/>
<path d="M593.036 252.767C592.371 253.044 591.657 253.186 590.936 253.186C590.215 253.186 589.502 253.044 588.836 252.767C589.502 252.49 590.215 252.347 590.936 252.347C591.657 252.347 592.371 252.49 593.036 252.767Z" fill="#D0CDE1"/>
<path d="M590.936 254.482C590.27 254.759 589.557 254.902 588.836 254.902C588.115 254.902 587.402 254.759 586.736 254.482C587.402 254.206 588.115 254.063 588.836 254.063C589.557 254.063 590.27 254.206 590.936 254.482Z" fill="#D0CDE1"/>
<path d="M724.17 261.971L724.24 263.514L724.33 265.516C724.33 265.516 715.125 266.035 713.27 267.992C713.228 268.034 713.188 268.08 713.152 268.128L709.465 267.322L709.456 265.508C709.456 265.508 709.507 265.48 709.606 265.427C709.628 265.415 709.657 265.4 709.685 265.385C714.197 263.179 719.147 262.012 724.17 261.971Z" fill="#25929B"/>
<path opacity="0.1" d="M724.17 261.971L724.24 263.514C720.158 263.64 712.433 266.07 712.433 266.07L709.605 265.427C714.137 263.191 719.116 262.01 724.17 261.971Z" fill="black"/>
<path opacity="0.1" d="M709.685 265.385L712.434 266.07L713.27 267.992C713.228 268.034 713.188 268.08 713.152 268.128L709.465 267.322L709.456 265.508C709.456 265.508 709.507 265.48 709.606 265.427C709.628 265.415 709.657 265.4 709.685 265.385Z" fill="white"/>
<path d="M612.925 268.448L612.995 269.991L613.084 271.993C613.084 271.993 603.88 272.512 602.025 274.469C601.982 274.511 601.943 274.557 601.907 274.605L598.22 273.799L598.211 271.985C598.211 271.985 598.262 271.957 598.361 271.903C598.383 271.892 598.412 271.877 598.44 271.862C602.951 269.655 607.902 268.489 612.925 268.448Z" fill="#25929B"/>
<path opacity="0.1" d="M612.925 268.448L612.995 269.991C608.913 270.117 601.188 272.547 601.188 272.547L598.36 271.903C602.892 269.668 607.871 268.487 612.925 268.448Z" fill="black"/>
<path opacity="0.1" d="M598.44 271.862L601.188 272.547L602.025 274.469C601.982 274.511 601.943 274.557 601.907 274.605L598.22 273.799L598.211 271.985C598.211 271.985 598.262 271.957 598.361 271.903C598.383 271.892 598.412 271.877 598.44 271.862Z" fill="white"/>
<path d="M779.607 215.748C778.822 214.964 777.901 214.329 776.89 213.872V194.514C776.89 194.287 776.799 194.069 776.639 193.909C776.478 193.748 776.26 193.658 776.033 193.658H771.234C771.007 193.658 770.789 193.748 770.628 193.909C770.467 194.069 770.377 194.287 770.377 194.514V213.501C768.642 214.076 767.133 215.181 766.063 216.661C764.993 218.141 764.417 219.919 764.417 221.744V263.271C764.417 263.771 764.515 264.265 764.707 264.727C764.898 265.189 765.179 265.608 765.533 265.962C765.886 266.315 766.306 266.595 766.769 266.787C767.231 266.978 767.727 267.076 768.227 267.076H778.506C779.511 267.076 780.476 266.677 781.187 265.967C781.899 265.256 782.298 264.293 782.298 263.288V222.234C782.3 221.029 782.063 219.836 781.601 218.722C781.139 217.609 780.462 216.598 779.607 215.748Z" fill="#3F3D56"/>
<path d="M782.298 227.832H764.417V251.423H782.298V227.832Z" fill="#25929B"/>
<path d="M777.276 194.981H776.89V194.514C776.89 194.287 776.799 194.069 776.639 193.909C776.478 193.748 776.26 193.658 776.033 193.658H771.234C771.007 193.658 770.789 193.748 770.628 193.909C770.467 194.069 770.377 194.287 770.377 194.514V194.981H769.991V196.965H770.377V207.107H776.89V196.965H777.276V194.981Z" fill="#25929B"/>
<path d="M636.429 232.55C635.956 231.542 635.583 230.828 635.452 230.583C627.425 232.561 622.07 230.889 621.225 230.593C620.812 231.372 618.234 236.351 617.192 241.125C616.25 245.43 616.797 248.317 618.816 249.704L618.876 249.746L618.889 249.755C621.118 251.222 623.244 252.521 625.207 253.616C625.472 253.763 625.721 253.899 625.956 254.026L625.981 254.039L625.999 254.062C626.268 254.401 626.519 254.754 626.75 255.121C627.184 255.727 627.447 256.438 627.513 257.18V278.565L627.377 278.568C622.258 278.672 619.088 279.539 619.088 280.282C619.088 281.097 622.889 282.006 628.341 282.006C633.794 282.006 637.594 281.097 637.594 280.282C637.594 279.55 634.479 278.688 629.446 278.572L629.31 278.568L629.437 258.787C629.44 257.448 629.751 256.127 630.348 254.928C630.449 254.726 630.559 254.53 630.672 254.345C630.764 254.196 630.86 254.051 630.96 253.914L630.978 253.889L631.005 253.874C631.258 253.737 631.525 253.588 631.809 253.427L631.842 253.409C633.7 252.361 635.703 251.132 637.794 249.755C639.662 248.525 640.312 246.04 639.727 242.369C639.17 238.869 637.626 235.098 636.429 232.55Z" fill="#D0CDE1"/>
<path d="M636.909 249.307C634.716 250.75 632.906 251.833 631.521 252.613H631.52C629.5 252.475 627.472 252.532 625.463 252.782C624.044 251.991 622.129 250.857 619.774 249.307C619.751 249.292 619.729 249.277 619.707 249.261V249.259C617.546 247.775 617.493 244.631 618.196 241.417C619.984 241.219 622.835 241.306 626.665 242.672C631.201 244.29 635.949 243.375 638.701 242.543C639.153 245.379 638.877 248.011 636.909 249.307Z" fill="#25929B"/>
<path d="M623.871 240.254C624.214 240.254 624.492 239.977 624.492 239.634C624.492 239.292 624.214 239.014 623.871 239.014C623.528 239.014 623.25 239.292 623.25 239.634C623.25 239.977 623.528 240.254 623.871 240.254Z" fill="#25929B"/>
<path d="M622.133 245.958C622.476 245.958 622.754 245.681 622.754 245.338C622.754 244.996 622.476 244.718 622.133 244.718C621.79 244.718 621.512 244.996 621.512 245.338C621.512 245.681 621.79 245.958 622.133 245.958Z" fill="white"/>
<path d="M625.361 241.494C625.567 241.494 625.734 241.327 625.734 241.122C625.734 240.917 625.567 240.75 625.361 240.75C625.156 240.75 624.989 240.917 624.989 241.122C624.989 241.327 625.156 241.494 625.361 241.494Z" fill="#25929B"/>
<path d="M626.852 248.562C627.057 248.562 627.224 248.396 627.224 248.19C627.224 247.985 627.057 247.818 626.852 247.818C626.646 247.818 626.479 247.985 626.479 248.19C626.479 248.396 626.646 248.562 626.852 248.562Z" fill="white"/>
<path d="M624.244 248.934C624.449 248.934 624.616 248.768 624.616 248.562C624.616 248.357 624.449 248.19 624.244 248.19C624.038 248.19 623.871 248.357 623.871 248.562C623.871 248.768 624.038 248.934 624.244 248.934Z" fill="white"/>
<path d="M631.818 236.534C632.024 236.534 632.191 236.367 632.191 236.162C632.191 235.956 632.024 235.79 631.818 235.79C631.613 235.79 631.446 235.956 631.446 236.162C631.446 236.367 631.613 236.534 631.818 236.534Z" fill="#25929B"/>
<path d="M665.552 212.39C665.079 211.381 664.705 210.668 664.574 210.422C656.548 212.401 651.192 210.729 650.348 210.433C649.935 211.212 647.357 216.191 646.314 220.964C645.373 225.27 645.919 228.157 647.938 229.544L647.998 229.586L648.011 229.595C650.24 231.062 652.366 232.361 654.33 233.455C654.595 233.602 654.844 233.739 655.078 233.865L655.103 233.879L655.121 233.901C655.391 234.241 655.642 234.594 655.873 234.961C656.307 235.567 656.57 236.278 656.635 237.02V258.405L656.5 258.408C651.38 258.512 648.211 259.379 648.211 260.122C648.211 260.937 652.011 261.846 657.464 261.846C662.917 261.846 666.717 260.937 666.717 260.122C666.717 259.39 663.601 258.528 658.568 258.412L658.433 258.408L658.559 238.627C658.562 237.288 658.874 235.967 659.47 234.767C659.572 234.566 659.681 234.37 659.795 234.185C659.886 234.036 659.983 233.891 660.082 233.754L660.101 233.729L660.128 233.714C660.38 233.577 660.648 233.428 660.931 233.267L660.964 233.249C662.823 232.201 664.825 230.971 666.917 229.595C668.784 228.365 669.435 225.88 668.85 222.209C668.292 218.709 666.749 214.937 665.552 212.39Z" fill="#D0CDE1"/>
<path d="M666.032 229.146C663.839 230.59 662.028 231.672 660.644 232.452H660.643C658.623 232.315 656.595 232.372 654.586 232.622C653.166 231.831 651.252 230.696 648.896 229.146C648.874 229.131 648.852 229.117 648.829 229.1V229.099C646.669 227.615 646.615 224.471 647.318 221.257C649.106 221.059 651.957 221.145 655.788 222.512C660.324 224.13 665.072 223.215 667.823 222.383C668.275 225.219 668 227.85 666.032 229.146Z" fill="#25929B"/>
<path d="M652.994 220.094C653.337 220.094 653.615 219.816 653.615 219.474C653.615 219.131 653.337 218.854 652.994 218.854C652.651 218.854 652.373 219.131 652.373 219.474C652.373 219.816 652.651 220.094 652.994 220.094Z" fill="#25929B"/>
<path d="M651.256 225.798C651.598 225.798 651.876 225.521 651.876 225.178C651.876 224.836 651.598 224.558 651.256 224.558C650.913 224.558 650.635 224.836 650.635 225.178C650.635 225.521 650.913 225.798 651.256 225.798Z" fill="white"/>
<path d="M654.484 221.334C654.69 221.334 654.856 221.167 654.856 220.962C654.856 220.756 654.69 220.59 654.484 220.59C654.278 220.59 654.111 220.756 654.111 220.962C654.111 221.167 654.278 221.334 654.484 221.334Z" fill="#25929B"/>
<path d="M655.974 228.402C656.18 228.402 656.347 228.236 656.347 228.03C656.347 227.825 656.18 227.658 655.974 227.658C655.768 227.658 655.602 227.825 655.602 228.03C655.602 228.236 655.768 228.402 655.974 228.402Z" fill="white"/>
<path d="M653.366 228.774C653.572 228.774 653.739 228.608 653.739 228.402C653.739 228.197 653.572 228.03 653.366 228.03C653.16 228.03 652.994 228.197 652.994 228.402C652.994 228.608 653.16 228.774 653.366 228.774Z" fill="white"/>
<path d="M660.94 216.374C661.146 216.374 661.313 216.207 661.313 216.002C661.313 215.796 661.146 215.63 660.94 215.63C660.735 215.63 660.568 215.796 660.568 216.002C660.568 216.207 660.735 216.374 660.94 216.374Z" fill="#25929B"/>
</g>
<defs>
<clipPath id="clip0_40_2144">
<rect width="498" height="385" fill="white" transform="translate(371 23)"/>
</clipPath>
</defs>
</svg>
