<svg width="1239" height="430" viewBox="0 0 1239 430" fill="none" xmlns="http://www.w3.org/2000/svg">
<rect width="1239" height="430" fill="white"/>
<g clip-path="url(#clip0_47_2867)">
<path d="M626.537 394.492C626.537 394.587 626.556 394.682 626.592 394.77C626.629 394.858 626.682 394.939 626.75 395.006C626.817 395.074 626.898 395.127 626.986 395.163C627.074 395.2 627.169 395.219 627.265 395.218H798.635C798.828 395.218 799.013 395.142 799.15 395.006C799.286 394.869 799.363 394.685 799.363 394.492C799.363 394.299 799.286 394.115 799.15 393.978C799.013 393.842 798.828 393.766 798.635 393.766H627.264C627.168 393.765 627.073 393.784 626.985 393.82C626.897 393.857 626.816 393.91 626.749 393.978C626.681 394.045 626.628 394.126 626.591 394.214C626.555 394.302 626.536 394.397 626.536 394.492H626.537Z" fill="#E6E6E6"/>
<path d="M713.002 142.721L733.304 146.1L740.071 114.005L723.717 107.248L713.002 142.721Z" fill="#090814"/>
<path d="M733.304 128.642C733.304 128.642 734.996 150.039 722.025 151.728C709.055 153.417 733.304 191.706 739.507 191.143C745.711 190.58 756.989 149.475 756.989 149.475C756.989 149.475 742.327 139.339 747.401 130.328L733.304 128.642Z" fill="#ED9DA0"/>
<path d="M740.918 136.246C750.573 136.246 758.4 128.431 758.4 118.79C758.4 109.15 750.573 101.335 740.918 101.335C731.263 101.335 723.436 109.15 723.436 118.79C723.436 128.431 731.263 136.246 740.918 136.246Z" fill="#ED9DA0"/>
<path d="M711.592 206.633C711.592 206.633 713.848 222.962 720.615 222.962C727.382 222.962 716.104 204.381 716.104 204.381L711.592 206.633Z" fill="#ED9DA0"/>
<path d="M810.282 222.96C810.282 222.96 827.201 237.037 824.945 241.544C822.689 246.052 808.027 236.478 806.899 225.215L810.282 222.96Z" fill="#ED9DA0"/>
<path d="M708.208 277.016L697.493 316.995L685.65 365.42H696.929C696.929 365.42 700.876 350.216 708.208 342.333C708.208 342.333 715.539 329.945 715.539 321.498L733.021 280.399L708.208 277.016Z" fill="#ED9DA0"/>
<path d="M754.451 279.27L757.835 316.996C757.835 316.996 757.272 344.023 757.835 350.217C758.399 356.411 757.835 365.421 757.835 365.421H767.983C767.983 365.421 777.572 332.199 774.751 314.18L778.698 271.949L754.451 279.27Z" fill="#ED9DA0"/>
<path d="M740.918 175.661C740.918 175.661 725.723 163.639 729.655 146.845C729.655 146.845 714.412 147.507 708.209 153.701C702.005 159.895 709.901 180.729 709.901 180.729C709.901 180.729 723.435 203.252 721.18 213.385C718.924 223.517 694.674 277.013 702.57 280.391C710.465 283.769 758.4 295.594 782.65 275.887C782.65 275.887 788.85 220.142 764.04 202.124V188.049C764.04 188.049 768.551 184.108 766.296 173.972C766.296 173.972 775.884 156.517 770.243 153.138C764.603 149.759 751.649 144.808 751.649 144.808C751.649 144.808 752.76 170.031 740.918 175.661Z" fill="#D6D6E3"/>
<path d="M711.592 153.701C711.592 153.701 704.261 152.575 696.929 163.274C689.598 173.974 670.424 190.865 679.447 199.311C688.471 207.758 712.72 213.388 712.72 213.388L718.364 203.251L694.115 191.426L714.414 176.224L711.592 153.701Z" fill="#D6D6E3"/>
<path d="M767.422 153.701C767.422 153.701 775.317 153.701 778.7 163.274C782.083 172.848 801.822 205.505 801.822 205.505L813.1 222.96L805.206 231.971L783.214 207.196L762.348 172.848L767.422 153.701Z" fill="#D6D6E3"/>
<path d="M699.185 364.293H683.397L680.012 391.885C680.012 391.885 670.991 406.527 684.522 404.837C698.053 403.146 693.545 387.944 693.545 387.944L696.93 382.313L698.058 394.137L699.185 393.574V380.624C699.185 380.624 705.388 374.991 699.185 364.293Z" fill="#090814"/>
<path d="M770.807 364.293L756.144 363.167L753.324 394.699C753.324 394.699 751.631 406.523 761.783 404.835C771.934 403.147 768.55 393.574 768.55 393.574V376.118L770.807 364.293Z" fill="#090814"/>
<path d="M728.229 101.053C728.229 101.053 720.013 103.786 719.596 114.584C719.553 116.311 719.745 118.036 720.166 119.711C720.629 121.669 720.926 125.881 717.34 131.385C714.94 135.02 712.747 138.787 710.773 142.669L710.747 142.72L719.77 143.846L721.688 128.911C722.618 121.671 724.61 114.606 727.601 107.945L727.665 107.806C727.665 107.806 731.612 115.131 739.507 115.131L736.687 112.316C736.687 112.316 749.094 117.382 753.606 117.382C753.606 117.382 756.99 119.635 753.606 123.013C750.222 126.391 743.455 134.274 747.406 140.468C751.357 146.662 747.97 148.352 747.97 148.352L754.17 144.973L756.99 143.283V145.536L771.653 143.846C771.653 143.846 775.6 143.283 767.141 133.71C767.141 133.71 764.907 129.993 765.887 126.786C766.69 124.35 766.901 121.758 766.503 119.224C764.606 108.67 757.171 87.6829 728.229 101.053Z" fill="#090814"/>
<path d="M834.491 250.579L816.117 238.528C818.769 230.149 823.911 223.805 829.36 218.402L847.735 230.453C841.683 235.932 837.125 242.858 834.491 250.579Z" fill="#25929B"/>
<path d="M829.035 225.921L829.613 225.019L838.996 231.488L838.417 232.39L829.035 225.921Z" fill="white"/>
<path d="M825.751 231.168L826.329 230.266L835.711 236.735L835.133 237.636L825.751 231.168Z" fill="white"/>
<path d="M822.345 236.338L822.923 235.436L832.305 241.905L831.727 242.807L822.345 236.338Z" fill="white"/>
<path d="M640.767 211.354H391.999V25H640.767V211.354Z" fill="white"/>
<path d="M452.281 63.8935C457.75 63.8935 462.184 59.4669 462.184 54.0063C462.184 48.5458 457.75 44.1191 452.281 44.1191C446.812 44.1191 442.379 48.5458 442.379 54.0063C442.379 59.4669 446.812 63.8935 452.281 63.8935Z" fill="#25929B"/>
<path d="M475.15 47.415C474.713 47.415 474.293 47.5887 473.983 47.8977C473.674 48.2068 473.5 48.6259 473.5 49.063C473.5 49.5001 473.674 49.9192 473.983 50.2283C474.293 50.5373 474.713 50.711 475.15 50.711H595.647C596.084 50.711 596.504 50.5373 596.814 50.2283C597.123 49.9192 597.297 49.5001 597.297 49.063C597.297 48.6259 597.123 48.2068 596.814 47.8977C596.504 47.5887 596.084 47.415 595.647 47.415H475.15Z" fill="#D6D6E3"/>
<path d="M475.15 57.3022C474.933 57.3018 474.719 57.344 474.518 57.4264C474.318 57.5088 474.136 57.6298 473.982 57.7825C473.672 58.0909 473.497 58.5097 473.496 58.9468C473.495 59.3839 473.668 59.8034 473.977 60.1131C474.286 60.4228 474.705 60.5973 475.143 60.5982H551.322C551.76 60.5982 552.18 60.4245 552.489 60.1155C552.799 59.8064 552.973 59.3873 552.973 58.9502C552.973 58.5131 552.799 58.094 552.489 57.7849C552.18 57.4759 551.76 57.3022 551.322 57.3022H475.15Z" fill="#D6D6E3"/>
<path d="M640.767 211.354H391.999V25H640.767V211.354ZM394.784 208.574H637.983V27.7825H394.784V208.574Z" fill="#D6D6E3"/>
<path d="M405.903 81.8303V192.671H626.862V81.8303H405.903ZM625.798 109.275H571.888V82.8908H625.8L625.798 109.275ZM516.911 109.275V82.8908H570.824V109.275H516.911ZM570.824 110.336V136.72H516.914V110.337L570.824 110.336ZM515.849 109.275H461.94V82.8908H515.852L515.849 109.275ZM515.849 110.336V136.72H461.94V110.337L515.849 110.336ZM460.875 136.72H406.965V110.337H460.875V136.72ZM460.875 137.781V164.165H406.965V137.781H460.875ZM461.937 137.781H515.849V164.165H461.94L461.937 137.781ZM515.849 165.226V191.61H461.94V165.226H515.849ZM516.911 165.226H570.823V191.61H516.914L516.911 165.226ZM516.911 164.165V137.781H570.823V164.165H516.911ZM571.885 137.781H625.797V164.165H571.888L571.885 137.781ZM571.885 136.72V110.337H625.797V136.721L571.885 136.72ZM460.875 82.8908V109.275H406.965V82.8908H460.875ZM406.965 165.226H460.875V191.61H406.965V165.226ZM571.888 191.61V165.226H625.8V191.61H571.888Z" fill="#D6D6E3"/>
<path d="M496.609 111.65L474.626 111.153C472.427 102.647 473.417 94.5477 475.172 87.085L497.157 87.5819C494.933 95.4283 494.746 103.711 496.611 111.65L496.609 111.65Z" fill="#25929B"/>
<path d="M478.937 92.4042L478.948 91.5691L490.338 91.9755L490.326 92.8106L478.937 92.4042Z" fill="white"/>
<path d="M478.889 95.745L478.9 94.9099L490.29 95.3169L490.278 96.152L478.889 95.745Z" fill="white"/>
<path d="M478.841 99.0858L478.853 98.2507L490.243 98.6577L490.231 99.4928L478.841 99.0858Z" fill="white"/>
<path d="M478.79 102.427L478.801 101.592L490.192 101.999L490.183 102.833L478.79 102.427Z" fill="white"/>
<path d="M478.745 105.768L478.757 104.933L490.147 105.34L490.135 106.175L478.745 105.768Z" fill="white"/>
<path d="M448.805 173.169L426.822 172.671C424.623 164.166 425.613 156.067 427.368 148.604L449.353 149.101C447.13 156.947 446.942 165.229 448.808 173.168L448.805 173.169Z" fill="#F0F0F0"/>
<path d="M431.133 153.923L431.144 153.088L442.535 153.494L442.523 154.329L431.133 153.923Z" fill="#090814"/>
<path d="M431.085 157.264L431.097 156.428L442.487 156.835L442.475 157.671L431.085 157.264Z" fill="#090814"/>
<path d="M431.039 160.605L431.051 159.77L442.441 160.177L442.429 161.012L431.039 160.605Z" fill="#090814"/>
<path d="M430.986 163.946L430.998 163.111L442.388 163.518L442.379 164.351L430.986 163.946Z" fill="#090814"/>
<path d="M430.94 167.287L430.952 166.452L442.342 166.859L442.33 167.694L430.94 167.287Z" fill="#090814"/>
<path d="M565.872 148.604L543.889 148.107C541.69 139.601 542.679 131.502 544.434 124.039L566.42 124.536C564.196 132.383 564.008 140.665 565.874 148.604H565.872Z" fill="#F0F0F0"/>
<path d="M548.198 129.358L548.21 128.523L559.6 128.93L559.588 129.765L548.198 129.358Z" fill="#090814"/>
<path d="M548.15 132.699L548.162 131.864L559.552 132.271L559.54 133.106L548.15 132.699Z" fill="#090814"/>
<path d="M548.103 136.041L548.115 135.206L559.504 135.613L559.492 136.448L548.103 136.041Z" fill="#090814"/>
<path d="M548.052 139.381L548.063 138.546L559.454 138.953L559.444 139.787L548.052 139.381Z" fill="#090814"/>
<path d="M548.007 142.723L548.019 141.888L559.409 142.295L559.397 143.13L548.007 142.723Z" fill="#090814"/>
<path d="M553.973 139.758L531.99 139.26C529.791 130.755 530.781 122.655 532.536 115.193L554.521 115.69C552.298 123.536 552.11 131.818 553.976 139.757L553.973 139.758Z" fill="#25929B"/>
<path d="M536.301 120.512L536.313 119.677L547.703 120.083L547.691 120.918L536.301 120.512Z" fill="white"/>
<path d="M536.253 123.852L536.265 123.017L547.655 123.424L547.643 124.259L536.253 123.852Z" fill="white"/>
<path d="M536.204 127.194L536.216 126.359L547.606 126.766L547.594 127.601L536.204 127.194Z" fill="white"/>
<path d="M536.154 130.535L536.166 129.7L547.557 130.107L547.547 130.94L536.154 130.535Z" fill="white"/>
<path d="M536.108 133.876L536.12 133.041L547.511 133.448L547.499 134.283L536.108 133.876Z" fill="white"/>
<path d="M611.339 115.893L589.356 115.395C587.157 106.89 588.146 98.7904 589.901 91.3276L611.887 91.8246C609.663 99.671 609.475 107.953 611.341 115.892L611.339 115.893Z" fill="#F0F0F0"/>
<path d="M593.666 96.6466L593.677 95.8115L605.068 96.218L605.056 97.053L593.666 96.6466Z" fill="#090814"/>
<path d="M593.618 99.9874L593.63 99.1523L605.02 99.5594L605.008 100.394L593.618 99.9874Z" fill="#090814"/>
<path d="M593.569 103.329L593.581 102.494L604.971 102.901L604.959 103.736L593.569 103.329Z" fill="#090814"/>
<path d="M593.519 106.67L593.53 105.835L604.92 106.242L604.911 107.075L593.519 106.67Z" fill="#090814"/>
<path d="M593.474 110.011L593.486 109.176L604.876 109.583L604.864 110.418L593.474 110.011Z" fill="#090814"/>
</g>
<defs>
<clipPath id="clip0_47_2867">
<rect width="456" height="380" fill="white" transform="translate(392 25)"/>
</clipPath>
</defs>
</svg>
