<svg width="1239" height="430" viewBox="0 0 1239 430" fill="none" xmlns="http://www.w3.org/2000/svg">
<rect width="1239" height="430" fill="white"/>
<g clip-path="url(#clip0_40_2141)">
<path d="M801.492 66.5878L803.417 51.1784C803.755 48.466 804.625 45.8466 805.976 43.4698C807.328 41.093 809.135 39.0055 811.295 37.3264C813.454 35.6474 815.924 34.4097 818.562 33.6841C821.201 32.9585 823.957 32.7592 826.673 33.0976C829.389 33.436 832.011 34.3054 834.39 35.6562C836.77 37.0071 838.859 38.8128 840.54 40.9703C842.22 43.1278 843.458 45.5948 844.184 48.2304C844.909 50.866 845.107 53.6185 844.768 56.3306L842.843 71.74C842.75 72.4752 842.369 73.1437 841.783 73.5989C841.198 74.054 840.455 74.2585 839.719 74.1676L803.923 69.7075C803.187 69.6149 802.518 69.2345 802.062 68.6496C801.606 68.0648 801.401 67.3233 801.492 66.5878Z" fill="#2F2E41"/>
<path d="M818.639 71.1851C827.076 71.1851 833.915 64.3547 833.915 55.929C833.915 47.5033 827.076 40.6729 818.639 40.6729C810.202 40.6729 803.363 47.5033 803.363 55.929C803.363 64.3547 810.202 71.1851 818.639 71.1851Z" fill="#FFB8B8"/>
<path d="M798.372 51.802C798.918 47.4721 801.161 43.5352 804.61 40.8551C808.058 38.175 812.431 36.9705 816.767 37.5059L819.853 37.8904C824.189 38.4356 828.131 40.676 830.814 44.1202C833.498 47.5643 834.704 51.931 834.168 56.2621L834.129 56.5703L827.608 55.7577L826.161 49.2602L824.939 55.4251L821.568 55.0052L820.838 51.7269L820.222 54.8374L798.333 52.1102L798.372 51.802Z" fill="#2F2E41"/>
<path d="M743.925 110.35C744.392 111.266 745.054 112.068 745.865 112.7C746.676 113.332 747.616 113.779 748.619 114.01C749.621 114.24 750.662 114.248 751.668 114.033C752.674 113.818 753.62 113.385 754.441 112.765L768.315 120.883L775.311 113.665L755.556 102.477C754.422 101.169 752.847 100.323 751.13 100.097C749.413 99.872 747.673 100.284 746.239 101.254C744.805 102.225 743.778 103.687 743.352 105.363C742.925 107.04 743.129 108.814 743.925 110.35Z" fill="#FFB8B8"/>
<path d="M789.399 124.936C779.165 124.936 761.156 120.361 760.159 120.105L759.844 120.025L762.678 105.692L790.185 111.118L805.129 90.102L822.285 88.3601L821.807 88.9895C821.583 89.2827 799.468 118.358 796.026 123.236C795.157 124.467 792.677 124.936 789.399 124.936Z" fill="#3F3D56"/>
<path d="M792.143 178.728L791.733 178.533C791.646 178.491 782.951 174.267 778.447 166.021C773.965 157.814 794.948 123 796.415 120.585L796.437 109.529L803.985 89.1759L813.611 83.7422L805.346 103.002L792.143 178.728Z" fill="#3F3D56"/>
<path d="M782.499 297.558L773.299 297.557L768.923 262.118L782.501 262.118L782.499 297.558Z" fill="#FFB8B8"/>
<path d="M784.845 306.464L755.181 306.463V306.089C755.181 303.03 756.397 300.097 758.563 297.935C760.728 295.772 763.665 294.558 766.727 294.557H766.728L784.846 294.558L784.845 306.464Z" fill="#2F2E41"/>
<path d="M881.318 289.506L872.575 292.367L857.366 260.05L870.27 255.828L881.318 289.506Z" fill="#FFB8B8"/>
<path d="M886.325 297.24L858.135 306.464L858.018 306.108C857.064 303.202 857.306 300.037 858.689 297.308C860.073 294.58 862.485 292.512 865.395 291.56L865.395 291.559L882.613 285.926L886.325 297.24Z" fill="#2F2E41"/>
<path d="M863.505 283.712L837.278 239.984L815.139 193.266L795.216 234.534L787.301 287.982L759.546 288.367L759.655 287.934L802.13 119.38L835.396 124.344L833.881 146.273L834.783 147.554C842.298 158.216 850.068 169.239 845.611 181.122L858.244 218.584L886.209 280.964L863.505 283.712Z" fill="#2F2E41"/>
<path d="M803.65 155.911C798.83 155.911 793.33 150.414 796.184 141.029L795.999 140.896L802.852 110.658C796.871 102.116 804.756 95.0666 805.495 94.4368L809.259 87.6708L825.865 77.1526L834.267 146.876L834.143 146.994C828.075 152.793 807.694 155.911 803.65 155.911Z" fill="#25929B"/>
<path d="M837.659 171.644C836.999 171.654 836.341 171.584 835.698 171.436C835.052 171.275 834.006 170.453 832.391 165.199C825.967 144.313 818.384 81.4689 823.893 75.3192L824.019 75.1783L833.066 76.684C833.818 76.1298 837.764 73.3787 841.405 73.8571C842.155 73.9513 842.877 74.198 843.528 74.582C844.178 74.9659 844.743 75.479 845.187 76.0895L845.249 76.171L848.131 117.118L858.689 165.305L858.436 165.42C857.822 165.699 844.638 171.644 837.659 171.644Z" fill="#3F3D56"/>
<path d="M831.576 155.639C832.604 155.605 833.612 155.346 834.529 154.881C835.446 154.415 836.25 153.755 836.884 152.945C837.517 152.136 837.966 151.198 838.197 150.197C838.429 149.196 838.438 148.156 838.223 147.151L851.466 138.042L847.886 128.655L829.366 141.781C827.699 142.253 826.264 143.318 825.332 144.776C824.399 146.234 824.035 147.982 824.307 149.691C824.58 151.399 825.47 152.948 826.81 154.044C828.149 155.141 829.845 155.708 831.576 155.639Z" fill="#FFB8B8"/>
<path d="M847.096 145.341L835.3 136.702L851.881 114.121L839.157 91.6951L844.85 75.4375L845.218 76.1377C845.389 76.4638 862.382 108.794 865.346 113.975C868.43 119.364 848.167 144.043 847.303 145.09L847.096 145.341Z" fill="#3F3D56"/>
<path d="M731.278 193.487L514.533 200.825C509.176 201 503.968 199.046 500.052 195.391C496.136 191.736 493.831 186.679 493.643 181.329L490.074 76.1539C489.898 70.8038 491.855 65.6025 495.514 61.6913C499.174 57.7801 504.237 55.4783 509.594 55.2909L726.339 47.9537C731.696 47.7784 736.904 49.7325 740.82 53.3873C744.737 57.0421 747.041 62.099 747.229 67.4488L750.798 172.624C750.974 177.975 749.017 183.176 745.358 187.087C741.698 190.998 736.635 193.3 731.278 193.487Z" fill="white"/>
<path d="M750.799 172.625L750.818 173.181C750.99 178.292 749.123 183.262 745.626 186.998C742.13 190.734 737.29 192.93 732.173 193.102L514.344 200.476C509.227 200.649 504.251 198.785 500.511 195.294C496.77 191.803 494.571 186.971 494.397 181.861L494.378 181.305L750.799 172.625Z" fill="#F2F2F2"/>
<path d="M536.824 88.0395C521.215 92.4554 506.673 80.8385 503.825 69.7013L504.914 69.4685C518.083 66.0903 533.215 75.0609 536.824 88.0395Z" fill="#25929B"/>
<path d="M691.155 163.226C687.639 163.345 684.807 162.396 682.737 160.403C678.059 155.899 678.038 146.914 678.021 139.694C678.015 137.594 678.011 135.61 677.891 133.952L677.89 133.927C677.796 130.683 678.987 127.533 681.205 125.161C683.423 122.789 686.489 121.387 689.736 121.26L718.89 120.273C722.402 120.154 725.231 121.102 727.299 123.092C731.977 127.592 732.001 136.575 732.021 143.793C732.027 145.897 732.032 147.886 732.153 149.546C732.252 152.795 731.062 155.951 728.843 158.329C726.623 160.706 723.554 162.111 720.302 162.239L691.155 163.226ZM679.114 133.877C679.236 135.575 679.241 137.574 679.246 139.692C679.262 146.68 679.283 155.378 683.587 159.522C685.435 161.3 687.897 162.112 691.113 162.003L720.259 161.017C723.183 160.902 725.944 159.64 727.942 157.504C729.94 155.368 731.014 152.531 730.93 149.61C730.807 147.932 730.801 145.923 730.796 143.796C730.776 136.809 730.753 128.113 726.449 123.973C724.603 122.197 722.144 121.387 718.931 121.496L689.779 122.482C686.858 122.598 684.1 123.859 682.103 125.992C680.107 128.125 679.033 130.958 679.114 133.877Z" fill="#3F3D56"/>
<path d="M530.422 89.3828C525.309 89.5249 520.258 88.2314 515.845 85.6492C509.381 81.9351 504.388 75.8053 502.814 69.6527L502.656 69.036L504.357 68.6724C517.722 65.2484 533.277 74.2977 536.997 87.6695L537.161 88.2559L536.574 88.4219C534.57 88.9899 532.504 89.3125 530.422 89.3828ZM504.17 69.9637C505.833 75.6004 510.486 81.1576 516.456 84.5886C522.232 88.0107 529.125 89.0227 535.643 87.4056C531.803 74.9604 517.209 66.63 504.65 69.8608L504.17 69.9637Z" fill="#3F3D56"/>
<path d="M515.794 159.449C513.952 159.579 512.109 159.207 510.463 158.37C508.817 157.534 507.43 156.267 506.451 154.703C505.316 152.839 504.68 150.715 504.606 148.534C504.531 146.354 505.02 144.191 506.025 142.254C506.914 140.596 508.246 139.215 509.873 138.266C511.5 137.316 513.358 136.835 515.242 136.876L554.087 135.561C555.962 135.398 557.846 135.755 559.531 136.593C561.216 137.431 562.637 138.718 563.637 140.311C564.771 142.175 565.406 144.299 565.48 146.479C565.553 148.659 565.064 150.821 564.058 152.758C562.229 156.141 558.956 158.026 554.843 158.125L515.998 159.44C515.929 159.443 515.862 159.446 515.794 159.449ZM515.092 138.104C513.456 138.093 511.848 138.528 510.44 139.362C509.033 140.195 507.879 141.396 507.103 142.835C506.198 144.58 505.757 146.529 505.825 148.493C505.892 150.457 506.465 152.371 507.488 154.05C508.375 155.457 509.635 156.591 511.128 157.327C512.621 158.063 514.289 158.371 515.947 158.217L554.811 156.902C556.477 156.944 558.121 156.524 559.563 155.69C561.005 154.856 562.187 153.64 562.98 152.176C563.886 150.432 564.327 148.484 564.26 146.52C564.194 144.556 563.622 142.642 562.6 140.963C561.711 139.556 560.45 138.422 558.957 137.684C557.464 136.947 555.796 136.635 554.137 136.784L515.27 138.099C515.211 138.101 515.151 138.102 515.092 138.104Z" fill="#3F3D56"/>
<path d="M700.193 135.464L687.947 135.878C687.136 135.905 686.347 135.608 685.755 135.054C685.162 134.501 684.813 133.734 684.786 132.924C684.758 132.114 685.054 131.326 685.608 130.733C686.162 130.141 686.928 129.792 687.74 129.763L699.985 129.349C700.797 129.321 701.587 129.617 702.18 130.171C702.774 130.725 703.123 131.492 703.15 132.302C703.178 133.113 702.882 133.902 702.327 134.495C701.772 135.088 701.005 135.436 700.193 135.464Z" fill="#25929B"/>
<path d="M700.525 145.247L688.279 145.662C687.877 145.676 687.476 145.611 687.098 145.47C686.721 145.329 686.376 145.116 686.081 144.841C685.787 144.567 685.55 144.237 685.383 143.871C685.216 143.505 685.123 143.11 685.11 142.708C685.096 142.306 685.162 141.906 685.303 141.529C685.445 141.153 685.659 140.808 685.934 140.514C686.21 140.221 686.54 139.984 686.907 139.818C687.273 139.652 687.669 139.56 688.072 139.547L700.317 139.133C700.72 139.118 701.121 139.183 701.498 139.324C701.875 139.465 702.221 139.679 702.515 139.953C702.81 140.227 703.047 140.557 703.214 140.923C703.38 141.289 703.473 141.684 703.487 142.086C703.5 142.488 703.435 142.889 703.293 143.265C703.152 143.642 702.937 143.986 702.662 144.28C702.387 144.574 702.057 144.81 701.69 144.976C701.323 145.142 700.927 145.234 700.525 145.247Z" fill="#25929B"/>
<path d="M700.857 155.031L688.611 155.446C687.799 155.473 687.01 155.177 686.416 154.623C685.823 154.07 685.474 153.303 685.446 152.492C685.419 151.681 685.715 150.892 686.269 150.3C686.824 149.707 687.592 149.358 688.404 149.331L700.649 148.916C701.051 148.903 701.452 148.968 701.829 149.109C702.205 149.25 702.55 149.464 702.844 149.739C703.138 150.013 703.375 150.342 703.542 150.708C703.708 151.074 703.801 151.469 703.814 151.87C703.828 152.272 703.762 152.672 703.621 153.048C703.48 153.424 703.266 153.769 702.991 154.062C702.716 154.356 702.387 154.593 702.02 154.759C701.654 154.925 701.259 155.018 700.857 155.031Z" fill="#25929B"/>
<path d="M721.622 134.738L709.377 135.152C708.975 135.167 708.573 135.102 708.196 134.961C707.819 134.82 707.473 134.606 707.179 134.332C706.885 134.058 706.647 133.728 706.481 133.362C706.314 132.996 706.221 132.601 706.207 132.199C706.194 131.797 706.26 131.396 706.401 131.02C706.543 130.643 706.757 130.299 707.032 130.005C707.307 129.711 707.638 129.475 708.004 129.309C708.371 129.143 708.767 129.051 709.169 129.038L721.415 128.623C721.817 128.609 722.218 128.675 722.594 128.816C722.971 128.957 723.316 129.171 723.61 129.445C723.904 129.72 724.141 130.049 724.307 130.415C724.474 130.781 724.566 131.175 724.58 131.577C724.594 131.978 724.528 132.379 724.387 132.755C724.245 133.131 724.031 133.476 723.757 133.769C723.482 134.063 723.152 134.299 722.786 134.466C722.42 134.632 722.024 134.724 721.622 134.738Z" fill="#25929B"/>
<path d="M721.954 144.522L709.709 144.936C708.897 144.964 708.107 144.668 707.514 144.114C706.92 143.56 706.571 142.793 706.544 141.983C706.516 141.172 706.812 140.383 707.367 139.79C707.922 139.197 708.689 138.849 709.501 138.821L721.747 138.407C722.149 138.393 722.551 138.458 722.928 138.599C723.305 138.74 723.65 138.953 723.945 139.227C724.239 139.502 724.477 139.831 724.643 140.197C724.81 140.563 724.903 140.959 724.916 141.361C724.93 141.762 724.864 142.163 724.723 142.54C724.581 142.916 724.367 143.261 724.092 143.554C723.817 143.848 723.486 144.085 723.119 144.251C722.753 144.417 722.357 144.509 721.954 144.522Z" fill="#25929B"/>
<path d="M722.286 154.306L710.041 154.72C709.638 154.734 709.237 154.669 708.86 154.528C708.483 154.387 708.137 154.174 707.843 153.9C707.549 153.625 707.311 153.296 707.145 152.93C706.978 152.564 706.885 152.168 706.871 151.766C706.858 151.365 706.924 150.964 707.065 150.588C707.207 150.211 707.421 149.866 707.696 149.573C707.971 149.279 708.302 149.042 708.668 148.876C709.035 148.71 709.431 148.618 709.833 148.605L722.079 148.191C722.481 148.177 722.882 148.243 723.258 148.384C723.635 148.525 723.98 148.739 724.274 149.013C724.568 149.287 724.805 149.617 724.971 149.982C725.138 150.348 725.23 150.743 725.244 151.145C725.258 151.546 725.192 151.946 725.051 152.322C724.909 152.699 724.695 153.043 724.421 153.337C724.146 153.63 723.816 153.867 723.45 154.033C723.084 154.199 722.688 154.292 722.286 154.306Z" fill="#25929B"/>
<path d="M748.008 90.3442L491.587 99.0247L491.628 100.248L748.049 91.5672L748.008 90.3442Z" fill="#3F3D56"/>
<path d="M731.278 193.487L514.533 200.825C509.176 201 503.968 199.046 500.052 195.391C496.136 191.736 493.831 186.679 493.643 181.329L490.074 76.1539C489.898 70.8038 491.855 65.6025 495.514 61.6913C499.174 57.7801 504.237 55.4783 509.594 55.2909L726.339 47.9537C731.696 47.7784 736.904 49.7325 740.82 53.3873C744.737 57.0421 747.041 62.099 747.229 67.4488L750.798 172.624C750.974 177.975 749.017 183.176 745.358 187.087C741.698 190.998 736.635 193.3 731.278 193.487ZM509.636 56.5138C504.604 56.6899 499.847 58.8522 496.409 62.5263C492.972 66.2005 491.134 71.0865 491.298 76.1124L494.868 181.288C495.044 186.314 497.209 191.064 500.888 194.497C504.567 197.93 509.459 199.766 514.492 199.601L731.237 192.264C736.269 192.088 741.025 189.926 744.463 186.252C747.901 182.578 749.739 177.692 749.574 172.666L746.004 67.4902C745.828 62.4647 743.663 57.7142 739.984 54.281C736.305 50.8477 731.413 49.012 726.381 49.1767L509.636 56.5138Z" fill="#3F3D56"/>
<path d="M420.731 167.465C420.68 166.389 420.394 165.337 419.892 164.384C419.39 163.431 418.684 162.599 417.826 161.948C416.967 161.296 415.976 160.84 414.922 160.613C413.868 160.385 412.777 160.391 411.725 160.63L401.971 146.901L392.171 150.786L406.219 169.981C406.738 171.719 407.878 173.206 409.421 174.16C410.965 175.115 412.806 175.471 414.594 175.161C416.383 174.85 417.996 173.896 419.127 172.477C420.258 171.059 420.829 169.275 420.731 167.465Z" fill="#A0616A"/>
<path d="M401.72 166.447L372.204 128.205L383.263 93.4921C384.073 84.7648 389.542 82.3278 389.774 82.2282L390.129 82.0762L399.753 107.707L392.687 126.526L410.03 155.657L401.72 166.447Z" fill="#3F3D56"/>
<path d="M504.224 48.5605C503.154 48.6945 502.127 49.0611 501.214 49.6347C500.301 50.2082 499.525 50.9746 498.941 51.8799C498.357 52.7852 497.979 53.8074 497.833 54.8745C497.687 55.9417 497.778 57.0277 498.098 58.0562L485.146 68.8306L489.782 78.2881L507.859 62.8159C509.553 62.1645 510.949 60.915 511.783 59.3042C512.616 57.6934 512.829 55.8331 512.381 54.076C511.933 52.3188 510.855 50.7868 509.352 49.7703C507.849 48.7537 506.024 48.3233 504.224 48.5605Z" fill="#A0616A"/>
<path d="M504.678 67.5692L468.784 99.9157L433.275 91.5875C424.5 91.4553 421.644 86.1988 421.527 85.9748L421.348 85.6332L446.191 74.069L465.524 79.6498L493.264 60.1282L504.678 67.5692Z" fill="#3F3D56"/>
<path d="M442.504 297.521H452.148L456.735 260.369L442.501 260.37L442.504 297.521Z" fill="#A0616A"/>
<path d="M470.747 306.463L440.437 306.465L440.436 294.769L460.365 294.768C463.118 294.768 465.759 295.86 467.706 297.804C469.653 299.749 470.747 302.386 470.747 305.136L470.747 306.463Z" fill="#2F2E41"/>
<path d="M403.958 297.521H413.602L418.19 260.369L403.956 260.37L403.958 297.521Z" fill="#A0616A"/>
<path d="M432.202 306.463L401.892 306.465L401.891 294.769L421.819 294.768C423.183 294.768 424.533 295.036 425.792 295.557C427.052 296.078 428.196 296.842 429.161 297.804C430.125 298.767 430.889 299.91 431.411 301.168C431.933 302.426 432.202 303.774 432.202 305.136L432.202 306.463Z" fill="#2F2E41"/>
<path d="M400.528 161.916L401.315 216.911L402.101 289.189L419.407 287.617L428.06 187.842L439.073 287.617H456.94L458.74 187.056L452.446 165.058L400.528 161.916Z" fill="#2F2E41"/>
<path d="M434.4 169.301C415.57 169.302 398.237 160.791 398.003 160.674L397.809 160.577L396.229 122.703C395.77 121.364 386.747 94.955 385.219 86.5609C383.671 78.0564 406.111 70.5927 408.836 69.7198L409.454 62.8784L434.601 60.1721L437.789 68.9261L446.81 72.3046C447.833 72.6879 448.68 73.4326 449.189 74.3975C449.699 75.3625 449.837 76.4807 449.576 77.5402L444.562 97.9046L456.808 165.28L454.172 165.394C447.933 168.082 441.194 169.414 434.4 169.301Z" fill="#3F3D56"/>
<path d="M423.013 55.84C433.013 55.84 441.119 47.7441 441.119 37.7573C441.119 27.7705 433.013 19.6746 423.013 19.6746C413.014 19.6746 404.907 27.7705 404.907 37.7573C404.907 47.7441 413.014 55.84 423.013 55.84Z" fill="#A0616A"/>
<path d="M408.347 55.2619C411.798 58.9328 418.206 56.9622 418.656 51.9473C418.691 51.5579 418.688 51.1661 418.648 50.7772C418.416 48.5558 417.131 46.5391 417.439 44.1936C417.508 43.6098 417.726 43.0535 418.071 42.5774C420.821 38.9001 427.276 44.2221 429.871 40.8932C431.462 38.8519 429.592 35.6381 430.813 33.3567C432.424 30.3456 437.198 31.831 440.191 30.1819C443.522 28.3472 443.323 23.2435 441.13 20.1393C438.457 16.3535 433.768 14.3334 429.139 14.0422C424.509 13.7511 419.911 15.001 415.589 16.6832C410.678 18.5946 405.809 21.2361 402.786 25.5487C399.111 30.7933 398.758 37.8441 400.596 43.9766C401.714 47.7071 405.53 52.2643 408.347 55.2619Z" fill="#2F2E41"/>
<path d="M919.265 307.446H320.735C320.54 307.446 320.353 307.369 320.215 307.231C320.077 307.093 320 306.907 320 306.712C320 306.517 320.077 306.33 320.215 306.193C320.353 306.055 320.54 305.978 320.735 305.978H919.265C919.46 305.978 919.647 306.055 919.785 306.193C919.923 306.33 920 306.517 920 306.712C920 306.907 919.923 307.093 919.785 307.231C919.647 307.369 919.46 307.446 919.265 307.446Z" fill="#CACACA"/>
<path d="M653.769 408.591L662.456 408.59L666.588 375.127L653.768 375.128L653.769 408.591Z" fill="#FFB8B8"/>
<path d="M651.553 405.758L668.66 405.757C671.552 405.757 674.325 406.905 676.37 408.946C678.414 410.988 679.563 413.758 679.563 416.645V416.999L651.554 417L651.553 405.758Z" fill="#2F2E41"/>
<path d="M572.995 408.591L581.681 408.59L585.814 375.127L572.993 375.128L572.995 408.591Z" fill="#FFB8B8"/>
<path d="M570.779 405.758L587.886 405.757C590.777 405.757 593.551 406.905 595.595 408.946C597.64 410.988 598.789 413.758 598.789 416.645V416.999L570.779 417L570.779 405.758Z" fill="#2F2E41"/>
<path d="M657.232 238.775C657.232 238.775 664.523 258.541 663.481 266.863C662.44 275.185 670.773 333.441 669.731 338.642C668.69 343.844 670.773 369.851 669.731 374.012C668.69 378.173 672.655 383.143 670.571 387.304C668.488 391.466 665.565 400.019 665.565 400.019L652.024 398.979L649.94 387.536C649.94 387.536 643.691 386.495 644.732 380.254C645.774 374.012 639.524 332.401 639.524 332.401L621.817 274.145L596.818 327.199C596.818 327.199 595.776 364.649 592.651 368.811C589.526 372.972 595.776 384.415 592.651 388.576C589.526 392.737 586.401 400.019 586.401 400.019H570.777V391.697C570.777 391.697 561.402 386.495 570.777 370.891L577.111 277.181L583.361 234.529L657.232 238.775Z" fill="#2F2E41"/>
<path d="M618.402 107.97C629.146 107.97 637.857 99.2704 637.857 88.5396C637.857 77.8087 629.146 69.1096 618.402 69.1096C607.657 69.1096 598.947 77.8087 598.947 88.5396C598.947 99.2704 607.657 107.97 618.402 107.97Z" fill="#FFB8B8"/>
<path d="M634.957 87.1993C633.584 90.7022 632.212 94.2051 630.839 97.708C629.151 102.014 627.218 106.622 623.262 109.025C618.378 111.992 611.855 110.545 607.13 107.331C602.881 104.44 599.619 100.32 597.782 95.523C595.946 90.7264 595.623 85.4834 596.858 80.4984C598.092 75.5133 600.824 71.0249 604.688 67.636C608.551 64.2471 613.36 62.12 618.469 61.5404L618.664 65.0577L622.986 61.4399C623.306 61.9877 623.745 62.4559 624.272 62.8096C624.799 63.1632 625.399 63.3931 626.028 63.4819C626.656 63.5706 627.297 63.516 627.901 63.3221C628.505 63.1282 629.058 62.8001 629.517 62.3624C628.382 64.7125 629.692 67.5788 631.584 69.3791C633.909 71.5907 640.557 74.2487 640.281 78.2023C640.097 80.8407 636.029 84.4651 634.957 87.1993Z" fill="#2F2E41"/>
<path d="M564.849 267.517C564.178 266.518 563.735 265.384 563.551 264.195C563.367 263.007 563.446 261.792 563.782 260.637C564.119 259.483 564.705 258.415 565.499 257.511C566.293 256.607 567.276 255.888 568.379 255.404L567.99 236.608L579.37 233.586L579.545 260.138C580.236 262.041 580.204 264.132 579.454 266.014C578.705 267.895 577.29 269.437 575.479 270.346C573.667 271.256 571.585 271.47 569.625 270.949C567.666 270.427 565.967 269.206 564.849 267.517Z" fill="#FFB8B8"/>
<path d="M603.95 119.978C603.95 119.978 619.026 112.45 633.264 117.469C647.503 122.488 655.041 128.343 655.041 128.343L645.828 176.859L658.391 242.104C658.391 242.104 593.899 237.085 588.036 242.104C582.173 247.123 582.173 236.249 582.173 236.249L587.199 174.349L577.985 135.035L603.95 119.978Z" fill="#3F3D56"/>
<path d="M667.581 268.63C666.656 267.859 665.912 266.895 665.401 265.806C664.89 264.717 664.625 263.529 664.623 262.326C664.621 261.123 664.884 259.935 665.392 258.844C665.9 257.754 666.641 256.788 667.563 256.015L661.906 238.083L671.979 231.992L679.611 257.427C680.81 259.06 681.366 261.076 681.176 263.092C680.986 265.108 680.061 266.984 678.578 268.365C677.095 269.746 675.157 270.536 673.13 270.584C671.103 270.633 669.128 269.938 667.581 268.63Z" fill="#FFB8B8"/>
<path d="M649.178 128.343H655.041C655.041 128.343 664.254 134.198 664.254 142.563C664.254 150.928 677.655 248.796 677.655 248.796L663.416 251.306L650.853 182.714L641.64 164.312L649.178 128.343Z" fill="#3F3D56"/>
<path d="M593.899 135.035H577.985C577.985 135.035 572.96 140.054 570.447 151.764C567.935 163.475 565.422 209.481 565.422 209.481L567.097 251.305H579.66L581.335 196.934L589.711 161.802L593.899 135.035Z" fill="#3F3D56"/>
</g>
<defs>
<clipPath id="clip0_40_2141">
<rect width="600" height="403" fill="white" transform="translate(320 14)"/>
</clipPath>
</defs>
</svg>
