<svg width="1239" height="430" viewBox="0 0 1239 430" fill="none" xmlns="http://www.w3.org/2000/svg">
<rect width="1239" height="430" fill="white"/>
<g clip-path="url(#clip0_40_991)">
<path d="M389.479 107.909C393.949 107.909 397.573 104.282 397.573 99.8078C397.573 95.3337 393.949 91.7068 389.479 91.7068C385.008 91.7068 381.384 95.3337 381.384 99.8078C381.384 104.282 385.008 107.909 389.479 107.909Z" fill="#E6E6E6"/>
<path d="M413.763 107.909C418.233 107.909 421.858 104.282 421.858 99.8078C421.858 95.3337 418.233 91.7068 413.763 91.7068C409.292 91.7068 405.668 95.3337 405.668 99.8078C405.668 104.282 409.292 107.909 413.763 107.909Z" fill="#E6E6E6"/>
<path d="M438.047 107.909C442.517 107.909 446.141 104.282 446.141 99.8078C446.141 95.3337 442.517 91.7068 438.047 91.7068C433.576 91.7068 429.952 95.3337 429.952 99.8078C429.952 104.282 433.576 107.909 438.047 107.909Z" fill="#E6E6E6"/>
<path d="M462.331 107.909C466.801 107.909 470.426 104.282 470.426 99.8078C470.426 95.3337 466.801 91.7068 462.331 91.7068C457.86 91.7068 454.236 95.3337 454.236 99.8078C454.236 104.282 457.86 107.909 462.331 107.909Z" fill="#E6E6E6"/>
<path d="M486.615 107.909C491.085 107.909 494.709 104.282 494.709 99.8078C494.709 95.3337 491.085 91.7068 486.615 91.7068C482.144 91.7068 478.52 95.3337 478.52 99.8078C478.52 104.282 482.144 107.909 486.615 107.909Z" fill="#E6E6E6"/>
<path d="M510.899 107.909C515.369 107.909 518.994 104.282 518.994 99.8078C518.994 95.3337 515.369 91.7068 510.899 91.7068C506.428 91.7068 502.804 95.3337 502.804 99.8078C502.804 104.282 506.428 107.909 510.899 107.909Z" fill="#E6E6E6"/>
<path d="M535.183 107.909C539.653 107.909 543.277 104.282 543.277 99.8078C543.277 95.3337 539.653 91.7068 535.183 91.7068C530.712 91.7068 527.088 95.3337 527.088 99.8078C527.088 104.282 530.712 107.909 535.183 107.909Z" fill="#E6E6E6"/>
<path d="M553.888 109.673H370.774C369.9 109.672 369.063 109.324 368.445 108.706C367.828 108.088 367.481 107.25 367.479 106.376V93.2393C367.481 92.3653 367.828 91.5274 368.445 90.9093C369.063 90.2913 369.9 89.9437 370.774 89.9426H553.888C554.761 89.9437 555.599 90.2913 556.216 90.9093C556.834 91.5274 557.181 92.3653 557.182 93.2393V106.376C557.181 107.25 556.834 108.088 556.216 108.706C555.599 109.324 554.761 109.672 553.888 109.673ZM370.774 91.2613C370.25 91.2619 369.747 91.4705 369.377 91.8413C369.006 92.2121 368.798 92.7149 368.797 93.2393V106.376C368.798 106.901 369.006 107.403 369.377 107.774C369.747 108.145 370.25 108.354 370.774 108.354H553.888C554.412 108.354 554.914 108.145 555.285 107.774C555.656 107.403 555.864 106.901 555.864 106.376V93.2393C555.864 92.7149 555.656 92.2121 555.285 91.8413C554.914 91.4705 554.412 91.2619 553.888 91.2613L370.774 91.2613Z" fill="#E6E6E6"/>
<path d="M409.961 35.8941C410.463 35.8947 410.944 36.0945 411.299 36.4496C411.654 36.8046 411.853 37.2861 411.854 37.7883V78.834C411.853 79.3362 411.654 79.8176 411.299 80.1727C410.944 80.5278 410.463 80.7276 409.961 80.7281H369.785C369.284 80.7276 368.802 80.5278 368.448 80.1727C368.093 79.8176 367.893 79.3362 367.893 78.834V37.7883C367.893 37.2861 368.093 36.8047 368.448 36.4496C368.802 36.0945 369.284 35.8947 369.785 35.8942L409.961 35.8941ZM409.961 34H369.785C368.781 34 367.819 34.3991 367.109 35.1096C366.399 35.82 366 36.7836 366 37.7883V78.834C366 79.8387 366.399 80.8023 367.109 81.5127C367.819 82.2232 368.781 82.6223 369.785 82.6223H409.961C410.965 82.6223 411.928 82.2232 412.638 81.5127C413.348 80.8023 413.747 79.8387 413.747 78.834V37.7883C413.747 36.7836 413.348 35.82 412.638 35.1096C411.928 34.3991 410.965 34 409.961 34Z" fill="#E6E6E6"/>
<path d="M403.695 46.6832H376.89C376.765 46.684 376.641 46.66 376.526 46.6128C376.41 46.5655 376.305 46.4959 376.217 46.4079C376.128 46.3199 376.058 46.2152 376.01 46.0999C375.962 45.9846 375.938 45.861 375.938 45.7361C375.938 45.6113 375.962 45.4877 376.01 45.3724C376.058 45.2571 376.128 45.1524 376.217 45.0644C376.305 44.9764 376.41 44.9067 376.526 44.8595C376.641 44.8122 376.765 44.7883 376.89 44.7891H403.695C403.819 44.7883 403.943 44.8122 404.059 44.8595C404.174 44.9067 404.279 44.9764 404.368 45.0644C404.456 45.1524 404.526 45.2571 404.574 45.3724C404.622 45.4877 404.647 45.6113 404.647 45.7361C404.647 45.861 404.622 45.9846 404.574 46.0999C404.526 46.2152 404.456 46.3199 404.368 46.4079C404.279 46.4959 404.174 46.5655 404.059 46.6128C403.943 46.66 403.819 46.684 403.695 46.6832Z" fill="#25929B"/>
<path d="M403.695 53.39H376.89C376.765 53.3908 376.641 53.3668 376.526 53.3196C376.41 53.2723 376.305 53.2027 376.217 53.1147C376.128 53.0266 376.058 52.922 376.01 52.8067C375.962 52.6914 375.938 52.5678 375.938 52.4429C375.938 52.3181 375.962 52.1944 376.01 52.0791C376.058 51.9639 376.128 51.8592 376.217 51.7712C376.305 51.6832 376.41 51.6135 376.526 51.5663C376.641 51.519 376.765 51.4951 376.89 51.4959H403.695C403.819 51.4951 403.943 51.519 404.059 51.5663C404.174 51.6135 404.279 51.6832 404.368 51.7712C404.456 51.8592 404.526 51.9639 404.574 52.0791C404.622 52.1944 404.647 52.3181 404.647 52.4429C404.647 52.5678 404.622 52.6914 404.574 52.8067C404.526 52.922 404.456 53.0266 404.368 53.1147C404.279 53.2027 404.174 53.2723 404.059 53.3196C403.943 53.3668 403.819 53.3908 403.695 53.39Z" fill="#25929B"/>
<path d="M403.695 60.0963H376.89C376.765 60.097 376.641 60.0731 376.526 60.0259C376.41 59.9786 376.305 59.909 376.217 59.821C376.128 59.7329 376.058 59.6283 376.01 59.513C375.962 59.3977 375.938 59.2741 375.938 59.1492C375.938 59.0244 375.962 58.9007 376.01 58.7854C376.058 58.6702 376.128 58.5655 376.217 58.4775C376.305 58.3895 376.41 58.3198 376.526 58.2726C376.641 58.2253 376.765 58.2014 376.89 58.2022H403.695C403.819 58.2014 403.943 58.2253 404.059 58.2726C404.174 58.3198 404.279 58.3895 404.368 58.4775C404.456 58.5655 404.526 58.6702 404.574 58.7854C404.622 58.9007 404.647 59.0244 404.647 59.1492C404.647 59.2741 404.622 59.3977 404.574 59.513C404.526 59.6283 404.456 59.7329 404.368 59.821C404.279 59.909 404.174 59.9786 404.059 60.0259C403.943 60.0731 403.819 60.097 403.695 60.0963Z" fill="#25929B"/>
<path d="M403.695 66.8031H376.89C376.765 66.8038 376.641 66.7799 376.526 66.7327C376.41 66.6854 376.305 66.6158 376.217 66.5277C376.128 66.4397 376.058 66.3351 376.01 66.2198C375.962 66.1045 375.938 65.9809 375.938 65.856C375.938 65.7311 375.962 65.6075 376.01 65.4922C376.058 65.377 376.128 65.2723 376.217 65.1843C376.305 65.0963 376.41 65.0266 376.526 64.9794C376.641 64.9321 376.765 64.9082 376.89 64.909H403.695C403.819 64.9082 403.943 64.9321 404.059 64.9794C404.174 65.0266 404.279 65.0963 404.368 65.1843C404.456 65.2723 404.526 65.377 404.574 65.4922C404.622 65.6075 404.647 65.7311 404.647 65.856C404.647 65.9809 404.622 66.1045 404.574 66.2198C404.526 66.3351 404.456 66.4397 404.368 66.5277C404.279 66.6158 404.174 66.6854 404.059 66.7327C403.943 66.7799 403.819 66.8038 403.695 66.8031Z" fill="#25929B"/>
<path d="M403.695 73.5099H376.89C376.639 73.5099 376.398 73.4101 376.22 73.2325C376.043 73.0549 375.943 72.814 375.943 72.5628C375.943 72.3116 376.043 72.0707 376.22 71.8931C376.398 71.7155 376.639 71.6157 376.89 71.6157H403.695C403.946 71.6157 404.186 71.7155 404.364 71.8931C404.541 72.0707 404.641 72.3116 404.641 72.5628C404.641 72.814 404.541 73.0549 404.364 73.2325C404.186 73.4101 403.946 73.5099 403.695 73.5099Z" fill="#25929B"/>
<path d="M547.18 35.8941C547.681 35.8947 548.162 36.0945 548.517 36.4496C548.872 36.8046 549.072 37.2861 549.072 37.7883V78.834C549.072 79.3362 548.872 79.8176 548.517 80.1727C548.162 80.5278 547.681 80.7276 547.18 80.7281H507.004C506.502 80.7276 506.021 80.5278 505.666 80.1727C505.311 79.8176 505.112 79.3362 505.111 78.834V37.7883C505.112 37.2861 505.311 36.8047 505.666 36.4496C506.021 36.0945 506.502 35.8947 507.004 35.8942L547.18 35.8941ZM547.18 34H507.004C506 34 505.037 34.3991 504.327 35.1096C503.617 35.82 503.218 36.7836 503.218 37.7883V78.834C503.218 79.8387 503.617 80.8023 504.327 81.5127C505.037 82.2232 506 82.6223 507.004 82.6223H547.18C548.184 82.6223 549.146 82.2232 549.856 81.5127C550.566 80.8023 550.965 79.8387 550.965 78.834V37.7883C550.965 36.7836 550.566 35.82 549.856 35.1096C549.146 34.3991 548.184 34 547.18 34Z" fill="#E6E6E6"/>
<path d="M540.913 46.6832H514.108C513.983 46.684 513.859 46.66 513.744 46.6128C513.628 46.5655 513.523 46.4959 513.435 46.4079C513.346 46.3199 513.276 46.2152 513.228 46.0999C513.18 45.9846 513.156 45.861 513.156 45.7361C513.156 45.6113 513.18 45.4877 513.228 45.3724C513.276 45.2571 513.346 45.1524 513.435 45.0644C513.523 44.9764 513.628 44.9067 513.744 44.8595C513.859 44.8122 513.983 44.7883 514.108 44.7891H540.913C541.163 44.7906 541.402 44.8911 541.578 45.0685C541.755 45.246 541.854 45.486 541.854 45.7361C541.854 45.9863 541.755 46.2263 541.578 46.4038C541.402 46.5812 541.163 46.6817 540.913 46.6832Z" fill="#25929B"/>
<path d="M540.913 53.39H514.108C513.983 53.3908 513.859 53.3668 513.744 53.3196C513.628 53.2723 513.523 53.2027 513.435 53.1147C513.346 53.0266 513.276 52.922 513.228 52.8067C513.18 52.6914 513.156 52.5678 513.156 52.4429C513.156 52.3181 513.18 52.1944 513.228 52.0791C513.276 51.9639 513.346 51.8592 513.435 51.7712C513.523 51.6832 513.628 51.6135 513.744 51.5663C513.859 51.519 513.983 51.4951 514.108 51.4959H540.913C541.163 51.4974 541.402 51.5979 541.578 51.7753C541.755 51.9527 541.854 52.1927 541.854 52.4429C541.854 52.6931 541.755 52.9331 541.578 53.1106C541.402 53.288 541.163 53.3884 540.913 53.39Z" fill="#25929B"/>
<path d="M540.913 60.0963H514.108C513.983 60.097 513.859 60.0731 513.744 60.0259C513.628 59.9786 513.523 59.909 513.435 59.821C513.346 59.7329 513.276 59.6283 513.228 59.513C513.18 59.3977 513.156 59.2741 513.156 59.1492C513.156 59.0244 513.18 58.9007 513.228 58.7854C513.276 58.6702 513.346 58.5655 513.435 58.4775C513.523 58.3895 513.628 58.3198 513.744 58.2726C513.859 58.2253 513.983 58.2014 514.108 58.2022H540.913C541.163 58.2037 541.402 58.3041 541.578 58.4816C541.755 58.659 541.854 58.899 541.854 59.1492C541.854 59.3994 541.755 59.6394 541.578 59.8168C541.402 59.9943 541.163 60.0947 540.913 60.0963Z" fill="#25929B"/>
<path d="M540.913 66.8031H514.108C513.983 66.8038 513.859 66.7799 513.744 66.7327C513.628 66.6854 513.523 66.6158 513.435 66.5277C513.346 66.4397 513.276 66.3351 513.228 66.2198C513.18 66.1045 513.156 65.9809 513.156 65.856C513.156 65.7311 513.18 65.6075 513.228 65.4922C513.276 65.377 513.346 65.2723 513.435 65.1843C513.523 65.0963 513.628 65.0266 513.744 64.9794C513.859 64.9321 513.983 64.9082 514.108 64.909H540.913C541.163 64.9105 541.402 65.0109 541.578 65.1884C541.755 65.3658 541.854 65.6058 541.854 65.856C541.854 66.1062 541.755 66.3462 541.578 66.5236C541.402 66.7011 541.163 66.8015 540.913 66.8031Z" fill="#25929B"/>
<path d="M540.913 73.5099H514.108C513.857 73.5099 513.616 73.4101 513.439 73.2325C513.261 73.0549 513.162 72.814 513.162 72.5628C513.162 72.3116 513.261 72.0707 513.439 71.8931C513.616 71.7155 513.857 71.6157 514.108 71.6157H540.913C541.164 71.6157 541.405 71.7155 541.582 71.8931C541.76 72.0707 541.859 72.3116 541.859 72.5628C541.859 72.814 541.76 73.0549 541.582 73.2325C541.405 73.4101 541.164 73.5099 540.913 73.5099Z" fill="#25929B"/>
<path d="M683.731 114.816C684.233 114.816 684.714 115.016 685.069 115.371C685.424 115.726 685.623 116.207 685.624 116.71V157.755C685.623 158.258 685.424 158.739 685.069 159.094C684.714 159.449 684.233 159.649 683.731 159.649H643.555C643.054 159.649 642.573 159.449 642.218 159.094C641.863 158.739 641.663 158.258 641.663 157.755V116.71C641.663 116.208 641.863 115.726 642.218 115.371C642.573 115.016 643.054 114.816 643.555 114.816L683.731 114.816ZM683.731 112.921H643.555C642.552 112.921 641.589 113.321 640.879 114.031C640.169 114.741 639.77 115.705 639.77 116.71V157.755C639.77 158.76 640.169 159.724 640.879 160.434C641.589 161.145 642.552 161.544 643.555 161.544H683.731C684.735 161.544 685.698 161.145 686.408 160.434C687.118 159.724 687.517 158.76 687.517 157.755V116.71C687.517 115.705 687.118 114.741 686.408 114.031C685.698 113.321 684.735 112.921 683.731 112.921Z" fill="#25929B"/>
<path d="M677.465 125.605H650.66C650.535 125.606 650.411 125.582 650.296 125.534C650.18 125.487 650.075 125.418 649.987 125.33C649.898 125.241 649.828 125.137 649.78 125.022C649.732 124.906 649.708 124.783 649.708 124.658C649.708 124.533 649.732 124.409 649.78 124.294C649.828 124.179 649.898 124.074 649.987 123.986C650.075 123.898 650.18 123.828 650.296 123.781C650.411 123.734 650.535 123.71 650.66 123.711H677.465C677.715 123.712 677.954 123.813 678.13 123.99C678.306 124.168 678.405 124.408 678.405 124.658C678.405 124.908 678.306 125.148 678.13 125.325C677.954 125.503 677.715 125.603 677.465 125.605Z" fill="#25929B"/>
<path d="M677.465 132.311H650.66C650.409 132.311 650.168 132.212 649.991 132.034C649.813 131.856 649.713 131.615 649.713 131.364C649.713 131.113 649.813 130.872 649.991 130.695C650.168 130.517 650.409 130.417 650.66 130.417H677.465C677.716 130.417 677.956 130.517 678.134 130.695C678.311 130.872 678.411 131.113 678.411 131.364C678.411 131.615 678.311 131.856 678.134 132.034C677.956 132.212 677.716 132.311 677.465 132.311Z" fill="#25929B"/>
<path d="M677.465 139.018H650.66C650.535 139.018 650.412 138.994 650.296 138.947C650.181 138.9 650.076 138.83 649.988 138.742C649.899 138.654 649.829 138.549 649.781 138.434C649.733 138.319 649.709 138.195 649.709 138.071C649.709 137.946 649.733 137.822 649.781 137.707C649.829 137.592 649.899 137.487 649.988 137.399C650.076 137.311 650.181 137.242 650.296 137.194C650.412 137.147 650.535 137.123 650.66 137.124H677.465C677.715 137.125 677.954 137.226 678.13 137.403C678.307 137.58 678.405 137.82 678.405 138.071C678.405 138.321 678.307 138.561 678.13 138.738C677.954 138.916 677.715 139.016 677.465 139.018Z" fill="#25929B"/>
<path d="M677.465 145.724H650.66C650.535 145.725 650.411 145.701 650.296 145.654C650.18 145.607 650.075 145.537 649.987 145.449C649.898 145.361 649.828 145.256 649.78 145.141C649.732 145.026 649.708 144.902 649.708 144.777C649.708 144.653 649.732 144.529 649.78 144.414C649.828 144.298 649.898 144.194 649.987 144.106C650.075 144.018 650.18 143.948 650.296 143.901C650.411 143.853 650.535 143.83 650.66 143.83H677.465C677.715 143.832 677.954 143.932 678.13 144.11C678.306 144.287 678.405 144.527 678.405 144.777C678.405 145.028 678.306 145.268 678.13 145.445C677.954 145.622 677.715 145.723 677.465 145.724Z" fill="#25929B"/>
<path d="M677.465 152.431H650.66C650.535 152.432 650.411 152.408 650.296 152.361C650.18 152.314 650.075 152.244 649.987 152.156C649.898 152.068 649.828 151.963 649.78 151.848C649.732 151.733 649.708 151.609 649.708 151.484C649.708 151.359 649.732 151.236 649.78 151.12C649.828 151.005 649.898 150.9 649.987 150.812C650.075 150.724 650.18 150.655 650.296 150.608C650.411 150.56 650.535 150.536 650.66 150.537H677.465C677.715 150.539 677.954 150.639 678.13 150.817C678.306 150.994 678.405 151.234 678.405 151.484C678.405 151.734 678.306 151.974 678.13 152.152C677.954 152.329 677.715 152.43 677.465 152.431Z" fill="#25929B"/>
<path d="M479.096 82.6224H437.868C436.753 82.6211 435.685 82.1772 434.896 81.3882C434.108 80.5992 433.664 79.5295 433.663 78.4137V48.8898C433.664 47.7739 434.108 46.7041 434.896 45.915C435.684 45.1259 436.753 44.682 437.868 44.6807H479.096C480.211 44.6819 481.28 45.1257 482.069 45.9148C482.857 46.7039 483.301 47.7738 483.302 48.8898V78.4137C483.301 79.5296 482.857 80.5994 482.069 81.3884C481.28 82.1774 480.211 82.6212 479.096 82.6224ZM437.868 46.5748C437.255 46.5756 436.667 46.8197 436.234 47.2537C435.8 47.6877 435.556 48.2761 435.556 48.8898V78.4137C435.556 79.0274 435.8 79.6157 436.234 80.0496C436.667 80.4835 437.255 80.7276 437.868 80.7282H479.096C479.709 80.7276 480.297 80.4835 480.731 80.0496C481.165 79.6157 481.409 79.0274 481.409 78.4137V48.8898C481.409 48.276 481.165 47.6877 480.731 47.2537C480.297 46.8197 479.709 46.5756 479.096 46.5748H437.868Z" fill="#E6E6E6"/>
<path d="M471.885 57.8919H445.08C444.83 57.8904 444.591 57.79 444.415 57.6125C444.238 57.4351 444.139 57.1951 444.139 56.9449C444.139 56.6947 444.238 56.4547 444.415 56.2773C444.591 56.0998 444.83 55.9994 445.08 55.9978H471.885C472.01 55.9971 472.133 56.021 472.249 56.0682C472.364 56.1155 472.469 56.1851 472.558 56.2731C472.646 56.3612 472.717 56.4658 472.765 56.5811C472.813 56.6964 472.837 56.82 472.837 56.9449C472.837 57.0697 472.813 57.1934 472.765 57.3087C472.717 57.4239 472.646 57.5286 472.558 57.6166C472.469 57.7046 472.364 57.7743 472.249 57.8215C472.133 57.8688 472.01 57.8927 471.885 57.8919Z" fill="#25929B"/>
<path d="M471.885 64.5987H445.08C444.83 64.5972 444.591 64.4967 444.415 64.3193C444.238 64.1418 444.139 63.9018 444.139 63.6517C444.139 63.4015 444.238 63.1615 444.415 62.984C444.591 62.8066 444.83 62.7061 445.08 62.7046H471.885C472.01 62.7038 472.133 62.7278 472.249 62.775C472.364 62.8223 472.469 62.8919 472.558 62.9799C472.646 63.068 472.717 63.1726 472.765 63.2879C472.813 63.4032 472.837 63.5268 472.837 63.6517C472.837 63.7765 472.813 63.9002 472.765 64.0154C472.717 64.1307 472.646 64.2354 472.558 64.3234C472.469 64.4114 472.364 64.4811 472.249 64.5283C472.133 64.5756 472.01 64.5995 471.885 64.5987Z" fill="#25929B"/>
<path d="M471.885 71.305H445.08C444.83 71.3035 444.591 71.203 444.415 71.0256C444.238 70.8481 444.139 70.6081 444.139 70.358C444.139 70.1078 444.238 69.8678 444.415 69.6903C444.591 69.5129 444.83 69.4124 445.08 69.4109H471.885C472.01 69.4101 472.133 69.4341 472.249 69.4813C472.364 69.5286 472.469 69.5982 472.558 69.6862C472.646 69.7742 472.717 69.8789 472.765 69.9942C472.813 70.1095 472.837 70.2331 472.837 70.358C472.837 70.4828 472.813 70.6065 472.765 70.7217C472.717 70.837 472.646 70.9417 472.558 71.0297C472.469 71.1177 472.364 71.1874 472.249 71.2346C472.133 71.2819 472.01 71.3058 471.885 71.305Z" fill="#25929B"/>
<path d="M615.897 98.9824L576.301 87.4904C575.23 87.1784 574.327 86.4542 573.789 85.4767C573.252 84.4991 573.124 83.3481 573.433 82.2761L581.65 53.9205C581.961 52.8491 582.685 51.9452 583.662 51.4071C584.639 50.869 585.789 50.7406 586.86 51.0501L626.456 62.5421C627.527 62.8541 628.43 63.5784 628.968 64.556C629.506 65.5337 629.634 66.6849 629.324 67.757L621.108 96.1126C620.796 97.184 620.072 98.0878 619.095 98.6258C618.118 99.1638 616.968 99.292 615.897 98.9824ZM586.333 52.8693C585.744 52.6991 585.111 52.7697 584.574 53.0657C584.037 53.3617 583.639 53.8588 583.467 54.448L575.251 82.8037C575.081 83.3932 575.151 84.0262 575.447 84.5638C575.742 85.1014 576.239 85.4997 576.828 85.6712L616.424 97.1632C617.013 97.3335 617.646 97.263 618.183 96.9672C618.72 96.6713 619.118 96.1743 619.29 95.5851L627.507 67.2294C627.677 66.6398 627.606 66.0067 627.311 65.469C627.015 64.9313 626.518 64.5329 625.929 64.3613L586.333 52.8693Z" fill="#E6E6E6"/>
<path d="M615.854 73.2207L590.109 65.749C589.869 65.6786 589.666 65.5156 589.545 65.2957C589.425 65.0759 589.396 64.817 589.466 64.5761C589.536 64.3352 589.698 64.1318 589.918 64.0106C590.137 63.8895 590.396 63.8604 590.637 63.9298L616.381 71.4015C616.622 71.4715 616.825 71.6344 616.946 71.8544C617.067 72.0745 617.096 72.3337 617.026 72.5749C616.956 72.8161 616.794 73.0197 616.574 73.1408C616.354 73.2619 616.095 73.2907 615.854 73.2207Z" fill="#25929B"/>
<path d="M613.987 79.6621L588.243 72.1904C588.124 72.1558 588.012 72.0979 587.915 72.0202C587.818 71.9425 587.737 71.8464 587.677 71.7375C587.618 71.6285 587.58 71.5088 587.566 71.3852C587.552 71.2616 587.563 71.1365 587.598 71.017C587.632 70.8976 587.69 70.7861 587.768 70.689C587.845 70.5919 587.941 70.5111 588.05 70.4511C588.159 70.3911 588.279 70.3532 588.402 70.3395C588.526 70.3258 588.651 70.3366 588.77 70.3712L614.514 77.8429C614.755 77.9133 614.958 78.0763 615.079 78.2962C615.199 78.5161 615.228 78.7749 615.158 79.0158C615.088 79.2567 614.926 79.4601 614.706 79.5813C614.487 79.7024 614.228 79.7315 613.987 79.6621Z" fill="#25929B"/>
<path d="M612.121 86.103L586.377 78.6313C586.136 78.561 585.933 78.398 585.812 78.1781C585.692 77.9582 585.663 77.6994 585.733 77.4584C585.803 77.2175 585.965 77.0141 586.185 76.893C586.404 76.7718 586.663 76.7427 586.904 76.8121L612.648 84.2838C612.889 84.3538 613.093 84.5167 613.214 84.7368C613.335 84.9568 613.363 85.216 613.293 85.4572C613.223 85.6985 613.061 85.902 612.841 86.0231C612.621 86.1442 612.362 86.173 612.121 86.103Z" fill="#25929B"/>
<path d="M874 395.217H458.705V397H874V395.217Z" fill="#E6E6E6"/>
<path d="M699.833 392.429H632.3L634.589 362.646H697.544L699.833 392.429Z" fill="#E6E6E6"/>
<path d="M704.411 388.993H628.866V395.866H704.411V388.993Z" fill="#E6E6E6"/>
<path d="M795.409 170.771H537.296C535.475 170.771 533.728 171.495 532.44 172.784C531.152 174.073 530.428 175.821 530.428 177.644V335.154H802.277V177.644C802.277 176.742 802.099 175.848 801.754 175.014C801.409 174.18 800.903 173.422 800.266 172.784C799.628 172.146 798.871 171.64 798.037 171.294C797.204 170.949 796.311 170.771 795.409 170.771Z" fill="#3F3D56"/>
<path d="M530.428 335.154V360.928C530.428 361.831 530.606 362.724 530.951 363.558C531.296 364.392 531.802 365.15 532.44 365.788C533.077 366.426 533.835 366.933 534.668 367.278C535.501 367.623 536.394 367.801 537.296 367.801H795.409C797.231 367.801 798.978 367.077 800.266 365.788C801.553 364.499 802.277 362.751 802.277 360.928V335.154H530.428Z" fill="#E6E6E6"/>
<path d="M789.114 185.09H544.164V322.553H789.114V185.09Z" fill="#E6E6E6"/>
<path d="M666.639 358.064C670.432 358.064 673.507 354.987 673.507 351.191C673.507 347.395 670.432 344.318 666.639 344.318C662.846 344.318 659.771 347.395 659.771 351.191C659.771 354.987 662.846 358.064 666.639 358.064Z" fill="#3F3D56"/>
<path d="M551.801 190.896C552.521 190.896 553.105 190.312 553.105 189.592C553.105 188.872 552.521 188.288 551.801 188.288C551.082 188.288 550.498 188.872 550.498 189.592C550.498 190.312 551.082 190.896 551.801 190.896Z" fill="white"/>
<path d="M556.748 190.896C557.468 190.896 558.052 190.312 558.052 189.592C558.052 188.872 557.468 188.288 556.748 188.288C556.029 188.288 555.445 188.872 555.445 189.592C555.445 190.312 556.029 190.896 556.748 190.896Z" fill="white"/>
<path d="M561.696 190.896C562.415 190.896 562.999 190.312 562.999 189.592C562.999 188.872 562.415 188.288 561.696 188.288C560.976 188.288 560.392 188.872 560.392 189.592C560.392 190.312 560.976 190.896 561.696 190.896Z" fill="white"/>
<path d="M782.054 194.024H550.498V309.47H782.054V194.024Z" fill="white"/>
<path d="M565.89 211.584C565.673 211.584 565.465 211.671 565.312 211.824C565.158 211.978 565.072 212.186 565.072 212.403V253.813C565.072 254.031 565.158 254.239 565.312 254.392C565.465 254.546 565.673 254.632 565.89 254.633H613.675C613.892 254.632 614.1 254.546 614.254 254.392C614.407 254.239 614.493 254.031 614.494 253.813V212.403C614.493 212.186 614.407 211.978 614.254 211.824C614.1 211.671 613.892 211.584 613.675 211.584H565.89Z" fill="#E6E6E6"/>
<path d="M642.615 211.717C642.398 211.717 642.189 211.804 642.036 211.957C641.882 212.111 641.796 212.319 641.796 212.537V253.813C641.796 254.031 641.882 254.239 642.036 254.393C642.189 254.546 642.398 254.633 642.615 254.633H690.247C690.464 254.632 690.672 254.546 690.826 254.392C690.979 254.239 691.065 254.031 691.065 253.813V212.537C691.065 212.319 690.979 212.111 690.826 211.958C690.672 211.804 690.464 211.718 690.247 211.717H642.615Z" fill="#E6E6E6"/>
<path d="M718.534 211.285C718.317 211.285 718.109 211.371 717.956 211.525C717.803 211.679 717.716 211.887 717.716 212.104V253.814C717.716 254.031 717.803 254.239 717.956 254.393C718.109 254.546 718.317 254.633 718.534 254.633H766.662C766.879 254.633 767.087 254.546 767.241 254.393C767.394 254.239 767.48 254.031 767.48 253.814V212.104C767.48 211.887 767.394 211.679 767.241 211.525C767.087 211.371 766.879 211.285 766.662 211.285H718.534Z" fill="#E6E6E6"/>
<path d="M566.764 275.131C566.316 275.131 565.886 275.31 565.569 275.628C565.253 275.945 565.075 276.376 565.075 276.824C565.075 277.273 565.253 277.703 565.569 278.021C565.886 278.338 566.316 278.517 566.764 278.518H611.691C612.139 278.517 612.569 278.338 612.886 278.021C613.202 277.703 613.38 277.273 613.38 276.824C613.38 276.376 613.202 275.945 612.886 275.628C612.569 275.31 612.139 275.131 611.691 275.131H566.764Z" fill="#E6E6E6"/>
<path d="M566.764 283.187C566.316 283.188 565.886 283.367 565.569 283.684C565.252 284.002 565.075 284.432 565.075 284.881C565.075 285.33 565.252 285.76 565.569 286.078C565.886 286.395 566.316 286.574 566.764 286.575H586.992C587.44 286.574 587.87 286.395 588.187 286.078C588.504 285.76 588.681 285.33 588.681 284.881C588.681 284.432 588.504 284.002 588.187 283.684C587.87 283.367 587.44 283.188 586.992 283.187H566.764Z" fill="#25929B"/>
<path d="M644.313 275.131C643.864 275.131 643.435 275.31 643.118 275.628C642.801 275.945 642.624 276.376 642.624 276.824C642.624 277.273 642.801 277.703 643.118 278.021C643.435 278.338 643.864 278.517 644.313 278.518H689.24C689.688 278.517 690.118 278.338 690.434 278.021C690.751 277.703 690.929 277.273 690.929 276.824C690.929 276.376 690.751 275.945 690.434 275.628C690.118 275.31 689.688 275.131 689.24 275.131H644.313Z" fill="#E6E6E6"/>
<path d="M644.313 283.187C643.864 283.188 643.435 283.367 643.118 283.684C642.801 284.002 642.623 284.432 642.623 284.881C642.623 285.33 642.801 285.76 643.118 286.078C643.435 286.395 643.864 286.574 644.313 286.575H664.541C664.989 286.574 665.419 286.395 665.736 286.078C666.053 285.76 666.23 285.33 666.23 284.881C666.23 284.432 666.053 284.002 665.736 283.684C665.419 283.367 664.989 283.188 664.541 283.187H644.313Z" fill="#25929B"/>
<path d="M719.923 275.131C719.475 275.131 719.045 275.31 718.729 275.628C718.412 275.945 718.234 276.376 718.234 276.824C718.234 277.273 718.412 277.703 718.729 278.021C719.045 278.338 719.475 278.517 719.923 278.518H764.85C765.299 278.517 765.728 278.338 766.045 278.021C766.362 277.703 766.54 277.273 766.54 276.824C766.54 276.376 766.362 275.945 766.045 275.628C765.728 275.31 765.299 275.131 764.85 275.131H719.923Z" fill="#E6E6E6"/>
<path d="M566.764 266.81C566.316 266.811 565.886 266.99 565.569 267.307C565.253 267.625 565.075 268.055 565.075 268.504C565.075 268.952 565.253 269.383 565.569 269.7C565.886 270.018 566.316 270.197 566.764 270.198H611.691C612.139 270.197 612.569 270.018 612.886 269.7C613.202 269.383 613.38 268.952 613.38 268.504C613.38 268.055 613.202 267.625 612.886 267.307C612.569 266.99 612.139 266.811 611.691 266.81H566.764Z" fill="#E6E6E6"/>
<path d="M644.313 266.81C643.864 266.811 643.435 266.99 643.118 267.307C642.801 267.625 642.624 268.055 642.624 268.504C642.624 268.952 642.801 269.383 643.118 269.7C643.435 270.018 643.864 270.197 644.313 270.198H689.24C689.688 270.197 690.118 270.018 690.434 269.7C690.751 269.383 690.929 268.952 690.929 268.504C690.929 268.055 690.751 267.625 690.434 267.307C690.118 266.99 689.688 266.811 689.24 266.81H644.313Z" fill="#E6E6E6"/>
<path d="M719.923 266.81C719.475 266.811 719.045 266.99 718.729 267.307C718.412 267.625 718.234 268.055 718.234 268.504C718.234 268.952 718.412 269.383 718.729 269.7C719.045 270.018 719.475 270.197 719.923 270.198H764.85C765.299 270.197 765.728 270.018 766.045 269.7C766.362 269.383 766.54 268.952 766.54 268.504C766.54 268.055 766.362 267.625 766.045 267.307C765.728 266.99 765.299 266.811 764.85 266.81H719.923Z" fill="#E6E6E6"/>
<path d="M719.923 283.187C719.475 283.188 719.045 283.367 718.729 283.684C718.412 284.002 718.234 284.432 718.234 284.881C718.234 285.33 718.412 285.76 718.729 286.078C719.045 286.395 719.475 286.574 719.923 286.575H740.151C740.6 286.574 741.029 286.395 741.346 286.078C741.663 285.76 741.841 285.33 741.841 284.881C741.841 284.432 741.663 284.002 741.346 283.684C741.029 283.367 740.6 283.188 740.151 283.187H719.923Z" fill="#25929B"/>
</g>
<defs>
<clipPath id="clip0_40_991">
<rect width="508" height="363" fill="white" transform="translate(366 34)"/>
</clipPath>
</defs>
</svg>
