<svg width="1239" height="430" viewBox="0 0 1239 430" fill="none" xmlns="http://www.w3.org/2000/svg">
<rect width="1239" height="430" fill="white"/>
<g clip-path="url(#clip0_40_1003)">
<path d="M688.16 136.833C686.755 138.502 684.972 139.81 682.958 140.647L677.192 147.144L660.858 166.878L649.823 173.557L644.699 164.731L668.887 141.157L675.627 134.296C676.168 132.181 677.207 130.227 678.657 128.598C682.228 124.47 687.251 122.969 689.875 125.243C692.5 127.517 691.732 132.705 688.16 136.833Z" fill="#FFAFAF"/>
<path d="M589.437 156.441L600.058 138.754L645.249 158.182L669.95 137.99C669.95 137.99 679.749 146.436 680.099 146.737C680.449 147.039 655.191 182.042 653.397 182.001C651.604 181.96 589.437 156.441 589.437 156.441Z" fill="#DEDEDE"/>
<path d="M417 404.226C417 404.754 417.424 405.178 417.951 405.178H822.049C822.576 405.178 823 404.754 823 404.226C823 403.699 822.576 403.275 822.049 403.275H417.951C417.424 403.275 417 403.699 417 404.226Z" fill="#3F3D58"/>
<path d="M691.434 21C723.605 21 749.777 45.572 749.777 75.7758C749.777 84.2151 747.675 92.609 743.688 100.14H743.736L742.68 101.977C733.719 117.422 728.743 135.012 728.291 152.843C728.154 158.279 723.789 162.538 718.354 162.538H672.89C667.031 162.538 662.111 158.336 661.191 152.547C658.952 138.464 654.473 124.893 647.881 112.211C638.343 102.168 633.091 89.2324 633.091 75.7758C633.091 45.572 659.264 21 691.434 21ZM741.266 101.228L741.644 100.547C745.919 92.955 748.179 84.3892 748.179 75.7758C748.179 46.4544 722.723 22.5993 691.434 22.5993C660.145 22.5993 634.69 46.4544 634.69 75.7758C634.69 88.8568 639.813 101.433 649.116 111.19L649.246 111.373C655.947 124.236 660.497 138.005 662.769 152.296C663.565 157.304 667.822 160.938 672.89 160.938H718.354C722.915 160.938 726.578 157.365 726.694 152.803C727.151 134.726 732.19 116.893 741.266 101.228Z" fill="#3F3D56"/>
<path d="M724.644 158.539H664.618C662.709 158.539 661.213 160.179 661.386 162.081L661.948 168.267C662.418 173.443 664.05 178.447 666.723 182.904C667.17 183.649 668.014 184.057 668.877 183.953C686.663 181.808 704.067 181.738 721.053 183.922C721.983 184.042 722.884 183.566 723.303 182.728L723.688 181.958C725.612 178.108 726.8 173.931 727.189 169.644L727.876 162.081C728.049 160.179 726.552 158.539 724.644 158.539Z" fill="#3F3D56"/>
<path d="M670.654 179.73H719.806V211.738C719.806 217.463 715.161 222.111 709.439 222.111H681.022C675.3 222.111 670.654 217.463 670.654 211.738V179.73Z" fill="#3F3D56"/>
<path d="M701.555 230.508H690.903C689.732 230.508 688.632 229.942 687.951 228.988L681.044 219.313H711.414L704.507 228.988C703.826 229.942 702.727 230.508 701.555 230.508Z" fill="#3F3D56"/>
<path d="M709.615 49.2487C701.794 50.8689 693.974 52.4891 686.154 54.1093C682.637 54.8379 678.698 55.216 675.503 56.9646C672.406 58.66 670.236 62.217 671.344 65.778C672.403 69.1785 675.526 71.3116 678.876 72.0699C682.594 72.9113 686.576 72.9054 690.365 73.198C694.317 73.5032 698.269 73.8085 702.221 74.1137C704.102 74.259 705.993 74.3593 707.869 74.5526C708.469 74.6144 709.124 74.6881 709.616 75.0691C709.609 75.0633 709.783 75.1724 709.687 75.1891C709.668 75.1924 709.666 75.0657 709.669 75.0572C709.745 74.82 709.714 75.0445 709.652 75.045C709.631 75.0452 709.065 75.4194 708.749 75.4784C707.897 75.6378 706.957 75.5219 706.094 75.5072C704.218 75.4752 702.341 75.5106 700.468 75.6128C696.697 75.8185 692.932 76.2877 689.224 76.9985C685.576 77.6977 681.946 78.6285 678.443 79.8685C675.046 81.0708 671.489 83.3539 671.396 87.3822C671.309 91.1656 674.59 93.8243 677.931 94.7747C679.649 95.2635 681.46 95.4407 683.222 95.703C685.189 95.9957 687.155 96.2884 689.121 96.5811C692.988 97.1566 696.856 97.7322 700.723 98.3078C702.689 98.6005 704.655 98.8931 706.622 99.1858C707.539 99.3223 708.461 99.4399 709.375 99.5956C709.712 99.6529 710.029 99.7589 710.362 99.8272C710.138 99.7814 710.415 99.7817 710.37 99.8337C710.515 99.923 710.516 99.9095 710.371 99.7933L710.272 99.6481C710.046 99.0144 710.054 98.9309 710.466 98.1814C710.544 98.0383 710.704 98.186 710.5 98.1635C710.283 98.1394 710.631 98.1362 710.399 98.2319C710.284 98.2797 710.158 98.3122 710.037 98.3456C709.127 98.5976 708.173 98.7293 707.246 98.9114C705.32 99.2899 703.393 99.6684 701.467 100.047C697.678 100.791 693.889 101.535 690.1 102.28C683.426 103.592 676.337 105.366 672.337 111.391C671.467 112.702 670.836 114.212 670.52 115.753C670.261 117.021 670.888 118.345 672.195 118.704C673.381 119.03 674.883 118.304 675.144 117.028C676.411 110.839 683.18 108.616 688.747 107.436C692.437 106.653 696.15 105.968 699.852 105.241C703.582 104.508 707.372 103.912 711.07 103.033C712.625 102.664 714.312 101.707 714.747 100.048C715.223 98.2322 714.327 96.479 712.681 95.6329C711.103 94.8214 709.227 94.7574 707.503 94.5008C705.602 94.2179 703.702 93.935 701.801 93.652C697.934 93.0765 694.067 92.5009 690.199 91.9253C688.299 91.6424 686.398 91.3595 684.497 91.0765C682.735 90.8142 680.924 90.6371 679.206 90.1482C678.043 89.8175 676.853 89.2499 676.34 88.1423C676.174 87.7852 676.132 87.5253 676.245 87.1236C676.4 86.5723 676.831 86.0589 677.312 85.6789C678.419 84.803 679.917 84.4122 681.233 83.9898C682.96 83.4355 684.706 82.9409 686.467 82.5072C689.963 81.6461 693.517 81.0159 697.101 80.6665C698.968 80.4846 700.841 80.3689 702.717 80.3202C704.491 80.2741 706.269 80.3841 708.041 80.3292C709.931 80.2707 711.875 79.7653 713.172 78.3001C714.506 76.7922 714.831 74.7333 713.902 72.9257C712.065 69.3486 707.196 69.7 703.802 69.4379C699.916 69.1378 696.029 68.8376 692.143 68.5375C688.509 68.2568 684.773 68.1977 681.171 67.6382C679.837 67.4309 678.299 67.0495 677.293 66.2541C676.371 65.5249 675.772 64.5689 675.845 63.6109C675.914 62.7198 676.823 61.7355 677.775 61.1885C679.111 60.421 680.687 60.1347 682.179 59.8235C689.857 58.2219 697.54 56.641 705.22 55.0499C707.11 54.6583 709 54.2668 710.89 53.8752C712.158 53.6124 712.891 52.1155 712.564 50.9242C712.202 49.6065 710.887 48.9852 709.615 49.2487Z" fill="#25929B"/>
<path d="M608.833 125.754H593.127V156.258H608.833V125.754Z" fill="#FFAFAF"/>
<path d="M634.762 210.755L596.883 207.982C596.883 207.982 581.177 244.032 593.188 267.142L601.503 315.209L598.215 394.325H615.42L642.154 267.142L634.762 210.755Z" fill="#2F2E41"/>
<path d="M627.371 251.132L642.154 264.005L634.763 390.084H618.133L627.371 251.132Z" fill="#2F2E41"/>
<path d="M600.768 131.752C611.612 131.752 620.404 122.956 620.404 112.105C620.404 101.255 611.612 92.4587 600.768 92.4587C589.923 92.4587 581.132 101.255 581.132 112.105C581.132 122.956 589.923 131.752 600.768 131.752Z" fill="#FFAFAF"/>
<path d="M598.416 375.549L618.7 378.755L622.512 393.313C622.512 393.313 638.981 399.514 631.046 406.253C623.11 412.991 593.794 409.507 591.476 404.674C589.158 399.84 598.416 375.549 598.416 375.549Z" fill="#2F2E41"/>
<path d="M615.046 375.549L635.329 378.755L639.142 393.313C639.142 393.313 655.611 399.514 647.676 406.253C639.74 412.991 610.423 409.507 608.106 404.674C605.788 399.84 615.046 375.549 615.046 375.549Z" fill="#2F2E41"/>
<path d="M671.082 207.628C668.902 207.652 666.747 207.154 664.799 206.174L656.115 206.043L630.512 206.541L618.253 202.534L621.592 192.89L655.23 195.84L664.824 196.472C666.778 195.501 668.936 195.014 671.116 195.05C676.572 195.062 680.988 197.89 680.978 201.364C680.969 204.838 676.54 207.642 671.082 207.628Z" fill="#FFAFAF"/>
<path d="M610.28 137.267H590.841L584.411 156.679L596.884 207.982L634.763 210.755L632.453 189.957C636.925 182.686 636.568 173.433 631.549 166.528L610.28 137.267Z" fill="#DEDEDE"/>
<path d="M591.802 145.587L612.127 142.095L626.91 189.032L658.321 194.578V207.982C658.321 208.444 615.33 212.142 614.191 210.755C613.051 209.368 591.802 145.587 591.802 145.587Z" fill="#DEDEDE"/>
<path d="M610.573 100.715C612.985 104.63 610.761 109.787 607.789 113.297C604.818 116.806 600.986 119.886 599.659 124.29C598.47 128.238 599.552 132.497 600.951 136.376C602.35 140.255 604.089 144.122 604.233 148.243C604.377 152.365 602.428 156.916 598.548 158.307C594.566 159.735 589.86 157.491 586.025 159.276C581.03 161.601 579.898 169.649 574.452 170.483C571.101 170.997 567.995 168.09 567.058 164.83C566.122 161.57 566.794 158.09 567.472 154.766C569.327 145.659 571.182 136.552 573.037 127.445C574.58 119.868 576.124 112.29 577.667 104.713C578.589 100.189 579.682 95.3494 583.08 92.2257C587.233 88.4088 593.492 88.3181 599.126 88.5469C604.303 88.757 609.688 89.1114 614.195 91.6685C618.702 94.2257 622.012 99.6612 620.452 104.604C618.996 101.125 614.644 99.1736 611.079 100.401" fill="#2F2E41"/>
</g>
<defs>
<clipPath id="clip0_40_1003">
<rect width="406" height="389" fill="white" transform="translate(417 21)"/>
</clipPath>
</defs>
</svg>
