<svg width="1239" height="430" viewBox="0 0 1239 430" fill="none" xmlns="http://www.w3.org/2000/svg">
<rect width="1239" height="430" fill="white"/>
<g clip-path="url(#clip0_40_960)">
<path d="M417.226 355.059C418.31 353.169 418.87 351.025 418.848 348.847C418.848 343.235 415.377 338.683 411.079 338.683C406.781 338.683 403.31 343.235 403.31 348.847C403.288 351.025 403.848 353.169 404.931 355.059C403.868 356.957 403.31 359.095 403.31 361.27C403.31 363.445 403.868 365.584 404.931 367.481C403.868 369.379 403.31 371.518 403.31 373.693C403.31 375.868 403.868 378.006 404.931 379.904C403.868 381.802 403.31 383.941 403.31 386.116C403.31 388.291 403.868 390.429 404.931 392.327C403.847 394.216 403.287 396.361 403.31 398.539C403.31 404.151 406.781 408.698 411.079 408.698C415.377 408.698 418.848 404.151 418.848 398.539C418.87 396.363 418.31 394.22 417.226 392.332C418.289 390.434 418.848 388.296 418.848 386.121C418.848 383.946 418.289 381.807 417.226 379.909C418.289 378.011 418.848 375.873 418.848 373.698C418.848 371.523 418.289 369.384 417.226 367.486C418.289 365.589 418.848 363.45 418.848 361.275C418.848 359.1 418.289 356.962 417.226 355.064V355.059Z" fill="#3F3D56"/>
<path d="M411.054 346.589C415.345 346.589 418.823 342.038 418.823 336.424C418.823 330.811 415.345 326.26 411.054 326.26C406.763 326.26 403.285 330.811 403.285 336.424C403.285 342.038 406.763 346.589 411.054 346.589Z" fill="#3F3D56"/>
<path d="M411.054 334.166C415.345 334.166 418.823 329.615 418.823 324.002C418.823 318.388 415.345 313.837 411.054 313.837C406.763 313.837 403.285 318.388 403.285 324.002C403.285 329.615 406.763 334.166 411.054 334.166Z" fill="#3F3D56"/>
<path d="M381.962 238.998C380.903 237.646 379.937 236.222 379.072 234.739L399.488 231.39L377.406 231.554C375.288 226.948 374.133 221.96 374.011 216.893C373.889 211.826 374.803 206.788 376.697 202.087L406.319 217.442L378.997 197.376C381.549 192.942 384.989 189.081 389.102 186.035C393.214 182.989 397.912 180.823 402.9 179.673C407.888 178.523 413.061 178.413 418.094 179.35C423.126 180.288 427.912 182.252 432.15 185.121C436.389 187.99 439.989 191.701 442.727 196.023C445.465 200.345 447.282 205.185 448.063 210.24C448.844 215.295 448.573 220.456 447.267 225.402C445.961 230.348 443.648 234.971 440.473 238.984C442.127 241.086 443.549 243.359 444.717 245.765L418.218 259.535L446.477 250.059C448.461 255.92 448.951 262.183 447.903 268.281C446.856 274.379 444.304 280.12 440.478 284.985C444.799 290.47 447.487 297.059 448.236 303.999C448.985 310.939 447.763 317.949 444.712 324.228C441.66 330.507 436.902 335.801 430.98 339.505C425.059 343.209 418.214 345.173 411.228 345.173C404.241 345.173 397.396 343.209 391.475 339.505C385.553 335.801 380.795 330.507 377.743 324.228C374.692 317.949 373.471 310.939 374.219 303.999C374.968 297.059 377.656 290.47 381.977 284.985C376.819 278.428 374.015 270.331 374.015 261.992C374.015 253.652 376.819 245.555 381.977 238.998H381.962Z" fill="#57B894"/>
<path opacity="0.1" d="M448.46 261.992C448.473 270.333 445.667 278.434 440.498 284.985C444.819 290.47 447.507 297.059 448.256 303.999C449.004 310.939 447.783 317.949 444.732 324.228C441.68 330.507 436.922 335.801 431 339.505C425.079 343.209 418.234 345.173 411.247 345.173C404.261 345.173 397.416 343.209 391.495 339.505C385.573 335.801 380.815 330.507 377.763 324.228C374.712 317.949 373.49 310.939 374.239 303.999C374.988 297.059 377.676 290.47 381.997 284.985C376.975 278.654 448.46 257.816 448.46 261.992Z" fill="black"/>
<path d="M817.345 368.125C818.17 366.688 818.596 365.057 818.579 363.4C818.579 359.13 815.937 355.673 812.67 355.673C809.403 355.673 806.76 359.14 806.76 363.4C806.744 365.057 807.17 366.688 807.995 368.125C807.185 369.569 806.76 371.196 806.76 372.851C806.76 374.506 807.185 376.133 807.995 377.576C807.185 379.02 806.76 380.647 806.76 382.302C806.76 383.956 807.185 385.583 807.995 387.027C807.185 388.47 806.76 390.096 806.76 391.75C806.76 393.404 807.185 395.03 807.995 396.473C807.17 397.911 806.744 399.542 806.76 401.198C806.76 405.468 809.408 408.931 812.67 408.931C815.932 408.931 818.579 405.463 818.579 401.198C818.596 399.542 818.169 397.911 817.345 396.473C818.154 395.03 818.58 393.404 818.58 391.75C818.58 390.096 818.154 388.47 817.345 387.027C818.154 385.583 818.579 383.956 818.579 382.302C818.579 380.647 818.154 379.02 817.345 377.576C818.154 376.133 818.579 374.506 818.579 372.851C818.579 371.196 818.154 369.569 817.345 368.125Z" fill="#3F3D56"/>
<path d="M812.67 361.686C815.933 361.686 818.579 358.225 818.579 353.954C818.579 349.684 815.933 346.222 812.67 346.222C809.406 346.222 806.76 349.684 806.76 353.954C806.76 358.225 809.406 361.686 812.67 361.686Z" fill="#3F3D56"/>
<path d="M812.67 352.235C815.933 352.235 818.579 348.774 818.579 344.503C818.579 340.233 815.933 336.771 812.67 336.771C809.406 336.771 806.76 340.233 806.76 344.503C806.76 348.774 809.406 352.235 812.67 352.235Z" fill="#3F3D56"/>
<path d="M790.543 279.843C789.735 278.816 789 277.733 788.342 276.604L803.875 274.053L787.073 274.182C785.464 270.677 784.586 266.882 784.493 263.028C784.4 259.174 785.094 255.341 786.533 251.763L809.07 263.448L788.288 248.192C790.236 244.833 792.856 241.912 795.984 239.608C799.112 237.305 802.681 235.67 806.468 234.804C810.256 233.938 814.181 233.861 818 234.576C821.819 235.292 825.45 236.785 828.666 238.963C831.883 241.14 834.616 243.956 836.696 247.235C838.777 250.514 840.159 254.186 840.758 258.021C841.356 261.857 841.159 265.775 840.176 269.53C839.194 273.286 837.449 276.8 835.049 279.853C836.309 281.451 837.393 283.18 838.281 285.01L818.118 295.476L839.625 288.254C841.137 292.712 841.511 297.478 840.714 302.117C839.917 306.757 837.973 311.124 835.059 314.823C838.344 318.996 840.388 324.008 840.957 329.286C841.526 334.565 840.596 339.897 838.275 344.672C835.954 349.448 832.334 353.474 827.83 356.291C823.326 359.108 818.12 360.602 812.806 360.602C807.492 360.602 802.286 359.108 797.782 356.291C793.278 353.474 789.658 349.448 787.337 344.672C785.016 339.897 784.086 334.565 784.655 329.286C785.224 324.008 787.268 318.996 790.553 314.823C786.628 309.837 784.494 303.677 784.494 297.333C784.494 290.989 786.628 284.83 790.553 279.843H790.543Z" fill="#57B894"/>
<path opacity="0.1" d="M841.112 297.333C841.122 303.679 838.985 309.842 835.049 314.823C838.334 318.996 840.378 324.008 840.947 329.286C841.516 334.565 840.586 339.896 838.265 344.672C835.944 349.447 832.324 353.474 827.82 356.291C823.316 359.108 818.11 360.602 812.796 360.602C807.482 360.602 802.276 359.108 797.772 356.291C793.268 353.474 789.648 349.447 787.327 344.672C785.006 339.896 784.076 334.565 784.645 329.286C785.214 324.008 787.258 318.996 790.543 314.823C786.746 310.009 841.112 294.158 841.112 297.333Z" fill="black"/>
<path d="M768.566 121.581H669.297V100.133C669.298 99.4589 669.165 98.7913 668.908 98.1684C668.65 97.5456 668.271 96.9796 667.794 96.503C667.317 96.0263 666.751 95.6483 666.127 95.3907C665.504 95.133 664.836 95.0007 664.161 95.0014H635.015V72.1519C635.015 71.2954 634.674 70.4739 634.068 69.8683C633.462 69.2626 632.639 68.9224 631.782 68.9224H594.217C593.36 68.9237 592.539 69.2643 591.933 69.8697C591.327 70.4751 590.986 71.2958 590.985 72.1519V95.0014H556.732C556.056 94.9994 555.387 95.1307 554.762 95.3877C554.137 95.6448 553.569 96.0224 553.091 96.4991C552.612 96.9759 552.232 97.5422 551.973 98.1658C551.714 98.7893 551.581 99.4579 551.581 100.133V121.566H456.943C456.666 121.567 456.401 121.678 456.206 121.874C456.011 122.07 455.902 122.335 455.902 122.611V407.38C455.902 407.657 456.011 407.922 456.206 408.117C456.401 408.313 456.666 408.424 456.943 408.425H519.851C520.129 408.424 520.394 408.313 520.59 408.118C520.786 407.922 520.896 407.657 520.898 407.38V369.052C520.899 368.775 521.009 368.51 521.205 368.314C521.401 368.118 521.667 368.008 521.944 368.007H548.517C548.794 368.008 549.058 368.119 549.254 368.314C549.449 368.51 549.558 368.775 549.558 369.052V407.36C549.558 407.636 549.667 407.9 549.861 408.096C550.055 408.292 550.319 408.403 550.594 408.406H674.914C675.191 408.403 675.455 408.292 675.649 408.096C675.844 407.901 675.954 407.636 675.955 407.36V369.052C675.955 368.776 676.064 368.512 676.258 368.316C676.452 368.12 676.716 368.009 676.992 368.007H703.565C703.842 368.007 704.109 368.117 704.305 368.313C704.501 368.509 704.611 368.774 704.611 369.052V407.36C704.612 407.637 704.723 407.902 704.919 408.098C705.115 408.294 705.38 408.404 705.657 408.406H768.566C768.842 408.403 769.106 408.292 769.301 408.096C769.496 407.901 769.606 407.636 769.607 407.36V122.626C769.607 122.35 769.497 122.084 769.302 121.889C769.107 121.693 768.842 121.582 768.566 121.581ZM509.634 354.722C509.632 354.996 509.523 355.259 509.329 355.452C509.135 355.646 508.872 355.756 508.597 355.757H469.739C469.602 355.758 469.467 355.731 469.341 355.68C469.214 355.628 469.1 355.552 469.003 355.456C468.906 355.359 468.829 355.245 468.777 355.119C468.725 354.993 468.698 354.858 468.698 354.722V341.462C468.697 341.325 468.723 341.189 468.775 341.062C468.827 340.936 468.904 340.82 469.001 340.723C469.098 340.626 469.213 340.549 469.339 340.496C469.466 340.444 469.602 340.417 469.739 340.417H508.597C508.873 340.419 509.137 340.531 509.331 340.726C509.525 340.922 509.634 341.186 509.634 341.462V354.722ZM509.634 320.46C509.634 320.735 509.525 320.999 509.33 321.194C509.136 321.389 508.873 321.499 508.597 321.5H469.739C469.602 321.5 469.466 321.473 469.339 321.421C469.213 321.368 469.098 321.291 469.001 321.194C468.904 321.097 468.827 320.981 468.775 320.855C468.723 320.728 468.697 320.592 468.698 320.455V307.21C468.697 307.073 468.723 306.937 468.775 306.81C468.827 306.684 468.904 306.568 469.001 306.471C469.098 306.374 469.213 306.297 469.339 306.244C469.466 306.192 469.602 306.165 469.739 306.165H508.597C508.734 306.165 508.869 306.193 508.995 306.246C509.122 306.299 509.236 306.376 509.332 306.473C509.428 306.57 509.505 306.685 509.556 306.811C509.608 306.938 509.634 307.073 509.634 307.21V320.46ZM509.634 286.208C509.634 286.483 509.525 286.747 509.33 286.942C509.136 287.137 508.873 287.247 508.597 287.248H469.739C469.463 287.248 469.198 287.139 469.003 286.944C468.807 286.748 468.698 286.484 468.698 286.208V272.958C468.697 272.821 468.723 272.685 468.775 272.558C468.827 272.432 468.904 272.316 469.001 272.219C469.098 272.122 469.213 272.045 469.339 271.992C469.466 271.94 469.602 271.913 469.739 271.913H508.597C508.873 271.915 509.137 272.027 509.331 272.222C509.525 272.418 509.634 272.683 509.634 272.958V286.208ZM509.634 251.946C509.634 252.083 509.608 252.218 509.556 252.344C509.504 252.47 509.428 252.585 509.332 252.681C509.236 252.778 509.121 252.855 508.995 252.907C508.869 252.959 508.734 252.986 508.597 252.986H469.739C469.602 252.987 469.466 252.961 469.34 252.909C469.213 252.856 469.098 252.78 469.001 252.683C468.904 252.586 468.828 252.471 468.776 252.345C468.723 252.219 468.697 252.083 468.698 251.946V238.691C468.697 238.554 468.723 238.419 468.776 238.292C468.828 238.166 468.904 238.051 469.001 237.954C469.098 237.857 469.213 237.781 469.34 237.729C469.466 237.677 469.602 237.65 469.739 237.651H508.597C508.734 237.651 508.869 237.678 508.995 237.73C509.121 237.783 509.236 237.859 509.332 237.956C509.428 238.053 509.504 238.167 509.556 238.294C509.608 238.42 509.634 238.555 509.634 238.691V251.946ZM509.634 217.689C509.634 217.965 509.525 218.229 509.331 218.425C509.137 218.621 508.873 218.732 508.597 218.734H469.739C469.602 218.734 469.466 218.707 469.339 218.655C469.213 218.602 469.098 218.525 469.001 218.428C468.904 218.331 468.827 218.216 468.775 218.089C468.723 217.962 468.697 217.826 468.698 217.689V204.429C468.698 204.293 468.725 204.158 468.777 204.032C468.829 203.906 468.906 203.792 469.003 203.696C469.1 203.599 469.214 203.523 469.341 203.471C469.467 203.42 469.602 203.393 469.739 203.394H508.597C508.872 203.395 509.135 203.505 509.329 203.699C509.523 203.893 509.632 204.155 509.634 204.429V217.689ZM509.634 183.437C509.632 183.711 509.523 183.974 509.329 184.168C509.135 184.362 508.872 184.471 508.597 184.473H469.739C469.602 184.473 469.467 184.447 469.341 184.395C469.214 184.343 469.1 184.267 469.003 184.171C468.906 184.075 468.829 183.961 468.777 183.835C468.725 183.709 468.698 183.574 468.698 183.437V170.177C468.698 169.901 468.807 169.636 469.002 169.44C469.197 169.244 469.462 169.134 469.739 169.132H508.597C508.873 169.135 509.137 169.246 509.331 169.442C509.525 169.638 509.634 169.902 509.634 170.177V183.437ZM509.634 149.175C509.634 149.312 509.608 149.447 509.556 149.574C509.505 149.7 509.428 149.815 509.332 149.912C509.236 150.009 509.122 150.087 508.995 150.14C508.869 150.192 508.734 150.22 508.597 150.221H469.739C469.602 150.221 469.466 150.194 469.339 150.141C469.213 150.088 469.098 150.011 469.001 149.914C468.904 149.817 468.827 149.702 468.775 149.575C468.723 149.448 468.697 149.312 468.698 149.175V135.925C468.697 135.788 468.723 135.653 468.775 135.526C468.827 135.399 468.904 135.284 469.001 135.187C469.098 135.09 469.213 135.013 469.339 134.96C469.466 134.907 469.602 134.88 469.739 134.88H508.597C508.734 134.881 508.869 134.908 508.995 134.961C509.122 135.014 509.236 135.091 509.332 135.188C509.428 135.286 509.505 135.401 509.556 135.527C509.608 135.653 509.634 135.789 509.634 135.925V149.175ZM601.748 354.737C601.748 354.873 601.721 355.008 601.669 355.134C601.616 355.26 601.54 355.374 601.443 355.47C601.346 355.567 601.231 355.643 601.105 355.695C600.979 355.746 600.844 355.773 600.707 355.772H561.853C561.578 355.772 561.313 355.663 561.117 355.469C560.921 355.275 560.81 355.012 560.807 354.737V341.462C560.809 341.185 560.919 340.92 561.115 340.724C561.311 340.529 561.576 340.418 561.853 340.417H600.707C600.844 340.417 600.98 340.444 601.107 340.496C601.233 340.549 601.348 340.626 601.445 340.723C601.542 340.82 601.618 340.936 601.67 341.062C601.722 341.189 601.749 341.325 601.748 341.462V354.737ZM601.748 320.475C601.749 320.612 601.722 320.748 601.67 320.874C601.618 321.001 601.542 321.116 601.445 321.214C601.348 321.311 601.233 321.388 601.107 321.44C600.98 321.493 600.844 321.52 600.707 321.52H561.853C561.576 321.52 561.31 321.41 561.114 321.214C560.917 321.018 560.807 320.752 560.807 320.475V307.21C560.807 306.933 560.917 306.667 561.114 306.471C561.31 306.275 561.576 306.165 561.853 306.165H600.707C600.844 306.165 600.98 306.192 601.107 306.244C601.233 306.297 601.348 306.374 601.445 306.471C601.542 306.568 601.618 306.684 601.67 306.81C601.722 306.937 601.749 307.073 601.748 307.21V320.475ZM601.748 286.223C601.748 286.499 601.639 286.763 601.443 286.958C601.248 287.153 600.983 287.263 600.707 287.263H561.853C561.577 287.263 561.311 287.154 561.115 286.959C560.919 286.764 560.809 286.499 560.807 286.223V272.958C560.809 272.681 560.919 272.416 561.115 272.22C561.311 272.025 561.576 271.914 561.853 271.913H600.707C600.844 271.913 600.98 271.94 601.107 271.992C601.233 272.045 601.348 272.122 601.445 272.219C601.542 272.316 601.618 272.432 601.67 272.558C601.722 272.685 601.749 272.821 601.748 272.958V286.223ZM601.748 251.961C601.749 252.098 601.722 252.233 601.67 252.36C601.618 252.486 601.542 252.601 601.445 252.698C601.348 252.795 601.233 252.871 601.106 252.923C600.98 252.975 600.844 253.002 600.707 253.001H561.853C561.716 253.002 561.58 252.975 561.453 252.923C561.327 252.871 561.211 252.795 561.114 252.698C561.017 252.602 560.94 252.487 560.887 252.36C560.834 252.234 560.807 252.098 560.807 251.961V238.691C560.807 238.554 560.834 238.418 560.887 238.292C560.94 238.165 561.017 238.051 561.114 237.954C561.211 237.857 561.327 237.781 561.453 237.729C561.58 237.677 561.716 237.65 561.853 237.651H600.707C600.844 237.65 600.98 237.677 601.106 237.729C601.233 237.781 601.348 237.857 601.445 237.954C601.542 238.051 601.618 238.166 601.67 238.292C601.722 238.419 601.749 238.554 601.748 238.691V251.961ZM601.748 217.704C601.749 217.841 601.722 217.977 601.67 218.104C601.618 218.23 601.542 218.346 601.445 218.443C601.348 218.54 601.233 218.617 601.107 218.67C600.98 218.722 600.844 218.749 600.707 218.749H561.853C561.576 218.748 561.311 218.637 561.115 218.442C560.919 218.246 560.809 217.981 560.807 217.704V204.429C560.81 204.154 560.921 203.891 561.117 203.697C561.313 203.503 561.578 203.394 561.853 203.394H600.707C600.844 203.393 600.979 203.42 601.105 203.471C601.231 203.523 601.346 203.599 601.443 203.696C601.54 203.792 601.616 203.906 601.669 204.032C601.721 204.158 601.748 204.293 601.748 204.429V217.704ZM601.748 183.452C601.748 183.589 601.721 183.724 601.669 183.849C601.616 183.975 601.54 184.09 601.443 184.186C601.346 184.282 601.231 184.358 601.105 184.41C600.979 184.462 600.844 184.488 600.707 184.487H561.853C561.578 184.487 561.313 184.379 561.117 184.185C560.921 183.991 560.81 183.728 560.807 183.452V170.177C560.809 169.901 560.919 169.636 561.115 169.44C561.311 169.244 561.576 169.134 561.853 169.132H600.707C600.984 169.134 601.248 169.244 601.444 169.44C601.639 169.636 601.748 169.901 601.748 170.177V183.452ZM601.748 149.19C601.749 149.327 601.722 149.463 601.67 149.59C601.618 149.717 601.542 149.832 601.445 149.929C601.348 150.026 601.233 150.103 601.107 150.156C600.98 150.208 600.844 150.235 600.707 150.235H561.853C561.576 150.235 561.31 150.125 561.114 149.929C560.917 149.733 560.807 149.468 560.807 149.19V135.925C560.807 135.648 560.917 135.382 561.114 135.186C561.31 134.99 561.576 134.88 561.853 134.88H600.707C600.844 134.88 600.98 134.907 601.107 134.96C601.233 135.013 601.348 135.09 601.445 135.187C601.542 135.284 601.618 135.399 601.67 135.526C601.722 135.653 601.749 135.788 601.748 135.925V149.19ZM664.711 354.752C664.711 354.888 664.683 355.023 664.63 355.149C664.577 355.275 664.5 355.389 664.403 355.486C664.306 355.582 664.191 355.658 664.064 355.71C663.937 355.761 663.802 355.787 663.665 355.787H624.797C624.521 355.787 624.257 355.678 624.062 355.484C623.867 355.29 623.757 355.027 623.756 354.752V341.462C623.756 341.186 623.865 340.92 624.06 340.725C624.255 340.529 624.52 340.418 624.797 340.417H663.65C663.928 340.417 664.194 340.527 664.39 340.723C664.586 340.919 664.696 341.185 664.696 341.462L664.711 354.752ZM664.711 320.49C664.712 320.627 664.685 320.763 664.633 320.89C664.581 321.018 664.504 321.133 664.406 321.23C664.309 321.327 664.194 321.404 664.066 321.457C663.939 321.509 663.803 321.535 663.665 321.535H624.797C624.52 321.534 624.255 321.423 624.06 321.227C623.865 321.031 623.756 320.766 623.756 320.49V307.21C623.756 306.934 623.865 306.669 624.06 306.473C624.255 306.277 624.52 306.166 624.797 306.165H663.65C663.788 306.164 663.924 306.191 664.051 306.243C664.179 306.295 664.294 306.372 664.392 306.469C664.489 306.567 664.566 306.682 664.618 306.809C664.671 306.936 664.697 307.073 664.696 307.21L664.711 320.49ZM664.711 286.238C664.71 286.514 664.599 286.779 664.403 286.974C664.207 287.169 663.942 287.278 663.665 287.278H624.797C624.521 287.277 624.257 287.167 624.062 286.972C623.867 286.777 623.757 286.513 623.756 286.238V272.958C623.756 272.682 623.865 272.417 624.06 272.221C624.255 272.025 624.52 271.914 624.797 271.913H663.65C663.928 271.913 664.194 272.023 664.39 272.219C664.586 272.415 664.696 272.681 664.696 272.958L664.711 286.238ZM664.711 251.976C664.711 252.113 664.684 252.249 664.632 252.375C664.579 252.502 664.502 252.617 664.405 252.713C664.307 252.81 664.192 252.886 664.065 252.938C663.938 252.99 663.802 253.017 663.665 253.016H624.797C624.66 253.016 624.525 252.989 624.398 252.937C624.272 252.885 624.157 252.808 624.06 252.711C623.964 252.615 623.887 252.5 623.835 252.374C623.782 252.248 623.756 252.112 623.756 251.976V238.691C623.756 238.555 623.782 238.419 623.835 238.293C623.887 238.167 623.964 238.052 624.06 237.956C624.157 237.859 624.272 237.782 624.398 237.73C624.525 237.678 624.66 237.651 624.797 237.651H663.65C663.788 237.65 663.923 237.677 664.05 237.729C664.177 237.781 664.293 237.857 664.39 237.954C664.487 238.051 664.564 238.165 664.617 238.292C664.669 238.418 664.696 238.554 664.696 238.691L664.711 251.976ZM664.711 217.719C664.711 217.996 664.601 218.262 664.405 218.458C664.209 218.654 663.943 218.764 663.665 218.764H624.797C624.52 218.763 624.255 218.652 624.06 218.456C623.865 218.26 623.756 217.995 623.756 217.719V204.429C623.757 204.154 623.867 203.891 624.062 203.697C624.257 203.503 624.521 203.394 624.797 203.394H663.65C663.787 203.393 663.923 203.42 664.049 203.471C664.176 203.523 664.291 203.599 664.388 203.695C664.485 203.791 664.562 203.906 664.615 204.032C664.668 204.158 664.696 204.293 664.696 204.429L664.711 217.719ZM664.711 183.467C664.711 183.604 664.683 183.739 664.63 183.865C664.577 183.991 664.5 184.105 664.403 184.201C664.306 184.297 664.191 184.373 664.064 184.425C663.937 184.477 663.802 184.503 663.665 184.502H624.797C624.521 184.502 624.257 184.393 624.062 184.199C623.867 184.005 623.757 183.742 623.756 183.467V170.177C623.757 169.901 623.867 169.637 624.062 169.442C624.256 169.246 624.52 169.135 624.797 169.132H663.65C663.927 169.134 664.193 169.244 664.389 169.44C664.585 169.636 664.695 169.901 664.696 170.177L664.711 183.467ZM664.711 149.205C664.712 149.343 664.685 149.479 664.633 149.606C664.581 149.733 664.504 149.848 664.406 149.946C664.309 150.043 664.194 150.12 664.066 150.172C663.939 150.224 663.803 150.251 663.665 150.25H624.797C624.52 150.249 624.255 150.138 624.06 149.942C623.865 149.747 623.756 149.482 623.756 149.205V135.925C623.756 135.649 623.865 135.384 624.06 135.188C624.255 134.992 624.52 134.882 624.797 134.88H663.65C663.788 134.88 663.924 134.906 664.051 134.959C664.179 135.011 664.294 135.088 664.392 135.185C664.489 135.282 664.566 135.398 664.618 135.525C664.671 135.652 664.697 135.788 664.696 135.925L664.711 149.205ZM756.831 354.722C756.828 354.997 756.717 355.261 756.521 355.454C756.325 355.648 756.061 355.757 755.785 355.757H716.916C716.779 355.758 716.644 355.731 716.517 355.68C716.391 355.628 716.276 355.552 716.179 355.456C716.081 355.36 716.004 355.245 715.951 355.12C715.898 354.994 715.871 354.858 715.87 354.722V341.462C715.87 341.185 715.98 340.919 716.177 340.723C716.373 340.527 716.639 340.417 716.916 340.417H755.77C755.908 340.415 756.046 340.441 756.174 340.493C756.302 340.545 756.419 340.622 756.518 340.719C756.616 340.816 756.695 340.932 756.749 341.059C756.802 341.187 756.83 341.324 756.831 341.462V354.722ZM756.831 320.46C756.831 320.737 756.721 321.003 756.525 321.199C756.328 321.395 756.062 321.505 755.785 321.505H716.916C716.779 321.506 716.642 321.479 716.515 321.427C716.388 321.375 716.272 321.298 716.175 321.2C716.078 321.103 716.001 320.988 715.948 320.861C715.896 320.734 715.869 320.597 715.87 320.46V307.21C715.869 307.073 715.896 306.936 715.948 306.809C716.001 306.682 716.078 306.567 716.175 306.469C716.272 306.372 716.388 306.295 716.515 306.243C716.642 306.191 716.779 306.164 716.916 306.165H755.77C756.047 306.165 756.313 306.275 756.51 306.471C756.706 306.667 756.816 306.933 756.816 307.21L756.831 320.46ZM756.831 286.208C756.83 286.484 756.719 286.749 756.523 286.944C756.327 287.139 756.061 287.248 755.785 287.248H716.916C716.64 287.248 716.374 287.139 716.178 286.944C715.982 286.749 715.871 286.484 715.87 286.208V272.958C715.87 272.681 715.98 272.415 716.177 272.219C716.373 272.023 716.639 271.913 716.916 271.913H755.77C755.908 271.912 756.046 271.938 756.174 271.989C756.302 272.041 756.419 272.118 756.518 272.215C756.616 272.312 756.695 272.428 756.749 272.555C756.802 272.683 756.83 272.82 756.831 272.958V286.208ZM756.831 251.946C756.831 252.083 756.804 252.219 756.751 252.345C756.699 252.472 756.621 252.587 756.524 252.683C756.427 252.78 756.312 252.857 756.185 252.909C756.058 252.961 755.922 252.987 755.785 252.986H716.916C716.779 252.987 716.643 252.961 716.516 252.909C716.389 252.857 716.274 252.78 716.177 252.683C716.08 252.587 716.002 252.472 715.95 252.345C715.897 252.219 715.87 252.083 715.87 251.946V238.691C715.87 238.554 715.897 238.418 715.95 238.292C716.002 238.165 716.08 238.051 716.177 237.954C716.274 237.857 716.389 237.781 716.516 237.729C716.643 237.677 716.779 237.65 716.916 237.651H755.77C755.907 237.65 756.043 237.677 756.17 237.729C756.297 237.781 756.412 237.857 756.509 237.954C756.607 238.051 756.684 238.165 756.736 238.292C756.789 238.418 756.816 238.554 756.816 238.691L756.831 251.946ZM756.831 217.689C756.83 217.966 756.719 218.231 756.523 218.427C756.327 218.623 756.062 218.733 755.785 218.734H716.916C716.639 218.734 716.373 218.624 716.177 218.428C715.98 218.232 715.87 217.966 715.87 217.689V204.429C715.871 204.293 715.898 204.158 715.951 204.032C716.004 203.906 716.081 203.791 716.179 203.695C716.276 203.599 716.391 203.523 716.517 203.471C716.644 203.42 716.779 203.393 716.916 203.394H755.77C756.046 203.394 756.31 203.503 756.506 203.697C756.702 203.891 756.813 204.154 756.816 204.429L756.831 217.689ZM756.831 183.437C756.828 183.713 756.717 183.976 756.521 184.17C756.325 184.364 756.061 184.473 755.785 184.473H716.916C716.779 184.473 716.644 184.447 716.517 184.395C716.391 184.344 716.276 184.268 716.179 184.171C716.081 184.075 716.004 183.961 715.951 183.835C715.898 183.709 715.871 183.574 715.87 183.437V170.177C715.871 169.901 715.982 169.636 716.178 169.44C716.374 169.244 716.639 169.134 716.916 169.132H755.77C755.908 169.131 756.046 169.157 756.174 169.209C756.302 169.261 756.419 169.337 756.518 169.435C756.616 169.532 756.695 169.647 756.749 169.775C756.802 169.902 756.83 170.039 756.831 170.177V183.437ZM756.831 149.175C756.831 149.453 756.721 149.718 756.525 149.914C756.328 150.11 756.062 150.221 755.785 150.221H716.916C716.779 150.221 716.642 150.195 716.515 150.142C716.388 150.09 716.272 150.013 716.175 149.916C716.078 149.819 716.001 149.703 715.948 149.576C715.896 149.449 715.869 149.313 715.87 149.175V135.925C715.869 135.788 715.896 135.652 715.948 135.525C716.001 135.398 716.078 135.282 716.175 135.185C716.272 135.088 716.388 135.011 716.515 134.959C716.642 134.906 716.779 134.88 716.916 134.88H755.77C756.047 134.88 756.313 134.99 756.51 135.186C756.706 135.382 756.816 135.648 756.816 135.925L756.831 149.175Z" fill="#F2F2F2"/>
<path d="M514.145 40.6491L505.648 46.0482L510.804 36.6865C509.344 35.52 507.536 34.8749 505.667 34.8538H505.533C504.942 34.8618 504.352 34.8171 503.769 34.72L500.888 36.5428L502.123 34.304C500.084 33.5909 498.322 32.2547 497.086 30.485L491.934 33.7492L495.192 27.835C492.177 24.2191 488.122 22 483.66 22C478.301 22 473.526 25.185 470.448 30.1432C469.537 31.6283 468.249 32.8461 466.715 33.6726C465.18 34.4991 463.454 34.905 461.712 34.8488H461.425C455.51 34.8488 450.711 41.5506 450.711 49.8176C450.711 58.0847 455.51 64.7865 461.425 64.7865C462.725 64.7813 464.005 64.46 465.153 63.8503C469.015 61.869 474.077 61.8095 478.117 63.5977C479.85 64.3771 481.728 64.7822 483.628 64.7865C485.528 64.7907 487.407 64.3941 489.143 63.6224C493.149 61.869 498.161 61.9086 501.994 63.8701C503.131 64.4684 504.397 64.7828 505.682 64.7865C511.597 64.7865 516.396 58.0847 516.396 49.8176C516.428 46.6211 515.654 43.468 514.145 40.6491Z" fill="#F2F2F2"/>
<path opacity="0.03" d="M498.132 62.5673C495.042 61.9797 491.847 62.3246 488.955 63.5579C487.221 64.3303 485.343 64.7295 483.444 64.7295C481.546 64.7295 479.668 64.3303 477.934 63.5579C473.893 61.7649 468.827 61.8045 464.969 63.8106C463.819 64.4188 462.538 64.7384 461.236 64.7418C455.981 64.7418 451.613 59.4517 450.701 52.4774C451.751 51.7123 452.643 50.7519 453.329 49.6491C456.407 44.6958 461.182 41.501 466.541 41.501C471.9 41.501 476.615 44.6116 479.694 49.5352C480.612 51.0183 481.899 52.2391 483.428 53.0792C484.958 53.9193 486.679 54.3501 488.424 54.33H488.558C492.748 54.325 496.372 57.6784 498.132 62.5673Z" fill="black"/>
<path d="M805.823 77.6948L799.834 81.489L803.468 74.8863C802.439 74.0652 801.166 73.6102 799.849 73.5935H799.755C799.338 73.5972 798.922 73.5657 798.51 73.4994L796.483 74.7872L797.35 73.2071C795.913 72.7035 794.671 71.7608 793.801 70.5125L790.172 72.8455L792.462 68.6749C790.34 66.1289 787.504 64.5686 784.326 64.5686C780.549 64.5686 777.187 66.8124 775.016 70.3095C774.375 71.3569 773.467 72.2156 772.385 72.7978C771.304 73.38 770.086 73.6649 768.858 73.6232H768.655C764.486 73.6232 761.109 78.3486 761.109 84.1737C761.109 89.9988 764.486 94.7242 768.655 94.7242C769.573 94.7205 770.476 94.4944 771.288 94.0654C772.707 93.3772 774.259 93.0048 775.837 92.974C777.414 92.9432 778.979 93.2548 780.425 93.8871C781.646 94.4324 782.969 94.7143 784.307 94.7143C785.644 94.7143 786.967 94.4324 788.188 93.8871C789.623 93.2659 791.173 92.9598 792.736 92.9898C794.299 93.0197 795.837 93.3848 797.246 94.0605C798.05 94.4797 798.942 94.7005 799.849 94.7044C804.019 94.7044 807.4 89.979 807.4 84.1539C807.425 81.9028 806.883 79.6815 805.823 77.6948Z" fill="#F2F2F2"/>
<path opacity="0.03" d="M794.539 93.1539C792.369 92.7438 790.126 92.9869 788.094 93.8523C786.873 94.3993 785.549 94.6821 784.21 94.6821C782.871 94.6821 781.547 94.3993 780.326 93.8523C778.88 93.22 777.315 92.9085 775.737 92.9393C774.16 92.9701 772.608 93.3424 771.188 94.0307C770.379 94.4597 769.477 94.6857 768.561 94.6894C764.857 94.6894 761.774 90.9596 761.124 86.041C761.862 85.5052 762.49 84.8326 762.974 84.0597C765.145 80.5627 768.511 78.3188 772.289 78.3188C776.067 78.3188 779.389 80.533 781.56 83.9953C782.208 85.0396 783.115 85.8991 784.193 86.4909C785.27 87.0827 786.483 87.3866 787.713 87.3734H787.807C790.742 87.3239 793.295 89.6866 794.539 93.1539Z" fill="black"/>
<path d="M730.937 42.1351L726.747 44.7901L729.291 40.1538C728.57 39.5807 727.678 39.2635 726.757 39.2523H726.688C726.397 39.2584 726.107 39.2368 725.82 39.1879L724.397 40.0894L725.007 38.9799C724.002 38.6307 723.134 37.9716 722.528 37.0976L719.985 38.7075L721.591 35.79C720.915 34.9179 720.053 34.2071 719.068 33.7093C718.082 33.2116 716.999 32.9392 715.895 32.9121C713.247 32.9121 710.892 34.4873 709.375 36.9342C708.925 37.6664 708.288 38.2668 707.531 38.6747C706.774 39.0826 705.922 39.2835 705.062 39.2573H704.923C702.003 39.2573 699.638 42.5661 699.638 46.6426C699.638 50.7192 701.998 54.023 704.918 54.023C705.56 54.0203 706.191 53.8622 706.758 53.5623C707.751 53.0789 708.837 52.8174 709.942 52.796C711.046 52.7746 712.142 52.9939 713.153 53.4385C714.015 53.8219 714.947 54.021 715.89 54.023C716.821 54.0213 717.741 53.8256 718.592 53.4484C719.596 53.0148 720.682 52.8015 721.776 52.8229C722.87 52.8442 723.946 53.0998 724.933 53.5723C725.496 53.8664 726.122 54.021 726.757 54.023C729.672 54.023 732.042 50.7142 732.042 46.6377C732.055 45.0682 731.675 43.5204 730.937 42.1351Z" fill="#F2F2F2"/>
<path opacity="0.03" d="M723.039 52.9183C721.513 52.6306 719.935 52.8031 718.508 53.4136C717.65 53.7961 716.72 53.9937 715.781 53.9937C714.841 53.9937 713.912 53.7961 713.054 53.4136C712.042 52.9715 710.947 52.7537 709.843 52.7751C708.739 52.7965 707.652 53.0565 706.659 53.5374C706.092 53.839 705.461 53.9972 704.819 53.9981C702.221 53.9981 700.065 51.3877 699.619 47.9452C700.137 47.5683 700.577 47.0938 700.913 46.5484C702.435 44.1014 704.79 42.5312 707.432 42.5312C710.075 42.5312 712.39 44.0816 713.927 46.4939C714.379 47.2264 715.014 47.8295 715.769 48.2444C716.524 48.6593 717.373 48.8719 718.235 48.8615H718.299C720.382 48.8566 722.166 50.511 723.039 52.9183Z" fill="black"/>
<path d="M442.724 405.736C443.745 403.854 442.59 401.545 441.237 399.861C439.883 398.177 438.287 396.434 438.322 394.289C438.371 391.213 441.638 389.395 444.271 387.765C446.21 386.554 447.999 385.117 449.6 383.486C450.27 382.857 450.824 382.116 451.236 381.296C451.777 380.093 451.762 378.726 451.732 377.408C451.617 373.016 451.398 368.627 451.078 364.242" stroke="#3F3D56" stroke-width="4" stroke-miterlimit="10"/>
<path d="M456.045 364.004C456.008 363.2 455.768 362.419 455.349 361.732C454.929 361.044 454.344 360.473 453.646 360.072L452.57 362.196L452.605 359.626C451.628 359.338 450.585 359.368 449.626 359.711C448.667 360.055 447.842 360.694 447.271 361.536C446.699 362.378 446.41 363.38 446.446 364.397C446.481 365.414 446.839 366.393 447.468 367.194C448.097 367.994 448.964 368.574 449.945 368.85C450.925 369.126 451.968 369.083 452.922 368.728C453.877 368.373 454.694 367.724 455.255 366.875C455.816 366.026 456.093 365.021 456.045 364.004Z" fill="#57B894"/>
<path d="M447.469 396.493C446.985 397.435 446.202 398.19 445.244 398.641C444.286 399.093 443.205 399.215 442.17 398.989C441.134 398.763 440.203 398.201 439.521 397.392C438.838 396.582 438.443 395.569 438.396 394.512C438.366 393.848 438.473 393.186 438.708 392.565C439.059 391.655 439.679 390.874 440.485 390.324C441.292 389.774 442.246 389.483 443.222 389.488C444.198 389.494 445.149 389.796 445.949 390.354C446.75 390.912 447.361 391.701 447.702 392.615L444.702 395.057L447.999 394.294C448.002 395.059 447.82 395.813 447.469 396.493Z" fill="#57B894"/>
<path d="M445.104 387.171C444.474 387.2 443.844 387.105 443.25 386.891C442.657 386.677 442.111 386.349 441.645 385.924C441.179 385.5 440.8 384.987 440.532 384.417C440.264 383.846 440.111 383.229 440.082 382.599C440.045 381.848 440.188 381.099 440.498 380.415C440.786 379.773 441.211 379.202 441.744 378.742C442.277 378.283 442.904 377.946 443.582 377.755V379.736L444.667 377.586C445.298 377.557 445.928 377.652 446.521 377.866C447.115 378.08 447.66 378.408 448.126 378.833C448.593 379.257 448.971 379.77 449.239 380.34C449.507 380.911 449.66 381.528 449.69 382.158C449.719 382.711 449.65 383.264 449.486 383.793C449.193 384.738 448.615 385.57 447.83 386.175C447.046 386.78 446.094 387.127 445.104 387.171Z" fill="#57B894"/>
<path d="M456.769 379.419C456.024 379.459 455.28 379.325 454.596 379.027C453.911 378.73 453.306 378.278 452.827 377.706C452.347 377.135 452.008 376.46 451.835 375.734C451.662 375.009 451.661 374.254 451.83 373.528C452 372.802 452.337 372.125 452.814 371.552C453.29 370.978 453.894 370.523 454.577 370.223C455.26 369.923 456.004 369.786 456.749 369.822C457.494 369.859 458.221 370.068 458.871 370.434L458.024 372.762L459.769 371.083C460.232 371.506 460.608 372.017 460.874 372.585C461.141 373.154 461.292 373.769 461.32 374.396C461.344 374.841 461.304 375.286 461.201 375.719C460.964 376.732 460.404 377.641 459.604 378.309C458.805 378.976 457.81 379.366 456.769 379.419Z" fill="#57B894"/>
<path opacity="0.1" d="M455.401 365.282C454.29 365.406 453.215 365.748 452.099 365.817C450.984 365.887 449.764 365.619 449.06 364.757C448.732 364.254 448.436 363.732 448.173 363.192C447.869 362.72 447.454 362.331 446.963 362.058C446.653 362.666 446.477 363.334 446.445 364.016C446.414 364.698 446.529 365.378 446.782 366.013C447.035 366.647 447.421 367.219 447.913 367.693C448.405 368.166 448.993 368.529 449.637 368.758C450.281 368.986 450.966 369.075 451.647 369.017C452.328 368.96 452.989 368.759 453.586 368.426C454.182 368.093 454.701 367.637 455.107 367.088C455.513 366.539 455.798 365.91 455.941 365.243C455.763 365.253 455.579 365.263 455.401 365.282Z" fill="black"/>
<path opacity="0.1" d="M456.769 379.419C455.941 379.457 455.117 379.281 454.377 378.907C453.637 378.533 453.006 377.974 452.546 377.285C452.086 376.595 451.812 375.799 451.751 374.972C451.69 374.146 451.844 373.318 452.198 372.569C452.582 372.833 452.91 373.17 453.165 373.559C453.451 374.106 453.769 374.635 454.117 375.144C454.866 376.021 456.145 376.308 457.305 376.259C458.465 376.209 459.58 375.872 460.735 375.763C460.894 375.763 461.058 375.763 461.231 375.734C460.99 376.749 460.423 377.658 459.618 378.323C458.813 378.988 457.813 379.373 456.769 379.419Z" fill="black"/>
<path opacity="0.1" d="M445.104 387.171C444.474 387.2 443.844 387.105 443.25 386.891C442.657 386.677 442.111 386.349 441.645 385.924C441.179 385.5 440.8 384.987 440.532 384.417C440.264 383.846 440.111 383.229 440.082 382.599C440.045 381.848 440.188 381.099 440.498 380.415C440.894 380.681 441.238 381.017 441.514 381.405C441.829 381.963 442.177 382.503 442.555 383.02C443.364 383.926 444.727 384.243 445.956 384.214C447.186 384.184 448.292 383.897 449.476 383.803C449.182 384.745 448.605 385.574 447.822 386.176C447.04 386.779 446.091 387.126 445.104 387.171Z" fill="black"/>
<path opacity="0.1" d="M447.469 396.493C446.985 397.435 446.202 398.19 445.244 398.641C444.286 399.093 443.205 399.215 442.17 398.989C441.134 398.763 440.203 398.201 439.521 397.391C438.838 396.582 438.443 395.569 438.396 394.512C438.366 393.848 438.473 393.186 438.708 392.565C439.106 392.824 439.462 393.141 439.764 393.506C440.162 394.097 440.59 394.665 441.048 395.21C442.04 396.171 443.616 396.572 445.015 396.607C445.834 396.617 446.654 396.579 447.469 396.493Z" fill="black"/>
<path d="M435.481 404.933C435.481 404.933 439.273 403.447 440.439 402.64C441.604 401.833 446.274 400.852 446.556 402.145C446.839 403.437 452.228 408.643 447.964 408.678C443.701 408.713 438.014 409.381 436.874 408.678C435.734 407.975 435.481 404.933 435.481 404.933Z" fill="#656380"/>
<path opacity="0.2" d="M448.024 408.222C443.745 408.257 438.079 408.926 436.938 408.222C436.071 407.692 435.724 405.795 435.605 404.918H435.481C435.481 404.918 435.719 407.975 436.859 408.668C437.999 409.362 443.666 408.698 447.95 408.668C449.184 408.668 449.61 408.217 449.591 407.568C449.417 407.97 448.956 408.217 448.024 408.222Z" fill="black"/>
<path d="M707.343 406.003C706.659 404.74 707.437 403.19 708.334 402.041C709.232 400.892 710.317 399.737 710.288 398.296C710.258 396.23 708.062 395.012 706.321 393.917C705.021 393.103 703.822 392.139 702.747 391.044C702.296 390.617 701.923 390.114 701.646 389.558C701.344 388.722 701.231 387.829 701.314 386.943C701.394 383.994 701.541 381.049 701.755 378.106" stroke="#3F3D56" stroke-width="4" stroke-miterlimit="10"/>
<path d="M698.399 377.968C698.425 377.428 698.586 376.904 698.867 376.442C699.149 375.981 699.542 375.598 700.01 375.328L700.734 376.754L700.709 375.026C701.055 374.924 701.415 374.882 701.775 374.902C702.413 374.932 703.027 375.15 703.541 375.529C704.054 375.908 704.444 376.431 704.66 377.031C704.876 377.632 704.909 378.282 704.755 378.901C704.601 379.52 704.266 380.08 703.794 380.509C703.321 380.938 702.732 381.217 702.101 381.312C701.469 381.406 700.824 381.311 700.246 381.039C699.669 380.767 699.185 380.33 698.856 379.784C698.527 379.237 698.368 378.605 698.399 377.968Z" fill="#57B894"/>
<path d="M704.155 399.797C704.494 400.453 705.049 400.973 705.726 401.269C706.403 401.565 707.162 401.62 707.874 401.423C708.587 401.227 709.21 400.792 709.64 400.191C710.07 399.591 710.28 398.86 710.235 398.123C710.19 397.386 709.892 396.687 709.393 396.143C708.893 395.599 708.221 395.243 707.49 395.135C706.759 395.026 706.012 395.173 705.376 395.549C704.74 395.925 704.253 396.509 703.996 397.201L706.014 398.836L703.793 398.341C703.798 398.848 703.922 399.347 704.155 399.797Z" fill="#57B894"/>
<path d="M705.766 393.536C706.19 393.556 706.613 393.492 707.011 393.349C707.41 393.205 707.776 392.984 708.089 392.699C708.403 392.414 708.656 392.07 708.836 391.686C709.016 391.303 709.118 390.888 709.137 390.465C709.166 389.954 709.071 389.445 708.86 388.979C708.667 388.548 708.381 388.164 708.023 387.856C707.665 387.548 707.243 387.322 706.788 387.196V388.523L706.054 387.077C705.199 387.038 704.363 387.339 703.73 387.915C703.097 388.491 702.719 389.294 702.678 390.148C702.663 390.52 702.71 390.891 702.816 391.248C703.01 391.887 703.398 392.451 703.926 392.861C704.455 393.271 705.098 393.507 705.766 393.536Z" fill="#57B894"/>
<path d="M697.913 388.33C698.412 388.353 698.91 388.261 699.368 388.059C699.825 387.858 700.229 387.553 700.548 387.168C700.867 386.784 701.093 386.331 701.207 385.845C701.321 385.359 701.321 384.853 701.206 384.367C701.091 383.881 700.864 383.428 700.544 383.045C700.224 382.661 699.82 382.357 699.362 382.156C698.904 381.956 698.406 381.864 697.907 381.888C697.408 381.913 696.921 382.052 696.485 382.297L697.055 383.857L695.885 382.733C695.258 383.307 694.883 384.107 694.844 384.957C694.828 385.256 694.855 385.556 694.924 385.848C695.084 386.53 695.463 387.141 696.003 387.589C696.542 388.037 697.213 388.297 697.913 388.33Z" fill="#57B894"/>
<path opacity="0.1" d="M698.825 378.839C699.569 378.919 700.313 379.152 701.042 379.196C701.416 379.244 701.797 379.202 702.153 379.075C702.509 378.947 702.83 378.738 703.089 378.463C703.308 378.124 703.509 377.774 703.689 377.413C703.892 377.096 704.169 376.834 704.497 376.65C704.754 377.147 704.873 377.702 704.844 378.26C704.805 379.04 704.484 379.779 703.94 380.34C703.396 380.901 702.667 381.246 701.888 381.311C701.109 381.376 700.333 381.156 699.704 380.692C699.075 380.229 698.636 379.553 698.469 378.79C698.592 378.815 698.711 378.825 698.825 378.839Z" fill="black"/>
<path opacity="0.1" d="M697.913 388.33C698.47 388.357 699.024 388.24 699.521 387.989C700.019 387.739 700.443 387.364 700.752 386.901C701.061 386.438 701.245 385.903 701.285 385.347C701.325 384.792 701.221 384.236 700.982 383.733C700.716 383.911 700.488 384.14 700.313 384.407C700.123 384.775 699.909 385.131 699.673 385.472C699.395 385.748 699.059 385.958 698.689 386.087C698.32 386.217 697.926 386.262 697.536 386.22C696.758 386.185 696.004 385.962 695.231 385.893C695.122 385.893 695.013 385.893 694.904 385.893C695.074 386.57 695.459 387.173 696.002 387.613C696.544 388.052 697.215 388.304 697.913 388.33Z" fill="black"/>
<path opacity="0.1" d="M705.766 393.536C706.19 393.556 706.613 393.492 707.011 393.349C707.41 393.205 707.776 392.984 708.089 392.699C708.403 392.414 708.656 392.069 708.836 391.686C709.016 391.303 709.118 390.888 709.138 390.465C709.166 389.954 709.071 389.444 708.86 388.979C708.595 389.153 708.365 389.375 708.181 389.633C707.969 390.01 707.734 390.374 707.477 390.722C707.174 391.007 706.814 391.225 706.421 391.363C706.028 391.5 705.611 391.554 705.196 391.52C704.393 391.52 703.625 391.307 702.831 391.247C703.024 391.885 703.41 392.447 703.935 392.857C704.461 393.267 705.1 393.504 705.766 393.536Z" fill="black"/>
<path opacity="0.1" d="M704.155 399.797C704.537 400.523 705.181 401.076 705.957 401.345C706.733 401.613 707.582 401.576 708.331 401.24C709.081 400.905 709.674 400.297 709.99 399.54C710.307 398.784 710.323 397.935 710.035 397.167C709.769 397.34 709.53 397.552 709.326 397.796C709.06 398.193 708.772 398.575 708.463 398.94C707.716 399.566 706.766 399.9 705.791 399.881C705.245 399.883 704.698 399.855 704.155 399.797Z" fill="black"/>
<path d="M712.211 405.122C712.211 405.122 709.663 404.468 708.895 403.923C708.126 403.378 704.978 402.724 704.79 403.601C704.601 404.478 700.962 407.955 703.838 407.98C706.713 408.004 710.516 408.108 711.274 407.643C712.033 407.177 712.211 405.122 712.211 405.122Z" fill="#656380"/>
<path opacity="0.2" d="M703.783 407.687C706.659 407.687 710.466 407.816 711.22 407.351C711.805 406.999 712.038 405.721 712.112 405.136H712.211C712.211 405.136 712.048 407.192 711.284 407.658C710.521 408.123 706.713 408.014 703.848 407.995C703.015 407.995 702.732 407.692 702.747 407.256C702.851 407.504 703.168 407.687 703.783 407.687Z" fill="black"/>
<path d="M723.217 407.979H470.869V408.97H723.217V407.979Z" fill="#3F3D56"/>
<path d="M866 407.979H732.141V408.97H866V407.979Z" fill="#3F3D56"/>
<path d="M461.945 407.979H378.16V408.97H461.945V407.979Z" fill="#3F3D56"/>
<path d="M618.671 265.896C616.623 259.822 610.036 256.557 603.958 258.602C597.881 260.648 594.614 267.229 596.661 273.303L601.316 287.109C603.364 293.183 609.951 296.448 616.028 294.403C622.106 292.357 625.373 285.776 623.325 279.702L618.671 265.896Z" fill="#FF6584"/>
<path d="M604.291 273.389C604.291 273.389 608.605 279.576 604.291 281.19C599.978 282.805 598.342 287.382 598.342 287.382C598.342 287.382 596.994 292.766 599.958 293.821C602.923 294.876 614.237 288.709 615.853 287.095C617.469 285.48 615.853 281.151 615.853 281.151C615.853 281.151 611.545 275.207 611.812 271.462C612.08 267.717 604.291 273.389 604.291 273.389Z" fill="#FBBEBE"/>
<path opacity="0.1" d="M604.291 273.389C604.291 273.389 608.605 279.576 604.291 281.19C599.978 282.805 598.342 287.382 598.342 287.382C598.342 287.382 596.994 292.766 599.958 293.821C602.923 294.876 614.237 288.709 615.853 287.095C617.469 285.48 615.853 281.151 615.853 281.151C615.853 281.151 611.545 275.207 611.812 271.462C612.08 267.717 604.291 273.389 604.291 273.389Z" fill="black"/>
<path d="M615.878 321.297C615.878 321.297 625.575 341.487 628.812 342.834C632.05 344.181 640.666 343.369 637.969 350.908C635.272 358.447 632.58 354.945 634.995 360.319C637.409 365.693 647.121 373.51 639.308 370.275C631.494 367.041 622.333 359.512 617.216 360.587C612.1 361.661 599.259 357.332 596.394 357.882C593.528 358.432 594.594 346.054 594.594 346.054L602.675 334.21L615.878 321.297Z" fill="#25929B"/>
<path d="M606.448 342.027C606.448 342.027 602.393 356.812 604.564 358.982C604.832 359.249 612.105 361.136 616.958 366.521C619.916 369.784 623.485 372.436 627.464 374.327L623.151 378.899C623.151 378.899 613.731 371.365 607.782 370.018C601.832 368.67 595.66 364.074 595.66 362.484C595.66 360.894 599.701 340.689 599.701 340.689L606.448 342.027Z" fill="#FBBEBE"/>
<path opacity="0.1" d="M606.448 342.027C606.448 342.027 602.393 356.812 604.564 358.982C604.832 359.249 612.105 361.136 616.958 366.521C619.916 369.784 623.485 372.436 627.464 374.327L623.151 378.899C623.151 378.899 613.731 371.365 607.782 370.018C601.832 368.67 595.66 364.074 595.66 362.484C595.66 360.894 599.701 340.689 599.701 340.689L606.448 342.027Z" fill="black"/>
<path d="M623.964 371.365C623.964 371.365 626.388 369.75 628.009 371.905C629.63 374.059 636.626 377.284 636.626 377.284C636.626 377.284 639.863 377.284 638.242 380.786L636.626 384.283L635.55 383.748C635.55 383.748 634.474 394.512 628.545 395.591C628.545 395.591 626.661 395.591 628.277 390.742C628.277 390.742 630.701 388.592 626.388 384.303C626.388 384.303 622.347 383.768 622.347 382.421C622.347 382.421 619.115 381.613 620.196 379.449C621.277 377.284 625.848 374.327 623.964 371.365Z" fill="#3F3D56"/>
<path d="M592.437 347.678C592.437 347.678 591.362 353.063 590.554 353.87C589.745 354.677 589.745 357.367 590.554 360.309C591.362 363.251 591.902 380.226 589.205 388.573C586.508 396.919 592.978 393.149 592.978 393.149C592.978 393.149 601.332 372.42 600.251 362.439C599.17 352.458 609.67 341.71 609.67 341.71L596.751 339.332L592.437 347.678Z" fill="#FBBEBE"/>
<path d="M589.929 385.814C589.929 385.814 587.862 387.245 587.589 388.32C587.427 388.966 587.047 389.537 586.513 389.935C586.513 389.935 584.356 393.704 584.356 396.934C584.356 400.163 577.624 405.013 577.624 405.013C577.624 405.013 570.346 408.777 580.316 408.242C590.286 407.707 592.71 407.162 592.71 407.162V408.242C592.71 408.242 597.018 408.51 596.751 405.27C596.483 402.031 596.2 394.512 596.2 394.512C596.2 394.512 599.433 391.282 598.357 388.86C597.281 386.438 595.382 386.532 595.382 386.532C595.382 386.532 593.756 391.822 592.408 391.55C591.059 391.277 590.112 387.612 589.929 385.814Z" fill="#3F3D56"/>
<path d="M593.786 300.573L586.513 326.682C586.513 326.682 582.74 335.835 585.705 335.563C588.67 335.29 590.013 325.874 590.013 325.874L595.675 312.956L596.483 302.727L593.786 300.573Z" fill="#FBBEBE"/>
<path d="M606.855 275.405C610.871 275.405 614.128 272.152 614.128 268.139C614.128 264.125 610.871 260.872 606.855 260.872C602.838 260.872 599.582 264.125 599.582 268.139C599.582 272.152 602.838 275.405 606.855 275.405Z" fill="#FBBEBE"/>
<path d="M600.791 290.077C600.791 290.077 599.691 284.38 602.933 281.844C602.933 281.844 598.907 281.463 598.099 282.538C598.099 282.538 593.246 282.805 593.246 286.04C593.246 289.274 592.71 293.306 592.438 293.841C592.165 294.376 591.094 296.813 592.71 302.455C594.326 308.097 597.172 310.667 595.536 313.63C595.025 314.672 594.607 315.758 594.287 316.874C592.785 321.734 592.172 326.825 592.477 331.902C592.765 336.707 592.601 343.577 589.998 347.936C585.69 355.202 616.403 343.632 616.944 341.209C617.484 338.787 618.287 332.323 617.211 328.826C616.562 326.553 616.378 324.173 616.671 321.827C616.671 321.827 618.828 312.139 613.171 306.754L620.712 284.415C620.712 284.415 617.479 280.913 615.055 281.181C612.63 281.448 600.791 290.077 600.791 290.077Z" fill="#25929B"/>
<path d="M617.226 290.884L617.097 291.256C616.235 293.861 611.282 309.261 613.994 312.956C613.994 312.956 617.226 313.763 618.302 309.454C619.378 305.145 622.883 288.462 621.534 287.115C620.186 285.767 617.226 290.884 617.226 290.884Z" fill="#FBBEBE"/>
<path opacity="0.1" d="M617.226 290.884L617.097 291.256C616.235 293.861 611.282 309.261 613.994 312.956C613.994 312.956 617.226 313.763 618.302 309.454C619.378 305.145 622.883 288.462 621.534 287.115C620.186 285.767 617.226 290.884 617.226 290.884Z" fill="black"/>
<path d="M620.726 284.153C620.726 284.153 622.883 284.96 622.342 287.125C621.802 289.289 615.897 293.316 615.897 293.316L615.357 288.739L620.726 284.153Z" fill="#25929B"/>
<path d="M611.173 259.446C610.605 259.418 610.036 259.488 609.492 259.654C609.08 258.895 608.473 258.258 607.735 257.81C606.996 257.361 606.152 257.115 605.287 257.099C604.423 257.082 603.57 257.294 602.814 257.714C602.059 258.133 601.428 258.745 600.986 259.488C600.544 260.23 600.307 261.076 600.299 261.94C600.291 262.803 600.512 263.654 600.939 264.404C601.367 265.155 601.986 265.779 602.733 266.213C603.48 266.647 604.329 266.876 605.194 266.875H605.442C605.792 266.854 606.142 266.911 606.468 267.041C606.794 267.171 607.087 267.372 607.326 267.628C607.868 268.222 608.548 268.673 609.306 268.942C610.064 269.21 610.877 269.288 611.672 269.168C612.468 269.048 613.221 268.734 613.866 268.253C614.511 267.773 615.027 267.141 615.37 266.413C615.712 265.686 615.869 264.886 615.828 264.083C615.787 263.28 615.548 262.5 615.133 261.812C614.718 261.123 614.14 260.548 613.449 260.136C612.758 259.724 611.976 259.489 611.173 259.45V259.446Z" fill="#FF6584"/>
<path d="M613.994 307.304C613.994 307.304 620.999 298.151 621.807 294.649C622.615 291.147 616.686 281.998 620.999 282.538C625.312 283.078 626.383 290.612 626.383 290.612C626.383 290.612 627.191 291.959 625.307 297.076C623.423 302.192 620.459 309.459 618.862 311.069C617.266 312.679 612.645 317.26 613.994 307.304Z" fill="#FBBEBE"/>
</g>
<defs>
<clipPath id="clip0_40_960">
<rect width="492" height="387" fill="white" transform="translate(374 22)"/>
</clipPath>
</defs>
</svg>
