<svg width="1239" height="430" viewBox="0 0 1239 430" fill="none" xmlns="http://www.w3.org/2000/svg">
<rect width="1239" height="430" fill="white"/>
<g clip-path="url(#clip0_4_504)">
<path d="M444.054 336.885C465.04 336.885 482.051 319.883 482.051 298.91C482.051 277.937 465.04 260.935 444.054 260.935C423.069 260.935 406.057 277.937 406.057 298.91C406.057 319.883 423.069 336.885 444.054 336.885Z" fill="#E4E4E4"/>
<path opacity="0.2" d="M415.999 273.546C412.454 281.831 411.973 291.107 414.642 299.714C417.311 308.322 422.955 315.701 430.566 320.532C438.177 325.364 447.259 327.333 456.189 326.088C465.119 324.843 473.315 320.466 479.313 313.737C477.148 318.799 473.907 323.331 469.816 327.017C465.725 330.704 460.88 333.457 455.619 335.087C450.357 336.716 444.803 337.183 439.343 336.454C433.883 335.726 428.647 333.82 423.997 330.868C419.347 327.917 415.395 323.99 412.414 319.36C409.433 314.73 407.495 309.508 406.735 304.055C405.974 298.603 406.408 293.05 408.008 287.782C409.608 282.514 412.334 277.656 415.999 273.546Z" fill="black"/>
<path d="M444.159 298.91H444.263L446.142 406.575H442.175L444.159 298.91Z" fill="#3F3D56"/>
<path d="M367.175 266.067C409.485 266.067 443.784 231.788 443.784 189.503C443.784 147.217 409.485 112.938 367.175 112.938C324.865 112.938 290.566 147.217 290.566 189.503C290.566 231.788 324.865 266.067 367.175 266.067Z" fill="#E4E4E4"/>
<path opacity="0.2" d="M310.61 138.364C303.464 155.069 302.494 173.77 307.875 191.125C313.255 208.479 324.635 223.356 339.98 233.097C355.325 242.838 373.636 246.808 391.64 244.299C409.645 241.789 426.17 232.963 438.263 219.397C433.898 229.604 427.364 238.74 419.115 246.172C410.866 253.605 401.099 259.156 390.491 262.441C379.882 265.727 368.685 266.668 357.677 265.199C346.668 263.731 336.11 259.888 326.735 253.937C317.36 247.985 309.392 240.068 303.382 230.734C297.373 221.399 293.466 210.87 291.932 199.877C290.398 188.883 291.274 177.688 294.499 167.066C297.724 156.445 303.221 146.651 310.61 138.364Z" fill="black"/>
<path d="M367.385 189.502H367.596L371.385 406.575H363.387L367.385 189.502Z" fill="#3F3D56"/>
<path d="M872.26 294.219H521.118V398.252H872.26V294.219Z" fill="#F0F0F0"/>
<path d="M717.161 315.72H676.218V398.252H717.161V315.72Z" fill="#CACACA"/>
<path d="M851.789 171.461H541.59V267.171H851.789V171.461Z" fill="#F0F0F0"/>
<path d="M883.237 177.356H510.141C509.518 177.356 508.91 177.17 508.393 176.821C507.877 176.473 507.477 175.978 507.244 175.401C507.012 174.823 506.957 174.189 507.088 173.581C507.218 172.972 507.528 172.416 507.977 171.985L609.945 74.03V31.363C609.946 30.5355 610.275 29.7422 610.86 29.1571C611.446 28.572 612.239 28.2429 613.067 28.242H633.192C634.02 28.2429 634.814 28.572 635.399 29.1571C635.985 29.7422 636.314 30.5355 636.315 31.363V48.6977L644.017 41.2989C656.62 29.1915 673.341 22.3001 690.82 22.0096C708.299 21.7191 725.241 28.0511 738.24 39.733L885.325 171.914C885.795 172.336 886.126 172.891 886.273 173.504C886.421 174.118 886.379 174.763 886.153 175.352C885.927 175.942 885.527 176.449 885.007 176.806C884.486 177.164 883.869 177.356 883.237 177.356Z" fill="#CACACA"/>
<path d="M623.477 195.735C626.074 195.735 628.646 196.246 631.045 197.24C633.445 198.233 635.625 199.689 637.462 201.524C639.298 203.36 640.755 205.539 641.749 207.937C642.743 210.335 643.254 212.905 643.254 215.501V242.203H603.699V215.501C603.699 212.905 604.211 210.335 605.204 207.937C606.198 205.539 607.655 203.36 609.492 201.524C611.328 199.689 613.509 198.233 615.908 197.24C618.308 196.246 620.879 195.735 623.477 195.735Z" fill="white"/>
<path d="M696.689 196.082C701.935 196.082 706.965 198.164 710.674 201.871C714.383 205.578 716.467 210.606 716.467 215.848V242.55H676.911V215.848C676.911 210.606 678.995 205.578 682.704 201.871C686.413 198.164 691.444 196.082 696.689 196.082Z" fill="white"/>
<path d="M769.902 196.429C775.147 196.429 780.178 198.511 783.887 202.218C787.596 205.925 789.68 210.952 789.68 216.195V242.897H750.124V216.195C750.124 210.952 752.208 205.925 755.917 202.218C759.626 198.511 764.656 196.429 769.902 196.429Z" fill="white"/>
<path d="M799.048 314.679C804.293 314.679 809.324 316.762 813.033 320.469C816.742 324.176 818.826 329.203 818.826 334.446V361.147H779.27V334.446C779.27 329.203 781.354 324.176 785.063 320.469C788.772 316.762 793.802 314.679 799.048 314.679Z" fill="white"/>
<path d="M603.352 314.679C608.597 314.679 613.628 316.762 617.337 320.469C621.046 324.176 623.13 329.203 623.13 334.446V361.147H583.574V334.446C583.574 331.85 584.086 329.279 585.08 326.881C586.074 324.483 587.53 322.304 589.367 320.469C591.204 318.633 593.384 317.177 595.783 316.184C598.183 315.191 600.755 314.679 603.352 314.679Z" fill="white"/>
<path d="M923.561 295.844L857.691 266.715C857.337 266.558 856.954 266.477 856.567 266.477H542.64C542.282 266.477 541.927 266.547 541.595 266.682L469.895 295.811C469.299 296.053 468.805 296.495 468.499 297.061C468.193 297.627 468.093 298.282 468.216 298.913C468.34 299.545 468.679 300.113 469.176 300.522C469.673 300.931 470.297 301.155 470.94 301.155H489.543V396.865H487.461V406.575H905.917V396.865H902.448V301.155H922.438C923.074 301.155 923.691 300.936 924.186 300.536C924.68 300.135 925.022 299.577 925.154 298.954C925.285 298.332 925.199 297.683 924.909 297.117C924.619 296.551 924.143 296.101 923.561 295.844ZM896.896 396.865H495.095V301.155H896.896V396.865Z" fill="#CACACA"/>
<path d="M648.112 238.388H597.453V246.711H648.112V238.388Z" fill="#CACACA"/>
<path d="M722.366 238.388H671.707V246.711H722.366V238.388Z" fill="#CACACA"/>
<path d="M796.619 238.388H745.96V246.711H796.619V238.388Z" fill="#CACACA"/>
<path d="M824.377 358.373H773.719V366.696H824.377V358.373Z" fill="#CACACA"/>
<path d="M627.987 358.373H577.329V366.696H627.987V358.373Z" fill="#CACACA"/>
<path d="M1005.15 407H233.85C233.625 407 233.409 406.91 233.249 406.751C233.09 406.592 233 406.376 233 406.15C233 405.925 233.09 405.709 233.249 405.549C233.409 405.39 233.625 405.3 233.85 405.3H1005.15C1005.38 405.3 1005.59 405.39 1005.75 405.549C1005.91 405.709 1006 405.925 1006 406.15C1006 406.376 1005.91 406.592 1005.75 406.751C1005.59 406.91 1005.38 407 1005.15 407Z" fill="#3F3D56"/>
<path d="M811.148 170.034C811.148 170.578 811.14 171.13 811.131 171.674C811.123 172.328 811.106 172.974 811.08 173.629C811.055 174.198 811.029 174.759 810.995 175.32C810.893 177.198 810.732 179.068 810.511 180.946C810.459 181.422 810.4 181.89 810.332 182.366C810.281 182.731 810.23 183.105 810.17 183.479C810.111 183.895 810.051 184.312 809.983 184.728C809.847 185.612 809.694 186.496 809.524 187.38C809.439 187.822 809.354 188.264 809.261 188.706C809.082 189.581 808.886 190.465 808.682 191.341C808.665 191.409 808.648 191.485 808.631 191.553C808.529 191.986 808.427 192.411 808.316 192.845C808.282 192.972 808.257 193.091 808.215 193.219C808.138 193.542 808.053 193.865 807.968 194.188C807.849 194.638 807.73 195.08 807.602 195.53C807.398 196.227 807.194 196.916 806.982 197.613C806.955 197.685 806.932 197.759 806.913 197.834C806.505 199.151 806.072 200.451 805.595 201.743C805.349 202.423 805.085 203.111 804.822 203.791C804.558 204.471 804.286 205.151 804.005 205.823C803.733 206.477 803.452 207.131 803.172 207.777C803.104 207.93 803.036 208.083 802.959 208.236C802.662 208.908 802.355 209.562 802.041 210.217C802.032 210.225 802.032 210.242 802.024 210.251C801.777 210.777 801.513 211.304 801.25 211.823C801.25 211.839 801.243 211.854 801.233 211.865C800.978 212.375 800.714 212.885 800.442 213.387L800.008 214.211L799.957 214.305C799.413 215.316 798.852 216.319 798.256 217.313C798.129 217.534 798.001 217.755 797.874 217.967C797.746 218.188 797.61 218.409 797.474 218.622C797.389 218.775 797.296 218.928 797.193 219.081C797.015 219.37 796.836 219.667 796.649 219.956C796.615 220.016 796.573 220.075 796.539 220.135C796.216 220.636 795.893 221.129 795.569 221.631C795.17 222.234 794.761 222.829 794.345 223.424L785.109 238.195L784.71 237.863L784.599 237.761H784.591L784.225 237.455L783.222 236.606C782.916 236.903 782.618 237.2 782.312 237.489C782.193 237.608 782.065 237.719 781.946 237.838C781.853 237.923 781.767 238.008 781.674 238.093C765.708 253.675 744.47 262.699 722.164 263.377H722.139C705.253 263.84 688.538 259.898 673.641 251.937C673.309 251.767 672.986 251.597 672.663 251.402C670.724 250.348 668.828 249.235 666.966 248.045C666.957 248.036 666.948 248.036 666.94 248.028C664.78 246.498 662.671 244.866 660.613 243.133C649.573 233.832 640.838 222.102 635.094 208.862C629.351 195.622 626.754 181.232 627.508 166.821C627.533 166.252 627.567 165.691 627.61 165.121C627.746 163.064 627.956 161.016 628.239 158.976C628.316 158.407 628.401 157.838 628.486 157.277H810.281C810.638 159.877 810.885 162.492 811.021 165.121C811.106 166.762 811.148 168.394 811.148 170.034Z" fill="#F0F0F0"/>
<path d="M810.281 157.277C807.008 135.524 796.034 115.668 779.353 101.316C762.673 86.965 741.393 79.0719 719.383 79.0719C697.373 79.0719 676.094 86.965 659.413 101.316C642.733 115.668 631.759 135.524 628.486 157.277C628.401 157.838 628.316 158.407 628.239 158.977C627.958 161.016 627.749 163.065 627.61 165.121H811.021C810.885 162.495 810.638 159.88 810.281 157.277Z" fill="#25929B"/>
<path d="M725.338 251.935H672.667V209.826C673.639 190.582 690.096 189.028 705.56 190.061C708.158 190.06 710.729 190.572 713.129 191.565C715.528 192.558 717.709 194.014 719.545 195.849C721.382 197.685 722.839 199.864 723.833 202.262C724.826 204.66 725.338 207.23 725.338 209.826V251.935Z" fill="#25929B"/>
<path d="M672.663 221.996V222.004C672.663 222.013 672.671 222.013 672.68 222.013L672.663 221.996ZM651.48 157.277C651.446 157.489 651.403 157.702 651.369 157.914C651.403 157.702 651.446 157.489 651.488 157.277H651.48ZM650.425 165.121C650.4 165.444 650.374 165.767 650.357 166.09C650.374 165.767 650.4 165.444 650.434 165.121C650.433 165.062 650.435 165.002 650.442 164.943C650.434 165.002 650.434 165.062 650.425 165.121ZM672.663 222.004C672.663 222.013 672.671 222.013 672.68 222.013L672.663 221.996V222.004ZM651.48 157.277C651.446 157.489 651.403 157.702 651.369 157.914C651.403 157.702 651.446 157.489 651.488 157.277H651.48ZM650.357 166.09C650.374 165.767 650.4 165.444 650.434 165.121C650.433 165.062 650.435 165.002 650.442 164.943C650.434 165.002 650.434 165.062 650.425 165.121C650.4 165.444 650.374 165.767 650.357 166.09ZM913.075 322.436C912.91 322.261 912.734 322.096 912.548 321.943L912.54 321.934L870.429 286.418L869.34 285.5L865.199 282.007L864.161 281.131L858.259 276.151L856.644 274.791L853.302 271.969L851.593 270.525L835.469 256.935L826.226 249.141L824.984 248.096L797.746 225.124C798.163 224.529 798.571 223.934 798.971 223.33C799.294 222.829 799.617 222.336 799.94 221.834C799.974 221.775 800.017 221.715 800.051 221.656C800.238 221.367 800.416 221.07 800.595 220.781C800.697 220.628 800.791 220.475 800.876 220.322C801.012 220.109 801.148 219.888 801.275 219.667C801.403 219.455 801.53 219.234 801.658 219.013C802.253 218.019 802.814 217.016 803.359 216.004L803.41 215.911L803.843 215.086C804.116 214.585 804.379 214.075 804.634 213.565C804.645 213.554 804.651 213.538 804.651 213.523C804.915 213.004 805.178 212.477 805.425 211.95C805.434 211.942 805.434 211.925 805.442 211.916C805.757 211.262 806.063 210.607 806.361 209.936C806.437 209.783 806.505 209.63 806.573 209.477C806.854 208.831 807.134 208.177 807.407 207.522C807.687 206.851 807.959 206.171 808.223 205.491C808.487 204.811 808.75 204.123 808.997 203.443C809.464 202.143 809.904 200.839 810.315 199.533C810.334 199.459 810.356 199.385 810.383 199.312C810.595 198.616 810.799 197.927 811.004 197.23C811.131 196.78 811.25 196.338 811.369 195.887C811.454 195.564 811.539 195.242 811.616 194.919C811.658 194.791 811.684 194.672 811.718 194.545C811.829 194.111 811.93 193.686 812.033 193.253C812.05 193.185 812.067 193.108 812.084 193.04C812.288 192.165 812.483 191.281 812.662 190.406C812.756 189.964 812.84 189.522 812.925 189.08C813.087 188.196 813.249 187.312 813.385 186.428C813.453 186.012 813.512 185.595 813.572 185.179C813.631 184.805 813.682 184.431 813.733 184.065C813.801 183.59 813.861 183.122 813.912 182.646C814.133 180.768 814.295 178.898 814.397 177.02C814.431 176.459 814.456 175.898 814.482 175.329C814.507 174.674 814.524 174.028 814.533 173.374C814.541 172.83 814.55 172.278 814.55 171.734C814.55 170.093 814.507 168.461 814.422 166.821C814.286 164.195 814.039 161.58 813.682 158.977C810.636 136.722 799.677 116.306 782.81 101.462C765.942 86.6168 744.293 78.3342 721.819 78.128C699.345 77.9217 677.547 85.8055 660.41 100.338C643.273 114.871 631.941 135.082 628.485 157.277C628.4 157.838 628.315 158.407 628.239 158.977C627.958 161.016 627.749 163.065 627.61 165.121C627.567 165.691 627.533 166.252 627.508 166.821C626.754 181.232 629.351 195.622 635.094 208.862C640.838 222.102 649.573 233.832 660.613 243.133C662.671 244.867 664.78 246.498 666.94 248.028C666.948 248.037 666.957 248.037 666.965 248.045C667.688 248.555 668.411 249.056 669.142 249.549C670.307 250.314 671.481 251.062 672.663 251.776C672.757 251.827 672.85 251.887 672.944 251.938C673.964 252.55 674.993 253.136 676.022 253.705H676.03C679.861 255.81 683.837 257.639 687.927 259.179C699.93 263.692 712.731 265.699 725.54 265.077H725.565C740.515 264.354 755.072 260.049 768.008 252.524C769.888 251.436 771.741 250.272 773.553 249.031C774.003 248.725 774.462 248.411 774.905 248.096C775.449 247.714 775.993 247.314 776.538 246.915C776.546 246.915 776.546 246.906 776.555 246.906C776.595 246.872 776.638 246.841 776.682 246.813C777.048 246.532 777.422 246.252 777.779 245.98C777.873 245.912 777.966 245.844 778.06 245.767C778.084 245.75 778.107 245.73 778.128 245.708C778.34 245.555 778.544 245.385 778.757 245.223C778.97 245.062 779.174 244.892 779.386 244.722C779.422 244.699 779.456 244.674 779.488 244.646C779.726 244.45 779.965 244.263 780.203 244.068C780.449 243.872 780.687 243.668 780.917 243.473C781.155 243.277 781.385 243.082 781.623 242.878C781.827 242.708 782.039 242.529 782.244 242.342C782.311 242.291 782.371 242.232 782.439 242.172C782.465 242.147 782.494 242.124 782.524 242.104C782.805 241.866 783.077 241.62 783.349 241.373C783.417 241.314 783.477 241.254 783.545 241.195C783.961 240.821 784.378 240.447 784.786 240.056C784.88 239.971 784.982 239.878 785.075 239.793C785.169 239.708 785.254 239.623 785.347 239.538C785.467 239.419 785.594 239.308 785.713 239.189C786.019 238.9 786.317 238.603 786.623 238.305L787.626 239.155L787.992 239.461H788.001L788.111 239.563L788.511 239.895L794.447 244.909L794.574 245.019L794.676 245.096L795.348 245.665L796.692 246.804L798.035 247.935L798.231 248.096L804.481 253.365L805.349 254.096L811.378 259.179L842.587 285.5L843.675 286.418L886.39 322.436L897.343 331.674L901.417 335.108C902.281 335.839 903.281 336.393 904.36 336.737C905.439 337.082 906.575 337.21 907.704 337.116C908.833 337.021 909.932 336.705 910.938 336.185C911.944 335.666 912.838 334.953 913.569 334.088C914.18 333.37 914.666 332.554 915.006 331.674C915.623 330.115 915.769 328.408 915.426 326.766C915.083 325.124 914.266 323.618 913.075 322.436ZM666.744 125.423C675.276 115.319 686.493 107.833 699.1 103.831C711.708 99.8281 725.191 99.4718 737.993 102.803C750.795 106.134 762.392 113.017 771.446 122.656C780.499 132.295 786.64 144.298 789.157 157.277C789.268 157.846 789.37 158.407 789.463 158.977C789.812 161.008 790.067 163.065 790.22 165.121C790.263 165.691 790.305 166.252 790.331 166.821C790.407 168.096 790.441 169.379 790.441 170.654C790.446 178.387 789.164 186.067 786.649 193.38V193.389C783.837 201.588 779.52 209.192 773.918 215.809C773.799 215.945 773.68 216.089 773.553 216.225C772.43 217.551 771.248 218.826 770.032 220.041C770.024 220.05 770.015 220.067 770.007 220.075C769.59 220.492 769.165 220.917 768.739 221.308C767.872 222.149 766.988 222.948 766.086 223.713C764.734 224.894 763.348 226.002 761.928 227.036C761.452 227.384 760.975 227.724 760.491 228.064C760.015 228.404 759.53 228.727 759.045 229.05C758.075 229.696 757.089 230.317 756.094 230.903C755.601 231.2 755.091 231.489 754.589 231.77C754.087 232.059 753.577 232.331 753.067 232.594C752.557 232.866 752.046 233.13 751.528 233.385C750.499 233.903 749.461 234.387 748.407 234.838C747.88 235.076 747.352 235.297 746.825 235.501C746.493 235.637 746.17 235.773 745.839 235.892C745.709 235.952 745.575 236.003 745.439 236.045C745.26 236.121 745.082 236.189 744.903 236.249C744.845 236.275 744.786 236.298 744.725 236.317C744.359 236.461 744.002 236.589 743.628 236.716C743.092 236.912 742.556 237.09 742.012 237.26C741.468 237.439 740.932 237.608 740.388 237.762C739.843 237.932 739.291 238.085 738.746 238.229C738.194 238.382 737.649 238.526 737.097 238.654C736.51 238.807 735.923 238.943 735.328 239.07C734.809 239.189 734.299 239.291 733.78 239.385C733.295 239.487 732.802 239.572 732.317 239.657C731.637 239.776 730.957 239.886 730.268 239.98C729.894 240.039 729.528 240.09 729.154 240.124C728.993 240.15 728.839 240.167 728.686 240.184C728.21 240.252 727.734 240.303 727.266 240.345C727.139 240.354 727.02 240.371 726.9 240.379C726.382 240.43 725.854 240.473 725.336 240.515C724.222 240.592 723.116 240.643 722.002 240.668C721.441 240.677 720.871 240.685 720.31 240.685C719.749 240.685 719.187 240.677 718.626 240.66C718.626 240.66 718.626 240.668 718.618 240.66C718.609 240.668 718.609 240.668 718.601 240.66C718.6 240.661 718.598 240.662 718.597 240.662C718.595 240.663 718.594 240.663 718.592 240.663C718.591 240.663 718.589 240.663 718.588 240.662C718.586 240.662 718.585 240.661 718.584 240.66C718.556 240.668 718.526 240.668 718.499 240.66C718.099 240.66 717.699 240.643 717.308 240.617C717.019 240.609 716.721 240.6 716.424 240.575C716.024 240.558 715.625 240.532 715.225 240.498C715.097 240.498 714.97 240.481 714.842 240.473C714.782 240.471 714.723 240.466 714.664 240.456C714.255 240.422 713.839 240.388 713.43 240.345C713.226 240.328 713.014 240.311 712.81 240.286C712.189 240.218 711.568 240.141 710.956 240.056C710.258 239.971 709.561 239.869 708.872 239.742C708.549 239.699 708.234 239.64 707.92 239.58C707.503 239.512 707.087 239.436 706.67 239.351C706.236 239.266 705.803 239.181 705.369 239.079C705.02 239.002 704.663 238.926 704.314 238.841C704.144 238.807 703.974 238.764 703.813 238.722C702.92 238.51 702.035 238.28 701.159 238.025C700.607 237.872 700.054 237.711 699.51 237.541C698.761 237.311 698.021 237.065 697.282 236.801C696.992 236.708 696.712 236.606 696.423 236.495C696.134 236.402 695.853 236.291 695.564 236.181C695.3 236.087 695.036 235.985 694.781 235.883C694.356 235.722 693.939 235.552 693.523 235.382C692.664 235.033 691.822 234.668 690.98 234.277C690.504 234.048 690.028 233.827 689.56 233.597C687.715 232.705 685.898 231.713 684.109 230.623C683.667 230.359 683.225 230.079 682.782 229.798C682.23 229.458 681.694 229.101 681.158 228.744C680.861 228.54 680.571 228.345 680.282 228.141C679.747 227.767 679.219 227.384 678.701 227.002C678.428 226.806 678.156 226.603 677.893 226.399C676.949 225.685 676.022 224.937 675.112 224.172C674.678 223.806 674.245 223.432 673.819 223.05C673.641 222.897 673.462 222.735 673.284 222.574C673.08 222.387 672.876 222.208 672.68 222.013L672.663 221.996C672.365 221.733 672.067 221.452 671.778 221.172C671.328 220.747 670.886 220.313 670.46 219.871C670.018 219.438 669.593 218.988 669.176 218.546C668.751 218.104 668.343 217.653 667.943 217.194C667.535 216.744 667.135 216.285 666.744 215.817C666.361 215.376 665.987 214.917 665.63 214.466C664.763 213.395 663.935 212.305 663.147 211.194C662.781 210.684 662.433 210.174 662.093 209.656C661.727 209.129 661.378 208.593 661.047 208.058C660.698 207.523 660.366 206.979 660.043 206.426C660.035 206.407 660.023 206.39 660.009 206.375C659.371 205.296 658.759 204.208 658.189 203.103C657.602 201.981 657.05 200.848 656.531 199.703C656.268 199.134 656.012 198.556 655.774 197.978C655.281 196.814 654.822 195.65 654.397 194.468C654.184 193.899 653.988 193.329 653.793 192.751C653.787 192.713 653.775 192.676 653.759 192.641C653.368 191.468 653.01 190.287 652.696 189.097C652.687 189.08 652.687 189.063 652.679 189.046C652.517 188.459 652.364 187.873 652.228 187.278C652.092 186.76 651.973 186.241 651.862 185.714C651.735 185.128 651.607 184.541 651.497 183.947C651.437 183.641 651.378 183.335 651.327 183.029C651.276 182.774 651.233 182.51 651.19 182.255C651.148 182 651.106 181.737 651.063 181.473C650.978 180.955 650.901 180.437 650.833 179.918C650.748 179.306 650.68 178.694 650.612 178.074C650.536 177.334 650.468 176.595 650.408 175.847C650.366 175.346 650.34 174.836 650.315 174.326C650.289 173.858 650.264 173.391 650.255 172.923C650.247 172.899 650.247 172.872 650.255 172.847C650.254 172.846 650.253 172.845 650.253 172.843C650.252 172.842 650.252 172.84 650.252 172.839C650.252 172.837 650.252 172.835 650.253 172.834C650.253 172.832 650.254 172.831 650.255 172.83C650.247 172.822 650.247 172.822 650.255 172.813C650.254 172.812 650.253 172.811 650.253 172.809C650.252 172.808 650.252 172.806 650.252 172.805C650.252 172.803 650.252 172.801 650.253 172.8C650.253 172.798 650.254 172.797 650.255 172.796C650.247 172.609 650.238 172.422 650.238 172.235C650.221 171.683 650.213 171.13 650.213 170.578C650.213 170.076 650.221 169.583 650.23 169.082C650.247 168.385 650.272 167.688 650.306 166.991C650.306 166.838 650.323 166.694 650.332 166.541C650.34 166.388 650.349 166.243 650.357 166.09C650.374 165.767 650.4 165.444 650.434 165.121C650.433 165.062 650.435 165.002 650.442 164.943C650.468 164.577 650.502 164.212 650.536 163.847C650.604 163.116 650.689 162.376 650.782 161.645C650.833 161.28 650.876 160.915 650.936 160.549C650.97 160.294 651.012 160.031 651.055 159.767C651.089 159.504 651.131 159.24 651.182 158.977C651.242 158.628 651.301 158.271 651.369 157.914C651.403 157.702 651.446 157.489 651.488 157.277C651.65 156.427 651.828 155.577 652.024 154.727C652.219 153.869 652.441 153.019 652.679 152.169C652.908 151.311 653.163 150.452 653.436 149.594C653.563 149.161 653.699 148.736 653.852 148.311C654.133 147.452 654.431 146.602 654.762 145.761C654.915 145.345 655.077 144.92 655.255 144.503C655.596 143.662 655.953 142.82 656.318 141.996C656.505 141.58 656.693 141.163 656.897 140.747C657.279 139.922 657.679 139.098 658.113 138.291C658.529 137.466 658.98 136.659 659.439 135.86C659.899 135.061 660.375 134.262 660.876 133.472C661.106 133.081 661.361 132.681 661.625 132.299C662.135 131.517 662.671 130.735 663.215 129.97C664.312 128.423 665.494 126.902 666.744 125.423ZM650.425 165.121C650.4 165.444 650.374 165.767 650.357 166.09C650.374 165.767 650.4 165.444 650.434 165.121C650.433 165.062 650.435 165.002 650.442 164.943C650.434 165.002 650.434 165.062 650.425 165.121ZM651.48 157.277C651.446 157.489 651.403 157.702 651.369 157.914C651.403 157.702 651.446 157.489 651.488 157.277H651.48ZM672.663 221.996V222.004C672.663 222.013 672.671 222.013 672.68 222.013L672.663 221.996Z" fill="#3F3D56"/>
<path opacity="0.3" d="M675.113 224.171C661.662 212.827 652.972 196.842 650.768 179.391C648.564 161.939 653.007 144.298 663.215 129.969C661.875 131.318 660.579 132.731 659.327 134.208C653.389 141.241 648.896 149.374 646.103 158.143C643.31 166.912 642.272 176.144 643.05 185.314C643.827 194.483 646.404 203.41 650.633 211.584C654.862 219.758 660.661 227.019 667.698 232.954C681.91 244.939 700.304 250.791 718.833 249.222C737.362 247.653 754.509 238.792 766.501 224.588C767.749 223.109 768.925 221.595 770.028 220.045C757.613 232.512 740.96 239.857 723.376 240.622C705.793 241.386 688.565 235.514 675.113 224.171Z" fill="black"/>
</g>
<defs>
<clipPath id="clip0_4_504">
<rect width="773" height="385" fill="white" transform="translate(233 22)"/>
</clipPath>
</defs>
</svg>
