<svg width="1239" height="430" viewBox="0 0 1239 430" fill="none" xmlns="http://www.w3.org/2000/svg">
<rect width="1239" height="430" fill="white"/>
<g clip-path="url(#clip0_40_997)">
<path opacity="0.1" d="M928 268.306C928.012 278.819 926.774 289.296 924.312 299.514C921.986 309.183 918.504 318.533 913.941 327.361C913.955 337.844 911.908 348.227 907.918 357.915C903.928 367.602 898.072 376.405 890.687 383.818C883.302 391.231 874.532 397.109 864.879 401.115C855.227 405.121 844.882 407.176 834.437 407.163H428.938C410.196 407.152 391.825 401.928 375.864 392.07C359.902 382.213 346.976 368.109 338.519 351.323C331.376 337.136 327.666 321.458 327.691 305.561C317.772 287.728 312 266.398 312 243.463C312 181.084 354.668 130.518 407.308 130.518C409.171 130.518 411.023 130.589 412.859 130.713C445.888 64.8967 520.385 19 606.937 19C660.148 19 708.787 36.3362 746.048 64.9778C759.747 55.9476 775.518 50.7921 792.302 50.7921C844.937 50.7921 887.61 101.363 887.61 163.737C887.61 167.729 887.43 171.667 887.071 175.55C911.814 195.956 928 229.888 928 268.306Z" fill="#25929B"/>
<path d="M621.933 130.048C621.298 133.55 619.149 140.943 612.208 140.759C606.91 140.624 602.828 135.982 602.968 130.664L604.966 58.2498L605.618 34.634C605.618 34.634 609.053 28.1005 612.472 57.3905V57.4986L621.971 126.952C622.123 127.979 622.11 129.025 621.933 130.048Z" fill="white"/>
<path d="M617.308 137.079H607.109V158.971H617.308V137.079Z" fill="white"/>
<path d="M616.209 153.772H608.364V163.38H616.209V153.772Z" fill="white"/>
<path d="M612.488 57.504C608.918 56.461 606.49 57.2554 604.95 58.2552L605.602 34.6394C605.602 34.6394 609.037 28.1059 612.456 57.3959L612.488 57.504Z" fill="#25929B"/>
<path d="M617.308 143.623V158.971H607.109V143.926C610.345 142.52 613.995 142.411 617.308 143.623Z" fill="#25929B"/>
<path d="M641.318 192.417C638.458 190.309 632.783 185.132 635.987 178.95C638.432 174.232 644.376 172.578 649.077 175.037L713.052 208.586L733.917 219.523C733.917 219.523 738.257 225.468 710.526 215.741L710.424 215.708L644.058 193.822C643.077 193.5 642.152 193.026 641.318 192.417Z" fill="white"/>
<path d="M621.92 166.372L617.449 175.572L637.055 185.169L641.525 175.969L621.92 166.372Z" fill="white"/>
<path d="M622.585 176.86L626.024 169.783L617.419 165.571L613.98 172.648L622.585 176.86Z" fill="white"/>
<path d="M710.424 215.703C712.922 212.936 713.278 210.396 713.052 208.585L733.917 219.523C733.917 219.523 738.257 225.468 710.526 215.74L710.424 215.703Z" fill="#25929B"/>
<path d="M631.195 182.295L617.448 175.567L621.917 166.38L635.379 172.973C635.222 176.502 633.725 179.838 631.195 182.295Z" fill="#25929B"/>
<path d="M583.099 192.417C585.959 190.309 591.634 185.132 588.43 178.95C585.985 174.232 580.041 172.578 575.34 175.037L511.365 208.586L490.5 219.523C490.5 219.523 486.16 225.468 513.891 215.741L513.993 215.708L580.359 193.827C581.34 193.504 582.265 193.028 583.099 192.417Z" fill="white"/>
<path d="M602.497 166.371L582.892 175.967L587.362 185.167L606.968 175.57L602.497 166.371Z" fill="white"/>
<path d="M610.435 172.645L606.996 165.568L598.391 169.78L601.83 176.857L610.435 172.645Z" fill="white"/>
<path d="M513.993 215.703C511.495 212.936 511.139 210.396 511.365 208.585L490.5 219.523C490.5 219.523 486.16 225.468 513.891 215.74L513.993 215.703Z" fill="#25929B"/>
<path d="M593.222 182.295L606.969 175.567L602.5 166.38L589.038 172.973C589.195 176.502 590.692 179.838 593.222 182.295Z" fill="#25929B"/>
<path d="M621.384 406.672H601.38L607.734 170.228H615.03L621.384 406.672Z" fill="white"/>
<path d="M612.209 174.005C615.89 174.005 618.875 171.01 618.875 167.315C618.875 163.62 615.89 160.625 612.209 160.625C608.527 160.625 605.542 163.62 605.542 167.315C605.542 171.01 608.527 174.005 612.209 174.005Z" fill="#25929B"/>
<path d="M770.053 117.586C769.628 119.953 768.174 124.952 763.478 124.828C761.75 124.748 760.122 123.986 758.95 122.707C757.779 121.429 757.157 119.738 757.222 118.002L758.578 69.0092L759.015 53.0347C759.015 53.0347 761.341 48.6142 763.656 68.4309V68.5012L770.08 115.517C770.179 116.204 770.17 116.902 770.053 117.586Z" fill="white"/>
<path d="M766.925 122.337H760.027V137.149H766.925V122.337Z" fill="white"/>
<path d="M766.182 133.631H760.872V140.132H766.182V133.631Z" fill="white"/>
<path d="M763.667 68.5065C761.249 67.804 759.607 68.339 758.578 69.0145L759.015 53.0401C759.015 53.0401 761.341 48.6196 763.656 68.4363L763.667 68.5065Z" fill="#25929B"/>
<path d="M766.925 126.763V137.138H760.027V126.973C762.214 126.019 764.683 125.943 766.925 126.763Z" fill="#25929B"/>
<path d="M783.154 159.776C781.221 158.355 777.376 154.853 779.546 150.67C780.375 149.145 781.772 148.01 783.431 147.514C785.091 147.018 786.878 147.201 788.404 148.022L831.685 170.719L845.798 178.117C845.798 178.117 848.738 182.154 829.978 175.556H829.908L785.006 160.754C784.341 160.528 783.716 160.198 783.154 159.776Z" fill="white"/>
<path d="M770.043 142.159L767.02 148.381L780.285 154.875L783.309 148.653L770.043 142.159Z" fill="white"/>
<path d="M770.499 149.258L772.826 144.469L767.004 141.619L764.677 146.408L770.499 149.258Z" fill="white"/>
<path d="M829.925 175.534C831.615 173.664 831.858 171.946 831.701 170.719L845.815 178.117C845.815 178.117 848.755 182.154 829.995 175.556L829.925 175.534Z" fill="#25929B"/>
<path d="M776.321 152.934L767 148.379L770.021 142.159L779.137 146.617C779.035 149.006 778.028 151.266 776.321 152.934Z" fill="#25929B"/>
<path d="M743.782 159.776C745.715 158.355 749.559 154.853 747.389 150.67C746.56 149.145 745.163 148.01 743.504 147.514C741.845 147.018 740.057 147.201 738.532 148.022L695.25 170.719L681.137 178.117C681.137 178.117 678.197 182.154 696.957 175.556H697.027L741.929 160.754C742.594 160.528 743.22 160.198 743.782 159.776Z" fill="white"/>
<path d="M756.911 142.162L743.646 148.655L746.67 154.877L759.935 148.384L756.911 142.162Z" fill="white"/>
<path d="M762.277 146.404L759.949 141.615L754.127 144.464L756.455 149.254L762.277 146.404Z" fill="white"/>
<path d="M697.027 175.534C695.336 173.664 695.094 171.946 695.25 170.719L681.137 178.117C681.137 178.117 678.197 182.154 696.957 175.556L697.027 175.534Z" fill="#25929B"/>
<path d="M750.631 152.934L759.93 148.379L756.909 142.159L747.793 146.617C747.9 149.009 748.916 151.27 750.631 152.934Z" fill="#25929B"/>
<path d="M769.687 304.735L756.085 307.134L760.447 144.769H765.385L769.687 304.735Z" fill="white"/>
<path d="M763.478 147.325C765.97 147.325 767.991 145.298 767.991 142.796C767.991 140.295 765.97 138.268 763.478 138.268C760.986 138.268 758.966 140.295 758.966 142.796C758.966 145.298 760.986 147.325 763.478 147.325Z" fill="#25929B"/>
<path d="M461.428 117.586C461.003 119.953 459.549 124.952 454.854 124.828C453.125 124.748 451.499 123.986 450.328 122.707C449.157 121.429 448.537 119.738 448.602 118.002L449.954 69.0092L450.39 53.0347C450.39 53.0347 452.716 48.6142 455.032 68.4309V68.5012L461.461 115.517C461.555 116.204 461.545 116.902 461.428 117.586Z" fill="white"/>
<path d="M458.3 122.337H451.402V137.149H458.3V122.337Z" fill="white"/>
<path d="M457.557 133.631H452.248V140.132H457.557V133.631Z" fill="white"/>
<path d="M455.042 68.5065C452.63 67.804 450.982 68.339 449.954 69.0145L450.39 53.0401C450.39 53.0401 452.716 48.6196 455.032 68.4363L455.042 68.5065Z" fill="#25929B"/>
<path d="M458.3 126.763V137.138H451.402V126.973C453.59 126.019 456.059 125.943 458.3 126.763Z" fill="#25929B"/>
<path d="M474.545 159.776C472.612 158.355 468.773 154.853 470.943 150.67C471.771 149.145 473.167 148.011 474.825 147.514C476.484 147.018 478.27 147.201 479.795 148.022L523.077 170.719L537.195 178.117C537.195 178.117 540.13 182.154 521.37 175.556H521.3L476.403 160.754C475.736 160.528 475.109 160.198 474.545 159.776Z" fill="white"/>
<path d="M461.42 142.161L458.397 148.383L471.662 154.876L474.686 148.654L461.42 142.161Z" fill="white"/>
<path d="M461.873 149.256L464.2 144.467L458.378 141.617L456.051 146.406L461.873 149.256Z" fill="white"/>
<path d="M521.3 175.534C522.991 173.664 523.233 171.946 523.077 170.719L537.195 178.117C537.195 178.117 540.13 182.154 521.37 175.556L521.3 175.534Z" fill="#25929B"/>
<path d="M467.696 152.934L458.397 148.379L461.423 142.159L470.534 146.617C470.429 149.01 469.413 151.271 467.696 152.934Z" fill="#25929B"/>
<path d="M435.157 159.776C437.095 158.355 440.935 154.853 438.765 150.67C437.935 149.145 436.539 148.01 434.879 147.514C433.22 147.018 431.433 147.201 429.907 148.022L386.625 170.719L372.512 178.117C372.512 178.117 369.572 182.154 388.332 175.556H388.402L433.305 160.754C433.97 160.528 434.595 160.198 435.157 159.776Z" fill="white"/>
<path d="M448.285 142.16L435.02 148.653L438.044 154.875L451.309 148.382L448.285 142.16Z" fill="white"/>
<path d="M453.656 146.407L451.329 141.618L445.507 144.468L447.834 149.257L453.656 146.407Z" fill="white"/>
<path d="M388.402 175.534C386.717 173.664 386.475 171.946 386.625 170.719L372.512 178.117C372.512 178.117 369.572 182.154 388.332 175.556L388.402 175.534Z" fill="#25929B"/>
<path d="M442.006 152.934L451.305 148.379L448.285 142.159L439.168 146.617C439.279 149.009 440.293 151.268 442.006 152.934Z" fill="#25929B"/>
<path d="M461.062 304.735H447.525L451.828 144.769H456.76L461.062 304.735Z" fill="white"/>
<path d="M454.854 147.325C457.346 147.325 459.366 145.298 459.366 142.796C459.366 140.295 457.346 138.268 454.854 138.268C452.362 138.268 450.342 140.295 450.342 142.796C450.342 145.298 452.362 147.325 454.854 147.325Z" fill="#25929B"/>
<path d="M911.141 348.437C906.533 365.308 896.531 380.193 882.673 390.803C868.815 401.414 851.867 407.161 834.437 407.163H428.938C410.196 407.152 391.825 401.928 375.864 392.07C359.902 382.213 346.976 368.108 338.519 351.323C338.519 351.323 397.292 269.732 549.93 323.038C676.652 367.292 735.102 325.443 751.315 309.955C753.07 308.286 755.143 306.99 757.411 306.147C759.678 305.304 762.092 304.93 764.507 305.048C795.56 306.523 903.129 314.078 911.157 348.426L911.141 348.437Z" fill="white"/>
<path opacity="0.1" d="M424.608 411.995C460.866 411.995 490.258 408.532 490.258 404.261C490.258 399.99 460.866 396.528 424.608 396.528C388.351 396.528 358.959 399.99 358.959 404.261C358.959 408.532 388.351 411.995 424.608 411.995Z" fill="#25929B"/>
<path d="M457.471 397.361C457.471 397.361 453.212 396.858 450.438 394.783L450.228 394.615C450.396 394.363 450.518 394.083 450.589 393.788C450.291 393.206 450.135 392.562 450.132 391.908C450.14 391.294 450.015 390.685 449.765 390.124V387.087C449.765 387.087 448.845 386.104 448.753 383.602C448.662 381.1 448.57 368.768 448.57 368.768C448.428 368.122 448.397 367.457 448.478 366.8C448.57 365.374 448.57 364.839 448.57 364.839C448.269 364.01 448.174 363.119 448.295 362.245C448.57 361.164 447.649 359.921 447.649 359.921L449.028 353.134C449.028 353.134 449.792 329.685 447.568 322.617V322.574C447.568 322.574 447.568 322.514 447.568 322.487C447.757 317.926 445 310.333 446.562 305.064C448.123 299.795 448.306 298.628 448.306 298.628C448.306 298.628 441.425 281.292 439.691 277.185C438.49 274.353 437.246 271.24 436.018 269.468C435.911 269.313 435.803 269.167 435.695 269.03C435.636 268.954 435.577 268.879 435.518 268.814C435.893 268.186 436.119 267.479 436.18 266.75C436.277 265.474 436.094 264.004 437.02 263.102C437.373 262.812 437.754 262.556 438.156 262.34C438.865 261.871 439.43 261.213 439.787 260.44C440.144 259.666 440.278 258.809 440.175 257.963C439.982 256.617 439.212 255.498 438.334 254.412C438.634 252.764 438.514 251.066 437.985 249.477C437.456 247.887 436.535 246.458 435.308 245.322C435.308 245.155 435.308 244.982 435.308 244.814C435.333 243.576 434.955 242.364 434.231 241.361L434.489 241.545C434.344 241.415 434.204 241.291 434.053 241.167C433.841 240.952 433.597 240.77 433.332 240.626C431.29 239.226 428.903 238.417 426.434 238.288C423.964 238.16 421.507 238.716 419.332 239.897C418.242 240.481 417.307 241.316 416.602 242.334C415.164 244.56 415.525 247.441 414.782 249.97C414.06 252.386 412.358 254.385 410.948 256.493C409.537 258.6 408.358 261.097 408.891 263.561C409.273 265.35 410.544 266.955 410.506 268.787C410.443 269.747 410.048 270.654 409.389 271.352C408.731 272.051 407.85 272.497 406.898 272.613H406.85C406.672 272.641 406.492 272.655 406.312 272.656C408.024 273.84 410.151 274.277 412.235 274.553C412.192 274.715 412.148 274.877 412.111 275.045C410.425 281.427 408.923 289.533 408.923 289.533C408.923 289.533 409.93 297.747 407.819 304.184C405.708 310.62 405.983 323.844 405.983 323.844C405.983 323.844 411.858 320.801 412.224 322.763C412.59 324.724 412.224 325.265 412.224 325.265C412.224 325.265 413.425 325.875 414.835 326.416L414.776 327.199L414.518 330.712C414.419 331.449 414.531 332.199 414.841 332.874C415.347 333.857 414.841 336.538 414.841 336.538C414.841 336.538 414.41 336.808 414.841 338.062C415.272 339.315 414.502 341.099 414.502 341.099C414.502 341.099 413.963 347.8 413.893 349.205C413.823 350.61 412.057 354.658 412.057 354.658C412.057 354.658 413.618 356.619 412.057 356.889C410.495 357.16 410.312 359.591 410.312 359.591C410.312 359.591 408.476 361.11 408.476 361.645C408.476 361.645 400.216 370.048 398.288 383.894C398.288 383.894 396.361 385.682 396.635 387.379C396.792 388.341 396.479 388.671 396.178 388.779C396.517 388.822 396.888 389.044 396.716 389.86C396.442 391.286 395.709 394.329 395.709 394.329H395.838C394.336 396.074 392.139 398.998 391.805 401.565C391.805 401.673 391.795 401.781 391.773 401.889L390.944 403.764L398.197 407.007L398.838 406.023C398.838 406.023 402.068 409.687 405.725 410.487C406.356 410.624 407.001 410.695 407.647 410.698C409.687 410.662 411.705 410.258 413.602 409.503C413.602 409.503 416.262 406.202 409.375 405.575C409.375 405.575 405.342 400.927 405.708 398.96C405.847 398.132 405.931 397.297 405.962 396.458C405.962 396.274 405.962 396.094 405.962 395.918L406.43 395.988L406.516 394.491C406.717 394.238 406.816 393.917 406.791 393.594C406.791 392.972 406.252 392.881 406.791 392.513C407.329 392.146 407.329 392.513 407.329 391.621C407.329 390.73 406.963 390.994 407.787 390.103C408.611 389.211 407.695 387.601 407.695 387.601C407.695 387.601 409.623 386.169 409.532 384.293C409.44 382.418 415.681 370.535 416.962 370.086C418.244 369.638 418.341 367.314 418.341 367.314C418.341 367.314 420.085 367.671 420.635 367.314C421.184 366.957 422.928 364.19 422.928 364.19C422.928 364.19 429.928 346.497 429.998 339.796L430.456 338.278C430.456 338.278 433.122 341.763 432.75 344.266C432.378 346.768 434.785 348.551 434.785 348.551V356.149C435.054 357.473 435.202 358.819 435.227 360.17C435.135 361.418 436.304 362.672 435.862 363.742C435.421 364.812 435.862 366.692 435.862 366.692C435.862 366.692 435.765 369.194 435.862 369.908C435.959 370.621 435.502 378.841 437.892 382.418C437.892 382.418 438.899 385.007 437.892 386.704C436.885 388.401 438.808 390.103 438.808 390.103C438.808 390.103 437.618 392.065 438.808 393.497C439.49 394.402 439.797 395.536 439.664 396.663C439.185 398.479 438.829 400.862 439.632 402.521V402.559L439.847 405.11L446.879 404.57V403.143C446.879 403.143 451.682 404.424 456.157 403.726C458.569 403.354 460.885 402.402 462.301 400.371C462.338 400.398 465.182 395.485 457.471 397.361Z" fill="url(#paint0_linear_40_997)"/>
<path d="M461.035 400.441C459.668 402.467 457.433 403.413 455.112 403.786C450.805 404.478 446.158 403.202 446.158 403.202V404.64L439.368 405.18L439.158 402.64V402.597C438.372 400.922 438.732 398.501 439.206 396.68C439.434 395.82 439.714 394.975 440.046 394.15C440.046 394.15 445.894 389.168 447.843 392.908C448.266 393.681 448.852 394.352 449.561 394.875C452.253 396.939 456.351 397.442 456.351 397.442C463.782 395.55 461.035 400.441 461.035 400.441Z" fill="#65617D"/>
<path opacity="0.1" d="M442.954 395.55C442.954 395.55 442.954 400.176 446.319 400.089C449.685 400.003 450.137 398.247 449.071 397.058C448.347 396.215 447.722 395.292 447.208 394.307L442.954 395.55Z" fill="black"/>
<path d="M413.974 409.503C412.141 410.254 410.186 410.658 408.207 410.692C407.582 410.688 406.96 410.62 406.349 410.487C402.806 409.682 399.705 406.034 399.705 406.034L399.085 407.018L392.085 403.813L392.877 401.938L392.909 401.619C393.232 399.063 395.354 396.15 396.808 394.41C397.599 393.464 398.197 392.87 398.197 392.87L406.618 394.113C406.618 394.113 406.651 395.193 406.618 396.512C406.59 397.347 406.507 398.179 406.371 399.003C406.021 400.96 409.914 405.585 409.914 405.585C416.542 406.223 413.974 409.503 413.974 409.503Z" fill="#65617D"/>
<path d="M397.131 388.849C396.989 388.897 396.837 388.908 396.689 388.881C396.833 388.845 396.983 388.834 397.131 388.849Z" fill="#444053"/>
<path opacity="0.1" d="M406.619 394.129C406.619 394.129 406.651 395.21 406.619 396.528L396.711 394.907C396.711 394.907 396.759 394.718 396.829 394.404C397.621 393.459 398.219 392.864 398.219 392.864L406.619 394.129Z" fill="black"/>
<path opacity="0.1" d="M449.545 394.853C448.048 398.328 439.141 397.506 439.141 397.506C439.186 397.226 439.202 396.942 439.19 396.658C439.418 395.798 439.698 394.954 440.03 394.129C440.03 394.129 445.878 389.146 447.827 392.886C448.25 393.659 448.836 394.331 449.545 394.853Z" fill="black"/>
<path d="M449.69 393.864C448.807 397.863 439.142 396.977 439.142 396.977C439.327 395.788 439.041 394.573 438.345 393.594C437.192 392.172 438.345 390.216 438.345 390.216C438.345 390.216 436.482 388.525 437.462 386.833C438.442 385.142 437.462 382.564 437.462 382.564C435.152 379.008 435.598 370.821 435.502 370.135C435.405 369.448 435.502 366.935 435.502 366.935C435.502 366.935 435.065 365.066 435.502 363.996C435.938 362.926 434.802 361.683 434.888 360.44C434.863 359.095 434.72 357.755 434.462 356.435V348.87C434.462 348.87 432.142 347.092 432.497 344.6C432.852 342.109 430.278 338.656 430.278 338.656L429.837 340.169C429.751 346.838 423.015 364.45 423.015 364.45C423.015 364.45 421.329 367.211 420.796 367.568C420.263 367.924 418.583 367.568 418.583 367.568C418.583 367.568 418.492 369.881 417.253 370.324C416.015 370.767 409.984 382.596 410.075 384.466C410.167 386.336 408.298 387.757 408.298 387.757C408.298 387.757 409.187 389.379 408.39 390.249C407.593 391.119 407.943 390.87 407.943 391.762C407.943 392.653 407.943 392.302 407.405 392.648C406.866 392.994 407.405 393.097 407.405 393.729C407.43 394.048 407.334 394.365 407.135 394.615L407.055 396.112L396.678 394.442C396.678 394.442 397.389 391.416 397.653 389.989C397.809 389.157 397.448 388.935 397.115 388.908C397.411 388.8 397.712 388.471 397.562 387.52C397.292 385.828 399.177 384.05 399.177 384.05C401.04 370.259 409.015 361.893 409.015 361.893C409.015 361.353 410.786 359.851 410.786 359.851C410.786 359.851 410.964 357.446 412.472 357.181C413.979 356.916 412.472 354.955 412.472 354.955C412.472 354.955 414.157 350.956 414.243 349.551C414.329 348.146 414.83 341.444 414.83 341.444C414.83 341.444 415.573 339.667 415.158 338.424C414.744 337.181 415.158 336.91 415.158 336.91C415.158 336.91 415.659 334.241 415.158 333.263C414.861 332.593 414.753 331.855 414.846 331.128L415.099 327.626L415.465 322.411C415.465 322.411 443.04 317.634 446.077 321.455C446.406 321.927 446.648 322.454 446.793 323.011C448.947 330.037 448.204 353.387 448.204 353.387L446.874 360.148C446.874 360.148 447.762 361.396 447.498 362.461C447.38 363.331 447.47 364.217 447.762 365.044C447.762 365.044 447.762 365.584 447.671 367C447.593 367.653 447.624 368.314 447.762 368.957C447.762 368.957 447.848 381.229 447.94 383.721C448.032 386.212 448.915 387.19 448.915 387.19V390.216C449.154 390.778 449.273 391.383 449.265 391.994C449.26 392.642 449.406 393.282 449.69 393.864Z" fill="#444053"/>
<path opacity="0.1" d="M408.207 410.703C407.582 410.699 406.96 410.63 406.349 410.498C402.806 409.692 399.705 406.045 399.705 406.045L399.085 407.028L392.085 403.824L392.877 401.938L392.909 401.619L400.146 405.32C400.146 405.32 405.924 408.098 408.207 410.703Z" fill="black"/>
<path opacity="0.1" d="M455.102 403.786C450.794 404.478 446.147 403.202 446.147 403.202V404.64L439.357 405.18L439.147 402.64C441.301 402.678 444.763 402.716 446.271 402.597C449.254 402.592 452.225 402.992 455.102 403.786Z" fill="black"/>
<path opacity="0.1" d="M400.598 386.558C400.952 386.526 401.309 386.572 401.643 386.693C401.993 386.902 402.324 387.141 402.634 387.406C402.866 387.531 403.086 387.677 403.291 387.844C403.549 388.098 403.657 388.476 403.915 388.73C404.389 389.2 405.17 389.092 405.8 389.319C405.87 389.319 405.945 389.379 405.956 389.449C405.967 389.519 405.908 389.579 405.848 389.622C405.693 389.711 405.516 389.758 405.337 389.758C405.158 389.758 404.981 389.711 404.825 389.622C404.513 389.444 404.225 389.226 403.969 388.973C403.477 388.535 402.915 388.184 402.305 387.936C401.471 387.606 400.017 387.514 399.489 386.693C399.737 386.504 400.275 386.563 400.598 386.558Z" fill="black"/>
<path opacity="0.1" d="M399.888 388.427C400.075 388.48 400.256 388.555 400.426 388.649L401.336 389.108C400.69 389.152 400.045 389.007 399.479 388.692C399.277 388.611 399.081 388.517 398.892 388.411C399.222 388.361 399.559 388.366 399.888 388.427Z" fill="black"/>
<path opacity="0.1" d="M401.088 389.984C401.287 389.976 401.486 389.992 401.681 390.032C402.024 390.153 402.341 390.336 402.618 390.573C403.282 391.111 404.112 391.4 404.965 391.389C404.798 391.468 404.611 391.5 404.427 391.481H402.521C402.025 391.513 401.531 391.399 401.099 391.151C400.776 390.994 399.441 390.611 399.43 390.162C399.419 389.714 400.765 389.984 401.088 389.984Z" fill="black"/>
<path opacity="0.1" d="M444.462 392.254C445.044 392.319 445.631 392.335 446.217 392.302C446.833 392.286 447.433 392.099 447.951 391.762C448.462 391.367 448.355 390.962 447.703 390.935C447.097 390.963 446.503 391.11 445.953 391.367C445.669 391.482 445.395 391.621 445.135 391.784C445 391.843 444.558 392.259 444.462 392.254Z" fill="black"/>
<path opacity="0.1" d="M446.583 393.226C446.529 393.442 446.303 393.561 446.098 393.642C445.597 393.833 445.071 393.949 444.537 393.988C444.402 393.988 444.025 393.988 444.074 393.778C444.122 393.567 444.682 393.632 444.817 393.615C445.414 393.526 446.004 393.396 446.583 393.226Z" fill="black"/>
<path opacity="0.1" d="M441.263 392.875C442.008 392.789 442.761 392.938 443.417 393.302C443.437 393.315 443.452 393.334 443.46 393.356C443.464 393.364 443.466 393.372 443.466 393.38C443.466 393.389 443.464 393.397 443.46 393.405C443.392 393.534 443.286 393.64 443.158 393.709C443.03 393.778 442.884 393.808 442.738 393.794C442.451 393.76 442.168 393.689 441.898 393.583C441.45 393.438 440.981 393.367 440.509 393.372C440.3 393.391 440.089 393.391 439.879 393.372C439.255 393.264 439.459 393.01 439.938 392.956C440.378 392.906 440.82 392.879 441.263 392.875Z" fill="black"/>
<path opacity="0.1" d="M416.914 357.921C416.025 357.297 414.972 356.951 413.888 356.927C414.986 356.858 416.069 357.214 416.914 357.921Z" fill="black"/>
<path opacity="0.1" d="M416.085 354.333C416.883 354.338 417.666 354.562 418.346 354.982L417.528 354.755C417.035 354.598 416.528 354.491 416.015 354.436C415.718 354.409 415.422 354.436 415.126 354.403C414.83 354.371 414.453 354.317 414.119 354.306C414.771 354.339 415.428 354.301 416.085 354.333Z" fill="black"/>
<path opacity="0.1" d="M418.75 356.041C418.998 356.089 419.288 356.198 419.342 356.452C419.342 356.3 417.587 355.803 417.372 355.733C417.011 355.603 415.853 355.095 415.589 355.446C416.607 355.722 417.705 355.825 418.75 356.041Z" fill="black"/>
<path opacity="0.1" d="M421.216 348.14C422.38 347.748 423.429 347.072 424.269 346.173C424.26 346.574 424.153 346.966 423.957 347.315C423.76 347.663 423.481 347.958 423.144 348.173C422.461 348.588 421.707 348.87 420.92 349.005C420.134 349.14 419.367 349.37 418.637 349.691C418.287 349.869 417.194 350.907 416.849 350.853C416.413 350.788 417.108 350.096 417.269 349.972C418.422 349.07 419.881 348.67 421.216 348.14Z" fill="black"/>
<path opacity="0.1" d="M442.932 359.678C442.555 359.548 437.978 360.44 438.258 359.548C438.431 359.008 439.917 359.202 440.288 359.219C441.187 359.244 442.077 359.399 442.932 359.678Z" fill="black"/>
<path d="M438 253.326C438 255.666 437.193 257.934 435.717 259.745C434.24 261.556 432.185 262.799 429.899 263.262C427.614 263.726 425.239 263.381 423.178 262.288C421.116 261.194 419.495 259.419 418.59 257.262C417.684 255.106 417.55 252.702 418.21 250.457C418.869 248.213 420.282 246.266 422.209 244.948C424.135 243.63 426.457 243.022 428.78 243.226C431.102 243.43 433.283 244.434 434.952 246.068C435.92 247.01 436.689 248.138 437.213 249.385C437.737 250.632 438.004 251.973 438 253.326Z" fill="#FBBEBE"/>
<path d="M433.116 257.503C433.116 257.503 429.837 267.111 431.7 269.068C433.563 271.024 418.314 272.181 418.314 272.181C418.314 272.181 424.695 260.708 424.075 257.86C423.456 255.012 433.116 257.503 433.116 257.503Z" stroke="#6C63FF" stroke-miterlimit="10"/>
<path opacity="0.1" d="M446.772 323.038C446.772 323.271 446.772 323.492 446.772 323.708C446.594 328.248 438.528 337.408 436.665 335.894C434.802 334.381 422.126 331.355 422.126 331.355C422.126 331.355 420.263 328.421 418.314 328.421C417.207 328.324 416.124 328.043 415.11 327.588L415.476 322.374C415.476 322.374 443.04 317.634 446.077 321.455C446.401 321.937 446.636 322.473 446.772 323.038Z" fill="black"/>
<path d="M446.766 322.882C446.675 325.157 444.612 328.588 442.335 331.258C440.057 333.927 437.591 335.819 436.659 335.041C435.978 334.594 435.238 334.244 434.462 333.998C430.268 332.447 422.126 330.501 422.126 330.501C422.126 330.501 420.263 327.567 418.314 327.567C416.365 327.567 412.644 325.611 412.644 325.611C412.644 325.611 412.999 325.07 412.644 323.119C412.288 321.168 406.618 324.2 406.618 324.2C406.618 324.2 406.349 311.036 408.39 304.627C410.431 298.217 409.467 290.036 409.467 290.036C409.467 290.036 410.926 281.973 412.509 275.601C413.462 271.781 414.464 268.576 415.228 268.068C417.269 266.733 427.904 268.068 427.904 268.068C427.904 268.068 432.335 268.155 434.021 268.609C434.544 268.814 434.99 269.179 435.297 269.651C435.399 269.792 435.507 269.938 435.609 270.095C436.794 271.878 438 274.958 439.158 277.774C440.843 281.865 447.493 299.12 447.493 299.12C447.493 299.12 447.315 300.276 445.808 305.524C444.3 310.771 446.944 318.348 446.766 322.882Z" fill="#65617D"/>
<path d="M439.142 328.129L442.335 331.252C442.335 331.252 445.258 341.38 441.446 340.493C437.634 339.607 434.446 334.009 434.446 334.009L439.142 328.129Z" fill="#FBBEBE"/>
<path opacity="0.1" d="M447.208 299.93C439.669 299.844 437.725 289.257 437.725 289.257C437.725 289.257 437.187 278.763 436.218 276.828C435.679 275.747 435.437 273.088 435.329 270.927C436.514 272.71 437.715 275.79 438.878 278.606C440.563 282.675 447.208 299.93 447.208 299.93Z" fill="black"/>
<path d="M447.477 299.131C439.939 299.044 438 288.452 438 288.452C438 288.452 437.462 277.957 436.492 276.023C435.954 274.942 435.712 272.283 435.604 270.122C436.788 271.905 437.995 274.985 439.152 277.801C440.827 281.875 447.477 299.131 447.477 299.131Z" fill="#65617D"/>
<path opacity="0.1" d="M433.983 273.018C433.983 273.018 431.765 266.971 428.13 273.018C424.495 279.065 424.409 286.717 424.409 286.717L423.79 303.438C423.79 303.438 424.942 305.664 424.899 306.907C424.856 308.15 427.053 311.711 427.053 311.711C427.053 311.711 427.592 318.737 429.622 319.893L431.571 325.675C431.571 325.675 431.662 329.502 432.992 331.015C434.322 332.528 433.622 334.862 433.622 334.862L441.5 332.095C441.5 332.095 440.612 332.414 441.5 330.026C442.388 327.637 440.962 324.519 440.962 324.519C440.962 324.519 435.911 313.489 435.292 311.89C434.672 310.29 433.784 308.42 434.139 306.55C434.495 304.681 434.209 284.848 434.678 281.827C435.146 278.806 433.983 273.018 433.983 273.018Z" fill="black"/>
<path d="M434.801 272.181C434.801 272.181 432.583 266.133 428.948 272.181C425.314 278.228 425.228 285.88 425.228 285.88L424.608 302.6C424.608 302.6 425.761 304.826 425.718 306.069C425.675 307.312 427.871 310.874 427.871 310.874C427.871 310.874 428.41 317.899 430.44 319.055L432.389 324.838C432.389 324.838 432.481 328.664 433.811 330.177C435.141 331.69 434.446 334.025 434.446 334.025L442.318 331.252C442.318 331.252 441.43 331.577 442.318 329.188C443.207 326.799 441.78 323.681 441.78 323.681C441.78 323.681 436.729 312.652 436.11 311.052C435.491 309.452 434.602 307.583 434.958 305.713C435.313 303.843 435.033 284.01 435.496 280.984C435.959 277.957 434.801 272.181 434.801 272.181Z" fill="#444053"/>
<path opacity="0.1" d="M434.952 324.486C435.287 324.526 435.613 324.623 435.916 324.773C436.158 324.903 436.368 325.092 436.605 325.227C436.883 325.384 437.196 325.47 437.515 325.475C437.16 325.475 436.805 325.513 436.438 325.519C436.218 325.53 435.998 325.503 435.787 325.438C435.593 325.339 435.412 325.218 435.248 325.076C435.032 324.914 434.795 324.783 434.543 324.686C434.355 324.605 434.15 324.578 434.069 324.384C434.366 324.394 434.661 324.428 434.952 324.486Z" fill="black"/>
<path opacity="0.1" d="M437.952 326.875C438.285 326.875 438.619 326.799 438.959 326.778C439.446 326.76 439.934 326.785 440.418 326.853C439.705 327.212 438.905 327.354 438.113 327.264C437.885 327.205 437.646 327.205 437.419 327.264C437.171 327.367 436.455 328.183 436.39 327.459C436.325 326.735 437.542 326.891 437.952 326.875Z" fill="black"/>
<path opacity="0.1" d="M433.875 242.653L432.615 241.712C432.753 241.76 432.887 241.819 433.014 241.891C433.282 242.041 433.526 242.232 433.735 242.458C433.875 242.577 434.015 242.707 434.15 242.831L433.875 242.653Z" fill="black"/>
<path opacity="0.1" d="M435.308 269.662C435.077 270.193 434.704 270.649 434.231 270.981C433.948 271.176 433.623 271.301 433.283 271.348C432.8 271.392 432.314 271.341 431.851 271.197C431.262 271.047 430.682 270.867 430.112 270.657C428.997 270.196 427.855 269.806 426.692 269.489C424.921 269.084 422.858 269.23 421.588 270.527C420.473 271.667 420.198 273.44 419.084 274.58C417.592 276.104 415.148 276.012 413.032 275.715L412.536 275.645C413.489 271.824 414.491 268.619 415.255 268.111C417.296 266.777 427.931 268.111 427.931 268.111C427.931 268.111 432.362 268.198 434.048 268.652C434.561 268.851 435 269.204 435.308 269.662Z" fill="black"/>
<path opacity="0.1" d="M417.786 253.326C417.786 251.331 418.372 249.381 419.471 247.719C420.57 246.057 422.133 244.758 423.964 243.983C425.795 243.208 427.813 242.993 429.766 243.364C431.719 243.735 433.519 244.675 434.942 246.068C434.974 247.835 434.592 249.646 435.087 251.348C435.545 252.931 436.702 254.207 437.747 255.525C437.205 257.961 435.788 260.111 433.765 261.563C431.743 263.016 429.257 263.668 426.785 263.396C424.313 263.123 422.028 261.945 420.368 260.087C418.707 258.229 417.788 255.822 417.786 253.326Z" fill="black"/>
<path d="M434.123 242.301C432.163 240.518 429.693 239.399 427.063 239.102C424.434 238.805 421.778 239.346 419.472 240.648C418.412 241.234 417.507 242.066 416.833 243.074C415.444 245.295 415.799 248.159 415.072 250.678C414.383 253.082 412.735 255.071 411.373 257.163C410.011 259.254 408.875 261.751 409.386 264.188C409.758 265.971 411.002 267.571 410.959 269.392C410.909 270.406 410.481 271.363 409.759 272.074C409.038 272.785 408.076 273.197 407.065 273.229C408.778 274.445 410.915 274.85 412.989 275.147C415.062 275.445 417.544 275.536 419.041 274.007C420.155 272.872 420.43 271.094 421.545 269.959C422.815 268.657 424.878 268.511 426.649 268.922C428.421 269.333 430.052 270.192 431.808 270.651C432.272 270.791 432.758 270.84 433.24 270.797C434.753 270.592 435.631 268.906 435.749 267.382C435.846 266.112 435.663 264.647 436.562 263.75C436.896 263.462 437.257 263.207 437.639 262.988C438.329 262.51 438.876 261.851 439.218 261.083C439.561 260.315 439.687 259.467 439.583 258.632C439.169 255.617 435.916 253.736 435.065 250.813C434.57 249.116 434.952 247.306 434.92 245.538C434.888 243.771 434.225 241.756 432.567 241.161" fill="#444053"/>
<path opacity="0.1" d="M439.443 258.649C439.023 255.633 435.771 253.753 434.92 250.829C434.425 249.132 434.807 247.322 434.78 245.555C434.794 244.323 434.417 243.119 433.703 242.118L433.951 242.301C433.818 242.172 433.678 242.047 433.531 241.929C433.328 241.713 433.094 241.531 432.836 241.388C432.685 241.275 432.529 241.172 432.378 241.069L432.621 241.291L432.373 241.107C433.088 242.108 433.465 243.313 433.45 244.544C433.45 246.306 433.095 248.122 433.59 249.819C434.441 252.742 437.693 254.623 438.113 257.638C438.215 258.474 438.088 259.321 437.744 260.089C437.401 260.857 436.854 261.516 436.164 261.994C435.781 262.212 435.42 262.467 435.087 262.756C434.193 263.653 434.371 265.117 434.274 266.387C434.155 267.911 433.278 269.597 431.77 269.803C431.286 269.846 430.798 269.796 430.332 269.657C428.577 269.197 426.945 268.333 425.174 267.928C423.402 267.522 421.345 267.663 420.069 268.965C418.955 270.1 418.68 271.873 417.565 273.013C416.074 274.542 413.629 274.445 411.518 274.153C410.131 273.994 408.765 273.679 407.448 273.213C407.27 273.241 407.09 273.256 406.909 273.256C408.621 274.472 410.759 274.877 412.832 275.174C414.905 275.472 417.388 275.563 418.879 274.034C419.994 272.899 420.268 271.121 421.383 269.987C422.659 268.684 424.721 268.538 426.488 268.949C428.254 269.36 429.891 270.219 431.646 270.678C432.112 270.818 432.6 270.867 433.084 270.824C434.591 270.619 435.469 268.933 435.588 267.409C435.685 266.139 435.507 264.674 436.401 263.777C436.735 263.49 437.096 263.235 437.478 263.015C438.173 262.539 438.724 261.879 439.071 261.109C439.418 260.339 439.546 259.488 439.443 258.649Z" fill="black"/>
</g>
<defs>
<linearGradient id="paint0_linear_40_997" x1="426.892" y1="410.703" x2="426.892" y2="238.249" gradientUnits="userSpaceOnUse">
<stop stop-color="#808080" stop-opacity="0.25"/>
<stop offset="0.54" stop-color="#808080" stop-opacity="0.12"/>
<stop offset="1" stop-color="#808080" stop-opacity="0.1"/>
</linearGradient>
<clipPath id="clip0_40_997">
<rect width="616" height="393" fill="white" transform="translate(312 19)"/>
</clipPath>
</defs>
</svg>
