<svg width="1239" height="430" viewBox="0 0 1239 430" fill="none" xmlns="http://www.w3.org/2000/svg">
<rect width="1239" height="430" fill="white"/>
<g clip-path="url(#clip0_40_1006)">
<path d="M563.434 287.377C564.141 289.377 564.957 291.336 565.878 293.247V293.252C566.624 294.807 567.436 296.322 568.312 297.799H670.545V298.002C671.472 296.461 672.325 294.875 673.103 293.242C674.026 291.334 674.842 289.376 675.547 287.377H563.434ZM566.011 293.185V292.237H672.984V293.185H566.011ZM573.98 305.769H665.001C666.868 303.555 668.57 301.208 670.093 298.747H568.888C570.411 301.208 572.113 303.555 573.98 305.769Z" fill="#3F3D56"/>
<path d="M677.144 282.057C676.778 283.541 676.35 284.997 675.87 286.429H563.111C562.631 284.997 562.203 283.541 561.837 282.057H677.144Z" fill="#3F3D56"/>
<path d="M677.216 281.778V281.109H561.765V281.778C561.361 280.128 561.027 278.448 560.762 276.737H678.219C677.957 278.444 677.623 280.124 677.216 281.778Z" fill="#3F3D56"/>
<path d="M560.553 270.469V271.418H678.794C678.704 272.892 678.561 274.348 678.357 275.789H560.624C560.425 274.357 560.277 272.906 560.192 271.437C560.106 270.194 560.068 268.943 560.068 267.677C560.068 266.823 560.087 265.975 560.12 265.131V265.121C560.201 263.324 560.356 261.551 560.586 259.801V259.797C560.786 258.332 561.035 256.884 561.333 255.454H677.458V254.591C677.848 256.307 678.159 258.052 678.39 259.825H560.795V260.773H678.509C678.666 262.096 678.777 263.43 678.842 264.775L678.856 265.145H560.677V266.093H678.889C678.908 266.619 678.913 267.146 678.913 267.677C678.913 268.616 678.889 269.545 678.846 270.469H560.553Z" fill="#3F3D56"/>
<path d="M677.439 254.505H561.542C561.88 253.026 562.271 251.569 562.716 250.134H676.246V250.082C676.702 251.532 677.097 253.007 677.439 254.505Z" fill="#3F3D56"/>
<path d="M675.96 249.185H563.021C563.61 247.384 564.284 245.623 565.041 243.904V244.809H673.94V243.908C674.696 245.625 675.369 247.384 675.96 249.185Z" fill="#3F3D56"/>
<path d="M673.916 243.861H565.06C565.716 242.372 566.434 240.915 567.214 239.489H671.638V239.252C672.466 240.751 673.225 242.287 673.916 243.861Z" fill="#3F3D56"/>
<path d="M671.239 238.541H567.737C572.915 229.399 580.435 221.793 589.528 216.501C598.62 211.208 608.96 208.419 619.488 208.419C630.017 208.419 640.356 211.208 649.449 216.501C658.542 221.793 666.061 229.399 671.239 238.541Z" fill="#3F3D56"/>
<path opacity="0.5" d="M561.765 281.777C561.784 281.872 561.808 281.965 561.837 282.057H561.765V281.777Z" fill="black"/>
<path opacity="0.5" d="M677.216 281.777V282.057H677.144C677.173 281.965 677.197 281.872 677.216 281.777Z" fill="black"/>
<path opacity="0.5" d="M678.913 270.469V271.418H678.794C678.804 271.299 678.813 271.181 678.818 271.062C678.827 270.863 678.837 270.669 678.846 270.469H678.913Z" fill="black"/>
<path opacity="0.5" d="M678.913 265.145V266.093H678.889C678.884 265.775 678.87 265.463 678.856 265.145H678.913Z" fill="black"/>
<path opacity="0.5" d="M677.458 254.505V254.591C677.453 254.562 677.444 254.534 677.439 254.505H677.458Z" fill="black"/>
<path opacity="0.5" d="M565.041 243.861H565.06C565.056 243.876 565.049 243.89 565.041 243.903V243.861Z" fill="black"/>
<path opacity="0.5" d="M673.939 243.861V243.907C673.932 243.891 673.925 243.876 673.916 243.861H673.939Z" fill="black"/>
<path opacity="0.5" d="M667.877 233.22H571.104V234.168H667.877V233.22Z" fill="black"/>
<path opacity="0.5" d="M664.118 227.899H575.105V228.847H664.118V227.899Z" fill="black"/>
<path opacity="0.5" d="M658.418 222.578H580.563V223.526H658.418V222.578Z" fill="black"/>
<path opacity="0.5" d="M651.262 217.254L586.504 217.38L586.506 218.329L651.264 218.202L651.262 217.254Z" fill="black"/>
<path d="M610.874 236.54H582.497V299.244H610.874V236.54Z" fill="#E6E6E6"/>
<path d="M595.479 242.444H596.68C598.451 242.444 600.148 243.146 601.4 244.394C602.652 245.642 603.356 247.336 603.356 249.101V258.527H588.803V249.101C588.803 247.336 589.507 245.642 590.758 244.394C592.01 243.146 593.708 242.444 595.479 242.444Z" fill="#3F3D56"/>
<path d="M647.383 235.992C649.312 235.992 651.163 236.756 652.528 238.117C653.892 239.478 654.659 241.323 654.659 243.248V255.099H640.106V243.248C640.106 241.323 640.873 239.478 642.237 238.117C643.602 236.756 645.453 235.992 647.383 235.992Z" fill="#E6E6E6"/>
<path d="M675.032 260.178C675.032 260.744 675.001 261.309 674.937 261.872H619.49V258.727H674.962C675.008 259.209 675.031 259.692 675.032 260.178Z" fill="#E6E6E6"/>
<path d="M627.447 249.564L627.986 248.734C627.827 248.293 627.642 247.862 627.433 247.443L627.085 247.723L627.361 247.298C627.098 246.782 626.891 246.456 626.891 246.456C626.227 247.538 625.74 248.719 625.449 249.954L626.14 251.02L625.375 250.403C625.347 250.613 625.333 250.824 625.333 251.035C625.333 253.165 626.03 254.892 626.891 254.892C627.751 254.892 628.449 253.165 628.449 251.035C628.433 250.357 628.313 249.686 628.093 249.045L627.447 249.564Z" fill="#25929B"/>
<path d="M631.263 251.411L632.233 251.204C632.432 250.78 632.607 250.345 632.757 249.901L632.311 249.854L632.808 249.747C632.988 249.197 633.073 248.821 633.073 248.821C631.836 249.118 630.655 249.609 629.573 250.277L629.306 251.519L629.202 250.543C629.034 250.671 628.875 250.811 628.724 250.96C627.214 252.466 626.483 254.179 627.091 254.786C627.7 255.392 629.418 254.663 630.928 253.157C631.397 252.667 631.788 252.107 632.087 251.498L631.263 251.411Z" fill="#25929B"/>
<path d="M631.617 259.653C629.367 259.797 626.916 259.645 624.308 259.653V253.699C626.733 254.038 629.192 254.038 631.617 253.699V259.653Z" fill="#E6E6E6"/>
<path d="M664.071 249.564L664.61 248.734C664.45 248.293 664.265 247.862 664.057 247.443L663.708 247.723L663.984 247.298C663.721 246.782 663.514 246.456 663.514 246.456C662.85 247.538 662.364 248.719 662.072 249.954L662.764 251.02L661.998 250.403C661.971 250.613 661.957 250.824 661.956 251.035C661.956 253.165 662.654 254.892 663.514 254.892C664.375 254.892 665.073 253.165 665.073 251.035C665.056 250.357 664.936 249.686 664.716 249.045L664.071 249.564Z" fill="#25929B"/>
<path d="M667.886 251.411L668.856 251.204C669.055 250.78 669.23 250.345 669.381 249.901L668.935 249.854L669.432 249.747C669.612 249.197 669.696 248.821 669.696 248.821C668.459 249.118 667.278 249.609 666.197 250.277L665.93 251.519L665.826 250.543C665.658 250.671 665.498 250.811 665.348 250.96C663.837 252.466 663.106 254.179 663.715 254.786C664.323 255.392 666.041 254.663 667.552 253.157C668.021 252.667 668.412 252.107 668.711 251.498L667.886 251.411Z" fill="#25929B"/>
<path d="M668.24 259.653C665.991 259.797 663.539 259.645 660.932 259.653V253.699C663.356 254.038 665.816 254.038 668.24 253.699V259.653Z" fill="#E6E6E6"/>
<path d="M585.893 272.167C587.5 272.167 588.803 271.073 588.803 269.724C588.803 268.375 587.5 267.281 585.893 267.281C584.285 267.281 582.982 268.375 582.982 269.724C582.982 271.073 584.285 272.167 585.893 272.167Z" fill="#3F3D56"/>
<path d="M757.473 343.126C727.039 386.471 676.588 414.815 619.5 414.815C561.727 414.815 510.754 385.788 480.443 341.561C506.546 292.085 559.545 304.342 619.5 304.342C680.083 304.342 731.646 292.801 757.473 343.126Z" fill="#25929B"/>
<path d="M619.5 316.195C677.129 316.195 726.594 305.757 753.511 348.055C754.866 346.281 756.186 344.479 757.473 342.652C731.646 292.327 680.083 303.867 619.5 303.867C559.545 303.867 506.546 291.611 480.443 341.087C481.734 342.97 483.062 344.824 484.429 346.65C511.703 305.102 562.452 316.195 619.5 316.195Z" fill="#3F3D56"/>
<path d="M619.5 416C578.179 415.968 538.297 400.866 507.369 373.539C476.442 346.213 456.605 308.549 451.597 267.647C446.589 226.744 456.757 185.428 480.183 151.484C503.609 117.54 538.676 93.3122 578.776 83.3674C618.875 73.4225 661.238 78.4471 697.879 97.4941C734.521 116.541 762.911 148.295 777.7 186.772C792.488 225.249 792.654 267.791 778.165 306.381C763.676 344.971 735.534 376.943 699.041 396.273C674.544 409.237 647.233 416.01 619.5 416ZM619.5 79.3644C593.976 79.3759 568.789 85.1845 545.852 96.3494C522.914 107.514 502.828 123.742 487.117 143.802C471.405 163.862 460.482 187.227 455.175 212.124C449.869 237.021 450.318 262.797 456.489 287.495C462.66 312.193 474.391 335.165 490.792 354.668C507.193 374.171 527.833 389.693 551.146 400.057C574.459 410.42 599.832 415.352 625.341 414.479C650.851 413.606 675.825 406.95 698.371 395.018C721.828 382.523 742.007 364.699 757.278 342.988C773.552 319.736 783.654 292.752 786.642 264.554C789.63 236.356 785.406 207.862 774.364 181.732C761.517 151.366 739.969 125.455 712.421 107.246C684.874 89.0364 652.55 79.3376 619.5 79.3644Z" fill="#3F3D56"/>
<path d="M619.5 415.052C597.364 415.057 575.445 410.713 554.993 402.268C534.541 393.823 515.959 381.442 500.307 365.833C484.654 350.224 472.239 331.693 463.771 311.299C455.302 290.904 450.946 269.045 450.951 246.971C450.951 154.291 526.562 78.8903 619.5 78.8903C712.438 78.8903 788.049 154.291 788.049 246.971C788.125 281.425 777.512 315.06 757.667 343.263C742.111 365.415 721.434 383.505 697.383 396C673.333 408.496 646.619 415.031 619.5 415.052ZM619.5 80.3127C527.348 80.3127 452.377 155.075 452.377 246.971C452.38 282.427 463.721 316.959 484.753 345.547C505.784 374.135 535.41 395.29 569.324 405.937C603.238 416.584 639.673 416.169 673.335 404.751C706.996 393.333 736.128 371.508 756.499 342.447C776.176 314.483 786.698 281.133 786.623 246.971C786.623 155.075 711.652 80.3127 619.5 80.3127Z" fill="#3F3D56"/>
<path d="M512.76 155.937C537.837 155.937 558.166 135.665 558.166 110.657C558.166 85.6501 537.837 65.3776 512.76 65.3776C487.683 65.3776 467.354 85.6501 467.354 110.657C467.354 135.665 487.683 155.937 512.76 155.937Z" fill="#FF6584"/>
<path d="M704.555 169.042C747.488 169.042 782.292 134.335 782.292 91.5211C782.292 48.7074 747.488 14 704.555 14C661.622 14 626.818 48.7074 626.818 91.5211C626.818 134.335 661.622 169.042 704.555 169.042Z" fill="#25929B"/>
<path opacity="0.2" d="M762.38 39.7431C769.631 56.6576 770.615 75.5923 765.156 93.1635C759.696 110.735 748.149 125.797 732.578 135.66C717.007 145.523 698.426 149.543 680.156 147.002C661.887 144.461 645.118 135.524 632.847 121.789C637.277 132.123 643.907 141.373 652.277 148.899C660.647 156.424 670.558 162.045 681.323 165.371C692.088 168.698 703.449 169.651 714.62 168.164C725.791 166.677 736.504 162.786 746.017 156.76C755.53 150.735 763.616 142.719 769.714 133.267C775.812 123.816 779.777 113.156 781.333 102.025C782.89 90.8941 782.001 79.5589 778.728 68.8046C775.456 58.0503 769.877 48.1342 762.38 39.7431Z" fill="black"/>
<path d="M704.768 91.5211H704.982L708.826 311.306H700.711L704.768 91.5211Z" fill="#3F3D56"/>
<path d="M718.923 211.237L717.132 207.845L704.282 214.591L706.073 217.983L718.923 211.237Z" fill="#3F3D56"/>
<path d="M692.028 301.787C692.028 301.787 692.356 294.927 699.087 295.724Z" fill="#3F3D56"/>
<path d="M690.126 295.259C691.986 295.259 693.495 293.754 693.495 291.899C693.495 290.044 691.986 288.54 690.126 288.54C688.265 288.54 686.757 290.044 686.757 291.899C686.757 293.754 688.265 295.259 690.126 295.259Z" fill="#25929B"/>
<path d="M690.529 297.556H689.578V304.194H690.529V297.556Z" fill="#3F3D56"/>
<path d="M736.245 314.589C736.245 314.589 736.573 307.728 743.304 308.526Z" fill="#3F3D56"/>
<path d="M734.343 308.06C736.204 308.06 737.712 306.556 737.712 304.701C737.712 302.845 736.204 301.341 734.343 301.341C732.483 301.341 730.975 302.845 730.975 304.701C730.975 306.556 732.483 308.06 734.343 308.06Z" fill="#25929B"/>
<path d="M734.746 310.358H733.795V316.996H734.746V310.358Z" fill="#3F3D56"/>
<path d="M499.944 317.434C499.944 317.434 500.272 310.573 507.003 311.371Z" fill="#3F3D56"/>
<path d="M498.042 310.905C499.902 310.905 501.411 309.401 501.411 307.546C501.411 305.69 499.902 304.186 498.042 304.186C496.181 304.186 494.673 305.69 494.673 307.546C494.673 309.401 496.181 310.905 498.042 310.905Z" fill="#25929B"/>
<path d="M498.445 313.203H497.494V319.84H498.445V313.203Z" fill="#3F3D56"/>
<path d="M718.653 306.529C718.653 306.529 718.982 299.668 725.712 300.465Z" fill="#3F3D56"/>
<path d="M716.751 300C718.612 300 720.12 298.496 720.12 296.641C720.12 294.785 718.612 293.281 716.751 293.281C714.891 293.281 713.383 294.785 713.383 296.641C713.383 298.496 714.891 300 716.751 300Z" fill="#25929B"/>
<path d="M717.154 302.297H716.203V308.935H717.154V302.297Z" fill="#3F3D56"/>
<path d="M536.383 113.339L540.76 109.848C537.36 109.474 535.963 111.323 535.391 112.786C532.735 111.686 529.843 113.128 529.843 113.128L538.6 116.298C538.158 115.122 537.389 114.095 536.383 113.339Z" fill="#3F3D56"/>
<path d="M602.947 148.899L607.324 145.408C603.924 145.034 602.527 146.883 601.955 148.347C599.298 147.247 596.407 148.688 596.407 148.688L605.164 151.859C604.722 150.682 603.953 149.655 602.947 148.899Z" fill="#3F3D56"/>
<path d="M531.153 179.243L535.53 175.752C532.13 175.378 530.733 177.227 530.161 178.691C527.505 177.591 524.613 179.033 524.613 179.033L533.37 182.203C532.928 181.026 532.159 180 531.153 179.243Z" fill="#3F3D56"/>
<path opacity="0.2" d="M678.457 268.307C678.467 275.935 676.892 283.483 673.83 290.473L575.235 241.201L567.737 237.489L577.898 236.934L665.957 232.136C674.339 241.846 678.457 254.486 678.457 268.307Z" fill="black"/>
<path d="M690.343 237.489H548.657V226.11L619.025 196.713L690.343 226.11V237.489Z" fill="#3F3D56"/>
</g>
<defs>
<clipPath id="clip0_40_1006">
<rect width="339" height="402" fill="white" transform="translate(450 14)"/>
</clipPath>
</defs>
</svg>
