<svg width="1239" height="430" viewBox="0 0 1239 430" fill="none" xmlns="http://www.w3.org/2000/svg">
<rect width="1239" height="430" fill="white"/>
<g clip-path="url(#clip0_40_1000)">
<path d="M741.106 378.377H536.425C535.156 378.375 533.94 377.871 533.043 376.974C532.145 376.076 531.641 374.86 531.639 373.591V233.831C531.641 232.562 532.145 231.345 533.043 230.448C533.94 229.551 535.156 229.046 536.425 229.045H741.106C742.375 229.046 743.591 229.551 744.489 230.448C745.386 231.345 745.891 232.562 745.892 233.831V373.591C745.891 374.86 745.386 376.076 744.489 376.974C743.591 377.871 742.375 378.375 741.106 378.377Z" fill="white"/>
<path d="M741.106 378.377H536.425C535.156 378.375 533.94 377.871 533.043 376.974C532.145 376.076 531.641 374.86 531.639 373.591V233.831C531.641 232.562 532.145 231.345 533.043 230.448C533.94 229.551 535.156 229.046 536.425 229.045H741.106C742.375 229.046 743.591 229.551 744.489 230.448C745.386 231.345 745.891 232.562 745.892 233.831V373.591C745.891 374.86 745.386 376.076 744.489 376.974C743.591 377.871 742.375 378.375 741.106 378.377ZM536.425 230.108C535.438 230.109 534.492 230.502 533.794 231.2C533.096 231.898 532.704 232.844 532.703 233.831V373.591C532.704 374.578 533.096 375.524 533.794 376.222C534.492 376.92 535.438 377.312 536.425 377.313H741.106C742.093 377.312 743.039 376.92 743.737 376.222C744.435 375.524 744.827 374.578 744.829 373.591V233.831C744.827 232.844 744.435 231.898 743.737 231.2C743.039 230.502 742.093 230.109 741.106 230.108H536.425Z" fill="#3F3D56"/>
<path d="M662.459 377.536H615.072V299.09C615.074 297.229 615.814 295.445 617.13 294.13C618.446 292.814 620.23 292.074 622.09 292.072H655.441C657.302 292.074 659.085 292.814 660.401 294.13C661.717 295.445 662.457 297.229 662.459 299.09V377.536Z" fill="#E6E6E6"/>
<path d="M729.943 199.254H702.882V154.03C702.883 152.761 703.388 151.544 704.285 150.647C705.182 149.75 706.399 149.245 707.668 149.244H725.157C726.426 149.245 727.643 149.75 728.54 150.647C729.437 151.544 729.942 152.761 729.943 154.03V199.254Z" fill="white"/>
<path d="M729.943 199.254H702.882V154.03C702.883 152.761 703.388 151.544 704.285 150.647C705.182 149.75 706.399 149.245 707.668 149.244H725.157C726.426 149.245 727.643 149.75 728.54 150.647C729.437 151.544 729.942 152.761 729.943 154.03V199.254ZM703.945 198.19H728.88V154.03C728.878 153.043 728.486 152.097 727.788 151.399C727.09 150.701 726.144 150.309 725.157 150.307H707.668C706.681 150.309 705.735 150.701 705.037 151.399C704.339 152.097 703.946 153.043 703.945 154.03V198.19Z" fill="#3F3D56"/>
<path d="M577.37 218.297C606.15 218.297 629.481 194.967 629.481 166.188C629.481 137.409 606.15 114.079 577.37 114.079C548.59 114.079 525.26 137.409 525.26 166.188C525.26 194.967 548.59 218.297 577.37 218.297Z" fill="#F2F2F2"/>
<path d="M717.223 141.316C712.53 141.168 708.353 136.888 708.319 132.193C708.286 127.497 712.402 123.158 717.092 122.944C727.536 122.466 736.087 111.258 733.789 101.059C731.491 90.8604 718.959 84.4033 709.319 88.4512C701.925 91.5563 694.453 81.7727 696.327 73.9749C698.201 66.1771 705.293 60.9408 711.855 56.3298C718.417 51.7188 725.436 46.3049 727.02 38.443C728.604 30.5811 720.496 21.1635 713.352 24.8078" fill="#E6E6E6"/>
<path d="M595.058 314.859H555.03C553.433 314.857 551.902 314.222 550.773 313.093C549.645 311.964 549.009 310.434 549.008 308.837V275.839C549.01 274.242 549.645 272.711 550.774 271.582C551.903 270.453 553.433 269.818 555.03 269.817H595.058C596.654 269.818 598.185 270.453 599.314 271.582C600.443 272.711 601.078 274.242 601.08 275.839V308.837C601.078 310.434 600.443 311.964 599.314 313.093C598.185 314.222 596.654 314.857 595.058 314.859Z" fill="#E6E6E6"/>
<path d="M723.427 314.859H683.4C681.803 314.857 680.272 314.222 679.143 313.093C678.014 311.964 677.379 310.434 677.377 308.837V275.839C677.379 274.242 678.014 272.711 679.143 271.582C680.272 270.453 681.803 269.818 683.4 269.817H723.427C725.024 269.818 726.555 270.453 727.684 271.582C728.813 272.711 729.448 274.242 729.45 275.839V308.837C729.448 310.434 728.813 311.964 727.684 313.093C726.555 314.222 725.024 314.857 723.427 314.859Z" fill="#E6E6E6"/>
<path d="M516.357 231.919V210.416C516.357 208.764 516.794 207.142 517.623 205.713C518.452 204.284 519.644 203.1 521.078 202.28L640.558 133.994C642.041 133.146 643.727 132.72 645.435 132.762C647.143 132.803 648.807 133.311 650.247 134.229L756.842 202.216C758.17 203.063 759.263 204.23 760.02 205.611C760.777 206.992 761.174 208.541 761.174 210.116V231.919C761.174 234.405 760.186 236.788 758.429 238.545C756.672 240.303 754.288 241.29 751.803 241.29H525.728C523.243 241.29 520.859 240.303 519.102 238.545C517.345 236.788 516.357 234.405 516.357 231.919Z" fill="#25929B"/>
<path opacity="0.2" d="M751.803 231.716H525.728C523.243 231.716 520.859 230.729 519.102 228.972C517.345 227.214 516.357 224.831 516.357 222.346V230.854C516.357 233.339 517.345 235.723 519.102 237.48C520.859 239.237 523.243 240.225 525.728 240.225H751.803C754.288 240.225 756.672 239.237 758.429 237.48C760.186 235.723 761.174 233.339 761.174 230.854V222.346C761.174 224.831 760.186 227.214 758.429 228.972C756.672 230.729 754.288 231.716 751.803 231.716Z" fill="black"/>
<path d="M770.158 305.3C770.158 288.81 783.527 249.681 800.017 249.681C816.507 249.681 829.875 288.81 829.875 305.3C829.875 313.219 826.73 320.813 821.13 326.413C815.53 332.012 807.936 335.158 800.017 335.158C792.098 335.158 784.503 332.012 778.904 326.413C773.304 320.813 770.158 313.219 770.158 305.3Z" fill="#F2F2F2"/>
<path d="M800.017 377.742C799.876 377.742 799.741 377.686 799.641 377.587C799.541 377.487 799.485 377.352 799.485 377.211V270C799.485 269.859 799.541 269.724 799.641 269.624C799.741 269.525 799.876 269.469 800.017 269.469C800.158 269.469 800.293 269.525 800.393 269.624C800.493 269.724 800.549 269.859 800.549 270V377.211C800.549 377.352 800.493 377.487 800.393 377.587C800.293 377.686 800.158 377.742 800.017 377.742Z" fill="#3F3D56"/>
<path d="M800.017 317.543C799.913 317.543 799.811 317.513 799.724 317.456C799.637 317.398 799.569 317.317 799.528 317.221C799.487 317.125 799.475 317.02 799.494 316.917C799.512 316.815 799.56 316.72 799.632 316.645L814.81 300.717C814.859 300.667 814.916 300.626 814.98 300.598C815.044 300.57 815.113 300.554 815.183 300.553C815.252 300.551 815.322 300.563 815.387 300.588C815.452 300.613 815.512 300.651 815.562 300.699C815.613 300.747 815.653 300.805 815.682 300.869C815.71 300.933 815.725 301.002 815.727 301.071C815.729 301.141 815.717 301.211 815.691 301.276C815.666 301.341 815.628 301.401 815.58 301.451L800.402 317.379C800.352 317.431 800.293 317.472 800.226 317.501C800.16 317.529 800.089 317.543 800.017 317.543Z" fill="#3F3D56"/>
<path d="M800.017 290.69C799.884 290.69 799.756 290.641 799.658 290.551L786.541 278.558C786.489 278.511 786.447 278.455 786.418 278.391C786.388 278.328 786.371 278.259 786.368 278.189C786.365 278.12 786.375 278.05 786.399 277.984C786.423 277.918 786.459 277.858 786.507 277.806C786.554 277.755 786.611 277.713 786.674 277.683C786.737 277.654 786.806 277.637 786.876 277.634C786.946 277.631 787.016 277.642 787.081 277.666C787.147 277.69 787.207 277.726 787.259 277.774L800.376 289.766C800.455 289.838 800.51 289.933 800.535 290.037C800.559 290.142 800.552 290.251 800.513 290.351C800.474 290.451 800.406 290.537 800.317 290.597C800.229 290.658 800.124 290.69 800.017 290.69Z" fill="#3F3D56"/>
<path d="M405.714 272.491C405.714 248.234 425.379 190.672 449.637 190.672C473.895 190.672 493.56 248.234 493.56 272.491C493.56 284.14 488.933 295.311 480.695 303.548C472.458 311.785 461.286 316.412 449.637 316.412C437.988 316.412 426.816 311.785 418.579 303.548C410.342 295.311 405.714 284.14 405.714 272.491Z" fill="#25929B"/>
<path d="M449.637 378.806C449.496 378.806 449.361 378.75 449.261 378.65C449.162 378.55 449.105 378.415 449.105 378.274V220.563C449.105 220.422 449.161 220.287 449.261 220.187C449.361 220.087 449.496 220.031 449.637 220.031C449.778 220.031 449.914 220.087 450.013 220.187C450.113 220.287 450.169 220.422 450.169 220.563V378.274C450.169 378.415 450.113 378.55 450.013 378.65C449.914 378.75 449.778 378.806 449.637 378.806Z" fill="#3F3D56"/>
<path d="M449.637 290.251C449.533 290.251 449.431 290.22 449.344 290.163C449.257 290.105 449.189 290.024 449.148 289.928C449.107 289.832 449.095 289.727 449.114 289.624C449.132 289.522 449.18 289.427 449.252 289.352L471.58 265.922C471.677 265.82 471.811 265.761 471.952 265.757C472.093 265.754 472.23 265.807 472.332 265.904C472.434 266.001 472.493 266.135 472.497 266.276C472.5 266.417 472.447 266.554 472.35 266.656L450.022 290.086C449.973 290.138 449.913 290.179 449.847 290.208C449.78 290.236 449.709 290.251 449.637 290.251Z" fill="#3F3D56"/>
<path d="M449.637 250.749C449.504 250.749 449.376 250.699 449.278 250.609L429.983 232.968C429.878 232.873 429.816 232.74 429.81 232.599C429.804 232.458 429.854 232.321 429.949 232.217C430.044 232.112 430.177 232.05 430.318 232.044C430.458 232.038 430.596 232.088 430.7 232.183L449.996 249.824C450.075 249.897 450.131 249.991 450.155 250.096C450.179 250.2 450.172 250.309 450.133 250.409C450.094 250.509 450.026 250.595 449.937 250.656C449.849 250.716 449.744 250.749 449.637 250.749Z" fill="#3F3D56"/>
<path d="M779.159 377.69C779.209 377.729 779.262 377.764 779.313 377.802H822.553C823.4 374.369 823.699 370.933 822.434 367.949C820.631 363.696 815.294 361.042 811.052 362.868C810.046 363.312 809.171 364.005 808.507 364.881C806.849 361.913 803.875 359.676 800.442 359.678C796.141 359.681 792.565 363.198 791.398 367.261C789.519 364.089 785.807 361.873 782.179 362.826C776.111 364.421 774.195 373.853 779.159 377.69Z" fill="#E6E6E6"/>
<path d="M407.689 378.639C407.79 378.718 407.897 378.788 408 378.865H495.289C496.999 371.936 497.603 364.999 495.048 358.974C491.408 350.39 480.635 345.032 472.071 348.718C470.041 349.615 468.274 351.014 466.934 352.782C463.587 346.791 457.583 342.274 450.653 342.279C441.971 342.285 434.752 349.385 432.396 357.586C428.603 351.183 421.11 346.708 413.786 348.633C401.536 351.853 397.667 370.894 407.689 378.639Z" fill="#E6E6E6"/>
<path d="M845.998 377.316L394 378.171L394.002 379.235L846 378.38L845.998 377.316Z" fill="#3F3D56"/>
<path d="M546.524 355.674C546.631 355.253 546.646 354.814 546.566 354.388C546.486 353.961 546.313 353.558 546.06 353.205C545.807 352.852 545.48 352.56 545.101 352.347C544.723 352.135 544.303 352.008 543.87 351.975L526.982 330.862L522.803 334.757L540.644 354.925C540.637 355.655 540.899 356.363 541.38 356.913C541.86 357.464 542.526 357.819 543.251 357.911C543.976 358.003 544.709 357.826 545.312 357.414C545.916 357.002 546.347 356.382 546.524 355.674Z" fill="#FFB8B8"/>
<path d="M530.222 334.216L524.884 338.303C524.733 338.42 524.557 338.502 524.371 338.544C524.185 338.587 523.991 338.589 523.804 338.55C523.617 338.511 523.44 338.432 523.286 338.318C523.132 338.205 523.004 338.06 522.911 337.892L519.66 332.032C519.07 331.251 518.813 330.269 518.946 329.3C519.079 328.33 519.591 327.453 520.369 326.86C521.148 326.268 522.13 326.008 523.099 326.138C524.069 326.268 524.948 326.777 525.543 327.554L530.339 332.204C530.476 332.337 530.583 332.498 530.653 332.677C530.722 332.855 530.752 333.046 530.741 333.237C530.73 333.428 530.678 333.614 530.588 333.783C530.498 333.952 530.373 334.1 530.222 334.216Z" fill="#3F3D56"/>
<path d="M521.258 321.47C525.007 321.47 528.045 318.432 528.045 314.683C528.045 310.935 525.007 307.897 521.258 307.897C517.51 307.897 514.472 310.935 514.472 314.683C514.472 318.432 517.51 321.47 521.258 321.47Z" fill="#FFB8B8"/>
<path d="M535.746 402.716H539.134L538.811 396.376H533.811L535.746 402.716Z" fill="#FFB8B8"/>
<path d="M534.882 401.61L541.553 401.61C542.112 401.61 542.665 401.72 543.181 401.934C543.697 402.147 544.165 402.46 544.56 402.855C544.955 403.25 545.268 403.719 545.482 404.234C545.695 404.75 545.805 405.303 545.805 405.861V406L534.882 406L534.882 401.61Z" fill="#2F2E41"/>
<path d="M499.626 397.92L502.509 399.7L505.567 394.137L502.079 391.955L499.626 397.92Z" fill="#FFB8B8"/>
<path d="M499.473 396.525L505.149 400.031C505.624 400.324 506.036 400.709 506.363 401.161C506.689 401.614 506.924 402.127 507.052 402.67C507.18 403.214 507.201 403.777 507.111 404.328C507.022 404.879 506.825 405.408 506.531 405.883L506.459 406L497.166 400.26L499.473 396.525Z" fill="#2F2E41"/>
<path d="M535.501 400.857C535.249 400.857 535.003 400.78 534.796 400.637C534.589 400.494 534.43 400.291 534.341 400.056L522.087 370.759C522.061 370.687 522.015 370.624 521.955 370.577C521.895 370.529 521.824 370.5 521.748 370.49C521.672 370.481 521.596 370.493 521.526 370.525C521.457 370.556 521.397 370.606 521.355 370.669L504.52 397.188C504.355 397.435 504.107 397.615 503.821 397.694C503.535 397.774 503.23 397.748 502.962 397.622L500.658 396.547C500.363 396.408 500.134 396.159 500.021 395.853C499.907 395.547 499.917 395.209 500.05 394.911L513.842 364.168C513.541 363.436 510.603 355.913 515.116 352.196L515.148 352.177L527.386 346.718L527.695 356.106L539.893 398.428C539.939 398.587 539.953 398.754 539.933 398.919C539.914 399.083 539.862 399.242 539.78 399.386C539.698 399.531 539.588 399.657 539.457 399.758C539.325 399.859 539.175 399.933 539.015 399.975L535.82 400.816C535.716 400.843 535.609 400.857 535.501 400.857Z" fill="#2F2E41"/>
<path d="M527.572 332.985C527.106 331.115 526.445 329.23 525.56 328.36C525.234 328.042 524.928 327.706 524.644 327.351C524.048 326.601 523.299 325.987 522.447 325.551C522.759 325.377 522.941 325.17 522.941 324.947C522.941 324.337 521.581 323.842 519.902 323.842C518.223 323.842 516.862 324.337 516.862 324.947C516.866 325.018 516.884 325.088 516.915 325.152C516.946 325.216 516.99 325.273 517.043 325.32C515.947 325.767 514.994 326.506 514.289 327.457C513.584 328.407 513.153 329.533 513.044 330.712C512.651 334.917 512.537 340.291 513.913 343.69C515.067 346.501 515.158 349.636 514.171 352.51C514.104 352.71 514.096 352.925 514.147 353.13C514.199 353.335 514.308 353.52 514.462 353.665C514.615 353.809 514.807 353.907 515.015 353.945C515.222 353.984 515.437 353.962 515.632 353.883L527.776 348.99C527.98 348.907 528.155 348.766 528.279 348.583C528.402 348.4 528.468 348.185 528.468 347.965V340.532C528.478 337.99 528.177 335.455 527.572 332.985Z" fill="#3F3D56"/>
<path d="M504.337 363.596C504.759 363.498 505.155 363.308 505.497 363.041C505.838 362.773 506.117 362.433 506.313 362.046C506.509 361.659 506.618 361.234 506.632 360.8C506.646 360.366 506.565 359.935 506.394 359.536L515.895 334.48L511.077 333.236L502.288 358.034C501.637 358.365 501.13 358.924 500.864 359.604C500.597 360.285 500.589 361.039 500.842 361.725C501.094 362.41 501.59 362.979 502.234 363.324C502.878 363.669 503.626 363.766 504.337 363.596Z" fill="#FFB8B8"/>
<path d="M515.856 339.235L509.767 336.385C509.594 336.304 509.44 336.186 509.316 336.04C509.193 335.895 509.102 335.724 509.05 335.54C508.998 335.356 508.987 335.162 509.016 334.973C509.046 334.785 509.116 334.604 509.222 334.445L512.922 328.857C513.342 327.974 514.096 327.294 515.017 326.966C515.938 326.637 516.951 326.687 517.836 327.104C518.72 327.521 519.403 328.272 519.735 329.191C520.067 330.111 520.022 331.124 519.608 332.01L517.695 338.411C517.64 338.594 517.546 338.763 517.42 338.907C517.294 339.051 517.138 339.166 516.964 339.244C516.789 339.322 516.6 339.362 516.409 339.36C516.217 339.359 516.029 339.316 515.856 339.235Z" fill="#3F3D56"/>
<path d="M527.493 313.013C527.799 313.049 528.109 312.993 528.383 312.852C528.884 312.524 528.834 311.78 528.665 311.206C528.243 309.83 527.481 308.583 526.45 307.58C525.418 306.577 524.151 305.849 522.765 305.464C521.798 305.208 520.576 305.218 520.023 306.051C518.634 305.125 516.959 304.728 515.303 304.932C513.646 305.135 512.117 305.926 510.994 307.16C509.895 308.448 509.163 310.008 508.874 311.676C508.294 314.517 505.81 320.378 507.186 322.931C508.101 324.629 512.315 323.306 514.097 324.046C514.984 324.432 515.954 324.593 516.918 324.515C517.883 324.437 518.814 324.123 519.628 323.599C520.425 323.049 521.024 322.258 521.337 321.342C521.649 320.425 521.659 319.433 521.364 318.511C521.052 317.833 520.692 317.178 520.288 316.551C519.881 315.917 519.716 315.158 519.82 314.412C520.07 313.277 525.427 312.97 527.493 313.013Z" fill="#2F2E41"/>
</g>
<defs>
<clipPath id="clip0_40_1000">
<rect width="452" height="382" fill="white" transform="translate(394 24)"/>
</clipPath>
</defs>
</svg>
