<svg width="1239" height="430" viewBox="0 0 1239 430" fill="none" xmlns="http://www.w3.org/2000/svg">
<rect width="1239" height="430" fill="white"/>
<g clip-path="url(#clip0_32_156)">
<path d="M984.759 371.747C771.904 280.352 580.983 285.21 458.302 305.375C325.357 327.231 241.678 371.271 240.848 371.714L240 370.12C240.832 369.676 324.719 325.516 457.934 303.606C536.218 290.738 615.824 287.945 694.815 295.295C793.503 304.487 891.293 329.649 985.47 370.087L984.759 371.747Z" fill="#F2F2F2"/>
<path d="M493.419 203.88L443.019 163.932C440.888 162.233 439.511 159.764 439.183 157.058C438.855 154.351 439.604 151.625 441.267 149.466C442.128 148.349 443.207 147.419 444.438 146.733C445.669 146.047 447.027 145.62 448.429 145.476C449.831 145.333 451.247 145.476 452.591 145.899C453.936 146.321 455.18 147.013 456.249 147.932L507.332 191.035L539.475 215.916C541.095 215.003 542.957 214.611 544.808 214.794C546.658 214.977 548.407 215.726 549.818 216.939C551.228 218.151 552.232 219.769 552.692 221.572C553.152 223.376 553.046 225.277 552.388 227.018C551.731 228.759 550.554 230.255 549.018 231.303C547.481 232.352 545.66 232.901 543.8 232.877C541.941 232.853 540.134 232.256 538.625 231.169C537.117 230.081 535.979 228.555 535.367 226.797L493.419 203.88Z" fill="#FFB6B6"/>
<path d="M449.621 176.708C448.957 176.799 448.282 176.67 447.699 176.339C447.115 176.009 446.657 175.496 446.393 174.88C446.053 174.126 445.486 173.496 444.771 173.08C444.632 173.001 444.488 172.931 444.34 172.871C443.438 172.531 442.631 171.979 441.988 171.26C441.346 170.541 440.886 169.678 440.648 168.743C439.908 165.656 437.537 162.66 435.155 160.35C432.548 157.822 429.765 155.398 427.838 152.319C425.059 147.878 424.279 141.644 429.641 137.939C431.947 136.398 434.712 135.7 437.471 135.962C443.248 136.432 448.025 139.96 452.563 143.379L451.427 141.147C456.318 144.968 461.93 147.761 467.926 149.358C466.889 150.302 467.788 152.19 469.12 152.629C470.451 153.068 471.887 152.605 473.258 152.314C474.987 151.947 477.124 151.978 477.806 154.044C477.956 154.543 478 155.067 477.937 155.584C477.874 156.101 477.705 156.599 477.441 157.047C472.624 165.626 466.087 173.115 458.24 179.043C456.496 180.359 454.472 181.654 452.304 181.396C450.135 181.139 448.291 178.441 449.621 176.708Z" fill="#25929B"/>
<path d="M409.666 232.471L404.961 209.773L454.409 194.183L447.75 246.432L409.666 232.471Z" fill="#FFB6B6"/>
<path d="M453.038 212.179L405.384 232.75C405.384 232.75 399.258 232.48 399.258 228.776C399.258 225.072 402.682 224.297 398.195 221.443C393.707 218.589 391.857 220.442 392.782 215.811C393.707 211.181 394.632 209.65 394.632 208.563C394.632 207.477 393.707 202.846 393.707 198.216C393.707 195.971 400.912 191.896 399.12 178.741C396.936 162.714 397.702 138.187 413.136 133.392L424.239 113.945H445.402L451.995 133.392L459.81 143.643C459.81 143.643 475.226 163.155 470.6 173.341C465.974 183.528 453.038 212.179 453.038 212.179Z" fill="#2F2E41"/>
<path d="M547.203 243.023C547.12 226.491 544.383 210.08 539.099 194.417C537.581 189.923 535.857 185.508 533.926 181.171C533.217 179.578 530.784 180.765 531.493 182.36C538.057 197.141 542.212 212.881 543.799 228.98C544.252 233.58 544.487 238.194 544.504 242.82C544.513 244.552 547.212 244.77 547.203 243.023Z" fill="#3F3D56"/>
<path d="M533.645 179.071L535.175 183.612C522.179 182.315 520.619 165.937 512.062 156.067C503.498 146.207 488.031 142.952 488.567 129.895C488.647 128.006 488.945 125.892 490.426 124.713C492.278 123.255 494.985 123.973 497.161 124.877C499.458 125.839 501.686 126.957 503.831 128.223C504.509 130.029 505.185 131.836 505.859 133.643C506.087 134.263 506.486 134.805 507.009 135.208C507.532 135.611 508.158 135.857 508.814 135.92C509.471 135.982 510.132 135.856 510.721 135.559C511.31 135.261 511.803 134.802 512.143 134.236L512.176 134.179C538.063 134.14 541.03 155.42 533.645 179.071Z" fill="#25929B"/>
<path d="M534.331 184.213C527.972 186.732 522.603 181.365 516.252 178.832C509.893 176.289 502.613 176.611 499.723 170.399C499.464 169.975 499.297 169.501 499.233 169.008C499.168 168.515 499.208 168.013 499.35 167.537C499.86 166.407 501.295 166.098 502.524 165.992C504.237 165.855 505.958 165.873 507.668 166.043C508.082 166.79 508.487 167.545 508.901 168.3C509.601 169.575 510.292 170.85 510.993 172.125C512.259 170.705 513.299 169.097 514.074 167.358C525.787 162.458 530.892 171.168 532.527 182.465L534.331 184.213Z" fill="#25929B"/>
<path d="M532.568 184.08C538.48 187.522 544.59 183.019 551.248 181.464C557.915 179.901 565.065 181.308 568.85 175.599C569.17 175.218 569.406 174.774 569.543 174.296C569.68 173.818 569.716 173.317 569.647 172.824C569.311 171.631 567.939 171.111 566.739 170.821C565.066 170.431 563.361 170.19 561.645 170.103C561.124 170.779 560.611 171.465 560.089 172.15C559.206 173.307 558.332 174.463 557.449 175.619C556.409 174.026 555.622 172.28 555.115 170.445C544.265 163.848 537.917 171.697 534.614 182.622L532.568 184.08Z" fill="#25929B"/>
<path d="M532.684 184.317C539.09 181.918 539.478 174.334 542.493 168.192C545.507 162.038 551.124 157.391 549.107 150.843C549.015 150.354 548.821 149.89 548.538 149.481C548.256 149.072 547.891 148.727 547.466 148.469C546.331 147.973 545.06 148.706 544.076 149.452C542.714 150.501 541.449 151.669 540.295 152.943C540.487 153.775 540.693 154.606 540.892 155.445C541.226 156.861 541.567 158.27 541.902 159.686C540.011 159.483 538.162 158.987 536.423 158.218C524.45 162.443 526.498 172.331 532.852 181.809L532.684 184.317Z" fill="#25929B"/>
<path d="M425.979 94.3449C441.535 106.189 458.858 115.615 462.124 128.65C462.124 128.65 460.168 108.17 469.292 112.052C484.622 118.574 479.435 83.1028 475.136 77.3024C467.971 67.6353 443.81 62.1423 443.81 62.1423L426.67 71.56L425.979 94.3449Z" fill="#2F2E41"/>
<path d="M453.066 108.718C467.903 108.718 479.932 96.6787 479.932 81.8278C479.932 66.9769 467.903 54.9378 453.066 54.9378C438.229 54.9378 426.201 66.9769 426.201 81.8278C426.201 96.6787 438.229 108.718 453.066 108.718Z" fill="#FFB6B6"/>
<path d="M443.391 71.5391L442.357 76.0839L460.429 80.2018C460.445 79.2826 460.651 78.3767 461.033 77.5409C461.415 76.705 461.966 75.9573 462.651 75.3447C462.261 77.1267 462.306 78.9765 462.781 80.7378C472.527 86.2118 471.967 88.1511 479.844 86.7551C480.911 86.9983 482.031 86.8072 482.958 86.2239C483.884 85.6405 484.541 84.7127 484.784 83.6446C487.953 69.7103 488.995 55.4685 475.141 52.0098C471.774 51.1671 468.272 51.0057 464.842 51.5352C461.412 52.0647 458.121 53.2744 455.164 55.0934C452.207 56.9123 449.642 59.3039 447.62 62.1279C445.599 64.9519 444.161 68.1515 443.391 71.5391Z" fill="#2F2E41"/>
<path d="M447.811 89.6717C448.696 85.7901 450.43 82.1534 452.889 79.024C455.348 75.8946 458.471 73.3506 462.031 71.5754C465.592 69.8002 469.502 68.8381 473.479 68.7586C477.456 68.679 481.401 69.484 485.029 71.1154C483.772 67.4025 481.228 64.2629 477.859 62.265L457.517 53.4254C447.483 51.1391 431.599 44.6499 424.352 50.8642C417.674 56.5729 420.924 67.7475 414.776 74.0059C408.037 80.8645 407.465 88.9742 409.376 93.6387C411.587 99.0351 416.009 106.397 421.529 107.991C421.816 106.092 422.763 104.354 424.202 103.084C423.804 104.894 423.77 106.765 424.1 108.589L457.517 135.264C454.396 132.547 451.737 125.547 449.905 117.662C448.821 112.994 442.354 111.356 447.599 103.435C452.844 95.514 447.099 92.8033 447.811 89.6717Z" fill="#2F2E41"/>
<path d="M421.047 59.9184L421.14 60.106C421.255 60.3562 421.37 60.6064 421.463 60.8671L421.474 60.8775C421.984 61.0652 422.557 60.7628 423.119 60.2832C423.032 61.4107 422.969 62.5017 422.922 63.5709L440.712 56.603C437.618 57.1376 437.161 46.12 434.942 48.2313C434.817 48.3459 434.702 48.4606 434.587 48.5753C434.864 47.911 435.053 47.2136 435.15 46.5006C435.245 45.6057 435.174 44.701 434.942 43.8317C434.938 43.8276 434.935 43.8226 434.933 43.8172C434.931 43.8118 434.931 43.806 434.931 43.8004C434.71 43.0143 434.365 42.2683 433.91 41.5901C433.255 40.6038 432.426 39.7453 431.463 39.0567C430.234 38.1171 428.802 37.4803 427.282 37.1977C425.762 36.9152 424.197 36.9949 422.713 37.4303C419.315 38.717 416.506 41.2059 414.818 44.4259C413.412 46.9594 412.339 49.8055 412.557 52.6934C412.621 53.4589 412.786 54.2126 413.047 54.9349C413.372 55.9493 413.926 56.875 414.667 57.6399C415.408 58.4048 416.315 58.9883 417.318 59.345C417.568 59.4283 417.859 59.5222 418.172 59.6368C418.338 58.2803 418.349 56.909 418.203 55.55C419.361 56.8576 420.319 58.3297 421.047 59.9184Z" fill="#2F2E41"/>
<path d="M438.275 55.8941C438.252 56.4756 438.182 57.0544 438.067 57.6247C438.058 57.6986 438.044 57.7718 438.025 57.8437C437.296 61.086 433.348 54.3407 430.296 56.6031C427.942 58.3441 426.64 58.709 424.046 59.7307C423.953 59.4701 423.119 59.9809 423.005 59.7307C422.974 59.6682 423.036 58.7507 423.005 58.6881C425.536 57.6768 425.953 57.2286 428.213 55.5605C431.077 53.4441 430.671 55.425 431.338 52.4328C432.109 48.9819 436.65 50.4623 434.317 48.8255L434.588 48.4502C436.244 49.5954 437.467 51.2668 438.056 53.1938C438.055 53.1995 438.056 53.2053 438.058 53.2107C438.06 53.2161 438.063 53.221 438.067 53.2252C438.241 54.1035 438.311 54.9994 438.275 55.8941Z" fill="#25929B"/>
<path d="M837.698 370.788H818.259L809.417 324.932C809.283 324.235 809.304 323.517 809.479 322.829C809.655 322.141 809.98 321.501 810.431 320.953C810.883 320.406 811.45 319.965 812.091 319.662C812.733 319.36 813.433 319.203 814.142 319.203H841.814C842.524 319.203 843.224 319.36 843.866 319.662C844.507 319.965 845.074 320.406 845.526 320.953C845.977 321.501 846.302 322.141 846.477 322.829C846.653 323.517 846.674 324.235 846.539 324.932L837.698 370.788Z" fill="#F2F2F2"/>
<path d="M720.389 371.09C720.262 371.147 700.823 371.148 700.95 371.204C693.964 359.623 691.256 349.834 690.36 342.671C690.164 341.03 690.316 339.367 690.808 337.79C691.299 336.212 692.118 334.757 693.212 333.52C694.305 332.282 695.648 331.29 697.152 330.609C698.656 329.928 700.287 329.573 701.937 329.567L719.533 329.465C721.072 329.454 722.598 329.747 724.024 330.327C725.449 330.907 726.747 331.762 727.842 332.844C728.938 333.926 729.809 335.214 730.407 336.633C731.005 338.052 731.318 339.575 731.328 341.116C731.367 349.822 729.422 361.757 720.389 371.09Z" fill="#F2F2F2"/>
<path d="M710.344 330.949C711.296 323.218 710.912 315.381 709.209 307.78C708.925 306.504 706.968 307.044 707.252 308.32C708.9 315.746 709.259 323.401 708.314 330.949C708.153 332.243 710.185 332.232 710.344 330.949Z" fill="#F2F2F2"/>
<path d="M713.062 331.455C713.519 325.008 715.13 318.696 717.817 312.82C718.357 311.639 716.608 310.606 716.064 311.794C713.22 317.992 711.515 324.652 711.032 331.455C710.939 332.76 712.97 332.754 713.062 331.455Z" fill="#F2F2F2"/>
<path d="M707.382 331.247C706.793 324.029 704.728 317.009 701.315 310.622C700.698 309.469 698.946 310.494 699.562 311.648C702.81 317.716 704.781 324.386 705.352 331.247C705.459 332.541 707.49 332.552 707.382 331.247Z" fill="#F2F2F2"/>
<path d="M700.591 309.948C699.433 309.526 699.303 307.758 699.033 306.742C698.848 305.962 698.55 305.213 698.148 304.519C697.687 303.828 697.161 303.183 696.577 302.592C696.099 302.153 695.711 301.626 695.434 301.039C695.349 300.814 695.325 300.57 695.366 300.333C695.404 300.231 695.432 300.126 695.451 300.018L695.466 299.983C695.529 299.859 695.433 299.878 695.177 300.038C695.177 300.053 695.667 300.325 695.719 300.364C697.121 301.462 698.193 302.926 698.817 304.594C699.441 306.262 699.594 308.071 699.258 309.82C698.995 311.096 700.951 311.642 701.215 310.36C701.657 308.179 701.471 305.917 700.68 303.837C699.888 301.757 698.523 299.944 696.743 298.61C696.284 298.229 695.705 298.022 695.108 298.026C694.751 298.065 694.413 298.208 694.136 298.438C693.859 298.667 693.656 298.973 693.552 299.318C693.379 299.783 693.306 300.28 693.337 300.776C693.368 301.272 693.504 301.756 693.734 302.196C694.578 303.879 696.324 304.844 696.908 306.696C697.556 308.751 697.732 311.061 700.051 311.907C700.311 311.977 700.587 311.941 700.821 311.808C701.054 311.676 701.226 311.456 701.3 311.198C701.366 310.938 701.329 310.663 701.197 310.43C701.065 310.197 700.848 310.025 700.591 309.948Z" fill="#F2F2F2"/>
<path d="M708.729 307.233C707.525 306.796 707.409 305.163 707.084 304.111C706.486 302.54 705.592 301.099 704.453 299.864C703.993 299.367 703.666 298.763 703.501 298.106C703.482 297.98 703.479 297.852 703.491 297.725C703.504 297.603 703.605 297.414 703.588 297.303L703.603 297.268C703.667 297.144 703.571 297.163 703.314 297.323C703.373 297.345 703.431 297.37 703.486 297.4C703.639 297.53 703.833 297.628 703.993 297.756C705.281 298.793 706.276 300.149 706.879 301.689C707.57 303.407 707.749 305.288 707.395 307.105C707.133 308.381 709.089 308.927 709.353 307.645C709.785 305.514 709.618 303.305 708.871 301.263C708.124 299.222 706.827 297.427 705.122 296.079C704.711 295.717 704.217 295.462 703.684 295.338C703.328 295.275 702.961 295.326 702.635 295.482C702.309 295.638 702.04 295.892 701.865 296.208C701.625 296.666 701.486 297.171 701.46 297.688C701.433 298.205 701.519 298.721 701.712 299.202C702.43 301.046 704.206 302.218 704.923 304.052C705.302 305.024 705.46 306.064 705.873 307.024C706.082 307.53 706.397 307.985 706.796 308.359C707.196 308.733 707.671 309.018 708.189 309.193C709.419 309.639 709.949 307.676 708.729 307.233Z" fill="#F2F2F2"/>
<path d="M717.76 311.845C716.977 310.395 718.072 308.674 718.527 307.284C719.016 305.787 718.943 304.222 719.293 302.703C719.389 302.084 719.702 301.52 720.175 301.111C720.304 301.013 720.712 300.903 720.391 300.857C720.155 300.824 720.27 300.864 720.333 301.09C720.426 301.436 720.49 301.789 720.523 302.146C720.677 303.714 720.455 305.296 719.876 306.761C719.258 308.356 718.215 309.751 716.861 310.796C716.635 310.937 716.471 311.16 716.403 311.418C716.336 311.677 716.369 311.951 716.497 312.185C716.634 312.417 716.856 312.585 717.116 312.653C717.376 312.721 717.652 312.684 717.885 312.55C719.528 311.316 720.819 309.673 721.63 307.785C722.442 305.897 722.745 303.829 722.511 301.787C722.38 300.765 722.192 299.399 721.072 298.999C719.975 298.607 718.861 299.402 718.211 300.241C716.997 301.807 717.222 303.847 716.853 305.685C716.358 308.149 714.65 310.357 716.007 312.87C716.629 314.02 718.382 312.996 717.76 311.845Z" fill="#F2F2F2"/>
<path d="M709.17 300.08C708.329 298.535 709.158 296.803 709.577 295.254C709.833 293.718 710.176 292.199 710.605 290.702C710.806 290.14 711.173 289.651 711.656 289.3C711.752 289.239 711.853 289.184 711.957 289.137C711.947 289.068 711.649 289.094 711.66 289.071C711.688 289.214 711.729 289.354 711.783 289.49C711.864 289.843 711.92 290.2 711.95 290.561C712.069 292.07 711.842 293.587 711.286 294.996C710.668 296.591 709.625 297.986 708.271 299.031C708.045 299.172 707.881 299.395 707.814 299.653C707.746 299.912 707.779 300.186 707.907 300.42C708.044 300.652 708.267 300.82 708.526 300.888C708.786 300.956 709.063 300.919 709.295 300.785C710.926 299.561 712.211 297.933 713.024 296.062C713.837 294.191 714.15 292.14 713.932 290.111C713.814 289.142 713.67 287.874 712.724 287.336C711.687 286.747 710.496 287.484 709.781 288.251C708.406 289.725 708.244 291.777 707.868 293.659C707.361 296.187 706.056 298.607 707.417 301.105C708.043 302.253 709.796 301.229 709.17 300.08Z" fill="#F2F2F2"/>
<path d="M715.236 319.488C715.966 318.3 717.445 318.181 718.698 317.958C719.482 317.83 720.253 317.632 721.001 317.365C721.813 317.062 722.594 316.679 723.415 316.397C724.099 316.09 724.867 316.022 725.595 316.204C725.636 316.218 726.094 316.471 726.112 316.461C726.177 316.426 726.001 316.194 726.016 316.194C726.007 316.194 725.935 316.299 725.92 316.309C725.61 316.523 725.352 316.832 725.043 317.056C723.776 317.966 722.309 318.561 720.766 318.791C719.057 319.058 717.307 318.848 715.709 318.184C715.474 318.056 715.2 318.023 714.943 318.091C714.685 318.159 714.462 318.322 714.32 318.548C714.186 318.781 714.149 319.058 714.217 319.318C714.286 319.578 714.453 319.801 714.684 319.938C716.621 320.773 718.745 321.073 720.837 320.807C722.928 320.541 724.91 319.718 726.576 318.425C727.403 317.773 728.32 316.904 727.973 315.743C727.651 314.667 726.307 314.192 725.306 314.085C723.12 313.852 721.197 315.333 719.14 315.805C716.993 316.297 714.761 316.382 713.484 318.462C712.798 319.579 714.553 320.601 715.236 319.488Z" fill="#F2F2F2"/>
<path d="M709.907 307.129C709.117 305.289 709.028 303.224 709.657 301.323C710.286 299.422 711.59 297.819 713.321 296.815C713.399 296.77 713.478 296.726 713.558 296.684C713.707 296.658 713.73 296.624 713.626 296.58C713.792 296.021 713.562 296.459 713.501 296.601C713.317 297.031 713.13 297.46 712.94 297.887C712.517 298.842 712.083 299.792 711.637 300.737C710.719 302.685 709.758 304.615 708.708 306.495C708.069 307.637 709.822 308.663 710.46 307.521C711.478 305.7 712.41 303.833 713.302 301.948C713.739 301.026 714.165 300.099 714.58 299.167C714.762 298.758 714.943 298.348 715.12 297.936C715.37 297.497 715.539 297.017 715.62 296.519C715.62 296.247 715.563 295.978 715.452 295.731C715.341 295.483 715.179 295.261 714.977 295.08C714.775 294.898 714.537 294.762 714.279 294.678C714.021 294.595 713.748 294.568 713.478 294.597C712.479 294.856 711.565 295.372 710.826 296.093C709.332 297.342 708.228 298.995 707.646 300.854C706.924 303.268 707.104 305.864 708.154 308.154C708.291 308.386 708.514 308.553 708.774 308.622C709.034 308.69 709.31 308.653 709.543 308.519C709.77 308.378 709.935 308.156 710.003 307.897C710.07 307.638 710.036 307.363 709.907 307.129Z" fill="#F2F2F2"/>
<path d="M702.647 317.088C701.19 317.743 699.411 316.494 698.106 315.958C696.646 315.358 695.085 315.3 693.597 314.823C693.037 314.671 692.547 314.329 692.211 313.856C692.165 313.759 692.112 313.667 692.052 313.58C692.103 313.592 691.833 313.759 691.95 313.735C692.054 313.714 692.157 313.688 692.262 313.67C692.639 313.609 693.019 313.578 693.401 313.577C695.029 313.554 696.637 313.942 698.076 314.704C699.515 315.466 700.74 316.579 701.637 317.939C702.341 319.035 704.099 318.018 703.39 316.913C702.27 315.186 700.717 313.784 698.886 312.845C697.056 311.906 695.011 311.464 692.956 311.563C691.939 311.628 690.694 311.741 690.172 312.759C689.638 313.798 690.416 315.07 691.19 315.762C692.677 317.09 694.731 317.019 696.541 317.55C697.749 317.904 698.837 318.563 700.025 318.971C701.21 319.412 702.521 319.366 703.672 318.843C703.902 318.705 704.07 318.483 704.138 318.223C704.206 317.962 704.17 317.686 704.036 317.453C703.895 317.225 703.673 317.06 703.414 316.992C703.156 316.924 702.881 316.959 702.647 317.088Z" fill="#F2F2F2"/>
<path d="M952.052 370.681C951.925 370.738 932.486 370.738 932.613 370.794C925.627 359.213 922.919 349.425 922.023 342.261C921.827 340.621 921.979 338.957 922.471 337.38C922.962 335.803 923.782 334.348 924.875 333.11C925.969 331.872 927.311 330.88 928.815 330.199C930.319 329.518 931.95 329.163 933.6 329.158L951.196 329.055C952.735 329.045 954.261 329.338 955.687 329.917C957.113 330.497 958.41 331.353 959.506 332.435C960.601 333.517 961.472 334.804 962.071 336.223C962.669 337.643 962.981 339.166 962.991 340.706C963.03 349.412 961.085 361.348 952.052 370.681Z" fill="#F2F2F2"/>
<path d="M942.007 330.54C942.958 322.809 942.575 314.971 940.872 307.371C940.588 306.095 938.631 306.635 938.915 307.911C940.563 315.337 940.922 322.992 939.977 330.54C939.816 331.834 941.848 331.822 942.007 330.54Z" fill="#F2F2F2"/>
<path d="M944.725 331.045C945.182 324.599 946.792 318.287 949.479 312.41C950.02 311.23 948.271 310.196 947.727 311.385C944.883 317.582 943.178 324.242 942.695 331.045C942.602 332.35 944.633 332.344 944.725 331.045Z" fill="#F2F2F2"/>
<path d="M939.045 330.837C938.456 323.619 936.391 316.599 932.978 310.213C932.362 309.06 930.609 310.085 931.226 311.238C934.473 317.307 936.444 323.977 937.015 330.837C937.122 332.131 939.153 332.143 939.045 330.837Z" fill="#F2F2F2"/>
<path d="M932.254 309.539C931.096 309.116 930.966 307.349 930.696 306.332C930.511 305.552 930.213 304.803 929.811 304.11C929.35 303.419 928.824 302.773 928.24 302.182C927.762 301.744 927.374 301.217 927.097 300.63C927.012 300.405 926.989 300.161 927.029 299.924C927.067 299.822 927.095 299.716 927.114 299.609L927.129 299.574C927.192 299.45 927.096 299.468 926.84 299.628C926.84 299.644 927.33 299.916 927.382 299.955C928.784 301.052 929.856 302.516 930.48 304.185C931.105 305.853 931.257 307.661 930.921 309.411C930.658 310.687 932.614 311.233 932.878 309.951C933.32 307.769 933.135 305.507 932.343 303.427C931.551 301.347 930.186 299.535 928.407 298.2C927.947 297.82 927.368 297.613 926.771 297.617C926.414 297.656 926.076 297.799 925.799 298.028C925.522 298.258 925.319 298.564 925.215 298.908C925.042 299.374 924.969 299.871 925 300.367C925.031 300.863 925.167 301.347 925.398 301.787C926.241 303.469 927.987 304.435 928.571 306.286C929.219 308.341 929.395 310.651 931.714 311.498C931.974 311.567 932.25 311.532 932.484 311.399C932.717 311.266 932.889 311.047 932.963 310.788C933.029 310.529 932.992 310.254 932.86 310.021C932.728 309.788 932.511 309.615 932.254 309.539Z" fill="#F2F2F2"/>
<path d="M940.392 306.824C939.188 306.387 939.072 304.753 938.747 303.701C938.149 302.131 937.256 300.689 936.116 299.455C935.657 298.958 935.329 298.353 935.164 297.697C935.145 297.57 935.142 297.442 935.154 297.315C935.167 297.193 935.269 297.005 935.251 296.894L935.266 296.859C935.33 296.735 935.234 296.753 934.977 296.914C935.036 296.935 935.094 296.961 935.149 296.99C935.303 297.121 935.496 297.219 935.656 297.347C936.944 298.384 937.939 299.739 938.542 301.279C939.233 302.997 939.412 304.878 939.059 306.696C938.796 307.972 940.752 308.518 941.016 307.236C941.448 305.105 941.281 302.896 940.534 300.854C939.787 298.812 938.49 297.017 936.785 295.669C936.374 295.307 935.88 295.053 935.347 294.928C934.991 294.866 934.624 294.916 934.298 295.072C933.972 295.228 933.703 295.482 933.528 295.799C933.288 296.257 933.149 296.762 933.123 297.279C933.096 297.795 933.182 298.312 933.375 298.792C934.093 300.637 935.869 301.809 936.586 303.643C936.965 304.614 937.123 305.654 937.536 306.614C937.745 307.12 938.06 307.576 938.459 307.95C938.859 308.324 939.334 308.608 939.852 308.783C941.082 309.23 941.612 307.267 940.392 306.824Z" fill="#F2F2F2"/>
<path d="M949.423 311.435C948.64 309.985 949.735 308.265 950.19 306.874C950.679 305.377 950.606 303.812 950.956 302.294C951.052 301.675 951.365 301.111 951.838 300.702C951.967 300.604 952.375 300.493 952.054 300.448C951.818 300.414 951.933 300.454 951.996 300.68C952.089 301.026 952.153 301.38 952.186 301.736C952.34 303.304 952.118 304.886 951.539 306.351C950.921 307.946 949.878 309.342 948.524 310.386C948.298 310.528 948.134 310.75 948.066 311.009C947.999 311.267 948.032 311.541 948.16 311.776C948.297 312.007 948.519 312.175 948.779 312.243C949.039 312.312 949.315 312.275 949.548 312.14C951.191 310.906 952.482 309.264 953.293 307.375C954.105 305.487 954.408 303.419 954.174 301.377C954.043 300.355 953.855 298.99 952.735 298.589C951.638 298.197 950.524 298.993 949.874 299.831C948.66 301.397 948.885 303.437 948.516 305.275C948.021 307.739 946.313 309.948 947.67 312.461C948.292 313.611 950.045 312.586 949.423 311.435Z" fill="#F2F2F2"/>
<path d="M940.833 299.67C939.992 298.126 940.821 296.393 941.24 294.844C941.496 293.309 941.84 291.789 942.268 290.293C942.47 289.731 942.836 289.242 943.319 288.891C943.415 288.829 943.516 288.775 943.62 288.727C943.61 288.659 943.312 288.684 943.323 288.661C943.351 288.805 943.392 288.945 943.446 289.081C943.527 289.433 943.583 289.791 943.613 290.152C943.732 291.661 943.505 293.178 942.949 294.586C942.331 296.181 941.288 297.577 939.934 298.621C939.708 298.763 939.544 298.985 939.477 299.244C939.409 299.502 939.442 299.777 939.57 300.011C939.707 300.242 939.93 300.41 940.19 300.478C940.449 300.547 940.726 300.51 940.959 300.375C942.589 299.151 943.874 297.524 944.687 295.652C945.5 293.781 945.813 291.731 945.595 289.702C945.477 288.733 945.334 287.464 944.387 286.927C943.35 286.337 942.159 287.075 941.444 287.841C940.069 289.315 939.908 291.367 939.531 293.249C939.024 295.778 937.719 298.197 939.08 300.696C939.706 301.844 941.459 300.82 940.833 299.67Z" fill="#F2F2F2"/>
<path d="M946.899 319.078C947.629 317.891 949.108 317.771 950.361 317.548C951.145 317.421 951.916 317.223 952.664 316.956C953.476 316.653 954.258 316.27 955.078 315.987C955.762 315.681 956.53 315.613 957.258 315.795C957.299 315.809 957.757 316.061 957.775 316.052C957.84 316.017 957.664 315.785 957.679 315.784C957.67 315.784 957.598 315.889 957.583 315.9C957.273 316.113 957.016 316.423 956.706 316.646C955.439 317.557 953.972 318.151 952.429 318.381C950.72 318.648 948.97 318.438 947.372 317.774C947.138 317.647 946.864 317.614 946.606 317.681C946.348 317.749 946.125 317.913 945.983 318.139C945.849 318.372 945.812 318.648 945.881 318.908C945.949 319.168 946.116 319.391 946.347 319.529C948.284 320.364 950.408 320.664 952.5 320.398C954.591 320.131 956.573 319.309 958.239 318.015C959.066 317.364 959.983 316.494 959.636 315.333C959.314 314.258 957.971 313.782 956.969 313.675C954.783 313.442 952.86 314.924 950.803 315.395C948.656 315.887 946.424 315.972 945.147 318.053C944.461 319.17 946.216 320.191 946.899 319.078Z" fill="#F2F2F2"/>
<path d="M941.57 306.719C940.78 304.88 940.691 302.814 941.32 300.914C941.949 299.013 943.253 297.409 944.984 296.406C945.062 296.36 945.141 296.316 945.221 296.274C945.37 296.249 945.393 296.214 945.289 296.17C945.455 295.611 945.225 296.05 945.164 296.192C944.98 296.622 944.793 297.05 944.603 297.478C944.18 298.433 943.746 299.383 943.3 300.328C942.382 302.276 941.422 304.206 940.371 306.086C939.732 307.228 941.485 308.254 942.123 307.111C943.141 305.291 944.073 303.423 944.966 301.539C945.402 300.617 945.828 299.69 946.243 298.758C946.425 298.348 946.606 297.938 946.784 297.527C947.033 297.088 947.202 296.608 947.283 296.109C947.283 295.838 947.226 295.569 947.115 295.321C947.004 295.073 946.842 294.851 946.64 294.67C946.438 294.489 946.2 294.352 945.942 294.269C945.684 294.186 945.411 294.158 945.141 294.188C944.142 294.447 943.228 294.963 942.489 295.684C940.995 296.932 939.891 298.585 939.31 300.445C938.587 302.859 938.767 305.454 939.817 307.745C939.954 307.976 940.177 308.144 940.437 308.212C940.697 308.28 940.973 308.243 941.206 308.109C941.433 307.969 941.598 307.746 941.666 307.487C941.734 307.229 941.699 306.954 941.57 306.719Z" fill="#F2F2F2"/>
<path d="M934.31 316.679C932.853 317.334 931.074 316.085 929.769 315.549C928.309 314.949 926.748 314.891 925.26 314.414C924.7 314.261 924.21 313.919 923.874 313.446C923.829 313.35 923.775 313.258 923.715 313.17C923.766 313.182 923.497 313.35 923.613 313.326C923.717 313.305 923.82 313.279 923.925 313.26C924.302 313.2 924.683 313.169 925.064 313.168C926.692 313.145 928.3 313.533 929.739 314.295C931.178 315.057 932.403 316.169 933.3 317.529C934.005 318.626 935.762 317.608 935.053 316.504C933.933 314.777 932.38 313.374 930.549 312.435C928.719 311.497 926.674 311.055 924.619 311.154C923.602 311.219 922.357 311.332 921.835 312.349C921.301 313.389 922.079 314.661 922.854 315.352C924.34 316.68 926.394 316.609 928.204 317.14C929.412 317.495 930.5 318.153 931.688 318.561C932.873 319.003 934.184 318.957 935.335 318.433C935.566 318.296 935.733 318.073 935.801 317.813C935.87 317.553 935.833 317.276 935.699 317.043C935.558 316.816 935.336 316.651 935.077 316.583C934.819 316.515 934.544 316.549 934.31 316.679Z" fill="#F2F2F2"/>
<path d="M827.008 322.387C832.425 304.418 830.946 285.073 822.859 268.139C822.297 266.959 820.547 267.989 821.106 269.164C827.112 281.902 829.36 296.091 827.583 310.063C827.068 314.055 826.221 317.996 825.05 321.847C824.99 322.103 825.03 322.373 825.164 322.6C825.298 322.826 825.515 322.992 825.769 323.062C826.022 323.132 826.293 323.101 826.524 322.975C826.756 322.849 826.929 322.638 827.008 322.387Z" fill="#F2F2F2"/>
<path d="M830.193 299.663L844.751 280.423L842.86 279.91C843.121 286.458 842.137 292.995 839.959 299.175C838.076 304.498 834.825 311.441 828.282 311.655C826.979 311.698 826.973 313.73 828.282 313.687C835.245 313.459 839.078 307.059 841.339 301.267C843.972 294.467 845.181 287.197 844.89 279.91C844.883 279.691 844.805 279.479 844.669 279.307C844.533 279.135 844.345 279.011 844.134 278.954C843.922 278.896 843.697 278.908 843.493 278.988C843.289 279.068 843.115 279.212 842.999 279.397L828.44 298.638C827.652 299.68 829.413 300.693 830.193 299.663Z" fill="#F2F2F2"/>
<path d="M829.44 291.39L820.815 278.754C820.71 278.587 820.56 278.454 820.382 278.37C820.203 278.287 820.005 278.256 819.81 278.281C819.615 278.307 819.431 278.388 819.281 278.515C819.13 278.641 819.019 278.808 818.96 278.996C817.149 283.748 817.082 288.989 818.773 293.785C820.464 298.58 823.802 302.619 828.192 305.18C828.424 305.305 828.695 305.335 828.949 305.264C829.202 305.193 829.418 305.026 829.551 304.798C829.684 304.57 829.724 304.3 829.661 304.044C829.599 303.788 829.439 303.566 829.217 303.425C825.213 301.09 822.176 297.398 820.654 293.017C819.132 288.636 819.226 283.855 820.917 279.537L819.062 279.779L827.687 292.416C828.42 293.489 830.179 292.474 829.44 291.39Z" fill="#F2F2F2"/>
<path d="M821.843 267.438C819.847 267.34 817.772 267.217 816.102 265.994C815.47 265.527 814.933 264.945 814.517 264.279C814.311 263.96 814.136 263.623 813.994 263.271C813.845 262.935 813.754 262.576 813.727 262.209C813.727 262.307 813.824 262.131 813.731 262.208L813.585 262.324C813.533 262.394 813.456 262.443 813.37 262.461C813.284 262.479 813.195 262.464 813.119 262.42C812.96 262.44 813.07 262.174 813.041 262.647C812.953 263.153 812.951 263.671 813.035 264.179C813.093 264.425 813.201 264.656 813.353 264.858C813.506 265.06 813.698 265.228 813.919 265.351C814.14 265.474 814.383 265.549 814.635 265.573C814.887 265.596 815.14 265.567 815.38 265.487C815.72 265.359 816.048 265.204 816.363 265.023L816.454 264.977C816.566 264.924 816.575 264.92 816.482 264.965C816.559 264.834 816.604 265.091 816.475 264.944L816.56 264.942L816.457 264.936C816.4 264.925 816.347 264.902 816.301 264.868C816.255 264.833 816.217 264.789 816.191 264.738C816.158 264.637 816.153 264.622 816.175 264.694C816.207 264.738 816.208 264.941 816.192 264.744C816.198 264.81 816.198 264.877 816.198 264.942C816.2 265.112 816.188 265.281 816.188 265.451C816.167 265.872 816.259 266.292 816.455 266.666C816.609 266.919 816.829 267.124 817.09 267.262C817.352 267.399 817.647 267.462 817.942 267.445C818.605 267.414 818.98 266.951 819.539 266.699C819.663 266.636 819.804 266.616 819.94 266.642C820.077 266.668 820.2 266.739 820.292 266.844C820.365 266.936 820.411 267.047 820.425 267.164C820.439 267.281 820.421 267.399 820.373 267.507C820.243 267.741 820.209 268.016 820.277 268.275C820.345 268.533 820.509 268.756 820.737 268.897C820.97 269.03 821.246 269.067 821.505 268.998C821.765 268.93 821.988 268.763 822.125 268.532C822.352 268.127 822.468 267.669 822.461 267.205C822.454 266.741 822.325 266.287 822.087 265.889C821.849 265.49 821.51 265.162 821.104 264.937C820.699 264.712 820.241 264.597 819.777 264.606C819.468 264.61 819.162 264.67 818.874 264.783C818.518 264.898 818.192 265.088 817.916 265.34C817.556 265.787 817.804 265.329 817.82 265.421C817.818 265.411 818.181 265.623 818.207 265.641L818.243 265.733C818.217 265.62 818.212 265.622 818.229 265.742C818.228 265.645 818.218 265.548 818.218 265.451C818.252 265.002 818.219 264.55 818.12 264.111C818.036 263.83 817.881 263.576 817.669 263.374C817.458 263.171 817.198 263.027 816.914 262.956C816.368 262.868 815.809 262.979 815.338 263.269C815.159 263.375 814.973 263.47 814.783 263.556C814.95 263.493 814.728 263.577 814.702 263.567C814.577 263.519 814.821 263.563 814.833 263.569C814.903 263.6 815.016 263.749 815.026 263.751C814.982 263.742 814.984 263.585 814.982 263.556C814.959 263.2 815.078 262.845 815.078 262.489C815.091 262.152 815.021 261.816 814.876 261.512C814.73 261.208 814.513 260.943 814.242 260.741C813.953 260.528 813.599 260.421 813.24 260.437C812.881 260.454 812.538 260.593 812.269 260.832C811.35 261.679 811.725 263.062 812.137 264.059C812.594 265.193 813.298 266.211 814.196 267.04C815.094 267.87 816.165 268.49 817.331 268.855C818.802 269.254 820.319 269.46 821.843 269.47C822.112 269.47 822.37 269.363 822.561 269.172C822.751 268.982 822.858 268.723 822.858 268.454C822.858 268.185 822.751 267.926 822.561 267.736C822.37 267.545 822.112 267.438 821.843 267.438Z" fill="#F2F2F2"/>
<path d="M822.706 268.435C822.893 266.535 823.111 264.513 824.317 262.953C824.843 262.281 825.497 261.72 826.241 261.302C826.581 261.108 826.94 260.948 827.312 260.826C827.52 260.758 827.731 260.711 827.941 260.654C828.315 260.551 827.871 260.643 828.062 260.628C828.116 260.623 828.17 260.621 828.224 260.622C828.353 260.63 828.369 260.629 828.273 260.62C828.421 260.535 828.374 260.712 828.308 260.622L828.248 260.578C828.174 260.507 828.123 260.415 828.104 260.314C828.084 260.213 828.097 260.109 828.14 260.015C828.128 259.886 828.354 259.987 828.025 259.935C827.493 259.808 826.943 259.776 826.4 259.842C826.149 259.887 825.909 259.984 825.698 260.127C825.486 260.27 825.307 260.457 825.173 260.674C825.038 260.891 824.951 261.135 824.917 261.388C824.883 261.642 824.902 261.899 824.975 262.145C825.102 262.509 825.252 262.864 825.426 263.209C825.36 263.048 825.43 263.236 825.442 263.278C825.479 263.402 825.415 263.451 825.457 263.306C825.466 263.238 825.485 263.172 825.515 263.111C825.547 263.06 825.59 263.018 825.64 262.987C825.758 262.944 825.761 262.939 825.648 262.972C825.664 262.947 825.887 262.976 825.651 262.966C825.555 262.962 825.459 262.965 825.363 262.96C825.216 262.952 825.07 262.936 824.923 262.929C824.496 262.888 824.067 262.97 823.686 263.166C823.398 263.337 823.17 263.594 823.034 263.9C822.897 264.206 822.858 264.547 822.922 264.876C823.096 265.358 823.316 265.822 823.58 266.262C823.619 266.383 823.62 266.512 823.583 266.634C823.547 266.755 823.474 266.863 823.374 266.942C823.275 267.02 823.153 267.067 823.027 267.075C822.9 267.082 822.774 267.051 822.666 266.985C821.525 266.346 820.5 268.101 821.641 268.74C822.051 268.986 822.521 269.117 822.999 269.117C823.477 269.117 823.946 268.986 824.356 268.74C824.766 268.493 825.101 268.139 825.326 267.717C825.55 267.294 825.655 266.818 825.63 266.34C825.541 265.72 825.312 265.128 824.962 264.608C824.962 264.608 824.854 264.436 824.897 264.45C825.16 264.534 824.764 264.864 824.711 264.92L824.615 264.962C824.727 264.937 824.721 264.936 824.596 264.958C824.689 264.953 824.781 264.954 824.875 264.958C825.339 265.021 825.811 265.004 826.27 264.91C826.547 264.829 826.799 264.68 827.003 264.475C827.206 264.27 827.354 264.016 827.432 263.738C827.533 263.172 827.428 262.589 827.137 262.093C827.105 262.024 826.943 261.65 826.992 261.786C826.986 261.77 826.907 261.514 826.911 261.514C827.012 261.513 826.804 261.863 826.926 261.616C827.068 261.328 826.787 261.917 826.767 261.839C826.759 261.807 826.956 261.818 826.966 261.818C827.321 261.827 827.668 261.953 828.026 261.966C828.372 261.991 828.718 261.928 829.033 261.782C829.348 261.635 829.621 261.412 829.826 261.131C830.036 260.834 830.137 260.474 830.111 260.111C830.085 259.748 829.934 259.405 829.683 259.141C828.855 258.295 827.506 258.593 826.525 258.952C825.416 259.355 824.401 259.982 823.544 260.795C822.604 261.704 821.889 262.822 821.459 264.058C821.02 265.48 820.757 266.95 820.676 268.435C820.678 268.704 820.785 268.961 820.975 269.151C821.165 269.341 821.422 269.449 821.691 269.451C821.958 269.445 822.213 269.336 822.402 269.147C822.591 268.958 822.7 268.703 822.706 268.435Z" fill="#F2F2F2"/>
<path d="M822.617 266.31C821.756 264.688 820.726 263.161 819.543 261.755C819.266 261.425 818.981 261.102 818.686 260.786C818.414 260.534 818.163 260.26 817.935 259.967C817.892 259.895 817.902 259.856 817.877 259.84C817.859 259.77 817.858 259.765 817.874 259.826C817.89 259.867 817.891 259.911 817.877 259.953C817.889 260.033 817.796 260.017 817.886 259.939C817.725 260.078 817.6 260.208 817.347 260.13C817.252 260.101 817.189 259.998 817.116 259.96C817.045 259.922 817.136 259.928 817.116 259.985C817.077 260.101 816.973 260.366 816.909 260.521L818.867 261.061C818.892 260.936 818.985 260.81 818.864 260.955C818.909 260.902 818.958 260.853 819.01 260.808C818.945 260.862 818.963 260.856 819.064 260.788C818.923 260.84 819.214 260.743 819.218 260.742C819.021 260.784 819.486 260.784 819.316 260.748C819.499 260.797 819.668 260.889 819.808 261.018C819.948 261.146 820.054 261.306 820.118 261.485C820.326 262.037 820.417 262.627 820.383 263.216C820.387 263.889 820.318 264.561 820.176 265.219C820.111 265.479 820.148 265.753 820.28 265.986C820.412 266.219 820.629 266.392 820.885 266.469C821.145 266.538 821.421 266.502 821.654 266.369C821.888 266.236 822.06 266.018 822.134 265.759C822.54 263.865 822.733 261.411 821.433 259.809C821.153 259.45 820.79 259.164 820.375 258.976C819.961 258.787 819.507 258.702 819.052 258.728C818.552 258.764 818.076 258.956 817.691 259.278C817.306 259.6 817.033 260.035 816.909 260.521C816.838 260.781 816.872 261.058 817.005 261.293C817.138 261.527 817.358 261.699 817.618 261.771C817.878 261.842 818.155 261.808 818.389 261.675C818.623 261.542 818.795 261.321 818.867 261.061C819.037 260.732 819.126 260.368 819.126 259.998C819.126 259.628 819.038 259.263 818.869 258.934C818.692 258.63 818.422 258.392 818.099 258.255C817.775 258.118 817.416 258.09 817.075 258.176C816.736 258.289 816.438 258.502 816.222 258.788C816.006 259.073 815.881 259.417 815.864 259.775C815.862 260.101 815.925 260.423 816.049 260.724C816.174 261.025 816.358 261.298 816.59 261.526C817.359 262.405 818.179 263.22 818.876 264.164C819.618 265.17 820.282 266.23 820.864 267.336C820.932 267.451 821.021 267.552 821.127 267.632C821.233 267.713 821.354 267.772 821.483 267.806C821.612 267.84 821.747 267.848 821.879 267.83C822.011 267.811 822.138 267.768 822.253 267.7C822.368 267.633 822.469 267.543 822.549 267.437C822.63 267.331 822.689 267.21 822.723 267.081C822.757 266.952 822.765 266.817 822.747 266.685C822.728 266.553 822.684 266.426 822.617 266.31Z" fill="#F2F2F2"/>
<path d="M1000 369.941H561.546V371.747H1000V369.941Z" fill="#F2F2F2"/>
<path d="M643.866 291.196C643.866 289.427 641.806 287.993 639.265 287.993C636.724 287.993 634.664 289.427 634.664 291.196C634.664 292.965 636.724 294.4 639.265 294.4C641.806 294.4 643.866 292.965 643.866 291.196Z" fill="#F2F2F2"/>
<path d="M610.06 301.607C612.601 301.607 614.661 300.173 614.661 298.404C614.661 296.635 612.601 295.2 610.06 295.2C607.52 295.2 605.46 296.635 605.46 298.404C605.46 300.173 607.52 301.607 610.06 301.607Z" fill="#F2F2F2"/>
<path d="M650.867 317.224C653.408 317.224 655.467 315.79 655.467 314.02C655.467 312.251 653.408 310.817 650.867 310.817C648.326 310.817 646.266 312.251 646.266 314.02C646.266 315.79 648.326 317.224 650.867 317.224Z" fill="#F2F2F2"/>
<path d="M662.973 324.59C662.748 324.613 662.521 324.593 662.304 324.531C661.813 324.301 661.393 323.943 661.088 323.494C660.783 323.046 660.604 322.523 660.57 321.982C660.437 321.416 660.479 320.824 660.69 320.283C660.902 319.742 661.273 319.279 661.754 318.954C661.885 318.887 662.026 318.842 662.172 318.822C663.284 318.667 664.36 319.839 664.576 321.431C664.791 323.023 664.073 324.435 662.973 324.59Z" fill="#F2F2F2"/>
<path d="M630.57 309.209C629.464 309.362 628.744 310.776 628.963 312.369C629.183 313.961 630.257 315.128 631.364 314.975C632.471 314.823 633.19 313.408 632.971 311.816C632.752 310.224 631.677 309.056 630.57 309.209Z" fill="#F2F2F2"/>
<path d="M646.247 302.577C646.028 300.984 644.953 299.817 643.846 299.97C642.74 300.123 642.02 301.537 642.24 303.129C642.459 304.722 643.533 305.889 644.64 305.736C645.747 305.583 646.466 304.169 646.247 302.577Z" fill="#F2F2F2"/>
<path d="M622.789 295.415C623.896 295.262 624.616 293.848 624.396 292.256C624.177 290.663 623.102 289.496 621.996 289.649C620.889 289.802 620.17 291.216 620.389 292.808C620.608 294.401 621.683 295.568 622.789 295.415Z" fill="#F2F2F2"/>
<path d="M626.712 319.458C626.703 318.245 625.282 317.272 623.539 317.285C621.796 317.299 620.391 318.293 620.4 319.507C620.409 320.721 621.83 321.694 623.573 321.68C625.316 321.667 626.721 320.672 626.712 319.458Z" fill="#F2F2F2"/>
<path d="M603.577 326.779C605.32 326.765 606.725 325.771 606.716 324.557C606.707 323.343 605.286 322.37 603.543 322.384C601.8 322.397 600.395 323.392 600.404 324.606C600.413 325.819 601.834 326.792 603.577 326.779Z" fill="#F2F2F2"/>
<path d="M631.652 337.276C633.395 337.263 634.8 336.268 634.791 335.054C634.782 333.841 633.361 332.868 631.618 332.881C629.875 332.895 628.469 333.889 628.479 335.103C628.488 336.317 629.909 337.29 631.652 337.276Z" fill="#F2F2F2"/>
<path d="M639.996 342.266C639.841 342.282 639.685 342.27 639.536 342.228C639.198 342.073 638.908 341.83 638.696 341.524C638.485 341.218 638.359 340.86 638.333 340.489C638.239 340.102 638.265 339.695 638.407 339.323C638.549 338.951 638.801 338.631 639.129 338.406C639.219 338.359 639.316 338.328 639.416 338.313C640.178 338.2 640.922 338.999 641.078 340.09C641.234 341.181 640.749 342.153 639.996 342.266Z" fill="#F2F2F2"/>
<path d="M617.686 331.885C616.928 331.996 616.442 332.97 616.601 334.061C616.759 335.152 617.503 335.947 618.261 335.837C619.02 335.726 619.506 334.752 619.347 333.661C619.188 332.57 618.445 331.775 617.686 331.885Z" fill="#F2F2F2"/>
<path d="M628.405 327.253C628.247 326.162 627.503 325.367 626.745 325.477C625.987 325.588 625.5 326.562 625.659 327.653C625.818 328.744 626.561 329.539 627.32 329.429C628.078 329.318 628.564 328.344 628.405 327.253Z" fill="#F2F2F2"/>
<path d="M612.276 322.464C613.034 322.353 613.521 321.379 613.362 320.288C613.203 319.197 612.46 318.402 611.701 318.513C610.943 318.623 610.457 319.597 610.616 320.688C610.774 321.779 611.518 322.574 612.276 322.464Z" fill="#F2F2F2"/>
<path d="M582.771 315.064C582.757 313.295 580.686 311.876 578.146 311.896C575.605 311.915 573.556 313.365 573.57 315.135C573.583 316.904 575.654 318.322 578.195 318.302C580.736 318.283 582.784 316.833 582.771 315.064Z" fill="#F2F2F2"/>
<path d="M549.047 325.735C551.587 325.715 553.636 324.265 553.623 322.496C553.609 320.727 551.538 319.308 548.997 319.328C546.456 319.347 544.408 320.797 544.421 322.567C544.435 324.336 546.506 325.754 549.047 325.735Z" fill="#F2F2F2"/>
<path d="M589.971 341.037C592.512 341.017 594.561 339.567 594.547 337.798C594.534 336.029 592.463 334.611 589.922 334.63C587.381 334.65 585.333 336.1 585.346 337.869C585.36 339.638 587.43 341.056 589.971 341.037Z" fill="#F2F2F2"/>
<path d="M602.134 348.31C601.909 348.334 601.682 348.316 601.464 348.255C600.972 348.029 600.549 347.674 600.24 347.228C599.932 346.782 599.749 346.261 599.711 345.72C599.574 345.155 599.611 344.563 599.818 344.02C600.026 343.478 600.393 343.011 600.871 342.683C601.002 342.615 601.143 342.569 601.289 342.548C602.4 342.384 603.485 343.548 603.712 345.138C603.94 346.728 603.233 348.146 602.134 348.31Z" fill="#F2F2F2"/>
<path d="M569.614 333.178C568.508 333.34 567.8 334.76 568.031 336.35C568.263 337.941 569.347 339.099 570.452 338.938C571.557 338.777 572.266 337.357 572.035 335.767C571.803 334.176 570.719 333.017 569.614 333.178Z" fill="#F2F2F2"/>
<path d="M585.239 326.426C585.008 324.835 583.924 323.676 582.819 323.837C581.713 323.999 581.005 325.419 581.236 327.009C581.468 328.6 582.551 329.758 583.657 329.597C584.762 329.436 585.471 328.016 585.239 326.426Z" fill="#F2F2F2"/>
<path d="M561.728 319.445C562.833 319.283 563.542 317.863 563.31 316.273C563.079 314.682 561.995 313.524 560.89 313.685C559.784 313.846 559.076 315.266 559.307 316.856C559.538 318.447 560.622 319.606 561.728 319.445Z" fill="#F2F2F2"/>
<path d="M611.214 307.722C611.214 320.611 580.744 297.591 554.724 315.708C522.973 337.816 496.427 322.041 496.43 307.722C496.434 294.834 523.028 269.035 554.724 269.035C586.421 269.035 611.214 294.834 611.214 307.722Z" fill="#F2F2F2"/>
<path d="M583.42 293.002C583.42 299.446 570.572 299.253 554.724 299.253C538.876 299.253 526.028 299.446 526.028 293.002C526.028 286.558 538.876 275.916 554.724 275.916C570.572 275.916 583.42 286.558 583.42 293.002Z" fill="#E6E6E6"/>
<path d="M357.225 336.125L357.185 345.169L392.797 349.633L392.857 336.285L357.225 336.125Z" fill="#FFB6B6"/>
<path d="M362.082 345.782L361.55 336.138L361.423 333.781L338.599 331.777L338.562 338.558L344.959 339.795L338.544 342.865L338.463 360.844C338.459 361.706 338.73 362.548 339.237 363.245C339.744 363.942 340.461 364.459 341.282 364.719C342.104 364.979 342.987 364.97 343.803 364.692C344.618 364.414 345.324 363.882 345.816 363.174L348.784 358.921L355.785 348.861L362.253 348.888L362.082 345.782Z" fill="#2F2E41"/>
<path d="M515.053 321.393C509.098 336.969 504.064 349.024 501.998 351.083C499.707 353.376 484.19 354.333 465.01 354.595C444.765 354.866 420.443 354.37 403.257 353.9H403.248C390.265 353.539 381.352 353.187 381.352 353.187L381.37 348.202L381.415 336.229L381.424 333.836C381.424 333.836 381.857 333.718 382.651 333.474C384.122 333.05 386.846 332.255 390.419 331.199C401.642 327.876 421.164 322.034 435.897 317.266C440.723 315.695 445.045 314.25 448.383 313.04C452.208 311.667 454.752 310.602 455.32 310.033C458.685 306.746 460.174 310.033 462.303 313.311C464.432 316.598 465.091 313.311 467.878 310.9C470.666 308.489 476.954 311.803 476.954 311.803C476.954 311.803 477.008 309.618 477.099 306.141C477.234 301.003 477.432 293.003 477.622 285.002C477.613 284.993 477.613 284.993 477.622 284.993C477.631 284.641 477.64 284.28 477.649 283.928C481.979 287.693 486.607 291.142 491.217 295.459C494.222 298.267 498.805 302.917 502.07 306.24C502.729 306.918 503.577 307.812 504.245 308.516C508.182 312.515 511.797 316.82 515.053 321.393Z" fill="#2F2E41"/>
<path d="M368.21 362.104L368.899 371.122L404.756 372.692L403.737 359.382L368.21 362.104Z" fill="#FFB6B6"/>
<path d="M373.828 371.337L372.529 361.774L372.204 359.426L349.289 359.273L349.804 366.036L356.272 366.749L350.137 370.334L351.509 388.268C351.575 389.127 351.913 389.943 352.475 390.596C353.037 391.248 353.793 391.705 354.632 391.897C355.471 392.09 356.35 392.009 357.14 391.666C357.93 391.323 358.59 390.737 359.024 389.992L367.811 374.912L374.252 374.425L373.828 371.337Z" fill="#2F2E41"/>
<path d="M522.685 358.803C515.45 370.127 426.325 381.197 392.864 374.912C392.927 374.009 393.026 373.097 393.143 372.185C393.64 368.176 394.569 364.086 395.345 360.022C395.67 358.316 395.976 356.609 396.211 354.911C397.339 354.731 396.103 354.848 397.582 354.613C399.457 354.28 401.348 354.042 403.248 353.9H403.257C403.834 353.855 404.484 353.81 405.25 353.755C422.292 352.591 443.989 357.503 459.218 349.15C463.521 346.784 463.792 346.116 464.423 345.367C468.086 340.978 468.438 344.608 471.596 346.179C474.753 347.751 474.176 344.997 475.06 342.595C475.944 340.193 479.85 340.509 482.115 340.157C480.013 338.206 481.393 337.863 477.92 336.192C472.795 333.718 464.306 330.07 458.298 327.641C458.278 327.628 458.257 327.619 458.234 327.614C455.699 326.639 452.127 325.095 449.844 324.129C448.076 323.379 444.991 321.97 444.016 321.6C441.869 320.778 438.161 328.544 435.897 327.199C435.094 326.711 434.481 326.332 434.174 326.151C430.358 323.867 433.353 325.059 432.956 322.286C432.902 321.943 433.055 321.058 433.01 320.76C432.911 320.056 433.145 318.882 432.803 318.458C432.451 318.042 431.287 320.137 430.556 320.444C430.231 320.589 428.95 321.591 427.904 321.483C423.393 320.986 420.326 316.58 418.765 312.164C405.629 306.466 396.951 293.156 394.885 280.731C393.134 270.238 396.247 261.859 398.998 254.951C401.47 248.756 402.237 249.614 404.98 245.189C404.899 244.395 404.899 244.603 404.899 244.657C404.899 244.575 404.881 244.25 404.826 243.185C404.682 240.331 404.339 231.907 404.177 227.979C405.309 226.721 406.584 225.6 407.975 224.638C412.242 221.459 418.63 219.635 423.294 218.741C428.607 217.721 435.491 218.452 439.334 219.012C445.325 219.879 447.309 221.044 452.307 222.218C452.316 231.744 454.301 229.089 453.327 241.442C452.343 253.795 486.608 291.142 491.218 295.459C494.222 298.267 498.805 302.917 502.071 306.24C502.729 306.918 503.577 307.812 504.245 308.516C508.07 312.552 515.838 322.557 516.207 323.153C516.677 323.903 516.875 324.49 517.254 325.212C517.263 325.23 529.911 347.48 522.685 358.803Z" fill="#2F2E41"/>
<path d="M640.245 257.311L638.399 289.726C638.398 290.548 638.56 291.363 638.874 292.123C639.188 292.884 639.649 293.574 640.23 294.156C640.811 294.738 641.501 295.199 642.261 295.514C643.021 295.828 643.835 295.99 644.657 295.989C662.395 305.035 667.932 305.288 683.826 295.989C684.648 295.99 685.462 295.828 686.221 295.514C686.981 295.199 687.671 294.738 688.252 294.156C688.834 293.574 689.294 292.884 689.609 292.123C689.923 291.363 690.084 290.548 690.083 289.726L688.237 256.525L690.083 247.749C690.084 246.927 689.923 246.112 689.609 245.352C689.294 244.591 688.833 243.901 688.252 243.319C687.671 242.737 686.981 242.276 686.221 241.961C685.462 241.647 684.648 241.486 683.826 241.486H644.657C643.835 241.486 643.021 241.647 642.261 241.961C641.501 242.276 640.811 242.737 640.23 243.319C639.649 243.901 639.188 244.591 638.874 245.352C638.56 246.112 638.398 246.927 638.399 247.749L640.245 257.311Z" fill="#E6E6E6"/>
<path d="M609.788 238.715L607.732 242.831L643.014 263.657L640.245 282.132L605.481 247.337L603.328 251.648L602.646 250.283C602.037 249.064 601.75 247.71 601.811 246.349C601.872 244.988 602.28 243.665 602.995 242.506C603.711 241.347 604.711 240.39 605.9 239.727C607.089 239.063 608.427 238.715 609.788 238.715Z" fill="#E6E6E6"/>
<path d="M650.397 241.948C650.397 247.306 657.005 251.648 665.164 251.648C673.323 251.648 679.931 247.306 679.931 241.948C679.931 241.791 679.922 241.643 679.912 241.486H650.416C650.406 241.643 650.397 241.791 650.397 241.948Z" fill="#F2F2F2"/>
<path d="M669.317 226.601C669.316 225.526 668.889 224.497 668.13 223.737C667.371 222.978 666.343 222.55 665.269 222.549H665.058C663.985 222.55 662.956 222.978 662.198 223.737C661.439 224.497 661.012 225.526 661.011 226.601V254.881H669.317V226.601Z" fill="#E6E6E6"/>
<path d="M505.359 276.175C504.84 275.575 504.202 275.089 503.486 274.748C502.77 274.407 501.991 274.217 501.198 274.191C501.198 274.191 472.546 270.744 468.313 267.833C466.88 267.787 465.482 268.279 464.392 269.211C463.303 270.143 462.6 271.449 462.422 272.872L435.106 278.025C433.815 278.272 432.675 279.021 431.935 280.107C431.196 281.194 430.917 282.531 431.16 283.823C431.404 285.115 432.149 286.258 433.233 287.001C434.317 287.744 435.652 288.026 436.944 287.786L464.12 282.66C464.634 283.865 465.545 284.859 466.7 285.476C467.855 286.094 469.187 286.298 470.474 286.056L501.075 280.284C505.439 279.46 508.269 279.533 505.359 276.175Z" fill="#E6E6E6"/>
<path d="M425.146 230.899L418.543 166.89C418.271 164.178 419.076 161.467 420.784 159.343C422.491 157.219 424.964 155.852 427.67 155.537C429.07 155.374 430.488 155.498 431.838 155.902C433.188 156.306 434.442 156.98 435.523 157.885C436.604 158.789 437.49 159.905 438.126 161.163C438.763 162.421 439.137 163.796 439.225 165.204L444.048 231.903L448.685 272.308C450.469 272.832 452.049 273.893 453.21 275.347C454.371 276.801 455.056 278.578 455.173 280.435C455.29 282.292 454.833 284.141 453.864 285.729C452.895 287.318 451.461 288.569 449.757 289.313C448.052 290.057 446.16 290.258 444.338 289.889C442.516 289.519 440.851 288.597 439.57 287.248C438.29 285.899 437.455 284.187 437.18 282.347C436.905 280.506 437.203 278.625 438.033 276.96L425.146 230.899Z" fill="#FFB6B6"/>
<path d="M414.012 180.541C413.484 180.129 413.105 179.554 412.934 178.906C412.763 178.257 412.81 177.57 413.067 176.951C413.369 176.18 413.423 175.335 413.222 174.532C413.182 174.377 413.131 174.225 413.07 174.077C412.684 173.194 412.516 172.23 412.582 171.267C412.647 170.305 412.944 169.372 413.447 168.549C415.139 165.864 415.627 162.074 415.617 158.754C415.605 155.121 415.397 151.434 416.255 147.904C417.492 142.812 421.407 137.902 427.801 139.158C430.512 139.735 432.942 141.229 434.681 143.39C438.377 147.858 439.187 153.745 439.909 159.384L440.713 157.012C441.394 163.185 443.313 169.156 446.356 174.568C444.957 174.484 444.234 176.446 444.849 177.707C445.465 178.968 446.798 179.674 447.964 180.453C449.433 181.436 450.903 182.99 449.901 184.921C449.648 185.376 449.304 185.774 448.89 186.089C448.477 186.405 448.002 186.632 447.497 186.755C437.998 189.291 428.077 189.833 418.358 188.348C416.199 188.017 413.86 187.47 412.531 185.736C411.201 184.002 411.844 180.797 414.012 180.541Z" fill="#25929B"/>
</g>
<defs>
<clipPath id="clip0_32_156">
<rect width="760" height="355" fill="white" transform="translate(240 37)"/>
</clipPath>
</defs>
</svg>
