<svg width="1239" height="430" viewBox="0 0 1239 430" fill="none" xmlns="http://www.w3.org/2000/svg">
<rect width="1239" height="430" fill="white"/>
<g clip-path="url(#clip0_8_868)">
<path d="M373.278 373.586C375.839 374.487 378.589 374.712 381.263 374.241C383.937 373.77 386.445 372.618 388.545 370.895C393.892 366.404 395.569 359.008 396.932 352.158L400.967 331.896L392.52 337.716C386.445 341.901 380.233 346.22 376.027 352.282C371.821 358.344 369.986 366.619 373.365 373.179" fill="#E6E6E6"/>
<path d="M374.582 399.527C373.519 391.777 372.425 383.927 373.173 376.094C373.835 369.137 375.956 362.343 380.275 356.771C382.567 353.819 385.357 351.29 388.518 349.297C389.342 348.777 390.101 350.083 389.28 350.601C383.81 354.06 379.58 359.167 377.198 365.186C374.568 371.879 374.146 379.176 374.599 386.287C374.873 390.587 375.454 394.858 376.039 399.125C376.085 399.318 376.056 399.521 375.958 399.694C375.86 399.866 375.701 399.995 375.511 400.054C375.318 400.106 375.112 400.08 374.939 399.981C374.765 399.882 374.637 399.719 374.583 399.526L374.582 399.527Z" fill="#F2F2F2"/>
<path d="M382.235 387.092C383.333 388.763 384.843 390.122 386.619 391.04C388.396 391.957 390.378 392.402 392.375 392.33C397.51 392.086 401.789 388.502 405.641 385.098L417.035 375.032L409.494 374.671C404.071 374.411 398.508 374.167 393.343 375.842C388.177 377.518 383.413 381.543 382.469 386.893" fill="#E6E6E6"/>
<path d="M371.577 403.982C376.695 394.921 382.632 384.85 393.241 381.631C396.19 380.739 399.283 380.419 402.352 380.689C403.32 380.773 403.078 382.265 402.113 382.182C396.968 381.754 391.832 383.114 387.571 386.031C383.471 388.823 380.279 392.706 377.577 396.822C375.922 399.344 374.439 401.973 372.957 404.598C372.483 405.437 371.098 404.831 371.577 403.982Z" fill="#F2F2F2"/>
<path d="M886.12 384.374C884.632 385.709 882.825 386.637 880.873 387.07C878.922 387.503 876.891 387.426 874.979 386.845C870.077 385.297 866.855 380.737 864.001 376.462L855.556 363.816L862.939 365.395C868.249 366.531 873.689 367.718 878.255 370.658C882.821 373.599 886.398 378.709 885.945 384.122" fill="#E6E6E6"/>
<path d="M892.11 403.43C889.476 393.36 886.309 382.105 876.875 376.28C874.251 374.664 871.343 373.564 868.306 373.04C867.35 372.874 867.202 374.378 868.157 374.544C873.24 375.447 877.858 378.074 881.232 381.984C884.483 385.732 886.578 390.302 888.138 394.973C889.094 397.834 889.856 400.755 890.619 403.672C890.862 404.604 892.357 404.373 892.11 403.43Z" fill="#F2F2F2"/>
<path d="M788.381 255.97H615.801C614.423 255.968 613.102 255.42 612.127 254.445C611.153 253.47 610.605 252.148 610.603 250.769V192.517C610.605 191.138 611.153 189.816 612.127 188.841C613.102 187.866 614.423 187.318 615.801 187.316H788.381C789.759 187.318 791.081 187.866 792.055 188.841C793.03 189.816 793.578 191.138 793.579 192.517V250.769C793.578 252.148 793.03 253.47 792.055 254.445C791.081 255.42 789.759 255.968 788.381 255.97Z" fill="#F1F1F1"/>
<path d="M683.378 202.919H637.634V208.12H683.378V202.919Z" fill="#25929B"/>
<path d="M743.677 209.161C745.399 209.161 746.796 207.763 746.796 206.04C746.796 204.316 745.399 202.919 743.677 202.919C741.954 202.919 740.558 204.316 740.558 206.04C740.558 207.763 741.954 209.161 743.677 209.161Z" fill="#25929B"/>
<path d="M754.073 209.161C755.796 209.161 757.192 207.763 757.192 206.04C757.192 204.316 755.796 202.919 754.073 202.919C752.35 202.919 750.954 204.316 750.954 206.04C750.954 207.763 752.35 209.161 754.073 209.161Z" fill="#25929B"/>
<path d="M764.469 209.161C766.192 209.161 767.588 207.763 767.588 206.04C767.588 204.316 766.192 202.919 764.469 202.919C762.747 202.919 761.351 204.316 761.351 206.04C761.351 207.763 762.747 209.161 764.469 209.161Z" fill="#25929B"/>
<path d="M788.381 329.824H615.801C614.423 329.822 613.102 329.274 612.127 328.299C611.153 327.324 610.605 326.002 610.603 324.623V266.372C610.605 264.993 611.153 263.671 612.127 262.696C613.102 261.721 614.423 261.172 615.801 261.171H788.381C789.759 261.172 791.081 261.721 792.055 262.696C793.03 263.671 793.578 264.993 793.579 266.372V324.623C793.578 326.002 793.03 327.324 792.055 328.299C791.081 329.274 789.759 329.822 788.381 329.824Z" fill="#F1F1F1"/>
<path d="M683.378 276.774H637.634V281.975H683.378V276.774Z" fill="#25929B"/>
<path d="M743.677 283.015C745.399 283.015 746.796 281.618 746.796 279.894C746.796 278.171 745.399 276.774 743.677 276.774C741.954 276.774 740.558 278.171 740.558 279.894C740.558 281.618 741.954 283.015 743.677 283.015Z" fill="#25929B"/>
<path d="M754.073 283.015C755.796 283.015 757.192 281.618 757.192 279.894C757.192 278.171 755.796 276.774 754.073 276.774C752.35 276.774 750.954 278.171 750.954 279.894C750.954 281.618 752.35 283.015 754.073 283.015Z" fill="#25929B"/>
<path d="M764.469 283.015C766.192 283.015 767.588 281.618 767.588 279.894C767.588 278.171 766.192 276.774 764.469 276.774C762.747 276.774 761.351 278.171 761.351 279.894C761.351 281.618 762.747 283.015 764.469 283.015Z" fill="#25929B"/>
<path d="M788.381 403.678H615.801C614.423 403.677 613.102 403.128 612.127 402.153C611.153 401.178 610.605 399.856 610.603 398.477V340.226C610.605 338.847 611.153 337.525 612.127 336.55C613.102 335.575 614.423 335.027 615.801 335.025H788.381C789.759 335.027 791.081 335.575 792.055 336.55C793.03 337.525 793.578 338.847 793.579 340.226V398.477C793.578 399.856 793.03 401.178 792.055 402.153C791.081 403.128 789.759 403.677 788.381 403.678Z" fill="#F1F1F1"/>
<path d="M683.378 350.628H637.634V355.829H683.378V350.628Z" fill="#25929B"/>
<path d="M743.677 356.869C745.399 356.869 746.796 355.472 746.796 353.749C746.796 352.025 745.399 350.628 743.677 350.628C741.954 350.628 740.558 352.025 740.558 353.749C740.558 355.472 741.954 356.869 743.677 356.869Z" fill="#25929B"/>
<path d="M754.073 356.869C755.796 356.869 757.192 355.472 757.192 353.749C757.192 352.025 755.796 350.628 754.073 350.628C752.35 350.628 750.954 352.025 750.954 353.749C750.954 355.472 752.35 356.869 754.073 356.869Z" fill="#25929B"/>
<path d="M764.469 356.869C766.192 356.869 767.588 355.472 767.588 353.749C767.588 352.025 766.192 350.628 764.469 350.628C762.747 350.628 761.351 352.025 761.351 353.749C761.351 355.472 762.747 356.869 764.469 356.869Z" fill="#25929B"/>
<path d="M723.32 130.434L723.13 130.293L723.125 130.29C722.879 130.107 722.599 129.974 722.302 129.899C722.004 129.825 721.695 129.809 721.392 129.854C721.088 129.899 720.797 130.003 720.534 130.161C720.271 130.318 720.041 130.526 719.858 130.772L681.013 183.103H676.739V182.098C676.739 181.85 676.641 181.613 676.465 181.437C676.29 181.262 676.053 181.164 675.805 181.164H673.255C673.007 181.164 672.77 181.262 672.595 181.437C672.42 181.613 672.321 181.85 672.321 182.098V183.103H670.845V182.098C670.845 181.85 670.747 181.613 670.572 181.437C670.397 181.262 670.159 181.164 669.911 181.164H667.362C667.114 181.164 666.876 181.262 666.701 181.437C666.526 181.613 666.428 181.85 666.428 182.098V183.103H664.957V182.098C664.957 181.85 664.858 181.613 664.683 181.437C664.508 181.262 664.27 181.164 664.023 181.164H661.473C661.225 181.164 660.987 181.262 660.812 181.437C660.637 181.613 660.539 181.85 660.539 182.098V183.103H659.063V182.098C659.063 181.85 658.965 181.613 658.789 181.437C658.614 181.262 658.377 181.164 658.129 181.164H655.579C655.331 181.164 655.094 181.262 654.919 181.437C654.744 181.613 654.645 181.85 654.645 182.098V183.103H653.174V182.098C653.174 181.85 653.076 181.613 652.901 181.437C652.725 181.262 652.488 181.164 652.24 181.164H649.69C649.568 181.164 649.446 181.188 649.333 181.235C649.22 181.282 649.117 181.351 649.03 181.437C648.943 181.524 648.874 181.627 648.827 181.74C648.78 181.854 648.756 181.975 648.756 182.098V183.103H647.281V182.098C647.281 181.85 647.182 181.613 647.007 181.437C646.832 181.262 646.594 181.164 646.347 181.164H643.797C643.549 181.164 643.311 181.262 643.136 181.437C642.961 181.613 642.863 181.85 642.863 182.098V183.103H641.387V182.098C641.387 181.85 641.289 181.613 641.113 181.437C640.938 181.262 640.701 181.164 640.453 181.164H637.903C637.655 181.164 637.418 181.262 637.243 181.437C637.068 181.613 636.969 181.85 636.969 182.098V183.103H635.498V182.098C635.498 181.85 635.4 181.613 635.225 181.437C635.049 181.262 634.812 181.164 634.564 181.164H632.014C631.767 181.164 631.529 181.262 631.354 181.437C631.179 181.613 631.08 181.85 631.08 182.098V183.103H629.604V182.098C629.604 181.85 629.506 181.613 629.331 181.437C629.156 181.262 628.918 181.164 628.67 181.164H626.121C625.873 181.164 625.635 181.262 625.46 181.437C625.285 181.613 625.187 181.85 625.187 182.098V183.103H623.716V182.098C623.716 181.85 623.617 181.613 623.442 181.437C623.267 181.262 623.029 181.164 622.782 181.164H620.232C619.984 181.164 619.747 181.262 619.571 181.437C619.396 181.613 619.298 181.85 619.298 182.098V183.103H617.449C617.142 183.103 616.838 183.163 616.555 183.281C616.272 183.398 616.014 183.57 615.797 183.787C615.581 184.004 615.409 184.261 615.291 184.545C615.174 184.828 615.114 185.132 615.114 185.439V187.668C615.114 187.975 615.174 188.278 615.291 188.562C615.409 188.845 615.581 189.103 615.797 189.32C616.014 189.537 616.272 189.709 616.555 189.826C616.838 189.944 617.142 190.004 617.449 190.004H680.625C681.425 190.004 682.201 189.728 682.821 189.223C683.442 188.717 683.869 188.013 684.032 187.229L684.056 187.247L723.799 133.707L723.803 133.703C724.172 133.205 724.329 132.582 724.238 131.969C724.148 131.356 723.818 130.804 723.32 130.434Z" fill="#3F3D56"/>
<path d="M477.821 383.835L485.669 387.853L504.892 359.48L493.311 353.55L477.821 383.835Z" fill="#FFB7B7"/>
<path d="M477.13 380.247L492.585 388.16L492.585 388.16C495.197 389.498 497.171 391.818 498.073 394.612C498.974 397.406 498.73 400.443 497.393 403.057L497.23 403.377L471.927 390.421L477.13 380.247Z" fill="#2F2E41"/>
<path d="M568.453 394.827H577.269L581.463 360.807H568.452L568.453 394.827Z" fill="#FFB7B7"/>
<path d="M566.205 391.948L583.565 391.947H583.566C586.5 391.947 589.314 393.113 591.389 395.189C593.464 397.265 594.629 400.08 594.63 403.016V403.376L566.206 403.377L566.205 391.948Z" fill="#2F2E41"/>
<path d="M527.22 117.334C527.22 117.334 521.316 112.809 521.316 123.862L520.384 160.388L530.792 194.893L536.851 183.702L534.365 159.455L527.22 117.334Z" fill="#2F2E41"/>
<path d="M590.365 217.238C590.365 217.238 597.211 250.593 588.54 277.966L583.748 383.211L566.179 381.841L560.018 303.763L554.086 264.953L541.764 300.339L501.149 375.221L482.439 360.61C482.439 360.61 503.173 304.005 518.49 292.12L526.173 204.575L590.365 217.238Z" fill="#2F2E41"/>
<path d="M587.117 62.3094C592.424 52.5961 588.856 40.4175 579.148 35.1077C569.44 29.7979 557.268 33.3677 551.961 43.0811C546.654 52.7944 550.222 64.973 559.93 70.2828C569.638 75.5926 581.81 72.0228 587.117 62.3094Z" fill="#FFB7B7"/>
<path d="M568.122 56.9466C570.523 57.2592 572.335 54.8008 573.175 52.5283C574.015 50.2558 574.655 47.6102 576.743 46.3826C579.596 44.7055 583.245 46.7226 586.507 46.1693C590.191 45.5444 592.586 41.6382 592.774 37.9045C592.962 34.1708 591.477 30.5798 590.02 27.1374L589.511 31.4156C589.579 29.9656 589.274 28.5224 588.625 27.2241C587.976 25.9257 587.006 24.8156 585.805 24L586.461 30.2775C586.322 29.4114 586.012 28.5814 585.552 27.8352C585.091 27.0889 584.487 26.4411 583.775 25.9289C583.063 25.4166 582.258 25.0501 581.404 24.8503C580.55 24.6504 579.665 24.6213 578.8 24.7644L578.904 28.5048C574.649 27.9986 570.357 27.4917 566.089 27.8773C561.822 28.263 557.525 29.6139 554.291 32.4258C549.453 36.632 547.686 43.558 548.279 49.9433C548.872 56.3286 551.506 62.3271 554.252 68.1217C554.943 69.5796 555.898 71.2248 557.5 71.4105C558.94 71.5774 560.256 70.3736 560.704 68.9947C561.049 67.58 561.035 66.1015 560.665 64.6932C560.26 62.5409 559.75 60.341 560.131 58.1844C560.511 56.0277 562.062 53.8965 564.235 53.6322C566.408 53.3679 568.631 55.8529 567.586 57.7774L568.122 56.9466Z" fill="#2F2E41"/>
<path d="M591.605 226.158L524.735 221.841L529.768 200.978L590.886 214.648L591.605 226.158Z" fill="#CBCBCB"/>
<path d="M550.366 80.0308L554.56 74.2045C554.56 74.2045 559.248 75.7985 571.803 82.0514L572.69 87.5102L594.484 221.627L554.871 219.917L544.084 219.687L540.553 211.77L536.2 219.519L525.666 219.295L514.947 213.078L525.511 180.749L528.928 151.217L523.647 123.396C523.647 123.396 517 97.8473 542.599 84.072L550.366 80.0308Z" fill="#2F2E41"/>
<path d="M639.651 181.558C638.68 181.804 637.668 181.835 636.685 181.648C635.702 181.461 634.771 181.06 633.959 180.474C633.148 179.889 632.474 179.132 631.986 178.257C631.498 177.383 631.208 176.412 631.136 175.413L607.634 169.115L617.088 160.716L637.956 167.985C639.642 167.974 641.272 168.583 642.539 169.695C643.805 170.807 644.62 172.345 644.829 174.018C645.038 175.691 644.626 177.383 643.672 178.773C642.717 180.162 641.286 181.153 639.651 181.558Z" fill="#FFB7B7"/>
<path d="M629.125 178.002C628.63 178.271 628.085 178.434 627.524 178.478C626.963 178.523 626.399 178.449 625.869 178.261L587.208 163.579C577.776 160.234 569.88 153.575 564.988 144.841L548.866 116.065C547.733 114.801 546.862 113.325 546.3 111.723C545.739 110.121 545.498 108.425 545.593 106.73C545.687 105.035 546.115 103.375 546.852 101.846C547.588 100.316 548.619 98.9473 549.884 97.8169C551.15 96.6865 552.626 95.8169 554.228 95.2579C555.83 94.6989 557.527 94.4615 559.221 94.5593C560.914 94.657 562.572 95.088 564.1 95.8275C565.627 96.5671 566.993 97.6007 568.121 98.8692L596.026 143.122L631.144 163.723C631.832 164.175 632.365 164.827 632.671 165.592C632.976 166.357 633.04 167.197 632.853 167.999L631.106 175.403C630.919 176.197 630.494 176.915 629.888 177.461C629.656 177.671 629.4 177.853 629.125 178.002Z" fill="#2F2E41"/>
<path d="M927.347 404.853H311.653C311.48 404.853 311.314 404.785 311.191 404.662C311.069 404.54 311 404.373 311 404.2C311 404.027 311.069 403.861 311.191 403.738C311.314 403.616 311.48 403.547 311.653 403.547H927.347C927.52 403.547 927.686 403.616 927.809 403.738C927.931 403.861 928 404.027 928 404.2C928 404.373 927.931 404.54 927.809 404.662C927.686 404.785 927.52 404.853 927.347 404.853Z" fill="#CBCBCB"/>
</g>
<defs>
<clipPath id="clip0_8_868">
<rect width="617" height="381" fill="white" transform="translate(311 24)"/>
</clipPath>
</defs>
</svg>
