<svg width="1239" height="430" viewBox="0 0 1239 430" fill="none" xmlns="http://www.w3.org/2000/svg">
<rect width="1239" height="430" fill="white"/>
<g clip-path="url(#clip0_7_580)">
<path d="M330.931 334.155L328.867 344.506C328.711 345.297 328.548 346.103 328.372 346.901C326.646 346.543 324.856 346.643 323.181 347.191C324.51 349.088 325.701 351.079 326.745 353.147C325.444 357.152 323.535 360.855 320.338 363.532C318.203 365.281 315.654 366.45 312.935 366.928C310.216 367.406 307.42 367.175 304.816 366.259L304.908 365.85C301.471 359.187 303.338 350.787 307.609 344.633C309.788 341.597 312.369 338.871 315.282 336.529C318.167 334.127 321.286 331.972 324.376 329.846C325.07 329.369 325.891 329.109 326.733 329.101C327.575 329.092 328.401 329.335 329.105 329.797C329.808 330.26 330.358 330.922 330.683 331.698C331.009 332.474 331.095 333.33 330.931 334.155Z" fill="#E4E4E4"/>
<path d="M305.551 391.164C304.682 384.839 303.788 378.433 304.398 372.039C304.939 366.362 306.673 360.816 310.203 356.269C312.077 353.86 314.356 351.796 316.94 350.17C317.614 349.746 318.233 350.812 317.563 351.235C313.093 354.057 309.635 358.225 307.689 363.137C305.539 368.6 305.194 374.555 305.567 380.358C305.792 383.867 306.266 387.352 306.745 390.835C306.783 390.993 306.76 391.159 306.68 391.301C306.6 391.442 306.469 391.547 306.313 391.594C306.156 391.637 305.987 391.615 305.845 391.535C305.703 391.454 305.598 391.321 305.554 391.163L305.551 391.164Z" fill="#F2F2F2"/>
<path d="M313.01 73.8933C343.303 73.367 373.599 73.2914 403.899 73.6665C434.194 74.0438 464.479 74.8737 494.754 76.1564C511.742 76.8762 528.724 77.7384 545.699 78.7433C547.063 78.8239 547.058 76.7041 545.699 76.6237C515.454 74.8357 485.187 73.4977 454.898 72.6099C424.614 71.7245 394.32 71.2918 364.018 71.3119C347.015 71.3232 330.012 71.4771 313.01 71.7737C311.646 71.7974 311.642 73.917 313.01 73.8933Z" fill="#E6E6E6"/>
<path d="M524.124 60.6031L537.37 59.6182C538.723 59.5175 538.734 57.3972 537.37 57.4986L524.124 58.4836C522.771 58.5842 522.76 60.7046 524.124 60.6031Z" fill="#E6E6E6"/>
<path d="M524.124 73.3204L537.37 72.3355C538.723 72.2348 538.734 70.1145 537.37 70.2159L524.124 71.2009C522.771 71.3015 522.76 73.4219 524.124 73.3204Z" fill="#E6E6E6"/>
<path d="M523.128 67.5127L541.961 69.2221C543.32 69.3455 543.312 67.2252 541.961 67.1026L523.128 65.3932C521.768 65.2698 521.777 67.3901 523.128 67.5127Z" fill="#E6E6E6"/>
<path d="M320.849 57.7527C319.928 57.747 319.026 58.0123 318.254 58.5155C317.483 59.0188 316.877 59.7377 316.512 60.5826C316.104 61.4096 315.978 62.3475 316.153 63.2528C316.329 64.1582 316.796 64.9812 317.484 65.596C318.131 66.1457 318.907 66.5226 319.739 66.6915C320.571 66.8604 321.432 66.8158 322.243 66.5618C323.071 66.2726 323.79 65.734 324.299 65.0201C324.809 64.3062 325.084 63.452 325.088 62.5751C325.125 61.6023 324.861 60.6417 324.332 59.824C323.804 59.0062 323.036 58.371 322.133 58.0047C321.862 57.9311 321.572 57.9675 321.328 58.1062C321.083 58.2449 320.904 58.4744 320.828 58.7449C320.761 59.0156 320.801 59.3017 320.938 59.5442C321.076 59.7867 321.302 59.9672 321.569 60.0485C321.754 60.1199 321.4 59.9577 321.573 60.0517C321.644 60.0903 321.716 60.1252 321.786 60.1664C321.845 60.2015 321.902 60.2399 321.959 60.2775C322.157 60.4066 321.862 60.1827 321.989 60.2987C322.099 60.3994 322.208 60.4976 322.307 60.6087C322.345 60.6507 322.493 60.7675 322.378 60.6858C322.29 60.6234 322.344 60.6381 322.378 60.6882C322.404 60.7263 322.431 60.7633 322.456 60.8016C322.539 60.9266 322.614 61.0565 322.681 61.1904C322.697 61.2214 322.711 61.2531 322.727 61.284C322.757 61.3418 322.8 61.3569 322.73 61.2845C322.663 61.2154 322.706 61.2201 322.73 61.2866C322.745 61.3304 322.762 61.3736 322.778 61.4175C322.827 61.5605 322.869 61.7061 322.903 61.8537C322.918 61.9219 322.931 61.9905 322.944 62.0591C322.992 62.3025 322.937 61.9078 322.949 62.0886C322.958 62.2395 322.969 62.3889 322.967 62.5404C322.966 62.6098 322.963 62.679 322.958 62.7482C322.955 62.7827 322.951 62.8171 322.949 62.8516C322.938 63.0179 322.938 62.7909 322.961 62.7753C322.913 62.9165 322.88 63.0627 322.865 63.2112C322.846 63.2771 322.824 63.3416 322.803 63.4067C322.729 63.6341 322.872 63.2828 322.793 63.4382C322.728 63.5717 322.656 63.7014 322.576 63.8266C322.542 63.879 322.412 63.9975 322.518 63.915C322.634 63.8256 322.458 63.9796 322.42 64.0193C322.372 64.0702 322.321 64.1193 322.269 64.1667C322.236 64.1991 322.201 64.2296 322.164 64.258C322.158 64.2547 322.341 64.1353 322.242 64.1985C322.116 64.2788 321.997 64.3647 321.864 64.4346C321.849 64.4428 321.679 64.5214 321.68 64.5241C321.672 64.4955 321.898 64.4448 321.743 64.4948C321.71 64.5053 321.679 64.518 321.646 64.5289C321.505 64.5763 321.361 64.6146 321.215 64.6435C321.182 64.6502 321.146 64.6536 321.114 64.6621C321.004 64.6904 321.218 64.6455 321.225 64.6492C321.144 64.6457 321.063 64.6529 320.983 64.6705C320.833 64.6791 320.682 64.6791 320.532 64.6705C320.497 64.6685 320.462 64.665 320.427 64.663C320.346 64.6583 320.287 64.6001 320.395 64.6633C320.478 64.712 320.471 64.6765 320.397 64.6629C320.363 64.6565 320.328 64.6512 320.294 64.6447C320.145 64.6169 319.998 64.5808 319.853 64.5367C319.775 64.513 319.698 64.4854 319.621 64.4585C319.588 64.4488 319.555 64.4362 319.524 64.421C319.523 64.4122 319.722 64.5159 319.617 64.4594C319.484 64.388 319.347 64.3282 319.218 64.2502C319.149 64.2086 319.083 64.1634 319.016 64.1188C318.986 64.1011 318.958 64.081 318.932 64.0588C318.934 64.0498 319.096 64.2 319.011 64.1189C318.903 64.0164 318.788 63.9246 318.686 63.8154C318.663 63.7904 318.641 63.7643 318.617 63.7392L318.595 63.7135C318.537 63.6433 318.536 63.6437 318.592 63.7145C318.648 63.7311 318.645 63.7927 318.592 63.7127C318.573 63.6841 318.553 63.6564 318.534 63.6279C318.448 63.5052 318.374 63.3742 318.314 63.2367C318.32 63.2327 318.406 63.4917 318.34 63.2962C318.328 63.2593 318.313 63.223 318.301 63.186C318.277 63.1125 318.255 63.0383 318.237 62.9632C318.218 62.8889 318.209 62.8122 318.191 62.7381C318.159 62.6133 318.209 62.8366 318.203 62.8311C318.185 62.8136 318.193 62.7054 318.192 62.6795C318.183 62.5132 318.202 62.3518 318.205 62.1865C318.207 62.0584 318.194 62.2863 318.192 62.2796C318.192 62.2412 318.199 62.2032 318.212 62.167C318.231 62.0798 318.249 61.9928 318.273 61.9066C318.299 61.8078 318.33 61.7103 318.365 61.6141C318.379 61.578 318.395 61.5425 318.407 61.5062C318.451 61.3731 318.318 61.6669 318.392 61.5469C318.493 61.3818 318.568 61.2031 318.675 61.0401C318.7 61.0014 318.855 60.7861 318.773 60.8948C318.691 61.0031 318.857 60.7979 318.888 60.763C319.018 60.6183 319.171 60.4994 319.306 60.3608C319.386 60.2788 319.25 60.4012 319.242 60.407C319.284 60.3772 319.325 60.3463 319.367 60.3172C319.441 60.2665 319.516 60.2185 319.593 60.1733C319.68 60.1224 319.779 60.0844 319.863 60.0305C319.963 59.9668 319.787 60.0585 319.784 60.0604C319.829 60.0378 319.877 60.0197 319.926 60.0063C320.008 59.9772 320.365 59.8232 320.44 59.8713C320.437 59.8691 320.169 59.8929 320.385 59.879C320.437 59.8757 320.488 59.8707 320.539 59.8686C320.642 59.8643 320.746 59.8669 320.849 59.8722C321.13 59.8704 321.399 59.7582 321.597 59.5598C321.796 59.3615 321.908 59.093 321.91 58.8125C321.904 58.5333 321.79 58.2672 321.593 58.0697C321.395 57.8723 321.129 57.7587 320.849 57.7527Z" fill="#E6E6E6"/>
<path d="M335.7 57.7527C334.779 57.747 333.876 58.0123 333.105 58.5155C332.334 59.0188 331.728 59.7377 331.363 60.5826C330.954 61.4096 330.828 62.3475 331.004 63.2528C331.179 64.1582 331.647 64.9812 332.335 65.596C332.981 66.1457 333.757 66.5226 334.589 66.6915C335.421 66.8604 336.283 66.8158 337.093 66.5618C337.922 66.2726 338.64 65.734 339.15 65.0201C339.659 64.3062 339.935 63.452 339.938 62.5751C339.975 61.6023 339.711 60.6417 339.183 59.824C338.654 59.0062 337.886 58.371 336.983 58.0047C336.712 57.9311 336.423 57.9675 336.178 58.1062C335.934 58.2449 335.754 58.4744 335.678 58.7449C335.612 59.0156 335.651 59.3017 335.789 59.5442C335.927 59.7867 336.152 59.9672 336.419 60.0485C336.604 60.1199 336.25 59.9577 336.423 60.0517C336.494 60.0903 336.566 60.1252 336.636 60.1664C336.695 60.2015 336.752 60.2399 336.81 60.2775C337.008 60.4066 336.713 60.1827 336.84 60.2987C336.949 60.3994 337.058 60.4976 337.158 60.6087C337.196 60.6507 337.343 60.7675 337.228 60.6858C337.141 60.6234 337.195 60.6381 337.228 60.6882C337.254 60.7263 337.281 60.7633 337.307 60.8016C337.389 60.9266 337.465 61.0565 337.532 61.1904C337.547 61.2214 337.562 61.2531 337.578 61.284C337.607 61.3418 337.65 61.3569 337.58 61.2845C337.514 61.2154 337.556 61.2201 337.58 61.2866C337.596 61.3304 337.613 61.3736 337.628 61.4175C337.678 61.5605 337.72 61.7061 337.753 61.8537C337.769 61.9219 337.781 61.9905 337.795 62.0591C337.842 62.3025 337.788 61.9078 337.799 62.0886C337.809 62.2395 337.82 62.3889 337.817 62.5404C337.816 62.6098 337.813 62.679 337.808 62.7482C337.806 62.7827 337.802 62.8171 337.8 62.8516C337.789 63.0179 337.788 62.7909 337.812 62.7753C337.763 62.9165 337.731 63.0627 337.716 63.2112C337.697 63.2771 337.674 63.3416 337.653 63.4067C337.579 63.6341 337.722 63.2828 337.644 63.4382C337.579 63.5717 337.507 63.7014 337.427 63.8266C337.392 63.879 337.262 63.9975 337.369 63.915C337.484 63.8256 337.308 63.9796 337.27 64.0193C337.222 64.0702 337.172 64.1193 337.12 64.1667C337.087 64.1991 337.052 64.2296 337.015 64.258C337.008 64.2547 337.192 64.1353 337.093 64.1985C336.967 64.2788 336.847 64.3647 336.715 64.4346C336.699 64.4428 336.529 64.5214 336.53 64.5241C336.523 64.4955 336.748 64.4448 336.593 64.4948C336.561 64.5053 336.529 64.518 336.497 64.5289C336.356 64.5763 336.212 64.6146 336.066 64.6435C336.032 64.6502 335.997 64.6536 335.964 64.6621C335.854 64.6904 336.069 64.6455 336.075 64.6492C335.994 64.6457 335.913 64.6529 335.834 64.6705C335.683 64.6791 335.532 64.6791 335.382 64.6705C335.347 64.6685 335.312 64.665 335.278 64.663C335.197 64.6583 335.137 64.6001 335.245 64.6633C335.328 64.712 335.321 64.6765 335.248 64.6629C335.213 64.6565 335.179 64.6512 335.144 64.6447C334.995 64.6169 334.848 64.5808 334.703 64.5367C334.625 64.513 334.549 64.4854 334.472 64.4585C334.438 64.4488 334.405 64.4362 334.374 64.421C334.374 64.4122 334.572 64.5159 334.467 64.4594C334.335 64.388 334.198 64.3282 334.068 64.2502C333.999 64.2086 333.933 64.1634 333.866 64.1188C333.836 64.1011 333.808 64.081 333.782 64.0588C333.784 64.0498 333.946 64.2 333.861 64.1189C333.754 64.0164 333.638 63.9246 333.536 63.8154C333.513 63.7904 333.491 63.7643 333.468 63.7392L333.445 63.7135C333.388 63.6433 333.387 63.6437 333.442 63.7145C333.498 63.7311 333.496 63.7927 333.442 63.7127C333.423 63.6841 333.403 63.6564 333.384 63.6279C333.298 63.5052 333.225 63.3742 333.165 63.2367C333.17 63.2327 333.257 63.4917 333.191 63.2962C333.178 63.2593 333.164 63.223 333.152 63.186C333.127 63.1125 333.106 63.0383 333.087 62.9632C333.069 62.8889 333.06 62.8122 333.041 62.7381C333.01 62.6133 333.059 62.8366 333.054 62.8311C333.036 62.8136 333.043 62.7054 333.042 62.6795C333.034 62.5132 333.053 62.3518 333.056 62.1865C333.058 62.0584 333.045 62.2863 333.042 62.2796C333.043 62.2412 333.05 62.2032 333.062 62.167C333.082 62.0798 333.099 61.9928 333.123 61.9066C333.15 61.8078 333.181 61.7103 333.216 61.6141C333.229 61.578 333.245 61.5425 333.257 61.5062C333.302 61.3731 333.169 61.6669 333.242 61.5469C333.343 61.3818 333.418 61.2031 333.525 61.0401C333.551 61.0014 333.705 60.7861 333.623 60.8948C333.542 61.0031 333.707 60.7979 333.738 60.763C333.869 60.6183 334.022 60.4994 334.156 60.3608C334.236 60.2788 334.101 60.4012 334.093 60.407C334.134 60.3772 334.175 60.3463 334.217 60.3172C334.291 60.2665 334.367 60.2185 334.444 60.1733C334.531 60.1224 334.629 60.0844 334.714 60.0305C334.813 59.9668 334.637 60.0585 334.634 60.0604C334.68 60.0378 334.727 60.0197 334.776 60.0063C334.858 59.9772 335.216 59.8232 335.291 59.8713C335.287 59.8691 335.019 59.8929 335.236 59.879C335.287 59.8757 335.338 59.8707 335.389 59.8686C335.493 59.8643 335.596 59.8669 335.7 59.8722C335.981 59.8704 336.249 59.7582 336.448 59.5598C336.646 59.3615 336.759 59.093 336.761 58.8125C336.754 58.5333 336.641 58.2672 336.443 58.0697C336.246 57.8723 335.979 57.7587 335.7 57.7527Z" fill="#E6E6E6"/>
<path d="M350.55 57.7527C349.629 57.747 348.727 58.0123 347.955 58.5155C347.184 59.0188 346.578 59.7377 346.213 60.5826C345.805 61.4096 345.679 62.3475 345.854 63.2528C346.03 64.1582 346.497 64.9812 347.185 65.596C347.832 66.1457 348.608 66.5226 349.44 66.6915C350.272 66.8604 351.133 66.8158 351.943 66.5618C352.772 66.2726 353.491 65.734 354 65.0201C354.51 64.3062 354.785 63.452 354.789 62.5751C354.826 61.6023 354.562 60.6417 354.033 59.824C353.504 59.0062 352.737 58.371 351.834 58.0047C351.563 57.9311 351.273 57.9675 351.029 58.1062C350.784 58.2449 350.605 58.4744 350.529 58.7449C350.462 59.0156 350.502 59.3017 350.639 59.5442C350.777 59.7867 351.003 59.9672 351.27 60.0485C351.455 60.1199 351.101 59.9577 351.274 60.0517C351.344 60.0903 351.417 60.1252 351.486 60.1664C351.546 60.2015 351.602 60.2399 351.66 60.2775C351.858 60.4066 351.563 60.1827 351.69 60.2987C351.8 60.3994 351.908 60.4976 352.008 60.6087C352.046 60.6507 352.194 60.7675 352.079 60.6858C351.991 60.6234 352.045 60.6381 352.079 60.6882C352.105 60.7263 352.132 60.7633 352.157 60.8016C352.24 60.9266 352.315 61.0565 352.382 61.1904C352.398 61.2214 352.412 61.2531 352.428 61.284C352.458 61.3418 352.501 61.3569 352.431 61.2845C352.364 61.2154 352.407 61.2201 352.431 61.2866C352.446 61.3304 352.463 61.3736 352.479 61.4175C352.528 61.5605 352.57 61.7061 352.604 61.8537C352.619 61.9219 352.632 61.9905 352.645 62.0591C352.692 62.3025 352.638 61.9078 352.65 62.0886C352.659 62.2395 352.67 62.3889 352.668 62.5404C352.667 62.6098 352.664 62.679 352.659 62.7482C352.656 62.7827 352.652 62.8171 352.65 62.8516C352.639 63.0179 352.639 62.7909 352.662 62.7753C352.614 62.9165 352.581 63.0627 352.566 63.2112C352.547 63.2771 352.525 63.3416 352.503 63.4067C352.43 63.6341 352.573 63.2828 352.494 63.4382C352.429 63.5717 352.357 63.7014 352.277 63.8266C352.243 63.879 352.113 63.9975 352.219 63.915C352.335 63.8256 352.158 63.9796 352.121 64.0193C352.073 64.0702 352.022 64.1193 351.97 64.1667C351.937 64.1991 351.902 64.2296 351.865 64.258C351.858 64.2547 352.042 64.1353 351.943 64.1985C351.817 64.2788 351.698 64.3647 351.565 64.4346C351.55 64.4428 351.38 64.5214 351.38 64.5241C351.373 64.4955 351.599 64.4448 351.444 64.4948C351.411 64.5053 351.379 64.518 351.347 64.5289C351.206 64.5763 351.062 64.6146 350.916 64.6435C350.883 64.6502 350.847 64.6536 350.814 64.6621C350.705 64.6904 350.919 64.6455 350.926 64.6492C350.845 64.6457 350.764 64.6529 350.684 64.6705C350.534 64.6791 350.383 64.6791 350.232 64.6705C350.198 64.6685 350.163 64.665 350.128 64.663C350.047 64.6583 349.988 64.6001 350.095 64.6633C350.178 64.712 350.172 64.6765 350.098 64.6629C350.064 64.6565 350.029 64.6512 349.995 64.6447C349.846 64.6169 349.698 64.5808 349.553 64.5367C349.475 64.513 349.399 64.4854 349.322 64.4585C349.289 64.4488 349.256 64.4362 349.224 64.421C349.224 64.4122 349.423 64.5159 349.318 64.4594C349.185 64.388 349.048 64.3282 348.919 64.2502C348.85 64.2086 348.784 64.1634 348.716 64.1188C348.687 64.1011 348.659 64.081 348.632 64.0588C348.635 64.0498 348.797 64.2 348.712 64.1189C348.604 64.0164 348.489 63.9246 348.387 63.8154C348.364 63.7904 348.341 63.7643 348.318 63.7392L348.296 63.7135C348.238 63.6433 348.237 63.6437 348.293 63.7145C348.349 63.7311 348.346 63.7927 348.293 63.7127C348.274 63.6841 348.254 63.6564 348.235 63.6279C348.148 63.5052 348.075 63.3742 348.015 63.2367C348.021 63.2327 348.107 63.4917 348.041 63.2962C348.028 63.2593 348.014 63.223 348.002 63.186C347.978 63.1125 347.956 63.0383 347.938 62.9632C347.919 62.8889 347.91 62.8122 347.891 62.7381C347.86 62.6133 347.91 62.8366 347.904 62.8311C347.886 62.8136 347.894 62.7054 347.893 62.6795C347.884 62.5132 347.903 62.3518 347.906 62.1865C347.908 62.0584 347.895 62.2863 347.893 62.2796C347.893 62.2412 347.9 62.2032 347.913 62.167C347.932 62.0798 347.95 61.9928 347.973 61.9066C348 61.8078 348.031 61.7103 348.066 61.6141C348.08 61.578 348.095 61.5425 348.108 61.5062C348.152 61.3731 348.019 61.6669 348.093 61.5469C348.194 61.3818 348.269 61.2031 348.376 61.0401C348.401 61.0014 348.556 60.7861 348.474 60.8948C348.392 61.0031 348.558 60.7979 348.589 60.763C348.719 60.6183 348.872 60.4994 349.007 60.3608C349.086 60.2788 348.951 60.4012 348.943 60.407C348.985 60.3772 349.026 60.3463 349.068 60.3172C349.142 60.2665 349.217 60.2185 349.294 60.1733C349.381 60.1224 349.48 60.0844 349.564 60.0305C349.664 59.9668 349.488 60.0585 349.485 60.0604C349.53 60.0378 349.578 60.0197 349.627 60.0063C349.709 59.9772 350.066 59.8232 350.141 59.8713C350.138 59.8691 349.87 59.8929 350.086 59.879C350.137 59.8757 350.188 59.8707 350.24 59.8686C350.343 59.8643 350.447 59.8669 350.55 59.8722C350.831 59.8704 351.1 59.7582 351.298 59.5598C351.497 59.3615 351.609 59.093 351.611 58.8125C351.605 58.5333 351.491 58.2672 351.294 58.0697C351.096 57.8723 350.83 57.7587 350.55 57.7527Z" fill="#E6E6E6"/>
<path d="M565.085 292.466H304.915C301.626 292.462 298.472 291.155 296.145 288.831C293.819 286.506 292.51 283.355 292.507 280.068V48.3975C292.51 45.1106 293.819 41.9594 296.145 39.6352C298.471 37.311 301.626 36.0037 304.915 36H565.085C568.375 36.0037 571.53 37.311 573.856 39.6352C576.182 41.9594 577.491 45.1106 577.494 48.3975V280.068C577.491 283.355 576.182 286.506 573.856 288.831C571.529 291.155 568.375 292.462 565.085 292.466ZM304.915 37.413C302.001 37.4164 299.206 38.5747 297.145 40.634C295.084 42.6932 293.924 45.4853 293.921 48.3975V280.068C293.924 282.981 295.084 285.773 297.145 287.832C299.206 289.891 302.001 291.049 304.915 291.053H565.085C568 291.049 570.795 289.891 572.856 287.832C574.917 285.773 576.077 282.981 576.08 280.068V48.3975C576.077 45.4853 574.917 42.6932 572.856 40.634C570.795 38.5747 568 37.4164 565.085 37.413H304.915Z" fill="#E6E6E6"/>
<path d="M304.484 193.628L395.977 193.35L487.003 193.073L538.35 192.917C538.625 192.908 538.886 192.792 539.077 192.594C539.268 192.397 539.375 192.132 539.375 191.858C539.375 191.583 539.268 191.319 539.077 191.121C538.886 190.923 538.625 190.807 538.35 190.798L446.858 191.076L355.832 191.352L304.484 191.509C304.209 191.518 303.949 191.634 303.758 191.832C303.567 192.029 303.46 192.293 303.46 192.568C303.46 192.843 303.567 193.107 303.758 193.305C303.949 193.503 304.209 193.619 304.484 193.628Z" fill="#E6E6E6"/>
<path d="M350.641 191.91L351.207 158.536C351.23 157.172 349.108 157.171 349.085 158.536L348.519 191.91C348.496 193.274 350.618 193.274 350.641 191.91Z" fill="#E6E6E6"/>
<path d="M394.369 192.271L395.747 150.322L396.141 138.336C396.186 136.972 394.065 136.974 394.02 138.336L392.641 180.285L392.247 192.271C392.202 193.635 394.324 193.634 394.369 192.271Z" fill="#E6E6E6"/>
<path d="M437.978 118.451C437.147 133.309 435.608 177.135 434.777 191.993C434.7 193.356 436.822 193.351 436.898 191.993C437.73 177.135 439.268 133.309 440.1 118.451C440.176 117.089 438.054 117.093 437.978 118.451Z" fill="#E6E6E6"/>
<path d="M481.378 177.084L481.118 191.365C481.094 192.729 483.215 192.729 483.24 191.365C483.547 174.498 484.335 175.048 484.421 170.287C484.446 168.923 482.325 168.923 482.3 170.287C482.3 170.287 481.686 160.217 481.378 177.084Z" fill="#E6E6E6"/>
<path d="M523.887 139.567L524.127 179.633L524.196 191.105C524.206 191.38 524.322 191.64 524.519 191.831C524.717 192.022 524.982 192.129 525.257 192.129C525.532 192.129 525.796 192.022 525.994 191.831C526.192 191.64 526.308 191.38 526.318 191.105L526.078 151.04L526.009 139.567C525.999 139.293 525.884 139.032 525.686 138.841C525.488 138.65 525.223 138.544 524.948 138.544C524.673 138.544 524.409 138.65 524.211 138.841C524.013 139.032 523.897 139.293 523.887 139.567Z" fill="#E6E6E6"/>
<path d="M304.655 192.436C302.899 187.614 306.857 182.977 310.925 180.894C315.798 178.397 321.404 177.832 326.329 175.425C333.671 171.837 339.018 165.399 343.777 158.953C348.674 152.32 353.156 145.2 359.379 139.688C362.658 136.719 366.532 134.48 370.742 133.118C376.048 131.464 381.674 131.351 387.156 132.017C398.484 133.395 408.985 138.069 419.915 141.04C430.22 143.841 441.574 145.416 451.688 141.061C456.827 138.848 461.03 135.136 465.543 131.924C469.911 128.783 474.796 126.429 479.975 124.969C490.129 122.148 501.217 122.901 510.67 127.67C519.359 131.997 526.239 139.252 530.096 148.154C534.577 158.849 533.994 170.801 532.53 182.059C532.151 184.969 531.701 187.869 531.246 190.768C531.036 192.103 533.08 192.677 533.291 191.332C535.114 179.723 536.932 167.747 534.663 156.065C532.702 145.865 527.088 136.728 518.872 130.364C510.621 123.983 500.363 120.749 489.941 121.242C484.479 121.496 479.102 122.69 474.048 124.774C468.801 126.942 464.358 130.156 459.845 133.537C455.205 137.014 450.422 139.89 444.662 141.024C439.074 142.124 433.261 141.711 427.698 140.673C416.219 138.53 405.519 133.618 394.138 131.101C383.593 128.77 372.214 128.537 362.771 134.488C355.508 139.067 350.375 146.174 345.449 153.037C340.567 159.84 335.623 167.115 328.483 171.762C324.128 174.597 319.232 175.643 314.36 177.237C309.475 178.835 304.786 181.532 302.794 186.532C301.936 188.591 301.87 190.894 302.609 192.999C303.072 194.271 305.123 193.722 304.655 192.436Z" fill="#E6E6E6"/>
<path d="M349.937 153.921L349.934 153.923L349.94 153.921H349.937Z" fill="#E6E6E6"/>
<path d="M353.615 151.972C353.125 151.104 352.343 150.438 351.408 150.092C350.473 149.747 349.445 149.743 348.508 150.083C348.042 150.253 347.614 150.514 347.251 150.852C346.888 151.19 346.597 151.597 346.394 152.049C346.353 152.145 346.329 152.246 346.296 152.345C346.25 152.419 346.195 152.486 346.154 152.564C345.714 153.439 345.594 154.44 345.813 155.395C346.033 156.349 346.579 157.197 347.357 157.793C348.135 158.389 349.097 158.695 350.077 158.658C351.056 158.621 351.992 158.245 352.724 157.593C353.493 156.898 354.001 155.962 354.163 154.939C354.325 153.917 354.132 152.869 353.615 151.972ZM350.958 153.771C350.967 153.825 350.964 153.874 350.958 153.771ZM350.688 153.158C350.679 153.147 350.678 153.146 350.688 153.158ZM349.498 153.636C349.482 153.612 349.481 153.608 349.498 153.636ZM349.78 153.875C349.847 153.898 349.821 153.893 349.78 153.875ZM349.906 153.935L349.934 153.922C349.927 153.923 349.92 153.922 349.914 153.918L349.915 153.918L349.937 153.921L349.941 153.919L349.928 153.916C349.939 153.916 349.94 153.917 349.941 153.919C350.067 153.861 349.982 153.889 349.909 153.912L349.904 153.911C349.858 153.887 349.809 153.872 349.759 153.864C349.754 153.861 349.748 153.859 349.745 153.857C349.704 153.828 349.499 153.668 349.689 153.836C349.648 153.799 349.607 153.763 349.568 153.724C349.545 153.7 349.524 153.674 349.505 153.647C349.48 153.604 349.456 153.561 349.433 153.518L349.429 153.494C349.426 153.475 349.424 153.466 349.421 153.455C349.422 153.443 349.424 153.43 349.426 153.417C349.44 153.379 349.45 153.339 349.453 153.298L349.461 153.288C349.492 153.246 349.519 153.196 349.548 153.152C349.394 153.385 349.608 153.126 349.624 153.093C349.626 153.088 349.622 153.091 349.623 153.087C349.629 153.084 349.627 153.086 349.635 153.081C349.682 153.053 349.727 153.022 349.776 152.995C349.833 152.963 350.06 152.899 349.825 152.966C349.879 152.951 349.93 152.932 349.984 152.918C349.994 152.915 350.073 152.904 350.116 152.896C350.153 152.895 350.189 152.894 350.193 152.894C350.211 152.895 350.229 152.897 350.246 152.898C350.207 152.903 350.38 152.94 350.432 152.948C350.439 152.954 350.443 152.958 350.453 152.965C350.496 152.997 350.549 153.025 350.595 153.055C350.39 152.922 350.598 153.065 350.637 153.104C350.66 153.128 350.682 153.153 350.704 153.177C350.724 153.201 350.743 153.226 350.759 153.252C350.792 153.314 350.828 153.376 350.864 153.437L350.873 153.452C350.873 153.454 350.873 153.456 350.873 153.458C350.891 153.556 350.919 153.653 350.954 153.746C350.956 153.754 350.957 153.762 350.958 153.77C350.962 153.824 350.966 153.878 350.966 153.932L350.966 153.943C350.802 153.858 350.621 153.813 350.437 153.811C350.253 153.81 350.071 153.852 349.906 153.935Z" fill="#E6E6E6"/>
<path d="M349.944 153.92C349.948 153.921 349.943 153.921 349.943 153.921L349.944 153.92Z" fill="#E6E6E6"/>
<path d="M349.943 153.921L349.94 153.921C349.944 153.922 349.943 153.921 349.943 153.921Z" fill="#E6E6E6"/>
<path d="M349.941 153.919L349.943 153.92L349.941 153.919Z" fill="#E6E6E6"/>
<path d="M395.196 134.139L395.193 134.14L395.199 134.139H395.196Z" fill="#E6E6E6"/>
<path d="M398.874 132.189C398.384 131.322 397.602 130.656 396.666 130.31C395.731 129.964 394.704 129.961 393.766 130.3C393.3 130.47 392.873 130.732 392.51 131.07C392.147 131.407 391.855 131.814 391.652 132.267C391.612 132.363 391.588 132.464 391.555 132.562C391.509 132.637 391.454 132.704 391.413 132.781C390.973 133.657 390.852 134.658 391.072 135.612C391.292 136.567 391.838 137.415 392.616 138.011C393.394 138.606 394.356 138.912 395.335 138.876C396.315 138.839 397.251 138.462 397.983 137.81C398.751 137.116 399.259 136.18 399.421 135.157C399.584 134.134 399.39 133.087 398.874 132.189ZM396.217 133.989C396.226 134.043 396.223 134.092 396.217 133.989ZM395.947 133.375C395.938 133.365 395.937 133.363 395.947 133.375ZM394.757 133.854C394.741 133.829 394.739 133.825 394.757 133.854ZM395.039 134.093C395.106 134.116 395.079 134.111 395.039 134.093ZM395.165 134.153L395.193 134.14C395.186 134.141 395.179 134.139 395.173 134.136L395.174 134.136L395.196 134.139L395.2 134.137L395.187 134.134C395.198 134.133 395.199 134.135 395.2 134.137C395.326 134.079 395.241 134.107 395.168 134.129L395.163 134.128C395.117 134.105 395.068 134.089 395.017 134.082C395.013 134.079 395.007 134.077 395.003 134.074C394.963 134.045 394.757 133.885 394.948 134.053C394.906 134.016 394.865 133.981 394.826 133.941C394.803 133.918 394.782 133.892 394.764 133.865C394.739 133.822 394.715 133.779 394.691 133.735L394.688 133.712C394.685 133.692 394.682 133.684 394.68 133.672C394.681 133.66 394.683 133.647 394.685 133.634C394.699 133.596 394.708 133.557 394.712 133.516L394.72 133.506C394.75 133.463 394.777 133.414 394.806 133.369C394.653 133.603 394.866 133.344 394.882 133.311C394.885 133.305 394.88 133.308 394.881 133.304C394.888 133.301 394.886 133.303 394.893 133.299C394.941 133.271 394.986 133.24 395.035 133.213C395.092 133.181 395.319 133.117 395.084 133.184C395.137 133.169 395.188 133.149 395.243 133.135C395.252 133.133 395.332 133.122 395.374 133.114C395.412 133.113 395.448 133.112 395.452 133.112C395.47 133.112 395.487 133.114 395.505 133.115C395.466 133.12 395.639 133.158 395.69 133.166C395.698 133.171 395.701 133.175 395.712 133.182C395.755 133.214 395.808 133.242 395.854 133.272C395.649 133.14 395.856 133.283 395.896 133.322C395.919 133.345 395.941 133.37 395.963 133.395C395.983 133.418 396.001 133.443 396.017 133.47C396.051 133.531 396.087 133.594 396.122 133.654L396.132 133.67C396.132 133.672 396.132 133.674 396.132 133.676C396.15 133.774 396.177 133.87 396.213 133.964C396.215 133.972 396.216 133.98 396.217 133.988C396.22 134.042 396.225 134.095 396.225 134.149L396.224 134.16C396.061 134.075 395.88 134.03 395.695 134.029C395.511 134.027 395.329 134.07 395.165 134.153Z" fill="#E6E6E6"/>
<path d="M395.202 134.138L395.199 134.139C395.203 134.139 395.202 134.138 395.202 134.138Z" fill="#E6E6E6"/>
<path d="M395.2 134.137L395.202 134.138L395.2 134.137Z" fill="#E6E6E6"/>
<path d="M395.203 134.137C395.207 134.139 395.202 134.139 395.202 134.139L395.203 134.137Z" fill="#E6E6E6"/>
<path d="M439.044 144.028L439.046 144.029L439.044 144.028Z" fill="#E6E6E6"/>
<path d="M442.718 112.407C442.228 111.539 441.446 110.873 440.511 110.528C439.575 110.182 438.548 110.178 437.61 110.518C437.144 110.688 436.717 110.949 436.354 111.287C435.991 111.625 435.7 112.032 435.497 112.484C435.456 112.58 435.432 112.681 435.399 112.78C435.353 112.854 435.298 112.921 435.257 112.999C434.817 113.874 434.697 114.875 434.916 115.83C435.136 116.784 435.682 117.632 436.46 118.228C437.238 118.824 438.2 119.13 439.18 119.093C440.159 119.056 441.095 118.68 441.827 118.028C442.596 117.333 443.103 116.397 443.266 115.374C443.428 114.352 443.235 113.304 442.718 112.407ZM440.061 114.207C440.07 114.26 440.067 114.309 440.061 114.207ZM439.791 113.593C439.782 113.582 439.781 113.581 439.791 113.593ZM438.601 114.071C438.585 114.047 438.583 114.043 438.601 114.071ZM438.883 114.31C438.95 114.333 438.924 114.328 438.883 114.31ZM439.009 114.37L439.037 114.357C439.03 114.358 439.023 114.357 439.017 114.354L439.018 114.353L439.04 114.356L439.044 114.354L439.031 114.351C439.042 114.351 439.043 114.353 439.044 114.354C439.17 114.296 439.085 114.324 439.012 114.347L439.007 114.346C438.961 114.322 438.912 114.307 438.862 114.299C438.857 114.296 438.851 114.295 438.847 114.292C438.807 114.263 438.601 114.103 438.792 114.271C438.75 114.234 438.71 114.198 438.671 114.159C438.648 114.135 438.627 114.109 438.608 114.082C438.583 114.039 438.559 113.996 438.536 113.953L438.532 113.929C438.529 113.91 438.527 113.901 438.524 113.89C438.525 113.878 438.527 113.865 438.529 113.852C438.543 113.814 438.552 113.774 438.556 113.734L438.564 113.723C438.595 113.681 438.621 113.631 438.65 113.587C438.497 113.82 438.711 113.561 438.727 113.528C438.729 113.523 438.725 113.526 438.726 113.522C438.732 113.519 438.73 113.521 438.738 113.517C438.785 113.489 438.83 113.457 438.879 113.43C438.936 113.399 439.163 113.334 438.928 113.401C438.981 113.386 439.033 113.367 439.087 113.353C439.097 113.35 439.176 113.339 439.219 113.331C439.256 113.331 439.292 113.329 439.296 113.329C439.314 113.33 439.331 113.332 439.349 113.333C439.31 113.338 439.483 113.375 439.534 113.383C439.542 113.389 439.546 113.393 439.556 113.4C439.599 113.432 439.652 113.46 439.698 113.49C439.493 113.357 439.701 113.5 439.74 113.539C439.763 113.563 439.785 113.588 439.807 113.612C439.827 113.636 439.845 113.661 439.862 113.687C439.895 113.749 439.931 113.811 439.966 113.872L439.976 113.887C439.976 113.889 439.976 113.891 439.976 113.893C439.994 113.991 440.021 114.088 440.057 114.181C440.059 114.189 440.06 114.197 440.061 114.205C440.064 114.259 440.069 114.313 440.069 114.367L440.069 114.378C439.905 114.293 439.724 114.248 439.54 114.246C439.355 114.245 439.174 114.287 439.009 114.37Z" fill="#E6E6E6"/>
<path d="M439.04 144.03L439.037 144.031L439.043 144.03H439.04Z" fill="#E6E6E6"/>
<path d="M439.046 144.03L439.043 144.03C439.047 144.031 439.046 144.03 439.046 144.03Z" fill="#E6E6E6"/>
<path d="M439.047 144.029C439.051 144.03 439.046 144.03 439.046 144.03L439.047 144.029Z" fill="#E6E6E6"/>
<path d="M487.27 166.808C486.78 165.941 485.997 165.275 485.062 164.929C484.127 164.584 483.099 164.58 482.162 164.92C481.696 165.09 481.269 165.351 480.906 165.689C480.543 166.027 480.251 166.434 480.048 166.886C480.008 166.982 479.984 167.083 479.951 167.182C479.905 167.256 479.849 167.323 479.808 167.401C479.369 168.276 479.248 169.277 479.468 170.232C479.687 171.186 480.233 172.034 481.012 172.63C481.79 173.226 482.751 173.531 483.731 173.495C484.711 173.458 485.647 173.082 486.378 172.43C487.147 171.735 487.655 170.799 487.817 169.776C487.979 168.754 487.786 167.706 487.27 166.808ZM484.613 168.608C484.622 168.662 484.618 168.711 484.613 168.608ZM484.343 167.995C484.334 167.984 484.332 167.983 484.343 167.995ZM483.152 168.473C483.136 168.448 483.135 168.444 483.152 168.473ZM483.435 168.712C483.502 168.735 483.475 168.73 483.435 168.712ZM483.561 168.772L483.588 168.759C483.582 168.76 483.575 168.758 483.569 168.755L483.569 168.755L483.591 168.758L483.595 168.756L483.583 168.753C483.594 168.753 483.595 168.754 483.595 168.756C483.722 168.698 483.637 168.726 483.563 168.749L483.558 168.747C483.513 168.724 483.464 168.709 483.413 168.701C483.408 168.698 483.403 168.696 483.399 168.694C483.358 168.665 483.153 168.504 483.343 168.672C483.302 168.636 483.261 168.6 483.222 168.56C483.199 168.537 483.178 168.511 483.16 168.484C483.135 168.441 483.111 168.398 483.087 168.354L483.084 168.331C483.081 168.311 483.078 168.303 483.076 168.292C483.077 168.279 483.079 168.266 483.081 168.254C483.095 168.216 483.104 168.176 483.108 168.135L483.116 168.125C483.146 168.082 483.173 168.033 483.202 167.989C483.048 168.222 483.262 167.963 483.278 167.93C483.281 167.925 483.276 167.928 483.277 167.924C483.283 167.92 483.282 167.923 483.289 167.918C483.337 167.89 483.382 167.859 483.43 167.832C483.488 167.8 483.715 167.736 483.479 167.803C483.533 167.788 483.584 167.769 483.638 167.755C483.648 167.752 483.727 167.741 483.77 167.733C483.808 167.732 483.844 167.731 483.848 167.731C483.865 167.731 483.883 167.734 483.901 167.734C483.861 167.74 484.035 167.777 484.086 167.785C484.093 167.791 484.097 167.794 484.107 167.802C484.151 167.834 484.204 167.862 484.25 167.891C484.044 167.759 484.252 167.902 484.291 167.941C484.315 167.964 484.336 167.989 484.358 168.014C484.379 168.038 484.397 168.063 484.413 168.089C484.447 168.151 484.483 168.213 484.518 168.273L484.528 168.289C484.527 168.291 484.527 168.293 484.527 168.295C484.546 168.393 484.573 168.49 484.609 168.583C484.61 168.591 484.612 168.599 484.613 168.607C484.616 168.661 484.62 168.714 484.621 168.769L484.62 168.78C484.457 168.694 484.275 168.649 484.091 168.648C483.907 168.647 483.725 168.689 483.561 168.772Z" fill="#E6E6E6"/>
<path d="M483.592 122.128L483.589 122.129L483.594 122.128H483.592Z" fill="#E6E6E6"/>
<path d="M483.598 122.128L483.594 122.128C483.599 122.129 483.598 122.128 483.598 122.128Z" fill="#E6E6E6"/>
<path d="M483.598 122.127C483.603 122.128 483.598 122.128 483.598 122.128L483.598 122.127Z" fill="#E6E6E6"/>
<path d="M483.596 122.126L483.598 122.127L483.596 122.126Z" fill="#E6E6E6"/>
<path d="M528.993 134.309C528.502 133.441 527.72 132.775 526.785 132.43C525.85 132.084 524.822 132.08 523.885 132.42C523.419 132.59 522.992 132.851 522.628 133.189C522.265 133.527 521.974 133.934 521.771 134.386C521.73 134.482 521.707 134.583 521.673 134.682C521.627 134.756 521.572 134.823 521.531 134.901C521.091 135.776 520.971 136.777 521.191 137.732C521.41 138.686 521.956 139.534 522.734 140.13C523.513 140.726 524.474 141.032 525.454 140.995C526.433 140.958 527.37 140.582 528.101 139.93C528.87 139.235 529.378 138.299 529.54 137.276C529.702 136.254 529.509 135.206 528.993 134.309ZM526.336 136.109C526.344 136.162 526.341 136.211 526.336 136.109ZM526.066 135.495C526.057 135.484 526.055 135.483 526.066 135.495ZM524.875 135.973C524.859 135.949 524.858 135.945 524.875 135.973ZM525.157 136.212C525.225 136.235 525.198 136.23 525.157 136.212ZM525.283 136.272L525.311 136.259C525.304 136.26 525.298 136.259 525.291 136.256L525.292 136.255L525.314 136.258L525.318 136.256L525.306 136.253C525.317 136.253 525.318 136.255 525.318 136.256C525.444 136.198 525.359 136.226 525.286 136.249L525.281 136.248C525.236 136.225 525.186 136.209 525.136 136.201C525.131 136.198 525.126 136.197 525.122 136.194C525.081 136.165 524.876 136.005 525.066 136.173C525.025 136.136 524.984 136.1 524.945 136.061C524.922 136.037 524.901 136.012 524.883 135.984C524.858 135.941 524.833 135.898 524.81 135.855L524.806 135.831C524.803 135.812 524.801 135.804 524.798 135.792C524.8 135.78 524.802 135.767 524.803 135.754C524.818 135.716 524.827 135.676 524.83 135.636L524.839 135.625C524.869 135.583 524.896 135.533 524.925 135.489C524.771 135.722 524.985 135.463 525.001 135.43C525.004 135.425 524.999 135.428 525 135.424C525.006 135.421 525.004 135.423 525.012 135.419C525.059 135.391 525.105 135.359 525.153 135.332C525.211 135.301 525.438 135.236 525.202 135.303C525.256 135.288 525.307 135.269 525.361 135.255C525.371 135.252 525.45 135.241 525.493 135.233C525.53 135.233 525.567 135.231 525.57 135.231C525.588 135.232 525.606 135.234 525.623 135.235C525.584 135.24 525.757 135.277 525.809 135.285C525.816 135.291 525.82 135.295 525.83 135.302C525.874 135.334 525.926 135.362 525.972 135.392C525.767 135.259 525.975 135.402 526.014 135.441C526.038 135.465 526.059 135.49 526.081 135.514C526.101 135.538 526.12 135.563 526.136 135.589C526.17 135.651 526.205 135.713 526.241 135.774L526.25 135.789C526.25 135.791 526.25 135.793 526.25 135.795C526.269 135.893 526.296 135.99 526.331 136.083C526.333 136.091 526.334 136.099 526.335 136.107C526.339 136.161 526.343 136.215 526.343 136.269L526.343 136.28C526.179 136.195 525.998 136.15 525.814 136.148C525.63 136.147 525.448 136.189 525.283 136.272Z" fill="#E6E6E6"/>
<path d="M525.314 136.258L525.311 136.26L525.317 136.258H525.314Z" fill="#E6E6E6"/>
<path d="M525.318 136.256L525.32 136.257L525.318 136.256Z" fill="#E6E6E6"/>
<path d="M525.321 136.257C525.325 136.258 525.32 136.258 525.32 136.258L525.321 136.257Z" fill="#E6E6E6"/>
<path d="M525.321 136.258L525.317 136.259C525.322 136.259 525.321 136.258 525.321 136.258Z" fill="#E6E6E6"/>
<path d="M513.881 168.637L481 170.463C480.815 170.473 480.632 170.412 480.491 170.292C480.349 170.172 480.259 170.002 480.239 169.818C480.219 169.633 480.27 169.448 480.383 169.301C480.495 169.153 480.66 169.054 480.843 169.024L514.451 163.561L513.881 168.637Z" fill="#3F3D56"/>
<path d="M555.668 241.773L568.059 220.946L577.217 225.267C577.217 225.267 561.436 244.959 560.933 245.525C561.149 246.483 561.068 247.482 560.702 248.393C560.336 249.303 559.702 250.081 558.884 250.624C558.066 251.166 557.103 251.448 556.121 251.432C555.139 251.415 554.186 251.101 553.386 250.532C552.587 249.962 551.979 249.163 551.644 248.241C551.309 247.319 551.262 246.317 551.51 245.367C551.757 244.418 552.287 243.566 553.029 242.924C553.772 242.282 554.692 241.881 555.668 241.773Z" fill="#FFB6B6"/>
<path d="M560.822 193.393L580.897 203.857C582.151 204.76 583.204 205.915 583.986 207.247C584.769 208.58 585.264 210.06 585.441 211.595C585.618 213.13 585.473 214.684 585.014 216.16C584.556 217.635 583.794 218.998 582.778 220.163L568.939 236.024L562.91 227.861L567.557 218.154L558.559 215.783L560.822 193.393Z" fill="#25929B"/>
<path d="M503.615 168.977L501.353 193.1L491.225 193.117C491.225 193.117 497.036 168.568 497.247 167.841C496.642 167.068 496.286 166.13 496.226 165.151C496.166 164.172 496.405 163.198 496.912 162.357C497.418 161.517 498.168 160.85 499.062 160.444C499.956 160.039 500.952 159.914 501.919 160.086C502.885 160.259 503.777 160.72 504.475 161.41C505.173 162.1 505.646 162.985 505.83 163.948C506.013 164.912 505.9 165.909 505.504 166.807C505.109 167.705 504.45 168.461 503.615 168.977Z" fill="#FFB6B6"/>
<path d="M523.775 218.307L500.464 214.036C490.648 212.857 486.619 206.404 488.39 200.11L494.09 179.853L503.039 184.647L503.005 195.407L515.531 193.696L523.775 218.307Z" fill="#25929B"/>
<path d="M514.233 385.014H507.823L504.774 360.312H514.234L514.233 385.014Z" fill="#FFB6B6"/>
<path d="M514.459 391.695L494.748 391.694V391.445C494.748 389.412 495.556 387.462 496.995 386.025C498.434 384.587 500.385 383.78 502.42 383.78L506.021 381.051L512.739 383.78L514.459 383.78L514.459 391.695Z" fill="#2F2E41"/>
<path d="M559.587 385.014H565.997L569.046 360.312H559.586L559.587 385.014Z" fill="#FFB6B6"/>
<path d="M559.361 391.695L579.072 391.694V391.445C579.072 389.412 578.264 387.462 576.825 386.025C575.386 384.587 573.435 383.78 571.4 383.78L567.799 381.051L561.082 383.78L559.361 383.78L559.361 391.695Z" fill="#2F2E41"/>
<path d="M504.492 342.161C504.587 340.751 505.339 332.956 505.339 332.956L507.142 316.425L510.32 272.606L513.152 261.088L527.172 266.545L538.548 261.096L552.07 265.415L562.599 269.359C562.599 269.359 562.617 271.048 562.698 273.088C562.806 275.758 562.995 279.032 563.446 279.883C564.199 281.387 564.01 289.461 564.01 289.461C564.01 289.461 564.758 305.888 565.7 307.69C566.642 309.491 566.831 313.242 566.547 313.994C566.263 314.746 567.489 334.474 567.489 334.474C567.489 334.474 570.636 369.385 568.661 374.649C566.687 379.913 559.227 376.465 559.227 376.465C559.227 376.465 559.588 375.06 557.425 374.398C555.261 373.736 548.672 324.234 548.672 324.234C548.672 324.234 547.446 314.084 546.319 311.175C545.192 308.266 544.155 300.093 544.155 300.093C544.155 300.093 537.196 286.566 537.106 283.558C537.106 283.558 536.196 280.743 535.335 283.841C534.474 286.939 531.936 294.36 531.936 294.36L529.462 303.475L526.55 317.092L524.666 328.557C524.666 328.557 521.845 343.773 521.394 344.43C520.943 345.087 521.394 358.988 521.394 358.988C521.394 358.988 519.212 370.827 516.13 372.894C513.047 374.961 504.879 372.927 504.879 372.927C504.879 372.927 504.397 343.57 504.492 342.161Z" fill="#2F2E41"/>
<path d="M514.973 224.027L513.181 247.213L510.49 249.996C510.247 250.247 510.058 250.545 509.933 250.87C509.808 251.196 509.75 251.544 509.762 251.893C509.775 252.241 509.858 252.584 510.006 252.9C510.155 253.216 510.365 253.498 510.626 253.731L509.143 256.272L508.618 264.277C508.468 264.899 508.458 265.548 508.588 266.175C508.718 266.802 508.985 267.393 509.37 267.905C509.755 268.417 510.248 268.838 510.815 269.138C511.382 269.438 512.007 269.609 512.648 269.639L559.061 271.817C559.697 271.847 560.333 271.737 560.923 271.495C561.512 271.252 562.041 270.883 562.473 270.414C562.904 269.945 563.227 269.387 563.418 268.779C563.61 268.172 563.666 267.53 563.582 266.898L559.635 237.215V234.995L557.869 230.709L558.777 216.35L560.889 193.558L548.611 190.39L541.954 185.814L530.388 185.998L523.37 191.756L514.014 193.22L506.937 194.625L506.036 196.582L507.839 196.191L514.373 221.655L514.973 224.027Z" fill="#25929B"/>
<path d="M535.912 182.707C543.437 182.707 549.537 176.613 549.537 169.095C549.537 161.577 543.437 155.483 535.912 155.483C528.388 155.483 522.288 161.577 522.288 169.095C522.288 176.613 528.388 182.707 535.912 182.707Z" fill="#FFB6B6"/>
<path d="M532.628 181.829L542.471 181.327C543.732 181.263 545.109 181.151 546.026 180.284C546.52 179.749 546.899 179.119 547.142 178.432C548.052 176.32 548.962 174.208 549.849 172.087C551.076 169.152 552.28 166.053 551.967 162.888C551.894 161.443 551.287 160.076 550.264 159.051C549.742 158.557 549.071 158.25 548.356 158.178C547.641 158.105 546.922 158.272 546.311 158.651C546.159 157.65 545.782 156.696 545.207 155.862C544.632 155.029 543.875 154.336 542.993 153.838C541.212 152.855 539.178 152.424 537.15 152.6C534.208 152.79 531.4 153.896 529.119 155.762C528.478 156.354 527.793 156.896 527.071 157.384C526.707 157.627 526.298 157.793 525.868 157.873C525.438 157.952 524.997 157.943 524.57 157.847C524.148 157.734 523.781 157.472 523.537 157.11C523.292 156.748 523.188 156.309 523.242 155.876C522.549 156.394 522.073 157.151 521.909 158C521.744 158.849 521.902 159.729 522.351 160.468C521.84 160.682 521.283 160.76 520.733 160.695C520.182 160.63 519.658 160.424 519.211 160.097C518.733 160.334 518.309 160.669 517.967 161.08C517.625 161.49 517.373 161.968 517.226 162.481C517.08 162.995 517.042 163.533 517.116 164.062C517.19 164.591 517.373 165.099 517.655 165.553C517.936 166.007 518.309 166.397 518.751 166.698C519.192 167 519.691 167.206 520.217 167.303C520.742 167.401 521.282 167.388 521.802 167.265C522.323 167.142 522.811 166.911 523.237 166.589C523.835 167.425 523.612 168.561 523.534 169.585C523.456 170.609 523.731 171.882 524.72 172.166C526.056 172.548 527.138 170.751 528.528 170.77C528.871 170.798 529.201 170.91 529.491 171.096C529.78 171.282 530.018 171.537 530.185 171.837C530.513 172.441 530.737 173.095 530.849 173.772L532.628 181.773" fill="#2F2E41"/>
<path d="M916.438 304.22C916.438 302.112 915.729 300.401 914.859 300.397H677.715C676.841 300.401 676.137 302.112 676.133 304.22V390.987C676.133 391.182 676.06 391.371 675.928 391.516C675.797 391.661 675.616 391.752 675.421 391.771C674.784 391.832 674.148 391.889 673.511 391.941C673.496 391.941 673.48 391.945 673.464 391.945C673.118 391.977 672.772 392 672.425 392.028H672.421C672.243 391.699 672.067 391.367 671.893 391.032C671.834 390.919 671.803 390.794 671.803 390.666V299.261C671.803 298.679 671.827 298.093 671.866 297.515C671.922 296.721 672.021 295.931 672.161 295.148C672.827 291.494 674.33 289.021 676.038 289.013H916.532C916.782 289.015 917.028 289.067 917.257 289.166C917.592 289.315 917.896 289.527 918.15 289.792C918.495 290.15 918.791 290.554 919.028 290.991C920.008 292.942 920.572 295.075 920.685 297.255C920.685 297.279 920.689 297.303 920.689 297.326C920.744 297.963 920.771 298.612 920.768 299.261L920.823 307.688L920.858 312.714L920.964 328.483L921.004 334.083L921.177 391.575C921.177 391.784 921.094 391.984 920.946 392.132C920.799 392.279 920.598 392.362 920.39 392.362H917.225C917.016 392.362 916.816 392.279 916.668 392.132C916.521 391.984 916.438 391.784 916.438 391.575V304.22Z" fill="#E6E6E6"/>
<path d="M851.998 249.58H826.445C826.084 249.581 825.737 249.725 825.482 249.98C825.227 250.236 825.084 250.582 825.084 250.944V291.272H853.363V250.944C853.363 250.764 853.328 250.587 853.259 250.422C853.191 250.256 853.09 250.106 852.963 249.979C852.837 249.853 852.686 249.752 852.521 249.684C852.355 249.615 852.177 249.58 851.998 249.58ZM839.308 272.494C838.509 272.491 837.743 272.172 837.178 271.607C836.613 271.043 836.294 270.278 836.29 269.48V264.828C836.29 264.029 836.608 263.262 837.174 262.696C837.74 262.131 838.507 261.814 839.308 261.814C840.108 261.814 840.875 262.131 841.441 262.696C842.007 263.262 842.325 264.029 842.325 264.828V269.48C842.321 270.278 842.002 271.043 841.437 271.607C840.872 272.172 840.107 272.491 839.308 272.494Z" fill="#CCCCCC"/>
<path d="M824.996 289.982V293.873C824.997 294.075 825.077 294.268 825.22 294.411C825.362 294.553 825.556 294.634 825.758 294.634H852.689C852.891 294.633 853.084 294.552 853.227 294.41C853.369 294.268 853.45 294.075 853.451 293.873V289.982H824.996Z" fill="#3F3D56"/>
<path d="M894.311 186.642H785.083C784.145 186.644 783.245 187.017 782.582 187.68C781.918 188.343 781.545 189.242 781.543 190.179V263.819C781.544 264.757 781.917 265.656 782.581 266.319C783.245 266.982 784.145 267.355 785.083 267.356H894.311C895.25 267.355 896.15 266.982 896.813 266.319C897.477 265.656 897.85 264.757 897.851 263.819V190.179C897.85 189.242 897.476 188.343 896.813 187.68C896.149 187.017 895.25 186.644 894.311 186.642Z" fill="#E6E6E6"/>
<path d="M893.399 189.197H785.996C785.493 189.198 785.012 189.398 784.657 189.754C784.302 190.109 784.103 190.591 784.103 191.093V262.907C784.103 263.408 784.303 263.889 784.658 264.244C785.013 264.598 785.494 264.798 785.996 264.799H893.399C893.901 264.798 894.382 264.598 894.737 264.244C895.092 263.889 895.292 263.408 895.293 262.907V191.093C895.293 190.591 895.093 190.109 894.738 189.754C894.383 189.398 893.902 189.198 893.399 189.197Z" fill="white"/>
<path d="M872.479 295.988H808.58C808.405 295.988 808.232 295.949 808.074 295.874C807.916 295.799 807.777 295.689 807.667 295.553C807.557 295.418 807.478 295.259 807.437 295.089C807.396 294.919 807.393 294.743 807.43 294.572L808.421 289.867C808.477 289.604 808.622 289.368 808.831 289.198C809.041 289.028 809.302 288.935 809.571 288.934H871.488C871.757 288.935 872.018 289.028 872.227 289.198C872.436 289.368 872.581 289.604 872.638 289.867L873.629 294.572C873.665 294.743 873.663 294.919 873.622 295.089C873.581 295.259 873.502 295.418 873.392 295.553C873.282 295.689 873.142 295.799 872.985 295.874C872.827 295.949 872.654 295.988 872.479 295.988Z" fill="#CCCCCC"/>
<path d="M811.648 289.782H810.37C810.179 289.782 810.025 289.936 810.025 290.126V290.616C810.025 290.807 810.179 290.961 810.37 290.961H811.648C811.838 290.961 811.993 290.807 811.993 290.616V290.126C811.993 289.936 811.838 289.782 811.648 289.782Z" fill="#E6E6E6"/>
<path d="M815.584 289.782H814.306C814.115 289.782 813.961 289.936 813.961 290.126V290.616C813.961 290.807 814.115 290.961 814.306 290.961H815.584C815.774 290.961 815.929 290.807 815.929 290.616V290.126C815.929 289.936 815.774 289.782 815.584 289.782Z" fill="#E6E6E6"/>
<path d="M819.52 289.782H818.242C818.052 289.782 817.897 289.936 817.897 290.126V290.616C817.897 290.807 818.052 290.961 818.242 290.961H819.52C819.71 290.961 819.865 290.807 819.865 290.616V290.126C819.865 289.936 819.71 289.782 819.52 289.782Z" fill="#E6E6E6"/>
<path d="M823.456 289.782H822.178C821.988 289.782 821.833 289.936 821.833 290.126V290.616C821.833 290.807 821.988 290.961 822.178 290.961H823.456C823.646 290.961 823.801 290.807 823.801 290.616V290.126C823.801 289.936 823.646 289.782 823.456 289.782Z" fill="#E6E6E6"/>
<path d="M827.392 289.782H826.114C825.924 289.782 825.769 289.936 825.769 290.126V290.616C825.769 290.807 825.924 290.961 826.114 290.961H827.392C827.583 290.961 827.737 290.807 827.737 290.616V290.126C827.737 289.936 827.583 289.782 827.392 289.782Z" fill="#E6E6E6"/>
<path d="M831.328 289.782H830.05C829.86 289.782 829.705 289.936 829.705 290.126V290.616C829.705 290.807 829.86 290.961 830.05 290.961H831.328C831.519 290.961 831.673 290.807 831.673 290.616V290.126C831.673 289.936 831.519 289.782 831.328 289.782Z" fill="#E6E6E6"/>
<path d="M835.264 289.782H833.986C833.796 289.782 833.641 289.936 833.641 290.126V290.616C833.641 290.807 833.796 290.961 833.986 290.961H835.264C835.455 290.961 835.609 290.807 835.609 290.616V290.126C835.609 289.936 835.455 289.782 835.264 289.782Z" fill="#E6E6E6"/>
<path d="M839.2 289.782H837.922C837.732 289.782 837.577 289.936 837.577 290.126V290.616C837.577 290.807 837.732 290.961 837.922 290.961H839.2C839.391 290.961 839.545 290.807 839.545 290.616V290.126C839.545 289.936 839.391 289.782 839.2 289.782Z" fill="#E6E6E6"/>
<path d="M843.136 289.782H841.859C841.668 289.782 841.513 289.936 841.513 290.126V290.616C841.513 290.807 841.668 290.961 841.859 290.961H843.136C843.327 290.961 843.481 290.807 843.481 290.616V290.126C843.481 289.936 843.327 289.782 843.136 289.782Z" fill="#E6E6E6"/>
<path d="M847.072 289.782H845.795C845.604 289.782 845.449 289.936 845.449 290.126V290.616C845.449 290.807 845.604 290.961 845.795 290.961H847.072C847.263 290.961 847.417 290.807 847.417 290.616V290.126C847.417 289.936 847.263 289.782 847.072 289.782Z" fill="#E6E6E6"/>
<path d="M851.008 289.782H849.731C849.54 289.782 849.385 289.936 849.385 290.126V290.616C849.385 290.807 849.54 290.961 849.731 290.961H851.008C851.199 290.961 851.354 290.807 851.354 290.616V290.126C851.354 289.936 851.199 289.782 851.008 289.782Z" fill="#E6E6E6"/>
<path d="M854.944 289.782H853.667C853.476 289.782 853.322 289.936 853.322 290.126V290.616C853.322 290.807 853.476 290.961 853.667 290.961H854.944C855.135 290.961 855.29 290.807 855.29 290.616V290.126C855.29 289.936 855.135 289.782 854.944 289.782Z" fill="#E6E6E6"/>
<path d="M858.88 289.782H857.603C857.412 289.782 857.258 289.936 857.258 290.126V290.616C857.258 290.807 857.412 290.961 857.603 290.961H858.88C859.071 290.961 859.226 290.807 859.226 290.616V290.126C859.226 289.936 859.071 289.782 858.88 289.782Z" fill="#E6E6E6"/>
<path d="M862.817 289.782H861.539C861.348 289.782 861.194 289.936 861.194 290.126V290.616C861.194 290.807 861.348 290.961 861.539 290.961H862.817C863.007 290.961 863.162 290.807 863.162 290.616V290.126C863.162 289.936 863.007 289.782 862.817 289.782Z" fill="#E6E6E6"/>
<path d="M866.753 289.782H865.475C865.284 289.782 865.13 289.936 865.13 290.126V290.616C865.13 290.807 865.284 290.961 865.475 290.961H866.753C866.943 290.961 867.098 290.807 867.098 290.616V290.126C867.098 289.936 866.943 289.782 866.753 289.782Z" fill="#E6E6E6"/>
<path d="M870.689 289.782H869.411C869.221 289.782 869.066 289.936 869.066 290.126V290.616C869.066 290.807 869.221 290.961 869.411 290.961H870.689C870.879 290.961 871.034 290.807 871.034 290.616V290.126C871.034 289.936 870.879 289.782 870.689 289.782Z" fill="#E6E6E6"/>
<path d="M811.601 291.748H810.324C810.133 291.748 809.978 291.902 809.978 292.093V292.583C809.978 292.773 810.133 292.927 810.324 292.927H811.601C811.792 292.927 811.946 292.773 811.946 292.583V292.093C811.946 291.902 811.792 291.748 811.601 291.748Z" fill="#E6E6E6"/>
<path d="M815.537 291.748H814.26C814.069 291.748 813.914 291.902 813.914 292.093V292.583C813.914 292.773 814.069 292.927 814.26 292.927H815.537C815.728 292.927 815.882 292.773 815.882 292.583V292.093C815.882 291.902 815.728 291.748 815.537 291.748Z" fill="#E6E6E6"/>
<path d="M819.473 291.748H818.196C818.005 291.748 817.85 291.902 817.85 292.093V292.583C817.85 292.773 818.005 292.927 818.196 292.927H819.473C819.664 292.927 819.818 292.773 819.818 292.583V292.093C819.818 291.902 819.664 291.748 819.473 291.748Z" fill="#E6E6E6"/>
<path d="M823.409 291.748H822.132C821.941 291.748 821.786 291.902 821.786 292.093V292.583C821.786 292.773 821.941 292.927 822.132 292.927H823.409C823.6 292.927 823.755 292.773 823.755 292.583V292.093C823.755 291.902 823.6 291.748 823.409 291.748Z" fill="#E6E6E6"/>
<path d="M827.345 291.748H826.068C825.877 291.748 825.723 291.902 825.723 292.093V292.583C825.723 292.773 825.877 292.927 826.068 292.927H827.345C827.536 292.927 827.691 292.773 827.691 292.583V292.093C827.691 291.902 827.536 291.748 827.345 291.748Z" fill="#E6E6E6"/>
<path d="M831.281 291.748H830.004C829.813 291.748 829.659 291.902 829.659 292.093V292.583C829.659 292.773 829.813 292.927 830.004 292.927H831.281C831.472 292.927 831.627 292.773 831.627 292.583V292.093C831.627 291.902 831.472 291.748 831.281 291.748Z" fill="#E6E6E6"/>
<path d="M835.218 291.748H833.94C833.749 291.748 833.595 291.902 833.595 292.093V292.583C833.595 292.773 833.749 292.927 833.94 292.927H835.218C835.408 292.927 835.563 292.773 835.563 292.583V292.093C835.563 291.902 835.408 291.748 835.218 291.748Z" fill="#E6E6E6"/>
<path d="M839.154 291.748H837.876C837.685 291.748 837.531 291.902 837.531 292.093V292.583C837.531 292.773 837.685 292.927 837.876 292.927H839.154C839.344 292.927 839.499 292.773 839.499 292.583V292.093C839.499 291.902 839.344 291.748 839.154 291.748Z" fill="#E6E6E6"/>
<path d="M843.09 291.748H841.812C841.621 291.748 841.467 291.902 841.467 292.093V292.583C841.467 292.773 841.621 292.927 841.812 292.927H843.09C843.28 292.927 843.435 292.773 843.435 292.583V292.093C843.435 291.902 843.28 291.748 843.09 291.748Z" fill="#E6E6E6"/>
<path d="M847.026 291.748H845.748C845.557 291.748 845.403 291.902 845.403 292.093V292.583C845.403 292.773 845.557 292.927 845.748 292.927H847.026C847.216 292.927 847.371 292.773 847.371 292.583V292.093C847.371 291.902 847.216 291.748 847.026 291.748Z" fill="#E6E6E6"/>
<path d="M850.962 291.748H849.684C849.494 291.748 849.339 291.902 849.339 292.093V292.583C849.339 292.773 849.494 292.927 849.684 292.927H850.962C851.152 292.927 851.307 292.773 851.307 292.583V292.093C851.307 291.902 851.152 291.748 850.962 291.748Z" fill="#E6E6E6"/>
<path d="M854.898 291.748H853.62C853.43 291.748 853.275 291.902 853.275 292.093V292.583C853.275 292.773 853.43 292.927 853.62 292.927H854.898C855.088 292.927 855.243 292.773 855.243 292.583V292.093C855.243 291.902 855.088 291.748 854.898 291.748Z" fill="#E6E6E6"/>
<path d="M858.834 291.748H857.556C857.366 291.748 857.211 291.902 857.211 292.093V292.583C857.211 292.773 857.366 292.927 857.556 292.927H858.834C859.025 292.927 859.179 292.773 859.179 292.583V292.093C859.179 291.902 859.025 291.748 858.834 291.748Z" fill="#E6E6E6"/>
<path d="M862.77 291.748H861.492C861.302 291.748 861.147 291.902 861.147 292.093V292.583C861.147 292.773 861.302 292.927 861.492 292.927H862.77C862.961 292.927 863.115 292.773 863.115 292.583V292.093C863.115 291.902 862.961 291.748 862.77 291.748Z" fill="#E6E6E6"/>
<path d="M866.706 291.748H865.428C865.238 291.748 865.083 291.902 865.083 292.093V292.583C865.083 292.773 865.238 292.927 865.428 292.927H866.706C866.897 292.927 867.051 292.773 867.051 292.583V292.093C867.051 291.902 866.897 291.748 866.706 291.748Z" fill="#E6E6E6"/>
<path d="M870.642 291.748H869.364C869.174 291.748 869.019 291.902 869.019 292.093V292.583C869.019 292.773 869.174 292.927 869.364 292.927H870.642C870.833 292.927 870.987 292.773 870.987 292.583V292.093C870.987 291.902 870.833 291.748 870.642 291.748Z" fill="#E6E6E6"/>
<path d="M844.27 294.107H829.217C829.026 294.107 828.871 294.262 828.871 294.452V294.942C828.871 295.133 829.026 295.287 829.217 295.287H844.27C844.461 295.287 844.616 295.133 844.616 294.942V294.452C844.616 294.262 844.461 294.107 844.27 294.107Z" fill="#E6E6E6"/>
<path d="M888 199.092H787.503C787.399 199.089 787.299 199.046 787.226 198.971C787.153 198.897 787.112 198.797 787.112 198.692C787.112 198.588 787.153 198.488 787.226 198.413C787.299 198.338 787.399 198.295 787.503 198.293H888C888.105 198.295 888.204 198.338 888.277 198.413C888.35 198.488 888.391 198.588 888.391 198.692C888.391 198.797 888.35 198.897 888.277 198.971C888.204 199.046 888.105 199.089 888 199.092Z" fill="#CACACA"/>
<path d="M794.344 196.254C795.638 196.254 796.686 195.183 796.686 193.862C796.686 192.541 795.638 191.47 794.344 191.47C793.051 191.47 792.002 192.541 792.002 193.862C792.002 195.183 793.051 196.254 794.344 196.254Z" fill="#CCCCCC"/>
<path d="M802.435 196.254C803.729 196.254 804.777 195.183 804.777 193.862C804.777 192.541 803.729 191.47 802.435 191.47C801.142 191.47 800.093 192.541 800.093 193.862C800.093 195.183 801.142 196.254 802.435 196.254Z" fill="#CCCCCC"/>
<path d="M810.526 196.254C811.82 196.254 812.868 195.183 812.868 193.862C812.868 192.541 811.82 191.47 810.526 191.47C809.233 191.47 808.184 192.541 808.184 193.862C808.184 195.183 809.233 196.254 810.526 196.254Z" fill="#CCCCCC"/>
<path d="M883.129 192.063H877.381C877.268 192.065 877.159 192.112 877.079 192.193C877 192.275 876.955 192.384 876.955 192.498C876.955 192.612 877 192.721 877.079 192.802C877.159 192.883 877.268 192.93 877.381 192.933H883.129C883.243 192.93 883.351 192.883 883.431 192.802C883.511 192.721 883.556 192.612 883.556 192.498C883.556 192.384 883.511 192.275 883.431 192.193C883.351 192.112 883.243 192.065 883.129 192.063Z" fill="#CCCCCC"/>
<path d="M883.129 193.695H877.381C877.268 193.697 877.159 193.744 877.079 193.825C877 193.907 876.955 194.016 876.955 194.13C876.955 194.244 877 194.353 877.079 194.434C877.159 194.515 877.268 194.562 877.381 194.565H883.129C883.243 194.562 883.351 194.515 883.431 194.434C883.511 194.353 883.555 194.244 883.555 194.13C883.555 194.016 883.511 193.907 883.431 193.825C883.351 193.744 883.243 193.697 883.129 193.695Z" fill="#CCCCCC"/>
<path d="M883.129 195.325H877.381C877.268 195.327 877.159 195.374 877.079 195.455C877 195.537 876.955 195.646 876.955 195.76C876.955 195.874 877 195.983 877.079 196.064C877.159 196.145 877.268 196.192 877.381 196.194H883.129C883.243 196.192 883.351 196.145 883.431 196.064C883.511 195.983 883.556 195.874 883.556 195.76C883.556 195.646 883.511 195.537 883.431 195.455C883.351 195.374 883.243 195.327 883.129 195.325Z" fill="#CCCCCC"/>
<path d="M845.866 220.845H833.308C832.365 220.845 831.6 221.609 831.6 222.551C831.6 223.494 832.365 224.258 833.308 224.258H845.866C846.809 224.258 847.574 223.494 847.574 222.551C847.574 221.609 846.809 220.845 845.866 220.845Z" fill="#25929B"/>
<path d="M853.978 227.67H825.196C824.253 227.67 823.488 228.434 823.488 229.376C823.488 230.319 824.253 231.083 825.196 231.083H853.978C854.921 231.083 855.686 230.319 855.686 229.376C855.686 228.434 854.921 227.67 853.978 227.67Z" fill="#E6E6E6"/>
<path d="M853.978 234.495H825.196C824.253 234.495 823.488 235.259 823.488 236.202C823.488 237.144 824.253 237.908 825.196 237.908H853.978C854.921 237.908 855.686 237.144 855.686 236.202C855.686 235.259 854.921 234.495 853.978 234.495Z" fill="#E6E6E6"/>
<path d="M660.068 340.825L654.279 338.058L662.231 313.883L670.775 317.965L660.068 340.825Z" fill="#FFB6B6"/>
<path d="M698.879 336.927C698.458 337.19 698.037 337.449 697.612 337.709C696.766 338.227 695.911 338.737 695.056 339.238C694.627 339.489 694.193 339.739 693.764 339.986V339.998L693.738 340.003L693.73 340.007L693.075 340.168L692.135 337.687L691.701 336.545L691.089 334.926L689.966 331.965L684.056 316.373L693.245 314.109L693.589 315.515H693.594L693.764 316.212L696.974 329.22L697.629 331.88L697.65 331.961L698.046 333.549L698.386 334.926L698.764 336.464L698.879 336.927Z" fill="#FFB6B6"/>
<path d="M753.696 282.173C753.113 283.108 752.518 284.038 751.918 284.96C750.804 286.677 749.66 288.367 748.487 290.033C748.487 290.037 748.482 290.037 748.478 290.041C747.793 290.675 747.037 291.227 746.225 291.685C746.191 291.711 746.152 291.728 746.118 291.749C745.52 292.08 744.883 292.335 744.222 292.51C743.984 292.569 743.741 292.628 743.503 292.688C742.644 292.892 741.794 293.066 740.947 293.219C739.442 293.487 737.954 293.678 736.474 293.797C736.355 293.81 736.236 293.818 736.117 293.826C730.032 294.273 724.109 293.555 717.926 292.378C714.873 291.8 711.756 291.108 708.528 290.39C707.474 290.152 706.415 289.918 705.343 289.684C705.263 289.667 705.178 289.646 705.092 289.629C703.562 289.294 702.005 288.962 700.411 288.635C698.404 288.223 696.333 287.824 694.181 287.445L694.334 290.475C694.462 292.805 694.946 295.101 695.772 297.285C696.69 299.97 697.417 302.094 695.882 306.516L695.142 308.658C695.526 309.721 695.657 310.858 695.527 311.981C695.396 313.104 695.007 314.181 694.39 315.128L694.241 315.353L700.411 330.949L700.811 331.96H697.651L693.765 331.964H687.178L677.674 312.914L677.219 312.005V311.958L678.201 275.35C678.214 275.028 678.24 274.7 678.282 274.378C678.455 272.91 678.919 271.491 679.647 270.204C680.375 268.918 681.352 267.789 682.522 266.883C683.642 266.009 684.925 265.365 686.297 264.99C687.669 264.615 689.101 264.517 690.511 264.7L693.764 265.12L700.411 265.979L705.092 266.586L705.186 266.599L718.993 268.383L719.984 264.347L720.167 264.279L725.98 262.151L746.084 254.788L746.135 254.771L747.458 254.287L747.615 254.542C747.662 254.619 747.708 254.695 747.751 254.771C749.058 257.113 750.122 259.581 750.927 262.138C752.281 266.315 753.396 270.566 754.265 274.87C754.304 275.057 754.338 275.227 754.368 275.38L754.38 275.427C754.393 275.499 754.402 275.546 754.406 275.559C754.804 277.786 754.558 280.081 753.696 282.173Z" fill="#2F2E41"/>
<path d="M754.544 268.682C754.481 268.41 754.4 268.134 754.315 267.867C753.64 265.839 752.853 263.851 751.959 261.91C750.955 259.701 749.752 257.335 748.319 254.773C747.626 253.533 746.88 252.242 746.082 250.903C745.683 250.232 745.267 249.548 744.836 248.851C744.82 248.819 744.801 248.788 744.781 248.757L744.658 248.554L724.766 251.213L717.358 252.203L716.916 255.89L716.81 256.804C716.806 256.804 716.806 256.804 716.81 256.808L716.512 259.298V259.302L716.117 262.59L716.083 262.586L705.091 261.163L693.763 259.697L687.678 258.911C686.268 258.727 684.835 258.826 683.463 259.201C682.091 259.576 680.808 260.219 679.688 261.095C678.519 262 677.542 263.129 676.814 264.416C676.086 265.703 675.622 267.121 675.448 268.589C675.41 268.886 675.385 269.192 675.372 269.494L669.631 283.084C666.196 291.212 664.009 299.811 663.142 308.591L658.932 322.037L659.532 322.092L668.453 322.921L670.809 323.142L675.997 315.576C676.588 314.713 677.149 313.825 677.672 312.916C678.533 311.431 679.299 309.893 679.964 308.311L691.186 281.631C692.053 281.78 692.912 281.922 693.763 282.056C697.696 282.693 701.472 283.213 705.091 283.615C716.857 284.928 727.045 285.03 736.115 283.917C738.662 283.607 741.124 283.199 743.501 282.693C744.373 282.511 745.233 282.314 746.082 282.103C746.282 282.056 746.478 282.009 746.673 281.958C748.431 281.506 750.046 280.62 751.372 279.382C752.698 278.144 753.693 276.593 754.264 274.872C754.946 272.878 755.043 270.73 754.544 268.682Z" fill="#2F2E41"/>
<path d="M661.918 336.877L655.654 333.877L654.672 333.406L653.103 337.255L642.149 339.664C641.607 339.782 641.118 340.071 640.752 340.487C640.386 340.903 640.163 341.426 640.116 341.978C640.068 342.53 640.199 343.082 640.488 343.555C640.777 344.027 641.21 344.395 641.724 344.604L652.427 348.967L655.824 345.913L654.991 350.013L659.022 351.657L663.44 337.607L661.918 336.877Z" fill="#2F2E41"/>
<path d="M700.411 330.949L700.811 331.96H700.411V330.949Z" fill="#2F2E41"/>
<path d="M698.229 332.176L691.666 334.448L690.636 334.803L692.232 338.641L686.145 348.053C685.844 348.518 685.699 349.067 685.732 349.62C685.766 350.173 685.975 350.701 686.33 351.126C686.685 351.552 687.167 351.853 687.705 351.986C688.244 352.118 688.81 352.075 689.322 351.863L700 347.439L700.263 342.88L702.558 346.379L706.581 344.714L699.826 331.625L698.229 332.176Z" fill="#2F2E41"/>
<path d="M658.395 191.61C658.706 192.215 659.147 192.746 659.685 193.163C660.223 193.58 660.847 193.874 661.512 194.025C662.176 194.175 662.866 194.179 663.532 194.034C664.197 193.889 664.824 193.601 665.366 193.188L679.167 202.342L679.193 193.741L666.083 186.368C665.33 185.504 664.285 184.946 663.147 184.8C662.009 184.654 660.857 184.931 659.909 185.577C658.961 186.223 658.284 187.194 658.005 188.306C657.726 189.418 657.864 190.593 658.395 191.61Z" fill="#FFB6B6"/>
<path d="M668.705 195.585L675.144 188.266L701.362 203.816L736.116 200.636C737.834 200.479 739.565 200.702 741.187 201.288C742.81 201.875 744.282 202.811 745.502 204.03C746.721 205.25 747.657 206.722 748.242 208.343C748.828 209.965 749.049 211.695 748.89 213.411C748.599 216.51 747.09 219.368 744.693 221.357C742.296 223.346 739.207 224.304 736.104 224.02L696.963 220.4L668.705 195.585Z" fill="#CCCCCC"/>
<path d="M749.369 195.698L749.309 195.622C744.42 195.14 739.496 196.085 735.134 198.343C730.771 200.601 727.159 204.075 724.733 208.344L721.784 213.535C712.243 225.187 719.176 233.223 719.591 234.418L716.28 249.673L717.022 254.778L717.392 256.295L755.193 276.028C757.345 265.698 755.264 256.894 747.424 250.169L755.01 226.587C756.692 221.373 757.057 215.824 756.073 210.434C755.089 205.045 752.786 199.982 749.369 195.698Z" fill="#CCCCCC"/>
<path d="M719.313 310.264H707.188C706.521 310.264 705.876 310.023 705.373 309.586C704.869 309.149 704.541 308.545 704.447 307.885C703.698 302.381 703.698 296.801 704.447 291.297C704.54 290.645 704.862 290.047 705.355 289.611C705.849 289.175 706.482 288.93 707.141 288.918C710.956 287.21 715.064 287.21 719.355 288.918C719.754 288.923 720.148 289.016 720.508 289.189C720.867 289.363 721.185 289.613 721.438 289.922C721.702 290.243 721.89 290.619 721.99 291.023C722.09 291.426 722.099 291.847 722.016 292.254C721.042 297.097 721.042 302.085 722.016 306.927C722.099 307.335 722.09 307.755 721.99 308.159C721.89 308.562 721.702 308.939 721.438 309.26C721.181 309.575 720.856 309.828 720.489 310.002C720.121 310.175 719.719 310.265 719.313 310.264Z" fill="#25929B"/>
<path d="M718.043 295.242H707.838C707.753 295.243 707.67 295.227 707.592 295.195C707.514 295.164 707.443 295.117 707.383 295.058C707.323 294.998 707.276 294.928 707.243 294.85C707.211 294.773 707.194 294.689 707.194 294.605C707.194 294.521 707.211 294.438 707.243 294.36C707.276 294.282 707.323 294.212 707.383 294.153C707.443 294.093 707.514 294.046 707.592 294.015C707.67 293.983 707.753 293.967 707.838 293.968H718.043C718.127 293.967 718.211 293.983 718.289 294.015C718.367 294.046 718.438 294.093 718.498 294.153C718.557 294.212 718.605 294.282 718.637 294.36C718.67 294.438 718.686 294.521 718.686 294.605C718.686 294.689 718.67 294.773 718.637 294.85C718.605 294.928 718.557 294.998 718.498 295.058C718.438 295.117 718.367 295.164 718.289 295.195C718.211 295.227 718.127 295.243 718.043 295.242Z" fill="white"/>
<path d="M718.043 300.34H707.838C707.753 300.341 707.67 300.325 707.592 300.293C707.514 300.262 707.443 300.215 707.383 300.156C707.323 300.096 707.276 300.026 707.243 299.948C707.211 299.871 707.194 299.787 707.194 299.703C707.194 299.619 707.211 299.536 707.243 299.458C707.276 299.38 707.323 299.31 707.383 299.251C707.443 299.191 707.514 299.144 707.592 299.113C707.67 299.081 707.753 299.065 707.838 299.066H718.043C718.127 299.065 718.211 299.081 718.289 299.113C718.367 299.144 718.438 299.191 718.498 299.251C718.557 299.31 718.605 299.38 718.637 299.458C718.67 299.536 718.686 299.619 718.686 299.703C718.686 299.787 718.67 299.871 718.637 299.948C718.605 300.026 718.557 300.096 718.498 300.156C718.438 300.215 718.367 300.262 718.289 300.293C718.211 300.325 718.127 300.341 718.043 300.34Z" fill="white"/>
<path d="M718.043 305.438H707.838C707.753 305.439 707.67 305.423 707.592 305.392C707.514 305.36 707.443 305.313 707.383 305.254C707.323 305.195 707.275 305.124 707.243 305.046C707.21 304.969 707.194 304.885 707.194 304.801C707.194 304.717 707.21 304.634 707.243 304.556C707.275 304.478 707.323 304.408 707.383 304.348C707.443 304.289 707.514 304.242 707.592 304.211C707.67 304.179 707.753 304.163 707.838 304.164H718.043C718.127 304.163 718.211 304.179 718.289 304.211C718.367 304.242 718.438 304.289 718.498 304.348C718.558 304.408 718.605 304.478 718.638 304.556C718.67 304.634 718.687 304.717 718.687 304.801C718.687 304.885 718.67 304.969 718.638 305.046C718.605 305.124 718.558 305.195 718.498 305.254C718.438 305.313 718.367 305.36 718.289 305.392C718.211 305.423 718.127 305.439 718.043 305.438Z" fill="white"/>
<path d="M660.618 195.808H648.493C647.826 195.808 647.182 195.567 646.678 195.13C646.175 194.693 645.846 194.089 645.752 193.429C645.004 187.925 645.004 182.345 645.752 176.841C645.845 176.189 646.167 175.591 646.661 175.156C647.155 174.72 647.788 174.474 648.446 174.462C652.261 172.754 656.37 172.754 660.66 174.462C661.059 174.467 661.453 174.56 661.813 174.733C662.173 174.907 662.49 175.157 662.743 175.466C663.007 175.787 663.196 176.164 663.296 176.567C663.396 176.971 663.404 177.391 663.321 177.798C662.347 182.641 662.347 187.629 663.321 192.472C663.404 192.879 663.396 193.3 663.296 193.703C663.196 194.107 663.007 194.483 662.743 194.804C662.486 195.119 662.162 195.372 661.794 195.546C661.426 195.719 661.025 195.809 660.618 195.808Z" fill="#25929B"/>
<path d="M659.348 180.787H649.143C649.058 180.787 648.975 180.771 648.897 180.74C648.819 180.708 648.748 180.661 648.688 180.602C648.628 180.543 648.581 180.472 648.548 180.395C648.516 180.317 648.499 180.234 648.499 180.149C648.499 180.065 648.516 179.982 648.548 179.904C648.581 179.827 648.628 179.756 648.688 179.697C648.748 179.638 648.819 179.591 648.897 179.559C648.975 179.527 649.058 179.511 649.143 179.512H659.348C659.432 179.511 659.516 179.527 659.594 179.559C659.672 179.591 659.743 179.638 659.803 179.697C659.863 179.756 659.91 179.827 659.943 179.904C659.975 179.982 659.992 180.065 659.992 180.149C659.992 180.234 659.975 180.317 659.943 180.395C659.91 180.472 659.863 180.543 659.803 180.602C659.743 180.661 659.672 180.708 659.594 180.74C659.516 180.771 659.432 180.787 659.348 180.787Z" fill="white"/>
<path d="M659.348 185.885H649.143C649.058 185.885 648.975 185.869 648.897 185.838C648.819 185.806 648.748 185.759 648.688 185.7C648.628 185.641 648.581 185.57 648.548 185.493C648.516 185.415 648.499 185.332 648.499 185.247C648.499 185.163 648.516 185.08 648.548 185.002C648.581 184.925 648.628 184.854 648.688 184.795C648.748 184.736 648.819 184.689 648.897 184.657C648.975 184.625 649.058 184.609 649.143 184.61H659.348C659.432 184.609 659.516 184.625 659.594 184.657C659.672 184.689 659.743 184.736 659.803 184.795C659.863 184.854 659.91 184.925 659.943 185.002C659.975 185.08 659.992 185.163 659.992 185.247C659.992 185.332 659.975 185.415 659.943 185.493C659.91 185.57 659.863 185.641 659.803 185.7C659.743 185.759 659.672 185.806 659.594 185.838C659.516 185.869 659.432 185.885 659.348 185.885Z" fill="white"/>
<path d="M659.348 190.983H649.143C649.058 190.983 648.975 190.968 648.897 190.936C648.819 190.904 648.748 190.857 648.688 190.798C648.628 190.739 648.58 190.668 648.548 190.591C648.516 190.513 648.499 190.43 648.499 190.345C648.499 190.261 648.516 190.178 648.548 190.1C648.58 190.022 648.628 189.952 648.688 189.893C648.748 189.833 648.819 189.787 648.897 189.755C648.975 189.723 649.058 189.707 649.143 189.708H659.348C659.432 189.707 659.516 189.723 659.594 189.755C659.672 189.787 659.743 189.833 659.803 189.893C659.863 189.952 659.91 190.022 659.943 190.1C659.975 190.178 659.992 190.261 659.992 190.345C659.992 190.43 659.975 190.513 659.943 190.591C659.91 190.668 659.863 190.739 659.803 190.798C659.743 190.857 659.672 190.904 659.594 190.936C659.516 190.968 659.432 190.983 659.348 190.983Z" fill="white"/>
<path d="M447.761 226.895H435.636C434.969 226.895 434.325 226.654 433.821 226.217C433.318 225.78 432.989 225.176 432.896 224.516C432.147 219.012 432.147 213.432 432.896 207.927C432.988 207.276 433.31 206.678 433.804 206.242C434.298 205.806 434.931 205.561 435.589 205.549C439.404 203.841 443.513 203.841 447.803 205.549C448.202 205.554 448.596 205.647 448.956 205.82C449.316 205.994 449.633 206.244 449.886 206.553C450.15 206.874 450.339 207.25 450.439 207.654C450.539 208.057 450.547 208.478 450.464 208.885C449.49 213.728 449.49 218.716 450.464 223.558C450.547 223.966 450.539 224.386 450.439 224.79C450.339 225.193 450.15 225.57 449.886 225.891C449.629 226.206 449.305 226.459 448.937 226.633C448.569 226.806 448.168 226.896 447.761 226.895Z" fill="#25929B"/>
<path d="M446.491 211.873H436.286C436.202 211.874 436.118 211.858 436.04 211.827C435.962 211.795 435.891 211.748 435.831 211.689C435.771 211.63 435.724 211.559 435.692 211.481C435.659 211.404 435.642 211.32 435.642 211.236C435.642 211.152 435.659 211.069 435.692 210.991C435.724 210.913 435.771 210.843 435.831 210.784C435.891 210.724 435.962 210.677 436.04 210.646C436.118 210.614 436.202 210.598 436.286 210.599H446.491C446.576 210.598 446.659 210.614 446.737 210.646C446.815 210.677 446.886 210.724 446.946 210.784C447.006 210.843 447.053 210.913 447.086 210.991C447.118 211.069 447.135 211.152 447.135 211.236C447.135 211.32 447.118 211.404 447.086 211.481C447.053 211.559 447.006 211.63 446.946 211.689C446.886 211.748 446.815 211.795 446.737 211.827C446.659 211.858 446.576 211.874 446.491 211.873Z" fill="white"/>
<path d="M446.491 216.971H436.286C436.202 216.972 436.118 216.956 436.04 216.925C435.962 216.893 435.891 216.846 435.831 216.787C435.771 216.727 435.724 216.657 435.692 216.579C435.659 216.502 435.642 216.418 435.642 216.334C435.642 216.25 435.659 216.167 435.692 216.089C435.724 216.011 435.771 215.941 435.831 215.882C435.891 215.822 435.962 215.775 436.04 215.744C436.118 215.712 436.202 215.696 436.286 215.697H446.491C446.576 215.696 446.659 215.712 446.737 215.744C446.815 215.775 446.886 215.822 446.946 215.882C447.006 215.941 447.053 216.011 447.086 216.089C447.118 216.167 447.135 216.25 447.135 216.334C447.135 216.418 447.118 216.502 447.086 216.579C447.053 216.657 447.006 216.727 446.946 216.787C446.886 216.846 446.815 216.893 446.737 216.925C446.659 216.956 446.576 216.972 446.491 216.971Z" fill="white"/>
<path d="M446.491 222.069H436.286C436.202 222.07 436.118 222.054 436.04 222.023C435.962 221.991 435.891 221.944 435.831 221.885C435.771 221.826 435.724 221.755 435.691 221.677C435.659 221.6 435.642 221.516 435.642 221.432C435.642 221.348 435.659 221.265 435.691 221.187C435.724 221.109 435.771 221.039 435.831 220.979C435.891 220.92 435.962 220.873 436.04 220.842C436.118 220.81 436.202 220.794 436.286 220.795H446.491C446.576 220.794 446.659 220.81 446.737 220.842C446.815 220.873 446.886 220.92 446.946 220.979C447.006 221.039 447.054 221.109 447.086 221.187C447.119 221.265 447.135 221.348 447.135 221.432C447.135 221.516 447.119 221.6 447.086 221.677C447.054 221.755 447.006 221.826 446.946 221.885C446.886 221.944 446.815 221.991 446.737 222.023C446.659 222.054 446.576 222.07 446.491 222.069Z" fill="white"/>
<path d="M722.865 294.779C723.452 294.432 723.956 293.962 724.341 293.4C724.726 292.838 724.983 292.199 725.094 291.527C725.205 290.855 725.167 290.168 724.983 289.512C724.799 288.856 724.473 288.249 724.029 287.733L732.356 273.426L723.762 273.91L717.172 287.422C716.353 288.225 715.858 289.3 715.78 290.444C715.702 291.587 716.046 292.72 716.748 293.627C717.45 294.534 718.46 295.152 719.588 295.364C720.715 295.576 721.881 295.368 722.865 294.779Z" fill="#FFB6B6"/>
<path d="M726.225 284.26L718.531 278.273L732.513 251.203L727.274 216.73C727.015 215.026 727.135 213.286 727.624 211.634C728.114 209.981 728.962 208.457 730.108 207.168C731.254 205.88 732.67 204.86 734.255 204.179C735.84 203.499 737.555 203.176 739.28 203.233C742.394 203.339 745.338 204.674 747.468 206.947C749.597 209.219 750.738 212.243 750.638 215.355L749.344 254.606L726.225 284.26Z" fill="#CCCCCC"/>
<path d="M354.332 276.864C354.816 276.378 355.188 275.791 355.421 275.145C355.654 274.499 355.743 273.81 355.68 273.126C355.618 272.443 355.407 271.781 355.061 271.188C354.715 270.595 354.243 270.085 353.678 269.694L361.161 232.559L352.897 235.21L346.908 271.128C346.313 272.12 346.102 273.294 346.317 274.43C346.531 275.566 347.154 276.584 348.07 277.291C348.985 277.998 350.128 278.345 351.282 278.266C352.436 278.188 353.521 277.689 354.332 276.864Z" fill="#9E616A"/>
<path d="M365.381 198.297L360.254 194.43C360.254 194.43 355.731 194.11 354.93 202.259C354.129 210.409 352.484 226.291 352.484 226.291L344.638 262.596L355.499 264.978L363.902 225.798L368.943 214.163L365.381 198.297Z" fill="#CCCCCC"/>
<path d="M356.928 257.58L385.821 257.099L388.229 237.374H356.928V257.58Z" fill="#9E616A"/>
<path d="M382.931 378.962H389.601L392.775 353.259L382.93 353.259L382.931 378.962Z" fill="#9E616A"/>
<path d="M341.145 379.58L347.815 379.532L350.808 353.807L342.133 355.796L341.145 379.58Z" fill="#9E616A"/>
<path d="M362.006 220.387L360.495 224.312L360.797 228.238L390.376 238.474L388.908 221.292L385.583 217.366L362.006 220.387Z" fill="#FFB6B6"/>
<path d="M374.696 185.058C380.53 185.058 385.26 180.332 385.26 174.503C385.26 168.674 380.53 163.948 374.696 163.948C368.861 163.948 364.132 168.674 364.132 174.503C364.132 180.332 368.861 185.058 374.696 185.058Z" fill="#9E616A"/>
<path d="M381.277 375.675L391.821 375.046V379.56L401.845 386.477C402.341 386.818 402.713 387.309 402.91 387.877C403.106 388.446 403.115 389.062 402.936 389.636C402.757 390.209 402.399 390.711 401.914 391.067C401.43 391.424 400.844 391.616 400.242 391.616H387.689L385.525 387.151L384.68 391.616H379.948L381.277 375.675Z" fill="#2F2E41"/>
<path d="M338.863 376.308L349.403 375.605L349.434 380.119L359.507 386.965C360.004 387.303 360.381 387.791 360.581 388.358C360.781 388.925 360.795 389.541 360.62 390.117C360.445 390.692 360.09 391.196 359.608 391.555C359.126 391.915 358.541 392.111 357.939 392.115L345.387 392.203L343.192 387.754L342.378 392.224L337.646 392.257L338.863 376.308Z" fill="#2F2E41"/>
<path d="M339.069 359.872L343.926 321.086L349.705 280.192C345.473 272.34 355.002 247.958 355.002 247.958L356.347 248.023L386.79 253.761L386.784 253.731C393.011 270.699 395.073 279.081 394.732 297.15L393.506 362.104H393.89C394.529 362.104 395.141 362.357 395.593 362.808C396.044 363.259 396.298 363.871 396.298 364.509C396.298 365.147 396.044 365.759 395.593 366.21C395.141 366.661 394.529 366.915 393.89 366.915H381.852C381.535 366.915 381.222 366.853 380.929 366.733C380.637 366.612 380.371 366.435 380.147 366.212C379.923 365.988 379.745 365.723 379.624 365.431C379.502 365.139 379.44 364.825 379.44 364.509C379.44 364.193 379.502 363.88 379.624 363.588C379.745 363.296 379.923 363.03 380.147 362.807C380.371 362.583 380.637 362.406 380.929 362.286C381.222 362.165 381.535 362.103 381.852 362.104H382.162L371.112 284.763L361.744 317.237L351.15 359.574C355.002 358.612 354.404 360.841 354.404 362.104C354.404 362.742 354.15 363.354 353.699 363.805C353.247 364.256 352.635 364.509 351.996 364.509H339.957C339.397 364.51 338.855 364.315 338.423 363.959C337.991 363.603 337.698 363.107 337.593 362.558C337.487 362.008 337.577 361.439 337.847 360.949C338.117 360.459 338.549 360.078 339.069 359.872Z" fill="#2F2E41"/>
<path d="M352.632 249.221L353.595 239.599C353.695 239.206 353.916 238.856 354.228 238.597C354.54 238.338 354.926 238.184 355.331 238.158C355.732 233.575 357.42 213.801 357.521 212.938L357.525 212.902L358.293 196.516C358.321 195.921 358.567 195.357 358.985 194.932C359.402 194.507 359.962 194.251 360.557 194.212L364.612 193.947C364.668 193.945 364.721 193.922 364.759 193.882C364.798 193.842 364.82 193.788 364.82 193.733C364.82 193.285 364.908 192.842 365.079 192.429C365.251 192.016 365.502 191.64 365.818 191.324C366.135 191.007 366.511 190.756 366.925 190.585C367.338 190.414 367.782 190.326 368.23 190.326H380.235C381.013 190.326 381.763 190.61 382.346 191.124C382.929 191.638 383.305 192.347 383.402 193.118C383.407 193.171 383.432 193.22 383.472 193.256C383.512 193.291 383.564 193.31 383.617 193.309H383.619C384.983 193.281 386.312 193.742 387.365 194.609C388.417 195.476 389.124 196.692 389.356 198.035C390.998 207.576 394.287 229.23 392.661 241.268C392.095 245.459 393.315 242.14 393.529 245.646C393.55 245.985 393.505 246.325 393.394 246.646C393.284 246.967 393.111 247.263 392.886 247.517C393.347 247.685 393.723 248.027 393.933 248.47C394.143 248.913 394.17 249.42 394.007 249.883L394.218 249.83C394.156 250.075 394.047 250.306 393.896 250.509C393.745 250.711 393.555 250.882 393.338 251.012C393.121 251.142 392.88 251.227 392.63 251.264C392.38 251.301 392.125 251.288 391.88 251.226L360.47 255.478C359.439 255.218 352.371 250.252 352.632 249.221Z" fill="#CCCCCC"/>
<path d="M436.561 210.1C436.364 210.758 436.026 211.364 435.569 211.877C435.112 212.39 434.548 212.796 433.917 213.068C433.286 213.339 432.603 213.469 431.916 213.449C431.23 213.428 430.556 213.257 429.942 212.948L417.799 224.019L416.187 215.499L427.973 206.319C428.561 205.324 429.494 204.578 430.595 204.224C431.696 203.87 432.889 203.932 433.948 204.398C435.006 204.864 435.857 205.702 436.339 206.753C436.82 207.804 436.9 208.995 436.561 210.1Z" fill="#9E616A"/>
<path d="M394.298 201.637C394.298 201.637 390.064 192.078 384.716 193.978C379.369 195.878 382.13 205.153 382.13 205.153L402.221 235.4C402.221 235.4 431.2 216.828 427.676 216.697C424.152 216.565 423.098 210.162 423.098 210.162L407.782 217.808L407.264 215.086L406.433 215.916L404.29 214.23L394.298 201.637Z" fill="#CCCCCC"/>
<path d="M740.655 191.136C748.8 191.136 755.404 184.538 755.404 176.4C755.404 168.262 748.8 161.664 740.655 161.664C732.509 161.664 725.905 168.262 725.905 176.4C725.905 184.538 732.509 191.136 740.655 191.136Z" fill="#FFB6B6"/>
<path d="M787.99 198.083C786.288 200.493 783.804 202.24 780.959 203.029C779.82 203.367 778.645 203.567 777.458 203.623C777.312 202.282 776.961 200.972 776.418 199.738C776.473 201.052 776.29 202.365 775.878 203.614C774.096 203.513 772.355 203.047 770.761 202.244C769.196 201.457 767.836 200.317 766.788 198.914C765.741 197.51 765.036 195.882 764.728 194.159C764.103 190.128 765.932 186.171 766.593 182.146C767.258 178.122 766.011 173.024 762.068 171.967C759.065 171.161 759.402 171.509 756.905 173.361C759.502 177.197 749.911 191.254 745.986 190.028C743.767 189.335 742.346 187.301 741.888 187.301C738.803 192.61 744.612 201.556 738.757 203.414L739.24 202.932C742.773 198.589 735.388 189.398 738.921 185.055C739.907 183.84 740.957 182.401 740.665 180.864C740.389 179.404 738.069 178.631 737.39 179.831C738.612 177.034 736.807 173.3 733.819 172.582C731.165 171.943 731.214 172.73 728.551 173.073C728.377 171.923 728.051 170.801 727.583 169.736C727.632 170.884 727.498 172.031 727.186 173.137C726.245 173.118 725.336 172.79 724.601 172.203C722.43 170.455 722.869 166.782 724.808 164.779C726.749 162.775 729.634 162.054 732.385 161.587C733.184 156.023 748.55 155.443 750.587 161.003C751.455 156.851 756.657 154.696 760.7 155.984C764.743 157.272 767.549 161.045 769.026 165.021C770.503 168.994 770.916 173.27 771.826 177.409C772.736 181.549 774.274 185.764 777.44 188.586C780.607 191.404 785.767 192.337 789.103 189.719C789.588 191.103 789.74 192.581 789.547 194.034C789.353 195.487 788.82 196.874 787.99 198.083Z" fill="#2F2E41"/>
<path d="M926.365 231.71L924.3 242.061C924.145 242.852 923.982 243.658 923.805 244.456C922.079 244.099 920.29 244.198 918.615 244.746C919.944 246.643 921.135 248.634 922.179 250.702C920.877 254.708 918.968 258.41 915.772 261.087C913.637 262.836 911.087 264.005 908.368 264.483C905.649 264.961 902.853 264.731 900.249 263.815L900.341 263.405C896.905 256.742 898.771 248.342 903.043 242.188C905.221 239.152 907.802 236.426 910.716 234.084C913.601 231.682 916.719 229.527 919.81 227.401C920.504 226.924 921.324 226.664 922.167 226.656C923.009 226.647 923.835 226.89 924.538 227.352C925.242 227.815 925.792 228.477 926.117 229.253C926.442 230.029 926.529 230.885 926.365 231.71Z" fill="#E4E4E4"/>
<path d="M900.985 288.719C900.116 282.394 899.222 275.988 899.831 269.594C900.373 263.917 902.106 258.371 905.636 253.824C907.51 251.415 909.79 249.351 912.374 247.725C913.048 247.301 913.667 248.367 912.997 248.79C908.526 251.612 905.069 255.78 903.122 260.692C900.973 266.155 900.628 272.11 901.001 277.913C901.225 281.422 901.7 284.907 902.178 288.391C902.217 288.548 902.194 288.715 902.114 288.856C902.033 288.997 901.902 289.102 901.747 289.149C901.589 289.192 901.421 289.171 901.279 289.09C901.136 289.009 901.032 288.876 900.988 288.718L900.985 288.719Z" fill="#F2F2F2"/>
<path d="M950.158 392.783L289.842 393C289.619 392.999 289.406 392.91 289.248 392.753C289.091 392.595 289.002 392.381 289.002 392.159C289.002 391.936 289.091 391.722 289.248 391.565C289.406 391.407 289.619 391.318 289.842 391.318L950.158 391.1C950.381 391.101 950.594 391.19 950.752 391.348C950.909 391.505 950.998 391.719 950.998 391.942C950.998 392.164 950.909 392.378 950.752 392.536C950.594 392.693 950.381 392.782 950.158 392.783Z" fill="#CACACA"/>
<path d="M362.262 168.041C360.642 168.817 358.828 167.649 357.43 166.491L357.93 166.922C355.458 169.325 354.302 172.783 353.737 176.186C353.172 179.586 353.109 183.063 352.397 186.439C351.684 189.811 350.207 193.199 347.447 195.265C343.749 198.031 338.649 197.853 334.111 197.005C334.05 196.993 333.994 196.984 333.934 196.972C335.155 193.449 335.651 189.717 335.393 185.999C334.177 189.725 332.106 193.116 329.346 195.901C326.337 195.074 323.4 194.005 320.564 192.704C318.729 191.861 316.753 190.707 316.244 188.753C315.734 186.814 316.919 184.78 318.505 183.556C320.09 182.332 322.036 181.693 323.842 180.821C325.645 179.953 327.429 178.715 328.151 176.846C329.816 172.548 325.073 167.616 326.921 163.39C327.833 161.312 330.066 160.182 332.165 159.311C335.369 157.984 338.659 156.875 342.013 155.992C344.957 155.216 348.031 154.613 351.03 155.122C354.029 155.631 356.967 157.453 358.047 160.299C359.848 160.907 361.76 161.592 362.916 163.107C364.071 164.618 363.978 167.219 362.262 168.041Z" fill="#2F2E41"/>
<path d="M376.679 163.06C372.044 159.404 368.296 160.028 365.405 162.299C364.919 161.759 362.851 163.245 362.15 163.031L359.617 167.782C358.314 170.08 357.779 172.426 357.99 173.746C355.592 180.464 361.278 185 368.002 187.395C370.684 188.357 373.612 188.4 376.321 187.515L376.404 186.371L376.913 187.309C376.913 187.309 383.06 199.954 384.512 200.522C383.631 198.237 381.307 187.381 380.658 185.118C379.768 182.04 380.376 177.148 380.899 174.149C381.225 172.3 381.242 170.41 380.949 168.555L380.936 168.474L382.374 171.375L385.601 169.348C384.368 165.759 384.343 161.466 376.679 163.06Z" fill="#2F2E41"/>
</g>
<defs>
<clipPath id="clip0_7_580">
<rect width="662" height="357" fill="white" transform="translate(289 36)"/>
</clipPath>
</defs>
</svg>
