<svg width="1239" height="430" viewBox="0 0 1239 430" fill="none" xmlns="http://www.w3.org/2000/svg">
<rect width="1239" height="430" fill="white"/>
<g clip-path="url(#clip0_7_666)">
<path d="M743.586 24.2202H354.166V273.345H743.586V24.2202Z" fill="#E6E6E6"/>
<path d="M732.451 55.4666H365.302V258.607H732.451V55.4666Z" fill="white"/>
<path d="M743.42 24H354V40.5255H743.42V24Z" fill="#25929B"/>
<path d="M366.295 35.5124C367.988 35.5124 369.361 34.1409 369.361 32.4492C369.361 30.7575 367.988 29.386 366.295 29.386C364.601 29.386 363.228 30.7575 363.228 32.4492C363.228 34.1409 364.601 35.5124 366.295 35.5124Z" fill="white"/>
<path d="M377.933 35.5124C379.627 35.5124 381 34.1409 381 32.4492C381 30.7575 379.627 29.386 377.933 29.386C376.24 29.386 374.867 30.7575 374.867 32.4492C374.867 34.1409 376.24 35.5124 377.933 35.5124Z" fill="white"/>
<path d="M389.572 35.5124C391.266 35.5124 392.638 34.1409 392.638 32.4492C392.638 30.7575 391.266 29.386 389.572 29.386C387.878 29.386 386.505 30.7575 386.505 32.4492C386.505 34.1409 387.878 35.5124 389.572 35.5124Z" fill="white"/>
<path d="M482.284 72.1755H410.475V149.996H482.284V72.1755Z" fill="#E6E6E6"/>
<path d="M584.78 72.1755H512.971V149.996H584.78V72.1755Z" fill="#E6E6E6"/>
<path d="M687.276 72.1755H615.467V149.996H687.276V72.1755Z" fill="#E6E6E6"/>
<path d="M482.284 164.081H410.475V241.901H482.284V164.081Z" fill="#E6E6E6"/>
<path d="M584.78 164.081H512.971V241.901H584.78V164.081Z" fill="#E6E6E6"/>
<path d="M687.276 164.081H615.467V241.901H687.276V164.081Z" fill="#E6E6E6"/>
<path d="M530.327 184.081L543.448 178.9L544.973 204.807C544.973 204.807 547.719 212.731 546.804 215.779C546.804 215.779 547.414 220.96 545.888 221.265C544.363 221.57 540.09 222.18 539.788 221.874C539.486 221.569 539.483 220.655 539.483 220.655C539.483 220.655 536.431 222.789 536.126 225.227C536.126 225.227 523.311 229.189 523.006 225.531C522.701 221.874 529.414 218.826 529.414 218.826L534.601 210.902L530.327 184.081Z" fill="white"/>
<path d="M558.095 184.081L571.213 178.9L572.739 204.807C572.739 204.807 575.485 212.731 574.57 215.779C574.57 215.779 575.18 220.96 573.654 221.265C572.128 221.57 567.856 222.18 567.554 221.874C567.252 221.569 567.249 220.655 567.249 220.655C567.249 220.655 564.197 222.789 563.892 225.227C563.892 225.227 551.077 229.189 550.772 225.531C550.467 221.874 557.179 218.826 557.179 218.826L562.366 210.902L558.095 184.081Z" fill="white"/>
<path d="M559.377 84.0384C559.377 84.0384 556.583 91.8359 559.82 95.3522L557.121 104.615C557.121 104.615 566.709 133.348 563.97 137.361C563.97 137.361 553.743 142.469 533.286 135.536L541.596 103.338L540.409 89.7472L542.052 83.362L545.705 83C545.705 83 543.513 91.2091 547.531 92.4863C551.549 93.7636 555.469 83.2051 555.469 83.2051L559.377 84.0384Z" fill="#3F3D56"/>
<path d="M430.359 134.373L433.885 135.814L450.712 113.724L456 139.655L459.525 139.015C461.787 116.659 463.633 93.8553 461.368 83.07L448.308 82.5095L442.379 101.401L439.494 114.207L430.359 134.373Z" fill="white"/>
<path d="M644.334 82.8932C644.334 82.8932 639.523 89.5746 639.758 92.271C639.993 94.9673 643.043 138.925 643.043 138.925L650.202 139.277L648.088 107.627L649.848 99.07L654.19 138.925L662.992 139.16L655.13 87.4654L653.604 82.8939L644.334 82.8932Z" fill="white"/>
<path d="M671.528 190.533C670.25 189.001 668.054 188.174 665.946 187.726C666.006 187.535 659.532 186.198 659.422 186.473L656.982 184.531L649.482 188.421L645.267 185.555L643.31 186.249C643.39 185.904 637.233 186.969 637.233 186.969C636.057 187.012 634.555 187.085 632.873 187.214C626.985 187.667 626.531 202.901 626.531 202.901C629.24 201.794 632.129 201.19 635.055 201.118L636.647 219.339C644.833 218.638 653.418 219.454 662.317 221.451L666.49 207.128L676.208 203.353C676.208 203.353 674.548 194.152 671.528 190.533Z" fill="#3F3D56"/>
<path d="M462.988 181.856C461.935 180.595 460.126 179.912 458.389 179.544C458.44 179.385 453.104 178.285 453.013 178.512L451.001 176.912L444.823 180.117L441.351 177.756L439.738 178.328C439.804 178.044 434.731 178.921 434.731 178.921C433.764 178.956 432.524 179.016 431.139 179.123C426.287 179.496 425.913 192.047 425.913 192.047C428.146 191.135 430.526 190.637 432.937 190.578L434.249 227.33C440.994 226.752 448.068 227.425 455.398 229.07L458.836 195.53L466.843 192.42C466.843 192.42 465.476 184.84 462.988 181.856Z" fill="white"/>
<path d="M806.675 191.639H841.104V173.237C841.104 168.676 839.29 164.303 836.062 161.078C832.833 157.853 828.455 156.042 823.889 156.042C819.324 156.042 814.945 157.853 811.717 161.078C808.489 164.303 806.675 168.676 806.675 173.237V191.639Z" fill="#2F2E41"/>
<path d="M791.306 396.378H783.901L780.378 367.845H791.307L791.306 396.378Z" fill="#FFB6B6"/>
<path d="M793.195 393.963H778.611C776.146 393.964 773.783 394.942 772.04 396.682C770.297 398.423 769.318 400.784 769.318 403.246V403.547H793.195V393.963Z" fill="#2F2E41"/>
<path d="M879.826 386.507L873.378 390.144L856.267 367.029L865.785 361.662L879.826 386.507Z" fill="#FFB6B6"/>
<path d="M880.282 383.477L867.583 390.636C865.437 391.846 863.86 393.859 863.199 396.231C862.538 398.603 862.847 401.14 864.059 403.284L864.208 403.546L885 391.821L880.282 383.477Z" fill="#2F2E41"/>
<path d="M832.499 268.066L833.071 270.919C833.071 270.919 834.785 272.632 833.928 273.488C833.071 274.344 833.357 278.34 833.357 278.34C833.836 285.626 843.367 326.568 845.071 334.565C845.071 334.565 858.215 343.127 868.5 359.965C878.786 376.804 879.07 381.085 879.07 381.085L867.644 385.938L839.074 351.404C839.074 351.404 831.074 346.552 828.216 342.271C825.359 337.99 807.641 293.752 807.641 293.752L797.639 339.987C797.639 339.987 798.21 356.826 795.639 367.672C794.058 374.516 793.102 381.489 792.782 388.506L779.353 387.079C779.353 387.079 780.21 346.552 781.639 342.27C781.639 342.27 775.639 292.895 787.639 273.202L797.31 247.448L806.783 243.806L832.499 268.066Z" fill="#2F2E41"/>
<path d="M824.067 160.54C806.039 160.848 806.042 187.634 824.067 187.939C842.094 187.631 842.091 160.845 824.067 160.54Z" fill="#FFB8B8"/>
<path d="M810.192 173.529H813.256L814.09 171.445L813.673 173.529H830.431L829.888 169.168L833.961 173.529H838.024V171.166C838.026 169.341 837.667 167.533 836.969 165.846C836.271 164.159 835.247 162.626 833.956 161.335C832.664 160.043 831.131 159.018 829.443 158.318C827.756 157.619 825.946 157.258 824.119 157.257C822.292 157.255 820.482 157.613 818.793 158.311C817.104 159.008 815.57 160.031 814.277 161.321C812.984 162.611 811.957 164.142 811.257 165.828C810.556 167.514 810.195 169.321 810.194 171.146V171.166L810.192 173.529Z" fill="#2F2E41"/>
<path d="M805.477 195.938L839.543 196.214L832.345 269.168C832.345 269.168 792.506 267.068 792.481 254.921L796.213 244.126L805.477 195.938Z" fill="#3F3D56"/>
<path d="M841.007 276.22C840.483 275.58 840.107 274.832 839.903 274.03C839.7 273.229 839.676 272.392 839.831 271.58C839.987 270.767 840.318 269.999 840.803 269.329C841.288 268.658 841.914 268.102 842.638 267.7L841.157 254.857L848.752 252.054L850.587 270.221C851.18 271.479 851.29 272.911 850.898 274.245C850.506 275.579 849.638 276.724 848.459 277.462C847.279 278.201 845.87 278.482 844.497 278.253C843.124 278.025 841.882 277.301 841.007 276.22Z" fill="#FFB6B6"/>
<path d="M835.064 202.499L839.546 196.24C839.546 196.24 842.614 195.56 846.238 199.784C849.862 204.007 851.976 256.799 851.976 256.799L838.688 259.816L830.835 222.409L835.064 202.499Z" fill="#3F3D56"/>
<path d="M759.976 259.749L760.964 306.65L791.361 322.696L846.717 312.822L848.077 264.068L812.985 251.725L759.976 259.749Z" fill="white"/>
<path d="M791.282 323.203L760.485 306.946L759.481 259.333L813.032 251.228L813.146 251.268L848.572 263.728L847.192 313.23L791.282 323.203ZM761.443 306.355L791.44 322.189L846.243 312.414L847.582 264.408L812.938 252.223L760.47 260.164L761.443 306.355Z" fill="#CACACA"/>
<path d="M790.683 272.465L790.564 272.418L759.797 260.199L760.155 259.298L790.803 271.47L848.01 263.588L848.143 264.549L790.683 272.465Z" fill="#CACACA"/>
<path d="M791.229 271.962L790.258 271.973L790.876 322.702L791.846 322.69L791.229 271.962Z" fill="#CACACA"/>
<path d="M786.795 270.037L775.704 265.546L829.095 257.048L840.186 261.539L786.795 270.037Z" fill="#CACACA"/>
<path d="M760.168 273.354L759.784 274.245L772.647 279.777L773.031 278.886L760.168 273.354Z" fill="#CACACA"/>
<path d="M765.993 289.355L765.609 290.245L778.472 295.778L778.856 294.887L765.993 289.355Z" fill="#25929B"/>
<path d="M590.853 324.909L591.841 371.811L622.238 387.857L677.594 377.983L678.954 329.229L643.862 316.886L590.853 324.909Z" fill="white"/>
<path d="M622.159 388.363L591.362 372.107L590.359 324.493L643.909 316.389L644.023 316.429L679.449 328.889L678.069 378.39L622.159 388.363ZM592.321 371.516L622.317 387.35L677.121 377.575L678.459 329.569L643.815 317.384L591.347 325.325L592.321 371.516Z" fill="#CACACA"/>
<path d="M621.56 337.626L621.441 337.579L590.674 325.359L591.032 324.459L621.681 336.63L678.888 328.749L679.021 329.709L621.56 337.626Z" fill="#CACACA"/>
<path d="M622.106 337.122L621.135 337.134L621.753 387.863L622.724 387.851L622.106 337.122Z" fill="#CACACA"/>
<path d="M614.985 334.094L606.581 330.707L659.973 322.209L668.376 325.596L614.985 334.094Z" fill="#CACACA"/>
<path d="M591.045 338.515L590.661 339.406L603.524 344.938L603.908 344.047L591.045 338.515Z" fill="#CACACA"/>
<path d="M596.87 354.515L596.486 355.406L609.349 360.938L609.733 360.048L596.87 354.515Z" fill="#25929B"/>
<path d="M643.661 331.34L644.808 385.786L680.094 404.412L744.354 392.95L745.932 336.355L705.195 322.026L643.661 331.34Z" fill="#25929B"/>
<path d="M680.002 405L644.252 386.128L643.087 330.857L705.25 321.449L705.382 321.496L746.506 335.96L744.904 393.423L680.002 405ZM645.364 385.443L680.186 403.824L743.803 392.476L745.357 336.749L705.141 322.604L644.234 331.822L645.364 385.443Z" fill="#3F3D56"/>
<path d="M679.306 346.102L679.169 346.047L643.452 331.863L643.868 330.817L679.446 344.946L745.854 335.797L746.008 336.912L679.306 346.102Z" fill="#3F3D56"/>
<path d="M679.94 345.517L678.813 345.531L679.53 404.419L680.657 404.405L679.94 345.517Z" fill="#3F3D56"/>
<path d="M672.245 342.028L661.918 338.071L723.897 328.205L734.225 332.163L672.245 342.028Z" fill="#3F3D56"/>
<path d="M643.883 347.134L643.438 348.168L658.37 354.59L658.816 353.556L643.883 347.134Z" fill="#3F3D56"/>
<path d="M650.645 365.708L650.199 366.742L665.132 373.164L665.577 372.13L650.645 365.708Z" fill="white"/>
<path d="M777.21 267.504C777.96 267.152 778.623 266.641 779.153 266.006C779.683 265.371 780.068 264.627 780.279 263.828C780.491 263.028 780.524 262.192 780.377 261.378C780.23 260.565 779.907 259.793 779.429 259.117L786.328 248.179L780.696 242.37L771.17 257.954C770.088 258.831 769.365 260.074 769.14 261.448C768.914 262.822 769.2 264.231 769.944 265.408C770.689 266.585 771.84 267.449 773.179 267.835C774.518 268.221 775.952 268.104 777.21 267.504V267.504Z" fill="#FFB6B6"/>
<path d="M810.712 198.814L805.769 195.56C805.769 195.56 801.955 196.415 797.898 204.209C793.842 212.003 777.483 246.848 777.483 246.848L784.207 253.666L802.146 226.329L810.712 198.814Z" fill="#3F3D56"/>
</g>
<defs>
<clipPath id="clip0_7_666">
<rect width="531" height="381" fill="white" transform="translate(354 24)"/>
</clipPath>
</defs>
</svg>
