<svg width="1239" height="430" viewBox="0 0 1239 430" fill="none" xmlns="http://www.w3.org/2000/svg">
<rect width="1239" height="430" fill="white"/>
<g clip-path="url(#clip0_10_940)">
<path d="M562.346 278.718C561.3 278.718 560.261 278.562 559.261 278.257L344.497 212.793C341.813 211.972 339.566 210.121 338.247 207.647C336.928 205.172 336.646 202.277 337.462 199.595L391.586 22.4874C392.408 19.8074 394.261 17.5625 396.738 16.2454C399.216 14.9283 402.115 14.6465 404.8 15.4618L619.565 80.9255C622.248 81.7467 624.496 83.5975 625.815 86.0718C627.134 88.546 627.416 91.4417 626.6 94.1235L572.476 271.231C571.811 273.397 570.469 275.293 568.645 276.641C566.822 277.988 564.614 278.716 562.346 278.718Z" fill="#25929B"/>
<path d="M594.328 250.331H369.784C366.892 250.327 364.12 249.179 362.075 247.137C360.031 245.095 358.88 242.326 358.877 239.438V54.2651C358.88 51.3772 360.031 48.6085 362.075 46.5665C364.12 44.5244 366.892 43.3758 369.784 43.3726H594.328C597.22 43.3758 599.992 44.5245 602.037 46.5665C604.081 48.6085 605.232 51.3772 605.235 54.2651V239.438C605.232 242.326 604.081 245.095 602.037 247.137C599.992 249.179 597.22 250.327 594.328 250.331ZM369.784 44.654C367.232 44.6569 364.786 45.6704 362.982 47.4722C361.178 49.274 360.163 51.717 360.16 54.2651V239.438C360.163 241.986 361.178 244.429 362.982 246.231C364.786 248.033 367.232 249.046 369.784 249.049H594.328C596.88 249.046 599.326 248.033 601.13 246.231C602.934 244.429 603.949 241.986 603.952 239.438V54.2651C603.949 51.717 602.934 49.274 601.13 47.4722C599.326 45.6704 596.88 44.6569 594.328 44.654H369.784Z" fill="#3F3D56"/>
<path d="M482.056 228.546C481.886 228.546 481.723 228.478 481.602 228.358C481.482 228.238 481.415 228.075 481.415 227.905V102.961C481.415 102.791 481.482 102.628 481.602 102.508C481.723 102.388 481.886 102.32 482.056 102.32C482.226 102.32 482.389 102.388 482.51 102.508C482.63 102.628 482.698 102.791 482.698 102.961V227.905C482.698 228.075 482.63 228.238 482.51 228.358C482.389 228.478 482.226 228.546 482.056 228.546Z" fill="white"/>
<path d="M482.057 198.628C481.911 198.628 481.77 198.579 481.657 198.488C481.543 198.398 481.463 198.272 481.431 198.13C481.398 197.989 481.415 197.841 481.478 197.71C481.54 197.579 481.646 197.474 481.777 197.41L549.781 164.536C549.857 164.499 549.94 164.477 550.024 164.472C550.108 164.467 550.193 164.479 550.272 164.506C550.352 164.534 550.426 164.577 550.489 164.633C550.552 164.689 550.603 164.757 550.64 164.833C550.677 164.908 550.698 164.991 550.703 165.075C550.708 165.159 550.696 165.243 550.668 165.323C550.64 165.402 550.597 165.476 550.541 165.539C550.485 165.602 550.417 165.653 550.341 165.689L482.336 198.564C482.249 198.606 482.153 198.628 482.057 198.628Z" fill="white"/>
<path d="M482.057 165.753C481.914 165.753 481.775 165.706 481.662 165.618C481.549 165.53 481.469 165.407 481.434 165.269C481.399 165.13 481.412 164.984 481.469 164.853C481.527 164.723 481.627 164.615 481.753 164.548L527.304 140.2C527.454 140.12 527.629 140.103 527.792 140.152C527.954 140.202 528.09 140.314 528.171 140.463C528.251 140.613 528.268 140.788 528.219 140.95C528.17 141.113 528.059 141.249 527.909 141.33L482.359 165.678C482.266 165.727 482.162 165.753 482.057 165.753Z" fill="white"/>
<path d="M482.057 129.246C481.914 129.246 481.776 129.199 481.663 129.112C481.55 129.025 481.47 128.903 481.435 128.765C481.399 128.627 481.411 128.481 481.467 128.351C481.524 128.22 481.623 128.112 481.748 128.044L508.693 113.292C508.842 113.21 509.018 113.191 509.181 113.238C509.344 113.286 509.482 113.397 509.564 113.546C509.646 113.695 509.665 113.87 509.617 114.033C509.57 114.196 509.459 114.334 509.31 114.416L482.364 129.167C482.27 129.219 482.164 129.246 482.057 129.246Z" fill="white"/>
<path d="M482.056 198.628C481.959 198.628 481.863 198.606 481.777 198.564L413.772 165.689C413.696 165.653 413.628 165.601 413.572 165.538C413.516 165.476 413.473 165.402 413.445 165.323C413.418 165.243 413.406 165.159 413.411 165.075C413.416 164.991 413.437 164.909 413.474 164.833C413.51 164.758 413.562 164.69 413.625 164.634C413.688 164.578 413.761 164.535 413.841 164.508C413.92 164.48 414.004 164.468 414.088 164.473C414.172 164.478 414.255 164.499 414.331 164.536L482.336 197.41C482.466 197.474 482.572 197.579 482.635 197.71C482.697 197.841 482.714 197.989 482.681 198.13C482.649 198.272 482.569 198.398 482.456 198.488C482.342 198.579 482.201 198.628 482.056 198.628Z" fill="white"/>
<path d="M482.056 165.753C481.95 165.753 481.846 165.727 481.753 165.678L436.203 141.33C436.053 141.249 435.942 141.113 435.893 140.95C435.844 140.788 435.862 140.613 435.942 140.463C436.022 140.314 436.158 140.202 436.32 140.152C436.483 140.103 436.658 140.12 436.808 140.2L482.359 164.548C482.485 164.615 482.585 164.723 482.643 164.853C482.701 164.984 482.713 165.13 482.678 165.269C482.643 165.407 482.563 165.53 482.45 165.618C482.338 165.706 482.199 165.753 482.056 165.753Z" fill="white"/>
<path d="M482.055 129.246C481.948 129.246 481.842 129.219 481.748 129.168L454.802 114.416C454.653 114.334 454.542 114.196 454.495 114.033C454.447 113.87 454.466 113.695 454.548 113.546C454.63 113.397 454.767 113.286 454.931 113.239C455.094 113.191 455.27 113.21 455.419 113.292L482.364 128.044C482.489 128.112 482.588 128.22 482.644 128.351C482.701 128.481 482.713 128.627 482.677 128.765C482.642 128.903 482.562 129.025 482.449 129.112C482.336 129.199 482.198 129.246 482.055 129.246Z" fill="white"/>
<path d="M492.963 250.01H471.15C470.044 250.009 468.984 249.57 468.202 248.789C467.421 248.008 466.981 246.95 466.979 245.845V231.749C466.981 230.645 467.421 229.586 468.202 228.806C468.984 228.025 470.044 227.586 471.15 227.584H492.963C494.068 227.586 495.128 228.025 495.91 228.806C496.692 229.586 497.131 230.645 497.133 231.749V245.845C497.131 246.95 496.692 248.008 495.91 248.789C495.128 249.57 494.068 250.009 492.963 250.01Z" fill="#3F3D56"/>
<path d="M359.832 90.9251C365.017 90.9251 369.22 86.7275 369.22 81.5494C369.22 76.3713 365.017 72.1736 359.832 72.1736C354.647 72.1736 350.444 76.3713 350.444 81.5494C350.444 86.7275 354.647 90.9251 359.832 90.9251Z" fill="#FF6584"/>
<path d="M614.237 47.1744C614.237 47.5338 614.226 47.888 614.195 48.2369C614.037 50.4 613.398 52.5007 612.325 54.3859C611.251 56.2712 609.77 57.8935 607.989 59.1348C606.208 60.3761 604.173 61.205 602.031 61.5613C599.889 61.9175 597.694 61.7921 595.606 61.1941C593.519 60.5962 591.591 59.5407 589.964 58.1047C588.337 56.6686 587.05 54.8881 586.199 52.8929C585.348 50.8976 584.953 48.7378 585.043 46.5709C585.133 44.4039 585.706 42.2843 586.72 40.3665C587.034 39.7655 587.393 39.1891 587.795 38.6424C589.541 36.2233 591.988 34.3973 594.806 33.4107C597.624 32.4241 600.677 32.3244 603.554 33.1249C606.43 33.9254 608.992 35.5877 610.893 37.8876C612.794 40.1875 613.943 43.0143 614.185 45.9867C614.221 46.3774 614.237 46.7732 614.237 47.1744Z" fill="#3F3D56"/>
<path d="M560.164 258.803C565.349 258.803 569.552 254.606 569.552 249.427C569.552 244.249 565.349 240.052 560.164 240.052C554.979 240.052 550.776 244.249 550.776 249.427C550.776 254.606 554.979 258.803 560.164 258.803Z" fill="#E6E6E6"/>
<path d="M488.31 53.1267C493.495 53.1267 497.698 48.9291 497.698 43.751C497.698 38.5729 493.495 34.3752 488.31 34.3752C483.125 34.3752 478.922 38.5729 478.922 43.751C478.922 48.9291 483.125 53.1267 488.31 53.1267Z" fill="#E6E6E6"/>
<path d="M858.008 414.359C857.838 414.359 857.675 414.292 857.554 414.172C857.434 414.051 857.366 413.888 857.366 413.718V402.185C857.366 402.015 857.434 401.852 857.554 401.732C857.675 401.612 857.838 401.544 858.008 401.544C858.178 401.544 858.341 401.612 858.462 401.732C858.582 401.852 858.65 402.015 858.65 402.185V413.718C858.65 413.888 858.582 414.051 858.462 414.172C858.341 414.292 858.178 414.359 858.008 414.359Z" fill="#E6E6E6"/>
<path d="M858.008 398.982C859.78 398.982 861.216 397.547 861.216 395.778C861.216 394.009 859.78 392.574 858.008 392.574C856.236 392.574 854.8 394.009 854.8 395.778C854.8 397.547 856.236 398.982 858.008 398.982Z" fill="#E6E6E6"/>
<path d="M857.366 409.233C857.366 409.233 861.376 402.025 866.99 404.428Z" fill="#E6E6E6"/>
<path d="M684.788 414.359C684.618 414.359 684.454 414.292 684.334 414.172C684.214 414.051 684.146 413.888 684.146 413.718V402.185C684.146 402.015 684.214 401.852 684.334 401.732C684.454 401.612 684.618 401.544 684.788 401.544C684.958 401.544 685.121 401.612 685.241 401.732C685.362 401.852 685.429 402.015 685.429 402.185V413.718C685.429 413.888 685.362 414.051 685.241 414.172C685.121 414.292 684.958 414.359 684.788 414.359Z" fill="#E6E6E6"/>
<path d="M684.788 398.982C686.559 398.982 687.996 397.547 687.996 395.778C687.996 394.009 686.559 392.574 684.788 392.574C683.016 392.574 681.58 394.009 681.58 395.778C681.58 397.547 683.016 398.982 684.788 398.982Z" fill="#E6E6E6"/>
<path d="M684.146 409.233C684.146 409.233 688.156 402.025 693.77 404.428Z" fill="#E6E6E6"/>
<path d="M716.224 414.359C716.054 414.359 715.891 414.292 715.77 414.172C715.65 414.051 715.583 413.888 715.583 413.718V402.185C715.583 402.015 715.65 401.852 715.77 401.732C715.891 401.612 716.054 401.544 716.224 401.544C716.394 401.544 716.557 401.612 716.678 401.732C716.798 401.852 716.866 402.015 716.866 402.185V413.718C716.866 413.888 716.798 414.051 716.678 414.172C716.557 414.292 716.394 414.359 716.224 414.359Z" fill="#E6E6E6"/>
<path d="M716.224 398.982C717.996 398.982 719.432 397.547 719.432 395.778C719.432 394.009 717.996 392.574 716.224 392.574C714.453 392.574 713.016 394.009 713.016 395.778C713.016 397.547 714.453 398.982 716.224 398.982Z" fill="#E6E6E6"/>
<path d="M715.583 409.233C715.583 409.233 719.592 402.025 725.206 404.428Z" fill="#E6E6E6"/>
<path d="M736.304 365.532C736.349 365.457 736.398 365.384 736.451 365.314C736.581 365.008 736.745 364.718 736.939 364.449L753.081 341.895L766.38 323.32H789.065L787.461 325.556L784.606 329.548L775.76 341.901L756.801 368.383L774.374 403.636C775.092 405.072 773.867 407.135 771.653 408.237L763.178 412.453C762.337 412.882 761.409 413.114 760.465 413.132C759.271 413.132 758.277 412.69 757.86 411.851L736.015 368.024C735.843 367.619 735.779 367.177 735.83 366.74C735.88 366.303 736.044 365.887 736.304 365.532Z" fill="#25929B"/>
<path d="M784.273 409.832V329.734C784.271 329.659 784.275 329.585 784.287 329.511C784.325 328.582 784.635 327.684 785.178 326.928C785.721 326.173 786.474 325.592 787.343 325.258C787.897 325.039 788.488 324.927 789.084 324.928H798.554C799.83 324.93 801.053 325.436 801.955 326.337C802.857 327.238 803.364 328.46 803.366 329.734V409.832C803.364 411.106 802.857 412.328 801.955 413.229C801.053 414.13 799.83 414.636 798.554 414.638H789.084C787.809 414.636 786.586 414.13 785.683 413.229C784.781 412.328 784.274 411.106 784.273 409.832Z" fill="#25929B"/>
<path d="M772.819 266.559L731.306 333.593C730.632 334.675 729.557 335.446 728.316 335.738C727.075 336.029 725.768 335.818 724.683 335.151L716.628 330.178C715.545 329.505 714.773 328.431 714.481 327.192C714.189 325.952 714.401 324.648 715.07 323.563L756.584 256.528C756.791 256.191 757.042 255.882 757.329 255.61C758.096 254.863 759.092 254.394 760.158 254.278C761.223 254.162 762.297 254.406 763.207 254.972L771.261 259.945C771.8 260.276 772.267 260.711 772.636 261.223C773.006 261.736 773.27 262.316 773.414 262.931C773.525 263.418 773.562 263.919 773.524 264.417C773.464 265.177 773.223 265.912 772.819 266.559Z" fill="#25929B"/>
<path d="M774.999 265.363L758.921 298.274C758.261 299.363 757.196 300.147 755.959 300.454C754.722 300.761 753.414 300.565 752.321 299.911L736.946 290.921C735.856 290.261 735.072 289.197 734.763 287.962C734.611 287.341 734.584 286.695 734.683 286.063C734.783 285.432 735.008 284.826 735.345 284.282L756.354 255.068C756.424 254.954 756.509 254.85 756.608 254.759C757.373 254.033 759.094 253.775 760.476 253.569L760.691 253.536C761.062 253.479 761.381 253.429 761.608 253.372L761.694 253.353C761.786 253.333 761.881 253.312 761.967 253.3C763.096 253.112 764.256 253.334 765.235 253.927L773.341 258.813C774.104 259.278 774.724 259.945 775.133 260.74C775.541 261.534 775.723 262.426 775.657 263.317C775.602 264.041 775.376 264.742 774.999 265.363Z" fill="#2F2E41"/>
<path d="M780.467 227.015C799.43 227.015 814.803 211.662 814.803 192.724C814.803 173.785 799.43 158.432 780.467 158.432C761.504 158.432 746.132 173.785 746.132 192.724C746.132 211.662 761.504 227.015 780.467 227.015Z" fill="#25929B"/>
<path d="M782.472 211.2L782.507 209.918C780.12 209.852 778.016 209.703 776.434 208.549C775.986 208.203 775.618 207.765 775.354 207.264C775.09 206.764 774.938 206.212 774.907 205.647C774.879 205.302 774.931 204.955 775.059 204.634C775.188 204.312 775.389 204.024 775.646 203.793C776.696 202.907 778.385 203.194 779.616 203.758L780.678 204.244L778.642 189.385L777.371 189.559L779.103 202.198C777.43 201.707 775.88 201.919 774.818 202.814C774.41 203.169 774.091 203.614 773.884 204.113C773.677 204.613 773.588 205.153 773.625 205.692C773.662 206.451 773.865 207.193 774.22 207.865C774.574 208.537 775.072 209.124 775.678 209.584C777.709 211.067 780.35 211.14 782.472 211.2Z" fill="#2F2E41"/>
<path d="M771.084 190.649H764.173V191.93H771.084V190.649Z" fill="#2F2E41"/>
<path d="M792.897 190.649H785.986V191.93H792.897V190.649Z" fill="#2F2E41"/>
<path d="M735.695 359.505C733.427 359.375 731.659 355.651 731.659 350.982L745.131 273.663C745.131 270.74 745.498 267.829 746.226 264.997L746.226 264.997C746.49 263.979 746.804 262.967 747.158 261.99C749.312 255.979 753.093 250.683 758.081 246.69C758.644 246.23 759.233 245.786 759.831 245.369C762.736 243.321 765.941 241.736 769.332 240.669C769.238 240.247 769.191 239.816 769.19 239.383C769.192 237.77 769.834 236.222 770.977 235.081C772.119 233.94 773.669 233.298 775.285 233.296H784.266C785.882 233.298 787.431 233.94 788.574 235.081C789.717 236.222 790.359 237.77 790.361 239.383C790.36 239.815 790.312 240.245 790.219 240.666C797.239 242.886 803.369 247.281 807.72 253.214C812.071 259.146 814.418 266.309 814.419 273.663L827.251 350.982C827.251 355.771 825.419 359.522 823.08 359.522H735.829C735.784 359.523 735.738 359.517 735.695 359.505Z" fill="#2F2E41"/>
<path d="M788.843 347.684C788.444 346.985 788.228 346.198 788.212 345.393L786.863 266.587C786.851 265.955 786.965 265.328 787.196 264.741C787.428 264.154 787.773 263.618 788.212 263.164L788.214 263.163C788.652 262.709 789.176 262.346 789.756 262.094C790.335 261.842 790.959 261.707 791.59 261.696L801.06 261.537C802.253 261.516 803.411 261.938 804.309 262.722C805.208 263.506 805.783 264.596 805.922 265.779C805.942 265.937 805.952 266.096 805.953 266.255L807.307 345.067C807.326 346.341 806.838 347.57 805.951 348.485C805.064 349.401 803.85 349.928 802.575 349.952L793.109 350.115C792.245 350.128 791.394 349.909 790.643 349.481C789.893 349.054 789.272 348.433 788.843 347.684Z" fill="#25929B"/>
<path d="M784.863 293.567C784.505 292.937 784.293 292.234 784.245 291.511L784.649 255C784.551 253.729 784.961 252.472 785.79 251.503C786.619 250.535 787.799 249.934 789.07 249.833L798.51 249.095C799.659 249.007 800.801 249.331 801.732 250.01C801.829 250.083 801.926 250.172 802.02 250.236C802.256 250.432 802.502 250.616 802.757 250.787L802.962 250.932C804.318 251.892 805.857 252.979 805.931 254.038L811.61 289.66C811.695 290.677 811.448 291.695 810.907 292.56C810.779 292.773 810.634 292.974 810.472 293.162C810.33 293.329 810.176 293.484 810.01 293.626C809.226 294.33 808.232 294.754 807.181 294.833L789.416 295.978C788.507 296.048 787.596 295.858 786.79 295.432C785.984 295.005 785.316 294.358 784.863 293.567Z" fill="#2F2E41"/>
<path d="M796.868 179.488C795.91 176.879 794.069 174.687 791.662 173.292C789.256 171.897 786.437 171.387 783.694 171.849C781.72 172.26 779.885 173.168 778.362 174.486C775.169 177.06 772.725 180.937 768.555 182.032C764.983 182.969 761.076 181.8 758.212 179.58C751.256 174.188 752.415 163.943 757.584 157.727C763.585 150.511 773.793 148.424 782.75 149.017C792.101 149.637 801.109 153.286 808.653 158.763C816.275 164.296 822.272 171.828 826.598 180.145C828.789 184.384 830.579 188.818 831.946 193.389C833.488 198.183 834.458 203.143 834.838 208.164C835.111 213.053 834.437 218.083 831.819 222.309C829.657 225.798 826.271 228.641 822.162 229.416C820.286 229.714 818.365 229.524 816.583 228.864C814.802 228.204 813.222 227.096 811.994 225.648C810.699 224.144 810.005 222.217 810.045 220.234C810.085 218.251 810.857 216.352 812.211 214.902C812.963 214.109 813.866 213.473 814.866 213.032C815.867 212.591 816.946 212.354 818.039 212.334C819.133 212.314 820.219 212.513 821.235 212.917C822.251 213.321 823.176 213.924 823.956 214.689C825.418 216.201 826.293 218.449 825.63 220.521C825.073 222.264 823.327 223.87 821.4 223.686C819.581 223.513 817.929 221.636 818.365 219.791C818.649 218.588 816.794 218.074 816.509 219.28C816.286 220.36 816.413 221.483 816.869 222.488C817.326 223.492 818.09 224.326 819.051 224.87C819.995 225.414 821.081 225.659 822.167 225.572C823.253 225.486 824.287 225.073 825.133 224.387C829.189 221.273 828.11 215.426 824.411 212.521C822.469 211.032 820.056 210.29 817.611 210.431C815.167 210.571 812.855 211.585 811.096 213.286C809.511 214.85 808.494 216.897 808.206 219.103C807.919 221.309 808.376 223.549 809.507 225.466C810.641 227.248 812.193 228.728 814.027 229.778C815.862 230.828 817.925 231.416 820.038 231.492C824.554 231.64 828.831 229.12 831.676 225.755C838.874 217.241 837.171 205.242 834.492 195.296C831.889 185.26 827.223 175.875 820.792 167.738C814.382 159.722 805.918 153.59 796.299 149.992C786.939 146.559 775.988 145.662 766.545 149.299C761.964 151.064 757.8 153.922 754.988 157.992C752.279 161.818 751.038 166.489 751.492 171.153C751.73 173.289 752.435 175.347 753.557 177.181C754.678 179.015 756.189 180.582 757.983 181.769C761.339 184.006 765.753 184.986 769.655 183.712C774.285 182.201 776.713 177.819 780.585 175.211C782.252 174.12 784.216 173.57 786.208 173.637C788.199 173.703 790.122 174.383 791.712 175.584C793.251 176.67 794.407 178.216 795.013 179.999C795.397 181.169 797.256 180.668 796.868 179.488Z" fill="#2F2E41"/>
<path d="M817.097 298.057C820.528 298.08 824.169 298.177 827.326 299.683C829.842 300.883 832.171 302.986 832.681 305.841C833.14 308.404 831.991 311.407 829.35 312.24C826.365 313.18 823.344 311.442 821.718 308.981C819.525 305.662 819.376 301.576 819.239 297.73C819.195 296.497 817.27 296.491 817.314 297.73C817.459 301.793 817.665 306.074 819.856 309.637C821.765 312.739 825.169 314.892 828.906 314.308C832.33 313.773 834.482 310.773 834.685 307.444C834.896 303.981 832.845 300.956 830.081 299.05C826.301 296.444 821.541 296.165 817.097 296.135C816.847 296.143 816.611 296.249 816.437 296.428C816.264 296.607 816.167 296.847 816.167 297.096C816.167 297.345 816.264 297.585 816.437 297.764C816.611 297.943 816.847 298.048 817.097 298.057Z" fill="#2F2E41"/>
<path d="M817.582 297.926C820.86 295.867 824.18 293.583 826.249 290.228C828.13 287.178 828.859 283.246 827.147 279.96C825.633 277.054 822.378 275.105 819.081 275.907C815.579 276.76 813.349 280.048 812.921 283.474C812.333 288.178 814.679 292.481 816.934 296.421C817.067 296.632 817.278 296.783 817.52 296.842C817.763 296.901 818.019 296.864 818.234 296.738C818.45 296.612 818.608 296.408 818.676 296.168C818.743 295.927 818.714 295.671 818.596 295.451C816.886 292.462 815.039 289.309 814.784 285.796C814.564 282.76 815.634 279.554 818.525 278.139C821.05 276.903 823.804 278.172 825.206 280.442C826.836 283.08 826.268 286.348 824.788 288.919C822.92 292.166 819.713 294.317 816.611 296.266C815.565 296.923 816.53 298.587 817.582 297.926Z" fill="#2F2E41"/>
<path d="M901.358 415H656.925C656.755 415 656.592 414.932 656.472 414.812C656.352 414.692 656.284 414.529 656.284 414.359C656.284 414.189 656.352 414.026 656.472 413.906C656.592 413.786 656.755 413.718 656.925 413.718H901.358C901.529 413.718 901.692 413.786 901.812 413.906C901.932 414.026 902 414.189 902 414.359C902 414.529 901.932 414.692 901.812 414.812C901.692 414.932 901.529 415 901.358 415Z" fill="#CCCCCC"/>
</g>
<defs>
<clipPath id="clip0_10_940">
<rect width="565" height="400" fill="white" transform="translate(337 15)"/>
</clipPath>
</defs>
</svg>
