<svg width="1239" height="430" viewBox="0 0 1239 430" fill="none" xmlns="http://www.w3.org/2000/svg">
<rect width="1239" height="430" fill="white"/>
<g clip-path="url(#clip0_7_580)">
<path d="M799.677 67.0659L801.583 51.8095C801.917 49.124 802.778 46.5306 804.116 44.1774C805.454 41.8242 807.244 39.7574 809.382 38.095C811.52 36.4326 813.965 35.2072 816.577 34.4888C819.189 33.7704 821.918 33.5731 824.606 33.9081C827.295 34.2432 829.891 35.104 832.247 36.4414C834.602 37.7788 836.671 39.5666 838.334 41.7027C839.998 43.8388 841.224 46.2814 841.942 48.8908C842.66 51.5002 842.856 54.2253 842.52 56.9106L840.614 72.167C840.522 72.8949 840.145 73.5568 839.566 74.0074C838.986 74.458 838.251 74.6605 837.522 74.5705L802.084 70.1547C801.355 70.0631 800.692 69.6864 800.241 69.1073C799.79 68.5283 799.587 67.7941 799.677 67.0659Z" fill="#2F2E41"/>
<path d="M816.653 71.6175C825.005 71.6175 831.776 64.8549 831.776 56.5128C831.776 48.1707 825.005 41.4081 816.653 41.4081C808.3 41.4081 801.53 48.1707 801.53 56.5128C801.53 64.8549 808.3 71.6175 816.653 71.6175Z" fill="#FFB8B8"/>
<path d="M796.588 52.4267C797.129 48.1397 799.35 44.242 802.764 41.5884C806.178 38.9349 810.506 37.7424 814.8 38.2725L817.855 38.6532C822.147 39.1929 826.05 41.4111 828.706 44.8211C831.363 48.2311 832.557 52.5544 832.026 56.8425L831.988 57.1476L825.532 56.3431L824.099 49.9102L822.89 56.0139L819.553 55.5981L818.83 52.3524L818.22 55.432L796.55 52.7318L796.588 52.4267Z" fill="#2F2E41"/>
<path d="M742.686 110.394C743.149 111.3 743.804 112.095 744.607 112.721C745.41 113.346 746.34 113.789 747.333 114.017C748.325 114.245 749.356 114.253 750.351 114.04C751.347 113.827 752.284 113.399 753.097 112.785L766.832 120.822L773.758 113.676L754.201 102.599C753.078 101.304 751.519 100.466 749.819 100.243C748.119 100.02 746.396 100.427 744.977 101.388C743.558 102.349 742.54 103.797 742.118 105.456C741.696 107.116 741.898 108.873 742.686 110.394Z" fill="#FFB8B8"/>
<path d="M787.705 124.835C777.573 124.835 759.744 120.305 758.757 120.052L758.445 119.972L761.251 105.782L788.483 111.154L803.278 90.3466L820.263 88.622L819.788 89.2451C819.568 89.5354 797.673 118.323 794.266 123.152C793.406 124.37 790.95 124.835 787.705 124.835Z" fill="#3F3D56"/>
<path d="M790.422 178.093L790.016 177.9C789.93 177.859 781.322 173.677 776.863 165.513C772.426 157.387 793.198 122.918 794.651 120.527L794.672 109.581L802.145 89.4298L811.675 84.05L803.493 103.118L790.422 178.093Z" fill="#3F3D56"/>
<path d="M780.874 295.744L771.766 295.743L767.434 260.655L780.876 260.656L780.874 295.744Z" fill="#FFB8B8"/>
<path d="M783.197 304.562L753.829 304.561V304.189C753.829 301.162 755.034 298.258 757.177 296.117C759.321 293.976 762.228 292.773 765.26 292.773H765.261L783.197 292.773L783.197 304.562Z" fill="#2F2E41"/>
<path d="M878.704 287.771L870.049 290.604L854.992 258.608L867.767 254.428L878.704 287.771Z" fill="#FFB8B8"/>
<path d="M883.661 295.429L855.753 304.562L855.637 304.209C854.694 301.332 854.933 298.198 856.302 295.496C857.672 292.795 860.06 290.748 862.94 289.805L862.941 289.805L879.986 284.227L883.661 295.429Z" fill="#2F2E41"/>
<path d="M861.07 282.035L835.106 238.741L813.188 192.487L793.464 233.345L785.629 286.263L758.151 286.644L758.259 286.215L800.309 119.334L833.242 124.248L831.743 145.96L832.636 147.229C840.075 157.784 847.767 168.698 843.355 180.463L855.862 217.553L883.547 279.314L861.07 282.035Z" fill="#2F2E41"/>
<path d="M801.814 155.502C797.042 155.502 791.597 150.06 794.422 140.769L794.239 140.636L801.023 110.699C795.102 102.242 802.908 95.262 803.64 94.6385L807.366 87.9397L823.806 77.5259L832.125 146.557L832.002 146.675C825.994 152.416 805.817 155.502 801.814 155.502Z" fill="#25929B"/>
<path d="M835.483 171.079C834.83 171.089 834.177 171.02 833.541 170.874C832.901 170.714 831.866 169.9 830.267 164.699C823.908 144.02 816.4 81.7992 821.855 75.7105L821.979 75.571L830.935 77.0618C831.68 76.5131 835.586 73.7893 839.191 74.2629C839.933 74.3562 840.648 74.6004 841.292 74.9806C841.936 75.3608 842.495 75.8688 842.935 76.4732L842.997 76.5539L845.85 117.095L856.302 164.804L856.052 164.917C855.444 165.194 842.392 171.079 835.483 171.079Z" fill="#3F3D56"/>
<path d="M829.46 155.234C830.478 155.2 831.476 154.943 832.384 154.482C833.292 154.022 834.087 153.367 834.715 152.566C835.342 151.765 835.786 150.836 836.015 149.845C836.244 148.854 836.253 147.825 836.041 146.83L849.151 137.811L845.607 128.517L827.272 141.513C825.622 141.98 824.201 143.035 823.278 144.478C822.355 145.921 821.995 147.653 822.264 149.344C822.534 151.035 823.415 152.569 824.742 153.654C826.068 154.74 827.747 155.302 829.46 155.234Z" fill="#FFB8B8"/>
<path d="M844.825 145.038L833.147 136.484L849.563 114.127L836.966 91.9241L842.601 75.8278L842.966 76.5211C843.135 76.8439 859.958 108.853 862.893 113.982C865.946 119.318 845.885 143.752 845.03 144.789L844.825 145.038Z" fill="#3F3D56"/>
<path d="M730.166 192.706L515.588 199.97C510.285 200.144 505.129 198.209 501.252 194.591C497.374 190.972 495.093 185.965 494.907 180.669L491.373 76.537C491.199 71.24 493.136 66.0904 496.759 62.218C500.382 58.3456 505.395 56.0666 510.698 55.8811L725.276 48.6168C730.579 48.4432 735.735 50.3779 739.612 53.9964C743.489 57.6149 745.771 62.6217 745.957 67.9183L749.491 172.05C749.664 177.347 747.727 182.497 744.104 186.369C740.482 190.241 735.469 192.52 730.166 192.706Z" fill="white"/>
<path d="M749.491 172.05L749.509 172.601C749.68 177.661 747.832 182.582 744.37 186.281C740.908 189.98 736.117 192.154 731.051 192.324L515.4 199.625C510.335 199.796 505.409 197.95 501.706 194.494C498.003 191.038 495.826 186.254 495.653 181.195L495.635 180.644L749.491 172.05Z" fill="#F2F2F2"/>
<path d="M537.656 88.3046C522.203 92.6766 507.806 81.1751 504.986 70.1484L506.065 69.9179C519.102 66.5733 534.083 75.4548 537.656 88.3046Z" fill="#25929B"/>
<path d="M690.443 162.745C686.962 162.863 684.158 161.923 682.109 159.95C677.478 155.491 677.457 146.595 677.44 139.447C677.435 137.367 677.43 135.403 677.312 133.761L677.311 133.737C677.218 130.525 678.397 127.406 680.593 125.058C682.789 122.709 685.824 121.321 689.038 121.195L717.901 120.218C721.378 120.1 724.178 121.039 726.226 123.009C730.857 127.464 730.881 136.358 730.901 143.504C730.906 145.588 730.912 147.557 731.031 149.201C731.129 152.417 729.951 155.542 727.754 157.896C725.557 160.249 722.518 161.641 719.299 161.768L690.443 162.745ZM678.523 133.687C678.643 135.368 678.648 137.348 678.653 139.444C678.67 146.363 678.69 154.975 682.951 159.078C684.78 160.838 687.217 161.642 690.402 161.534L719.256 160.557C722.151 160.444 724.884 159.194 726.862 157.08C728.84 154.965 729.903 152.156 729.82 149.264C729.699 147.602 729.693 145.613 729.687 143.507C729.668 136.59 729.645 127.981 725.384 123.882C723.557 122.123 721.122 121.321 717.942 121.429L689.081 122.406C686.189 122.52 683.458 123.768 681.482 125.88C679.505 127.992 678.442 130.797 678.523 133.687Z" fill="#3F3D56"/>
<path d="M531.318 89.6346C526.256 89.7753 521.256 88.4946 516.886 85.9381C510.487 82.2608 505.544 76.1919 503.986 70.1004L503.829 69.4898L505.513 69.1297C518.744 65.7397 534.144 74.6992 537.827 87.9383L537.989 88.5188L537.408 88.6832C535.424 89.2455 533.379 89.565 531.318 89.6346ZM505.328 70.4083C506.974 75.989 511.581 81.4911 517.491 84.8879C523.21 88.2761 530.034 89.2781 536.487 87.6771C532.685 75.3553 518.237 67.1076 505.803 70.3064L505.328 70.4083Z" fill="#3F3D56"/>
<path d="M516.836 159.005C515.013 159.134 513.188 158.765 511.559 157.937C509.929 157.11 508.556 155.854 507.587 154.306C506.463 152.461 505.834 150.358 505.76 148.199C505.686 146.04 506.17 143.899 507.165 141.981C508.045 140.339 509.364 138.972 510.974 138.032C512.585 137.092 514.425 136.616 516.289 136.656L554.746 135.354C556.603 135.193 558.468 135.546 560.136 136.376C561.804 137.206 563.211 138.48 564.201 140.057C565.324 141.902 565.952 144.006 566.025 146.164C566.098 148.322 565.613 150.463 564.618 152.38C562.807 155.73 559.566 157.596 555.495 157.694L517.038 158.996C516.97 159 516.903 159.002 516.836 159.005ZM516.142 137.872C514.522 137.861 512.929 138.292 511.536 139.117C510.142 139.943 509 141.132 508.233 142.556C507.336 144.284 506.9 146.213 506.967 148.158C507.033 150.103 507.6 151.997 508.613 153.66C509.491 155.053 510.739 156.176 512.217 156.904C513.695 157.633 515.346 157.938 516.987 157.786L555.463 156.483C557.112 156.525 558.74 156.11 560.168 155.284C561.595 154.458 562.766 153.254 563.55 151.805C564.447 150.078 564.884 148.149 564.818 146.204C564.752 144.26 564.186 142.365 563.174 140.702C562.294 139.31 561.046 138.186 559.568 137.456C558.089 136.726 556.438 136.418 554.796 136.565L516.318 137.868C516.259 137.869 516.2 137.87 516.142 137.872Z" fill="#3F3D56"/>
<path d="M699.391 135.258L687.268 135.668C686.465 135.694 685.684 135.401 685.097 134.853C684.51 134.304 684.165 133.546 684.138 132.744C684.111 131.942 684.404 131.161 684.952 130.575C685.5 129.988 686.259 129.642 687.062 129.614L699.185 129.204C699.989 129.176 700.771 129.469 701.359 130.018C701.946 130.566 702.292 131.325 702.319 132.128C702.346 132.931 702.053 133.712 701.504 134.299C700.955 134.886 700.195 135.231 699.391 135.258Z" fill="#25929B"/>
<path d="M699.72 144.945L687.597 145.355C687.198 145.369 686.801 145.305 686.428 145.165C686.054 145.026 685.712 144.814 685.421 144.543C685.129 144.271 684.894 143.945 684.729 143.582C684.564 143.22 684.472 142.829 684.459 142.431C684.445 142.033 684.51 141.636 684.65 141.263C684.791 140.891 685.003 140.549 685.275 140.259C685.548 139.968 685.875 139.734 686.238 139.569C686.601 139.405 686.993 139.314 687.391 139.301L699.514 138.89C699.912 138.876 700.31 138.941 700.683 139.08C701.056 139.22 701.399 139.431 701.69 139.703C701.982 139.974 702.216 140.301 702.382 140.663C702.547 141.026 702.639 141.417 702.652 141.815C702.666 142.213 702.6 142.609 702.46 142.982C702.32 143.355 702.108 143.696 701.835 143.987C701.563 144.278 701.236 144.512 700.873 144.676C700.51 144.84 700.118 144.932 699.72 144.945Z" fill="#25929B"/>
<path d="M700.048 154.631L687.925 155.042C687.121 155.069 686.34 154.776 685.752 154.228C685.164 153.679 684.819 152.92 684.792 152.117C684.765 151.314 685.058 150.534 685.607 149.947C686.156 149.36 686.916 149.015 687.72 148.988L699.843 148.577C700.241 148.564 700.638 148.629 701.01 148.768C701.383 148.908 701.725 149.12 702.016 149.391C702.307 149.663 702.541 149.989 702.706 150.351C702.871 150.713 702.963 151.104 702.976 151.502C702.99 151.899 702.925 152.295 702.785 152.668C702.645 153.04 702.433 153.381 702.161 153.672C701.889 153.963 701.563 154.197 701.2 154.362C700.838 154.526 700.446 154.618 700.048 154.631Z" fill="#25929B"/>
<path d="M720.606 134.54L708.483 134.95C708.085 134.964 707.687 134.9 707.314 134.76C706.941 134.621 706.599 134.409 706.307 134.138C706.016 133.866 705.781 133.54 705.616 133.177C705.451 132.815 705.359 132.424 705.345 132.026C705.332 131.628 705.397 131.231 705.537 130.858C705.677 130.486 705.889 130.144 706.162 129.854C706.434 129.563 706.761 129.329 707.124 129.164C707.487 129 707.879 128.909 708.278 128.896L720.401 128.486C720.799 128.472 721.195 128.537 721.568 128.677C721.941 128.816 722.283 129.028 722.574 129.3C722.865 129.571 723.099 129.897 723.264 130.259C723.429 130.622 723.521 131.012 723.534 131.41C723.548 131.808 723.483 132.204 723.343 132.576C723.203 132.949 722.991 133.29 722.719 133.581C722.447 133.871 722.121 134.105 721.758 134.27C721.396 134.435 721.004 134.526 720.606 134.54Z" fill="#25929B"/>
<path d="M720.935 144.226L708.812 144.637C708.008 144.664 707.226 144.371 706.639 143.823C706.051 143.274 705.706 142.515 705.678 141.712C705.651 140.909 705.944 140.129 706.493 139.542C707.043 138.955 707.803 138.61 708.606 138.583L720.729 138.172C721.128 138.158 721.525 138.223 721.898 138.362C722.272 138.501 722.614 138.713 722.905 138.985C723.197 139.256 723.432 139.583 723.597 139.945C723.762 140.307 723.854 140.699 723.867 141.097C723.881 141.494 723.816 141.891 723.676 142.264C723.535 142.636 723.323 142.978 723.051 143.269C722.778 143.559 722.451 143.794 722.088 143.958C721.725 144.122 721.333 144.213 720.935 144.226Z" fill="#25929B"/>
<path d="M721.264 153.913L709.14 154.323C708.742 154.337 708.345 154.273 707.972 154.134C707.598 153.994 707.256 153.783 706.965 153.511C706.673 153.239 706.438 152.913 706.273 152.551C706.108 152.188 706.016 151.797 706.003 151.399C705.989 151.001 706.054 150.605 706.194 150.232C706.335 149.859 706.547 149.518 706.819 149.227C707.092 148.936 707.419 148.702 707.782 148.538C708.145 148.373 708.537 148.282 708.935 148.269L721.058 147.859C721.456 147.845 721.853 147.91 722.226 148.05C722.599 148.19 722.94 148.401 723.231 148.673C723.522 148.944 723.757 149.271 723.922 149.633C724.086 149.995 724.178 150.386 724.192 150.783C724.205 151.181 724.14 151.577 724 151.95C723.86 152.322 723.648 152.663 723.376 152.954C723.105 153.244 722.778 153.479 722.416 153.643C722.053 153.808 721.662 153.9 721.264 153.913Z" fill="#25929B"/>
<path d="M746.728 90.5865L492.871 99.1807L492.912 100.392L746.769 91.7973L746.728 90.5865Z" fill="#3F3D56"/>
<path d="M730.166 192.706L515.588 199.97C510.285 200.144 505.129 198.209 501.252 194.591C497.374 190.972 495.093 185.965 494.907 180.669L491.373 76.537C491.199 71.24 493.136 66.0904 496.759 62.218C500.382 58.3456 505.395 56.0666 510.698 55.8811L725.276 48.6168C730.579 48.4432 735.735 50.3779 739.612 53.9964C743.489 57.6149 745.771 62.6217 745.957 67.9183L749.491 172.05C749.664 177.347 747.727 182.497 744.104 186.369C740.482 190.241 735.469 192.52 730.166 192.706ZM510.739 57.0919C505.758 57.2662 501.049 59.407 497.645 63.0447C494.242 66.6824 492.422 71.5199 492.586 76.4959L496.119 180.628C496.294 185.603 498.437 190.307 502.079 193.706C505.722 197.105 510.565 198.922 515.547 198.759L730.125 191.495C735.106 191.321 739.815 189.18 743.219 185.542C746.622 181.904 748.442 177.067 748.278 172.091L744.744 67.9593C744.57 62.9837 742.427 58.2804 738.784 54.8812C735.142 51.482 730.299 49.6646 725.317 49.8276L510.739 57.0919Z" fill="#3F3D56"/>
<path d="M422.724 166.941C422.673 165.876 422.39 164.835 421.893 163.892C421.396 162.948 420.698 162.124 419.848 161.479C418.998 160.834 418.016 160.383 416.973 160.158C415.929 159.932 414.849 159.938 413.808 160.175L404.151 146.582L394.449 150.429L408.357 169.433C408.871 171.154 409.999 172.626 411.527 173.571C413.055 174.516 414.878 174.868 416.649 174.561C418.419 174.254 420.016 173.309 421.136 171.904C422.256 170.5 422.821 168.734 422.724 166.941Z" fill="#A0616A"/>
<path d="M403.902 165.934L374.682 128.072L385.63 93.7033C386.433 85.0625 391.846 82.6497 392.077 82.5511L392.428 82.4006L401.956 107.777L394.96 126.409L412.13 155.251L403.902 165.934Z" fill="#3F3D56"/>
<path d="M505.382 49.2174C504.323 49.35 503.305 49.7131 502.402 50.2809C501.498 50.8487 500.73 51.6075 500.152 52.5038C499.573 53.4002 499.199 54.4122 499.055 55.4688C498.91 56.5253 499 57.6005 499.317 58.6188L486.495 69.2863L491.085 78.6499L508.98 63.3313C510.657 62.6864 512.04 61.4493 512.865 59.8545C513.69 58.2596 513.901 56.4178 513.457 54.6781C513.014 52.9384 511.947 51.4216 510.459 50.4151C508.97 49.4087 507.164 48.9825 505.382 49.2174Z" fill="#A0616A"/>
<path d="M505.831 68.0375L470.296 100.063L435.142 91.8174C426.455 91.6866 423.628 86.4823 423.511 86.2605L423.334 85.9223L447.929 74.4728L467.068 79.9983L494.532 60.6704L505.831 68.0375Z" fill="#3F3D56"/>
<path d="M444.279 295.706H453.826L458.368 258.924L444.276 258.925L444.279 295.706Z" fill="#A0616A"/>
<path d="M472.24 304.56L442.233 304.562L442.232 292.982L461.961 292.981C464.687 292.981 467.301 294.062 469.229 295.988C471.157 297.913 472.24 300.524 472.24 303.246L472.24 304.56Z" fill="#2F2E41"/>
<path d="M406.119 295.706H415.666L420.208 258.924L406.116 258.925L406.119 295.706Z" fill="#A0616A"/>
<path d="M434.08 304.56L404.073 304.562L404.072 292.982L423.801 292.981C425.151 292.981 426.487 293.247 427.734 293.762C428.981 294.278 430.114 295.034 431.069 295.988C432.023 296.941 432.78 298.072 433.297 299.318C433.814 300.563 434.079 301.898 434.08 303.246L434.08 304.56Z" fill="#2F2E41"/>
<path d="M402.723 161.448L403.502 215.896L404.28 287.457L421.413 285.901L429.98 187.117L440.883 285.901H458.571L460.352 186.339L454.122 164.559L402.723 161.448Z" fill="#2F2E41"/>
<path d="M436.256 168.759C417.614 168.761 400.455 160.334 400.223 160.218L400.031 160.122L398.466 122.624C398.013 121.299 389.08 95.1515 387.567 86.8407C386.034 78.4207 408.25 71.031 410.947 70.1669L411.56 63.3933L436.455 60.7139L439.611 69.381L448.542 72.7259C449.555 73.1055 450.393 73.8427 450.897 74.7981C451.402 75.7535 451.538 76.8606 451.28 77.9096L446.316 98.0719L458.44 164.778L455.83 164.891C449.654 167.553 442.982 168.872 436.256 168.759Z" fill="#3F3D56"/>
<path d="M424.983 56.4248C434.883 56.4248 442.908 48.4092 442.908 38.5216C442.908 28.6339 434.883 20.6183 424.983 20.6183C415.083 20.6183 407.058 28.6339 407.058 38.5216C407.058 48.4092 415.083 56.4248 424.983 56.4248Z" fill="#A0616A"/>
<path d="M410.464 55.8524C413.88 59.4868 420.224 57.5358 420.669 52.5706C420.704 52.1851 420.702 51.7972 420.662 51.4122C420.432 49.2128 419.16 47.2161 419.464 44.8939C419.533 44.316 419.749 43.7652 420.091 43.2937C422.813 39.6529 429.203 44.9222 431.772 41.6263C433.347 39.6053 431.496 36.4233 432.705 34.1646C434.3 31.1833 439.026 32.654 441.989 31.0213C445.287 29.2048 445.09 24.1518 442.919 21.0783C440.272 17.3301 435.631 15.3301 431.047 15.0418C426.464 14.7536 421.912 15.9911 417.633 17.6566C412.772 19.549 407.95 22.1643 404.959 26.4341C401.32 31.6266 400.97 38.6074 402.79 44.6791C403.897 48.3726 407.674 52.8845 410.464 55.8524Z" fill="#2F2E41"/>
<path d="M916.272 305.534H323.728C323.535 305.534 323.35 305.457 323.213 305.321C323.077 305.184 323 304.999 323 304.807C323 304.614 323.077 304.429 323.213 304.292C323.35 304.156 323.535 304.08 323.728 304.08H916.272C916.465 304.08 916.65 304.156 916.787 304.292C916.923 304.429 917 304.614 917 304.807C917 304.999 916.923 305.184 916.787 305.321C916.65 305.457 916.465 305.534 916.272 305.534Z" fill="#CACACA"/>
<path d="M653.431 405.674L662.031 405.673L666.122 372.543L653.43 372.543L653.431 405.674Z" fill="#FFB8B8"/>
<path d="M651.238 402.87L668.174 402.869C671.037 402.869 673.782 404.005 675.806 406.026C677.83 408.048 678.968 410.79 678.968 413.649V413.999L651.238 414L651.238 402.87Z" fill="#2F2E41"/>
<path d="M573.465 405.674L582.065 405.673L586.156 372.543L573.464 372.543L573.465 405.674Z" fill="#FFB8B8"/>
<path d="M571.271 402.87L588.207 402.869C591.07 402.869 593.815 404.005 595.839 406.026C597.864 408.048 599.001 410.79 599.001 413.649V413.999L571.271 414L571.271 402.87Z" fill="#2F2E41"/>
<path d="M656.859 237.544C656.859 237.544 664.078 257.113 663.047 265.353C662.015 273.593 670.265 331.27 669.234 336.42C668.203 341.57 670.265 367.319 669.234 371.439C668.203 375.559 672.128 380.479 670.066 384.599C668.003 388.719 665.109 397.188 665.109 397.188L651.703 396.158L649.641 384.828C649.641 384.828 643.454 383.798 644.485 377.618C645.516 371.439 639.329 330.24 639.329 330.24L621.798 272.563L597.049 325.091C597.049 325.091 596.018 362.169 592.924 366.289C589.831 370.409 596.018 381.738 592.924 385.858C589.831 389.978 586.737 397.188 586.737 397.188H571.269V388.948C571.269 388.948 561.988 383.798 571.269 368.349L577.54 275.569L583.727 233.34L656.859 237.544Z" fill="#2F2E41"/>
<path d="M618.418 108.037C629.055 108.037 637.678 99.4241 637.678 88.7997C637.678 78.1754 629.055 69.5626 618.418 69.5626C607.78 69.5626 599.157 78.1754 599.157 88.7997C599.157 99.4241 607.78 108.037 618.418 108.037Z" fill="#FFB8B8"/>
<path d="M634.808 87.4727C633.449 90.9408 632.09 94.409 630.731 97.8771C629.06 102.141 627.146 106.702 623.23 109.082C618.394 112.019 611.937 110.587 607.259 107.405C603.052 104.542 599.823 100.463 598.005 95.7138C596.187 90.9648 595.867 85.7739 597.089 80.8383C598.311 75.9027 601.016 71.4589 604.841 68.1036C608.666 64.7483 613.427 62.6423 618.484 62.0685L618.678 65.5509L622.956 61.969C623.273 62.5113 623.708 62.9749 624.23 63.3251C624.751 63.6752 625.345 63.9028 625.968 63.9907C626.59 64.0785 627.224 64.0245 627.822 63.8325C628.421 63.6405 628.968 63.3157 629.422 62.8823C628.298 65.2091 629.595 68.0469 631.468 69.8294C633.77 72.019 640.352 74.6506 640.079 78.565C639.896 81.1772 635.869 84.7656 634.808 87.4727Z" fill="#2F2E41"/>
<path d="M565.4 266.001C564.736 265.011 564.298 263.889 564.115 262.712C563.933 261.535 564.011 260.333 564.344 259.189C564.678 258.046 565.258 256.99 566.044 256.094C566.83 255.199 567.803 254.487 568.895 254.008L568.51 235.398L579.776 232.407L579.95 258.695C580.634 260.58 580.602 262.65 579.86 264.512C579.118 266.375 577.717 267.902 575.924 268.802C574.13 269.703 572.069 269.915 570.129 269.399C568.189 268.882 566.507 267.673 565.4 266.001Z" fill="#FFB8B8"/>
<path d="M604.11 119.926C604.11 119.926 619.035 112.473 633.131 117.442C647.228 122.411 654.69 128.208 654.69 128.208L645.569 176.242L658.007 240.84C658.007 240.84 594.16 235.871 588.356 240.84C582.551 245.809 582.551 235.043 582.551 235.043L587.526 173.758L578.405 134.833L604.11 119.926Z" fill="#3F3D56"/>
<path d="M667.105 267.102C666.189 266.339 665.453 265.385 664.947 264.307C664.441 263.228 664.178 262.052 664.177 260.861C664.175 259.671 664.435 258.494 664.938 257.414C665.441 256.335 666.175 255.378 667.088 254.612L661.487 236.859L671.459 230.829L679.015 256.011C680.202 257.628 680.753 259.624 680.564 261.62C680.376 263.616 679.461 265.473 677.993 266.84C676.524 268.208 674.605 268.989 672.598 269.038C670.592 269.086 668.637 268.397 667.105 267.102Z" fill="#FFB8B8"/>
<path d="M648.886 128.208H654.69C654.69 128.208 663.811 134.005 663.811 142.287C663.811 150.569 677.078 247.466 677.078 247.466L662.982 249.95L650.544 182.04L641.423 163.82L648.886 128.208Z" fill="#3F3D56"/>
<path d="M594.16 134.833H578.405C578.405 134.833 573.43 139.802 570.943 151.397C568.455 162.991 565.968 208.541 565.968 208.541L567.626 249.95H580.064L581.722 196.119L590.014 161.335L594.16 134.833Z" fill="#3F3D56"/>
</g>
<defs>
<clipPath id="clip0_7_580">
<rect width="594" height="399" fill="white" transform="translate(323 15)"/>
</clipPath>
</defs>
</svg>
