<svg width="1239" height="430" viewBox="0 0 1239 430" fill="none" xmlns="http://www.w3.org/2000/svg">
<rect width="1239" height="430" fill="white"/>
<g clip-path="url(#clip0_2_311)">
<path d="M1055 58.5394V369.995C1055 374.764 1053.8 379.455 1051.52 383.642C1049.99 386.451 1048 388.981 1045.62 391.126C1045.45 391.29 1045.27 391.441 1045.1 391.579C1042.94 393.463 1040.52 395.003 1037.89 396.145C1036.73 396.661 1035.54 397.093 1034.31 397.44C1033.51 397.667 1032.68 397.868 1031.85 398.019C1030.72 398.242 1029.59 398.389 1028.44 398.459C1027.8 398.51 1027.15 398.535 1026.48 398.535H738.838L724.447 399.315L710.848 398.535H212.518C211.94 398.535 211.349 398.522 210.784 398.472C209.226 398.384 207.679 398.165 206.158 397.818C199.862 396.377 194.241 392.84 190.215 387.786C186.19 382.731 183.998 376.459 184 369.995V58.5394C184.009 50.9731 187.017 43.7193 192.363 38.3691C197.709 33.0189 204.957 30.0091 212.518 30H1026.48C1034.04 30.0091 1041.29 33.0189 1046.64 38.3691C1051.98 43.7193 1054.99 50.9731 1055 58.5394Z" fill="#F2F2F2"/>
<path d="M387.409 30C342.807 134.113 351.36 260.55 387.409 398.535H637.636C668.928 260.393 684.769 129.804 637.636 30H387.409Z" fill="#E4E4E4"/>
<path d="M286.484 30C204.984 130.372 227.722 259.487 286.484 398.535H387.409C351.012 267.173 345.062 142.936 387.409 30H286.484Z" fill="#CACACA"/>
<path d="M591.377 38.5432H553.528V76.4203H591.377V38.5432Z" fill="white"/>
<path d="M530.398 38.5432H492.55V76.4203H530.398V38.5432Z" fill="white"/>
<path d="M469.42 38.5432H431.571V76.4203H469.42V38.5432Z" fill="white"/>
<path d="M590.326 124.819H552.477V162.696H590.326V124.819Z" fill="white"/>
<path d="M529.347 124.819H491.498V162.696H529.347V124.819Z" fill="white"/>
<path d="M468.369 124.819H430.52V162.696H468.369V124.819Z" fill="white"/>
<path d="M589.274 211.095H551.426V248.972H589.274V211.095Z" fill="white"/>
<path d="M528.296 211.095H490.447V248.972H528.296V211.095Z" fill="white"/>
<path d="M467.317 211.095H429.469V248.972H467.317V211.095Z" fill="white"/>
<path d="M588.223 297.37H550.374V335.248H588.223V297.37Z" fill="white"/>
<path d="M527.244 297.37H489.396V335.248H527.244V297.37Z" fill="white"/>
<path d="M466.266 297.37H428.417V335.248H466.266V297.37Z" fill="white"/>
<path d="M587.174 383.642H549.317V398.535H587.174V383.642Z" fill="white"/>
<path d="M526.191 383.642H488.347V398.535H526.191V383.642Z" fill="white"/>
<path d="M465.209 383.642H427.365V398.535H465.209V383.642Z" fill="white"/>
<path d="M184 225.751V369.995C183.998 376.459 186.19 382.731 190.215 387.786C194.241 392.84 199.862 396.377 206.158 397.818C207.679 398.165 209.226 398.384 210.784 398.472C211.349 398.522 211.94 398.535 212.518 398.535H322.229C345.262 331.029 387.61 41.3201 214.165 66.4761L184 225.751Z" fill="#E4E4E4"/>
<path d="M272.817 297.37H234.968V335.248H272.817V297.37Z" fill="white"/>
<path d="M211.839 297.37H184V335.242H211.839V297.37Z" fill="white"/>
<path d="M271.766 383.642H233.922V398.535H271.766V383.642Z" fill="white"/>
<path d="M187.469 383.642C189.41 387.19 192.079 390.287 195.299 392.73C198.52 395.172 202.221 396.906 206.158 397.818C207.679 398.165 209.226 398.384 210.784 398.472V383.642H187.469Z" fill="white"/>
<path d="M1055 266.214V369.995C1055 374.764 1053.8 379.455 1051.52 383.642L1049.56 381.995L1045.77 378.825L1024.84 361.304L1030.04 382.762L1023.92 383.089L1023.44 383.114L1012.33 383.718L1002.61 384.246H1002.58L988.714 385.001L975.177 385.73L970.665 385.969L941.921 387.529L929.667 388.196L924.111 388.498L909.419 389.29L889.711 390.359L886.054 390.56L828.213 393.692L791.425 395.692L785.719 395.994L785.292 396.019L782.966 396.145H782.954L777.914 396.422L770.674 396.812L758.948 397.44L753.77 397.717L738.838 398.535L724.447 399.315L710.848 398.535L666.996 396.019L638.566 394.384L637.636 394.334L587.174 391.441L549.317 389.265L526.191 387.944L488.347 385.768L470.902 384.774L465.209 384.447L451.207 383.642L387.409 379.982L382.658 379.706L382.394 379.693L359.281 378.372L344.852 377.542L375.168 349.355L375.582 348.965L387.409 337.972C395.918 322.69 404.088 307.256 428.42 299.835L431.072 297.37L467.609 263.397L473.843 263.309L637.636 261.145L662.371 260.818L713.048 260.152L731.41 259.913L744.972 260.705L862.463 267.598L870.117 268.051L909.18 270.34L945.327 272.453L962.508 273.459L966.706 273.711L966.983 273.723L969.094 273.849L974.75 273.346L981.7 272.73L984.277 272.503L985.458 272.39L1010.21 270.202L1012.28 270.013L1018.2 269.485L1052.49 316.778L1055 266.214Z" fill="#3F3D56"/>
<path d="M922.333 378.393C904.92 353.168 892.229 289.12 897.196 262.676C896.978 261.813 907.367 276.32 907.4 275.42C907.565 270.978 910.727 267.536 914.464 267.732L961.419 270.194C962.581 270.295 963.696 270.698 964.654 271.365C965.611 272.032 966.377 272.938 966.875 273.994L1002.38 342.031C1002.94 343.119 1003.27 344.309 1003.36 345.529C1003.71 349.956 1000.97 353.879 997.248 354.291L934.293 361.249C934.086 361.272 933.877 361.283 933.669 361.283C930.678 361.275 923.197 381.797 922.333 378.393Z" fill="white"/>
<path d="M722.455 378.158L722.916 380.661L724.703 390.296C725.064 392.255 725.623 394.173 726.37 396.019C726.594 396.598 726.847 397.164 727.115 397.717C727.249 397.994 727.383 398.258 727.532 398.535H856.443L877.839 396.057L878.107 396.019C882.517 395.412 886.615 393.401 889.795 390.284C892.433 387.655 894.526 384.53 895.954 381.09C897.383 377.649 898.118 373.96 898.118 370.234C898.147 369.194 898.117 368.152 898.028 367.115C897.912 365.645 897.683 364.185 897.343 362.75C899.751 335.394 893.407 308.724 878.806 282.704C877.609 277.142 874.679 272.104 870.439 268.315C866.954 265.228 862.52 263.427 857.872 263.208L753.811 258.932C749.848 258.804 745.937 259.869 742.585 261.988C736.212 265.938 731.582 273.384 730.673 282.339C721.914 310.49 718.99 340.134 722.082 369.454C721.796 372.359 721.921 375.289 722.455 378.158Z" fill="white"/>
<path d="M684.357 390.984L416.983 383.197C413.621 383.099 363.909 402.731 361.496 399.677C356.211 392.991 356.082 381.983 361.208 375.09L478.01 259.17C479.08 257.601 480.504 256.306 482.166 255.389C483.828 254.471 485.682 253.957 487.579 253.888H702.804C703.822 253.889 704.835 254.04 705.809 254.335C712.982 256.5 717.452 265.839 715.792 275.195L697.643 377.518C696.226 385.389 690.851 390.962 684.653 390.988C684.555 390.988 684.456 390.987 684.357 390.984Z" fill="white"/>
<path d="M963.871 278.212L736.636 262.528L467.609 263.4C500.702 228.38 646.155 185.683 801.933 237.261C957.777 242.489 969.095 273.855 969.095 273.855L971.039 276.904L963.871 278.212Z" fill="#25929B"/>
<path d="M1053.89 377.844C1053.32 379.86 1052.52 381.805 1051.52 383.642C1049.99 386.451 1048 388.981 1045.62 391.126C1045.45 391.29 1045.27 391.441 1045.1 391.579C1042.94 393.463 1040.52 395.003 1037.89 396.145C1036.73 396.661 1035.54 397.093 1034.31 397.44C1033.51 397.667 1032.68 397.868 1031.85 398.019C1030.72 398.242 1029.59 398.389 1028.44 398.459C1027.8 398.51 1027.15 398.535 1026.48 398.535H738.838L724.447 399.314L710.848 398.535H212.518C211.94 398.535 211.349 398.522 210.784 398.472C209.226 398.384 207.679 398.165 206.158 397.818L210.784 397.139L218.45 396.019L233.922 393.755L271.766 388.221L286.484 386.07L322.229 380.85L328.199 379.982L344.852 377.542L359.545 377.831L382.03 378.284H382.307L387.409 378.385L421.583 379.064L434.139 379.316L526.241 381.139L534.662 381.303L547.218 381.554L587.199 382.359L637.636 383.353L641.005 383.416L695.012 384.498L695.716 384.51L723.266 382.561L750.225 380.661L770.649 379.227L777.235 378.762L777.487 378.75L778.945 378.649L779.9 378.573L787.918 378.007L817.92 375.894L831.28 374.951L837.036 374.549L843.057 374.121L898.119 370.234L913.453 369.153H913.466L921.849 368.561L937.22 367.48H937.233L953.031 366.36H953.044L959.177 365.933L961.528 365.769L979.425 364.511L990.247 363.744L1008.82 362.436L1014.57 362.033L1022.28 361.48L1024.4 361.329L1024.84 361.304C1024.84 361.304 1031.3 361.442 1039.72 366.121C1042.38 367.608 1044.9 369.343 1047.25 371.303C1048.87 372.653 1050.41 374.093 1051.87 375.618C1052.55 376.322 1053.22 377.064 1053.89 377.844Z" fill="#25929B"/>
<path d="M768.953 398.535H788.446L786.662 396.874L785.744 396.019L785.719 395.994L781.609 392.183L778.341 389.139L775.689 391.793L774.621 392.862L771.466 396.019L770.674 396.811L768.953 398.535Z" fill="#CACACA"/>
<path d="M875.747 398.535H905.723L910.336 396.019L924.111 388.497L927.354 386.724L953.031 366.36H953.044L959.492 361.254L962.835 358.6L966.97 355.317L987.394 339.129C987.959 338.68 988.485 338.183 988.965 337.645C990.077 336.384 990.92 334.909 991.443 333.311C991.966 331.713 992.158 330.024 992.006 328.35C991.998 328.205 991.977 328.062 991.944 327.922C991.72 326.079 991.083 324.31 990.079 322.748C989.076 321.186 987.732 319.872 986.149 318.903C983.918 317.534 981.31 316.909 978.701 317.119C976.091 317.33 973.616 318.364 971.633 320.073L956.651 332.714L950.668 337.758L927.505 357.304L913.466 369.152H913.453L910.776 371.417L886.054 390.56L878.99 396.019L875.747 398.535Z" fill="#FFB6B6"/>
<path d="M979.531 354.351C980.322 354.46 981.127 354.305 981.822 353.912C982.517 353.519 983.063 352.908 983.378 352.173C983.783 351.275 984.458 350.525 985.31 350.029C985.476 349.935 985.647 349.852 985.824 349.78C986.899 349.375 987.86 348.717 988.626 347.861C989.391 347.005 989.939 345.976 990.223 344.863C991.104 341.185 993.929 337.616 996.767 334.864C999.873 331.853 1003.19 328.965 1005.48 325.297C1008.8 320.006 1009.73 312.581 1003.34 308.166C1000.59 306.331 997.295 305.499 994.008 305.811C987.125 306.372 981.433 310.575 976.026 314.648L977.38 311.989C971.552 316.54 964.866 319.867 957.722 321.77C958.958 322.894 957.886 325.143 956.3 325.666C954.713 326.189 953.003 325.638 951.369 325.291C949.309 324.854 946.762 324.891 945.95 327.352C945.772 327.946 945.719 328.571 945.794 329.187C945.869 329.802 946.07 330.396 946.385 330.93C952.124 341.149 959.913 350.07 969.263 357.133C971.34 358.7 973.752 360.243 976.335 359.936C978.919 359.629 981.117 356.415 979.531 354.351Z" fill="#25929B"/>
<path d="M973.832 375.165L975.177 385.73L976.484 396.019L976.623 397.113L976.811 398.535H1026.48C1027.15 398.535 1027.8 398.51 1028.44 398.459C1029.59 398.389 1030.72 398.242 1031.85 398.019L1032.41 395.34L1032.74 393.743L1011.97 387.189L1002.61 384.246H1002.59L989.078 379.97L973.832 375.165Z" fill="#FFB6B6"/>
<path d="M954.54 350.336C955.558 352.587 956.928 355.594 958.461 359.002C958.8 359.732 959.14 360.486 959.492 361.254C960.145 362.713 960.824 364.222 961.528 365.769C964.632 372.649 968.013 380.121 970.665 385.969C972.865 390.862 974.574 394.636 975.19 396.019C975.378 396.409 975.466 396.61 975.466 396.61L976.623 397.113L979.928 398.535H1026.48C1027.15 398.535 1027.8 398.51 1028.44 398.459C1029.59 398.389 1030.72 398.242 1031.85 398.019C1032.68 397.868 1033.51 397.667 1034.31 397.44C1035.54 397.094 1036.73 396.661 1037.89 396.145C1040.52 395.003 1042.94 393.463 1045.1 391.579C1045.2 390.711 1045.4 389.315 1045.61 387.617C1045.95 385.081 1046.13 382.527 1046.15 379.97C1046.15 377.919 1041.12 374.599 1039.72 366.121C1039.24 363.025 1039.24 359.874 1039.7 356.776C1042.31 337.682 1041.39 308.464 1023 302.753L1009.78 279.585H984.553L980.456 291.672V291.685L978.106 298.615L976.698 302.753L976.396 303.156L967.397 314.967C967.397 314.967 965.965 316.79 964.004 319.671V319.683C961.174 323.802 958.714 328.162 956.651 332.714C955.305 335.663 954.334 338.769 953.76 341.959C953.2 344.768 953.471 347.679 954.54 350.336Z" fill="#2F2E41"/>
<path d="M1007.7 256.235C989.166 270.344 968.526 281.573 964.635 297.101C964.635 297.101 966.966 272.704 956.095 277.328C937.829 285.098 944.009 242.842 949.131 235.932C957.668 224.416 986.456 217.873 986.456 217.873L1006.88 229.092L1007.7 256.235Z" fill="#2F2E41"/>
<path d="M975.427 273.356C993.105 273.356 1007.44 259.015 1007.44 241.323C1007.44 223.632 993.105 209.29 975.427 209.29C957.749 209.29 943.418 223.632 943.418 241.323C943.418 259.015 957.749 273.356 975.427 273.356Z" fill="#FFB6B6"/>
<path d="M986.955 229.067L988.186 234.481L966.655 239.386C966.635 238.291 966.39 237.212 965.935 236.216C965.479 235.221 964.823 234.33 964.007 233.6C964.471 235.723 964.418 237.927 963.852 240.025C952.24 246.546 952.907 248.856 943.522 247.193C942.892 247.337 942.241 247.355 941.604 247.246C940.968 247.137 940.359 246.904 939.812 246.56C939.266 246.216 938.792 245.768 938.419 245.241C938.046 244.713 937.78 244.118 937.636 243.488C933.86 226.888 932.619 209.922 949.125 205.802C953.137 204.798 957.309 204.606 961.396 205.237C965.484 205.868 969.404 207.309 972.927 209.476C976.451 211.642 979.506 214.491 981.915 217.856C984.324 221.22 986.037 225.031 986.955 229.067Z" fill="#2F2E41"/>
<path d="M981.688 250.668C980.634 246.043 978.567 241.711 975.637 237.983C972.708 234.255 968.987 231.225 964.745 229.11C960.503 226.995 955.845 225.849 951.106 225.754C946.368 225.66 941.667 226.619 937.344 228.562C938.842 224.139 941.873 220.399 945.888 218.019L970.124 207.489C982.079 204.765 1001 197.035 1009.64 204.437C1017.59 211.238 1013.72 224.55 1021.05 232.005C1029.08 240.176 1029.76 249.837 1027.48 255.393C1024.85 261.822 1019.58 270.592 1013 272.49C1012.66 270.228 1011.53 268.159 1009.82 266.646C1010.29 268.802 1010.33 271.031 1009.94 273.203L970.124 304.98C973.843 301.744 977.011 293.404 979.193 284.011C980.484 278.451 988.19 276.5 981.941 267.064C975.691 257.627 982.537 254.398 981.688 250.668Z" fill="#2F2E41"/>
<path d="M1013.58 215.223L1013.47 215.447C1013.33 215.745 1013.19 216.043 1013.08 216.354L1013.07 216.366C1012.46 216.59 1011.78 216.229 1011.11 215.658C1011.21 217.001 1011.29 218.301 1011.34 219.575L990.146 211.274C993.832 211.911 994.377 198.786 997.021 201.301C997.17 201.438 997.307 201.574 997.443 201.711C997.114 200.919 996.889 200.089 996.773 199.239C996.66 198.173 996.744 197.095 997.021 196.06C997.026 196.055 997.03 196.049 997.032 196.043C997.034 196.036 997.035 196.029 997.034 196.023C997.298 195.086 997.708 194.198 998.25 193.39C999.031 192.215 1000.02 191.192 1001.17 190.372C1002.63 189.252 1004.34 188.494 1006.15 188.157C1007.96 187.82 1009.82 187.915 1011.59 188.434C1015.64 189.967 1018.99 192.932 1021 196.768C1022.83 199.72 1023.77 203.142 1023.69 206.617C1023.62 207.528 1023.42 208.426 1023.11 209.287C1022.72 210.495 1022.06 211.598 1021.18 212.509C1020.3 213.42 1019.21 214.115 1018.02 214.54C1017.72 214.64 1017.37 214.751 1017 214.888C1016.8 213.272 1016.79 211.638 1016.96 210.02C1015.58 211.577 1014.44 213.331 1013.58 215.223Z" fill="#2F2E41"/>
<path d="M993.05 210.429C993.078 211.122 993.161 211.812 993.298 212.491C993.309 212.579 993.325 212.666 993.348 212.752C994.217 216.614 998.92 208.579 1002.56 211.274C1004.82 212.908 1007.34 214.166 1010 215C1010.11 214.689 1011.11 215.298 1011.24 215C1011.28 214.925 1011.21 213.832 1011.24 213.758C1008.98 212.884 1006.88 211.624 1005.04 210.032C1001.63 207.511 1002.11 209.871 1001.32 206.306C1000.4 202.195 994.986 203.959 997.766 202.009L997.443 201.562C995.469 202.926 994.013 204.917 993.311 207.213C993.312 207.219 993.311 207.226 993.309 207.233C993.307 207.239 993.303 207.245 993.298 207.25C993.091 208.296 993.007 209.363 993.05 210.429Z" fill="#25929B"/>
<path d="M987.733 398.535H1010.8L1011.06 396.019L1011.97 387.189L1012.33 383.718L1013.89 368.612L1014.57 362.033L1016.06 347.531L1016.57 342.651C1016.89 339.419 1015.92 336.19 1013.89 333.661C1011.85 331.132 1008.9 329.505 1005.68 329.129C1005.21 329.075 1004.74 329.046 1004.27 329.041H1004.24C1003.66 329.047 1003.09 329.085 1002.53 329.155C999.621 329.572 996.958 331.007 995.01 333.205C993.17 335.267 992.081 337.891 991.919 340.651L991.906 340.84V340.852L990.812 355.996L990.247 363.744L989.945 368.033L989.078 379.97L988.714 385.001L987.922 396.019L987.733 398.535Z" fill="#FFB6B6"/>
<path d="M1021.96 358.917C1022.59 358.426 1023.04 357.741 1023.24 356.969C1023.45 356.196 1023.39 355.378 1023.08 354.64C1022.72 353.723 1022.66 352.715 1022.9 351.759C1022.95 351.574 1023.01 351.393 1023.08 351.217C1023.54 350.164 1023.74 349.016 1023.66 347.87C1023.58 346.723 1023.23 345.612 1022.63 344.632C1020.62 341.433 1020.03 336.918 1020.05 332.963C1020.06 328.635 1020.31 324.243 1019.29 320.038C1017.81 313.972 1013.15 308.122 1005.53 309.619C1002.3 310.306 999.404 312.087 997.332 314.66C992.929 319.983 991.963 326.996 991.103 333.713L990.145 330.888C989.334 338.241 987.047 345.355 983.421 351.802C985.089 351.701 985.95 354.039 985.217 355.541C984.484 357.043 982.895 357.884 981.506 358.813C979.756 359.983 978.005 361.834 979.198 364.134C979.499 364.677 979.909 365.151 980.402 365.527C980.895 365.903 981.46 366.173 982.062 366.32C993.381 369.341 1005.2 369.987 1016.78 368.217C1019.35 367.823 1022.14 367.171 1023.72 365.106C1025.31 363.04 1024.54 359.222 1021.96 358.917Z" fill="#25929B"/>
<path d="M777.235 385.177C777.235 388.719 778.642 392.117 781.145 394.622C783.648 397.127 787.043 398.535 790.583 398.535H817.932C821.472 398.535 824.867 397.127 827.37 394.622C829.874 392.117 831.28 388.719 831.28 385.177V374.993C831.28 372.837 830.759 370.714 829.761 368.804C828.763 366.893 827.318 365.253 825.549 364.023C823.78 362.793 821.74 362.01 819.603 361.74C817.466 361.47 815.296 361.722 813.277 362.473L785.928 372.657C783.376 373.608 781.176 375.316 779.622 377.554C778.068 379.792 777.235 382.452 777.235 385.177Z" fill="#CACACA"/>
<path d="M212.518 396.019C211.94 396.019 211.362 395.994 210.784 395.956V397.139L218.45 396.019H212.518ZM322.229 396.019V398.535H387.409V396.019H322.229ZM666.997 396.019L710.848 398.535H738.838L753.77 397.717L758.948 397.44L770.674 396.811L777.914 396.422L782.954 396.145H782.966L785.292 396.019H666.997ZM1026.48 396.019H1024.12L1024.26 398.535H1026.48C1027.15 398.535 1027.8 398.51 1028.44 398.459L1028.56 396.887L1028.63 395.918C1027.92 395.99 1027.2 396.024 1026.48 396.019ZM212.518 396.019C211.94 396.019 211.362 395.994 210.784 395.956V397.139L218.45 396.019H212.518ZM322.229 396.019V398.535H387.409V396.019H322.229ZM666.997 396.019L710.848 398.535H738.838L753.77 397.717L758.948 397.44L770.674 396.811L777.914 396.422L782.954 396.145H782.966L785.292 396.019H666.997ZM212.518 396.019C211.94 396.019 211.362 395.994 210.784 395.956V397.139L218.45 396.019H212.518ZM233.922 396.019V398.535H465.209V396.019H233.922ZM666.997 396.019L710.848 398.535H738.838L753.77 397.717L758.948 397.44L770.674 396.811L777.914 396.422L782.954 396.145H782.966L785.292 396.019H666.997ZM1026.48 396.019H927.995C927.857 396.849 927.731 397.692 927.618 398.535H1026.48C1027.15 398.535 1027.8 398.51 1028.44 398.459L1028.56 396.887L1028.63 395.918C1027.92 395.99 1027.2 396.024 1026.48 396.019ZM212.518 396.019C211.94 396.019 211.362 395.994 210.784 395.956V397.139L218.45 396.019H212.518ZM212.518 396.019C211.94 396.019 211.362 395.994 210.784 395.956V397.139L218.45 396.019H212.518ZM212.518 396.019C211.94 396.019 211.362 395.994 210.784 395.956V397.139L218.45 396.019H212.518ZM212.518 396.019C211.94 396.019 211.362 395.994 210.784 395.956V397.139L218.45 396.019H212.518ZM212.518 396.019C211.94 396.019 211.362 395.994 210.784 395.956V397.139L218.45 396.019H212.518ZM212.518 396.019C211.94 396.019 211.362 395.994 210.784 395.956V397.139L218.45 396.019H212.518ZM212.518 396.019C211.94 396.019 211.362 395.994 210.784 395.956V397.139L218.45 396.019H212.518ZM212.518 396.019C211.94 396.019 211.362 395.994 210.784 395.956C206.648 395.684 202.637 394.424 199.088 392.282C195.539 390.139 192.554 387.177 190.385 383.642H187.469C189.41 387.19 192.079 390.287 195.299 392.729C198.52 395.172 202.221 396.906 206.158 397.818L210.784 397.139L218.45 396.019H212.518ZM1026.48 30H212.518C204.957 30.0091 197.709 33.0189 192.363 38.3691C187.017 43.7193 184.009 50.9731 184 58.5394V369.995C183.998 376.459 186.19 382.731 190.215 387.786C194.241 392.84 199.862 396.377 206.158 397.818C207.679 398.165 209.226 398.384 210.784 398.472C211.349 398.522 211.94 398.535 212.518 398.535H1026.48C1027.15 398.535 1027.8 398.51 1028.44 398.459C1029.59 398.389 1030.72 398.242 1031.85 398.019C1032.68 397.868 1033.51 397.667 1034.31 397.44C1035.54 397.093 1036.73 396.661 1037.89 396.145C1040.52 395.003 1042.94 393.463 1045.1 391.579C1045.27 391.441 1045.45 391.29 1045.62 391.126C1048 388.981 1049.99 386.451 1051.52 383.642C1053.8 379.455 1055 374.764 1055 369.995V58.5394C1054.99 50.9731 1051.98 43.7193 1046.64 38.3691C1041.29 33.0189 1034.04 30.0091 1026.48 30ZM1052.49 369.995C1052.49 371.886 1052.28 373.772 1051.87 375.618C1051.39 377.838 1050.61 379.983 1049.56 381.995C1048.58 383.887 1047.37 385.649 1045.95 387.24V387.252L1045.94 387.265C1045.84 387.378 1045.72 387.504 1045.61 387.617C1042.51 391.01 1038.55 393.511 1034.16 394.862C1033.76 394.988 1033.36 395.101 1032.95 395.214C1032.78 395.264 1032.6 395.302 1032.41 395.34C1031.17 395.63 1029.91 395.824 1028.63 395.918C1027.92 395.99 1027.2 396.024 1026.48 396.019H212.518C211.94 396.019 211.362 395.994 210.784 395.956C204.204 395.513 198.038 392.585 193.532 387.766C189.027 382.947 186.518 376.595 186.514 369.995V228.33C186.514 227.462 186.514 226.606 186.526 225.751C187.181 174.261 208.086 125.104 244.71 88.9331C281.333 52.7622 330.725 32.492 382.181 32.5156H1026.48C1029.9 32.5149 1033.28 33.1876 1036.43 34.4951C1039.59 35.8027 1042.46 37.7196 1044.87 40.1363C1047.29 42.5529 1049.2 45.4221 1050.51 48.5797C1051.81 51.7374 1052.49 55.1217 1052.49 58.5394L1052.49 369.995ZM212.518 396.019C211.94 396.019 211.362 395.994 210.784 395.956V397.139L218.45 396.019H212.518ZM212.518 396.019C211.94 396.019 211.362 395.994 210.784 395.956V397.139L218.45 396.019H212.518ZM212.518 396.019C211.94 396.019 211.362 395.994 210.784 395.956V397.139L218.45 396.019H212.518ZM212.518 396.019C211.94 396.019 211.362 395.994 210.784 395.956V397.139L218.45 396.019H212.518ZM212.518 396.019C211.94 396.019 211.362 395.994 210.784 395.956V397.139L218.45 396.019H212.518ZM212.518 396.019C211.94 396.019 211.362 395.994 210.784 395.956V397.139L218.45 396.019H212.518ZM212.518 396.019C211.94 396.019 211.362 395.994 210.784 395.956V397.139L218.45 396.019H212.518ZM212.518 396.019C211.94 396.019 211.362 395.994 210.784 395.956V397.139L218.45 396.019H212.518ZM666.997 396.019L710.848 398.535H738.838L753.77 397.717L758.948 397.44L770.674 396.811L777.914 396.422L782.954 396.145H782.966L785.292 396.019H666.997ZM322.229 396.019V398.535H387.409V396.019H322.229ZM212.518 396.019C211.94 396.019 211.362 395.994 210.784 395.956V397.139L218.45 396.019H212.518ZM666.997 396.019L710.848 398.535H738.838L753.77 397.717L758.948 397.44L770.674 396.811L777.914 396.422L782.954 396.145H782.966L785.292 396.019H666.997ZM322.229 396.019V398.535H387.409V396.019H322.229ZM212.518 396.019C211.94 396.019 211.362 395.994 210.784 395.956V397.139L218.45 396.019H212.518ZM1026.48 396.019H1024.12L1024.26 398.535H1026.48C1027.15 398.535 1027.8 398.51 1028.44 398.459L1028.56 396.887L1028.63 395.918C1027.92 395.99 1027.2 396.024 1026.48 396.019ZM666.997 396.019L710.848 398.535H738.838L753.77 397.717L758.948 397.44L770.674 396.811L777.914 396.422L782.954 396.145H782.966L785.292 396.019H666.997ZM322.229 396.019V398.535H387.409V396.019H322.229Z" fill="#3F3D56"/>
</g>
<defs>
<clipPath id="clip0_2_311">
<rect width="871" height="370" fill="white" transform="translate(184 30)"/>
</clipPath>
</defs>
</svg>
