<svg width="1240" height="430" viewBox="0 0 1240 430" fill="none" xmlns="http://www.w3.org/2000/svg">
<g clip-path="url(#clip0_1_22)">
<rect width="1239" height="430" transform="translate(1 -2)" fill="white"/>
<path d="M678.056 238.933C771.251 238.933 846.801 198.134 846.801 147.806C846.801 97.4778 771.251 56.6786 678.056 56.6786C584.861 56.6786 509.312 97.4778 509.312 147.806C509.312 198.134 584.861 238.933 678.056 238.933Z" fill="#FF6363"/>
<path d="M667.723 147.607L650.809 158.023V187.132C650.809 187.132 597.158 261.393 622.998 298.427C622.998 298.427 640.809 306.478 641.843 294.133C642.876 281.789 655.796 261.393 655.796 261.393C655.796 261.393 690.582 234.02 689.588 216.845C689.588 216.845 731.942 155.46 711.262 148.045L667.723 147.607Z" fill="#25929B"/>
<path d="M600.12 426.854C599.32 400.569 598.574 374.283 597.895 347.998C597.217 321.723 596.605 295.448 596.071 269.172C595.536 242.9 595.079 216.628 594.711 190.355C594.342 164.079 594.062 137.802 593.88 111.525C593.79 98.3836 593.724 85.2416 593.684 72.0996C593.659 63.6698 591.933 52.7323 602.323 45.6559C604.566 44.1282 607.374 43.0214 610.596 42.1727C616.709 40.5629 611.357 35.6388 605.262 37.2441C589.466 41.4041 584.814 51.2423 583.534 59.9473C582.733 65.3945 583.109 70.8936 583.128 76.3519C583.151 83.0519 583.181 89.752 583.218 96.452C583.363 123.117 583.612 149.781 583.954 176.445C584.298 203.233 584.736 230.021 585.255 256.808C585.773 283.47 586.372 310.13 587.04 336.791C587.71 363.461 588.449 390.131 589.246 416.801C589.347 420.152 589.448 423.503 589.55 426.854C589.662 430.523 600.232 430.534 600.12 426.854Z" fill="#2F2E41"/>
<path d="M711.262 117.741C711.262 117.741 755.326 209.463 802.464 233.281C802.464 233.281 816.865 286.15 896.314 294.133C896.314 294.133 838.055 257.081 850.596 239.924C865.504 219.529 846.62 98.7653 711.453 117.551" fill="#25929B"/>
<path d="M589.419 199.92C596.116 200.714 603.061 199.729 608.558 197.561C614.298 195.297 618.088 192.179 620.782 188.667C623.535 185.077 625.04 181.234 626.634 177.457C628.327 173.447 629.912 169.423 631.667 165.42C637.836 151.352 646.953 136.26 668.982 127.041C680.976 122.021 696.128 119.432 711.262 119.643C715.798 119.707 715.795 115.901 711.262 115.838C697.155 115.641 682.934 117.697 670.926 121.708C659.504 125.524 650.398 131.052 643.51 137.233C628.26 150.919 624.694 166.865 617.358 182.044C615.561 185.763 613.253 189.698 608.363 192.599C604.025 195.172 597.527 196.99 591.292 196.251C589.435 196.031 587.481 196.552 586.958 197.58C586.474 198.532 587.552 199.699 589.419 199.92Z" fill="#2F2E41"/>
<path d="M896.013 294.746C869.596 290.957 848.177 276.172 834.071 251.99C823.471 233.818 820.631 216.535 820.604 216.362C816.936 193.507 804.291 161.447 764.883 138.512C741.386 124.837 719.265 120.876 719.044 120.838L719.765 119.631C720.69 119.791 742.694 123.733 766.605 137.649C788.606 150.454 816.241 174.486 822.944 216.253C823.052 216.936 834.535 284.615 896.616 293.52L896.013 294.746Z" fill="#2F2E41"/>
<path d="M709.274 14.1526C709.274 14.1526 753.338 105.875 800.476 129.693C800.476 129.693 814.878 182.562 894.327 190.545C894.327 190.545 836.068 153.493 848.608 136.336C863.516 115.941 844.633 -4.82268 709.466 13.9627" fill="#25929B"/>
<path d="M587.431 96.3324C594.129 97.126 601.074 96.1411 606.571 93.973C612.311 91.7092 616.101 88.591 618.794 85.0793C621.548 81.4888 623.052 77.6459 624.646 73.8695C626.339 69.8589 627.924 65.835 629.679 61.8321C635.848 47.7645 644.966 32.6719 666.994 23.4531C678.988 18.4334 694.14 15.8438 709.274 16.0553C713.81 16.1186 713.808 12.3133 709.274 12.25C695.167 12.0528 680.946 14.1088 668.939 18.1198C657.516 21.9356 648.41 27.4636 641.522 33.645C626.273 47.3312 622.706 63.277 615.371 78.4561C613.574 82.1746 611.266 86.1101 606.375 89.0112C602.037 91.5845 595.54 93.4019 589.305 92.663C587.448 92.443 585.493 92.9645 584.971 93.9919C584.486 94.944 585.565 96.1112 587.431 96.3324Z" fill="#2F2E41"/>
<path d="M894.025 191.158C867.609 187.369 846.189 172.584 832.083 148.402C821.483 130.23 818.643 112.947 818.616 112.774C814.948 89.919 802.303 57.8594 762.895 34.9238C739.398 21.2488 717.277 17.2883 717.056 17.2499L717.777 16.0428C718.702 16.2035 740.706 20.1448 764.617 34.0611C786.619 46.8662 814.253 70.8977 820.956 112.665C821.065 113.349 832.548 181.027 894.628 189.933L894.025 191.158Z" fill="#2F2E41"/>
<path d="M470.133 215.425C470.133 215.425 426.069 307.147 378.931 330.965C378.931 330.965 364.529 383.834 285.081 391.817C285.081 391.817 343.339 354.765 330.799 337.608C315.891 317.213 334.774 196.449 469.941 215.235" fill="#25929B"/>
<path d="M590.102 293.935C584.657 294.58 578.826 293.257 574.637 291.158C569.944 288.805 567.273 285.566 565.396 282.317C563.238 278.58 561.785 274.717 560.211 270.9C558.516 266.788 556.856 262.671 554.933 258.588C548.239 244.381 537.332 229.792 514.62 220.896C501.845 215.892 485.886 213.302 470.133 213.522C465.607 213.585 465.589 217.391 470.133 217.327C483.746 217.137 497.225 219.206 508.597 223.259C519.297 227.073 527.513 232.598 533.692 238.605C540.584 245.304 544.89 252.633 548.343 260.037C550.225 264.074 551.861 268.142 553.537 272.205C555.126 276.054 556.585 279.955 558.827 283.712C561.18 287.657 564.695 291.626 570.683 294.339C576.632 297.033 584.228 298.522 591.976 297.604C593.835 297.384 594.922 296.217 594.436 295.264C593.909 294.228 591.967 293.714 590.102 293.935Z" fill="#2F2E41"/>
<path d="M285.382 392.43L284.779 391.205C346.859 382.299 358.342 314.621 358.451 313.938C362.151 290.884 374.929 258.533 414.79 235.333C438.701 221.417 460.705 217.476 461.63 217.315L462.351 218.522C462.129 218.561 439.904 222.554 416.402 236.26C394.696 248.918 367.428 272.689 360.791 314.047C360.764 314.219 357.924 331.502 347.324 349.674C333.218 373.856 311.799 388.641 285.382 392.43Z" fill="#2F2E41"/>
<path d="M463.176 32.938C463.176 32.938 419.112 124.66 371.974 148.478C371.974 148.478 357.572 201.348 278.123 209.331C278.123 209.331 336.382 172.278 323.842 155.121C308.934 134.726 327.817 13.9627 462.984 32.7481" fill="#25929B"/>
<path d="M583.145 111.448C577.7 112.094 571.869 110.771 567.68 108.671C562.987 106.319 560.316 103.079 558.439 99.8299C556.28 96.0932 554.828 92.2302 553.254 88.4129C551.559 84.3013 549.899 80.1844 547.976 76.1017C541.282 61.8947 530.375 47.3054 507.663 38.409C494.887 33.4051 478.929 30.8152 463.176 31.0354C458.65 31.0986 458.632 34.9042 463.176 34.8407C476.789 34.6505 490.268 36.7192 501.64 40.7725C512.34 44.5865 520.556 50.1117 526.735 56.1185C533.627 62.8179 537.933 70.1467 541.386 77.5503C543.268 81.5871 544.903 85.6557 546.58 89.7184C548.169 93.5672 549.628 97.4683 551.87 101.226C554.223 105.17 557.738 109.14 563.726 111.852C569.675 114.547 577.271 116.036 585.019 115.118C586.878 114.897 587.964 113.731 587.479 112.777C586.952 111.742 585.01 111.227 583.145 111.448Z" fill="#2F2E41"/>
<path d="M278.425 209.944L277.822 208.718C339.914 199.811 351.385 132.134 351.494 131.451C355.194 108.397 367.972 76.0461 407.833 52.8464C431.744 38.9301 453.748 34.9888 454.673 34.8281L455.394 36.0352C455.172 36.074 432.947 40.0672 409.445 53.7729C387.739 66.4313 360.472 90.2021 353.834 131.56C353.807 131.732 350.967 149.015 340.367 167.187C326.261 191.369 304.841 206.154 278.425 209.944Z" fill="#2F2E41"/>
<path d="M590.356 57.0006C590.356 57.0006 627.926 50.4534 633.91 72.7308C639.894 95.0082 660.083 128.758 660.083 128.758C660.083 128.758 646.815 146.969 650.809 158.023C650.809 158.023 692.187 160.29 711.262 148.045L683.587 120.398C683.587 120.398 662.764 44.9445 598.157 43.9452L590.356 57.0006Z" fill="#2F2E41"/>
<path d="M850.416 429.149C850.416 429.567 849.794 429.903 849.019 429.903H366.079C365.304 429.903 364.681 429.567 364.681 429.149C364.681 428.73 365.304 428.394 366.079 428.394H849.019C849.794 428.394 850.416 428.73 850.416 429.149Z" fill="#2E2E43"/>
</g>
<defs>
<clipPath id="clip0_1_22">
<rect width="1239" height="430" fill="white" transform="translate(0.898926)"/>
</clipPath>
</defs>
</svg>
