<svg width="1239" height="430" viewBox="0 0 1239 430" fill="none" xmlns="http://www.w3.org/2000/svg">
<rect width="1239" height="430" fill="white"/>
<g clip-path="url(#clip0_38_4)">
<path d="M362.914 109.924C380.417 109.924 394.607 95.7195 394.607 78.1972C394.607 60.6749 380.417 46.4702 362.914 46.4702C345.41 46.4702 331.22 60.6749 331.22 78.1972C331.22 95.7195 345.41 109.924 362.914 109.924Z" fill="#FF6584"/>
<path d="M617.913 402C786.864 402 923.825 396.442 923.825 389.585C923.825 382.728 786.864 377.17 617.913 377.17C448.962 377.17 312 382.728 312 389.585C312 396.442 448.962 402 617.913 402Z" fill="#E6E6E6"/>
<path d="M389.856 233.997C432.854 233.997 467.711 199.103 467.711 156.059C467.711 113.015 432.854 78.1211 389.856 78.1211C346.857 78.1211 312 113.015 312 156.059C312 199.103 346.857 233.997 389.856 233.997Z" fill="#25929B"/>
<path d="M397.36 390.812H381.413L388.683 144.321L397.36 390.812Z" fill="#3F3D56"/>
<path d="M390.09 191.037L407.209 167.327L389.856 196.906L387.979 193.619L390.09 191.037Z" fill="#3F3D56"/>
<path d="M388.214 214.982L371.095 191.272L388.449 220.851L390.325 217.564L388.214 214.982Z" fill="#3F3D56"/>
<path d="M882.141 391.071H866.195L873.464 144.581L882.141 391.071Z" fill="#3F3D56"/>
<path d="M874.871 191.296L891.991 167.587L874.637 197.165L872.761 193.879L874.871 191.296Z" fill="#3F3D56"/>
<path d="M872.995 215.241L855.877 191.532L873.23 221.11L875.106 217.824L872.995 215.241Z" fill="#3F3D56"/>
<path d="M628.284 391.03C708.384 391.03 773.318 326.027 773.318 245.842C773.318 165.657 708.384 100.654 628.284 100.654C548.183 100.654 483.249 165.657 483.249 245.842C483.249 326.027 548.183 391.03 628.284 391.03Z" fill="#3F3D56"/>
<path d="M628.284 379.011C701.753 379.011 761.312 319.389 761.312 245.842C761.312 172.295 701.753 112.673 628.284 112.673C554.814 112.673 495.255 172.295 495.255 245.842C495.255 319.389 554.814 379.011 628.284 379.011Z" fill="white"/>
<path d="M627.803 264.111C637.617 264.111 645.573 256.147 645.573 246.323C645.573 236.499 637.617 228.535 627.803 228.535C617.99 228.535 610.034 236.499 610.034 246.323C610.034 256.147 617.99 264.111 627.803 264.111Z" fill="#3F3D56"/>
<path d="M631.645 119.404H623.961V133.826H631.645V119.404Z" fill="#3F3D56"/>
<path d="M631.645 358.819H623.961V373.242H631.645V358.819Z" fill="#3F3D56"/>
<path d="M515.426 250.169V242.477H501.018V250.169H515.426Z" fill="#3F3D56"/>
<path d="M754.588 250.169V242.477H740.181V250.169H754.588Z" fill="#3F3D56"/>
<path d="M622.681 254.045L629.248 239.014L711.53 284.633L622.681 254.045Z" fill="#3F3D56"/>
<path d="M647.013 65.5593H609.554V108.827H647.013V65.5593Z" fill="#3F3D56"/>
<path d="M628.284 77.5782C652.155 77.5782 671.506 72.1972 671.506 65.5594C671.506 58.9216 652.155 53.5405 628.284 53.5405C604.413 53.5405 585.062 58.9216 585.062 65.5594C585.062 72.1972 604.413 77.5782 628.284 77.5782Z" fill="#3F3D56"/>
<path d="M709.205 271.563L706.804 274.928C706.804 274.928 695.758 287.908 695.278 281.658C694.798 275.409 703.442 271.082 703.442 271.082L708.245 268.197L709.205 271.563Z" fill="#FFB8B8"/>
<path d="M777.566 282.916L779.577 286.529C779.577 286.529 786.569 302.078 780.721 299.838C774.873 297.598 774.666 287.925 774.666 287.925L774.117 282.345L777.566 282.916Z" fill="#FFB8B8"/>
<path d="M766.755 218.856C774.831 218.856 781.378 212.302 781.378 204.217C781.378 196.133 774.831 189.579 766.755 189.579C758.679 189.579 752.132 196.133 752.132 204.217C752.132 212.302 758.679 218.856 766.755 218.856Z" fill="#2F2E41"/>
<path d="M765.394 324.446L767.315 336.945V340.791H778.361V335.984C778.361 335.984 778.841 327.33 776.92 324.926C774.999 322.523 765.394 324.446 765.394 324.446Z" fill="#FFB8B8"/>
<path d="M745.704 324.446L747.625 336.945V340.791H758.671V335.984C758.671 335.984 759.151 327.33 757.23 324.926C755.309 322.523 745.704 324.446 745.704 324.446Z" fill="#FFB8B8"/>
<path d="M753.137 224.041C753.137 224.041 748.888 226.283 751.79 231.382C754.692 236.481 771.717 289.233 771.717 289.233L781.54 286.442L772.877 253.08L767.917 232.111L753.137 224.041Z" fill="#25929B"/>
<path d="M765.154 219.401C771.254 219.401 776.2 214.45 776.2 208.343C776.2 202.237 771.254 197.286 765.154 197.286C759.054 197.286 754.108 202.237 754.108 208.343C754.108 214.45 759.054 219.401 765.154 219.401Z" fill="#FFB8B8"/>
<path d="M770.196 210.026L768.756 232.621L758.671 225.41C758.671 225.41 762.032 211.949 761.072 210.987L770.196 210.026Z" fill="#FFB8B8"/>
<path d="M770.196 230.698L759.332 222.645C759.332 222.645 754.348 220.603 752.908 223.006C751.467 225.41 744.263 260.986 748.105 267.717C748.105 267.717 768.756 272.043 773.078 269.64L774.999 257.14C774.999 257.14 777.4 249.448 773.558 244.64L770.196 230.698Z" fill="#25929B"/>
<path d="M755.789 223.487C755.789 223.487 751.947 220.603 748.585 225.41C745.224 230.218 704.883 268.197 704.883 268.197L711.606 275.889L738.02 253.775L754.829 240.313L755.789 223.487Z" fill="#25929B"/>
<path d="M773.318 269.399C773.318 269.399 749.546 264.832 747.145 268.197L746.664 273.486C746.664 273.486 741.382 283.581 744.263 299.927C747.145 316.273 745.224 326.369 745.224 326.369C745.224 326.369 758.19 324.926 767.795 326.369C777.4 327.811 778.841 326.369 778.841 326.369L773.318 269.399Z" fill="#2F2E41"/>
<path d="M779.321 338.868L765.394 339.349L770.196 375.405C770.196 375.405 766.354 390.79 770.677 391.751C773.681 392.358 776.736 392.68 779.801 392.713C779.801 392.713 784.124 397.039 788.926 396.559C792.115 396.151 795.206 395.174 798.051 393.674C798.051 393.674 799.011 390.79 795.649 389.828C792.288 388.867 783.163 385.982 781.242 375.886L779.321 338.868Z" fill="#2F2E41"/>
<path d="M759.631 338.868L745.704 339.349L750.506 375.405C750.506 375.405 746.664 390.79 750.987 391.751C753.991 392.358 757.046 392.68 760.111 392.713C760.111 392.713 764.433 397.039 769.236 396.559C772.425 396.151 775.516 395.174 778.361 393.674C778.361 393.674 779.321 390.79 775.959 389.828C772.598 388.867 763.473 385.982 761.552 375.886L759.631 338.868Z" fill="#2F2E41"/>
<path d="M771.87 194.867C775.212 194.867 777.921 192.155 777.921 188.81C777.921 185.465 775.212 182.753 771.87 182.753C768.528 182.753 765.819 185.465 765.819 188.81C765.819 192.155 768.528 194.867 771.87 194.867Z" fill="#2F2E41"/>
<path d="M779.938 185.529C779.938 184.032 779.384 182.588 778.383 181.475C777.382 180.363 776.005 179.661 774.518 179.504C774.727 179.483 774.937 179.472 775.148 179.472C776.753 179.472 778.292 180.11 779.427 181.246C780.561 182.382 781.199 183.923 781.199 185.529C781.199 187.136 780.561 188.676 779.427 189.812C778.292 190.948 776.753 191.586 775.148 191.586C774.937 191.586 774.727 191.575 774.518 191.554C776.005 191.398 777.382 190.696 778.383 189.583C779.384 188.471 779.938 187.026 779.938 185.529Z" fill="#2F2E41"/>
<path d="M765.054 207.171C770.624 207.171 775.139 204.459 775.139 201.114C775.139 197.768 770.624 195.056 765.054 195.056C759.484 195.056 754.969 197.768 754.969 201.114C754.969 204.459 759.484 207.171 765.054 207.171Z" fill="#2F2E41"/>
<path d="M923.904 58.0724C923.492 50.7814 920.506 43.8737 915.48 38.581C910.454 33.2884 903.713 29.9547 896.46 29.1745C889.206 28.3942 881.912 30.2181 875.877 34.3209C869.842 38.4237 865.459 44.5387 863.509 51.5757C863.136 51.5623 862.764 51.5473 862.388 51.5473C855.737 51.5485 849.266 53.7052 843.942 57.6948C838.618 61.6843 834.728 67.2923 832.853 73.6796C828.446 71.7412 823.522 71.3207 818.851 72.4838C814.18 73.6469 810.026 76.328 807.04 80.1072H903.059C905.86 80.1151 908.634 79.5571 911.215 78.4666C913.795 77.3761 916.13 75.7755 918.078 73.7606C920.026 71.7458 921.548 69.3581 922.553 66.7405C923.558 64.1229 924.024 61.3293 923.925 58.5269C923.919 58.3756 923.912 58.2242 923.904 58.0724Z" fill="#E6E6E6"/>
<path d="M843.632 122.924C848.199 122.924 851.9 119.219 851.9 114.648C851.9 110.077 848.199 106.371 843.632 106.371C839.066 106.371 835.365 110.077 835.365 114.648C835.365 119.219 839.066 122.924 843.632 122.924Z" fill="#E6E6E6"/>
<path d="M868.597 102.025C872.399 102.025 875.481 98.94 875.481 95.1339C875.481 91.3279 872.399 88.2424 868.597 88.2424C864.795 88.2424 861.712 91.3279 861.712 95.1339C861.712 98.94 864.795 102.025 868.597 102.025Z" fill="#E6E6E6"/>
<path d="M902.196 140.857C906.763 140.857 910.464 137.151 910.464 132.58C910.464 128.009 906.763 124.304 902.196 124.304C897.63 124.304 893.929 128.009 893.929 132.58C893.929 137.151 897.63 140.857 902.196 140.857Z" fill="#E6E6E6"/>
<path d="M839.499 178.791C844.065 178.791 847.766 175.086 847.766 170.515C847.766 165.944 844.065 162.238 839.499 162.238C834.932 162.238 831.231 165.944 831.231 170.515C831.231 175.086 834.932 178.791 839.499 178.791Z" fill="#E6E6E6"/>
<path d="M902.196 226.382C906.763 226.382 910.464 222.676 910.464 218.105C910.464 213.534 906.763 209.828 902.196 209.828C897.63 209.828 893.929 213.534 893.929 218.105C893.929 222.676 897.63 226.382 902.196 226.382Z" fill="#E6E6E6"/>
<path d="M889.092 377.697C889.095 377.608 889.106 377.52 889.106 377.429C889.108 376.043 888.761 374.678 888.098 373.46C887.434 372.243 886.476 371.212 885.31 370.463C884.144 369.713 882.809 369.27 881.427 369.173C880.045 369.076 878.661 369.329 877.402 369.908C876.221 368.544 874.625 367.604 872.859 367.234C871.093 366.864 869.255 367.084 867.626 367.86C865.998 368.636 864.668 369.926 863.841 371.531C863.014 373.136 862.736 374.968 863.049 376.746C863.007 376.745 862.966 376.74 862.924 376.74C861.608 376.738 860.31 377.05 859.139 377.651C857.968 378.253 856.957 379.125 856.19 380.196C855.424 381.267 854.924 382.506 854.732 383.809C854.54 385.113 854.661 386.443 855.087 387.69C855.512 388.937 856.228 390.065 857.177 390.979C858.125 391.892 859.277 392.566 860.538 392.945C861.799 393.323 863.132 393.394 864.426 393.153C865.72 392.912 866.937 392.364 867.977 391.557C868.634 392.837 869.612 393.923 870.816 394.709C872.02 395.495 873.407 395.953 874.842 396.037C876.277 396.122 877.709 395.831 878.996 395.192C880.284 394.554 881.383 393.59 882.186 392.397C883.169 393.113 884.299 393.603 885.494 393.832C886.689 394.061 887.92 394.022 889.098 393.72C890.277 393.417 891.374 392.858 892.311 392.081C893.249 391.305 894.003 390.331 894.521 389.229C895.039 388.127 895.307 386.924 895.307 385.706C895.306 384.488 895.037 383.286 894.518 382.184C894 381.082 893.244 380.109 892.306 379.333C891.368 378.558 890.271 377.999 889.092 377.697Z" fill="#E6E6E6"/>
<path d="M909.775 188.447C911.678 188.447 913.22 186.903 913.22 184.999C913.22 183.094 911.678 181.55 909.775 181.55C907.873 181.55 906.33 183.094 906.33 184.999C906.33 186.903 907.873 188.447 909.775 188.447Z" fill="#E6E6E6"/>
<path d="M887.728 105.681C889.63 105.681 891.173 104.137 891.173 102.233C891.173 100.328 889.63 98.7842 887.728 98.7842C885.825 98.7842 884.283 100.328 884.283 102.233C884.283 104.137 885.825 105.681 887.728 105.681Z" fill="#E6E6E6"/>
<path d="M876.015 191.206C877.917 191.206 879.46 189.662 879.46 187.757C879.46 185.853 877.917 184.309 876.015 184.309C874.112 184.309 872.57 185.853 872.57 187.757C872.57 189.662 874.112 191.206 876.015 191.206Z" fill="#E6E6E6"/>
<path d="M878.771 187.758C880.673 187.758 882.216 186.214 882.216 184.309C882.216 182.404 880.673 180.86 878.771 180.86C876.868 180.86 875.326 182.404 875.326 184.309C875.326 186.214 876.868 187.758 878.771 187.758Z" fill="#E6E6E6"/>
<path d="M880.838 184.309C882.74 184.309 884.283 182.765 884.283 180.86C884.283 178.956 882.74 177.412 880.838 177.412C878.935 177.412 877.393 178.956 877.393 180.86C877.393 182.765 878.935 184.309 880.838 184.309Z" fill="#E6E6E6"/>
<path d="M872.57 213.277C874.473 213.277 876.015 211.733 876.015 209.828C876.015 207.924 874.473 206.38 872.57 206.38C870.667 206.38 869.125 207.924 869.125 209.828C869.125 211.733 870.667 213.277 872.57 213.277Z" fill="#E6E6E6"/>
<path d="M923.555 251.901C925.458 251.901 927 250.357 927 248.453C927 246.548 925.458 245.004 923.555 245.004C921.652 245.004 920.11 246.548 920.11 248.453C920.11 250.357 921.652 251.901 923.555 251.901Z" fill="#E6E6E6"/>
<path d="M849.833 253.97C851.736 253.97 853.278 252.426 853.278 250.522C853.278 248.617 851.736 247.073 849.833 247.073C847.931 247.073 846.388 248.617 846.388 250.522C846.388 252.426 847.931 253.97 849.833 253.97Z" fill="#E6E6E6"/>
<path d="M853.967 147.754C855.87 147.754 857.412 146.21 857.412 144.306C857.412 142.401 855.87 140.857 853.967 140.857C852.065 140.857 850.522 142.401 850.522 144.306C850.522 146.21 852.065 147.754 853.967 147.754Z" fill="#E6E6E6"/>
<path d="M869.814 209.829C871.717 209.829 873.259 208.285 873.259 206.38C873.259 204.475 871.717 202.931 869.814 202.931C867.911 202.931 866.369 204.475 866.369 206.38C866.369 208.285 867.911 209.829 869.814 209.829Z" fill="#E6E6E6"/>
<path d="M866.369 204.311C868.272 204.311 869.814 202.767 869.814 200.862C869.814 198.958 868.272 197.414 866.369 197.414C864.466 197.414 862.924 198.958 862.924 200.862C862.924 202.767 864.466 204.311 866.369 204.311Z" fill="#E6E6E6"/>
</g>
<defs>
<clipPath id="clip0_38_4">
<rect width="615" height="373" fill="white" transform="translate(312 29)"/>
</clipPath>
</defs>
</svg>
