<svg width="1239" height="430" viewBox="0 0 1239 430" fill="none" xmlns="http://www.w3.org/2000/svg">
<rect width="1239" height="430" fill="white"/>
<g clip-path="url(#clip0_2_168)">
<path d="M661.044 230.781C703.666 230.781 738.217 196.124 738.217 153.373C738.217 110.621 703.666 75.9644 661.044 75.9644C618.422 75.9644 583.87 110.621 583.87 153.373C583.87 196.124 618.422 230.781 661.044 230.781Z" fill="#FF6363"/>
<path d="M656.318 153.204L648.582 162.051V186.778C648.582 186.778 624.045 249.859 635.864 281.317C635.864 281.317 644.009 288.156 644.482 277.67C644.954 267.184 650.863 249.859 650.863 249.859C650.863 249.859 666.772 226.607 666.318 212.017C666.318 212.017 685.688 159.874 676.23 153.575L656.318 153.204Z" fill="#25929B"/>
<path d="M625.4 390.409C625.034 368.082 624.693 345.754 624.383 323.425C624.073 301.106 623.793 278.787 623.548 256.467C623.304 234.15 623.095 211.833 622.926 189.516C622.758 167.195 622.63 144.875 622.547 122.554C622.505 111.391 622.475 100.227 622.457 89.0637C622.445 81.903 621.656 72.6122 626.408 66.6011C627.433 65.3034 628.718 64.3632 630.192 63.6423C632.987 62.2748 630.54 58.092 627.752 59.4557C620.528 62.9894 618.4 71.3465 617.815 78.7409C617.448 83.368 617.621 88.0392 617.629 92.6758C617.64 98.3672 617.654 104.059 617.67 109.75C617.737 132.4 617.851 155.05 618.007 177.7C618.164 200.455 618.364 223.21 618.602 245.964C618.839 268.612 619.113 291.259 619.418 313.905C619.724 336.561 620.063 359.216 620.427 381.87C620.473 384.717 620.52 387.563 620.566 390.409C620.617 393.526 625.451 393.536 625.4 390.409Z" fill="#2F2E41"/>
<path d="M676.23 127.833C676.23 127.833 696.382 205.747 717.941 225.979C717.941 225.979 724.527 270.889 760.862 277.67C760.862 277.67 734.218 246.196 739.953 231.622C746.771 214.297 738.135 111.715 676.318 127.672" fill="#25929B"/>
<path d="M620.506 197.641C623.569 198.315 626.746 197.479 629.26 195.637C631.885 193.714 633.618 191.065 634.85 188.082C636.109 185.032 636.797 181.768 637.526 178.56C638.3 175.153 639.025 171.735 639.828 168.335C642.649 156.385 646.819 143.565 656.894 135.734C662.379 131.47 669.309 129.27 676.23 129.45C678.305 129.504 678.303 126.271 676.23 126.217C669.778 126.05 663.274 127.796 657.783 131.203C652.559 134.445 648.394 139.141 645.244 144.391C638.27 156.017 636.639 169.562 633.284 182.456C632.462 185.615 631.407 188.958 629.17 191.422C627.186 193.608 624.215 195.152 621.363 194.524C620.514 194.337 619.62 194.78 619.381 195.653C619.159 196.462 619.653 197.453 620.506 197.641Z" fill="#2F2E41"/>
<path d="M760.724 278.191C748.643 274.972 738.847 262.413 732.396 241.871C727.548 226.435 726.249 211.754 726.236 211.608C724.559 192.193 718.776 164.96 700.753 145.477C690.007 133.861 679.89 130.497 679.789 130.464L680.119 129.439C680.542 129.575 690.605 132.923 701.541 144.745C711.603 155.622 724.241 176.035 727.307 211.515C727.356 212.095 732.608 269.585 761 277.15L760.724 278.191Z" fill="#2F2E41"/>
<path d="M675.321 39.8406C675.321 39.8406 695.473 117.754 717.031 137.986C717.031 137.986 723.618 182.896 759.953 189.677C759.953 189.677 733.309 158.203 739.044 143.629C745.862 126.304 737.226 23.7221 675.409 39.6793" fill="#25929B"/>
<path d="M619.597 109.648C622.66 110.322 625.836 109.486 628.35 107.644C630.975 105.721 632.709 103.072 633.941 100.089C635.2 97.0393 635.888 93.775 636.617 90.5671C637.391 87.1603 638.116 83.7422 638.919 80.3419C641.74 68.3922 645.91 55.5718 655.984 47.7409C661.47 43.4769 668.4 41.2772 675.321 41.4568C677.395 41.5106 677.394 38.2782 675.321 38.2244C668.869 38.057 662.365 39.8033 656.874 43.2106C651.65 46.4518 647.485 51.1476 644.335 56.3984C637.361 68.0242 635.73 81.5693 632.375 94.4632C631.553 97.6219 630.498 100.965 628.261 103.429C626.277 105.615 623.305 107.159 620.454 106.531C619.605 106.344 618.711 106.787 618.472 107.66C618.25 108.469 618.743 109.46 619.597 109.648Z" fill="#2F2E41"/>
<path d="M759.815 190.198C747.734 186.979 737.938 174.42 731.487 153.879C726.639 138.442 725.34 123.761 725.327 123.615C723.65 104.2 717.867 76.9674 699.844 57.4848C689.098 45.8685 678.981 42.5043 678.88 42.4717L679.21 41.4463C679.633 41.5828 689.696 44.9307 700.631 56.7519C710.694 67.6292 723.332 88.0428 726.398 123.522C726.447 124.103 731.699 181.592 760.091 189.157L759.815 190.198Z" fill="#2F2E41"/>
<path d="M565.952 210.811C565.952 210.811 545.799 288.724 524.241 308.957C524.241 308.957 517.655 353.867 481.32 360.648C481.32 360.648 507.964 329.174 502.229 314.6C495.411 297.275 504.047 194.693 565.864 210.65" fill="#25929B"/>
<path d="M620.819 277.502C618.329 278.05 615.662 276.926 613.746 275.143C611.6 273.144 610.378 270.392 609.52 267.632C608.532 264.458 607.868 261.177 607.148 257.934C606.373 254.442 605.614 250.944 604.734 247.476C601.673 235.408 596.685 223.015 586.297 215.458C580.455 211.208 573.156 209.008 565.952 209.195C563.882 209.249 563.874 212.481 565.952 212.427C572.178 212.266 578.342 214.023 583.543 217.466C588.437 220.706 592.194 225.399 595.02 230.502C598.172 236.192 600.141 242.418 601.72 248.707C602.581 252.136 603.329 255.592 604.096 259.043C604.823 262.312 605.49 265.626 606.515 268.818C607.592 272.169 609.199 275.54 611.938 277.845C614.658 280.134 618.132 281.399 621.676 280.619C622.526 280.432 623.023 279.44 622.801 278.631C622.56 277.751 621.672 277.314 620.819 277.502Z" fill="#2F2E41"/>
<path d="M481.458 361.169L481.182 360.127C509.574 352.563 514.825 295.073 514.875 294.493C516.567 274.91 522.411 247.429 540.641 227.722C551.577 215.901 561.64 212.553 562.063 212.417L562.393 213.442C562.291 213.475 552.127 216.867 541.379 228.509C531.451 239.262 518.981 259.454 515.945 294.586C515.933 294.732 514.634 309.413 509.786 324.849C503.335 345.391 493.539 357.95 481.458 361.169Z" fill="#2F2E41"/>
<path d="M562.77 55.7979C562.77 55.7979 542.618 133.711 521.06 153.944C521.06 153.944 514.473 198.854 478.138 205.635C478.138 205.635 504.782 174.16 499.047 159.587C492.229 142.262 500.865 39.6794 562.683 55.6366" fill="#25929B"/>
<path d="M617.637 122.489C615.147 123.037 612.48 121.913 610.564 120.129C608.418 118.131 607.196 115.379 606.338 112.619C605.351 109.445 604.686 106.164 603.966 102.921C603.191 99.4284 602.432 95.9313 601.552 92.4632C598.491 80.3951 593.503 68.0022 583.116 60.4452C577.273 56.1946 569.975 53.9947 562.77 54.1817C560.7 54.2354 560.692 57.468 562.77 57.4141C568.996 57.2525 575.161 59.0098 580.361 62.4529C585.255 65.6927 589.013 70.386 591.838 75.4885C594.99 81.1793 596.96 87.4048 598.539 93.6938C599.4 97.1228 600.147 100.579 600.914 104.03C601.641 107.299 602.308 110.613 603.334 113.805C604.41 117.156 606.017 120.527 608.756 122.831C611.476 125.12 614.951 126.385 618.494 125.605C619.344 125.418 619.841 124.427 619.619 123.617C619.378 122.737 618.49 122.301 617.637 122.489Z" fill="#2F2E41"/>
<path d="M478.276 206.155L478 205.114C506.397 197.548 511.644 140.06 511.693 139.48C513.385 119.896 519.229 92.4162 537.46 72.7092C548.395 60.888 558.458 57.5401 558.881 57.4036L559.211 58.429C559.11 58.4618 548.945 61.8539 538.197 73.4962C528.27 84.2488 515.799 104.441 512.764 139.573C512.751 139.719 511.452 154.4 506.605 169.836C500.153 190.378 490.357 202.937 478.276 206.155Z" fill="#2F2E41"/>
<path d="M620.935 76.2379C620.935 76.2379 638.117 70.6763 640.854 89.5999C643.591 108.523 652.824 137.192 652.824 137.192C652.824 137.192 646.756 152.661 648.582 162.051C648.582 162.051 667.506 163.977 676.23 153.575L663.573 130.091C663.573 130.091 654.05 65.9969 624.502 65.1479L620.935 76.2379Z" fill="#2F2E41"/>
<path d="M739.871 392.359C739.871 392.714 739.586 393 739.232 393H518.364C518.009 393 517.724 392.714 517.724 392.359C517.724 392.003 518.009 391.718 518.364 391.718H739.232C739.586 391.718 739.871 392.003 739.871 392.359Z" fill="#2E2E43"/>
</g>
<defs>
<clipPath id="clip0_2_168">
<rect width="283" height="355" fill="white" transform="translate(478 38)"/>
</clipPath>
</defs>
</svg>
