<svg width="1239" height="430" viewBox="0 0 1239 430" fill="none" xmlns="http://www.w3.org/2000/svg">
<rect width="1239" height="430" fill="white"/>
<g clip-path="url(#clip0_38_5)">
<path d="M582.442 280.187C582.442 280.187 648.312 272.288 671.366 259.783C694.421 247.278 865.683 241.354 865.683 280.187C865.683 319.019 668.732 336.131 668.732 336.131L565.316 330.208L582.442 280.187Z" fill="#FBBEBE"/>
<path opacity="0.1" d="M582.442 280.187C582.442 280.187 648.312 272.288 671.366 259.783C694.421 247.278 865.683 241.354 865.683 280.187C865.683 319.019 668.732 336.131 668.732 336.131L565.316 330.208L582.442 280.187Z" fill="black"/>
<path d="M601.544 272.947L587.712 313.095L371 315.728V256.492C371 256.492 453.996 237.405 519.866 278.212C519.866 278.212 597.592 268.998 601.544 272.947Z" fill="#25929B"/>
<path opacity="0.1" d="M601.544 272.882L587.712 313.031L371 315.663V256.427C371 256.427 453.996 237.34 519.866 278.147C519.866 278.147 597.592 268.933 601.544 272.882Z" fill="black"/>
<path d="M849.312 256.163C849.312 258.406 844.278 260.072 843.783 262.235C843.292 264.382 846.283 267.645 845.336 269.695C844.358 271.791 843.202 273.8 841.881 275.699C840.641 277.473 836.811 277.214 835.241 278.877C833.703 280.388 832.074 281.804 830.363 283.115C828.697 284.5 826.439 284.791 824.544 286.066C822.742 287.278 822.96 291.724 820.967 292.828C819.063 293.883 816.147 293.034 814.081 293.982C812.098 294.892 811.052 298.184 808.932 298.989C806.888 299.765 804.357 299.431 802.196 300.103C800.104 300.754 797.763 300.648 795.571 301.196C793.442 301.728 791.816 304.916 789.602 305.346C787.444 305.765 784.916 304.648 782.685 304.965C780.506 305.275 777.972 302.52 775.731 302.728C773.538 302.932 771.471 304.208 769.224 304.311C767.021 304.412 764.843 305.381 762.596 305.381C760.35 305.381 758.031 307.487 755.829 307.386C753.582 307.283 751.548 304.091 749.355 303.887C747.113 303.678 744.44 307.013 742.261 306.703C740.03 306.386 738.263 303.122 736.106 302.703C733.891 302.273 731.03 304.606 728.901 304.074C726.708 303.526 725.407 299.729 723.315 299.078C721.153 298.406 718.474 299.316 716.429 298.54C714.309 297.735 711.726 297.864 709.743 296.954C707.677 296.006 706.194 293.763 704.289 292.708C702.296 291.604 701.377 288.866 699.575 287.654C697.68 286.379 694.793 286.542 693.126 285.157C691.367 283.695 688.07 283.618 686.585 282.045C685.015 280.381 684.379 277.588 683.139 275.813C681.834 273.945 684.396 269.994 683.485 268.019C682.539 265.97 678.583 265.137 678.092 262.991C677.586 260.75 677.326 258.461 677.318 256.163C677.318 253.92 680.7 252.205 681.195 250.042C681.686 247.895 679.197 244.813 680.143 242.763C681.055 240.788 680.938 237.752 682.245 235.883C683.485 234.109 686.579 233.413 688.149 231.75C689.634 230.177 692.292 229.738 694.051 228.276C695.718 226.891 695.506 222.715 697.401 221.44C699.202 220.228 701.718 219.675 703.711 218.571C705.616 217.516 708.311 217.694 710.377 216.746C712.36 215.836 715.466 217.629 717.586 216.824C719.631 216.048 721.289 214.351 723.451 213.679C725.543 213.028 726.526 208.066 728.718 207.518C730.847 206.986 733.466 207.869 735.68 207.439C737.838 207.02 740.741 210.936 742.972 210.618C745.15 210.309 746.78 205.082 749.021 204.873C751.215 204.669 753.688 207.376 755.935 207.273C758.137 207.172 760.349 208.758 762.596 208.758C764.843 208.758 767.082 206.582 769.284 206.683C771.53 206.786 773.511 209.662 775.705 209.867C777.946 210.075 780.698 205.699 782.876 206.009C785.107 206.326 786.831 209.709 788.989 210.128C791.204 210.558 793.978 208.458 796.107 208.99C798.3 209.538 799.619 213.133 801.711 213.784C803.872 214.456 805.204 216.992 807.249 217.769C809.369 218.574 813.308 214.807 815.291 215.717C817.357 216.665 819.142 218.306 821.046 219.361C823.039 220.465 826.208 219.91 828.01 221.122C829.905 222.397 830.371 225.819 832.037 227.204C833.797 228.667 836.699 229.107 838.184 230.68C839.754 232.344 839.973 235.325 841.212 237.099C842.518 238.968 842.477 241.557 843.389 243.532C844.335 245.581 846.861 247.131 847.352 249.277C847.846 251.44 849.312 253.92 849.312 256.163Z" fill="#3F3D56"/>
<path d="M612.084 297.299C612.084 297.299 686.517 259.125 734.602 273.605C782.687 288.085 849.874 263.074 857.778 271.63C865.683 280.186 876.881 372.331 782.028 377.597C687.175 382.862 606.155 361.8 606.155 361.8L612.084 297.299Z" fill="#FBBEBE"/>
<path d="M594.555 293.234C594.555 293.234 623.94 291.375 622.623 301.906C621.305 312.437 619.988 394.051 612.084 396.025C604.179 398 541.603 398 515.914 398H371V271.819C371 271.819 473.757 265.707 525.135 291.375C525.135 291.375 586.907 290.484 594.555 293.234Z" fill="#25929B"/>
<path d="M732.218 95.869C729.41 96.0275 726.702 96.9644 724.397 98.5746C722.092 100.185 720.282 102.405 719.169 104.985C715.906 112.866 720.107 122.124 726.414 127.87C732.72 133.617 740.822 136.902 748.183 141.22C758.069 147.019 766.953 155.07 771.9 165.404C776.847 175.738 777.373 188.539 771.559 198.411C766.161 207.575 756.348 213.059 746.988 218.117" stroke="#3F3D56" stroke-miterlimit="10"/>
<path d="M758.565 47.8223C755.758 47.9807 753.05 48.9176 750.745 50.5278C748.44 52.1381 746.63 54.358 745.517 56.9386C742.254 64.8195 746.455 74.0768 752.762 79.8236C759.068 85.5704 767.17 88.8553 774.531 93.173C784.417 98.9723 793.301 107.023 798.248 117.357C803.195 127.691 803.721 140.492 797.907 150.364C792.509 159.528 782.695 165.012 773.336 170.07" stroke="#3F3D56" stroke-miterlimit="10"/>
<path d="M845.195 58.8727C842.878 57.2805 840.163 56.3648 837.354 56.2282C834.545 56.0916 831.753 56.7396 829.292 58.0994C821.884 62.3352 819.534 72.2249 821 80.6268C822.466 89.0287 826.86 96.5816 830.035 104.498C834.299 115.132 836.392 126.932 833.972 138.129C831.553 149.326 824.126 159.77 813.48 164.02C803.598 167.964 792.478 166.297 781.978 164.571" stroke="#3F3D56" stroke-miterlimit="10"/>
<path d="M768.854 158.198C777.585 158.198 784.663 154.763 784.663 150.526C784.663 146.288 777.585 142.853 768.854 142.853C760.123 142.853 753.045 146.288 753.045 150.526C753.045 154.763 760.123 158.198 768.854 158.198Z" fill="#57B894"/>
<path d="M766.878 156.882C775.609 156.882 782.687 153.447 782.687 149.209C782.687 144.972 775.609 141.537 766.878 141.537C758.147 141.537 751.069 144.972 751.069 149.209C751.069 153.447 758.147 156.882 766.878 156.882Z" stroke="#3F3D56" stroke-miterlimit="10"/>
<path d="M803.106 151.616C811.837 151.616 818.915 148.181 818.915 143.944C818.915 139.707 811.837 136.271 803.106 136.271C794.375 136.271 787.297 139.707 787.297 143.944C787.297 148.181 794.375 151.616 803.106 151.616Z" fill="#57B894"/>
<path d="M801.13 150.3C809.861 150.3 816.939 146.865 816.939 142.628C816.939 138.39 809.861 134.955 801.13 134.955C792.399 134.955 785.321 138.39 785.321 142.628C785.321 146.865 792.399 150.3 801.13 150.3Z" stroke="#3F3D56" stroke-miterlimit="10"/>
<path d="M808.376 180.576C817.107 180.576 824.185 177.141 824.185 172.904C824.185 168.666 817.107 165.231 808.376 165.231C799.645 165.231 792.567 168.666 792.567 172.904C792.567 177.141 799.645 180.576 808.376 180.576Z" fill="#57B894"/>
<path d="M806.4 179.26C815.131 179.26 822.209 175.825 822.209 171.587C822.209 167.35 815.131 163.915 806.4 163.915C797.669 163.915 790.591 167.35 790.591 171.587C790.591 175.825 797.669 179.26 806.4 179.26Z" stroke="#3F3D56" stroke-miterlimit="10"/>
<path d="M805.082 108.177C813.813 108.177 820.891 104.742 820.891 100.504C820.891 96.267 813.813 92.8319 805.082 92.8319C796.351 92.8319 789.274 96.267 789.274 100.504C789.274 104.742 796.351 108.177 805.082 108.177Z" fill="#57B894"/>
<path d="M803.106 106.86C811.837 106.86 818.915 103.425 818.915 99.188C818.915 94.9506 811.837 91.5155 803.106 91.5155C794.375 91.5155 787.297 94.9506 787.297 99.188C787.297 103.425 794.375 106.86 803.106 106.86Z" stroke="#3F3D56" stroke-miterlimit="10"/>
<path d="M765.56 103.57C774.291 103.57 781.369 100.134 781.369 95.8971C781.369 91.6597 774.291 88.2246 765.56 88.2246C756.829 88.2246 749.752 91.6597 749.752 95.8971C749.752 100.134 756.829 103.57 765.56 103.57Z" fill="#57B894"/>
<path d="M763.584 102.253C772.315 102.253 779.393 98.8182 779.393 94.5808C779.393 90.3434 772.315 86.9083 763.584 86.9083C754.853 86.9083 747.776 90.3434 747.776 94.5808C747.776 98.8182 754.853 102.253 763.584 102.253Z" stroke="#3F3D56" stroke-miterlimit="10"/>
<path d="M783.345 87.1152C792.076 87.1152 799.154 83.6801 799.154 79.4427C799.154 75.2053 792.076 71.7703 783.345 71.7703C774.614 71.7703 767.537 75.2053 767.537 79.4427C767.537 83.6801 774.614 87.1152 783.345 87.1152Z" fill="#57B894"/>
<path d="M781.369 85.7988C790.1 85.7988 797.178 82.3637 797.178 78.1263C797.178 73.8889 790.1 70.4539 781.369 70.4539C772.638 70.4539 765.56 73.8889 765.56 78.1263C765.56 82.3637 772.638 85.7988 781.369 85.7988Z" stroke="#3F3D56" stroke-miterlimit="10"/>
<path d="M822.208 90.4061C830.939 90.4061 838.017 86.971 838.017 82.7336C838.017 78.4962 830.939 75.0612 822.208 75.0612C813.478 75.0612 806.4 78.4962 806.4 82.7336C806.4 86.971 813.478 90.4061 822.208 90.4061Z" fill="#57B894"/>
<path d="M820.232 89.0897C828.963 89.0897 836.041 85.6546 836.041 81.4172C836.041 77.1798 828.963 73.7448 820.232 73.7448C811.501 73.7448 804.424 77.1798 804.424 81.4172C804.424 85.6546 811.501 89.0897 820.232 89.0897Z" stroke="#3F3D56" stroke-miterlimit="10"/>
<path d="M851.191 112.126C859.922 112.126 867 108.691 867 104.453C867 100.216 859.922 96.781 851.191 96.781C842.46 96.781 835.382 100.216 835.382 104.453C835.382 108.691 842.46 112.126 851.191 112.126Z" fill="#57B894"/>
<path d="M849.215 110.81C857.946 110.81 865.024 107.374 865.024 103.137C865.024 98.8997 857.946 95.4646 849.215 95.4646C840.484 95.4646 833.406 98.8997 833.406 103.137C833.406 107.374 840.484 110.81 849.215 110.81Z" stroke="#3F3D56" stroke-miterlimit="10"/>
<path d="M749.093 73.9516C757.824 73.9516 764.902 70.5165 764.902 66.2791C764.902 62.0418 757.824 58.6067 749.093 58.6067C740.362 58.6067 733.284 62.0418 733.284 66.2791C733.284 70.5165 740.362 73.9516 749.093 73.9516Z" fill="#57B894"/>
<path d="M747.117 72.6353C755.848 72.6353 762.926 69.2002 762.926 64.9629C762.926 60.7255 755.848 57.2904 747.117 57.2904C738.386 57.2904 731.308 60.7255 731.308 64.9629C731.308 69.2002 738.386 72.6353 747.117 72.6353Z" stroke="#3F3D56" stroke-miterlimit="10"/>
<path d="M758.973 48.941C767.704 48.941 774.782 45.5059 774.782 41.2685C774.782 37.0311 767.704 33.5961 758.973 33.5961C750.243 33.5961 743.165 37.0311 743.165 41.2685C743.165 45.5059 750.243 48.941 758.973 48.941Z" fill="#57B894"/>
<path d="M756.997 47.6246C765.728 47.6246 772.806 44.1895 772.806 39.9521C772.806 35.7147 765.728 32.2797 756.997 32.2797C748.266 32.2797 741.189 35.7147 741.189 39.9521C741.189 44.1895 748.266 47.6246 756.997 47.6246Z" stroke="#3F3D56" stroke-miterlimit="10"/>
<path d="M850.533 67.3699C859.263 67.3699 866.341 63.9349 866.341 59.6975C866.341 55.4601 859.263 52.025 850.533 52.025C841.802 52.025 834.724 55.4601 834.724 59.6975C834.724 63.9349 841.802 67.3699 850.533 67.3699Z" fill="#57B894"/>
<path d="M848.556 66.0535C857.287 66.0535 864.365 62.6185 864.365 58.3811C864.365 54.1437 857.287 50.7086 848.556 50.7086C839.825 50.7086 832.748 54.1437 832.748 58.3811C832.748 62.6185 839.825 66.0535 848.556 66.0535Z" stroke="#3F3D56" stroke-miterlimit="10"/>
<path d="M704.96 127.922C713.691 127.922 720.769 124.487 720.769 120.25C720.769 116.012 713.691 112.577 704.96 112.577C696.229 112.577 689.151 116.012 689.151 120.25C689.151 124.487 696.229 127.922 704.96 127.922Z" fill="#57B894"/>
<path d="M702.984 126.606C711.715 126.606 718.793 123.171 718.793 118.933C718.793 114.696 711.715 111.261 702.984 111.261C694.253 111.261 687.175 114.696 687.175 118.933C687.175 123.171 694.253 126.606 702.984 126.606Z" stroke="#3F3D56" stroke-miterlimit="10"/>
<path d="M759.632 123.973C768.363 123.973 775.441 120.538 775.441 116.301C775.441 112.063 768.363 108.628 759.632 108.628C750.901 108.628 743.823 112.063 743.823 116.301C743.823 120.538 750.901 123.973 759.632 123.973Z" fill="#57B894"/>
<path d="M757.656 122.657C766.387 122.657 773.465 119.222 773.465 114.984C773.465 110.747 766.387 107.312 757.656 107.312C748.925 107.312 741.847 110.747 741.847 114.984C741.847 119.222 748.925 122.657 757.656 122.657Z" stroke="#3F3D56" stroke-miterlimit="10"/>
<path d="M831.43 129.897C840.161 129.897 847.239 126.462 847.239 122.224C847.239 117.987 840.161 114.552 831.43 114.552C822.699 114.552 815.621 117.987 815.621 122.224C815.621 126.462 822.699 129.897 831.43 129.897Z" fill="#57B894"/>
<path d="M829.454 128.58C838.185 128.58 845.263 125.145 845.263 120.908C845.263 116.67 838.185 113.235 829.454 113.235C820.723 113.235 813.645 116.67 813.645 120.908C813.645 125.145 820.723 128.58 829.454 128.58Z" stroke="#3F3D56" stroke-miterlimit="10"/>
<path d="M793.226 132.529C801.957 132.529 809.035 129.094 809.035 124.857C809.035 120.62 801.957 117.184 793.226 117.184C784.495 117.184 777.417 120.62 777.417 124.857C777.417 129.094 784.495 132.529 793.226 132.529Z" fill="#57B894"/>
<path d="M791.25 131.213C799.981 131.213 807.058 127.778 807.058 123.54C807.058 119.303 799.981 115.868 791.25 115.868C782.519 115.868 775.441 119.303 775.441 123.54C775.441 127.778 782.519 131.213 791.25 131.213Z" stroke="#3F3D56" stroke-miterlimit="10"/>
<path d="M795.861 66.7117C804.592 66.7117 811.669 63.2767 811.669 59.0393C811.669 54.8019 804.592 51.3668 795.861 51.3668C787.13 51.3668 780.052 54.8019 780.052 59.0393C780.052 63.2767 787.13 66.7117 795.861 66.7117Z" fill="#57B894"/>
<path d="M793.884 65.3953C802.615 65.3953 809.693 61.9603 809.693 57.7229C809.693 53.4855 802.615 50.0504 793.884 50.0504C785.154 50.0504 778.076 53.4855 778.076 57.7229C778.076 61.9603 785.154 65.3953 793.884 65.3953Z" stroke="#3F3D56" stroke-miterlimit="10"/>
<path d="M728.015 107.519C736.746 107.519 743.823 104.084 743.823 99.8462C743.823 95.6088 736.746 92.1737 728.015 92.1737C719.284 92.1737 712.206 95.6088 712.206 99.8462C712.206 104.084 719.284 107.519 728.015 107.519Z" fill="#57B894"/>
<path d="M726.039 106.202C734.769 106.202 741.847 102.767 741.847 98.5299C741.847 94.2925 734.769 90.8574 726.039 90.8574C717.308 90.8574 710.23 94.2925 710.23 98.5299C710.23 102.767 717.308 106.202 726.039 106.202Z" stroke="#3F3D56" stroke-miterlimit="10"/>
<path d="M737.236 137.137C745.967 137.137 753.045 133.701 753.045 129.464C753.045 125.227 745.967 121.792 737.236 121.792C728.505 121.792 721.428 125.227 721.428 129.464C721.428 133.701 728.505 137.137 737.236 137.137Z" fill="#57B894"/>
<path d="M735.26 135.82C743.991 135.82 751.069 132.385 751.069 128.148C751.069 123.91 743.991 120.475 735.26 120.475C726.529 120.475 719.452 123.91 719.452 128.148C719.452 132.385 726.529 135.82 735.26 135.82Z" stroke="#3F3D56" stroke-miterlimit="10"/>
<g opacity="0.3">
<path d="M737.604 181.852C739.836 177.862 740.243 173.845 738.514 172.88C736.785 171.914 733.574 174.365 731.342 178.355C729.111 182.345 728.704 186.362 730.433 187.327C732.162 188.293 735.373 185.841 737.604 181.852Z" fill="#57B894"/>
<path d="M736.562 182.455C738.793 178.465 739.201 174.448 737.472 173.483C735.742 172.517 732.532 174.968 730.3 178.958C728.069 182.948 727.661 186.965 729.39 187.93C731.12 188.896 734.33 186.444 736.562 182.455Z" stroke="#3F3D56" stroke-miterlimit="10"/>
</g>
<g opacity="0.3">
<path d="M820.007 200.978C821.328 199.503 819.635 195.836 816.227 192.788C812.819 189.74 808.985 188.465 807.664 189.94C806.343 191.415 808.035 195.081 811.443 198.129C814.852 201.177 818.686 202.453 820.007 200.978Z" fill="#57B894"/>
<path d="M819.646 199.83C820.967 198.355 819.274 194.688 815.866 191.64C812.458 188.592 808.624 187.317 807.303 188.792C805.982 190.267 807.674 193.933 811.082 196.981C814.491 200.029 818.325 201.305 819.646 199.83Z" stroke="#3F3D56" stroke-miterlimit="10"/>
</g>
<g opacity="0.3">
<path d="M746.232 159.513C747.553 158.038 745.861 154.371 742.453 151.323C739.044 148.275 735.211 147 733.889 148.475C732.568 149.95 734.261 153.616 737.669 156.664C741.077 159.712 744.911 160.987 746.232 159.513Z" fill="#57B894"/>
<path d="M745.871 158.365C747.192 156.89 745.5 153.223 742.092 150.175C738.683 147.127 734.85 145.852 733.528 147.327C732.207 148.802 733.9 152.468 737.308 155.516C740.716 158.564 744.55 159.839 745.871 158.365Z" stroke="#3F3D56" stroke-miterlimit="10"/>
</g>
</g>
<defs>
<clipPath id="clip0_38_5">
<rect width="496" height="366" fill="white" transform="translate(371 32)"/>
</clipPath>
</defs>
</svg>
