<svg width="1239" height="430" viewBox="0 0 1239 430" fill="none" xmlns="http://www.w3.org/2000/svg">
<rect width="1239" height="430" fill="white"/>
<g clip-path="url(#clip0_38_2)">
<path d="M426.74 399.588H325.297C325.297 399.588 323.24 369.48 335.406 369.138C347.572 368.796 346.201 382.481 361.452 363.664C376.703 344.847 395.209 345.874 397.608 356.993C400.007 368.113 392.982 377.007 405.833 374.27C418.685 371.533 437.192 378.718 426.74 399.588Z" fill="#E6E6E6"/>
<path d="M374.306 399.595L373.963 399.581C374.762 379.759 378.92 367.025 382.268 359.829C385.903 352.019 389.406 348.857 389.442 348.826L389.67 349.082C389.635 349.113 386.173 352.243 382.567 360.001C379.237 367.163 375.102 379.847 374.306 399.595Z" fill="white"/>
<path d="M411.02 399.635L410.691 399.539C413.242 391.138 417.841 383.5 424.076 377.31L424.306 377.563C418.118 383.711 413.553 391.294 411.02 399.635Z" fill="white"/>
<path d="M341.275 399.611L340.935 399.565C342.041 392.133 340.871 384.541 337.578 377.785C336.228 374.952 334.441 372.347 332.282 370.067L332.519 369.82C334.708 372.128 336.519 374.764 337.888 377.633C341.211 384.451 342.391 392.112 341.275 399.611Z" fill="white"/>
<path d="M440.506 400.045H314.356L314.327 399.619C314.255 398.558 312.645 373.525 320.77 364.593C321.576 363.649 322.571 362.884 323.691 362.348C324.811 361.811 326.031 361.515 327.273 361.478C332.569 361.327 335.897 363.308 338.582 364.897C343.641 367.893 346.983 369.873 359.137 354.878C372.302 338.633 386.508 335.138 394.674 337.081C399.95 338.338 403.587 341.886 404.651 346.819C405.661 351.49 405.338 355.879 405.079 359.406C404.803 363.18 404.585 366.159 406.138 367.51C407.436 368.638 410.02 368.74 414.277 367.833C422.935 365.989 435.019 367.567 441.083 375.389C444.346 379.598 446.916 387.247 440.633 399.792L440.506 400.045ZM315.216 399.13H439.939C444.62 389.647 444.767 381.636 440.358 375.95C434.794 368.774 423.123 366.885 414.468 368.728C409.843 369.714 407.087 369.551 405.535 368.201C403.637 366.55 403.87 363.368 404.164 359.342C404.418 355.874 404.734 351.557 403.754 347.015C402.767 342.44 399.379 339.145 394.46 337.974C386.555 336.092 372.743 339.542 359.849 355.455C347.198 371.065 343.387 368.809 338.113 365.683C335.395 364.074 332.31 362.25 327.298 362.392C326.18 362.427 325.082 362.696 324.075 363.181C323.067 363.666 322.172 364.356 321.448 365.207C314.148 373.235 315.038 395.745 315.217 399.13H315.216Z" fill="#2F2E41"/>
<path d="M852.7 400.553H728.446L728.422 399.858L722.489 230.466H858.656L852.7 400.553ZM729.84 399.113H851.306L857.162 231.906H723.983L729.84 399.113Z" fill="#3F3D56"/>
<path d="M758.086 261.852H748.635V378.605H758.086V261.852Z" fill="#3F3D56"/>
<path d="M795.298 261.852H785.847V378.605H795.298V261.852Z" fill="#3F3D56"/>
<path d="M832.51 261.852H823.059V378.605H832.51V261.852Z" fill="#3F3D56"/>
<path d="M937.613 280.208L937.003 279.823L782.664 182.455L796.051 161.307L796.662 161.692L951 259.059L937.613 280.208ZM784.655 182.007L937.163 278.22L949.009 259.508L796.501 163.294L784.655 182.007Z" fill="#3F3D56"/>
<path d="M900.349 174.608C895.863 171.773 890.656 170.283 885.347 170.314C880.038 170.346 874.85 171.897 870.397 174.783C865.944 177.67 862.415 181.771 860.227 186.6C858.039 191.43 857.286 196.784 858.055 202.028L865.414 206.671C863.565 202.384 863.139 197.619 864.198 193.072C865.258 188.526 867.748 184.438 871.303 181.407C874.859 178.375 879.293 176.56 883.957 176.226C888.62 175.892 893.269 177.058 897.221 179.552C901.173 182.047 904.221 185.738 905.92 190.087C907.618 194.436 907.877 199.214 906.659 203.72C905.441 208.227 902.809 212.225 899.15 215.131C895.491 218.037 890.996 219.696 886.323 219.867L893.682 224.51C898.758 222.955 903.28 219.978 906.712 215.934C910.143 211.89 912.341 206.948 913.043 201.694C913.746 196.441 912.924 191.096 910.675 186.295C908.426 181.494 904.845 177.438 900.356 174.608H900.349Z" fill="#3F3D56"/>
<path d="M942.844 399.56H287V401H942.844V399.56Z" fill="#3F3D56"/>
<path d="M573.462 389.73H562.954L557.953 349.27H573.465L573.462 389.73Z" fill="#FEB8B8"/>
<path d="M542.69 399.469H575.714V386.732H555.272C551.935 386.732 548.735 388.056 546.375 390.411C544.015 392.767 542.69 395.962 542.69 399.293V399.469Z" fill="#2F2E41"/>
<path d="M569.769 327.034L577.017 334.629L609.811 310.337L599.114 299.127L569.769 327.034Z" fill="#FEB8B8"/>
<path d="M584.484 338.109L570.38 323.335L561.142 332.124L583.929 355.992L584.057 355.87C585.253 354.732 586.213 353.37 586.882 351.861C587.551 350.353 587.915 348.728 587.955 347.078C587.995 345.429 587.709 343.788 587.113 342.249C586.518 340.71 585.624 339.304 584.484 338.109Z" fill="#2F2E41"/>
<path d="M496.631 216.187C495.966 215.119 495.543 213.918 495.393 212.669C495.243 211.421 495.369 210.154 495.762 208.96C496.155 207.765 496.806 206.671 497.668 205.754C498.531 204.837 499.584 204.12 500.754 203.654L542.009 98.6917L558.089 108.304L512.261 208.997C512.916 211.011 512.808 213.196 511.957 215.136C511.106 217.076 509.572 218.637 507.645 219.524C505.718 220.41 503.533 220.56 501.503 219.945C499.473 219.33 497.739 217.993 496.631 216.187Z" fill="#FEB8B8"/>
<path d="M653.219 223.71C651.962 223.62 650.74 223.256 649.639 222.644C648.538 222.032 647.586 221.186 646.848 220.166C646.11 219.146 645.605 217.977 645.368 216.742C645.132 215.506 645.17 214.233 645.48 213.014L584.618 118.033L601.856 110.686L656.571 206.859C658.592 207.511 660.302 208.881 661.378 210.708C662.453 212.536 662.819 214.695 662.405 216.774C661.992 218.854 660.828 220.709 659.134 221.988C657.441 223.267 655.336 223.881 653.219 223.713V223.71Z" fill="#FEB8B8"/>
<path d="M542.415 205.676L553.188 365.513L578.932 363.246L584.232 245.322L598.619 295.967L629.664 298.234L617.376 198.117L542.415 205.676Z" fill="#2F2E41"/>
<path d="M603.162 288.409L598.617 295.968L566.818 317.889L589.534 329.983C589.534 329.983 633.451 305.795 629.665 298.235L603.162 288.409Z" fill="#2F2E41"/>
<path d="M519.871 141.008L528.833 115.799C530.826 110.189 533.915 105.031 537.919 100.621C541.923 96.2112 546.764 92.6379 552.16 90.108C564.29 85.647 577.482 84.9261 590.027 88.0387L593.289 88.8469C601.985 90.9511 610.133 94.8796 617.19 100.371C622.713 104.717 627.681 110.22 628.123 116.139C628.126 116.152 628.129 116.164 628.134 116.176C629.664 122.869 630.421 157.64 630.421 157.64H616.929L619.063 204.505L618.89 204.166C618.89 204.166 541.072 218.867 541.072 211.308V162.929L539.477 145.412L519.871 141.008Z" fill="#CCCCCC"/>
<path d="M592.506 81.4858C604.416 81.4858 614.071 71.8474 614.071 59.9578C614.071 48.0681 604.416 38.4297 592.506 38.4297C580.596 38.4297 570.942 48.0681 570.942 59.9578C570.942 71.8474 580.596 81.4858 592.506 81.4858Z" fill="#FEB8B8"/>
<path d="M595.737 50.3033L612.481 50.9732C614.588 50.9667 616.888 50.8925 618.493 49.5326C620.91 47.4806 620.505 43.6084 619.211 40.7158C615.603 32.6618 607.556 29.7764 598.72 30.0134C589.884 30.2503 580.625 33.2402 575.867 40.6733C571.108 48.1065 569.823 57.493 571.615 66.1305C573.687 61.7384 576.876 57.9658 580.865 55.189C584.854 52.4123 589.503 50.7287 594.348 50.3062L595.737 50.3033Z" fill="#2F2E41"/>
<path d="M695.17 260.878L634.562 218.474C633.999 218.078 633.616 217.476 633.497 216.799C633.378 216.122 633.532 215.425 633.926 214.862L681.496 147.104C681.892 146.542 682.495 146.16 683.173 146.041C683.851 145.921 684.549 146.075 685.114 146.469L745.721 188.873C746.284 189.269 746.667 189.871 746.786 190.548C746.906 191.225 746.751 191.921 746.357 192.485L698.789 260.241C698.393 260.804 697.79 261.187 697.111 261.306C696.433 261.426 695.735 261.272 695.17 260.878Z" fill="#25929B"/>
<path d="M708.8 214.866L673.236 189.984C672.825 189.697 672.474 189.331 672.205 188.908C671.935 188.485 671.752 188.013 671.665 187.519C671.578 187.025 671.589 186.519 671.698 186.03C671.807 185.541 672.011 185.077 672.299 184.667C672.588 184.256 672.954 183.906 673.378 183.637C673.801 183.368 674.274 183.185 674.769 183.098C675.263 183.011 675.77 183.022 676.261 183.131C676.751 183.24 677.215 183.444 677.626 183.731L713.189 208.614C714.02 209.195 714.585 210.081 714.761 211.079C714.937 212.076 714.708 213.102 714.126 213.931C713.544 214.76 712.656 215.325 711.657 215.5C710.658 215.676 709.63 215.448 708.8 214.866Z" fill="white"/>
<path d="M700.638 226.492L665.074 201.61C664.663 201.323 664.312 200.957 664.042 200.534C663.771 200.111 663.588 199.639 663.5 199.145C663.413 198.651 663.424 198.144 663.533 197.655C663.642 197.165 663.846 196.701 664.135 196.291C664.423 195.88 664.79 195.53 665.214 195.26C665.638 194.991 666.111 194.808 666.606 194.721C667.101 194.635 667.608 194.646 668.098 194.755C668.589 194.864 669.053 195.069 669.464 195.357L705.028 220.239C705.857 220.821 706.422 221.707 706.597 222.704C706.772 223.701 706.543 224.726 705.962 225.555C705.38 226.384 704.492 226.948 703.494 227.124C702.496 227.299 701.468 227.072 700.638 226.492Z" fill="white"/>
<path d="M692.388 238.243L656.825 213.361C656.413 213.073 656.063 212.707 655.793 212.284C655.524 211.861 655.34 211.39 655.253 210.896C655.166 210.402 655.177 209.896 655.286 209.406C655.395 208.917 655.6 208.454 655.888 208.043C656.176 207.633 656.542 207.283 656.966 207.014C657.39 206.744 657.862 206.561 658.357 206.474C658.852 206.387 659.359 206.399 659.849 206.507C660.339 206.616 660.803 206.82 661.215 207.108L696.778 231.99C697.608 232.571 698.174 233.458 698.349 234.455C698.525 235.452 698.297 236.478 697.715 237.308C697.133 238.137 696.244 238.701 695.245 238.877C694.246 239.052 693.219 238.824 692.388 238.243Z" fill="white"/>
<path d="M708.7 191.868L694.925 182.231C694.513 181.943 694.162 181.577 693.892 181.154C693.622 180.731 693.438 180.259 693.351 179.765C693.264 179.271 693.275 178.765 693.384 178.275C693.492 177.785 693.697 177.322 693.985 176.911C694.274 176.5 694.64 176.15 695.064 175.881C695.488 175.612 695.961 175.429 696.456 175.342C696.951 175.255 697.458 175.267 697.949 175.376C698.439 175.485 698.904 175.689 699.315 175.978L713.089 185.615C713.92 186.196 714.485 187.083 714.661 188.08C714.837 189.078 714.608 190.104 714.026 190.933C713.444 191.762 712.556 192.326 711.557 192.502C710.558 192.677 709.53 192.449 708.7 191.868Z" fill="white"/>
</g>
<defs>
<clipPath id="clip0_38_2">
<rect width="664" height="371" fill="white" transform="translate(287 30)"/>
</clipPath>
</defs>
</svg>
