<svg width="1239" height="430" viewBox="0 0 1239 430" fill="none" xmlns="http://www.w3.org/2000/svg">
<rect width="1239" height="430" fill="white"/>
<g clip-path="url(#clip0_8_778)">
<path d="M880.591 126.487C881.348 127.322 884.095 126.471 889.558 124.737C893.711 123.419 894.351 122.939 894.746 122.595C896.135 121.386 896.499 120.114 897.875 114.496C900.344 104.414 900.42 103.412 901.688 101.273C902.124 100.536 903.227 98.7783 902.958 98.5605C902.682 98.3367 901.488 100.168 899.283 100.859C897.133 101.534 896.165 100.454 894.33 100.729C891.957 101.084 890.546 103.343 888.333 106.998C886.374 110.236 886.128 111.538 883.38 117.971C882.602 119.793 881.975 121.203 881.494 122.318C876.1 127.363 870.751 132.475 865.449 137.631C865.552 137.474 865.648 137.326 865.731 137.198C868.079 133.585 868.398 131.648 868.364 130.197C868.309 127.845 867.189 126.054 864.95 122.568C862.756 119.152 860.677 116.898 858.172 114.208C854.889 110.682 853.247 108.919 852.593 109.035C847.924 109.863 846.675 141.726 852.55 147.425C851.726 148.015 851.043 148.633 850.549 149.242C845.52 143.646 836.905 137.394 827.361 136.624C821.477 136.15 818.23 138 817.22 138.636C812.553 141.573 809.778 147.453 811.172 149.112C812.472 150.659 816.225 147.142 823.581 147.335C828.713 147.471 832.723 149.337 835.103 150.445C840.096 152.769 841.922 155.053 845.604 156.619C843.878 158.044 842.511 159.822 841.652 161.482C841.355 161.789 841.058 162.098 840.761 162.405C836.963 160.26 832.685 158.686 828.201 158.325C822.317 157.85 819.07 159.7 818.06 160.336C814.915 162.316 812.636 165.628 811.906 168.088C811.43 168.184 810.988 168.294 810.584 168.412C809.159 165.183 804.915 161.777 800.97 160.061C794.179 157.107 785.357 157.89 784.413 160.699C784.383 160.789 784.375 160.877 784.362 160.966C785.106 154.946 786.117 148.968 787.38 143.034C787.423 143.204 787.477 143.375 787.548 143.556C789.225 147.775 793.755 151.826 799.93 153.927C804.777 155.576 806.807 154.721 807.322 154.482C807.815 154.254 809.943 153.339 810.464 151.519C811.431 148.145 805.512 138.174 801.778 141.518C789.783 152.264 788.137 143.563 787.586 142.098C788.606 137.407 789.779 132.742 791.096 128.104C791.119 128.133 791.138 128.161 791.162 128.189C793.783 131.374 798.826 133.618 804.753 133.718C809.405 133.795 810.925 132.49 811.305 132.14C811.668 131.806 813.256 130.421 813.202 128.701C813.103 125.512 807.442 122.914 802.912 122.464C798.738 122.049 794.244 123.33 792.014 124.951C793.051 121.478 794.166 118.02 795.355 114.577C798.402 115.824 802.717 115.656 806.956 113.757C810.452 112.191 811.131 110.688 811.293 110.294C811.447 109.918 812.15 108.331 811.512 107.067C810.33 104.723 805.206 104.763 801.671 106.008C800.216 106.521 798.832 107.311 797.647 108.203C799.755 102.559 802.052 96.9562 804.523 91.3944L802.047 90.7739C798.89 97.8789 796.138 105.076 793.772 112.354C793.478 110.219 792.741 107.946 791.771 106.099C788.917 100.667 782.822 96.5922 780.761 97.9143C780.349 98.1787 780.175 98.6094 780.018 99.1222C778.755 103.248 779.706 108.951 783.034 114.19C785.645 118.302 787.657 118.879 788.181 119.01C788.623 119.12 790.331 119.593 791.735 118.984C790.791 122.226 789.918 125.482 789.122 128.753C788.164 126.369 786.276 123.83 784.28 122.074C779.677 118.025 772.53 116.404 771.077 118.378C770.787 118.772 770.779 119.237 770.815 119.772C771.108 124.078 774.032 129.062 779.009 132.762C782.916 135.666 785 135.484 785.536 135.418C785.852 135.379 786.805 135.284 787.724 134.867C786.871 138.841 786.125 142.834 785.48 146.844C784.191 142.358 779.812 136.762 775.68 138.543C768.346 141.702 759.726 136.849 758.777 138.971C758.53 139.523 758.735 140.093 758.971 140.71C760.871 145.682 766.118 150.499 773.323 153.057C778.978 155.065 781.37 154.094 781.978 153.822C782.381 153.642 783.711 153.085 784.701 152.052C783.989 157.205 783.444 162.384 783.059 167.585C781.53 164.239 777.224 160.715 773.192 158.898C766.12 155.71 756.87 156.408 755.843 159.337C755.638 159.923 755.8 160.488 756.042 161.123C757.992 166.225 763.378 171.17 770.773 173.795C776.577 175.856 779.032 174.86 779.657 174.581C780.113 174.377 781.723 173.702 782.75 172.422C782.618 174.827 782.517 177.235 782.452 179.649C782.434 180.336 782.423 181.023 782.41 181.711C782.327 181.846 782.254 181.984 782.206 182.128C782.007 182.718 782.142 183.285 782.375 183.905C782.37 184.341 782.367 184.778 782.364 185.214C781.07 184.039 779.527 182.271 777.67 179.753C775.995 177.48 774.404 179.148 773.383 181.083C771.781 180.725 770.253 180.946 769.051 182.071C760.992 189.616 751.954 185.613 751.826 187.862C751.789 188.512 752.136 189.028 752.573 189.588C756.092 194.092 762.999 197.378 771.206 197.725C777.646 197.996 779.797 196.242 780.336 195.771C780.525 195.605 780.949 195.247 781.409 194.744C781.778 195.039 782.137 195.307 782.497 195.551C782.638 199.87 782.892 204.183 783.268 208.489C782.962 208.517 782.67 208.567 782.452 208.589C779.333 208.908 778.281 204.689 773.569 203.148C772.004 202.637 768.988 202.078 767.399 203.148C767.171 203.303 766.39 203.882 765.178 204.385C764.462 204.682 763.915 204.82 763.698 204.88C761.764 205.41 759.973 206.864 758.763 207.847C756.486 209.695 755.349 210.62 754.814 212.299C754.646 212.827 754.173 214.313 754.814 215.761C755.117 216.445 755.82 217.462 758.516 218.481C760.118 219.087 764.791 220.853 770.361 218.976C771.629 218.548 770.661 218.701 775.543 216.255C779.384 214.331 781.63 213.411 781.959 211.557C782.074 210.905 781.958 210.11 782.452 209.826C782.727 209.668 783.059 209.744 783.391 209.864C783.714 213.326 784.118 216.782 784.607 220.231H780.212C774.376 220.231 769.14 223.486 766.549 228.726L750.109 261.963C749.071 264.061 748.523 266.408 748.523 268.75V354.215C748.523 362.642 755.364 369.498 763.772 369.498H802.145C810.553 369.498 817.394 362.642 817.394 354.215V275.518C817.394 273.599 817.04 271.721 816.34 269.935L800.672 229.929C798.772 225.078 794.656 221.646 789.736 220.583C791.314 218.708 792.895 216.835 794.488 214.968C796.493 215.937 798.7 216.734 801.072 217.292C807.347 218.771 809.788 217.453 810.406 217.091C810.996 216.745 813.553 215.339 813.986 212.994C814.032 212.743 814.05 212.489 814.047 212.233C820.475 217.469 823.828 220.05 826.278 219.19C828.384 218.45 829.587 216.025 830.275 213.849C830.995 213.949 831.757 214.052 832.57 214.16C841.374 215.339 845.81 215.885 847.507 213.795C849.856 210.903 847.627 205.326 847.012 203.789C845.677 200.449 843.622 198.416 842.346 197.18C840.689 195.574 835.966 190.997 828.53 190.387C826.913 190.254 825.461 190.356 823.982 190.666C823.466 190.194 822.922 189.731 822.323 189.291C821.182 188.453 820.055 187.832 818.842 187.348C820.703 185.304 822.569 183.267 824.444 181.239C824.741 181.374 825.022 181.505 825.281 181.625C831.424 184.484 832.773 187.284 838.68 188.758C841.36 189.426 844.394 190.183 845.145 189.045C846.48 187.023 840.816 178.704 832.064 173.076C832.654 172.449 833.245 171.825 833.837 171.201C834.637 171.537 835.342 171.865 835.943 172.145C842.086 175.004 843.435 177.803 849.342 179.277C852.022 179.946 855.056 180.703 855.807 179.565C856.998 177.761 852.617 170.941 845.443 165.494C847.413 164.867 850.027 164.172 853.411 164.261C858.543 164.396 862.553 166.262 864.933 167.37C871.075 170.229 872.425 173.029 878.332 174.503C881.012 175.171 884.046 175.928 884.797 174.79C886.781 171.784 873.307 154.85 857.191 153.55C855.94 153.449 854.815 153.458 853.799 153.533C853.658 153.3 853.506 153.06 853.345 152.817C858.798 152.992 869.447 151.43 878.512 157.808C881.125 159.646 886.203 163.972 894.7 167.526C897.416 168.662 898.782 169.221 899.158 168.754C900.504 167.085 889.309 153.343 873.559 146.574C867.314 143.89 863.456 143.636 860.712 144.042C861.135 143.559 861.547 143.061 861.944 142.56C868.077 136.532 874.287 130.567 880.553 124.682C880.25 125.622 880.26 126.122 880.591 126.487ZM801.887 201.512C794.96 199.265 786.572 200.472 784.385 203.029C784.076 200.763 783.808 198.493 783.587 196.219C786.743 197.986 790.036 198.459 796.283 199.295C798.943 199.651 801.199 199.947 803.107 200.132C803.363 200.828 803.636 201.455 803.953 202.054C803.99 202.123 804.029 202.19 804.067 202.258L804.012 202.321C803.3 202.012 802.587 201.739 801.887 201.512ZM783.483 171.066C783.68 170.409 783.684 169.709 783.533 168.988C783.749 166.376 784.018 163.771 784.336 161.175C784.328 161.572 784.454 161.97 784.625 162.401C786.551 167.248 791.755 171.9 798.847 174.314C800.17 174.764 801.306 175.048 802.283 175.221C801.853 175.972 801.524 176.704 801.305 177.381C798.887 175.435 795.774 174.019 792.243 175.521C791.282 175.93 790.711 177.425 790.216 179.213C786.953 179.269 784.227 179.951 782.928 181.105C782.935 180.624 782.933 180.144 782.946 179.662C783.019 176.914 783.154 174.174 783.345 171.444C783.397 171.322 783.443 171.196 783.483 171.066ZM782.938 185.2C783.078 185.489 783.232 185.776 783.392 186.062C783.247 185.955 783.098 185.84 782.946 185.715C782.942 185.544 782.941 185.372 782.938 185.2ZM788.508 220.372C788.128 220.322 787.745 220.286 787.358 220.264C786.465 215.82 785.64 211.38 784.95 206.931C786.765 209.818 789.728 212.461 793.501 214.466C791.827 216.429 790.166 218.4 788.508 220.372ZM817.745 186.954C815.383 186.194 812.611 185.83 808.774 185.383C807.802 184.029 806.8 183.031 806.059 182.314C805.658 181.925 805.042 181.154 804.244 180.251C806.312 179.586 809.398 178.401 813.759 178.516C817.723 178.62 821.012 179.756 823.403 180.779C821.509 182.829 819.625 184.889 817.745 186.954ZM831.133 172.494C828.812 171.088 826.294 169.884 823.644 169.038C823.902 169.036 824.154 169.029 824.421 169.036C827.708 169.122 830.53 169.919 832.763 170.771C832.219 171.345 831.675 171.918 831.133 172.494Z" fill="#E6E6E6"/>
<path d="M569.935 152.851L614.003 139.925L625.183 152.851C625.183 152.851 665.595 157.698 677.418 184.627C689.242 211.555 733.847 348.353 733.847 348.353L675 357.779L593.312 291.534C593.312 291.534 567.516 279.672 569.935 251.134C571.316 234.831 567.348 214.657 563.692 200.357C560.691 188.622 563.764 176.16 571.816 167.123L569.935 152.851Z" fill="#25929B"/>
<path d="M339.401 390.852C336.555 386.356 336.219 380.8 338.502 375.992L372.435 304.54C374.968 299.208 380.412 295.762 386.305 295.762H814.908C820.637 295.762 825.849 298.921 828.51 304.005L864.882 373.487C867.396 378.29 867.23 383.931 864.439 388.578C861.648 393.224 856.751 396.01 851.34 396.032L352.432 398H352.37C347.081 398 342.236 395.331 339.401 390.852Z" fill="white"/>
<path d="M339.401 390.852C336.555 386.356 336.219 380.8 338.502 375.992L372.435 304.54C374.968 299.208 380.412 295.762 386.305 295.762H814.908C820.637 295.762 825.849 298.921 828.51 304.005L864.882 373.487C867.396 378.29 867.23 383.931 864.439 388.578C861.648 393.224 856.751 396.01 851.34 396.032L352.432 398H352.37C347.081 398 342.236 395.331 339.401 390.852ZM386.305 297.378C381.031 297.378 376.158 300.462 373.891 305.235L339.958 376.686C337.914 380.99 338.215 385.962 340.762 389.987C343.3 393.996 347.636 396.384 352.37 396.384H352.426L851.334 394.416C856.177 394.397 860.56 391.903 863.058 387.744C865.556 383.585 865.704 378.536 863.454 374.238L827.082 304.755C824.701 300.205 820.036 297.378 814.908 297.378H386.305Z" fill="#3F3D56"/>
<path d="M435.854 179.086C429.909 171.142 420.999 167.777 415.955 171.57C410.911 175.362 411.642 184.875 417.591 192.822C419.924 196.029 422.989 198.629 426.53 200.405L452.145 233.747L467.501 221.367L440.619 189.812C439.908 185.907 438.275 182.229 435.854 179.086Z" fill="#FFB6B6"/>
<path d="M575.827 156.151C575.827 156.151 607.436 169.931 607.309 184.581C607.181 199.231 549 296.451 549 296.451C549 296.451 524.008 312.349 515.513 303.207C507.018 294.064 436.374 220.862 436.374 220.862L455.62 197.826L525.506 258.817L575.827 156.151Z" fill="#25929B"/>
<path d="M653.972 339.796L663.108 368.879L556.162 375.342L565.298 342.489L653.972 339.796Z" fill="#E6E6E6"/>
<path d="M536.336 336.694L545.472 365.777L438.525 372.24L447.661 339.387L536.336 336.694Z" fill="#E6E6E6"/>
<path d="M800.09 316.839L809.226 345.922L702.279 352.385L711.416 319.532L800.09 316.839Z" fill="#E6E6E6"/>
<path d="M589.073 317.724L561.356 304.063C561.166 303.97 560.957 303.923 560.745 303.928L496.775 305.312L477.308 232.046C477.26 231.864 477.118 231.723 476.936 231.675L453.391 225.52C453.001 225.418 452.648 225.779 452.758 226.168L476.096 308.559C476.134 308.693 476.224 308.806 476.345 308.874L500.342 322.177C500.527 322.28 500.725 322.253 500.876 322.155L501.004 322.302C501.264 322.599 501.642 322.765 502.036 322.753L588.529 320.233C589.905 320.193 590.309 318.333 589.073 317.724Z" fill="#3F3D56"/>
<path d="M561.771 297.304C551.865 297.537 543.955 302.848 544.104 309.166C544.253 315.484 552.403 320.415 562.313 320.181C566.273 320.142 570.166 319.153 573.666 317.297L615.627 315.78L614.497 296.061L573.251 299.651C569.666 297.961 565.73 297.156 561.771 297.304Z" fill="#FFB6B6"/>
<path d="M624.483 169.816C624.483 169.816 654.041 152.043 665.864 160.66C677.687 169.277 722.83 273.222 722.83 273.222C722.83 273.222 721.218 302.844 708.857 304.46C696.497 306.075 595.999 321.155 595.999 321.155L588.476 292.072L660.49 271.068L624.483 169.816Z" fill="#25929B"/>
<path d="M444.601 363.677C482.327 363.677 512.909 354.707 512.909 343.642C512.909 332.576 482.327 323.606 444.601 323.606C406.876 323.606 376.293 332.576 376.293 343.642C376.293 354.707 406.876 363.677 444.601 363.677Z" fill="#3F3D56"/>
<path d="M512.644 341.967C512.644 350.266 483.16 354.494 445.434 354.494C407.709 354.494 376.433 350.266 376.433 341.967C376.433 333.668 407.709 324.441 445.434 324.441C483.16 324.441 512.644 333.668 512.644 341.967Z" fill="#2F2E41"/>
<path d="M392.537 326.528L381.708 332.371C381.708 332.371 382.541 350.737 401.7 349.903C420.86 349.068 429.157 345.729 428.757 343.642C428.357 341.554 429.19 330.702 421.693 332.371C414.196 334.041 403.366 335.711 403.366 335.711L392.537 326.528Z" fill="#25929B"/>
<path d="M428.558 341.041C427.169 343.102 418.727 345.821 401.7 346.563C387.531 347.181 383.388 337.302 382.19 332.111L381.708 332.371C381.708 332.371 382.541 350.737 401.7 349.903C420.86 349.068 429.157 345.729 428.757 343.642C428.665 343.158 428.637 342.201 428.558 341.041Z" fill="#3F3D56"/>
<path d="M428.357 329.032L417.528 334.876C417.528 334.876 418.361 353.242 437.52 352.407C456.68 351.572 464.977 348.233 464.577 346.146C464.177 344.059 465.01 333.206 457.513 334.876C450.016 336.546 439.186 338.215 439.186 338.215L428.357 329.032Z" fill="#25929B"/>
<path d="M464.378 343.546C462.989 345.607 454.547 348.326 437.52 349.068C423.351 349.685 419.208 339.806 418.01 334.616L417.528 334.876C417.528 334.876 418.361 353.242 437.52 352.407C456.68 351.572 464.977 348.233 464.577 346.146C464.485 345.662 464.457 344.706 464.378 343.546Z" fill="#3F3D56"/>
<path d="M436.687 311.501L425.858 317.345C425.858 317.345 426.691 335.711 445.851 334.876C465.01 334.041 473.308 330.702 472.908 328.615C472.507 326.528 473.341 315.675 465.843 317.345C458.346 319.014 447.517 320.684 447.517 320.684L436.687 311.501Z" fill="#25929B"/>
<path d="M472.708 326.015C471.319 328.075 462.877 330.795 445.851 331.537C431.681 332.154 427.539 322.275 426.34 317.085L425.858 317.345C425.858 317.345 426.691 335.711 445.851 334.876C465.01 334.041 473.308 330.702 472.908 328.615C472.815 328.131 472.788 327.174 472.708 326.015Z" fill="#3F3D56"/>
<path d="M473.341 323.188L462.511 329.032C462.511 329.032 463.344 347.398 482.504 346.563C501.663 345.729 509.961 342.389 509.561 340.302C509.161 338.215 509.994 327.363 502.496 329.032C494.999 330.702 484.17 332.371 484.17 332.371L473.341 323.188Z" fill="#25929B"/>
<path d="M509.362 337.702C507.972 339.763 499.53 342.482 482.504 343.224C468.334 343.841 464.192 333.963 462.993 328.772L462.511 329.032C462.511 329.032 463.344 347.398 482.504 346.563C501.663 345.729 509.961 342.389 509.561 340.302C509.468 339.819 509.441 338.862 509.362 337.702Z" fill="#3F3D56"/>
<path d="M399.632 151.6L384.032 160.018C384.032 160.018 385.232 186.474 412.832 185.272C440.432 184.069 452.385 179.259 451.808 176.253C451.232 173.246 452.432 157.613 441.632 160.018C430.832 162.423 415.232 164.828 415.232 164.828L399.632 151.6Z" fill="#25929B"/>
<path d="M451.521 172.507C449.52 175.476 437.359 179.393 412.832 180.462C392.42 181.351 386.453 167.12 384.727 159.643L384.032 160.018C384.032 160.018 385.232 186.474 412.832 185.272C440.432 184.069 452.384 179.259 451.808 176.253C451.675 175.556 451.635 174.178 451.521 172.507Z" fill="#3F3D56"/>
<path d="M577.292 139.746C599.012 139.746 616.62 122.1 616.62 100.333C616.62 78.5661 599.012 60.9203 577.292 60.9203C555.571 60.9203 537.964 78.5661 537.964 100.333C537.964 122.1 555.571 139.746 577.292 139.746Z" fill="#FFB6B6"/>
<path d="M586.559 111.723L575.852 98.3587L569.511 79.2275C569.511 79.2275 529.5 94.0801 538.217 72.6664C546.934 51.2526 574.471 42.9505 595.301 55.8285L604.457 62.9238C604.457 62.9238 584.209 47.9382 594.557 40.6149C604.905 33.2915 602.431 29.4993 609.039 33.8309C615.647 38.1625 613.101 42.5386 619.781 38.7018C626.462 34.865 641.06 29.0874 639.634 34.3533C638.208 39.6191 654.874 50.9412 650.006 57.6273C645.138 64.3134 651.558 75.807 641.166 73.9554C630.773 72.1038 637.543 86.6168 627.805 81.6291C627.805 81.6291 636.321 90.241 631.111 97.9869C625.901 105.733 616.934 109.553 619.103 119.501C621.273 129.449 597.398 134.319 597.398 134.319L595.873 104.722C595.873 104.722 589.332 100.51 586.559 111.723Z" fill="#2F2E41"/>
</g>
<defs>
<clipPath id="clip0_8_778">
<rect width="566" height="366" fill="white" transform="translate(337 32)"/>
</clipPath>
</defs>
</svg>
