<svg width="1239" height="430" viewBox="0 0 1239 430" fill="none" xmlns="http://www.w3.org/2000/svg">
<rect width="1239" height="430" fill="white"/>
<g clip-path="url(#clip0_38_3)">
<path d="M618.997 410C614.551 410 610.117 409.85 605.827 409.562C601.393 409.268 596.953 408.818 592.62 408.224C590.712 407.968 588.986 407.711 587.342 407.442C582.458 406.648 577.486 405.641 572.571 404.44C570.889 404.034 569.238 403.609 567.674 403.171C567.124 403.027 566.561 402.871 566.005 402.714C563.628 402.045 561.327 401.351 559.176 400.651C559.038 400.613 558.876 400.557 558.713 400.507C556.768 399.882 554.742 399.187 552.697 398.443C550.971 397.818 549.22 397.155 547.344 396.417C543.436 394.879 539.521 393.178 535.706 391.37C534.118 390.626 532.461 389.807 530.635 388.881C530.31 388.719 529.978 388.55 529.653 388.381L529.278 388.187C507.841 377.056 488.836 362.203 472.802 344.048C441.335 308.415 424 262.581 424 214.997C424 162.91 444.286 113.937 481.113 77.1089C517.94 40.2808 566.911 20 618.997 20C671.082 20 720.054 40.2808 756.887 77.1089C793.72 113.937 814 162.91 814 214.997C814 245.603 807.109 274.901 793.526 302.08C780.569 327.995 761.602 351.128 738.664 368.969C733.273 373.172 727.595 377.124 721.792 380.726C715.907 384.391 709.735 387.787 703.444 390.814C702.043 391.489 700.543 392.189 698.717 393.009L698.541 393.084C698.316 393.184 698.091 393.284 697.866 393.378C696.503 393.984 695.115 394.578 693.745 395.141L693.126 395.404C692.738 395.566 692.376 395.717 692.013 395.854C687.366 397.73 682.683 399.419 678.093 400.863C677.73 400.988 677.361 401.101 676.986 401.214L676.66 401.314C672.846 402.496 668.831 403.596 664.748 404.578C649.87 408.168 634.474 409.987 618.997 409.987L618.997 410ZM618.997 21.2507C567.243 21.2507 518.591 41.4002 481.995 77.9969C445.406 114.587 425.251 163.241 425.251 214.997C425.251 262.281 442.473 307.814 473.747 343.217C489.681 361.252 508.56 376.011 529.859 387.068L530.235 387.261C530.554 387.43 530.879 387.593 531.204 387.756C533.024 388.681 534.668 389.494 536.244 390.232C540.034 392.027 543.924 393.715 547.807 395.241C549.67 395.979 551.409 396.636 553.122 397.255C555.155 397.993 557.168 398.681 559.107 399.306C559.257 399.356 559.401 399.4 559.545 399.444C561.702 400.144 563.979 400.832 566.342 401.501C566.886 401.657 567.443 401.814 567.993 401.958C569.557 402.389 571.189 402.814 572.858 403.221C577.749 404.415 582.683 405.422 587.542 406.204C589.174 406.473 590.887 406.729 592.782 406.986C597.085 407.574 601.5 408.024 605.902 408.311C610.167 408.599 614.569 408.749 618.984 408.749C634.368 408.749 649.658 406.942 664.447 403.377C668.506 402.402 672.489 401.307 676.292 400.132L676.617 400.032C676.979 399.919 677.336 399.813 677.699 399.688C682.27 398.249 686.929 396.573 691.55 394.703C691.913 394.56 692.263 394.416 692.613 394.272L693.382 393.953C694.702 393.409 696.04 392.834 697.366 392.246C697.597 392.146 697.81 392.052 698.029 391.952L698.204 391.877C700.017 391.058 701.512 390.363 702.9 389.694C709.154 386.686 715.288 383.315 721.135 379.67C726.901 376.092 732.542 372.159 737.901 367.988C760.689 350.252 779.537 327.27 792.413 301.523C805.908 274.526 812.756 245.415 812.756 215.003C812.756 163.247 792.601 114.594 756.005 78.0031C719.409 41.4002 670.751 21.2507 618.997 21.2507Z" fill="#DADBDC"/>
<path d="M595.327 286.489L642.71 297.84L637.213 231.438L595.365 234.902L595.327 286.489Z" fill="#F3A3A6"/>
<path d="M629.221 250.449C654.696 250.449 675.347 229.797 675.347 204.322C675.347 178.846 654.696 158.194 629.221 158.194C603.747 158.194 583.095 178.846 583.095 204.322C583.095 229.797 603.747 250.449 629.221 250.449Z" fill="#F3A3A6"/>
<path d="M677.905 400.275C677.536 400.401 677.173 400.513 676.804 400.626C676.698 400.657 676.592 400.694 676.485 400.726C672.577 401.939 668.612 403.021 664.604 403.984C649.977 407.511 634.699 409.375 618.997 409.375C614.582 409.375 610.204 409.231 605.871 408.937C601.437 408.643 597.047 408.199 592.707 407.605C590.944 407.367 589.193 407.111 587.448 406.823C582.476 406.016 577.561 405.01 572.721 403.828C571.089 403.434 569.463 403.015 567.843 402.564C567.287 402.421 566.73 402.264 566.18 402.108C563.897 401.464 561.627 400.782 559.376 400.05C559.226 400.007 559.07 399.957 558.919 399.907C556.906 399.256 554.905 398.568 552.916 397.849C551.128 397.205 549.352 396.53 547.582 395.829C543.648 394.278 539.784 392.602 535.982 390.801L537.445 384.172L542.516 361.209L553.529 311.317L564.66 260.899L593.908 261.712H593.92L595.346 261.756L639.827 262.994L659.288 263.538L677.905 400.275Z" fill="#DADBDC"/>
<path d="M721.467 380.195C715.576 383.866 709.466 387.224 703.175 390.251C701.618 391.001 700.042 391.727 698.46 392.44C698.179 392.565 697.904 392.69 697.622 392.809C696.259 393.415 694.889 394.003 693.507 394.572L692.888 394.835C692.526 394.985 692.163 395.135 691.794 395.279C687.248 397.117 682.62 398.793 677.911 400.276C677.542 400.401 677.179 400.513 676.811 400.626L636.013 296.233L633.255 289.185L625.563 269.492L623.012 262.969L639.852 263.232L659.294 263.538C676.942 265.796 691.575 278.284 696.584 295.351L721.473 380.195L721.467 380.195Z" fill="#DADBDC"/>
<path d="M596.866 225.397C598.504 225.122 600.143 224.84 601.781 224.565C602.169 215.804 603.013 206.029 609.573 200.207C613.187 196.999 618.415 195.129 620.21 190.639C621.698 186.918 620.31 182.346 622.386 178.919C624.569 175.311 629.446 174.667 633.661 174.404C640.259 173.998 646.975 173.597 653.397 175.161C659.82 176.73 666.017 180.595 668.756 186.611C669.6 188.462 670.088 190.457 670.576 192.433C672.22 199.119 674.741 211.839 674.741 211.839C674.741 211.839 675.228 209.206 676.617 204.084C679.45 200.032 682.908 196.292 684.571 191.639C686.572 186.036 685.691 179.776 683.727 174.166C679.268 161.403 668.925 150.615 656.043 146.512C643.154 142.416 630.966 140.096 621.336 149.589C619.528 151.372 617.903 153.36 615.839 154.836C612.024 157.569 607.153 158.257 602.85 160.146C593.276 164.348 584.621 174.454 582.464 184.685C580.306 194.916 581.432 205.516 582.57 215.916C583.552 224.884 587.811 234.884 595.277 239.949C595.584 235.359 595.89 230.775 596.197 226.185L596.859 225.403H596.866V225.397Z" fill="#2F2E43"/>
<path d="M622.399 268.522L621.949 269.26L609.354 289.847L590.681 320.391L586.898 326.576L573.102 349.139C573.102 349.139 568.625 355.436 561.071 363.51L561.046 363.535C558.3 366.462 555.155 369.62 551.672 372.79C551.647 372.822 551.622 372.847 551.59 372.865C547.338 376.743 542.585 380.639 537.445 384.172C535.331 385.629 533.155 387.018 530.929 388.318C530.472 388.093 530.022 387.856 529.572 387.624C508.172 376.511 489.099 361.54 473.278 343.629C489.793 317.251 522.474 287.671 543.53 270.055C555.442 260.08 571.358 256.321 586.466 259.936L593.908 261.712L595.346 262.056L622.399 268.522Z" fill="#DADBDC"/>
<path d="M681.157 262.175C673.046 259.254 651.578 259.242 641.947 262.494C640.077 263.125 638.946 265.026 639.271 266.971L639.652 269.279C638.814 269.154 637.995 268.916 637.22 268.56C634.925 267.509 630.403 266.083 625.838 268.36C622.649 269.948 620.404 272.944 619.616 276.427C617.734 284.757 622.48 289.366 622.48 289.366L628.802 295.301C634.099 300.266 639.877 304.694 646.05 308.509L646.175 308.584L643.923 295.038C642.654 297.271 639.783 298.002 637.601 296.651C632.085 293.237 623.074 286.395 624.168 278.628C624.931 273.213 627.939 272.062 630.828 272.306C634.062 272.581 636.882 274.613 638.264 277.546C638.595 278.247 639.139 278.822 639.815 279.197L641.441 280.085L646.206 308.796C646.418 310.084 647.244 311.198 648.413 311.773C659.62 317.27 671.714 314.418 675.898 313.136C676.854 312.842 677.674 312.211 678.186 311.348L679.087 309.853C679.399 309.34 679.587 308.759 679.65 308.165L683.808 266.377C683.99 264.532 682.895 262.806 681.15 262.175L681.157 262.175Z" fill="#25929B"/>
<path d="M661.74 266.171C672.146 266.171 680.581 265.376 680.581 264.395C680.581 263.414 672.146 262.619 661.74 262.619C651.334 262.619 642.898 263.414 642.898 264.395C642.898 265.376 651.334 266.171 661.74 266.171Z" fill="#DEDFE0"/>
<path d="M624.1 299.991C634.324 292.168 638.37 280.404 633.136 273.719C627.908 267.034 615.382 267.953 605.152 275.783C601.024 278.853 597.722 282.893 595.54 287.565L552.666 321.266L569.688 341.628L610.148 306.238C615.27 305.319 620.054 303.174 624.093 299.991H624.1Z" fill="#F3A3A6"/>
<path d="M595.734 329.271L578.774 299.441L517.058 328.483L551.59 372.872L595.734 329.271Z" fill="#DADBDC"/>
<path opacity="0.1" d="M558.744 308.865C558.744 308.865 513.757 341.803 515.42 341.622C517.083 341.441 539.265 329.24 539.265 329.24L558.744 308.865Z" fill="#272223"/>
</g>
<defs>
<clipPath id="clip0_38_3">
<rect width="390" height="390" fill="white" transform="translate(424 20)"/>
</clipPath>
</defs>
</svg>
