<svg width="1239" height="430" viewBox="0 0 1239 430" fill="none" xmlns="http://www.w3.org/2000/svg">
<rect width="1239" height="430" fill="white"/>
<g clip-path="url(#clip0_40_2683)">
<path d="M580.826 401.102C582.689 401.219 583.719 398.905 582.31 397.556L582.169 396.999C582.188 396.955 582.206 396.91 582.225 396.865C584.109 392.374 590.494 392.405 592.362 396.903C594.02 400.895 596.131 404.894 596.65 409.114C596.883 410.978 596.778 412.876 596.365 414.704C600.25 406.221 602.294 396.957 602.294 387.641C602.294 385.3 602.166 382.96 601.904 380.625C601.688 378.715 601.391 376.817 601.007 374.936C598.928 364.77 594.425 355.087 587.931 347C584.81 345.294 582.206 342.627 580.634 339.431C580.069 338.278 579.626 337.038 579.417 335.774C579.772 335.821 580.756 330.412 580.488 330.08C580.983 329.329 581.869 328.955 582.41 328.223C585.099 324.577 588.805 325.214 590.739 330.167C594.871 332.252 594.911 335.71 592.375 339.035C590.762 341.15 590.541 344.013 589.125 346.278C589.271 346.464 589.422 346.645 589.568 346.831C592.238 350.255 594.548 353.935 596.494 357.801C595.944 353.504 596.756 348.328 598.141 344.991C599.718 341.19 602.672 337.988 605.274 334.701C608.4 330.753 614.809 332.476 615.359 337.481C615.365 337.529 615.37 337.577 615.375 337.626C614.989 337.844 614.61 338.075 614.24 338.32C612.13 339.715 612.86 342.984 615.359 343.37L615.416 343.378C615.276 344.77 615.037 346.15 614.688 347.507C618.026 360.412 610.819 365.112 600.529 365.323C600.302 365.44 600.081 365.556 599.854 365.667C600.896 368.601 601.729 371.612 602.346 374.663C602.9 377.358 603.284 380.083 603.5 382.82C603.767 386.273 603.744 389.743 603.453 393.19L603.47 393.068C604.21 389.271 606.272 385.725 609.265 383.268C613.725 379.606 620.026 378.257 624.837 375.313C627.153 373.896 630.121 375.728 629.716 378.412L629.697 378.54C628.98 378.832 628.281 379.169 627.606 379.548C627.219 379.766 626.841 379.997 626.471 380.242C624.361 381.637 625.09 384.906 627.59 385.292L627.647 385.3C627.687 385.306 627.722 385.312 627.763 385.318C626.534 388.235 624.822 390.942 622.679 393.277C620.591 404.543 611.627 405.612 602.038 402.331H602.032C600.983 406.896 599.452 411.356 597.483 415.606H581.234C581.175 415.426 581.123 415.24 581.071 415.059C582.573 415.152 584.087 415.065 585.567 414.791C584.361 413.312 583.156 411.822 581.95 410.343C581.921 410.314 581.898 410.285 581.874 410.256C581.263 409.499 580.645 408.748 580.034 407.991L580.034 407.99C579.995 405.666 580.274 403.35 580.826 401.102Z" fill="#F2F2F2"/>
<path d="M365 415.927C365 416.522 365.478 417 366.073 417H729.734C730.329 417 730.807 416.522 730.807 415.927C730.807 415.332 730.329 414.854 729.734 414.854H366.073C365.478 414.854 365 415.332 365 415.927Z" fill="#CCCCCC"/>
<path d="M856.214 416.761H669.959C660.152 416.761 652.173 408.784 652.173 398.98V29.7812C652.173 19.9768 660.152 12 669.959 12H856.214C866.021 12 874 19.9768 874 29.7812V398.98C874 408.784 866.021 416.761 856.214 416.761ZM669.959 13.8029C661.132 13.8029 653.977 20.9564 653.977 29.7807V398.98C653.977 407.804 661.133 414.958 669.96 414.958H856.214C865.041 414.958 872.197 407.804 872.197 398.98V147.856C872.197 73.8206 812.161 13.8029 738.104 13.8029H669.959Z" fill="#E6E6E6"/>
<path d="M705.075 194.204C717.027 194.204 726.716 184.517 726.716 172.568C726.716 160.62 717.027 150.933 705.075 150.933C693.122 150.933 683.433 160.62 683.433 172.568C683.433 184.517 693.122 194.204 705.075 194.204Z" fill="#E6E6E6"/>
<path d="M821.098 194.204C833.05 194.204 842.739 184.517 842.739 172.568C842.739 160.62 833.05 150.933 821.098 150.933C809.145 150.933 799.456 160.62 799.456 172.568C799.456 184.517 809.145 194.204 821.098 194.204Z" fill="#E6E6E6"/>
<path d="M763.086 194.204C775.039 194.204 784.728 184.517 784.728 172.568C784.728 160.62 775.039 150.933 763.086 150.933C751.134 150.933 741.445 160.62 741.445 172.568C741.445 184.517 751.134 194.204 763.086 194.204Z" fill="#E6E6E6"/>
<path d="M705.075 256.405C717.027 256.405 726.716 246.719 726.716 234.77C726.716 222.821 717.027 213.135 705.075 213.135C693.122 213.135 683.433 222.821 683.433 234.77C683.433 246.719 693.122 256.405 705.075 256.405Z" fill="#E6E6E6"/>
<path d="M821.098 256.405C833.051 256.405 842.74 246.719 842.74 234.77C842.74 222.821 833.051 213.135 821.098 213.135C809.146 213.135 799.457 222.821 799.457 234.77C799.457 246.719 809.146 256.405 821.098 256.405Z" fill="#E6E6E6"/>
<path d="M763.086 256.405C775.039 256.405 784.728 246.719 784.728 234.77C784.728 222.821 775.039 213.135 763.086 213.135C751.134 213.135 741.445 222.821 741.445 234.77C741.445 246.719 751.134 256.405 763.086 256.405Z" fill="#E6E6E6"/>
<path d="M705.075 318.607C717.027 318.607 726.716 308.92 726.716 296.972C726.716 285.023 717.027 275.336 705.075 275.336C693.122 275.336 683.433 285.023 683.433 296.972C683.433 308.92 693.122 318.607 705.075 318.607Z" fill="#E6E6E6"/>
<path d="M820.655 380.702C832.608 380.702 842.297 371.016 842.297 359.067C842.297 347.118 832.608 337.431 820.655 337.431C808.703 337.431 799.014 347.118 799.014 359.067C799.014 371.016 808.703 380.702 820.655 380.702Z" fill="#E6E6E6"/>
<path d="M734.54 380.702C762.678 380.702 785.488 371.016 785.488 359.067C785.488 347.118 762.678 337.431 734.54 337.431C706.402 337.431 683.592 347.118 683.592 359.067C683.592 371.016 706.402 380.702 734.54 380.702Z" fill="#E6E6E6"/>
<path d="M821.098 318.607C833.051 318.607 842.74 308.92 842.74 296.972C842.74 285.023 833.051 275.336 821.098 275.336C809.146 275.336 799.457 285.023 799.457 296.972C799.457 308.92 809.146 318.607 821.098 318.607Z" fill="#E6E6E6"/>
<path d="M763.086 318.607C775.039 318.607 784.728 308.92 784.728 296.972C784.728 285.023 775.039 275.336 763.086 275.336C751.134 275.336 741.445 285.023 741.445 296.972C741.445 308.92 751.134 318.607 763.086 318.607Z" fill="#25929B"/>
<path d="M767.339 37.2412H560.361C554.224 37.2412 549.233 42.2302 549.233 48.3657V124.377C549.233 130.513 554.224 135.502 560.361 135.502H767.339C773.477 135.502 778.467 130.513 778.467 124.377V48.3657C778.467 42.2302 773.477 37.2412 767.339 37.2412Z" fill="white"/>
<path d="M767.339 37.2412H560.361C554.224 37.2412 549.233 42.2302 549.233 48.3657V124.377C549.233 130.513 554.224 135.502 560.361 135.502H767.339C773.477 135.502 778.467 130.513 778.467 124.377V48.3657C778.467 42.2302 773.477 37.2412 767.339 37.2412ZM777.297 124.377C777.297 129.869 772.833 134.332 767.339 134.332H560.361C554.867 134.332 550.403 129.869 550.403 124.377V48.3657C550.403 42.8736 554.867 38.411 560.361 38.411H767.339C772.833 38.411 777.297 42.8736 777.297 48.3657V124.377Z" fill="#3F3D56"/>
<path d="M755.827 83.2163H571.873C570.13 83.2163 568.717 84.6289 568.717 86.3714C568.717 88.114 570.13 89.5266 571.873 89.5266H755.827C757.57 89.5266 758.983 88.114 758.983 86.3714C758.983 84.6289 757.57 83.2163 755.827 83.2163Z" fill="#25929B"/>
<path d="M426.275 174.645L424.431 185.62L440.78 225.378L449.552 220.87L441.014 183.664L439.787 169.465L426.275 174.645Z" fill="#A0616A"/>
<path d="M444.322 112.9C444.322 112.9 435.762 108.755 429.12 122.762C422.478 136.768 423.3 167.487 423.3 167.487C423.3 167.487 420.882 169.79 422.417 171.402C423.952 173.014 425.384 175.572 423.817 178.52C422.992 180.075 421.082 183.115 424.21 183.979C427.338 184.842 441.972 180.762 441.972 180.762C441.972 180.762 447.444 178.311 444.335 176.661C441.226 175.011 445.605 165.027 445.605 165.027L449.223 136.188L444.322 112.9Z" fill="#25929B"/>
<path d="M451.043 240.568C454.479 239.514 455.824 233.969 454.047 228.184C452.27 222.399 448.044 218.565 444.608 219.619C441.172 220.674 439.828 226.219 441.605 232.004C443.382 237.789 447.607 241.623 451.043 240.568Z" fill="#A0616A"/>
<path d="M532.071 410.964L540.265 408.766L535.682 376.125L523.589 379.37L532.071 410.964Z" fill="#A0616A"/>
<path d="M560.094 403.248C560.464 403.609 560.971 404.959 561.105 405.459C561.517 406.994 560.606 408.573 559.07 408.985L533.696 415.792C532.648 416.073 531.571 415.452 531.29 414.404L531.006 413.348C531.006 413.348 528.899 410.511 530.433 405.905C530.433 405.905 534.467 408.107 537.979 402.021L538.706 399.078L550.962 403.821L556.828 402.996C558.112 402.816 559.166 402.344 560.094 403.248Z" fill="#2F2E41"/>
<path d="M451.757 410.776L460.241 410.775L464.276 378.062L451.755 378.063L451.757 410.776Z" fill="#A0616A"/>
<path d="M480.822 410.584C481.086 411.028 481.226 412.464 481.226 412.981C481.226 414.571 479.937 415.859 478.346 415.859H452.074C450.989 415.859 450.11 414.98 450.11 413.896V412.802C450.11 412.802 448.81 409.516 451.486 405.465C451.486 405.465 454.812 408.637 459.781 403.669L461.247 401.015L471.854 408.771L477.734 409.494C479.02 409.652 480.161 409.47 480.822 410.584Z" fill="#2F2E41"/>
<path d="M508.216 215.917L530.524 312.043L541.293 389.713L524.37 392.02L477.447 259.751L466.677 392.02L447.446 393.558C447.446 393.558 432.062 236.681 438.985 217.455L508.216 215.917Z" fill="#2F2E41"/>
<path d="M534.769 102.251L542.466 94.2104L551.304 52.1416L541.515 50.9397L527.652 86.507L520.681 98.9391L534.769 102.251Z" fill="#A0616A"/>
<path d="M485.12 143.169C485.12 143.169 492.323 156.447 505.693 148.597C519.063 140.747 533.204 109.841 533.204 109.841C533.204 109.841 536.027 101.985 538.981 100.426C540.537 99.6051 544.543 98.7194 542.441 96.2468C540.34 93.7741 525.227 88.3685 525.227 88.3685C525.227 88.3685 519.324 87.3196 520.967 90.4319C522.61 93.5443 517.214 91.6163 517.758 94.9103C518.303 98.2042 513.374 99.3393 513.374 99.3393L485.12 143.169Z" fill="#25929B"/>
<path d="M554.349 46.1991C556.133 40.4163 554.795 34.8701 551.36 33.8113C547.926 32.7524 543.695 36.5819 541.912 42.3647C540.128 48.1475 541.466 53.6937 544.9 54.7525C548.335 55.8113 552.565 51.9818 554.349 46.1991Z" fill="#A0616A"/>
<path d="M486.076 97.1652H465.015L464.163 103.804C464.163 103.804 437.601 111.106 438.265 115.089C438.929 119.072 442.913 185.458 442.913 185.458L439.593 218.65C439.593 218.65 499.357 243.877 508.654 214.003L504.006 179.483C504.006 179.483 515.294 120.4 512.638 117.745C509.982 115.089 488.069 104.468 488.069 104.468L486.076 97.1652Z" fill="#25929B"/>
<path d="M473.842 97.2479C484.283 97.2479 492.746 88.7868 492.746 78.3494C492.746 67.9121 484.283 59.451 473.842 59.451C463.402 59.451 454.938 67.9121 454.938 78.3494C454.938 88.7868 463.402 97.2479 473.842 97.2479Z" fill="#A0616A"/>
<path d="M487.843 70.5757C490.258 70.3715 492.673 70.1673 495.089 69.9633C494.258 69.5826 493.394 69.1752 492.841 68.4484C492.287 67.7218 492.173 66.5737 492.841 65.9511C493.622 65.2236 494.915 65.6091 495.769 66.2499C495.299 63.7971 493.834 61.5497 491.78 60.1289C489.27 58.3933 483.062 60.4628 480.036 60.0644C476.546 59.6046 476.11 56.6293 472.619 56.1695C471.303 55.9963 469.822 55.8656 468.788 56.6966C467.64 57.6181 467.512 59.3606 466.499 60.4287C465.054 61.9537 462.576 61.5038 460.519 61.9329C457.605 62.5408 455.408 65.0949 454.394 67.8925C453.38 70.69 453.342 73.7328 453.316 76.7085C453.287 80.0432 453.277 83.9038 455.69 86.2071C457.159 87.6103 461.163 92.4246 461.596 94.4099C461.903 95.8199 474.431 97.5371 477.146 97.4589L486.401 94.4099C487.31 90.4062 485.806 82.4858 483.643 78.9953C484.355 79.9356 487.649 82.7664 488.152 81.6997C488.655 80.6331 488.427 77.29 489.054 76.2909C489.845 75.0298 486.359 70.701 487.843 70.5757Z" fill="#2F2E41"/>
</g>
<defs>
<clipPath id="clip0_40_2683">
<rect width="509" height="405" fill="white" transform="translate(365 12)"/>
</clipPath>
</defs>
</svg>
