<svg width="1239" height="430" viewBox="0 0 1239 430" fill="none" xmlns="http://www.w3.org/2000/svg">
<rect width="1239" height="430" fill="white"/>
<g clip-path="url(#clip0_40_2686)">
<path d="M662.315 172.607C663.207 153.498 648.408 137.285 629.261 136.395C610.114 135.505 593.869 150.274 592.977 169.383C592.253 184.881 601.851 198.472 615.718 203.531L620.357 248.047L655.85 221.22C655.85 221.22 648.907 211.494 645.442 200.73C655.087 194.969 661.753 184.653 662.315 172.607Z" fill="#ED9DA0"/>
<path d="M524.365 287.71L514.159 253.924C514.159 253.924 495.023 327.84 513.498 327.84C531.973 327.84 564.032 305.063 564.032 305.063L539.492 275.259L524.365 287.71Z" fill="#ED9DA0"/>
<path d="M729.337 303.816L729.219 354.955L721.73 393.295L676.427 393.187L694.986 306.69L729.337 303.816Z" fill="#ED9DA0"/>
<path d="M616.468 210.975L599.895 221.007C599.895 221.007 565.662 224.261 562.402 236.192C559.141 248.122 550.447 248.122 550.991 255.172L534.146 276.322C534.146 276.322 557.24 300.996 557.24 308.588C557.24 316.18 572.183 304.391 572.183 304.391V393.566H691.551L694.714 318.892C694.714 318.892 724.6 297.742 732.751 312.927L724.057 276.593C724.057 276.593 724.6 250.02 707.212 237.005L665.915 217.483C665.915 217.483 662.501 211.625 649.46 210.541L640.377 232.667L620.272 245.682L616.468 210.975Z" fill="#25929B"/>
<path d="M636.463 153.572C649.059 159.459 656.456 174.699 653.277 188.212C656.703 182.402 660.129 176.592 663.555 170.781C664.577 169.046 665.611 167.286 666.151 165.347C666.899 165.717 667.646 166.088 668.393 166.459C669.108 163.503 668.301 160.222 666.296 157.932C667.465 158.328 668.633 158.724 669.802 159.119C668.954 150.717 665.15 142.642 659.207 136.631L664.482 137.675C660.61 132.532 653.56 130.003 647.293 131.507L649.205 132.756C646.531 124.837 638.264 119.172 629.898 119.527C631.265 120.546 632.632 121.565 633.999 122.584C628.617 117.568 620.027 118.365 613.096 120.849C606.165 123.332 599.494 127.209 592.133 127.404C592.576 129.333 594.281 130.91 596.243 131.205L594.742 130.536C590.557 135.749 584.087 139.067 577.404 139.427C579.205 142.379 581.919 144.768 585.078 146.182C582.159 146.11 579.239 146.038 576.32 145.966C578.38 147.818 580.44 149.67 582.5 151.521L582.134 152.329C583.548 161.081 587.27 169.451 592.822 176.371C593.945 166.622 600.182 157.604 608.919 153.101C617.655 148.597 628.633 148.739 637.249 153.468L636.463 153.572Z" fill="#090814"/>
<path d="M542.793 209.404L538.598 293.091L509.532 295.095L519.719 208.3C515.699 204.019 513.293 197.634 513.63 190.607C514.221 178.313 522.963 168.742 533.158 169.229C543.353 169.717 551.139 180.078 550.549 192.373C550.212 199.399 547.205 205.525 542.793 209.404Z" fill="#ED9DA0"/>
<path d="M738.457 42.4944V59.6745H501.543V42.4944C501.543 38.6605 504.668 35.5423 508.509 35.5423H731.491C735.332 35.5423 738.457 38.6605 738.457 42.4944Z" fill="#090814"/>
<path d="M515.399 52.6246C517.5 52.6246 519.203 50.9251 519.203 48.8285C519.203 46.732 517.5 45.0325 515.399 45.0325C513.299 45.0325 511.596 46.732 511.596 48.8285C511.596 50.9251 513.299 52.6246 515.399 52.6246Z" fill="white"/>
<path d="M528.984 52.6246C531.085 52.6246 532.787 50.9251 532.787 48.8285C532.787 46.732 531.085 45.0325 528.984 45.0325C526.883 45.0325 525.18 46.732 525.18 48.8285C525.18 50.9251 526.883 52.6246 528.984 52.6246Z" fill="white"/>
<path d="M542.568 52.6246C544.669 52.6246 546.372 50.9251 546.372 48.8285C546.372 46.732 544.669 45.0325 542.568 45.0325C540.468 45.0325 538.765 46.732 538.765 48.8285C538.765 50.9251 540.468 52.6246 542.568 52.6246Z" fill="white"/>
<path d="M731.49 394H508.509C504.369 394 501 390.638 501 386.505V42.4942C501 38.3618 504.369 35 508.509 35H731.49C735.631 35 739 38.3618 739 42.4942V386.505C739 390.638 735.631 394 731.49 394ZM508.509 36.0846C504.968 36.0846 502.087 38.9597 502.087 42.4942V386.505C502.087 390.04 504.968 392.915 508.509 392.915H731.49C735.032 392.915 737.913 390.04 737.913 386.505V42.4942C737.913 38.9597 735.032 36.0846 731.49 36.0846H508.509Z" fill="black"/>
</g>
<defs>
<clipPath id="clip0_40_2686">
<rect width="238" height="359" fill="white" transform="translate(501 35)"/>
</clipPath>
</defs>
</svg>
