<svg width="1239" height="430" viewBox="0 0 1239 430" fill="none" xmlns="http://www.w3.org/2000/svg">
<rect width="1239" height="430" fill="white"/>
<g clip-path="url(#clip0_40_2102)">
<path d="M716.375 236.732H472.292V403H716.375V236.732Z" fill="#25929B"/>
<path d="M729.988 217.285H489.796C489.022 217.286 488.281 217.594 487.734 218.141C487.186 218.688 486.879 219.429 486.877 220.203V382.58C486.877 382.963 486.953 383.342 487.1 383.696C487.246 384.05 487.461 384.372 487.732 384.643C488.003 384.914 488.325 385.129 488.679 385.276C489.033 385.422 489.413 385.498 489.796 385.498H729.988C730.371 385.498 730.751 385.422 731.105 385.276C731.459 385.129 731.781 384.914 732.052 384.643C732.323 384.372 732.538 384.05 732.684 383.696C732.831 383.342 732.906 382.963 732.906 382.58V220.203C732.905 219.429 732.597 218.688 732.05 218.141C731.503 217.594 730.762 217.286 729.988 217.285ZM730.961 382.58C730.961 382.707 730.936 382.834 730.887 382.952C730.839 383.07 730.767 383.178 730.677 383.268C730.586 383.359 730.479 383.43 730.361 383.479C730.242 383.528 730.116 383.553 729.988 383.552H489.796C489.668 383.553 489.542 383.528 489.423 383.479C489.305 383.43 489.198 383.359 489.107 383.268C489.017 383.178 488.945 383.07 488.896 382.952C488.848 382.834 488.823 382.707 488.823 382.58V220.203C488.824 219.945 488.926 219.698 489.109 219.515C489.291 219.333 489.538 219.231 489.796 219.23H729.988C730.246 219.231 730.493 219.333 730.675 219.515C730.858 219.698 730.96 219.945 730.961 220.203V382.58Z" fill="#3F3D56"/>
<path d="M607.986 332.02H500.94C500.156 332.02 499.52 332.655 499.52 333.44V343.24C499.52 344.024 500.156 344.66 500.94 344.66H607.986C608.77 344.66 609.406 344.024 609.406 343.24V333.44C609.406 332.655 608.77 332.02 607.986 332.02Z" fill="#3F3D56"/>
<path d="M709.565 321.325H674.563C674.18 321.325 673.8 321.401 673.446 321.547C673.092 321.694 672.77 321.909 672.499 322.18C672.228 322.451 672.013 322.773 671.867 323.127C671.72 323.481 671.645 323.86 671.645 324.243V351.466C671.645 351.849 671.72 352.229 671.867 352.583C672.013 352.937 672.228 353.258 672.499 353.529C672.77 353.8 673.092 354.015 673.446 354.162C673.8 354.309 674.18 354.384 674.563 354.384H709.565C709.948 354.384 710.328 354.309 710.682 354.162C711.036 354.015 711.358 353.8 711.629 353.529C711.9 353.258 712.115 352.937 712.262 352.583C712.408 352.229 712.484 351.849 712.484 351.466V324.243C712.484 323.86 712.408 323.481 712.262 323.127C712.115 322.773 711.9 322.451 711.629 322.18C711.358 321.909 711.036 321.694 710.682 321.547C710.328 321.401 709.948 321.325 709.565 321.325ZM710.538 351.466C710.538 351.724 710.435 351.971 710.253 352.153C710.07 352.336 709.823 352.438 709.565 352.439H674.563C674.305 352.438 674.058 352.336 673.876 352.153C673.693 351.971 673.591 351.724 673.59 351.466V324.243C673.59 324.116 673.615 323.989 673.664 323.871C673.712 323.753 673.784 323.645 673.874 323.555C673.965 323.464 674.072 323.393 674.19 323.344C674.309 323.295 674.435 323.27 674.563 323.271H709.565C709.693 323.27 709.82 323.295 709.938 323.344C710.056 323.393 710.163 323.464 710.254 323.555C710.344 323.645 710.416 323.753 710.465 323.871C710.513 323.989 710.538 324.116 710.538 324.243V351.466Z" fill="#3F3D56"/>
<path d="M702.575 327.607H681.553C680.769 327.607 680.133 328.243 680.133 329.027V331.123C680.133 331.908 680.769 332.543 681.553 332.543H702.575C703.359 332.543 703.995 331.908 703.995 331.123V329.027C703.995 328.243 703.359 327.607 702.575 327.607Z" fill="#3F3D56"/>
<path d="M702.575 335.385H681.553C680.769 335.385 680.133 336.021 680.133 336.805V338.902C680.133 339.686 680.769 340.322 681.553 340.322H702.575C703.359 340.322 703.995 339.686 703.995 338.902V336.805C703.995 336.021 703.359 335.385 702.575 335.385Z" fill="#3F3D56"/>
<path d="M702.575 343.164H681.553C680.769 343.164 680.133 343.8 680.133 344.584V346.68C680.133 347.464 680.769 348.1 681.553 348.1H702.575C703.359 348.1 703.995 347.464 703.995 346.68V344.584C703.995 343.8 703.359 343.164 702.575 343.164Z" fill="#3F3D56"/>
<path d="M551.584 228.954H503.858C503.073 228.954 502.438 229.59 502.438 230.374V248.925C502.438 249.709 503.073 250.345 503.858 250.345H551.584C552.369 250.345 553.005 249.709 553.005 248.925V230.374C553.005 229.59 552.369 228.954 551.584 228.954Z" fill="#3F3D56"/>
<path d="M531.611 239.649C531.611 243.408 529.869 246.456 527.721 246.456C525.573 246.456 523.831 243.408 523.831 239.649C523.831 235.89 527.721 232.843 527.721 232.843C527.721 232.843 531.611 235.891 531.611 239.649Z" fill="#25929B"/>
<path d="M895.525 141.909H894.104V300.681H732.907V302.101H895.525V141.909Z" fill="#3F3D56"/>
<path d="M472.292 302.101H309.674V141.909H311.094V300.681H472.292V302.101Z" fill="#3F3D56"/>
<path d="M984.545 53.8459H983.635V52.2534H984.317C984.438 52.2534 984.554 52.2054 984.639 52.1201C984.724 52.0348 984.772 51.919 984.772 51.7984V43.6081C984.772 43.4874 984.724 43.3717 984.639 43.2863C984.554 43.201 984.438 43.1531 984.317 43.1531H983.635V38.5017C983.635 37.2004 983.378 35.9118 982.88 34.7096C982.382 33.5074 981.652 32.415 980.732 31.4948C979.812 30.5747 978.719 29.8448 977.517 29.3468C976.314 28.8488 975.026 28.5925 973.724 28.5926H972.713V27.455C972.713 27.3343 972.665 27.2186 972.579 27.1333C972.494 27.0479 972.378 27 972.258 27H964.066C963.946 27 963.83 27.0479 963.745 27.1333C963.659 27.2186 963.611 27.3343 963.611 27.455V28.5926H815.611C814.309 28.5925 813.021 28.8488 811.818 29.3468C810.616 29.8448 809.523 30.5747 808.603 31.4948C807.683 32.415 806.953 33.5074 806.455 34.7096C805.957 35.9118 805.7 37.2004 805.7 38.5017V249.376C805.7 250.678 805.957 251.966 806.455 253.168C806.953 254.371 807.683 255.463 808.603 256.383C809.523 257.303 810.616 258.033 811.818 258.531C813.02 259.029 814.309 259.285 815.611 259.285H973.724C975.026 259.285 976.314 259.029 977.517 258.531C978.719 258.033 979.812 257.303 980.732 256.383C981.652 255.463 982.382 254.371 982.88 253.168C983.378 251.966 983.635 250.678 983.635 249.376V62.9462H984.545C984.665 62.9462 984.781 62.8983 984.866 62.813C984.952 62.7276 985 62.6119 985 62.4912V54.301C985 54.2412 984.988 54.182 984.965 54.1268C984.942 54.0716 984.909 54.0215 984.866 53.9792C984.824 53.9369 984.774 53.9034 984.719 53.8806C984.664 53.8577 984.604 53.8459 984.545 53.8459Z" fill="#3F3D56"/>
<path d="M975.457 35.0742H815.243C814.496 35.0742 813.891 35.6797 813.891 36.4267V249.859C813.891 250.606 814.496 251.211 815.243 251.211H975.457C976.204 251.211 976.809 250.606 976.809 249.859V36.4267C976.809 35.6797 976.204 35.0742 975.457 35.0742Z" fill="#D0CDE1"/>
<path d="M903.169 141.001H878.062C877.277 141.001 876.642 141.637 876.642 142.421V147.862C876.642 148.646 877.277 149.282 878.062 149.282H903.169C903.954 149.282 904.59 148.646 904.59 147.862V142.421C904.59 141.637 903.954 141.001 903.169 141.001Z" fill="#3F3D56"/>
<path d="M936.957 76.5273H844.274C843.49 76.5273 842.854 77.1631 842.854 77.9474V78.6563C842.854 79.4406 843.49 80.0764 844.274 80.0764H936.957C937.742 80.0764 938.378 79.4406 938.378 78.6563V77.9474C938.378 77.1631 937.742 76.5273 936.957 76.5273Z" fill="#3F3D56"/>
<path d="M936.957 87.7659H844.274C843.49 87.7659 842.854 88.4017 842.854 89.1859V89.8948C842.854 90.6791 843.49 91.3149 844.274 91.3149H936.957C937.742 91.3149 938.378 90.6791 938.378 89.8948V89.1859C938.378 88.4017 937.742 87.7659 936.957 87.7659Z" fill="#3F3D56"/>
<path d="M936.957 99.0044H844.274C843.49 99.0044 842.854 99.6402 842.854 100.424V101.133C842.854 101.918 843.49 102.553 844.274 102.553H936.957C937.742 102.553 938.378 101.918 938.378 101.133V100.424C938.378 99.6402 937.742 99.0044 936.957 99.0044Z" fill="#3F3D56"/>
<path d="M936.957 110.243H844.274C843.49 110.243 842.854 110.879 842.854 111.663V112.372C842.854 113.156 843.49 113.792 844.274 113.792H936.957C937.742 113.792 938.378 113.156 938.378 112.372V111.663C938.378 110.879 937.742 110.243 936.957 110.243Z" fill="#3F3D56"/>
<path d="M936.957 121.481H844.274C843.49 121.481 842.854 122.117 842.854 122.902V123.61C842.854 124.395 843.49 125.03 844.274 125.03H936.957C937.742 125.03 938.378 124.395 938.378 123.61V122.902C938.378 122.117 937.742 121.481 936.957 121.481Z" fill="#3F3D56"/>
<path d="M887.234 242.677C903.62 242.677 916.903 229.396 916.903 213.012C916.903 196.629 903.62 183.348 887.234 183.348C870.849 183.348 857.565 196.629 857.565 213.012C857.565 229.396 870.849 242.677 887.234 242.677Z" fill="#25929B"/>
<path d="M895.979 235.894C888.622 235.894 881.43 233.712 875.313 229.625C869.196 225.539 864.428 219.73 861.613 212.934C858.797 206.138 858.061 198.66 859.496 191.445C860.931 184.23 864.474 177.603 869.676 172.402C874.878 167.2 881.506 163.658 888.722 162.223C895.938 160.788 903.417 161.524 910.214 164.339C917.011 167.154 922.82 171.921 926.908 178.038C930.995 184.154 933.176 191.345 933.176 198.701C933.165 208.562 929.243 218.015 922.269 224.988C915.296 231.96 905.841 235.882 895.979 235.894ZM895.979 162.861C888.889 162.861 881.959 164.963 876.064 168.901C870.17 172.839 865.575 178.436 862.862 184.985C860.149 191.534 859.44 198.741 860.823 205.693C862.206 212.645 865.62 219.031 870.633 224.044C875.646 229.056 882.033 232.469 888.986 233.852C895.939 235.235 903.146 234.526 909.696 231.813C916.246 229.1 921.844 224.506 925.783 218.613C929.722 212.719 931.824 205.789 931.824 198.701C931.813 189.199 928.033 180.089 921.313 173.37C914.593 166.651 905.482 162.871 895.979 162.861Z" fill="#3F3D56"/>
<path d="M365.418 89.42H364.202V56.0924C364.202 53.5593 363.703 51.051 362.733 48.7107C361.764 46.3704 360.343 44.244 358.551 42.4529C356.76 40.6617 354.633 39.2409 352.293 38.2715C349.952 37.3021 347.443 36.8032 344.91 36.8032H274.292C271.758 36.8032 269.25 37.3021 266.909 38.2715C264.568 39.2409 262.442 40.6617 260.65 42.4529C258.859 44.244 257.438 46.3705 256.468 48.7107C255.499 51.051 255 53.5593 255 56.0924V238.93C255 241.463 255.499 243.972 256.468 246.312C257.438 248.652 258.859 250.779 260.65 252.57C262.442 254.361 264.569 255.782 266.909 256.751C269.25 257.72 271.758 258.219 274.292 258.219H344.91C347.443 258.219 349.952 257.72 352.293 256.751C354.633 255.782 356.76 254.361 358.551 252.57C360.343 250.779 361.764 248.652 362.733 246.312C363.703 243.972 364.202 241.463 364.202 238.93V113.143H365.418V89.42Z" fill="#3F3D56"/>
<path d="M360.093 57.226V239.797C360.094 243.618 358.577 247.282 355.875 249.984C353.174 252.686 349.51 254.204 345.689 254.205H274.729C270.908 254.204 267.244 252.686 264.543 249.984C261.841 247.282 260.324 243.618 260.325 239.797V57.226C260.325 53.4063 261.843 49.7431 264.544 47.0421C267.245 44.3412 270.909 42.8236 274.729 42.8232H283.338C282.915 43.8623 282.753 44.9897 282.868 46.1059C282.982 47.2222 283.37 48.2931 283.996 49.2243C284.622 50.1556 285.468 50.9186 286.458 51.4461C287.449 51.9736 288.554 52.2495 289.676 52.2495H330.133C331.255 52.2495 332.36 51.9737 333.351 51.4461C334.341 50.9186 335.187 50.1556 335.813 49.2244C336.439 48.2931 336.827 47.2222 336.941 46.1059C337.056 44.9897 336.895 43.8623 336.471 42.8232H345.689C349.509 42.8237 353.172 44.3412 355.874 47.0422C358.575 49.7431 360.093 53.4063 360.093 57.226Z" fill="#D0CDE1"/>
<path d="M318.293 150.384H302.125C301.34 150.384 300.705 151.02 300.705 151.804V154.596C300.705 155.381 301.34 156.016 302.125 156.016H318.293C319.078 156.016 319.713 155.381 319.713 154.596V151.804C319.713 151.02 319.078 150.384 318.293 150.384Z" fill="#3F3D56"/>
<path d="M341.488 106.532H278.931C278.265 106.532 277.724 107.072 277.724 107.739C277.724 108.405 278.265 108.946 278.931 108.946H341.488C342.154 108.946 342.695 108.405 342.695 107.739C342.695 107.072 342.154 106.532 341.488 106.532Z" fill="#3F3D56"/>
<path d="M341.488 114.176H278.931C278.265 114.176 277.724 114.716 277.724 115.383C277.724 116.05 278.265 116.59 278.931 116.59H341.488C342.154 116.59 342.695 116.05 342.695 115.383C342.695 114.716 342.154 114.176 341.488 114.176Z" fill="#3F3D56"/>
<path d="M341.488 121.82H278.931C278.265 121.82 277.724 122.36 277.724 123.027C277.724 123.693 278.265 124.234 278.931 124.234H341.488C342.154 124.234 342.695 123.693 342.695 123.027C342.695 122.36 342.154 121.82 341.488 121.82Z" fill="#3F3D56"/>
<path d="M341.488 129.464H278.931C278.265 129.464 277.724 130.004 277.724 130.671C277.724 131.337 278.265 131.878 278.931 131.878H341.488C342.154 131.878 342.695 131.337 342.695 130.671C342.695 130.004 342.154 129.464 341.488 129.464Z" fill="#3F3D56"/>
<path d="M341.488 137.108H278.931C278.265 137.108 277.724 137.648 277.724 138.315C277.724 138.981 278.265 139.522 278.931 139.522H341.488C342.154 139.522 342.695 138.981 342.695 138.315C342.695 137.648 342.154 137.108 341.488 137.108Z" fill="#3F3D56"/>
<path d="M304.62 229.478C315.92 229.478 325.081 220.318 325.081 209.02C325.081 197.721 315.92 188.562 304.62 188.562C293.32 188.562 284.159 197.721 284.159 209.02C284.159 220.318 293.32 229.478 304.62 229.478Z" fill="#25929B"/>
<path d="M310.65 224.799C305.577 224.799 300.617 223.295 296.399 220.476C292.18 217.658 288.892 213.652 286.95 208.965C285.009 204.278 284.501 199.121 285.49 194.146C286.48 189.17 288.923 184.6 292.511 181.013C296.099 177.425 300.67 174.983 305.646 173.993C310.622 173.003 315.78 173.511 320.467 175.452C325.155 177.394 329.161 180.681 331.98 184.899C334.799 189.117 336.303 194.077 336.303 199.15C336.296 205.95 333.591 212.469 328.781 217.278C323.972 222.087 317.452 224.791 310.65 224.799ZM310.65 174.433C305.761 174.433 300.982 175.882 296.917 178.598C292.852 181.314 289.683 185.174 287.812 189.691C285.941 194.207 285.452 199.177 286.405 203.972C287.359 208.766 289.714 213.17 293.171 216.627C296.628 220.084 301.033 222.438 305.828 223.391C310.623 224.345 315.593 223.856 320.11 221.985C324.627 220.114 328.488 216.946 331.204 212.882C333.921 208.817 335.371 204.038 335.371 199.15C335.363 192.597 332.756 186.314 328.122 181.68C323.488 177.047 317.204 174.44 310.65 174.433Z" fill="#3F3D56"/>
<path d="M379.63 293.396H359.746V313.277H379.63V293.396Z" fill="#D0CDE1"/>
<path d="M391.702 301.916H367.558V277.775H391.702V301.916ZM368.607 300.867H390.652V278.825H368.607V300.867Z" fill="#3F3D56"/>
<path d="M824.877 293.396H804.993V313.277H824.877V293.396Z" fill="#D0CDE1"/>
<path d="M836.948 301.916H812.804V277.775H836.948V301.916ZM813.854 300.867H835.899V278.825H813.854V300.867Z" fill="#3F3D56"/>
</g>
<defs>
<clipPath id="clip0_40_2102">
<rect width="730" height="376" fill="white" transform="translate(255 27)"/>
</clipPath>
</defs>
</svg>
