<svg width="1239" height="430" viewBox="0 0 1239 430" fill="none" xmlns="http://www.w3.org/2000/svg">
<rect width="1239" height="430" fill="white"/>
<g clip-path="url(#clip0_40_2153)">
<path d="M871.437 273.107C871.437 311.046 863.001 347.017 847.889 379.237C847.114 380.902 846.309 382.56 845.496 384.21C842.253 390.741 838.731 397.114 834.953 403.306C834.404 404.211 833.854 405.107 833.29 405.996H409.893C409.757 405.778 409.622 405.567 409.487 405.348L409.306 405.054C408.945 404.474 408.584 403.894 408.23 403.306C404.573 397.317 401.156 391.155 398.003 384.842C397.168 383.178 396.355 381.497 395.557 379.802C380.702 348.313 372.213 313.223 371.769 276.196C371.754 275.172 371.747 274.14 371.747 273.107C371.747 259.706 372.8 246.552 374.832 233.731C393.691 114.304 496.992 23 621.592 23C747.673 23 851.945 116.489 868.991 238.002C870.601 249.475 871.437 261.189 871.437 273.107Z" fill="#E6E6E6"/>
<path d="M453.872 275.609C444.3 274.064 401.277 275.563 371.769 276.196C371.754 275.172 371.747 274.14 371.747 273.107C371.747 259.706 372.8 246.552 374.832 233.731C375.683 233.007 376.638 232.292 377.707 231.576C378.534 231.026 383.78 228.065 384.141 227.998C389.499 226.98 397.995 229.964 402.022 233.723C409.607 240.805 405.987 250.937 411.315 255.201C422.047 238.175 431.551 254.237 444.217 264.512C446.286 266.184 454.956 266.139 453.872 275.609Z" fill="white"/>
<path d="M481.339 295.67C473.535 303.723 467.493 313.471 463.752 324.048C463.534 324.643 463.331 325.246 463.136 325.848C455.03 350.678 459.636 378.416 452.434 403.307C452.171 404.211 451.892 405.107 451.599 405.996H415.507L409.487 405.348L409.238 405.318C409.26 405.227 409.283 405.144 409.306 405.055C409.457 404.474 409.615 403.894 409.757 403.307C411.88 394.982 413.603 386.221 412.986 377.844C412.835 375.757 412.542 373.701 412.06 371.674C411.571 369.542 410.886 367.455 409.968 365.421C406.77 358.309 401.11 352.659 396.566 346.324C389.89 337.028 385.571 326.044 384.119 314.684C383.373 308.906 383.606 302.382 387.633 298.171C390.507 295.157 394.91 293.929 399.056 294.246C403.203 294.563 407.139 296.273 410.713 298.412C419.578 303.723 426.712 311.89 430.776 321.404C434.84 330.919 435.826 341.721 433.53 351.816C436.292 338.753 440.115 325.592 447.874 314.737C455.64 303.874 467.997 295.587 481.339 295.67Z" fill="white"/>
<path d="M858.38 403.306H863.339C863.045 404.203 862.744 405.107 862.428 405.996H826.314L814.898 404.76L801.457 403.306L792.69 402.357C798.439 380.481 803.18 356.509 793.909 335.883C793.216 334.339 792.449 332.832 791.622 331.363L791.613 331.347C786.143 321.554 778.158 313.23 771.566 304.062C760.45 288.566 753.249 270.268 750.826 251.336C749.591 241.709 749.975 230.837 756.68 223.817C761.474 218.807 768.812 216.758 775.72 217.286C782.636 217.812 789.19 220.653 795.143 224.216C809.923 233.067 821.806 246.68 828.579 262.531C835.081 277.748 836.842 294.947 833.606 311.158C838.174 290.072 844.54 268.941 857.07 251.419C860.532 246.575 864.543 242.04 868.99 238.002C870.601 249.475 871.436 261.189 871.436 273.107C871.436 311.046 863 347.017 847.889 379.237L858.38 384.405L858.38 403.306Z" fill="white"/>
<path d="M858.38 384.405V403.374H852.66L852.653 403.307L850.516 386.552L845.497 384.21L819.376 372.006L807.605 366.506V362.212L814.763 362.928L822.656 366.815L847.889 379.237L858.38 384.405Z" fill="#090814"/>
<path d="M753.566 405.476L720.205 405.996H523.986L524.077 403.307L524.242 398.342L623.646 154.201L752.444 403.307L753.197 404.76L753.566 405.476Z" fill="#25929B"/>
<path opacity="0.15" d="M753.566 405.476L720.205 405.996H523.986L524.077 403.307L524.242 398.342L623.646 154.201L752.444 403.307L753.197 404.76L753.566 405.476Z" fill="black"/>
<path d="M487.995 145.132C493.35 144.112 501.844 147.098 505.873 150.859C513.455 157.937 509.837 168.066 515.17 172.336C525.896 155.307 535.401 171.367 548.066 181.642C550.134 183.32 558.81 183.27 557.72 192.738C543.255 190.404 452.409 195.027 447.232 193.096C442.242 191.235 447.481 180.429 461.535 185.222C474.586 169.65 466.429 158.783 481.558 148.711C482.385 148.161 487.633 145.201 487.995 145.132Z" fill="white"/>
<path d="M751.719 114.591C758.534 113.292 769.345 117.093 774.473 121.88C784.124 130.889 779.519 143.78 786.306 149.214C799.957 127.541 812.055 147.982 828.174 161.059C830.806 163.194 841.849 163.131 840.462 175.182C822.052 172.211 706.427 178.095 699.838 175.637C693.487 173.269 700.156 159.515 718.042 165.615C734.653 145.796 724.271 131.965 743.527 119.147C744.579 118.446 751.258 114.679 751.719 114.591Z" fill="white"/>
<path d="M623.646 154.201L566.189 403.307L565.572 405.996H434.787L434.584 403.307L431.988 368.962L424.838 365.384L463.752 324.048L623.646 154.201Z" fill="#25929B"/>
<path d="M816.734 404.76H699.81L623.647 154.199L823.886 365.386L819.5 370.511L816.734 404.76Z" fill="#25929B"/>
<path d="M598.26 107.666L591.126 111.466L623.647 154.199L658.09 110.01L653.325 107.666L626.15 142.029L598.26 107.666Z" fill="#090814"/>
<path d="M431.991 364.67L424.839 365.386L381.216 386.862V405.833H386.937L389.082 389.01L431.991 368.965V364.67Z" fill="#090814"/>
<path d="M645.101 222.566C645.101 222.566 681.305 340.829 728.772 376.84V404.402H696.591C696.591 404.402 632.113 268.829 645.101 222.566Z" fill="#25929B"/>
<path opacity="0.15" d="M645.101 222.566C645.101 222.566 681.305 340.829 728.772 376.84V404.402H696.591C696.591 404.402 632.113 268.829 645.101 222.566Z" fill="white"/>
<path d="M873.822 405.996H365.162C364.469 405.943 363.958 405.341 364.003 404.648C363.958 403.962 364.469 403.359 365.162 403.307H873.822C874.432 403.382 874.913 403.864 874.988 404.474C875.086 405.22 874.567 405.898 873.822 405.996Z" fill="#CCCCCC"/>
<path d="M483.284 174.942L456.259 177.573C451.466 178.039 447.401 181.494 446.422 186.214C445.839 189.029 446.477 191.604 450.459 192.049C450.459 192.049 439.141 195.532 443.643 203.258L438.795 230.988C436.96 241.486 444.474 251.354 455.079 252.279C455.224 252.292 455.369 252.304 455.514 252.314C462.473 252.813 474.601 247.07 475.98 240.224L477.454 204.208L483.284 174.942Z" fill="#090814"/>
<path d="M445.38 204.208C442.904 203.53 440.323 204.864 439.45 207.28C437.863 211.667 436.098 218.328 438.519 221.502C438.519 221.502 441.174 222.931 442.426 218.849C443.678 214.768 445.38 204.208 445.38 204.208Z" fill="#090814"/>
<path d="M469.134 206.721C461.613 202.268 443.846 203.587 443.67 203.6L443.616 202.915C444.355 202.856 461.779 201.568 469.485 206.129L469.134 206.721Z" fill="white"/>
<path d="M529.007 255.87L511.067 228.33L521.896 225.547L535.653 251.771C537.593 252.2 539.484 253.526 540.734 255.556C542.92 259.108 542.313 263.455 539.376 265.267C536.44 267.078 532.287 265.667 530.101 262.116C528.852 260.086 528.518 257.798 529.007 255.87Z" fill="#FFB6B6"/>
<path d="M458.246 251.044L456.664 218.204L467.414 221.279L466.05 250.867C467.508 252.219 468.471 254.32 468.525 256.704C468.619 260.875 465.9 264.319 462.452 264.397C459.004 264.475 456.132 261.158 456.038 256.987C455.984 254.603 456.851 252.46 458.246 251.044Z" fill="#FFB6B6"/>
<path d="M505.592 394.525H519.292V376.448H505.592V394.525Z" fill="#FFB8B8"/>
<path d="M502.818 405.228C501.646 404.279 501.013 403.218 500.938 402.076C500.851 400.77 501.504 399.369 502.878 397.911C502.911 397.492 503.337 392.295 504.287 391.365C504.208 391.087 503.724 389.242 504.517 388.045C504.891 387.481 505.493 387.152 506.307 387.068L506.343 387.064L506.36 387.095C506.383 387.136 508.695 391.156 512.173 391.509C514.167 391.711 516.163 390.684 518.106 388.456C518.176 388.291 518.725 385.577 519.079 383.78L519.093 383.708L538.042 393.679L549.118 396.747C550.51 397.132 551.482 398.412 551.482 399.858C551.482 401.09 550.765 402.232 549.655 402.766L544.286 405.35C542.043 406.429 539.541 407 537.052 407H507.93C506.043 407 504.228 406.371 502.818 405.228Z" fill="#090814"/>
<path d="M461.417 376.096L474.075 381.343L480.983 364.642L468.325 359.395L461.417 376.096Z" fill="#FFB8B8"/>
<path d="M454.763 384.923C454.043 383.597 453.864 382.375 454.231 381.291C454.65 380.051 455.789 379.006 457.615 378.186C457.806 377.811 460.186 373.173 461.419 372.677C461.452 372.389 461.71 370.5 462.9 369.698C463.461 369.32 464.143 369.247 464.928 369.481L464.962 369.491L464.967 369.526C464.972 369.573 465.572 374.172 468.65 375.83C470.415 376.781 472.651 376.596 475.298 375.282C475.426 375.157 476.971 372.859 477.985 371.335L478.025 371.274L491.721 387.743L500.782 394.82C501.921 395.709 502.33 397.263 501.778 398.599C501.306 399.739 500.207 400.519 498.978 400.587L493.03 400.918C490.545 401.056 488.015 400.625 485.716 399.672L458.809 388.518C457.066 387.795 455.629 386.519 454.763 384.923Z" fill="#090814"/>
<path d="M521.78 380.404L504.742 379.922L496.179 339.936L495.245 335.574C495.245 335.574 491.512 320.823 485.19 303.045C482.929 296.661 480.33 289.891 477.45 283.272C466.557 258.201 477.719 239.563 477.719 239.563L504.447 237.204L510.825 236.639L515.732 301.002L521.78 380.404Z" fill="#090814"/>
<path d="M515.732 301.002L496.179 339.936L480.53 371.089L466.187 361.869L480.908 318.972C480.908 318.972 482.819 312.649 485.19 303.045C487.719 292.842 490.77 278.937 492.613 264.978C494.303 252.188 499.471 243.169 504.447 237.204L510.826 236.639L515.732 301.002Z" fill="#090814"/>
<path d="M504.01 174.748L488.918 173.286L472.678 207.386L477.719 239.563L510.825 236.639C510.825 236.639 512.506 221.74 515.976 212.567C517.202 209.327 517.117 205.739 515.767 202.548L504.01 174.748Z" fill="#D6D6E3"/>
<path d="M491.353 176.941L488.919 173.286C488.919 173.286 482.021 172.171 477.454 181.602C472.887 191.032 452.269 217.864 452.269 217.864L471.513 232.312L491.353 176.941Z" fill="#D6D6E3"/>
<path d="M502.55 175.723L504.01 174.748C504.01 174.748 509.59 174.372 510.826 176.854C512.062 179.336 528.557 222.68 528.557 222.68L506.564 233.688L502.55 175.723Z" fill="#D6D6E3"/>
<path d="M486.154 153.589C486.154 145.938 492.349 139.736 499.992 139.736C507.635 139.736 513.831 145.938 513.831 153.589C513.831 159.794 509.755 165.045 504.138 166.809L501.463 184.507L487.825 173.131C487.825 173.131 490.771 169.374 492.351 165.138C488.617 162.657 486.154 158.412 486.154 153.589Z" fill="#FFB6B6"/>
<path d="M481.71 171.79C481.71 171.79 482.357 176.698 488.344 176.859C496.44 177.075 500.489 177.184 500.489 177.184C500.489 177.184 490.222 152.173 494.444 154.99C498.665 157.808 509.922 145.995 509.922 145.995L513.244 152.232C513.244 152.232 521.179 149.355 512.385 142.311C512.385 142.311 501.891 134.189 490.751 139.066C479.611 143.943 481.71 171.79 481.71 171.79Z" fill="#090814"/>
<path d="M478.042 176.928C478.042 176.928 498.726 191.003 473.918 225.776L475.892 241.577C475.892 241.577 506.1 195.302 485.602 172.799L478.042 176.928Z" fill="#090814"/>
</g>
<defs>
<clipPath id="clip0_40_2153">
<rect width="511" height="384" fill="white" transform="translate(364 23)"/>
</clipPath>
</defs>
</svg>
