<svg width="1239" height="430" viewBox="0 0 1239 430" fill="none" xmlns="http://www.w3.org/2000/svg">
<rect width="1239" height="430" fill="white"/>
<g clip-path="url(#clip0_40_2156)">
<path opacity="0.1" d="M511.425 31.4099C553.681 37.2077 587.99 77.5237 626.061 102.683C634.544 108.289 643.436 113.226 652.836 114.688C683.978 119.534 712.694 85.954 743.982 88.6958C769.34 90.9184 790.845 117.844 799.968 149.516C809.092 181.188 807.692 216.612 802.626 249.86C794.693 301.781 777.118 352.859 746.526 386.63C741.478 392.205 735.839 397.42 729.356 398.686C718.551 400.822 708.532 391.645 699.181 384.057C656.98 349.798 603.629 341.099 556.511 360.793C540.554 367.46 525.292 377.189 508.962 381.989C477.516 391.216 441.93 379.557 420.58 347.375C399.229 315.193 395.758 262.298 416.1 228.959C424.592 215.046 436.296 205.222 445.211 191.795C467.611 158.092 459.341 124.016 456.57 84.4921C453.839 45.5469 486.739 28.0259 511.425 31.4099Z" fill="#25929B"/>
<g opacity="0.2">
<path d="M703.502 279.218C703.502 279.218 716.002 291.747 708.955 310.338C701.908 328.93 721.05 359.845 721.05 359.845L720.464 359.75C694.792 355.195 682.038 325.778 696.314 303.917C701.612 295.805 705.97 286.268 703.502 279.218Z" fill="#25929B"/>
<path opacity="0.1" d="M703.502 279.446C703.502 279.446 716.002 291.975 708.955 310.566C701.908 329.157 721.05 360.073 721.05 360.073L720.464 359.977C694.792 355.423 682.038 326.006 696.314 304.144C701.612 296.01 705.97 286.478 703.502 279.446Z" fill="black"/>
<path d="M703.502 279.218C703.502 279.218 710.559 294.575 703.502 307.105C696.446 319.634 702.294 354.794 721.041 359.845" stroke="#535461" stroke-miterlimit="10"/>
<path d="M681.243 329.909C681.243 329.909 695.506 327.632 696.805 340.443C698.105 353.255 724.23 355.018 724.23 355.018L723.74 355.346C702.167 369.542 681.548 364.386 684.665 345.54C685.814 338.549 685.719 331.508 681.243 329.909Z" fill="#25929B"/>
<path d="M681.243 329.909C681.243 329.909 692.316 332.346 691.403 342.434C690.489 352.522 707.842 364.618 724.23 355.031" stroke="#535461" stroke-miterlimit="10"/>
</g>
<g opacity="0.2">
<path d="M555.253 259.488C555.253 259.488 565.64 269.899 559.797 285.344C553.953 300.788 569.847 326.479 569.847 326.479L569.361 326.397C548.033 322.622 537.433 298.16 549.292 280.006C553.681 273.251 557.302 265.331 555.253 259.488Z" fill="#25929B"/>
<path opacity="0.1" d="M555.253 259.661C555.253 259.661 565.64 270.072 559.797 285.517C553.954 300.961 569.847 326.652 569.847 326.652L569.338 326.584C548.011 322.809 537.41 298.347 549.269 280.192C553.681 273.425 557.302 265.504 555.253 259.661Z" fill="black"/>
<path d="M555.253 259.488C555.253 259.488 561.114 272.24 555.253 282.656C549.392 293.072 554.249 322.28 569.824 326.479" stroke="#535461" stroke-miterlimit="10"/>
<path d="M536.756 301.594C536.756 301.594 548.619 299.713 549.687 310.348C550.755 320.982 572.473 322.485 572.473 322.485L572.064 322.758C554.14 334.554 537.006 330.273 539.591 314.611C540.55 308.767 540.473 302.901 536.756 301.594Z" fill="#25929B"/>
<path d="M536.756 301.594C536.756 301.594 545.952 303.616 545.198 312.001C544.444 320.386 558.856 330.437 572.46 322.476" stroke="#535461" stroke-miterlimit="10"/>
</g>
<g opacity="0.2">
<path d="M511.634 193.904C511.634 193.904 522.021 204.315 516.178 219.759C510.335 235.204 526.228 260.895 526.228 260.895L525.742 260.813C504.414 257.038 493.814 232.576 505.673 214.422C510.062 207.667 513.683 199.747 511.634 193.904Z" fill="#25929B"/>
<path opacity="0.1" d="M511.635 194.077C511.635 194.077 522.021 204.488 516.178 219.932C510.335 235.377 526.229 261.068 526.229 261.068L525.72 261C504.392 257.224 493.792 232.762 505.651 214.608C510.062 207.84 513.684 199.92 511.635 194.077Z" fill="black"/>
<path d="M511.634 193.904C511.634 193.904 517.496 206.656 511.634 217.072C505.773 227.488 510.63 256.696 526.206 260.895" stroke="#535461" stroke-miterlimit="10"/>
<path d="M493.137 236.01C493.137 236.01 505.001 234.129 506.068 244.763C507.136 255.398 528.855 256.901 528.855 256.901L528.446 257.174C510.521 268.97 493.387 264.689 495.972 249.026C496.931 243.183 496.854 237.317 493.137 236.01Z" fill="#25929B"/>
<path d="M493.137 236.01C493.137 236.01 502.334 238.032 501.579 246.417C500.825 254.801 515.237 264.853 528.841 256.892" stroke="#535461" stroke-miterlimit="10"/>
</g>
<path d="M399.707 300.797V294.589L526.606 258.914L549.301 256.327V262.016L422.92 307.515L399.707 300.797Z" fill="#DFE5EE"/>
<path opacity="0.05" d="M399.707 300.797V294.589L526.606 258.914L549.301 256.327V262.016L422.92 307.515L399.707 300.797Z" fill="black"/>
<path d="M399.707 294.589L526.606 252.706L548.788 256.327L422.92 301.312L399.707 294.589Z" fill="#DFE5EE"/>
<path d="M427.563 199.966H419.308V296.142H427.563V199.966Z" fill="#DFE5EE"/>
<path d="M526.605 177.731H518.35V262.016H526.605V177.731Z" fill="#DFE5EE"/>
<path d="M547.238 151.361V177.216L444.193 200.289L432.003 203.022L401.769 209.79L393 207.203V177.216L439.759 168.28L451.395 166.058L536.406 149.812L547.238 151.361Z" fill="#DFE5EE"/>
<path opacity="0.05" d="M547.238 151.361V177.216L444.193 200.289L432.003 203.022L401.769 209.79L393 207.203V177.216L439.759 168.28L451.395 166.058L536.406 149.812L547.238 151.361Z" fill="black"/>
<path opacity="0.05" d="M427.563 199.966V205.049L419.308 206.898V199.966H427.563Z" fill="black"/>
<path opacity="0.05" d="M526.605 177.731V182.873L518.35 184.717V177.731H526.605Z" fill="black"/>
<path d="M547.238 151.361V177.216L505.4 186.585L493.232 189.308L444.193 200.289L432.002 203.022L401.769 209.79L402.287 180.318L444.302 171.924L456.056 169.578H456.061L504.092 159.982L515.823 157.637L547.238 151.361Z" fill="#DFE5EE"/>
<path d="M456.061 169.578L444.193 200.289L432.002 203.022L444.302 171.924L439.758 168.28L451.395 166.058L456.056 169.578H456.061Z" fill="#25929B"/>
<path d="M516.414 158.083L505.4 186.585L493.232 189.308L504.655 160.429L504.092 159.982L500.111 156.785L511.748 154.562L515.823 157.637L516.409 158.083H516.414Z" fill="#25929B"/>
<path opacity="0.05" d="M421.116 294.462L429.367 292.521V294.462L421.116 296.402V294.462Z" fill="black"/>
<path opacity="0.05" d="M519.64 260.335L527.891 258.395V260.335L519.64 262.275V260.335Z" fill="black"/>
<path d="M692.757 189.727C679.603 196.673 665.986 188.816 665.986 188.816C665.772 189.218 665.528 189.601 665.254 189.964C665.086 189.837 664.914 189.705 664.741 189.563C659.089 184.932 652.832 173.996 652.832 173.996L640.641 151.083C639.148 148.329 638.022 145.391 637.293 142.343C635.284 133.607 628.873 133.234 628.873 133.234H621.363C617.728 133.234 612.475 133.999 607.278 135.056C607.415 134.914 607.506 134.732 607.537 134.536L607.287 134.587L610.076 131.854C610.076 131.854 618.06 128.611 619 121.666L623.226 117.498C623.226 117.498 623.362 117.134 623.553 116.492L624.957 114.72C631.073 107.046 631.513 106.918 631.513 106.918L650.056 95.9192C650.056 95.9192 656.712 94.9719 653.936 76.3123C651.16 57.6527 653.027 55.3618 653.027 55.3618C653.027 55.3618 658.071 36.6658 648.402 38.9931C638.733 41.3204 643.104 57.302 643.104 57.302L643.777 60.8317C644.62 65.2521 644.573 69.7968 643.64 74.199C642.636 78.9584 641.514 84.8382 641.796 86.241C642.291 88.6868 636.707 91.7838 636.707 91.7838L633.549 93.6329C630.206 95.5891 626.268 96.2623 622.467 95.5276L622.299 95.2725L620.409 93.8515C620.352 94.0462 620.307 94.2439 620.272 94.4436L619.5 93.8515V93.8971C619.5 93.7331 619.5 93.5782 619.536 93.4052C619.758 91.6536 620.168 89.9312 620.759 88.2678C620.808 88.1129 620.872 87.9489 620.927 87.8123C624.459 87.5976 627.778 86.046 630.213 83.4713C632.647 80.8967 634.015 77.4912 634.04 73.944C634.04 72.4831 633.807 71.0315 633.349 69.6446C633.706 69.7112 634.073 69.7112 634.43 69.6446C636.13 69.3713 637.933 68.4969 638.815 66.9893C639.281 66.1615 639.495 65.2151 639.431 64.2666C639.368 63.3182 639.029 62.4092 638.456 61.6515C638.239 61.3746 637.996 61.1198 637.729 60.8909C636.116 59.0691 633.417 58.6137 631.272 57.3885C629.232 56.2363 627.683 54.3963 625.784 53.0254C622.194 50.4248 617.605 49.6414 613.225 48.9264C611.344 48.6212 609.431 48.3161 607.541 48.5666C605.151 48.8854 602.952 50.0832 601.08 51.5816C600.416 52.0597 599.86 52.6727 599.449 53.3806C598.754 54.747 599.058 56.3501 598.935 57.8622C598.636 61.5422 595.755 64.539 592.574 66.4929C590.621 67.6907 588.485 68.6472 586.845 70.2549C585.205 71.8626 584.237 74.3994 585.259 76.4307C585.8 77.5056 586.868 78.4028 586.877 79.6188C586.841 80.1537 586.686 80.6736 586.422 81.14C585.331 83.424 583.857 85.5036 582.065 87.2885C575.431 85.6854 568.27 89.2105 568.27 89.2105L546.666 90.1214C546.666 90.1214 540.559 87.3432 532.58 104.477C524.602 121.611 521.775 122.54 521.775 122.54C521.775 122.54 507.236 135.507 516.609 138.749C525.983 141.992 531.149 126.243 531.149 126.243L536.351 116.551C536.351 116.551 548.092 105.433 549.033 103.12C549.973 100.806 555.607 100.806 555.607 100.806L578.512 101.717C578.542 101.902 578.56 102.09 578.566 102.277C578.621 104.846 576.217 106.832 573.8 107.784C572.273 108.394 570.529 108.854 569.597 110.193C568.666 111.532 568.888 113.477 569.824 114.843C570.11 115.251 570.444 115.623 570.819 115.95C571.802 116.965 573.001 117.744 574.327 118.227C575.427 118.666 576.571 118.984 577.739 119.174C577.264 121.14 576.618 123.06 575.808 124.913L576.717 125.305L576.417 126.106C575.136 129.517 572.496 136.249 570.161 140.321C570.138 140.321 565.917 143.91 562.641 147.152C560.137 149.621 554.103 173.386 571.76 173.814L575.79 176.793H575.872C579.457 181.866 591.293 190.201 591.293 190.201L570.361 191.44C569.316 191.503 568.277 191.63 567.248 191.818C566.906 191.879 566.564 191.947 566.221 192.023C562.532 192.833 558.447 192.547 556.257 192.287C554.808 189.554 548.079 190.666 548.079 190.666C548.079 190.666 547.138 204.561 548.533 212.431C549.928 220.301 555.108 215.21 555.108 215.21C554.167 208.264 561.923 203.154 561.923 203.154C562.909 202.657 564.077 202.056 565.449 201.332C569.802 198.991 590.507 202.571 596.909 203.755C598.319 204.018 599.751 204.14 601.185 204.119C619.536 203.819 614.77 194.847 614.77 194.847L611.076 187.559C610.47 186.348 609.93 185.104 609.458 183.834C606.196 175.18 601.125 170.416 597.241 167.866C597.45 167.602 597.659 167.338 597.863 167.06C597.863 167.06 597.554 166.987 597.086 166.846C600.367 165.165 602.539 163.822 602.539 163.822C602.539 163.822 624.143 150.855 623.207 154.098C622.272 157.341 627.906 169.843 638.238 178.642C638.538 178.897 638.829 179.156 639.119 179.421L639.401 179.68L639.978 180.227L640.292 180.532L640.828 181.069L641.128 181.379L641.696 181.989L641.923 182.235C642.18 182.521 642.435 182.809 642.686 183.101L642.85 183.296C643.043 183.527 643.236 183.758 643.427 183.989L643.686 184.312L644.14 184.895L644.404 185.237L644.858 185.833L645.094 186.148L645.621 186.881L645.748 187.054C645.964 187.358 646.174 187.661 646.38 187.965L646.535 188.197L646.989 188.885L647.18 189.181L647.584 189.818L647.761 190.101L648.184 190.798L648.307 190.998C648.673 191.605 649.021 192.213 649.352 192.82L649.406 192.92L649.838 193.703L649.906 193.831L650.319 194.614L650.347 194.669C651.511 196.898 652.553 199.189 653.468 201.533C652.94 201.66 652.404 201.751 651.864 201.806C649.047 214.312 656.562 214.312 656.562 214.312C656.562 214.312 684.278 210.145 694.611 199.492C704.943 188.839 692.757 189.727 692.757 189.727Z" fill="url(#paint0_linear_40_2156)"/>
<path d="M592.238 166.04C592.238 166.04 603.661 169.009 609.359 184.358C609.816 185.599 610.339 186.816 610.926 188.001L614.502 195.188C614.502 195.188 619.114 204.01 601.362 204.297C599.975 204.317 598.59 204.196 597.227 203.937C591.034 202.776 571.006 199.255 566.785 201.555C564.426 202.895 561.999 204.111 559.515 205.199L554.517 199.733L556.335 192.446C556.335 192.446 562.337 193.576 567.521 192.414C568.838 192.117 570.176 191.925 571.524 191.841L591.784 190.634C591.784 190.634 575.881 179.248 575.881 175.149C575.881 171.05 592.238 166.04 592.238 166.04Z" fill="#F8BDC5"/>
<path opacity="0.05" d="M558.161 193.822C558.161 193.822 553.163 201.992 563.381 203.386C563.381 203.386 555.889 208.396 556.798 215.228C556.798 215.228 551.8 220.238 550.437 212.495C549.074 204.752 549.982 191.089 549.982 191.089C549.982 191.089 558.161 189.723 558.161 193.822Z" fill="black"/>
<path opacity="0.05" d="M592.238 166.04C592.238 166.04 603.661 169.009 609.359 184.358C609.816 185.599 610.339 186.816 610.926 188.001L614.502 195.188C614.502 195.188 619.114 204.01 601.362 204.297C599.975 204.317 598.59 204.196 597.227 203.937C591.034 202.776 571.006 199.255 566.785 201.555C564.426 202.895 561.999 204.111 559.515 205.199L554.517 199.733L556.335 192.446C556.335 192.446 562.337 193.576 567.521 192.414C568.838 192.117 570.176 191.925 571.524 191.841L591.784 190.634C591.784 190.634 575.881 179.248 575.881 175.149C575.881 171.05 592.238 166.04 592.238 166.04Z" fill="black"/>
<path opacity="0.05" d="M556.798 200.653L558.615 193.366C558.615 193.366 564.618 194.496 569.802 193.334C571.119 193.037 572.457 192.845 573.805 192.761L594.056 191.545C594.056 191.545 578.153 180.158 578.153 176.059C578.153 171.96 594.51 166.951 594.51 166.951L594.633 166.987C593.863 166.602 593.062 166.285 592.238 166.04C592.238 166.04 575.881 171.05 575.881 175.149C575.881 179.248 591.784 190.634 591.784 190.634L571.538 191.85C570.19 191.934 568.852 192.126 567.535 192.424C562.35 193.585 556.348 192.455 556.348 192.455L554.531 199.743L559.529 205.208C559.529 205.208 559.865 205.071 560.556 204.752L556.798 200.653Z" fill="black"/>
<path d="M558.161 193.822C558.161 193.822 553.163 201.992 563.381 203.386C563.381 203.386 555.889 208.396 556.798 215.228C556.798 215.228 551.8 220.238 550.437 212.495C549.074 204.752 549.982 191.089 549.982 191.089C549.982 191.089 558.161 189.723 558.161 193.822Z" fill="#FFD97B"/>
<path d="M544.648 325.846V319.639L671.547 283.964L694.243 281.377V287.065L567.862 332.564L544.648 325.846Z" fill="#DFE5EE"/>
<path opacity="0.05" d="M544.648 325.846V319.639L671.547 283.964L694.243 281.377V287.065L567.862 332.564L544.648 325.846Z" fill="black"/>
<path d="M544.648 319.639L671.547 277.756L693.73 281.377L567.862 326.361L544.648 319.639Z" fill="#DFE5EE"/>
<path d="M572.505 225.015H564.25V321.192H572.505V225.015Z" fill="#DFE5EE"/>
<path d="M671.547 202.78H663.292V287.065H671.547V202.78Z" fill="#DFE5EE"/>
<path d="M692.18 176.41V202.266L589.135 225.339L576.944 228.071L546.711 234.839L537.942 232.252V202.266L584.696 193.33L596.337 191.107L681.348 174.862L692.18 176.41Z" fill="#DFE5EE"/>
<path opacity="0.05" d="M692.18 176.41V202.266L589.135 225.339L576.944 228.071L546.711 234.839L537.942 232.252V202.266L584.696 193.33L596.337 191.107L681.348 174.862L692.18 176.41Z" fill="black"/>
<path opacity="0.05" d="M572.505 225.015V230.098L564.25 231.947V225.015H572.505Z" fill="black"/>
<path opacity="0.05" d="M671.547 202.78V207.922L663.292 209.767V202.78H671.547Z" fill="black"/>
<path d="M692.18 176.41V202.266L650.342 211.634L638.174 214.358L589.135 225.339L576.944 228.071L546.711 234.839L547.229 205.367L589.244 196.973L600.998 194.628H601.003L649.034 185.032L660.765 182.686L692.18 176.41Z" fill="#DFE5EE"/>
<path d="M601.003 194.628L589.135 225.339L576.944 228.071L589.244 196.973L584.696 193.33L596.337 191.107L600.998 194.628H601.003Z" fill="#25929B"/>
<path d="M661.356 183.132L650.342 211.634L638.174 214.358L649.597 185.478L649.034 185.032L645.053 181.834L656.69 179.612L660.765 182.686L661.351 183.132H661.356Z" fill="#25929B"/>
<path opacity="0.05" d="M566.058 319.511L574.309 317.571V319.511L566.058 321.451V319.511Z" fill="black"/>
<path opacity="0.05" d="M664.582 285.385L672.833 283.444V285.385L664.582 287.32V285.385Z" fill="black"/>
<path d="M648.638 97.9049L630.7 108.722C630.7 108.722 630.273 108.849 624.339 116.396L622.208 119.129C617.701 124.936 608.332 126.871 608.332 126.871L602.389 117.708L601.135 106.577L602.452 102.081L603.497 98.5198L612.639 99.8315L616.32 101.822L620.863 97.2673C621.218 97.363 621.577 97.4495 621.935 97.5178C625.613 98.2448 629.429 97.5881 632.654 95.6733L635.707 93.8515C635.707 93.8515 641.105 90.8045 640.628 88.3861C640.355 87.0198 641.441 81.2265 642.414 76.5445C643.316 72.2141 643.361 67.7481 642.545 63.4004L641.896 59.9299C641.896 59.9299 637.675 44.2079 647.021 41.9307C656.367 39.6535 651.496 58.0261 651.496 58.0261C651.496 58.0261 649.706 60.276 652.405 78.6259C655.104 96.9758 648.638 97.9049 648.638 97.9049Z" fill="#F8BDC5"/>
<path d="M619.068 95.4638C618.56 100.282 620.863 100.929 620.863 100.929L622.226 106.394V112.315L618.137 119.147H608.141L599.508 115.048V95.9192L598.145 91.3648C598.908 91.3157 599.667 91.2168 600.417 91.0687C604.801 90.1897 607.287 87.7485 608.686 85.0978C610.867 80.9487 610.413 76.3168 610.413 76.3168C610.413 76.3168 628.587 71.3069 622.226 85.4257C621.381 87.3067 620.736 88.96 620.25 90.4356C619.68 92.0652 619.284 93.7506 619.068 95.4638Z" fill="#F8BDC5"/>
<path d="M607.501 135.447C607.471 135.649 607.377 135.836 607.232 135.98C606.996 136.255 606.799 136.562 606.646 136.891C604.52 140.913 600.417 155.109 600.417 155.109L578.153 146.911L577.831 146.829L569.066 144.634C571.551 142.853 575.704 132.173 577.394 127.591C577.849 126.311 578.153 125.505 578.153 125.505L601.78 127.782C601.78 127.782 607.905 133.156 607.501 135.447Z" fill="#F8BDC5"/>
<path d="M598.145 89.9802C598.145 89.9802 591.33 92.7129 584.514 89.9802C577.699 87.2475 569.52 91.3465 569.52 91.3465L548.619 92.2574C548.619 92.2574 542.713 89.5247 534.988 106.376C527.264 123.228 524.538 124.139 524.538 124.139C524.538 124.139 510.453 136.891 519.54 140.079C528.627 143.267 533.625 127.782 533.625 127.782L538.623 118.218C538.623 118.218 549.982 107.287 550.891 105.01C551.8 102.733 557.252 102.733 557.252 102.733L579.97 103.644L579.83 110.302L586.786 116.396L593.147 110.931L598.145 100.911V89.9802Z" fill="#F8BDC5"/>
<path opacity="0.1" d="M622.226 85.4257C621.381 87.3067 620.736 88.96 620.25 90.4356C620.004 90.4356 619.75 90.4356 619.5 90.4356C617.407 90.4379 615.342 89.9557 613.466 89.0266C611.589 88.0976 609.952 86.7469 608.682 85.0796C610.867 80.9487 610.413 76.3168 610.413 76.3168C610.413 76.3168 628.587 71.3069 622.226 85.4257Z" fill="black"/>
<path d="M619.5 89.9802C627.028 89.9802 633.131 83.8629 633.131 76.3168C633.131 68.7707 627.028 62.6534 619.5 62.6534C611.972 62.6534 605.869 68.7707 605.869 76.3168C605.869 83.8629 611.972 89.9802 619.5 89.9802Z" fill="#F8BDC5"/>
<path opacity="0.1" d="M607.5 135.447C607.47 135.649 607.376 135.836 607.232 135.98C606.996 136.255 606.799 136.562 606.646 136.891C598.563 136.536 580.874 129.098 577.394 127.609C577.848 126.329 578.153 125.523 578.153 125.523L601.78 127.8C601.78 127.8 607.905 133.156 607.5 135.447Z" fill="black"/>
<path opacity="0.1" d="M624.357 116.396L622.226 119.129C617.719 124.936 608.35 126.871 608.35 126.871L602.407 117.708L601.153 106.577L601.553 95.6733C602.82 101.594 606.364 113.946 611.776 115.03C620.822 116.851 620.172 103.858 619.727 98.406C619.659 97.5641 619.736 96.7168 619.954 95.901L621.772 97.2673L621.935 97.5178C626.265 104.258 625.293 112.283 624.357 116.396Z" fill="black"/>
<path d="M600.417 89.0693H595.873C595.873 89.0693 600.417 118.218 579.062 110.02C579.062 110.02 580.879 116.851 576.79 126.416C576.79 126.416 598.599 135.98 607.232 135.98L609.959 133.248C609.959 133.248 617.683 130.059 618.591 123.228L622.681 119.129C622.681 119.129 627.224 106.832 620.863 97.2673L619.046 95.901C618.827 96.7167 618.75 97.5641 618.819 98.4059C619.273 103.871 619.914 116.842 610.867 115.03C599.508 112.752 600.417 89.0693 600.417 89.0693Z" fill="#EB6576"/>
<path d="M569.52 171.96L576.79 177.426C576.79 177.426 588.603 181.069 598.145 167.861C598.145 167.861 592.238 166.495 593.147 163.307C594.056 160.119 569.52 171.96 569.52 171.96Z" fill="#5E52AD"/>
<path opacity="0.05" d="M569.52 171.96L576.79 177.426C576.79 177.426 588.603 181.069 598.145 167.861C598.145 167.861 592.238 166.495 593.147 163.307C594.056 160.119 569.52 171.96 569.52 171.96Z" fill="black"/>
<path opacity="0.1" d="M607.5 135.903C607.471 136.105 607.377 136.292 607.232 136.436C605.415 138.257 600.417 155.564 600.417 155.564L578.153 147.366L577.831 147.284C579.556 146.192 581.382 145.267 583.283 144.524C584.832 143.923 586.391 143.286 587.74 142.675C588.834 142.206 589.884 141.642 590.88 140.99C592.784 139.624 600.094 137.438 607.5 135.903Z" fill="black"/>
<path d="M659.03 200.653L652.214 202.475C652.214 202.475 652.06 202.02 651.76 201.227C650.306 197.52 645.462 186.375 637.22 179.248C627.224 170.594 621.772 158.297 622.68 155.109C623.589 151.921 602.689 164.673 602.689 164.673C602.689 164.673 587.535 174.124 577.521 174.137C576.025 174.18 574.537 173.904 573.155 173.327C569.293 171.582 567.73 168.526 567.207 165.584C566.898 163.722 566.981 161.815 567.45 159.987C567.92 158.159 568.766 156.449 569.933 154.968C573.396 150.481 578.015 147.028 583.292 144.98C584.841 144.379 586.4 143.741 587.749 143.131C588.843 142.662 589.893 142.098 590.889 141.446C594.069 139.168 612.244 134.614 620.877 134.614H628.146C628.146 134.614 634.344 134.978 636.289 143.568C636.99 146.556 638.074 149.44 639.515 152.149L651.305 174.693C651.305 174.693 657.357 185.446 662.823 190.001C664.382 191.303 665.895 192.1 667.208 192C673.115 191.545 659.03 200.653 659.03 200.653Z" fill="#F8BDC5"/>
<path opacity="0.1" d="M637.747 69.4942C638.198 68.6786 638.405 67.7503 638.344 66.82C638.283 65.8897 637.956 64.9967 637.402 64.2475C635.875 62.2572 633.117 61.8018 630.941 60.5538C628.964 59.4198 627.47 57.6117 625.634 56.2635C622.163 53.7085 617.737 52.9342 613.489 52.2374C611.671 51.9368 609.818 51.6362 607.991 51.8867C605.678 52.201 603.552 53.3806 601.739 54.8517C601.096 55.3235 600.559 55.9255 600.162 56.6188C599.49 57.9487 599.785 59.5427 599.667 61.0275C599.376 64.6483 596.587 67.595 593.511 69.5124C591.62 70.6921 589.539 71.6303 587.967 73.2107C586.395 74.7911 585.446 77.2869 586.436 79.2818C586.963 80.3384 587.995 81.222 587.999 82.4061C587.969 82.9311 587.823 83.4429 587.572 83.9045C586.496 86.1986 585.029 88.287 583.237 90.0758C581.629 91.679 579.707 93.1182 578.871 95.236C578.067 97.2719 578.417 99.5946 579.157 101.658C579.503 102.642 579.934 103.625 579.952 104.664C580.002 107.191 577.681 109.132 575.341 110.079C573.864 110.676 572.16 111.131 571.274 112.447C570.388 113.764 570.588 115.676 571.492 117.002C572.396 118.327 573.855 119.215 575.354 119.821C578.138 120.996 581.223 121.248 584.16 120.541C585.616 120.176 586.981 119.51 588.166 118.586C589.352 117.662 590.332 116.501 591.043 115.175C592.406 112.516 592.497 109.255 594.387 106.932C597.718 102.874 604.742 103.899 608.218 99.959C611.008 96.7936 610.249 91.9978 610.036 87.7804C609.912 85.4309 610.01 83.075 610.326 80.7437C610.554 79.0859 610.972 77.3051 612.271 76.2576C613.321 75.4105 614.738 75.2192 616.074 75.0552C618.864 74.7045 622.076 74.0259 623.344 71.5073C623.871 70.4598 624.03 69.139 624.98 68.4558C626.293 67.5085 628.133 68.4558 629.278 69.5944C630.541 70.856 631.6 72.4091 633.522 72.0948C635.153 71.8398 636.898 70.979 637.747 69.4942Z" fill="black"/>
<path d="M637.257 69.0024C637.707 68.1863 637.913 67.2578 637.851 66.3275C637.789 65.3971 637.461 64.5044 636.907 63.7556C635.38 61.7653 632.622 61.3099 630.446 60.062C628.469 58.9279 626.974 57.1198 625.139 55.7717C621.668 53.2166 617.242 52.4424 612.994 51.7455C611.176 51.4449 609.323 51.1443 607.496 51.3948C605.183 51.7091 603.057 52.8887 601.244 54.3598C600.601 54.8316 600.064 55.4336 599.667 56.1269C598.995 57.4568 599.29 59.0509 599.172 60.5356C598.881 64.1564 596.091 67.1031 593.015 69.0206C591.125 70.2002 589.044 71.1384 587.472 72.7188C585.9 74.2992 584.95 76.795 585.941 78.7899C586.468 79.8465 587.499 80.7301 587.504 81.9142C587.474 82.4392 587.328 82.951 587.077 83.4127C586.001 85.7067 584.534 87.7951 582.742 89.5839C581.134 91.1871 579.212 92.6263 578.376 94.7441C577.572 96.78 577.921 99.1027 578.662 101.166C579.007 102.15 579.439 103.133 579.457 104.172C579.507 106.7 577.185 108.64 574.845 109.587C573.369 110.184 571.665 110.639 570.779 111.955C569.893 113.272 570.093 115.185 570.997 116.51C571.901 117.835 573.36 118.723 574.859 119.329C577.643 120.504 580.728 120.756 583.665 120.049C585.121 119.684 586.486 119.018 587.671 118.094C588.857 117.171 589.837 116.009 590.548 114.684C591.911 112.024 592.002 108.763 593.892 106.44C597.223 102.382 604.247 103.407 607.723 99.4671C610.513 96.3018 609.754 91.5059 609.541 87.2885C609.417 84.939 609.515 82.5831 609.831 80.2519C610.059 78.594 610.477 76.8132 611.776 75.7657C612.826 74.9186 614.243 74.7273 615.579 74.5633C618.369 74.2126 621.581 73.534 622.849 71.0154C623.376 69.9679 623.535 68.6471 624.485 67.9639C625.798 67.0166 627.638 67.9639 628.783 69.1026C630.046 70.3641 631.105 71.9172 633.027 71.6029C634.658 71.3433 636.407 70.4826 637.257 69.0024Z" fill="#6E464E"/>
<path opacity="0.1" d="M590.193 123C590.193 123 595.191 127.099 601.552 126.644Z" fill="black"/>
<path opacity="0.05" d="M668.308 192.082C665.7 194.651 659.939 198.376 659.939 198.376L653.123 200.198C653.123 200.198 648.125 185.624 638.129 176.97C628.133 168.317 622.681 156.02 623.589 152.832C624.498 149.644 603.597 162.396 603.597 162.396C603.597 162.396 588.444 171.847 578.43 171.86C576.934 171.903 575.446 171.626 574.064 171.05C570.202 169.305 568.639 166.249 568.116 163.307C567.764 161.285 567.891 159.208 568.489 157.245C567.17 159.811 566.72 162.739 567.208 165.584C567.73 168.526 569.293 171.582 573.155 173.327C574.537 173.904 576.025 174.18 577.522 174.137C587.518 174.137 602.689 164.673 602.689 164.673C602.689 164.673 623.589 151.921 622.681 155.109C621.772 158.297 627.224 170.594 637.22 179.248C647.216 187.901 652.214 202.475 652.214 202.475L659.03 200.653C659.03 200.653 670.793 193.043 668.308 192.082Z" fill="black"/>
<path opacity="0.1" d="M588.149 143.267L587.376 143.627C581.738 146.223 577.119 150.622 574.245 156.134C568.157 168.012 576.204 173.363 577.521 174.137C576.025 174.18 574.537 173.904 573.155 173.327C569.293 171.582 567.73 168.526 567.207 165.584C566.898 163.722 566.981 161.815 567.45 159.987C567.92 158.159 568.766 156.449 569.933 154.968C573.396 150.481 578.015 147.028 583.292 144.98C584.841 144.379 586.4 143.741 587.749 143.131L588.149 143.267Z" fill="black"/>
<path d="M587.24 143.267C587.24 143.267 577.699 139.87 571.338 141.569C571.338 141.569 567.248 145.089 564.068 148.277C561.478 150.873 554.981 177.426 576.79 174.238C576.79 174.238 566.721 169.036 573.337 156.134C576.21 150.622 580.829 146.222 586.468 143.627L587.24 143.267Z" fill="#5E52AD"/>
<path opacity="0.1" d="M659.03 200.653L652.214 202.475C652.214 202.475 652.06 202.02 651.76 201.227C653.345 200.808 655.395 199.861 655.395 197.921C655.395 197.921 660.597 193.052 662.823 190.001C664.382 191.303 665.895 192.1 667.208 192C673.115 191.545 659.03 200.653 659.03 200.653Z" fill="black"/>
<path d="M655.849 198.376C655.849 198.376 662.665 192 664.028 189.267C664.028 189.267 677.204 197.01 689.926 190.178C689.926 190.178 701.74 189.267 691.744 199.743C681.748 210.218 654.94 214.317 654.94 214.317C654.94 214.317 647.671 214.317 650.397 202.02C650.397 202.02 655.849 201.564 655.849 198.376Z" fill="#FFD97B"/>
<path d="M696.405 357.728V351.52L823.304 315.845L846 313.258V318.946L719.619 364.445L696.405 357.728Z" fill="#DFE5EE"/>
<path opacity="0.05" d="M696.405 357.728V351.52L823.304 315.845L846 313.258V318.946L719.619 364.445L696.405 357.728Z" fill="black"/>
<path d="M696.405 351.52L823.304 309.637L845.486 313.258L719.619 358.242L696.405 351.52Z" fill="#DFE5EE"/>
<path d="M724.263 256.896H716.007V353.073H724.263V256.896Z" fill="#DFE5EE"/>
<path d="M823.305 234.662H815.049V318.946H823.305V234.662Z" fill="#DFE5EE"/>
<path d="M843.937 208.291V234.147L740.892 257.22L728.702 259.952L698.468 266.72L689.699 264.133V234.147L736.453 225.211L748.094 222.989L833.105 206.743L843.937 208.291Z" fill="#DFE5EE"/>
<path opacity="0.05" d="M843.937 208.291V234.147L740.892 257.22L728.702 259.952L698.468 266.72L689.699 264.133V234.147L736.453 225.211L748.094 222.989L833.105 206.743L843.937 208.291Z" fill="black"/>
<path opacity="0.05" d="M724.263 256.896V261.979L716.007 263.828V256.896H724.263Z" fill="black"/>
<path opacity="0.05" d="M823.305 234.662V239.804L815.049 241.648V234.662H823.305Z" fill="black"/>
<path d="M843.937 208.291V234.147L802.099 243.515L789.932 246.239L740.892 257.22L728.702 259.952L698.468 266.72L698.986 237.248L741.001 228.855L752.756 226.509H752.76L800.791 216.913L812.522 214.567L843.937 208.291Z" fill="#DFE5EE"/>
<path d="M752.76 226.509L740.892 257.22L728.702 259.952L741.001 228.855L736.453 225.211L748.094 222.989L752.756 226.509H752.76Z" fill="#25929B"/>
<path d="M813.113 215.014L802.099 243.515L789.932 246.239L801.354 217.359L800.791 216.913L796.811 213.716L808.447 211.493L812.523 214.567L813.109 215.014H813.113Z" fill="#25929B"/>
<path opacity="0.05" d="M717.815 351.392L726.066 349.452V351.392L717.815 353.332V351.392Z" fill="black"/>
<path opacity="0.05" d="M816.339 317.266L824.591 315.326V317.266L816.339 319.201V317.266Z" fill="black"/>
</g>
<defs>
<linearGradient id="paint0_linear_40_2156" x1="606.123" y1="216.822" x2="606.123" y2="38.7745" gradientUnits="userSpaceOnUse">
<stop stop-color="#808080" stop-opacity="0.25"/>
<stop offset="0.54" stop-color="#808080" stop-opacity="0.12"/>
<stop offset="1" stop-color="#808080" stop-opacity="0.1"/>
</linearGradient>
<clipPath id="clip0_40_2156">
<rect width="453" height="368" fill="white" transform="translate(393 31)"/>
</clipPath>
</defs>
</svg>
