<svg width="1239" height="430" viewBox="0 0 1239 430" fill="none" xmlns="http://www.w3.org/2000/svg">
<rect width="1239" height="430" fill="white"/>
<g clip-path="url(#clip0_2_170)">
<path d="M388.369 291.14C386.088 291.143 383.902 292.05 382.289 293.663C380.676 295.275 379.769 297.462 379.766 299.742V319.866C379.769 322.146 380.676 324.332 382.289 325.945C383.902 327.558 386.088 328.465 388.369 328.467H399.28C401.561 328.465 403.748 327.558 405.361 325.945C406.973 324.332 407.88 322.146 407.883 319.866V299.742C407.88 297.462 406.973 295.275 405.361 293.663C403.748 292.05 401.561 291.143 399.28 291.14H388.369Z" fill="#3F3D56"/>
<path d="M590.072 329.137H579.161C576.702 329.134 574.346 328.156 572.607 326.418C570.869 324.68 569.891 322.324 569.889 319.866V299.742C569.891 297.284 570.869 294.928 572.607 293.19C574.346 291.452 576.702 290.474 579.161 290.471H590.072C592.53 290.474 594.887 291.452 596.625 293.19C598.364 294.928 599.341 297.284 599.344 299.742V319.866C599.341 322.324 598.364 324.68 596.625 326.418C594.887 328.156 592.53 329.134 590.072 329.137Z" fill="#3F3D56"/>
<path d="M582.832 313.024H394.94C386.388 313.024 379.432 307.984 379.432 301.788V265.662L388.758 255.842H590.828L598.34 265.683V301.788C598.34 307.984 591.383 313.024 582.832 313.024Z" fill="#CCCCCC"/>
<path d="M589.951 273.915H389.829L387.796 242.735L389.09 239.544L396.612 221.035H581.814L591.985 242.053L589.951 273.915Z" fill="#CCCCCC"/>
<path d="M591.646 242.12L590.152 265.548H546.123V248.144L590.393 239.537L591.646 242.12Z" fill="white"/>
<path d="M432.988 248.144V265.548H389.621L388.134 242.789L389.4 239.671L432.988 248.144Z" fill="white"/>
<path d="M580.697 226.39H397.726L417.241 161.348C418.037 158.662 419.676 156.303 421.916 154.62C424.157 152.937 426.879 152.019 429.681 152.002L550.856 150.848C553.784 150.82 556.637 151.772 558.961 153.553C561.285 155.334 562.946 157.841 563.68 160.675L580.697 226.39Z" fill="#CCCCCC"/>
<path d="M566.612 220.24L411.782 218.404C411.586 218.402 411.394 218.354 411.22 218.264C411.046 218.173 410.896 218.044 410.782 217.885C410.667 217.726 410.592 217.543 410.561 217.349C410.53 217.156 410.546 216.958 410.605 216.772L425.448 170.468C425.529 170.216 425.688 169.995 425.902 169.839C426.116 169.683 426.375 169.599 426.64 169.599H551.173C551.438 169.599 551.696 169.683 551.91 169.839C552.124 169.995 552.283 170.215 552.364 170.467L567.818 218.607C567.879 218.796 567.893 218.996 567.861 219.192C567.829 219.388 567.751 219.573 567.633 219.732C567.515 219.892 567.361 220.021 567.184 220.109C567.006 220.198 566.81 220.242 566.612 220.24Z" fill="white"/>
<path d="M510.078 158.785H468.346C467.994 158.785 467.675 158.439 467.513 157.881C467.352 157.311 467.375 156.703 467.58 156.147L471.021 147.445C471.196 147.001 471.483 146.737 471.787 146.737H506.637C506.941 146.737 507.227 147.001 507.403 147.445L510.844 156.147C511.049 156.703 511.072 157.311 510.91 157.881C510.749 158.439 510.43 158.785 510.078 158.785Z" fill="#25929B"/>
<path d="M397.841 225.052H370.394V219.019C370.396 217.069 371.172 215.2 372.551 213.821C373.93 212.442 375.8 211.667 377.75 211.664H397.841V225.052Z" fill="#CCCCCC"/>
<path d="M608.047 225.052H580.6V211.664H600.691C602.641 211.667 604.511 212.442 605.89 213.821C607.269 215.2 608.045 217.069 608.047 219.019V225.052Z" fill="#CCCCCC"/>
<path d="M367.183 319.083L233.001 367.28L233.57 368.865L367.753 320.669L367.183 319.083Z" fill="#3F3D56"/>
<path d="M610.412 319.087L609.843 320.672L744.029 368.856L744.598 367.271L610.412 319.087Z" fill="#3F3D56"/>
<path d="M496.676 354.033H488.645V343.66H496.676V354.033ZM496.676 333.287H488.645V322.915H496.676V333.287Z" fill="#E6E6E6"/>
<path d="M496.676 397H488.645V386.628H496.676V397ZM496.676 376.254H488.645V365.882H496.676V376.254Z" fill="#E6E6E6"/>
<path d="M849.581 361.169H840.736L836.526 327.054H849.581V361.169Z" fill="#FFB8B8"/>
<path d="M851.838 369.743H823.315V369.382C823.318 366.439 824.489 363.617 826.57 361.536C828.652 359.455 831.474 358.285 834.417 358.281H851.838L851.838 369.743Z" fill="#2F2E41"/>
<path d="M963.652 344.409L956.07 348.965L934.889 321.889L946.08 315.166L963.652 344.409Z" fill="#FFB8B8"/>
<path d="M945.553 365.284L945.368 364.975C943.855 362.451 943.405 359.429 944.117 356.574C944.829 353.718 946.645 351.262 949.166 349.743L964.099 340.772L970.002 350.597L945.553 365.284Z" fill="#2F2E41"/>
<path d="M851.881 354.129L851.729 354.128C847.426 354.115 843.126 353.867 838.85 353.387C837.22 353.226 835.452 353.051 833.322 352.877L833.249 352.863C831.795 352.431 831.755 338.802 832.371 292.148C832.687 268.253 833.044 241.169 832.618 223.921L832.614 223.752L832.742 223.64C848.522 209.917 868.787 204.773 889.803 209.156L889.959 209.188L890.04 209.325C898.734 224.033 911.86 245.219 924.555 265.708C953.695 312.741 962.03 326.574 961.116 327.617L961.006 327.702C959.016 328.697 957.522 329.463 956.252 330.114C951.999 332.295 950.238 333.197 940.779 337.092L940.546 337.188L940.376 337.001C910.808 304.606 886.202 268.418 870.982 234.965C869.204 246.385 867.045 261.299 864.764 277.056C858.205 322.367 853.773 352.204 851.988 354.02L851.881 354.129Z" fill="#2F2E41"/>
<path d="M897.806 79.2554C900.784 66.9618 903.307 53.0959 897.691 41.7733C893.794 33.9171 879.379 31.2715 871.116 34.1018C862.853 36.932 856.878 44.6108 854.251 52.983C851.623 61.3552 851.929 70.3769 853.074 79.0804C868.271 78.7885 883.468 78.4966 897.806 79.2554Z" fill="#2F2E41"/>
<path d="M872.16 79.2521C881.948 79.2521 889.882 71.3189 889.882 61.5328C889.882 51.7467 881.948 43.8135 872.16 43.8135C862.373 43.8135 854.439 51.7467 854.439 61.5328C854.439 71.3189 862.373 79.2521 872.16 79.2521Z" fill="#FFB8B8"/>
<path d="M893.825 57.8827C893.881 54.9005 893.337 51.9373 892.226 49.1694C891.114 46.4014 889.457 43.8852 887.354 41.77C885.25 39.6549 882.743 37.9841 879.981 36.8569C877.219 35.7297 874.259 35.1691 871.276 35.2084C868.293 35.2477 865.349 35.8862 862.618 37.0858C859.886 38.2854 857.424 40.0217 855.377 42.1915C853.33 44.3613 851.741 46.9204 850.702 49.7167C849.664 52.513 849.199 55.4894 849.334 58.4691C864.502 58.5013 879.67 58.5335 893.825 57.8827Z" fill="#2F2E41"/>
<path d="M859.848 227.407C877.479 227.328 894.994 230.26 911.637 236.076C912.217 208.145 902.599 180.162 885.21 159.228L885.08 159.072L885.147 158.88C889.792 145.461 894.592 131.591 898.882 117.79L898.817 117.558C895.809 106.863 889.351 96.0565 879.076 84.5191C877.961 83.3645 876.449 82.6769 874.846 82.5957C873.243 82.5146 871.669 83.0459 870.443 84.082C852.179 100.823 842.248 125.906 844.526 149.544L844.533 149.614L844.513 149.681C836.467 176.936 833.546 190.935 830.969 203.286C829.089 212.296 827.462 220.098 824.194 231.245C835.908 228.696 847.86 227.41 859.848 227.407Z" fill="#3F3D56"/>
<path opacity="0.1" d="M885.806 141.249L859.631 198.226L844.678 183.092L885.806 141.249Z" fill="black"/>
<path d="M827.054 172.896L828.879 176.442C828.896 176.474 828.899 176.513 828.888 176.548C828.877 176.583 828.852 176.612 828.819 176.629L828.731 176.674L838.238 195.144C838.501 195.655 838.551 196.25 838.375 196.797C838.2 197.345 837.814 197.8 837.303 198.063L825.76 204.003C825.507 204.133 825.231 204.212 824.947 204.235C824.664 204.259 824.378 204.226 824.107 204.139C823.836 204.053 823.585 203.913 823.368 203.729C823.151 203.545 822.972 203.32 822.842 203.067L813.668 185.245L813.604 185.278C813.581 185.29 813.554 185.292 813.53 185.284C813.505 185.276 813.484 185.259 813.472 185.236L812.434 183.218C812.428 183.206 812.424 183.194 812.423 183.181C812.422 183.168 812.423 183.155 812.427 183.143C812.431 183.131 812.438 183.119 812.446 183.109C812.454 183.1 812.465 183.091 812.476 183.086L812.54 183.053L812.149 182.293L812.084 182.326C812.06 182.338 812.032 182.34 812.006 182.332C811.98 182.324 811.958 182.305 811.946 182.281L810.921 180.291C810.909 180.266 810.907 180.238 810.915 180.212C810.923 180.186 810.942 180.165 810.966 180.152L811.03 180.119L810.496 179.082L810.43 179.115C810.409 179.127 810.384 179.129 810.361 179.121C810.338 179.114 810.319 179.098 810.308 179.076L809.749 177.99C809.738 177.969 809.736 177.943 809.743 177.92C809.75 177.897 809.766 177.878 809.788 177.867L809.853 177.833L808.721 175.634C808.458 175.123 808.409 174.528 808.584 173.981C808.76 173.434 809.145 172.979 809.656 172.716L821.199 166.776C821.71 166.513 822.304 166.464 822.852 166.639C823.399 166.815 823.855 167.2 824.118 167.711L826.779 172.881L826.867 172.836C826.9 172.819 826.938 172.816 826.973 172.827C827.008 172.839 827.037 172.863 827.054 172.896Z" fill="#3F3D56"/>
<path d="M823.391 168.567L837.398 195.779C837.564 196.103 837.595 196.48 837.484 196.827C837.373 197.175 837.128 197.463 836.804 197.63L825.755 203.316C825.432 203.483 825.055 203.515 824.708 203.404C824.361 203.294 824.072 203.05 823.905 202.727L823.903 202.723L809.897 175.511C809.814 175.351 809.764 175.175 809.749 174.995C809.734 174.815 809.755 174.634 809.81 174.462C809.865 174.29 809.953 174.131 810.07 173.993C810.187 173.855 810.329 173.742 810.49 173.659L812.144 172.808L812.253 173.02C812.321 173.153 812.414 173.27 812.528 173.366C812.641 173.462 812.773 173.535 812.914 173.581C813.056 173.626 813.205 173.643 813.353 173.631C813.501 173.618 813.646 173.577 813.778 173.509L819.397 170.618C819.664 170.48 819.866 170.242 819.957 169.956C820.049 169.67 820.023 169.36 819.886 169.093L819.777 168.88L821.539 167.974C821.863 167.807 822.24 167.775 822.588 167.886C822.935 167.998 823.224 168.242 823.391 168.566L823.391 168.567Z" fill="#25929B"/>
<path d="M827.451 201.811C828.509 201.738 829.538 201.433 830.466 200.919C831.393 200.404 832.197 199.693 832.82 198.835C833.443 197.976 833.87 196.992 834.071 195.95C834.272 194.909 834.242 193.836 833.984 192.808L855.551 178.679L843.251 173.366L824.656 187.597C822.957 188.146 821.518 189.298 820.611 190.837C819.705 192.376 819.395 194.193 819.739 195.945C820.084 197.697 821.059 199.262 822.48 200.343C823.901 201.425 825.67 201.947 827.451 201.811Z" fill="#FFB8B8"/>
<path d="M848.203 191.633L847.931 191.441C842.798 187.663 837.1 183.757 831.589 179.98L831.258 179.753L831.519 179.448C843.281 165.688 855.055 151.316 866.444 137.413C866.436 137.391 866.428 137.374 866.423 137.363L866.53 137.308L866.575 137.253L866.6 137.273L866.668 137.238L866.358 137.262L862.848 109.737C859.677 105.413 859.07 96.8263 863.225 90.8325C867.529 84.6234 876.634 82.5454 882.711 86.3837C884.303 87.4523 885.634 88.8653 886.606 90.5179C887.578 92.1706 888.166 94.0207 888.326 95.9312C888.552 97.6332 888.394 99.3642 887.866 100.998C887.337 102.631 886.45 104.126 885.269 105.373C886.761 119.939 886.818 132.96 886.874 145.554L886.874 145.679L886.796 145.783C874.655 161.206 861.319 176.547 848.421 191.382L848.203 191.633Z" fill="#3F3D56"/>
<path d="M488.978 116.492C510.985 116.492 528.825 98.6543 528.825 76.6505C528.825 54.6466 510.985 36.809 488.978 36.809C466.972 36.809 449.132 54.6466 449.132 76.6505C449.132 98.6543 466.972 116.492 488.978 116.492Z" fill="#25929B"/>
<path d="M485.181 93.4683L473.255 78.1358L480.19 72.7421L485.837 80.0019L504.914 59.8663L511.293 65.9095L485.181 93.4683Z" fill="white"/>
<path d="M1006.16 370.84H804.775C804.552 370.84 804.338 370.751 804.179 370.593C804.021 370.435 803.933 370.221 803.933 369.998C803.933 369.774 804.021 369.56 804.179 369.402C804.338 369.244 804.552 369.155 804.775 369.155H1006.16C1006.38 369.155 1006.6 369.244 1006.75 369.402C1006.91 369.56 1007 369.774 1007 369.998C1007 370.221 1006.91 370.435 1006.75 370.593C1006.6 370.751 1006.38 370.84 1006.16 370.84Z" fill="#3F3D56"/>
</g>
<defs>
<clipPath id="clip0_2_170">
<rect width="774" height="364" fill="white" transform="translate(233 33)"/>
</clipPath>
</defs>
</svg>
