<svg width="1239" height="430" viewBox="0 0 1239 430" fill="none" xmlns="http://www.w3.org/2000/svg">
<rect width="1239" height="430" fill="white"/>
<g clip-path="url(#clip0_67_2)">
<path d="M393 430H847C592.861 362.276 430.165 422.584 393 430Z" fill="#F2F2F2"/>
<path d="M754.642 400.148C754.913 400.189 755.19 400.146 755.435 400.024C755.681 399.903 755.883 399.709 756.014 399.468C756.146 399.228 756.2 398.954 756.17 398.681C756.14 398.409 756.027 398.153 755.846 397.947L755.793 397.576C756.122 396.942 756.634 396.421 757.262 396.079C757.89 395.738 758.606 395.591 759.318 395.659C760.029 395.726 760.705 396.005 761.257 396.458C761.81 396.912 762.214 397.52 762.418 398.205C763.61 402.053 765.248 406.079 763.809 410.03C771.989 396.55 771.558 378.676 762.93 365.513C761.612 364.627 760.503 363.464 759.68 362.106C758.857 360.748 758.339 359.227 758.163 357.649C759.469 358.249 761.273 357.325 760.404 355.794C760.02 355.203 759.631 354.616 759.247 354.026C764.962 349.093 770.189 358.331 763.756 365.126C765.365 367.639 766.707 370.313 767.759 373.105C767.747 370.256 768.411 367.445 769.699 364.903C770.98 362.542 773.117 360.665 775.033 358.707C775.545 358.175 776.206 357.809 776.929 357.656C777.652 357.502 778.404 357.569 779.089 357.847C779.774 358.125 780.359 358.602 780.77 359.216C781.181 359.83 781.398 360.553 781.394 361.291C779.433 361.716 778.9 364.426 781.03 365.027C780.378 368.06 778.971 370.878 776.939 373.223C774.907 375.567 772.316 377.361 769.406 378.438C770.848 384.373 771.007 390.546 769.874 396.547C771.589 389.573 779.369 388.652 784.976 386.395C785.337 386.213 785.743 386.141 786.144 386.186C786.545 386.231 786.925 386.392 787.236 386.649C787.548 386.906 787.777 387.248 787.898 387.633C788.018 388.019 788.023 388.431 787.913 388.819C787.148 389.04 786.406 389.337 785.7 389.704C785.368 389.88 785.1 390.153 784.93 390.487C784.76 390.821 784.698 391.199 784.753 391.57C784.807 391.941 784.974 392.285 785.232 392.557C785.49 392.829 785.826 393.014 786.194 393.087C782.823 399.429 775.435 403.152 768.328 402.386C767.334 405.281 766.041 408.065 764.472 410.694L753.916 409.591C753.891 409.47 753.869 409.346 753.848 409.225C754.818 409.389 755.805 409.432 756.786 409.356C754.522 406.029 752.686 404.261 754.637 400.149L754.642 400.148Z" fill="#F2F2F2"/>
<path d="M748.708 56.1237C764.219 56.1237 776.794 43.56 776.794 28.0618C776.794 12.5637 764.219 0 748.708 0C733.196 0 720.622 12.5637 720.622 28.0618C720.622 43.56 733.196 56.1237 748.708 56.1237Z" fill="#F2F2F2"/>
<path d="M811.566 14.7738C809.946 9.34041 805.36 5.78824 799.819 5.01033C799.756 5.00505 799.693 5.00505 799.629 5.01033C799.554 4.98663 799.476 4.969 799.398 4.95761C789.994 3.73859 779.536 6.70222 772.5 13.1551L772.422 13.226C770.639 14.8746 768.463 16.0401 766.102 16.6115C763.74 17.1829 761.272 17.1413 758.931 16.4907C757.644 16.1357 756.309 15.9889 754.975 16.0558C752.129 16.2436 749.409 17.304 747.188 19.0924C744.967 20.8809 743.351 23.3103 742.562 26.0495C742.476 26.3842 742.5 26.7379 742.63 27.058C742.761 27.3781 742.992 27.6474 743.288 27.8259C744.134 28.5487 745.14 29.0602 746.223 29.3182C748.549 29.812 750.893 30.2639 753.239 30.6738C757.825 31.4725 762.436 32.1206 767.071 32.618C770.132 32.9438 773.2 33.2032 776.275 33.3959C782.631 33.7928 789.013 33.8898 795.377 33.6902C798.533 33.5853 801.562 33.4798 804.444 32.0924C806.544 31.0604 808.339 29.4992 809.651 27.5628C810.886 25.7002 811.697 23.5897 812.028 21.38C812.359 19.1702 812.201 16.9149 811.565 14.7727L811.566 14.7738Z" fill="#F2F2F2"/>
<path d="M753.787 55.6547C753.733 54.4789 753.536 53.314 753.198 52.1864C751.567 46.753 746.981 43.2009 741.438 42.4229C741.378 42.4177 741.318 42.4177 741.259 42.4229C741.179 42.4004 741.098 42.3827 741.017 42.3702C735.812 41.7335 730.531 42.2761 725.565 43.9578C721.299 45.3486 717.376 47.623 714.05 50.6323C712.268 52.2826 710.092 53.4495 707.73 54.0221C705.369 54.5946 702.9 54.5537 700.559 53.9033C699.27 53.5483 697.932 53.4015 696.597 53.4684C693.75 53.6564 691.031 54.717 688.81 56.5057C686.588 58.2943 684.973 60.7239 684.185 63.4632C684.103 63.798 684.129 64.15 684.259 64.469C684.39 64.788 684.617 65.0577 684.91 65.2396C685.758 65.9606 686.763 66.4718 687.845 66.7319C690.181 67.2258 692.516 67.6777 694.872 68.0876C699.458 68.8863 704.065 69.5343 708.693 70.0318C718.096 71.0404 727.558 71.3987 737.01 71.1039C740.155 70.999 743.196 70.8936 746.077 69.5067C748.175 68.4744 749.966 66.9131 751.274 64.9771C753.117 62.2315 754.001 58.954 753.787 55.6547Z" fill="#F2F2F2"/>
<path d="M748.708 56.1237C764.219 56.1237 776.794 43.56 776.794 28.0618C776.794 12.5637 764.219 0 748.708 0C733.196 0 720.622 12.5637 720.622 28.0618C720.622 43.56 733.196 56.1237 748.708 56.1237Z" fill="#25929B"/>
<path d="M811.566 14.7738C809.946 9.34041 805.36 5.78824 799.819 5.01033C799.756 5.00505 799.693 5.00505 799.629 5.01033C799.554 4.98663 799.476 4.969 799.398 4.95761C789.994 3.73859 779.536 6.70222 772.5 13.1551L772.422 13.226C770.639 14.8746 768.463 16.0401 766.102 16.6115C763.74 17.1829 761.272 17.1413 758.931 16.4907C757.644 16.1357 756.309 15.9889 754.975 16.0558C752.129 16.2436 749.409 17.304 747.188 19.0924C744.967 20.8809 743.351 23.3103 742.562 26.0495C742.476 26.3842 742.5 26.7379 742.63 27.058C742.761 27.3781 742.992 27.6474 743.288 27.8259C744.134 28.5487 745.14 29.0602 746.223 29.3182C748.549 29.812 750.893 30.2639 753.239 30.6738C757.825 31.4725 762.436 32.1206 767.071 32.618C770.132 32.9438 773.2 33.2032 776.275 33.3959C782.631 33.7928 789.013 33.8898 795.377 33.6902C798.533 33.5853 801.562 33.4798 804.444 32.0924C806.544 31.0604 808.339 29.4992 809.651 27.5628C810.886 25.7002 811.697 23.5897 812.028 21.38C812.359 19.1702 812.201 16.9149 811.565 14.7727L811.566 14.7738Z" fill="#E6E6E6"/>
<path d="M753.787 55.6547C753.733 54.4789 753.536 53.314 753.198 52.1864C751.567 46.753 746.981 43.2009 741.438 42.4229C741.378 42.4177 741.318 42.4177 741.259 42.4229C741.179 42.4004 741.098 42.3827 741.017 42.3702C735.812 41.7335 730.531 42.2761 725.565 43.9578C721.299 45.3486 717.376 47.623 714.05 50.6323C712.268 52.2826 710.092 53.4495 707.73 54.0221C705.369 54.5946 702.9 54.5537 700.559 53.9033C699.27 53.5483 697.932 53.4015 696.597 53.4684C693.75 53.6564 691.031 54.717 688.81 56.5057C686.588 58.2943 684.973 60.7239 684.185 63.4632C684.103 63.798 684.129 64.15 684.259 64.469C684.39 64.788 684.617 65.0577 684.91 65.2396C685.758 65.9606 686.763 66.4718 687.845 66.7319C690.181 67.2258 692.516 67.6777 694.872 68.0876C699.458 68.8863 704.065 69.5343 708.693 70.0318C718.096 71.0404 727.558 71.3987 737.01 71.1039C740.155 70.999 743.196 70.8936 746.077 69.5067C748.175 68.4744 749.966 66.9131 751.274 64.9771C753.117 62.2315 754.001 58.954 753.787 55.6547Z" fill="#E6E6E6"/>
<path d="M632.004 173.112L607.589 175.241C606.344 175.349 605.193 175.948 604.39 176.904C603.586 177.861 603.196 179.097 603.305 180.342L603.588 183.581C603.697 184.825 604.296 185.975 605.253 186.778C606.211 187.581 607.448 187.972 608.693 187.863L618.026 187.049L617.458 219.428C616.898 219.847 616.437 220.385 616.112 221.004C615.786 221.623 615.602 222.307 615.575 223.006L614.592 247.476C614.558 248.324 614.753 249.165 615.158 249.911C615.563 250.657 616.163 251.28 616.893 251.714L615.153 351.136L602.207 373.82L481.729 384.327C481.231 384.371 480.771 384.61 480.449 384.993C480.128 385.376 479.972 385.87 480.015 386.368C480.059 386.866 480.298 387.326 480.681 387.647C481.064 387.968 481.559 388.124 482.057 388.081L491.443 387.262C489.489 389.009 488.135 391.326 487.573 393.884C487.01 396.443 487.268 399.114 488.31 401.518C489.351 403.922 491.124 405.938 493.376 407.28C495.628 408.622 498.245 409.221 500.857 408.993C503.469 408.765 505.942 407.722 507.927 406.011C509.912 404.3 511.307 402.008 511.916 399.459C512.524 396.911 512.314 394.236 511.316 391.814C510.318 389.391 508.582 387.344 506.355 385.962L603.522 377.488C603.826 377.461 604.118 377.361 604.375 377.197C604.631 377.033 604.844 376.809 604.995 376.544L615.679 357.823L617.088 373.933C614.025 374.657 611.348 376.51 609.594 379.122C607.84 381.734 607.138 384.912 607.628 388.019C608.119 391.127 609.766 393.935 612.24 395.881C614.714 397.827 617.832 398.767 620.97 398.514C624.108 398.261 627.034 396.832 629.163 394.515C631.291 392.198 632.466 389.162 632.45 386.016C632.434 382.871 631.23 379.847 629.079 377.55C626.927 375.253 623.987 373.853 620.847 373.63L618.918 351.584L620.658 252.172C621.597 251.891 622.426 251.324 623.027 250.55C623.629 249.776 623.973 248.834 624.012 247.854L624.995 223.385C625.039 222.272 624.687 221.179 624 220.301C623.313 219.423 622.337 218.817 621.245 218.591L621.803 186.721L633.106 185.735C633.723 185.681 634.323 185.507 634.872 185.221C635.421 184.936 635.908 184.545 636.306 184.072C636.704 183.598 637.004 183.051 637.191 182.461C637.377 181.871 637.445 181.25 637.391 180.634L637.107 177.394C636.999 176.15 636.4 175 635.443 174.197C634.486 173.394 633.249 173.003 632.004 173.112Z" fill="#3F3D56"/>
<path d="M548.174 99.5321C548.174 99.5321 545.536 108.024 547.142 114.261L537.901 114.889L530.05 110.256L530.424 104.921C530.424 104.921 534.807 97.0613 534.448 87.5944L548.174 99.5321Z" fill="#FFB9B9"/>
<path d="M488.754 365.677L500.355 370.234L511.422 344.669L499.434 339.398L488.754 365.677Z" fill="#FFB7B7"/>
<path d="M566.04 368.401L576.727 367.469L576.759 338.995L563.565 340.146L566.04 368.401Z" fill="#FFB7B7"/>
<path d="M511.596 140.931C511.596 140.931 506.359 137.601 507.162 146.78L509.04 177.184L520.201 205.087L524.426 195.353L520.597 175.398L511.596 140.931Z" fill="#25929B"/>
<path d="M571.359 219.321C571.359 219.321 579.475 246.527 574.251 269.891L577.914 357.65L563.204 357.786L552.411 293.387L544.658 261.584L536.984 291.864L508.647 357.003L492.026 346.225C492.026 346.225 505.155 297.709 517.03 286.727L517.058 213.459L571.359 219.321Z" fill="#090814"/>
<path d="M557.419 90.8884C561.127 82.4366 557.275 72.581 548.814 68.8753C540.354 65.1696 530.49 69.0171 526.782 77.4689C523.074 85.9207 526.927 95.7763 535.387 99.482C543.847 103.188 553.711 99.3402 557.419 90.8884Z" fill="#FFB7B7"/>
<path d="M541.231 87.8109C543.251 87.8965 544.579 85.7229 545.112 83.7735C545.645 81.8241 545.985 79.5813 547.632 78.4099C549.884 76.8102 553.065 78.2207 555.737 77.5244C558.755 76.7382 560.463 73.32 560.349 70.2058C560.235 67.0916 558.738 64.2175 557.276 61.4638L557.164 65.0541C557.116 63.8448 556.757 62.6682 556.123 61.6369C555.489 60.6056 554.601 59.754 553.544 59.1637L554.543 64.3301C554.364 63.621 554.047 62.9541 553.609 62.3678C553.171 61.7815 552.622 61.2873 551.993 60.9135C551.364 60.5397 550.667 60.2937 549.943 60.1895C549.219 60.0854 548.481 60.1252 547.772 60.3067L548.129 63.4053C544.554 63.2944 540.948 63.1843 537.427 63.8129C533.906 64.4415 530.432 65.8763 527.946 68.4468C524.228 72.2924 523.262 78.1726 524.219 83.4332C525.176 88.6938 527.803 93.485 530.507 98.0981C531.188 99.2588 532.102 100.556 533.448 100.594C534.655 100.628 535.665 99.5325 535.936 98.3536C536.12 97.1535 536.002 95.9266 535.591 94.7838C535.096 93.0254 534.515 91.2357 534.673 89.4168C534.832 87.5979 535.968 85.7154 537.756 85.3386C539.543 84.9619 541.573 86.8643 540.844 88.5406L541.231 87.8109Z" fill="#090814"/>
<path d="M573.048 226.642L517.12 227.906L519.789 210.211L571.612 217.131L573.048 226.642Z" fill="#D6D6E3"/>
<path d="M528.136 108.268L531.201 103.125C531.201 103.125 535.216 104.108 546.11 108.391L547.245 112.861L575.113 222.669L542.047 224.122L533.06 224.713L529.549 218.394L526.492 225.147L517.716 225.725L508.35 221.337L514.786 193.72L515.482 168.945L509.068 146.221C509.068 146.221 501.685 125.484 521.97 112.184L528.136 108.268Z" fill="#25929B"/>
<path d="M609.767 186.111C608.978 186.387 608.139 186.486 607.307 186.401C606.476 186.317 605.673 186.052 604.955 185.624C604.238 185.197 603.622 184.617 603.153 183.926C602.684 183.235 602.372 182.449 602.239 181.625L582.234 178.099L589.486 170.437L607.372 174.963C608.772 174.833 610.172 175.22 611.306 176.052C612.44 176.884 613.229 178.102 613.524 179.476C613.82 180.85 613.6 182.285 612.908 183.508C612.215 184.732 611.098 185.658 609.767 186.114L609.767 186.111Z" fill="#FFB7B7"/>
<path d="M600.755 183.925C600.364 184.185 599.922 184.359 599.459 184.437C598.996 184.515 598.521 184.495 598.066 184.378L564.848 174.988C556.761 172.894 549.709 167.936 545.006 161.036L529.509 138.305C527.428 136.349 526.21 133.646 526.123 130.793C526.036 127.939 527.087 125.168 529.045 123.088C531.002 121.009 533.707 119.792 536.562 119.706C539.418 119.619 542.192 120.67 544.273 122.626L570.695 157.358L601.397 171.924C602.002 172.249 602.493 172.752 602.803 173.365C603.113 173.978 603.226 174.672 603.129 175.351L602.215 181.628C602.116 182.301 601.815 182.928 601.351 183.425C601.173 183.617 600.973 183.787 600.756 183.932L600.755 183.925Z" fill="#25929B"/>
<path d="M576.673 364.948L589.487 370.147C589.487 370.147 609.076 373.045 596.915 377.933C584.753 382.822 578.892 380.612 578.892 380.612C578.892 380.612 562.62 382.888 562.485 378.307C562.349 373.726 564.933 367.046 564.933 367.046C564.933 367.046 576.121 368.948 576.673 364.948Z" fill="#090814"/>
<path d="M502.416 365.61L512.469 373.408C512.469 373.408 530.496 381.594 517.458 382.937C504.419 384.28 499.397 380.542 499.397 380.542C499.397 380.542 483.132 378.24 484.267 373.803C485.402 369.366 489.73 363.658 489.73 363.658C489.73 363.658 500.78 369.301 502.416 365.61Z" fill="#090814"/>
<path d="M629.958 21.1134C629.905 19.9376 629.707 18.7727 629.369 17.6452C627.738 12.2118 623.152 8.65959 617.609 7.88169C617.549 7.87643 617.49 7.87643 617.43 7.88169C617.351 7.8591 617.27 7.84149 617.188 7.82896C611.983 7.1922 606.702 7.73481 601.736 9.41652C597.471 10.8073 593.547 13.0817 590.221 16.0911C588.439 17.7413 586.263 18.9083 583.902 19.4808C581.54 20.0534 579.071 20.0125 576.73 19.362C575.441 19.0071 574.103 18.8603 572.768 18.9271C569.922 19.1151 567.202 20.1757 564.981 21.9644C562.76 23.753 561.144 26.1827 560.356 28.922C560.274 29.2567 560.3 29.6087 560.43 29.9277C560.561 30.2468 560.789 30.5165 561.082 30.6983C561.929 31.4193 562.934 31.9305 564.017 32.1906C566.352 32.6845 568.687 33.1364 571.043 33.5463C575.629 34.345 580.236 34.9931 584.865 35.4905C594.268 36.4992 603.729 36.8574 613.181 36.5627C616.326 36.4578 619.367 36.3523 622.249 34.9655C624.346 33.9332 626.137 32.3718 627.445 30.4358C629.289 27.6902 630.172 24.4127 629.958 21.1134Z" fill="#E6E6E6"/>
</g>
<defs>
<clipPath id="clip0_67_2">
<rect width="454" height="430" fill="white" transform="translate(393)"/>
</clipPath>
</defs>
</svg>
