<svg width="1239" height="430" viewBox="0 0 1239 430" fill="none" xmlns="http://www.w3.org/2000/svg">
<rect width="1239" height="430" fill="white"/>
<g clip-path="url(#clip0_40_809)">
<path d="M646.802 375.159C643.164 375.158 639.645 373.869 636.869 371.519C634.093 369.17 632.241 365.913 631.641 362.327L631.636 362.298L631.656 362.275C632.639 361.098 633.434 359.776 634.012 358.356C633.324 359.237 632.493 359.997 631.554 360.603L631.457 360.667L631.452 360.552C631.439 360.297 631.433 360.044 631.433 359.8C631.425 357.189 632.086 354.619 633.355 352.336C634.624 350.052 636.458 348.133 638.681 346.76C636.426 344.408 634.729 341.58 633.716 338.485C632.703 335.389 632.4 332.105 632.83 328.877C633.26 325.648 634.411 322.558 636.198 319.834C637.985 317.11 640.362 314.823 643.154 313.143C645.946 311.462 649.08 310.431 652.325 310.125C655.57 309.819 658.842 310.247 661.899 311.376C664.955 312.506 667.719 314.308 669.984 316.649C672.249 318.991 673.958 321.812 674.984 324.903L675.004 324.962L674.947 324.985C673.638 325.549 672.229 325.845 670.804 325.857C672.288 326.277 673.828 326.463 675.37 326.408L675.423 326.407L675.436 326.458C675.866 328.184 676.084 329.956 676.083 331.735C676.083 331.799 676.083 331.863 676.083 331.927C676.078 333.31 676.366 334.678 676.926 335.943C677.487 337.207 678.308 338.34 679.336 339.266C680.977 340.759 682.276 342.589 683.142 344.631C684.009 346.674 684.422 348.879 684.354 351.096C684.286 353.313 683.738 355.489 682.748 357.475C681.758 359.46 680.349 361.207 678.618 362.597L678.587 362.622L678.55 362.605C676.278 361.575 674.696 360.425 673.618 359.013C674.346 360.791 675.409 362.413 676.748 363.792L676.806 363.852L676.734 363.894C674.437 365.231 671.833 365.95 669.175 365.982C666.517 366.014 663.896 365.356 661.568 364.074C660.633 367.267 658.69 370.071 656.029 372.069C653.367 374.067 650.131 375.15 646.802 375.159Z" fill="#F2F2F2"/>
<path d="M641.327 399.623C641.26 399.623 641.195 399.598 641.144 399.554C641.093 399.51 641.06 399.449 641.051 399.383C640.32 392.876 640.277 386.31 640.92 379.794C641.884 369.515 644.979 354.709 654.251 342.549C654.273 342.52 654.301 342.495 654.333 342.477C654.365 342.458 654.4 342.446 654.436 342.441C654.473 342.436 654.51 342.438 654.545 342.447C654.581 342.457 654.614 342.473 654.643 342.495C654.673 342.518 654.697 342.545 654.716 342.577C654.734 342.609 654.746 342.644 654.751 342.681C654.756 342.717 654.753 342.754 654.744 342.79C654.734 342.825 654.718 342.858 654.695 342.887C645.504 354.942 642.433 369.639 641.476 379.846C640.836 386.319 640.879 392.841 641.604 399.304C641.609 399.344 641.606 399.384 641.595 399.423C641.583 399.461 641.564 399.496 641.538 399.527C641.512 399.557 641.479 399.581 641.443 399.598C641.406 399.614 641.367 399.623 641.327 399.623Z" fill="#3F3D56"/>
<path d="M645.962 358.628C645.903 358.628 645.845 358.609 645.798 358.575C645.75 358.54 645.714 358.491 645.696 358.435C645.678 358.379 645.678 358.319 645.696 358.263C645.714 358.207 645.75 358.158 645.797 358.123C648.439 356.336 651.293 354.884 654.294 353.801C658.981 352.086 666.11 350.531 673.448 352.865C673.519 352.888 673.577 352.937 673.611 353.003C673.646 353.069 673.652 353.145 673.63 353.216C673.607 353.286 673.558 353.345 673.492 353.379C673.426 353.413 673.349 353.419 673.279 353.397C666.091 351.111 659.092 352.64 654.486 354.325C651.534 355.39 648.725 356.817 646.126 358.575C646.078 358.609 646.021 358.628 645.962 358.628Z" fill="#3F3D56"/>
<path d="M505.327 103.935C520.323 103.935 532.479 91.7873 532.479 76.8021C532.479 61.8169 520.323 49.6689 505.327 49.6689C490.332 49.6689 478.175 61.8169 478.175 76.8021C478.175 91.7873 490.332 103.935 505.327 103.935Z" fill="#FF6584"/>
<path d="M503.175 91.0092H499.702V69.6397C499.702 66.7518 498.554 63.9822 496.511 61.9402C494.467 59.8981 491.696 58.7509 488.806 58.7509H473.757V28H471.343V58.7509H450.828V91.0092H430.615V400.327H544.05V131.856C544.05 121.023 539.744 110.633 532.078 102.973C524.413 95.3127 514.016 91.0092 503.175 91.0092Z" fill="#F2F2F2"/>
<path d="M607.082 279.434H604.087V275.249C604.085 272.473 603.022 269.803 601.116 267.785C599.209 265.766 596.602 264.553 593.829 264.392V236.021H591.416V264.36H580.555V279.434H541.939V400.629H627.618V299.956C627.618 297.261 627.087 294.592 626.055 292.102C625.023 289.612 623.51 287.35 621.603 285.445C619.696 283.539 617.433 282.027 614.941 280.996C612.449 279.965 609.779 279.434 607.082 279.434Z" fill="#F2F2F2"/>
<path d="M772.429 192.673V185.408C772.428 182.632 771.365 179.962 769.458 177.944C767.551 175.926 764.945 174.712 762.172 174.551V146.18H759.758V174.519H748.897V192.608H697.61V400.629H811.045V233.455C811.045 223.013 807.042 212.967 799.861 205.383C792.679 197.798 782.862 193.25 772.429 192.673Z" fill="#F2F2F2"/>
<path d="M731.399 222.153H716.315V234.212H731.399V222.153Z" fill="white"/>
<path d="M756.138 222.153H741.053V234.212H756.138V222.153Z" fill="white"/>
<path d="M780.876 222.153H765.792V234.212H780.876V222.153Z" fill="white"/>
<path d="M731.399 252.904H716.315V264.963H731.399V252.904Z" fill="white"/>
<path d="M756.138 252.904H741.053V264.963H756.138V252.904Z" fill="white"/>
<path d="M780.876 252.904H765.792V264.963H780.876V252.904Z" fill="white"/>
<path d="M731.399 283.655H716.315V295.714H731.399V283.655Z" fill="white"/>
<path d="M756.138 283.655H741.053V295.714H756.138V283.655Z" fill="white"/>
<path d="M780.876 283.655H765.792V295.714H780.876V283.655Z" fill="white"/>
<path d="M731.399 314.406H716.315V326.465H731.399V314.406Z" fill="white"/>
<path d="M756.138 314.406H741.053V326.465H756.138V314.406Z" fill="white"/>
<path d="M780.876 314.406H765.792V326.465H780.876V314.406Z" fill="white"/>
<path d="M731.399 345.156H716.315V357.216H731.399V345.156Z" fill="white"/>
<path d="M756.138 345.156H741.053V357.216H756.138V345.156Z" fill="white"/>
<path d="M780.876 345.156H765.792V357.216H780.876V345.156Z" fill="white"/>
<path d="M731.399 375.907H716.315V387.966H731.399V375.907Z" fill="white"/>
<path d="M756.138 375.907H741.053V387.966H756.138V375.907Z" fill="white"/>
<path d="M780.876 375.907H765.792V387.966H780.876V375.907Z" fill="white"/>
<path d="M511.77 115.429H462.896V119.047H511.77V115.429Z" fill="white"/>
<path d="M511.77 137.739H462.896V141.356H511.77V137.739Z" fill="white"/>
<path d="M511.77 160.048H462.896V163.666H511.77V160.048Z" fill="white"/>
<path d="M511.77 182.357H462.896V185.975H511.77V182.357Z" fill="white"/>
<path d="M511.77 204.667H462.896V208.285H511.77V204.667Z" fill="white"/>
<path d="M511.77 226.977H462.896V230.594H511.77V226.977Z" fill="white"/>
<path d="M511.77 249.286H462.896V252.904H511.77V249.286Z" fill="white"/>
<path d="M511.77 271.595H462.896V275.213H511.77V271.595Z" fill="white"/>
<path d="M511.77 293.905H462.896V297.523H511.77V293.905Z" fill="white"/>
<path d="M511.77 316.214H462.896V319.832H511.77V316.214Z" fill="white"/>
<path d="M511.77 338.524H462.896V342.142H511.77V338.524Z" fill="white"/>
<path d="M511.77 360.833H462.896V364.451H511.77V360.833Z" fill="white"/>
<path d="M567.582 295.714H552.498V307.773H567.582V295.714Z" fill="white"/>
<path d="M592.321 295.714H577.236V307.773H592.321V295.714Z" fill="white"/>
<path d="M617.059 295.714H601.975V307.773H617.059V295.714Z" fill="white"/>
<path d="M567.884 326.465H552.799V338.524H567.884V326.465Z" fill="white"/>
<path d="M592.622 326.465H577.538V338.524H592.622V326.465Z" fill="white"/>
<path d="M617.361 326.465H602.276V338.524H617.361V326.465Z" fill="white"/>
<path d="M568.186 357.216H553.101V369.275H568.186V357.216Z" fill="white"/>
<path d="M592.924 357.216H577.84V369.275H592.924V357.216Z" fill="white"/>
<path d="M617.663 357.216H602.578V369.275H617.663V357.216Z" fill="white"/>
<path d="M482.808 65.3835H467.723V77.4427H482.808V65.3835Z" fill="white"/>
<path d="M434.758 370.601C435.957 360.966 441.932 351.473 451.127 348.338C447.501 358.255 447.501 369.133 451.129 379.05C452.542 382.869 454.511 386.97 453.182 390.819C452.355 393.214 450.333 395.046 448.071 396.192C445.81 397.338 443.3 397.884 440.822 398.419L440.335 398.822C436.4 389.945 433.559 380.235 434.758 370.601Z" fill="#CACACA"/>
<path d="M451.218 348.52C445.863 354.516 442.535 362.045 441.707 370.038C441.498 371.756 441.561 373.496 441.894 375.194C442.272 376.837 443.084 378.349 444.244 379.573C445.304 380.737 446.522 381.804 447.28 383.204C447.657 383.926 447.877 384.72 447.926 385.534C447.975 386.347 447.851 387.162 447.563 387.924C446.893 389.842 445.574 391.406 444.231 392.89C442.74 394.537 441.165 396.225 440.532 398.41C440.455 398.674 440.048 398.54 440.125 398.276C441.228 394.475 444.92 392.316 446.68 388.893C447.502 387.296 447.847 385.441 447.077 383.755C446.403 382.281 445.148 381.179 444.065 380.011C442.915 378.833 442.071 377.392 441.607 375.814C441.189 374.138 441.058 372.404 441.222 370.685C441.529 366.808 442.444 363.004 443.933 359.412C445.61 355.303 447.978 351.511 450.935 348.199C451.118 347.995 451.4 348.317 451.218 348.52Z" fill="white"/>
<path d="M441.822 367.449C440.499 367.128 439.333 366.347 438.532 365.246C437.732 364.146 437.349 362.796 437.452 361.44C437.474 361.165 437.902 361.186 437.88 361.461C437.782 362.724 438.138 363.981 438.886 365.005C439.633 366.028 440.722 366.751 441.956 367.042C442.224 367.106 442.088 367.512 441.822 367.449Z" fill="white"/>
<path d="M443.629 379.054C446.019 377.628 447.783 375.355 448.57 372.687C448.648 372.422 449.054 372.557 448.977 372.821C448.153 375.596 446.312 377.958 443.822 379.437C443.585 379.577 443.393 379.194 443.629 379.054Z" fill="white"/>
<path d="M446.007 355.708C446.493 355.939 447.029 356.046 447.567 356.018C448.104 355.991 448.626 355.831 449.086 355.552C449.322 355.408 449.513 355.791 449.279 355.934C448.769 356.24 448.192 356.416 447.598 356.448C447.005 356.479 446.412 356.365 445.873 356.114C445.82 356.095 445.777 356.056 445.751 356.006C445.726 355.956 445.721 355.898 445.737 355.844C445.755 355.791 445.793 355.746 445.844 355.721C445.895 355.695 445.953 355.691 446.007 355.708Z" fill="white"/>
<path d="M479.154 365.546C479.009 365.64 478.865 365.734 478.72 365.832C476.784 367.104 474.954 368.532 473.249 370.1C473.115 370.22 472.981 370.342 472.851 370.465C468.784 374.288 465.462 378.832 463.054 383.867C462.098 385.871 461.296 387.945 460.654 390.071C459.769 393.007 459.042 396.261 457.29 398.663C457.11 398.915 456.914 399.157 456.704 399.385H440.864C440.828 399.367 440.792 399.353 440.756 399.335L440.124 399.363C440.149 399.252 440.178 399.136 440.203 399.024C440.218 398.959 440.236 398.894 440.25 398.829C440.261 398.786 440.272 398.742 440.279 398.703C440.283 398.688 440.286 398.674 440.29 398.663C440.297 398.623 440.308 398.587 440.315 398.551C440.474 397.904 440.638 397.258 440.807 396.612C440.807 396.608 440.807 396.608 440.81 396.604C442.048 391.666 443.868 386.892 446.231 382.383C446.303 382.249 446.376 382.112 446.455 381.978C447.55 379.982 448.805 378.078 450.21 376.287C450.982 375.308 451.804 374.369 452.671 373.473C454.917 371.163 457.512 369.221 460.362 367.717C466.043 364.719 472.62 363.571 478.691 365.402C478.847 365.449 478.999 365.496 479.154 365.546Z" fill="#CACACA"/>
<path d="M479.118 365.747C471.231 367.313 464.037 371.322 458.56 377.206C457.358 378.451 456.36 379.879 455.603 381.435C454.915 382.974 454.652 384.67 454.841 386.346C454.986 387.912 455.316 389.497 455.077 391.071C454.943 391.875 454.641 392.641 454.19 393.32C453.738 393.999 453.149 394.575 452.459 395.01C450.769 396.139 448.774 396.594 446.808 396.97C444.625 397.389 442.35 397.789 440.528 399.152C440.307 399.317 440.064 398.965 440.284 398.8C443.454 396.429 447.703 396.927 451.171 395.253C452.789 394.472 454.182 393.199 454.583 391.389C454.934 389.806 454.595 388.172 454.434 386.587C454.226 384.955 454.42 383.297 455.001 381.757C455.676 380.168 456.617 378.704 457.783 377.43C460.364 374.52 463.386 372.033 466.739 370.061C470.554 367.789 474.73 366.186 479.085 365.321C479.355 365.267 479.386 365.694 479.118 365.747Z" fill="white"/>
<path d="M460.212 375.208C459.349 374.155 458.888 372.83 458.912 371.47C458.936 370.11 459.443 368.802 460.343 367.781C460.526 367.575 460.855 367.849 460.672 368.055C459.832 369.005 459.36 370.223 459.34 371.49C459.32 372.756 459.754 373.989 460.564 374.964C460.739 375.176 460.386 375.418 460.212 375.208Z" fill="white"/>
<path d="M454.663 385.561C457.43 385.861 460.208 385.107 462.444 383.45C462.665 383.286 462.909 383.638 462.688 383.802C460.358 385.522 457.465 386.3 454.586 385.982C454.312 385.952 454.39 385.531 454.663 385.561Z" fill="white"/>
<path d="M470.627 368.351C470.876 368.828 471.24 369.236 471.685 369.537C472.131 369.839 472.644 370.025 473.18 370.079C473.454 370.106 473.376 370.527 473.103 370.5C472.512 370.438 471.945 370.231 471.452 369.899C470.959 369.567 470.555 369.119 470.275 368.595C470.244 368.548 470.233 368.491 470.243 368.436C470.253 368.38 470.284 368.331 470.329 368.297C470.376 368.265 470.433 368.253 470.489 368.263C470.545 368.273 470.595 368.305 470.627 368.351Z" fill="white"/>
<path d="M722.569 370.601C723.768 360.966 729.743 351.473 738.938 348.338C735.312 358.255 735.313 369.133 738.94 379.05C740.353 382.869 742.323 386.97 740.994 390.819C740.167 393.214 738.144 395.046 735.883 396.192C733.621 397.338 731.112 397.884 728.634 398.419L728.146 398.822C724.212 389.945 721.37 380.235 722.569 370.601Z" fill="#CACACA"/>
<path d="M739.029 348.52C733.675 354.516 730.347 362.045 729.518 370.038C729.309 371.756 729.372 373.496 729.705 375.194C730.083 376.837 730.895 378.349 732.056 379.573C733.115 380.737 734.333 381.804 735.091 383.204C735.469 383.926 735.689 384.72 735.738 385.534C735.786 386.347 735.662 387.162 735.374 387.924C734.705 389.842 733.386 391.406 732.043 392.89C730.552 394.537 728.977 396.225 728.343 398.41C728.266 398.674 727.86 398.54 727.936 398.276C729.039 394.475 732.731 392.316 734.492 388.893C735.313 387.296 735.658 385.441 734.888 383.755C734.215 382.281 732.959 381.179 731.876 380.011C730.726 378.833 729.883 377.392 729.419 375.814C729 374.138 728.87 372.404 729.033 370.685C729.34 366.808 730.255 363.004 731.744 359.412C733.421 355.303 735.789 351.511 738.746 348.199C738.929 347.995 739.211 348.317 739.029 348.52Z" fill="white"/>
<path d="M729.633 367.449C728.31 367.128 727.144 366.347 726.344 365.246C725.543 364.146 725.161 362.796 725.264 361.44C725.286 361.165 725.713 361.186 725.692 361.461C725.593 362.724 725.95 363.981 726.697 365.005C727.445 366.028 728.534 366.751 729.767 367.042C730.036 367.106 729.9 367.512 729.633 367.449Z" fill="white"/>
<path d="M731.441 379.054C733.831 377.628 735.595 375.355 736.382 372.687C736.459 372.422 736.866 372.557 736.788 372.821C735.964 375.596 734.124 377.958 731.633 379.437C731.396 379.577 731.205 379.194 731.441 379.054Z" fill="white"/>
<path d="M733.819 355.708C734.305 355.939 734.841 356.046 735.378 356.018C735.915 355.991 736.438 355.831 736.898 355.552C737.133 355.408 737.324 355.791 737.09 355.934C736.581 356.24 736.004 356.416 735.41 356.448C734.816 356.479 734.224 356.365 733.684 356.114C733.632 356.095 733.588 356.056 733.563 356.006C733.538 355.956 733.532 355.898 733.548 355.844C733.566 355.791 733.605 355.746 733.655 355.721C733.706 355.695 733.765 355.691 733.819 355.708Z" fill="white"/>
<path d="M766.965 365.546C766.821 365.64 766.676 365.734 766.531 365.832C764.595 367.104 762.765 368.532 761.06 370.1C760.926 370.22 760.793 370.342 760.663 370.465C756.595 374.288 753.273 378.832 750.865 383.867C749.909 385.871 749.107 387.945 748.466 390.071C747.58 393.007 746.854 396.261 745.101 398.663C744.921 398.915 744.726 399.157 744.516 399.385H728.676C728.64 399.367 728.604 399.353 728.567 399.335L727.935 399.363C727.96 399.252 727.989 399.136 728.015 399.024C728.029 398.959 728.047 398.894 728.062 398.829C728.072 398.786 728.083 398.742 728.091 398.703C728.094 398.688 728.098 398.674 728.101 398.663C728.109 398.623 728.119 398.587 728.127 398.551C728.286 397.904 728.45 397.258 728.618 396.612C728.618 396.608 728.618 396.608 728.622 396.604C729.86 391.666 731.679 386.892 734.043 382.383C734.115 382.249 734.187 382.112 734.267 381.978C735.361 379.982 736.617 378.078 738.022 376.287C738.794 375.308 739.615 374.369 740.483 373.473C742.728 371.163 745.323 369.221 748.173 367.717C753.854 364.719 760.431 363.571 766.503 365.402C766.658 365.449 766.81 365.496 766.965 365.546Z" fill="#CACACA"/>
<path d="M766.93 365.747C759.042 367.313 751.849 371.322 746.371 377.206C745.169 378.451 744.172 379.879 743.415 381.435C742.726 382.974 742.463 384.67 742.652 386.346C742.797 387.912 743.127 389.497 742.889 391.071C742.755 391.875 742.452 392.641 742.001 393.32C741.55 393.999 740.96 394.575 740.271 395.01C738.581 396.139 736.586 396.594 734.619 396.97C732.436 397.389 730.161 397.789 728.339 399.152C728.118 399.317 727.875 398.965 728.095 398.8C731.266 396.429 735.514 396.927 738.983 395.253C740.601 394.472 741.994 393.199 742.394 391.389C742.745 389.806 742.406 388.172 742.246 386.587C742.037 384.955 742.231 383.297 742.812 381.757C743.487 380.168 744.428 378.704 745.595 377.43C748.175 374.52 751.197 372.033 754.551 370.061C758.366 367.789 762.541 366.186 766.897 365.321C767.166 365.267 767.198 365.694 766.93 365.747Z" fill="white"/>
<path d="M748.023 375.208C747.16 374.155 746.7 372.83 746.724 371.47C746.748 370.11 747.255 368.802 748.155 367.781C748.338 367.575 748.666 367.849 748.483 368.055C747.644 369.005 747.171 370.223 747.152 371.49C747.132 372.756 747.566 373.989 748.375 374.964C748.551 375.176 748.198 375.418 748.023 375.208Z" fill="white"/>
<path d="M742.474 385.561C745.241 385.861 748.02 385.107 750.255 383.45C750.477 383.286 750.72 383.638 750.499 383.802C748.17 385.522 745.277 386.3 742.398 385.982C742.123 385.952 742.201 385.531 742.474 385.561Z" fill="white"/>
<path d="M758.438 368.351C758.688 368.828 759.051 369.236 759.497 369.537C759.942 369.839 760.456 370.025 760.991 370.079C761.266 370.106 761.188 370.527 760.915 370.5C760.323 370.438 759.757 370.231 759.264 369.899C758.771 369.567 758.366 369.119 758.086 368.595C758.056 368.548 758.045 368.491 758.055 368.436C758.065 368.38 758.095 368.331 758.141 368.297C758.187 368.265 758.245 368.253 758.301 368.263C758.356 368.273 758.406 368.305 758.438 368.351Z" fill="white"/>
<path d="M548.089 73.2292C546.829 72.3401 545.45 71.413 543.907 71.4501C540.174 71.5398 538.162 77.0083 534.432 76.816C532.054 76.6934 530.476 74.2792 528.261 73.4038C525.378 72.2642 521.71 74.493 521.395 77.575L521.765 77.2364C532.972 79.9664 544.601 80.5032 556.011 78.8174C553.37 76.9546 550.73 75.0919 548.089 73.2292Z" fill="#F0F0F0"/>
<path d="M720.052 48.508C718.791 47.6189 717.412 46.6918 715.87 46.7289C712.137 46.8186 710.124 52.2871 706.395 52.0948C704.017 51.9722 702.438 49.558 700.224 48.6826C697.341 47.543 693.673 49.7718 693.358 52.8538L693.728 52.5152C704.935 55.2452 716.564 55.7821 727.974 54.0962C725.333 52.2334 722.693 50.3707 720.052 48.508Z" fill="#F0F0F0"/>
<path d="M624.115 149.202C622.854 148.313 621.475 147.386 619.933 147.423C616.2 147.513 614.187 152.981 610.458 152.789C608.08 152.666 606.501 150.252 604.287 149.377C601.404 148.237 597.735 150.466 597.421 153.548L597.791 153.209C608.997 155.939 620.626 156.476 632.037 154.79C629.396 152.928 626.755 151.065 624.115 149.202Z" fill="#F0F0F0"/>
<path d="M638.766 253.127C639.637 253.036 640.478 252.755 641.229 252.305C641.98 251.854 642.623 251.245 643.113 250.519C643.602 249.793 643.927 248.969 644.064 248.104C644.2 247.239 644.145 246.355 643.903 245.514L661.302 233.249L651 229.215L636.057 241.481C634.669 241.981 633.514 242.973 632.81 244.268C632.105 245.563 631.901 247.071 632.235 248.506C632.569 249.942 633.418 251.205 634.622 252.057C635.826 252.908 637.3 253.289 638.766 253.127Z" fill="#FFB6B6"/>
<path d="M756.086 261.093C756.48 260.311 756.697 259.452 756.724 258.577C756.75 257.702 756.584 256.832 756.237 256.028C755.89 255.225 755.371 254.506 754.717 253.925C754.062 253.343 753.288 252.912 752.448 252.661L751.515 231.403L742.553 237.89L744.814 257.082C744.487 258.519 744.698 260.026 745.408 261.318C746.118 262.61 747.278 263.596 748.667 264.09C750.057 264.585 751.579 264.553 752.946 264C754.314 263.448 755.431 262.413 756.086 261.093Z" fill="#FFB6B6"/>
<path d="M727.339 390.918H718.381L714.12 356.39L727.341 356.39L727.339 390.918Z" fill="#FFB6B6"/>
<path d="M729.624 399.596L700.739 399.595V399.229C700.74 396.25 701.924 393.392 704.033 391.286C706.141 389.179 709 387.995 711.982 387.995H711.983L717.259 383.995L727.103 387.995L729.624 387.996L729.624 399.596Z" fill="#2F2E41"/>
<path d="M670.457 390.681L661.591 389.4L662.315 354.617L675.4 356.508L670.457 390.681Z" fill="#FFB6B6"/>
<path d="M671.476 399.595L642.889 395.466L642.941 395.105C643.368 392.156 644.949 389.497 647.337 387.713C649.725 385.93 652.725 385.167 655.676 385.593L655.677 385.593L661.471 382.388L670.641 387.754L673.137 388.115L671.476 399.595Z" fill="#2F2E41"/>
<path d="M740.804 257.838C735.912 256.616 731.019 255.393 726.127 254.171C718.328 252.223 710.53 250.275 702.732 248.326L697.361 246.985C697.217 246.947 697.066 246.946 696.921 246.981C696.799 247.004 696.684 247.053 696.583 247.125C696.482 247.198 696.399 247.292 696.339 247.4C695.134 249.407 693.929 251.414 692.724 253.421L684.196 267.625C680.874 273.157 677.552 278.69 674.23 284.223L666.301 297.429C665.594 298.606 664.888 299.782 664.181 300.959C663.886 301.352 663.693 301.813 663.619 302.299C663.377 305.011 663.201 307.731 662.992 310.446C662.57 315.925 662.149 321.404 661.727 326.883L660.237 346.242C659.801 351.897 659.366 357.551 658.931 363.206C658.699 366.22 658.467 369.233 658.235 372.246L658.202 372.669C658.204 372.867 658.27 373.058 658.39 373.215C658.51 373.372 658.677 373.487 658.867 373.541L673.102 378.283L675.158 378.968C675.39 379.031 675.636 378.999 675.845 378.881C676.053 378.763 676.207 378.567 676.271 378.336C677.206 372.732 678.141 367.129 679.075 361.525C680.579 352.508 682.083 343.492 683.587 334.475C683.822 333.064 684.058 331.652 684.293 330.241C684.454 329.535 684.573 328.82 684.651 328.1C684.939 327.758 685.176 327.376 685.354 326.967C686.228 325.277 686.423 323.317 685.9 321.488L685.828 321.26C685.82 321.228 685.812 321.205 685.804 321.179C685.87 320.782 685.937 320.386 686.003 319.989C686.198 318.82 686.393 317.652 686.588 316.483C686.744 315.547 686.9 314.612 687.056 313.676C687.063 313.631 687.076 313.58 687.088 313.529C687.032 313.57 686.968 313.6 686.9 313.615C686.935 313.607 686.979 313.531 687.006 313.509C687.039 313.483 687.07 313.451 687.102 313.424C687.108 313.396 687.111 313.367 687.112 313.338C687.103 313.167 687.195 313.229 687.196 313.34C687.788 312.824 688.321 312.195 688.871 311.645C691.682 308.837 694.493 306.028 697.303 303.219C702.371 298.155 707.439 293.091 712.507 288.027V366.764C712.507 370.482 712.385 374.223 712.507 377.939C712.508 377.991 712.507 378.044 712.507 378.096C712.51 378.335 712.606 378.563 712.775 378.732C712.944 378.9 713.173 378.997 713.412 379H729.703C729.941 378.995 730.168 378.897 730.336 378.729C730.505 378.561 730.602 378.334 730.608 378.096C730.808 375.9 731.007 373.705 731.207 371.51C731.663 366.501 732.118 361.492 732.574 356.483C733.07 351.025 733.567 345.568 734.063 340.111L735.029 329.492C735.053 329.234 735.095 328.964 735.105 328.701C735.141 328.613 735.18 328.515 735.202 328.468C735.351 328.148 735.501 327.827 735.65 327.507C736.436 325.823 737.014 324.153 736.793 322.256C736.734 321.717 736.622 321.185 736.457 320.668C736.367 320.393 736.259 320.124 736.143 319.859C736.082 319.719 736.019 319.574 735.946 319.44C735.945 319.428 735.946 319.417 735.947 319.406C736.2 318.048 736.203 316.591 736.328 315.217C736.555 312.718 736.783 310.22 737.01 307.722L738.38 292.666L738.884 287.119L740.262 271.97C740.643 267.784 741.024 263.598 741.405 259.411C741.426 259.177 741.447 258.944 741.469 258.71C741.468 258.512 741.403 258.32 741.283 258.162C741.163 258.005 740.995 257.891 740.804 257.838Z" fill="#2F2E41"/>
<path d="M687.088 313.529C687.12 313.509 687.146 313.481 687.165 313.448C687.184 313.415 687.195 313.378 687.196 313.34C687.165 313.368 687.134 313.397 687.102 313.424C687.097 313.459 687.096 313.493 687.088 313.529Z" fill="#2F2E41"/>
<path d="M729.703 155.604L718.842 144.751V139.324L697.12 144.751V155.604C697.12 155.604 680.829 188.164 686.26 204.444C689.449 214.005 690.765 229.183 691.308 240.081C691.36 241.118 692.745 242.306 692.783 243.256C692.817 244.094 689.138 246.116 689.163 246.874C689.321 251.614 691.69 253.283 691.69 253.283L740.564 258.71C740.224 254.741 741.159 253.784 741.053 249.889C741.018 248.604 738.045 244.532 738.037 243.256C738.029 242.056 739.823 240.675 739.839 239.482C739.85 238.713 739.865 237.945 739.886 237.179C740.247 223.934 742.154 211.173 745.994 199.017L729.703 155.604Z" fill="#25929B"/>
<path d="M741.363 249.602L740.264 208.143L718.086 168.251C716.963 166.226 716.689 163.838 717.327 161.612C717.964 159.386 719.46 157.504 721.485 156.379C723.511 155.255 725.9 154.98 728.128 155.615C730.356 156.251 732.241 157.744 733.368 159.767L757.161 202.564L757.156 202.651L755.836 227.595L754.036 237.201L755.099 240.126L754.614 248.971L741.363 249.602Z" fill="#25929B"/>
<path d="M654.352 244.689L640.998 236.058L673.363 207.576L690.443 165.25C690.923 164.06 691.66 162.99 692.601 162.117C693.542 161.243 694.664 160.588 695.887 160.197C697.111 159.806 698.405 159.69 699.679 159.855C700.952 160.021 702.174 160.466 703.256 161.157C704.973 162.255 706.253 163.917 706.874 165.858C707.494 167.798 707.417 169.894 706.656 171.784L688.328 217.203L679.717 222.38L676.469 226.82L673.698 226.686L672.792 229.787L667.611 232.055L654.352 244.689Z" fill="#25929B"/>
<path d="M724.272 115.283C724.272 118.987 723.173 122.607 721.115 125.686C719.056 128.765 716.129 131.165 712.706 132.582C709.282 133.999 705.515 134.37 701.88 133.648C698.245 132.925 694.907 131.142 692.286 128.523C689.666 125.905 687.881 122.568 687.158 118.936C686.435 115.304 686.806 111.539 688.225 108.118C689.643 104.697 692.044 101.772 695.126 99.7149C698.207 97.6575 701.83 96.5594 705.535 96.5594C710.492 96.547 715.251 98.5029 718.765 101.997C722.279 105.491 724.26 110.237 724.272 115.19C724.272 115.221 724.272 115.252 724.272 115.283Z" fill="#FFB6B6"/>
<path d="M686.861 90.1335C689.055 85.4169 693.303 86.3494 697.018 87.9482C701.722 86.9054 706.196 83.7836 711.265 85.6298C716.258 92.8865 733.021 90.7515 729.455 102.565C729.45 105.396 734.785 103.749 733.854 108.385C736.68 117.307 723.652 134.205 716.173 130.647C718.023 127.259 722.248 119.565 715.84 118.802C702.054 131.62 714.417 94.3929 697.096 105.219C691.36 110.464 683.508 95.3799 686.861 90.1335Z" fill="#2F2E41"/>
<path d="M814.282 401H423.718C423.528 401 423.346 400.924 423.212 400.789C423.077 400.655 423.002 400.472 423.002 400.282C423.002 400.092 423.077 399.91 423.212 399.775C423.346 399.641 423.528 399.565 423.718 399.564H814.282C814.472 399.565 814.654 399.641 814.788 399.775C814.922 399.91 814.998 400.092 814.998 400.282C814.998 400.472 814.922 400.655 814.788 400.789C814.654 400.924 814.472 401 814.282 401Z" fill="#CACACA"/>
<path d="M717.805 125.061C718.051 124.499 718.127 123.877 718.022 123.272C717.918 122.668 717.638 122.107 717.218 121.66C716.896 121.328 716.525 121.049 716.118 120.832L715.959 120.79C715.505 120.672 715.024 120.704 714.59 120.884C714.156 121.063 713.792 121.379 713.553 121.783L713.47 121.925C713.3 122.213 713.2 122.537 713.177 122.871C713.154 123.204 713.208 123.539 713.337 123.847L713.652 124.605L711.652 127.902C711.566 128.045 711.537 128.215 711.573 128.377C711.608 128.54 711.704 128.683 711.842 128.777L712.282 129.078C712.354 129.127 712.434 129.161 712.519 129.179C712.604 129.196 712.692 129.196 712.777 129.179C712.862 129.162 712.943 129.129 713.015 129.08C713.087 129.032 713.148 128.969 713.195 128.897L714.968 126.186C715.148 126.264 715.338 126.317 715.533 126.343C716 126.407 716.475 126.316 716.885 126.084C717.295 125.853 717.618 125.493 717.805 125.061Z" fill="white"/>
<path d="M714.671 124.656C714.565 124.59 714.489 124.484 714.461 124.362C714.433 124.24 714.454 124.112 714.52 124.006L715.221 122.884C715.254 122.832 715.297 122.786 715.347 122.75C715.398 122.713 715.455 122.688 715.516 122.673C715.576 122.659 715.639 122.657 715.7 122.668C715.761 122.678 715.82 122.7 715.873 122.733C715.926 122.766 715.971 122.809 716.007 122.859C716.044 122.91 716.069 122.967 716.083 123.028C716.097 123.088 716.099 123.151 716.088 123.212C716.078 123.273 716.056 123.332 716.023 123.385L715.322 124.506C715.255 124.612 715.15 124.688 715.027 124.716C714.905 124.744 714.777 124.723 714.671 124.656Z" fill="#2F2E41"/>
<path d="M648.767 255.273L640.008 259.757C639.482 260.026 638.872 260.075 638.31 259.894C637.748 259.713 637.282 259.316 637.012 258.792L625.654 236.634C625.385 236.109 625.336 235.499 625.517 234.938C625.698 234.377 626.095 233.91 626.62 233.641L635.38 229.157C635.905 228.888 636.516 228.839 637.077 229.02C637.639 229.201 638.106 229.598 638.375 230.122L649.734 252.28C650.002 252.805 650.051 253.415 649.87 253.976C649.689 254.537 649.292 255.004 648.767 255.273Z" fill="#3F3D56"/>
<path d="M635.597 229.821L634.622 230.32C634.535 230.365 634.469 230.442 634.439 230.535C634.409 230.628 634.417 230.729 634.462 230.816C634.552 230.994 634.569 231.201 634.508 231.391C634.446 231.581 634.312 231.739 634.134 231.83L629.365 234.272C629.187 234.363 628.981 234.379 628.79 234.318C628.6 234.257 628.442 234.122 628.351 233.945C628.306 233.858 628.229 233.792 628.136 233.762C628.042 233.732 627.941 233.74 627.854 233.785L626.994 234.225C626.596 234.429 626.296 234.783 626.158 235.208C626.021 235.634 626.058 236.097 626.262 236.495L637.539 258.495C637.744 258.893 638.098 259.194 638.524 259.331C638.95 259.468 639.413 259.431 639.811 259.228L648.413 254.824C648.811 254.62 649.112 254.266 649.249 253.84C649.387 253.415 649.35 252.952 649.146 252.554L637.869 230.554C637.664 230.156 637.31 229.855 636.884 229.718C636.458 229.581 635.995 229.618 635.597 229.821Z" fill="white"/>
<path d="M632.665 231.879L629.975 233.256C629.95 233.269 629.92 233.272 629.893 233.263C629.865 233.254 629.843 233.235 629.83 233.21C629.817 233.184 629.814 233.155 629.823 233.127C629.832 233.1 629.851 233.077 629.877 233.064L632.567 231.687C632.58 231.681 632.593 231.677 632.608 231.675C632.622 231.674 632.636 231.676 632.65 231.68C632.663 231.684 632.676 231.691 632.687 231.701C632.697 231.71 632.706 231.721 632.713 231.734C632.719 231.746 632.723 231.76 632.724 231.774C632.726 231.789 632.724 231.803 632.719 231.816C632.715 231.83 632.708 231.842 632.699 231.853C632.689 231.864 632.678 231.873 632.665 231.879Z" fill="white"/>
<path d="M633.039 231.653C633.087 231.653 633.125 231.614 633.125 231.567C633.125 231.519 633.087 231.48 633.039 231.48C632.991 231.48 632.953 231.519 632.953 231.567C632.953 231.614 632.991 231.653 633.039 231.653Z" fill="white"/>
<path d="M641.916 236.841C641.87 236.864 641.817 236.868 641.768 236.853C641.719 236.837 641.678 236.802 641.655 236.756L639.922 233.377C639.911 233.354 639.903 233.329 639.901 233.304C639.899 233.278 639.902 233.252 639.91 233.228C639.918 233.204 639.93 233.181 639.947 233.162C639.963 233.142 639.983 233.126 640.006 233.114C640.029 233.103 640.054 233.096 640.079 233.094C640.105 233.092 640.131 233.095 640.155 233.103C640.179 233.11 640.202 233.123 640.221 233.14C640.241 233.156 640.257 233.177 640.268 233.2L642.001 236.579C642.024 236.625 642.028 236.678 642.013 236.727C641.997 236.776 641.962 236.817 641.916 236.841Z" fill="#3F3D56"/>
<path d="M627.838 240.896C627.792 240.919 627.739 240.924 627.69 240.908C627.641 240.892 627.6 240.857 627.577 240.812L627.183 240.043C627.159 239.998 627.155 239.944 627.171 239.895C627.187 239.846 627.221 239.806 627.267 239.782C627.313 239.759 627.367 239.754 627.416 239.77C627.465 239.786 627.505 239.821 627.529 239.866L627.923 240.635C627.946 240.68 627.95 240.734 627.935 240.783C627.919 240.832 627.884 240.872 627.838 240.896Z" fill="#3F3D56"/>
<path d="M628.567 242.317C628.521 242.34 628.468 242.345 628.419 242.329C628.369 242.313 628.329 242.278 628.305 242.233L627.911 241.464C627.9 241.442 627.893 241.417 627.89 241.391C627.888 241.366 627.891 241.34 627.899 241.316C627.907 241.292 627.919 241.269 627.936 241.25C627.952 241.23 627.973 241.214 627.995 241.203C628.018 241.191 628.043 241.184 628.069 241.182C628.094 241.18 628.12 241.183 628.144 241.191C628.168 241.199 628.191 241.211 628.21 241.228C628.23 241.244 628.246 241.265 628.257 241.287L628.651 242.056C628.675 242.101 628.679 242.155 628.663 242.204C628.647 242.253 628.613 242.293 628.567 242.317Z" fill="#3F3D56"/>
</g>
<defs>
<clipPath id="clip0_40_809">
<rect width="392" height="373" fill="white" transform="translate(423 28)"/>
</clipPath>
</defs>
</svg>
