<svg width="1239" height="430" viewBox="0 0 1239 430" fill="none" xmlns="http://www.w3.org/2000/svg">
<rect width="1239" height="430" fill="white"/>
<g clip-path="url(#clip0_40_344)">
<path d="M378.698 290.403C376.046 290.689 373.151 291.117 370.071 291.746C357.022 294.406 356.745 303.266 356.862 305.296L356.77 305.237C355.461 307.343 354.639 309.474 354.135 311.48L353.539 284.32C353.925 283.515 354.278 282.6 354.571 281.669C355.545 284.681 357.148 287.517 358.532 287.333C360.328 287.089 361.109 281.803 360.773 278.053C363.055 280.99 366.899 284.136 368.351 283.163C369.509 282.391 368.821 279.202 367.562 276.299C370.197 277.885 373.117 278.926 374.024 277.919C375.257 276.543 372.295 271.853 369.567 269.235C373.218 269.579 377.867 268.991 378.177 267.33C378.429 265.963 375.66 264.234 372.698 263.118C375.668 262.338 378.454 260.97 378.362 259.62C378.253 258.017 374.124 256.935 370.558 256.775C373.243 254.678 375.71 251.766 374.955 250.457C374.258 249.249 371.036 249.719 368.057 250.785C369.819 248.268 371.061 245.423 370.113 244.45C368.938 243.242 364.767 245.331 361.914 247.638C362.468 244.039 362.191 239.5 360.572 239.089C359.22 238.745 357.307 241.388 355.998 244.265C355.419 241.245 354.244 238.375 352.893 238.375C350.963 238.375 349.402 244.19 349.402 247.982C349.402 248.2 349.402 248.402 349.419 248.595C349.226 248.368 348.999 248.133 348.748 247.89C346.029 245.247 340.767 242.319 339.416 243.703C338.476 244.677 339.71 247.512 341.472 250.038C338.493 248.972 335.262 248.503 334.574 249.711C333.642 251.33 337.628 255.383 340.868 257.346C340.675 257.321 340.465 257.304 340.247 257.287C336.462 257.027 330.554 258.193 330.42 260.115C330.328 261.465 333.105 262.833 336.084 263.613C333.122 264.729 330.361 266.458 330.605 267.825C330.907 269.487 335.556 270.074 339.214 269.73C336.487 272.348 333.525 277.038 334.758 278.414C335.665 279.421 338.585 278.38 341.22 276.794C339.953 279.697 339.273 282.886 340.431 283.658C341.959 284.681 346.163 281.115 348.37 278.053C348.143 281.803 349.041 286.955 350.82 287.156C351.567 287.24 352.356 286.443 353.069 285.227L351.055 314.416C350.585 317.814 353.598 320.038 353.867 321.431L354.303 341.198C353.808 339.788 353.153 338.345 352.255 336.919L352.163 336.978C352.28 334.947 352.004 326.087 338.954 323.427C335.875 322.798 332.979 322.37 330.328 322.085C327.197 321.749 325.972 326.037 328.8 327.421C332.895 329.426 336.747 331.952 338.761 334.939C343.897 342.582 350.988 338.169 352.004 337.481C353.128 339.36 353.867 341.248 354.336 343.044L354.571 353.54C354.513 353.792 354.479 353.926 354.471 353.934L354.58 353.968L355.142 379.374L360.328 379.332L358.474 353.364C358.784 351.963 359.741 347.189 358.474 342.238L356.619 321.833L354.202 313.812C354.555 311.329 355.369 308.543 357.03 305.783C358.037 306.471 365.137 310.892 370.272 303.24C372.278 300.254 376.138 297.728 380.233 295.723C383.061 294.338 381.845 290.051 378.706 290.387L378.698 290.403ZM355.008 350.511L354.907 346.064C355.1 347.742 355.092 349.261 355.008 350.511Z" fill="#F2F2F2"/>
<path d="M312 380.599C312 381.152 312.445 381.597 312.999 381.597H925.001C925.555 381.597 926 381.152 926 380.599C926 380.045 925.555 379.6 925.001 379.6H312.999C312.445 379.6 312 380.045 312 380.599Z" fill="#090814"/>
<path d="M683.403 381.48C708.43 381.48 728.718 361.195 728.718 336.172C728.718 311.15 708.43 290.865 683.403 290.865C658.376 290.865 638.087 311.15 638.087 336.172C638.087 361.195 658.376 381.48 683.403 381.48Z" fill="#090814"/>
<path d="M683.403 366.377C700.087 366.377 713.613 352.854 713.613 336.172C713.613 319.49 700.087 305.967 683.403 305.967C666.718 305.967 653.192 319.49 653.192 336.172C653.192 352.854 666.718 366.377 683.403 366.377Z" fill="white"/>
<path d="M683.403 353.372C692.904 353.372 700.606 345.671 700.606 336.172C700.606 326.673 692.904 318.972 683.403 318.972C673.902 318.972 666.199 326.673 666.199 336.172C666.199 345.671 673.902 353.372 683.403 353.372Z" fill="#090814"/>
<path d="M421.58 381.48C446.607 381.48 466.895 361.195 466.895 336.172C466.895 311.15 446.607 290.865 421.58 290.865C396.553 290.865 376.264 311.15 376.264 336.172C376.264 361.195 396.553 381.48 421.58 381.48Z" fill="#090814"/>
<path d="M421.58 366.377C438.264 366.377 451.79 352.854 451.79 336.172C451.79 319.49 438.264 305.967 421.58 305.967C404.895 305.967 391.369 319.49 391.369 336.172C391.369 352.854 404.895 366.377 421.58 366.377Z" fill="white"/>
<path d="M745.393 314.626C739.493 299.75 718.866 254.3 682.127 239.257C681.842 239.139 681.548 239.064 681.246 239.022L563.417 222.149C561.479 221.872 559.666 223.198 559.356 225.136L557.291 237.889C557.149 238.762 557.333 239.659 557.811 240.406C563.795 249.686 602.145 312.688 540.734 312.688C479.323 312.688 462.397 268.748 459.712 260.987C459.46 260.257 459.452 259.469 459.678 258.73L478.291 199.789C478.618 198.74 478.442 197.666 477.905 196.81L486.087 181.616L501.075 190.098L508.837 190.191L535.33 204.034L540.726 195.225L486.087 167.973C486.087 167.973 486.179 161.664 468.557 156.63L440.864 144.044L437.507 148.239L445.899 154.952L446.738 159.986L452.612 161.664L464.361 184.317L461.004 190.811L465.083 192.8L463.916 192.531C462.229 192.145 460.509 193.018 459.821 194.604L441.309 237.025C441.023 237.671 440.553 238.225 439.958 238.611L433.362 242.864C432.749 243.259 432.262 243.838 431.985 244.517L424.45 262.783C424.215 263.353 424.147 263.949 424.206 264.528C414.816 266.307 387.215 273.992 372.051 304.306L389.674 318.57C389.674 318.57 417.3 300.698 462.951 319.308C470.89 331.658 482.462 341.903 499.178 342.868C543.243 345.418 616.252 347.935 624.643 337.867C630.786 330.492 635.058 325.894 636.912 323.956C637.567 323.277 638.456 322.882 639.396 322.849L742.153 319.568C744.646 319.493 746.299 316.959 745.384 314.643L745.393 314.626Z" fill="#25929B"/>
<path d="M461.86 182.631C469.276 182.631 475.287 176.62 475.287 169.206C475.287 161.792 469.276 155.782 461.86 155.782C454.445 155.782 448.433 161.792 448.433 169.206C448.433 176.62 454.445 182.631 461.86 182.631Z" fill="#090814"/>
<path d="M676.882 239.315C676.723 239.315 676.563 239.315 676.404 239.307L564.139 234.961C559.171 234.768 554.916 231.605 553.297 226.906L551.761 222.434C550.511 218.793 551.056 214.883 553.255 211.72C555.462 208.557 558.936 206.694 562.788 206.602L678.779 203.934C682.37 203.85 685.828 205.385 688.169 208.154C690.51 210.923 691.467 214.547 690.787 218.113L688.597 229.591C687.515 235.288 682.622 239.307 676.874 239.307L676.882 239.315Z" fill="#090814"/>
<path d="M421.58 353.372C431.081 353.372 438.783 345.671 438.783 336.172C438.783 326.673 431.081 318.972 421.58 318.972C412.079 318.972 404.377 326.673 404.377 336.172C404.377 345.671 412.079 353.372 421.58 353.372Z" fill="#090814"/>
<path d="M721.988 287.207C719.303 287.207 716.743 285.772 715.375 283.297L706.874 267.909C705.523 265.468 705.607 262.607 707.084 260.249C708.561 257.883 711.112 256.557 713.881 256.708L729.314 257.497C732.184 257.648 734.769 259.452 735.893 262.103L740.399 272.759C741.222 274.714 741.205 276.845 740.341 278.783C739.476 280.713 737.899 282.164 735.901 282.852L724.472 286.796C723.658 287.081 722.819 287.215 721.996 287.215L721.988 287.207Z" fill="#090814"/>
<path d="M526.837 389.475C526.712 389.475 526.577 389.475 526.451 389.45L523.028 389.073C521.912 388.947 520.938 388.318 520.367 387.344C519.797 386.371 519.721 385.222 520.158 384.181L537.982 341.861C538.468 340.703 539.551 339.881 540.801 339.721C542.018 339.57 543.201 340.049 543.982 340.997C544.754 341.945 544.989 343.203 544.594 344.361L530.203 387.059C529.716 388.502 528.34 389.467 526.846 389.467L526.837 389.475Z" fill="#090814"/>
<path d="M619.373 94.1474C619.373 94.1474 612.853 81.109 614.154 69.3794L592.453 80.6223L593.292 101.967L619.373 94.1474Z" fill="#DA8A8D"/>
<path d="M605.905 86.6464C616.717 86.6464 625.483 77.8826 625.483 67.072C625.483 56.2613 616.717 47.4976 605.905 47.4976C595.092 47.4976 586.327 56.2613 586.327 67.072C586.327 77.8826 595.092 86.6464 605.905 86.6464Z" fill="#DA8A8D"/>
<path d="M625.902 374.423H613.952L608.271 328.353H625.902V374.423Z" fill="#DA8A8D"/>
<path d="M584.976 374.147C584.606 374.776 584.405 376.798 584.405 377.519C584.405 379.76 586.218 381.572 588.458 381.572H625.449C626.976 381.572 628.218 380.33 628.218 378.803V377.259C628.218 377.259 630.048 372.628 626.28 366.931C626.28 366.931 621.597 371.395 614.599 364.406L612.534 360.672L597.597 371.596L589.314 372.611C587.502 372.838 585.899 372.578 584.967 374.147L584.976 374.147Z" fill="#090814"/>
<path d="M590.682 94.1474L619.373 90.2375L641.544 100.667L642.845 181.498C642.845 181.498 588.316 188.017 579.722 179.543C571.129 171.069 577.65 103.276 577.65 103.276L590.69 94.1474L590.682 94.1474Z" fill="#25929B"/>
<path d="M601.004 72.0558H595.742C595.742 72.0558 591.177 66.4344 591.79 69.8576C592.402 73.2808 589.944 76.9641 589.944 76.9641L586.26 75.7391C586.26 75.7391 578.892 44.754 601.004 43.0508C623.116 41.3475 628.034 58.5475 628.034 58.5475C628.034 58.5475 626.809 67.1475 624.35 64.6892C621.891 62.2309 608.38 61.0059 608.38 61.0059L601.012 72.0642L601.004 72.0558Z" fill="#090814"/>
<path d="M587.082 364.07L575.594 367.309L557.602 324.527L574.57 319.736L587.082 364.07Z" fill="#DA8A8D"/>
<path d="M547.624 374.927C547.439 375.632 547.8 377.629 547.993 378.333C548.597 380.49 550.838 381.74 552.995 381.136L588.592 371.084C590.061 370.673 590.917 369.138 590.506 367.669L590.086 366.184C590.086 366.184 590.59 361.234 585.412 356.77C585.412 356.77 582.122 362.341 573.487 357.509L570.483 354.471L559.079 369.037L551.392 372.267C549.713 372.972 548.094 373.165 547.624 374.927Z" fill="#090814"/>
<path d="M638.926 173.678L642.837 185.509V226.159L631.097 348.858H608.17L605.586 261.273L607.625 218.013L563.895 284.161L583.113 331.407L561.957 345.511C561.957 345.511 530.32 273.43 535.053 266.441C539.786 259.46 582.181 177.009 582.181 177.009C582.181 177.009 638.909 174.987 638.909 173.687L638.926 173.678Z" fill="#090814"/>
<path d="M650.666 126.743L656.969 137.063C656.969 137.063 665.881 172.084 656.969 172.227C648.057 172.37 630.065 154.381 630.065 154.381L632.414 144.992L638.935 147.602L637.634 126.743H650.675H650.666Z" fill="#DA8A8D"/>
<path d="M631.105 100.507C631.105 100.507 651.967 96.8321 653.922 110.483C655.878 124.134 656.969 137.072 656.969 137.072L634.361 138.943L631.105 100.507Z" fill="#25929B"/>
<path d="M807.517 290.403C804.865 290.689 801.97 291.117 798.89 291.746C785.841 294.406 785.564 303.266 785.681 305.296L785.589 305.237C784.28 307.343 783.458 309.474 782.954 311.48L782.358 284.32C782.744 283.515 783.097 282.6 783.39 281.669C784.364 284.681 785.967 287.517 787.351 287.333C789.147 287.089 789.928 281.803 789.592 278.053C791.874 280.99 795.718 284.136 797.17 283.163C798.328 282.391 797.64 279.202 796.381 276.299C799.016 277.885 801.936 278.926 802.842 277.919C804.076 276.543 801.114 271.853 798.386 269.235C802.037 269.579 806.686 268.991 806.996 267.33C807.248 265.963 804.479 264.234 801.517 263.118C804.487 262.338 807.273 260.97 807.181 259.62C807.072 258.017 802.943 256.935 799.377 256.775C802.062 254.678 804.529 251.766 803.774 250.457C803.077 249.249 799.855 249.719 796.876 250.785C798.638 248.268 799.88 245.423 798.932 244.45C797.757 243.242 793.586 245.331 790.733 247.638C791.287 244.039 791.01 239.5 789.39 239.089C788.039 238.745 786.126 241.388 784.817 244.265C784.238 241.245 783.063 238.375 781.712 238.375C779.782 238.375 778.221 244.19 778.221 247.982C778.221 248.2 778.221 248.402 778.238 248.595C778.045 248.368 777.818 248.133 777.567 247.89C774.848 245.247 769.586 242.319 768.235 243.703C767.295 244.677 768.529 247.512 770.291 250.038C767.312 248.972 764.081 248.503 763.393 249.711C762.461 251.33 766.447 255.383 769.687 257.346C769.494 257.321 769.284 257.304 769.066 257.287C765.281 257.027 759.373 258.193 759.239 260.115C759.147 261.465 761.924 262.833 764.903 263.613C761.941 264.729 759.18 266.458 759.424 267.825C759.726 269.487 764.375 270.074 768.034 269.73C765.306 272.348 762.344 277.038 763.577 278.414C764.484 279.421 767.404 278.38 770.039 276.794C768.772 279.697 768.092 282.886 769.25 283.658C770.778 284.681 774.982 281.115 777.189 278.053C776.962 281.803 777.86 286.955 779.639 287.156C780.386 287.24 781.175 286.443 781.888 285.227L779.874 314.416C779.404 317.814 782.417 320.038 782.685 321.431L783.122 341.198C782.627 339.788 781.972 338.345 781.074 336.919L780.982 336.978C781.099 334.947 780.823 326.087 767.773 323.427C764.694 322.798 761.798 322.37 759.147 322.085C756.016 321.749 754.791 326.037 757.619 327.421C761.714 329.426 765.566 331.952 767.58 334.939C772.716 342.582 779.807 338.169 780.823 337.481C781.947 339.36 782.685 341.248 783.155 343.044L783.39 353.54C783.332 353.792 783.298 353.926 783.29 353.934L783.399 353.968L783.961 379.374L789.147 379.332L787.293 353.364C787.603 351.963 788.56 347.189 787.293 342.238L785.438 321.833L783.021 313.812C783.374 311.329 784.188 308.543 785.849 305.783C786.856 306.471 793.956 310.892 799.091 303.24C801.097 300.254 804.957 297.728 809.052 295.723C811.88 294.338 810.664 290.051 807.525 290.387L807.517 290.403ZM783.827 350.511L783.726 346.064C783.919 347.742 783.911 349.261 783.827 350.511Z" fill="#F2F2F2"/>
<path d="M747.121 376.219L756.142 374.272L752.912 338.58L739.611 341.45L747.121 376.219Z" fill="#DA8A8D"/>
<path d="M777.969 369.347C778.355 369.758 778.834 371.252 778.951 371.806C779.32 373.492 778.246 375.162 776.551 375.522L748.632 381.555C747.482 381.807 746.341 381.068 746.089 379.919L745.837 378.753C745.837 378.753 743.697 375.556 745.611 370.639C745.611 370.639 749.874 373.249 754.011 366.822L754.959 363.667L768.017 369.473L774.428 368.894C775.829 368.768 777.004 368.307 777.961 369.347L777.969 369.347Z" fill="#090814"/>
<path d="M763.25 373.492L770.769 368.156L753.759 336.609L742.657 344.479L763.25 373.492Z" fill="#DA8A8D"/>
<path d="M788.904 355.034C789.416 355.26 790.448 356.443 790.767 356.905C791.765 358.314 791.438 360.269 790.028 361.268L766.733 377.796C765.768 378.476 764.442 378.249 763.754 377.293L763.066 376.32C763.066 376.32 759.843 374.222 759.667 368.945C759.667 368.945 764.61 369.666 765.894 362.132L765.524 358.86L779.815 359.061L785.488 356.007C786.73 355.336 787.628 354.455 788.912 355.034H788.904Z" fill="#090814"/>
<path d="M654.887 197.003C654.887 197.003 640.865 216.066 668.91 237.503L726.184 219.204L705.725 176.548L687.607 166.614L654.879 196.995L654.887 197.003Z" fill="#090814"/>
<path d="M726.192 219.212L748.397 262.447L762.428 352.441L744.897 353.607L727.359 268.295L696.385 222.132L718.01 212.198" fill="#090814"/>
<path d="M668.918 223.928V237.512L708.662 281.149C708.662 281.149 708.662 313.871 723.859 329.066L741.39 355.948L756.587 347.768L734.383 269.47L694.639 218.046L668.927 223.928L668.918 223.928Z" fill="#090814"/>
<path d="M697.157 89.2725L689.671 117.808L661.131 112.195C661.131 112.195 681.044 91.6637 678.242 82.3086L697.165 89.2725H697.157Z" fill="#DA8A8D"/>
<path d="M675.347 93.5769L692.877 101.757C692.877 101.757 701.898 107.27 702.066 110.945C702.234 114.62 701.059 132.147 701.059 132.147C701.059 132.147 708.074 139.161 703.4 153.181L705.741 176.556L653.142 204.605L657.816 155.522L655.475 109.946L675.347 93.5853V93.5769Z" fill="#090814"/>
<path d="M659.612 226.579C661.668 231.286 665.763 234.046 668.759 232.737C671.755 231.429 672.518 226.554 670.471 221.847C669.674 219.951 668.44 218.281 666.862 216.964L657.908 197.121L648.686 201.517L658.487 220.614C658.378 222.661 658.764 224.708 659.612 226.579Z" fill="#DA8A8D"/>
<path d="M668.918 112.866C668.918 112.866 656.062 104.685 651.388 114.032C646.714 123.379 636.191 171.296 636.191 171.296L651.388 216.871L665.411 211.032L653.133 161.982L668.91 112.866L668.918 112.866Z" fill="#090814"/>
<path d="M734.819 219.221C738.461 222.845 743.286 223.902 745.594 221.578C747.902 219.254 746.811 214.447 743.169 210.822C741.734 209.354 739.963 208.255 738.016 207.609L722.382 192.456L715.426 199.94L731.571 214.077C732.226 216.024 733.342 217.786 734.819 219.212L734.819 219.221Z" fill="#DA8A8D"/>
<path d="M701.571 110.072C701.571 110.072 679.156 109.157 678.25 119.57C677.352 129.982 692.675 176.447 692.675 176.447L723.599 213.222L734.483 202.625L705.003 161.546L701.579 110.072L701.571 110.072Z" fill="#090814"/>
<path d="M803.447 387.017C807.358 387.017 810.529 383.847 810.529 379.936C810.529 376.025 807.358 372.854 803.447 372.854C799.535 372.854 796.364 376.025 796.364 379.936C796.364 383.847 799.535 387.017 803.447 387.017Z" fill="#090814"/>
<path d="M812.887 398C816.799 398 819.97 394.829 819.97 390.919C819.97 387.008 816.799 383.837 812.887 383.837C808.976 383.837 805.805 387.008 805.805 390.919C805.805 394.829 808.976 398 812.887 398Z" fill="#090814"/>
<path d="M883.697 398C887.609 398 890.78 394.829 890.78 390.919C890.78 387.008 887.609 383.837 883.697 383.837C879.786 383.837 876.615 387.008 876.615 390.919C876.615 394.829 879.786 398 883.697 398Z" fill="#090814"/>
<path d="M823.26 284.95V208.053C823.26 199.445 830.46 197.314 839.07 197.314C843.291 197.314 845.338 196.827 848.301 199.831C851.263 202.835 854.553 204.085 854.485 208.305L853.243 283.759L823.251 284.942L823.26 284.95ZM839.909 202.356C832.222 202.356 824.938 200.376 824.938 208.062V283.213L851.599 282.156L852.815 208.288C852.874 204.521 846.748 205.041 844.113 202.356C841.47 199.671 843.685 202.356 839.917 202.356L839.909 202.356Z" fill="#090814"/>
<path d="M802.18 284.019L801.105 368.03C801.089 369.112 801.349 370.178 801.852 371.134L809.791 386.128C810.957 388.334 813.29 389.669 815.783 389.559L885.485 386.489C889.051 386.329 891.812 383.309 891.653 379.743L887.28 283.817C887.121 280.369 884.285 277.65 880.827 277.65H808.633C805.1 277.65 802.221 280.495 802.171 284.027L802.18 284.019Z" fill="#CACACA"/>
<path d="M829.654 321.934L827.976 321.85L828.597 309.416C828.932 302.72 834.446 297.351 841.151 297.191L870.833 296.503C876.824 296.402 881.792 300.942 882.119 306.932L882.749 318.301L881.071 318.393L880.441 307.024C880.156 301.948 875.918 298.055 870.866 298.181L841.185 298.869C835.352 299.003 830.561 303.677 830.267 309.5L829.646 321.934L829.654 321.934Z" fill="#090814"/>
<path d="M828.471 382.159L826.801 381.991L830.418 346.702C831.089 340.174 836.535 335.031 843.089 334.738L872.041 333.437C875.691 333.269 879.157 334.561 881.809 337.07C884.461 339.579 885.938 342.968 885.98 346.618L886.307 377.343L884.629 377.36L884.301 346.635C884.268 343.447 882.975 340.485 880.659 338.287C878.343 336.088 875.297 334.964 872.125 335.107L843.173 336.407C837.442 336.667 832.684 341.156 832.096 346.861L828.479 382.151L828.471 382.159Z" fill="#090814"/>
<path d="M815.497 379.718L813.819 379.693L814.876 299.046C814.952 293.533 819.324 289.086 824.837 288.919L881.901 287.24L881.952 288.919L824.888 290.597C820.272 290.731 816.613 294.448 816.555 299.062L815.497 379.709V379.718Z" fill="#090814"/>
<path d="M815.648 368.231H814.482V294.783C814.482 292.459 812.594 290.563 810.261 290.563H803.74V288.885H810.261C813.341 288.885 815.875 291.259 816.135 294.263C816.152 294.431 816.16 294.607 816.16 294.783V329.561L815.648 368.231Z" fill="#090814"/>
<path d="M709.342 74.0192C709.342 84.7755 700.622 93.4929 689.864 93.4929C679.106 93.4929 670.387 84.7755 670.387 74.0192C670.387 63.2629 679.106 54.5454 689.864 54.5454C700.622 54.5454 709.342 63.2629 709.342 74.0192Z" fill="#DA8A8D"/>
<path d="M688.312 47.8416C688.874 48.1688 689.629 47.6738 689.814 47.0445C689.999 46.4152 689.78 45.7524 689.579 45.1315C689.226 44.0911 688.882 43.0591 688.53 42.0187C687.783 39.8121 686.994 37.53 685.383 35.8519C682.949 33.3181 679.072 32.672 675.59 33.1419C671.117 33.746 666.703 36.1623 664.622 40.1729C662.541 44.1834 663.43 49.7713 667.19 52.2716C661.827 58.4133 659.964 65.2597 660.258 73.3982C660.552 81.5452 669.43 89.0377 675.221 94.7766C676.513 93.9963 677.688 90.3214 676.974 88.9873C676.261 87.6533 677.285 86.1095 676.404 84.8761C675.523 83.6511 674.784 85.6061 675.674 84.3811C676.236 83.6092 674.046 81.8388 674.877 81.3774C678.913 79.1456 680.256 74.1114 682.79 70.2603C685.853 65.6121 691.081 62.4658 696.628 61.9456C699.683 61.6603 702.905 62.1805 705.406 63.9508C707.906 65.7212 709.526 68.8843 708.947 71.8964C710.449 70.3694 711.196 68.1376 710.919 66.0148C710.634 63.8921 709.333 61.9288 707.478 60.8464C708.603 57.1296 707.638 52.8505 705.028 49.9811C702.418 47.1032 691.836 47.5983 688.026 48.3534L688.32 47.85L688.312 47.8416Z" fill="#090814"/>
<path d="M687.724 62.0547C682.681 62.6001 679.039 66.9714 675.959 71.0071C674.188 73.3312 672.325 75.8986 672.376 78.8268C672.418 81.7801 674.398 84.3224 675.347 87.1163C676.891 91.6974 675.388 97.1427 671.713 100.281C675.347 100.969 679.274 98.2502 679.895 94.6004C680.625 90.3634 677.411 86.2689 677.789 81.9815C678.124 78.2059 681.103 75.3029 683.629 72.4754C686.163 69.6479 688.538 65.9058 687.372 62.298L687.724 62.0547Z" fill="#090814"/>
<path d="M584.794 191.019L555.355 165.937C554.656 165.342 554.601 164.254 555.232 163.514L602.91 107.573C603.542 106.832 604.624 106.715 605.323 107.31L634.762 132.392C635.461 132.988 635.517 134.075 634.886 134.816L587.207 190.757C586.576 191.497 585.494 191.615 584.794 191.019Z" fill="white"/>
<path d="M584.794 191.019L555.355 165.937C554.656 165.342 554.601 164.254 555.232 163.514L602.91 107.573C603.542 106.832 604.624 106.715 605.323 107.31L634.762 132.392C635.461 132.988 635.517 134.075 634.886 134.816L587.207 190.757C586.576 191.497 585.494 191.615 584.794 191.019Z" stroke="#2F2E41" stroke-miterlimit="10"/>
<path d="M570.609 110.542L558.76 112.992C558.76 112.992 527.089 130.418 533.081 137.021C539.064 143.624 564.5 144.472 564.5 144.472L569.753 136.342L563.392 133.363L579.521 120.065L570.609 110.542Z" fill="#DA8A8D"/>
<path d="M603.135 106.892C603.135 106.892 591.563 89.1468 580.259 97.0504C568.956 104.954 558.768 112.992 558.768 112.992L572.85 130.771L603.144 106.892H603.135Z" fill="#25929B"/>
<path d="M584.603 144.288C585.248 141.099 580.604 137.469 574.231 136.18C567.858 134.89 562.168 136.43 561.523 139.618C560.878 142.806 565.521 146.436 571.894 147.726C578.268 149.015 583.957 147.476 584.603 144.288Z" fill="#DA8A8D"/>
<path d="M635.637 153.238C637.524 150.589 634.761 145.383 629.465 141.612C624.168 137.84 618.345 136.93 616.457 139.58C614.57 142.23 617.333 147.435 622.629 151.207C627.926 154.978 633.749 155.888 635.637 153.238Z" fill="#DA8A8D"/>
</g>
<defs>
<clipPath id="clip0_40_344">
<rect width="614" height="365" fill="white" transform="translate(312 33)"/>
</clipPath>
</defs>
</svg>
