<svg width="1239" height="430" viewBox="0 0 1239 430" fill="none" xmlns="http://www.w3.org/2000/svg">
<rect width="1239" height="430" fill="white"/>
<g clip-path="url(#clip0_2_169)">
<path d="M728.901 168.26C727.425 166.802 725.672 165.646 723.741 164.858C721.81 164.071 719.74 163.667 717.65 163.671V154.545C717.652 152.456 717.235 150.388 716.424 148.458C715.613 146.528 714.424 144.774 712.924 143.297C711.425 141.82 709.644 140.649 707.684 139.85C705.725 139.051 703.624 138.641 701.503 138.642V131.765H705.346C706.99 131.765 708.567 131.121 709.729 129.976C710.892 128.832 711.545 127.279 711.545 125.66C711.545 124.041 710.892 122.488 709.729 121.343C708.567 120.198 706.99 119.555 705.346 119.555H701.503V114.784H699.603V119.555H695.016C693.372 119.555 691.795 120.198 690.633 121.343C689.47 122.488 688.817 124.041 688.817 125.66C688.817 127.279 689.47 128.832 690.633 129.976C691.795 131.121 693.372 131.765 695.016 131.765H699.603V138.642H687.764C686.638 138.642 685.522 138.861 684.482 139.285C683.442 139.709 682.496 140.331 681.7 141.115C680.904 141.9 680.272 142.831 679.841 143.855C679.411 144.88 679.189 145.978 679.189 147.087V163.671H676.451C672.227 163.671 668.043 164.49 664.14 166.082C660.237 167.674 656.691 170.008 653.703 172.95C650.716 175.892 648.346 179.385 646.73 183.229C645.113 187.073 644.281 191.193 644.282 195.354V217.518C638.436 219.177 633.146 222.344 628.96 226.692C624.775 231.041 621.845 236.412 620.475 242.25H606.373V228.217H597.824V222.316H603.072C604.716 222.316 606.293 221.673 607.455 220.528C608.618 219.383 609.271 217.831 609.271 216.212C609.271 214.593 608.618 213.04 607.455 211.895C606.293 210.75 604.716 210.107 603.072 210.107H597.824V206.233H595.925V210.107H592.741C591.098 210.107 589.521 210.75 588.359 211.895C587.196 213.04 586.543 214.593 586.543 216.212C586.543 217.831 587.196 219.383 588.359 220.528C589.521 221.673 591.098 222.316 592.741 222.316H595.925V228.242C593.742 228.367 591.69 229.308 590.189 230.874C588.688 232.44 587.852 234.511 587.851 236.664V242.3C579.638 242.747 571.912 246.276 566.259 252.16C560.606 258.043 557.455 265.836 557.455 273.937V403.622H644.282V403.623H733.56V179.34C733.564 177.281 733.154 175.243 732.355 173.341C731.555 171.44 730.381 169.713 728.901 168.26Z" fill="#F2F2F2"/>
<path d="M549.343 163.668V154.547C549.343 152.458 548.926 150.39 548.114 148.461C547.303 146.531 546.113 144.778 544.614 143.302C543.114 141.825 541.334 140.653 539.375 139.854C537.416 139.055 535.316 138.644 533.195 138.644V129.73H536.955C538.599 129.73 540.176 129.086 541.338 127.942C542.501 126.797 543.154 125.244 543.154 123.625C543.154 122.006 542.501 120.453 541.338 119.308C540.176 118.164 538.599 117.52 536.955 117.52H533.195V114.788H531.296V117.52H526.625C524.981 117.52 523.404 118.164 522.242 119.308C521.079 120.453 520.426 122.006 520.426 123.625C520.426 125.244 521.079 126.797 522.242 127.942C523.404 129.086 524.981 129.73 526.625 129.73H531.296V138.644H519.45C518.324 138.644 517.209 138.862 516.168 139.287C515.127 139.711 514.182 140.333 513.386 141.118C512.589 141.902 511.957 142.833 511.526 143.858C511.095 144.883 510.873 145.981 510.873 147.091V163.668H508.14C499.607 163.668 491.423 167.006 485.389 172.949C479.355 178.891 475.966 186.951 475.966 195.355V215.886C470.558 218.181 465.845 221.815 462.286 226.435C458.727 231.054 456.442 236.503 455.654 242.25H438.062V228.217H429.513V220.281H432.615C434.259 220.281 435.836 219.638 436.998 218.493C438.16 217.348 438.813 215.796 438.813 214.177C438.813 212.558 438.16 211.005 436.998 209.86C435.836 208.715 434.259 208.072 432.615 208.072H429.513V206.233H427.614V208.072H422.284C420.64 208.072 419.064 208.715 417.901 209.86C416.739 211.005 416.086 212.558 416.086 214.177C416.086 215.796 416.739 217.348 417.901 218.493C419.064 219.638 420.64 220.281 422.284 220.281H427.614V228.242C425.431 228.367 423.379 229.308 421.878 230.874C420.377 232.44 419.541 234.511 419.54 236.664V242.3C411.327 242.747 403.601 246.276 397.948 252.16C392.295 258.043 389.144 265.836 389.144 273.937V403.622H565.254V179.338C565.254 177.28 564.842 175.242 564.043 173.341C563.243 171.44 562.071 169.713 560.594 168.257C559.116 166.802 557.362 165.648 555.432 164.861C553.502 164.073 551.433 163.668 549.343 163.668Z" fill="#F2F2F2"/>
<path d="M432.363 298.379H444.236V289.024H432.363V298.379Z" fill="white"/>
<path d="M412.891 298.379H424.764V289.024H412.891V298.379Z" fill="white"/>
<path d="M432.363 322.234H444.236V312.879H432.363V322.234Z" fill="white"/>
<path d="M412.891 322.234H424.764V312.879H412.891V322.234Z" fill="white"/>
<path d="M432.363 346.089H444.236V336.734H432.363V346.089Z" fill="white"/>
<path d="M412.891 346.089H424.764V336.734H412.891V346.089Z" fill="white"/>
<path d="M412.891 369.944H424.764V360.589H412.891V369.944Z" fill="white"/>
<path d="M412.891 393.8H424.764V384.445H412.891V393.8Z" fill="white"/>
<path d="M501.375 271.951H539.845V269.145H501.375V271.951Z" fill="white"/>
<path d="M501.375 289.258H539.845V286.452H501.375V289.258Z" fill="white"/>
<path d="M501.375 306.565H539.845V303.758H501.375V306.565Z" fill="white"/>
<path d="M524.172 153.144H536.045V143.789H524.172V153.144Z" fill="white"/>
<path d="M600.674 322.234H612.547V312.879H600.674V322.234Z" fill="white"/>
<path d="M581.202 322.234H593.075V312.879H581.202V322.234Z" fill="white"/>
<path d="M600.674 346.089H612.547V336.734H600.674V346.089Z" fill="white"/>
<path d="M581.202 346.089H593.075V336.734H581.202V346.089Z" fill="white"/>
<path d="M600.674 369.944H612.547V360.589H600.674V369.944Z" fill="white"/>
<path d="M581.202 369.944H593.075V360.589H581.202V369.944Z" fill="white"/>
<path d="M600.674 393.8H612.547V384.445H600.674V393.8Z" fill="white"/>
<path d="M581.202 393.8H593.075V384.445H581.202V393.8Z" fill="white"/>
<path d="M692.483 153.144H704.356V143.789H692.483V153.144Z" fill="white"/>
<path d="M733.56 183.654H704.313V189.758H733.56V183.654Z" fill="white"/>
<path d="M733.56 201.967H704.313V208.072H733.56V201.967Z" fill="white"/>
<path d="M733.56 220.281H704.313V226.386H733.56V220.281Z" fill="white"/>
<path d="M733.56 238.595H704.313V244.7H733.56V238.595Z" fill="white"/>
<path d="M733.56 256.909H704.313V263.014H733.56V256.909Z" fill="white"/>
<path d="M733.56 275.223H704.313V281.327H733.56V275.223Z" fill="white"/>
<path d="M564.405 309.923L571.125 315.461L596.494 292.002L586.577 283.829L564.405 309.923Z" fill="#FFB6B6"/>
<path d="M584.285 308.05L570.055 298.376L607.522 239.872C580.366 224.327 561.691 205.364 546.453 184.534C541.275 177.504 538.118 169.323 545.342 164.049C545.68 163.802 546.027 163.569 546.382 163.348C554.62 158.293 551.946 165.87 563.238 162.148L573.441 172.868L595.485 193.992L633.086 217.631C640.648 222.385 642.746 232.385 637.773 239.966C637.51 240.366 637.23 240.755 636.933 241.132L584.285 308.05Z" fill="#2F2E41"/>
<path d="M565.256 305.412L577.038 314.001L573.015 318.736L577.517 334.785C577.739 335.578 577.699 336.42 577.401 337.188C577.103 337.956 576.564 338.611 575.862 339.056C575.159 339.501 574.331 339.713 573.498 339.662C572.664 339.61 571.869 339.298 571.229 338.77L557.87 327.759L559.547 321.178L554.668 325.12L549.631 320.969L565.256 305.412Z" fill="#2F2E41"/>
<path d="M548.813 246.956L476.142 272.55L478.248 278.349L550.918 252.756L548.813 246.956Z" fill="#3F3D56"/>
<path d="M565.808 345.962L546.873 329.86C545.555 328.739 544.744 327.148 544.617 325.438C544.49 323.727 545.058 322.037 546.196 320.739C547.334 319.441 548.949 318.642 550.685 318.516C552.422 318.39 554.138 318.949 555.456 320.069L574.391 336.171C575.044 336.726 575.58 337.402 575.968 338.161C576.355 338.92 576.587 339.747 576.651 340.594C576.714 341.441 576.607 342.293 576.336 343.099C576.065 343.906 575.636 344.652 575.072 345.295C574.508 345.938 573.821 346.465 573.051 346.847C572.28 347.228 571.44 347.456 570.58 347.518C569.72 347.58 568.856 347.475 568.037 347.207C567.218 346.94 566.461 346.517 565.808 345.962Z" fill="#3F3D56"/>
<path d="M673.37 159.934C672.173 160.341 670.901 160.484 669.642 160.353C668.383 160.223 667.169 159.823 666.084 159.18C664.999 158.538 664.071 157.669 663.364 156.634C662.657 155.6 662.189 154.426 661.993 153.194L594.351 136.04L605.383 124.641L669.807 143.272C671.93 143.084 674.049 143.67 675.762 144.918C677.475 146.167 678.664 147.991 679.103 150.044C679.542 152.098 679.201 154.239 678.145 156.062C677.088 157.885 675.389 159.263 673.37 159.934Z" fill="#FFB6B6"/>
<path d="M570.613 80.2871C570.613 80.2871 559.614 81.5421 559.812 94.0245C560.009 106.507 586.97 134.942 591.177 139.653C595.383 144.365 637.36 146.772 637.36 146.772L650.473 135.416L611.592 122.515L570.613 80.2871Z" fill="#25929B"/>
<path d="M548.303 138.875L545.822 150.337C545.822 150.337 541.306 159.876 542.183 162.424C543.051 164.959 582.136 178.738 582.136 178.738C582.136 178.738 585.485 161.551 591.073 149.958L548.303 138.875Z" fill="#FFB6B6"/>
<path d="M673.565 318.142L650.992 328.763C649.421 329.502 647.615 329.597 645.973 329.025C644.331 328.454 642.987 327.263 642.236 325.715C641.485 324.168 641.39 322.39 641.97 320.772C642.55 319.155 643.759 317.831 645.331 317.092L667.903 306.471C669.475 305.731 671.28 305.637 672.922 306.208C674.565 306.78 675.909 307.97 676.66 309.518C677.41 311.066 677.506 312.844 676.926 314.461C676.346 316.078 675.137 317.402 673.565 318.142Z" fill="#3F3D56"/>
<path d="M759.189 402.926C745.09 402.926 731.308 398.808 719.585 391.094C707.863 383.38 698.726 372.415 693.331 359.587C687.935 346.758 686.524 332.642 689.274 319.024C692.025 305.405 698.814 292.896 708.783 283.077C718.753 273.259 731.454 266.572 745.282 263.863C759.11 261.154 773.443 262.545 786.469 267.858C799.494 273.172 810.627 282.171 818.46 293.716C826.293 305.261 830.474 318.835 830.474 332.72C830.453 351.333 822.935 369.178 809.572 382.34C796.208 395.501 778.089 402.905 759.189 402.926ZM759.189 269.015C746.396 269.015 733.89 272.751 723.252 279.751C712.615 286.751 704.324 296.701 699.429 308.341C694.533 319.982 693.252 332.791 695.748 345.148C698.244 357.506 704.404 368.857 713.45 377.766C722.497 386.676 734.022 392.743 746.57 395.201C759.117 397.659 772.123 396.398 783.943 391.576C795.762 386.754 805.865 378.589 812.972 368.113C820.08 357.636 823.874 345.32 823.874 332.72C823.854 315.83 817.033 299.638 804.906 287.695C792.78 275.752 776.339 269.034 759.189 269.015Z" fill="#3F3D56"/>
<path d="M762.329 347.49C767.855 347.49 772.336 343.078 772.336 337.635C772.336 332.192 767.855 327.78 762.329 327.78C756.802 327.78 752.322 332.192 752.322 337.635C752.322 343.078 756.802 347.49 762.329 347.49Z" fill="#3F3D56"/>
<path d="M466.219 403.883C452.86 403.883 439.801 399.981 428.693 392.672C417.585 385.362 408.928 374.973 403.815 362.817C398.703 350.662 397.365 337.286 399.972 324.382C402.578 311.478 409.011 299.625 418.457 290.322C427.904 281.018 439.939 274.683 453.041 272.116C466.144 269.549 479.725 270.866 492.067 275.901C504.409 280.936 514.959 289.463 522.38 300.402C529.802 311.342 533.764 324.203 533.764 337.36C533.744 354.997 526.621 371.906 513.958 384.377C501.295 396.848 484.127 403.863 466.219 403.883ZM466.219 276.997C454.097 276.997 442.247 280.537 432.167 287.17C422.088 293.803 414.232 303.23 409.593 314.26C404.955 325.29 403.741 337.427 406.106 349.136C408.471 360.846 414.308 371.601 422.88 380.043C431.451 388.485 442.372 394.234 454.262 396.563C466.151 398.892 478.474 397.697 489.674 393.128C500.873 388.56 510.446 380.823 517.18 370.896C523.915 360.969 527.51 349.299 527.51 337.36C527.491 321.356 521.028 306.013 509.538 294.697C498.047 283.381 482.469 277.015 466.219 276.997Z" fill="#3F3D56"/>
<path d="M466.219 347.215C471.745 347.215 476.225 342.803 476.225 337.36C476.225 331.917 471.745 327.505 466.219 327.505C460.692 327.505 456.212 331.917 456.212 337.36C456.212 342.803 460.692 347.215 466.219 347.215Z" fill="#3F3D56"/>
<path d="M601.934 347.556C608.343 347.556 613.538 342.44 613.538 336.128C613.538 329.817 608.343 324.7 601.934 324.7C595.526 324.7 590.331 329.817 590.331 336.128C590.331 342.44 595.526 347.556 601.934 347.556Z" fill="#3F3D56"/>
<path d="M468.788 336.662L464.225 332.449L545.676 246.873L691.031 204.03L763.169 328.719L757.736 331.768L688.059 211.336L549.086 252.298L468.788 336.662Z" fill="#3F3D56"/>
<path d="M592.08 332.776H530.618V338.936H592.08V332.776Z" fill="#3F3D56"/>
<path d="M550.508 217.382H544.254V249.586H550.508V217.382Z" fill="#3F3D56"/>
<path d="M672.118 144.513L666.166 146.405L686.569 208.629L692.521 206.736L672.118 144.513Z" fill="#3F3D56"/>
<path d="M549.884 245.534L544.487 248.647L595.771 334.88L601.168 331.767L549.884 245.534Z" fill="#3F3D56"/>
<path d="M718.662 258.093L608.593 332.015L612.117 337.103L722.185 263.182L718.662 258.093Z" fill="#3F3D56"/>
<path d="M559.381 221.221H534.365C532.623 221.221 530.953 220.539 529.721 219.326C528.49 218.114 527.798 216.469 527.798 214.753C527.798 213.038 528.49 211.393 529.721 210.18C530.953 208.967 532.623 208.286 534.365 208.286H559.381C561.123 208.286 562.793 208.967 564.025 210.18C565.256 211.393 565.948 213.038 565.948 214.753C565.948 216.469 565.256 218.114 564.025 219.326C562.793 220.539 561.123 221.221 559.381 221.221Z" fill="#25929B"/>
<path d="M681.337 151.619H656.321C654.579 151.619 652.909 150.937 651.677 149.724C650.446 148.511 649.754 146.866 649.754 145.151C649.754 143.436 650.446 141.791 651.677 140.578C652.909 139.365 654.579 138.684 656.321 138.684H681.337C683.079 138.684 684.749 139.365 685.981 140.578C687.212 141.791 687.904 143.436 687.904 145.151C687.904 146.866 687.212 148.511 685.981 149.724C684.749 150.937 683.079 151.619 681.337 151.619Z" fill="#25929B"/>
<path d="M842.677 364.631L843.392 348.789C850.85 344.863 859.168 342.79 867.624 342.748C855.986 352.119 857.44 370.183 849.55 382.785C847.059 386.696 843.705 390.006 839.738 392.468C835.772 394.93 831.293 396.481 826.635 397.006L816.896 402.879C815.56 395.542 815.854 388.007 817.76 380.792C819.665 373.578 823.136 366.856 827.933 361.09C830.656 357.882 833.779 355.024 837.228 352.584C839.561 358.641 842.677 364.631 842.677 364.631Z" fill="#F2F2F2"/>
<path d="M868 403.267C868 403.363 867.981 403.459 867.944 403.548C867.907 403.637 867.852 403.718 867.783 403.786C867.713 403.854 867.631 403.908 867.541 403.945C867.45 403.982 867.354 404 867.256 404H371.744C371.547 404 371.358 403.923 371.218 403.785C371.078 403.648 371 403.461 371 403.267C371 403.073 371.078 402.886 371.218 402.749C371.358 402.611 371.547 402.534 371.744 402.534H867.256C867.354 402.534 867.45 402.552 867.541 402.589C867.631 402.626 867.713 402.68 867.783 402.748C867.852 402.816 867.907 402.897 867.944 402.986C867.981 403.075 868 403.171 868 403.267Z" fill="#CCCCCC"/>
<path d="M588.525 71.1191C598.593 69.4333 605.368 60.028 603.656 50.112C601.944 40.1959 592.394 33.524 582.326 35.2099C572.257 36.8957 565.483 46.3009 567.195 56.217C568.907 66.133 578.456 72.805 588.525 71.1191Z" fill="#FFB6B6"/>
<path d="M786.816 138.646C796.039 138.646 803.515 131.283 803.515 122.2C803.515 113.117 796.039 105.754 786.816 105.754C777.593 105.754 770.117 113.117 770.117 122.2C770.117 131.283 777.593 138.646 786.816 138.646Z" fill="#FD6584"/>
<path d="M824.192 114.413C823.72 112.892 822.807 111.54 821.565 110.523C820.323 109.506 818.806 108.869 817.201 108.69C817.164 108.685 817.13 108.692 817.094 108.69C817.047 108.676 817 108.665 816.951 108.657C809.315 107.685 800.499 111.283 797.317 118.413C796.54 117.37 795.517 116.529 794.337 115.963C793.156 115.396 791.854 115.121 790.541 115.161C788.849 115.272 787.232 115.894 785.912 116.943C784.591 117.991 783.631 119.415 783.161 121.02C783.111 121.216 783.126 121.423 783.203 121.611C783.281 121.799 783.417 121.957 783.592 122.063C784.097 122.484 784.694 122.783 785.337 122.935C786.724 123.225 788.116 123.49 789.512 123.731C792.238 124.2 794.978 124.58 797.732 124.87C803.322 125.46 808.947 125.669 814.567 125.497C816.438 125.439 818.243 125.378 819.958 124.565C821.206 123.958 822.272 123.042 823.051 121.906C823.785 120.815 824.268 119.579 824.465 118.284C824.662 116.99 824.569 115.668 824.192 114.413Z" fill="#F0F0F0"/>
<path d="M789.485 136.341C789.012 134.82 788.099 133.468 786.857 132.451C785.615 131.435 784.098 130.798 782.493 130.619C782.457 130.614 782.422 130.62 782.386 130.618C782.339 130.604 782.292 130.593 782.244 130.586C774.607 129.614 765.791 133.211 762.609 140.341C761.832 139.298 760.809 138.457 759.629 137.891C758.448 137.324 757.146 137.049 755.833 137.09C754.141 137.201 752.524 137.823 751.204 138.871C749.883 139.919 748.923 141.343 748.453 142.948C748.403 143.145 748.418 143.352 748.496 143.539C748.573 143.727 748.709 143.885 748.884 143.992C749.389 144.413 749.986 144.711 750.629 144.864C752.016 145.153 753.408 145.418 754.804 145.659C757.53 146.129 760.27 146.509 763.024 146.798C768.614 147.388 774.239 147.598 779.859 147.425C781.73 147.368 783.535 147.306 785.25 146.493C786.498 145.886 787.564 144.97 788.343 143.835C789.077 142.744 789.56 141.507 789.757 140.213C789.955 138.918 789.861 137.597 789.485 136.341Z" fill="#F0F0F0"/>
<path d="M699.887 227.397L679.002 183.978L679.285 183.846C680.732 183.171 682.3 182.783 683.9 182.705C685.5 182.626 687.099 182.859 688.607 183.389C690.116 183.92 691.503 184.738 692.69 185.796C693.878 186.855 694.842 188.133 695.527 189.559L705.97 211.268C706.655 212.694 707.049 214.238 707.129 215.813C707.209 217.389 706.972 218.964 706.434 220.449C705.895 221.935 705.065 223.301 703.99 224.471C702.915 225.64 701.617 226.589 700.17 227.264L699.887 227.397Z" fill="#3F3D56"/>
<path d="M636.046 235.028C633.416 235.021 630.86 234.179 628.755 232.626C626.651 231.074 625.111 228.894 624.366 226.41L624.277 226.115L671.065 212.519L671.154 212.814C671.607 214.327 671.754 215.913 671.584 217.481C671.415 219.05 670.934 220.57 670.169 221.956C669.403 223.341 668.368 224.564 667.122 225.555C665.876 226.547 664.444 227.287 662.908 227.733L639.514 234.531C638.388 234.86 637.22 235.027 636.046 235.028Z" fill="#3F3D56"/>
<path d="M642.059 309.854L650.573 307.786L646.637 273.726L634.072 276.78L642.059 309.854Z" fill="#FFB6B6"/>
<path d="M638.027 300.08L651.314 293.983L653.618 299.725L670.087 303.489C670.901 303.675 671.633 304.112 672.176 304.736C672.719 305.361 673.046 306.14 673.108 306.96C673.17 307.78 672.964 308.598 672.52 309.295C672.077 309.992 671.419 310.53 670.642 310.833L654.441 317.139L649.369 312.546L650.558 318.65L644.45 321.028L638.027 300.08Z" fill="#2F2E41"/>
<path d="M651.05 279.163L632.897 289.885L613.535 222.542C582.127 222.278 553.086 218.815 529.374 208.148C521.341 204.565 517.768 195.091 521.393 186.986C521.562 186.607 521.746 186.235 521.944 185.87C526.56 177.461 535.508 172.522 543.448 163.783L582.834 178.104L580.012 188.55L624.565 190.753C633.524 191.195 640.374 198.86 639.865 207.872C639.838 208.348 639.79 208.822 639.722 209.294L651.05 279.163Z" fill="#2F2E41"/>
<path d="M574.036 70.9432L586.139 77.1762C586.808 77.439 587.377 77.9007 587.766 78.497C588.156 79.0933 588.347 79.7944 588.313 80.5027L591.466 92.9276L602.559 116.052C602.559 116.052 605.449 128.36 599.933 139.98C594.417 151.6 582.209 180.568 582.209 180.568C574.246 199.351 508.89 184.846 525.921 168.865C527.948 166.964 539.338 150.902 543.506 149.979L553.732 92.347C554.247 89.3043 555.44 86.4116 557.225 83.8763C559.009 81.3411 561.341 79.2262 564.053 77.6832C565.692 76.771 567.21 76.231 568.251 76.5066C570.624 77.0511 571.745 71.7595 574.036 70.9432Z" fill="#25929B"/>
<path d="M679.155 147.306C678.055 147.922 676.831 148.293 675.569 148.392C674.307 148.492 673.038 148.317 671.852 147.882C670.666 147.446 669.592 146.76 668.704 145.871C667.817 144.982 667.138 143.912 666.716 142.737L597.027 138.095L605.748 124.896L672.549 131.571C674.601 131.003 676.793 131.196 678.71 132.113C680.627 133.031 682.135 134.609 682.949 136.549C683.764 138.488 683.827 140.655 683.128 142.637C682.429 144.62 681.015 146.281 679.155 147.306Z" fill="#FFB6B6"/>
<path d="M563.306 87.5771C563.306 87.5771 552.728 90.798 555.247 103.033C557.767 115.268 589.567 138.349 594.579 142.22C599.592 146.092 641.305 140.874 641.305 140.874L652.08 127.342L611.456 121.684L563.306 87.5771Z" fill="#25929B"/>
<path d="M605.15 47.1395C602.358 48.4942 599.196 46.5307 596.753 44.5781L597.627 45.3064C593.388 49.4525 591.448 55.3754 590.531 61.1959C589.612 67.0102 589.565 72.9474 588.392 78.7231C587.219 84.4927 584.72 90.303 579.976 93.8776C573.622 98.6654 564.786 98.4517 556.911 97.0835C556.807 97.0636 556.709 97.0487 556.604 97.0288C558.656 90.9942 559.449 84.6136 558.935 78.2697C556.895 84.6528 553.369 90.4785 548.639 95.2823C543.413 93.9229 538.308 92.1492 533.373 89.9785C530.18 88.5701 526.738 86.6348 525.821 83.3083C524.902 80.0071 526.919 76.5142 529.643 74.3962C532.367 72.2782 535.725 71.1535 538.838 69.6327C541.945 68.119 545.013 65.9746 546.23 62.7718C549.038 55.4041 540.734 47.0665 543.861 39.8203C545.403 36.257 549.25 34.2883 552.869 32.7638C558.394 30.4427 564.073 28.4921 569.865 26.9253C574.95 25.549 580.263 24.4657 585.466 25.2814C590.67 26.0971 595.791 29.157 597.711 33.9962C600.841 35.0029 604.165 36.1395 606.194 38.7051C608.222 41.2645 608.107 45.7072 605.15 47.1395Z" fill="#2F2E41"/>
<path d="M518.845 360.134H413.314V361.366H518.845V360.134Z" fill="#3F3D56"/>
<path d="M518.845 372.453H413.314V373.685H518.845V372.453Z" fill="#3F3D56"/>
<path d="M815.293 360.134H709.762V361.366H815.293V360.134Z" fill="#3F3D56"/>
<path d="M815.293 372.453H709.762V373.685H815.293V372.453Z" fill="#3F3D56"/>
<path d="M705.202 211.954C708.928 210.597 710.249 204.971 708.153 199.387C706.057 193.804 701.338 190.377 697.612 191.733C693.886 193.089 692.565 198.716 694.661 204.3C696.757 209.883 701.476 213.31 705.202 211.954Z" fill="#25929B"/>
</g>
<defs>
<clipPath id="clip0_2_169">
<rect width="497" height="379" fill="white" transform="translate(371 25)"/>
</clipPath>
</defs>
</svg>
