<svg width="1239" height="430" viewBox="0 0 1239 430" fill="none" xmlns="http://www.w3.org/2000/svg">
<rect width="1239" height="430" fill="white"/>
<g clip-path="url(#clip0_2_311)">
<path d="M1026.17 33.0761V396.924C1026.17 397.887 1026.07 398.847 1025.86 399.788C1025.27 402.658 1023.71 405.237 1021.45 407.096C1019.19 408.954 1016.36 409.979 1013.43 410H225.699C223.149 409.984 220.663 409.199 218.566 407.746C216.469 406.292 214.859 404.24 213.945 401.855C213.318 400.287 212.997 398.613 213 396.924V33.0761C212.976 31.3822 213.285 29.7001 213.911 28.126C214.536 26.5519 215.465 25.1166 216.644 23.9023C217.823 22.6879 219.23 21.7182 220.784 21.0486C222.338 20.3791 224.008 20.0227 225.699 20H1013.47C1015.16 20.0227 1016.83 20.3791 1018.39 21.0486C1019.94 21.7182 1021.35 22.6879 1022.53 23.9023C1023.71 25.1166 1024.64 26.5519 1025.26 28.126C1025.89 29.7001 1026.2 31.3822 1026.17 33.0761Z" fill="#F2F2F2"/>
<path opacity="0.03" d="M770.864 57.3604H467.479V399.415H770.864V57.3604Z" fill="black"/>
<path opacity="0.03" d="M589.645 103.023H519.386C512.693 103.023 507.267 108.457 507.267 115.161V268.554C507.267 275.258 512.693 280.692 519.386 280.692H589.645C596.338 280.692 601.764 275.258 601.764 268.554V115.161C601.764 108.457 596.338 103.023 589.645 103.023Z" fill="black"/>
<path opacity="0.03" d="M648.697 280.692H718.957C725.65 280.692 731.075 275.258 731.075 268.554V115.161C731.075 108.457 725.65 103.023 718.957 103.023H648.697C642.004 103.023 636.578 108.457 636.578 115.161V268.554C636.578 275.258 642.004 280.692 648.697 280.692Z" fill="black"/>
<path opacity="0.03" d="M435.466 63.1719H250.815C241.833 63.1719 234.552 70.4648 234.552 79.461V264.403C234.552 273.399 241.833 280.692 250.815 280.692H435.466C444.448 280.692 451.729 273.399 451.729 264.403V79.461C451.729 70.4648 444.448 63.1719 435.466 63.1719Z" fill="black"/>
<path opacity="0.03" d="M802.876 280.692H987.527C996.509 280.692 1003.79 273.399 1003.79 264.403V79.461C1003.79 70.4648 996.509 63.1719 987.527 63.1719L802.876 63.1719C793.894 63.1719 786.613 70.4648 786.613 79.461V264.403C786.613 273.399 793.894 280.692 802.876 280.692Z" fill="black"/>
<path d="M560.45 103.023L507.267 161.338V179.313L573.265 103.023H560.45Z" fill="#F2F2F2"/>
<path d="M601.764 163.048L507.267 255.486L507.681 271.974L602.178 179.313L601.764 163.048Z" fill="#F2F2F2"/>
<path d="M689.762 103.023L636.578 161.338V179.313L702.577 103.023H689.762Z" fill="#F2F2F2"/>
<path d="M731.075 163.048L636.578 255.486L636.993 271.974L731.49 179.313L731.075 163.048Z" fill="#F2F2F2"/>
<path d="M306.643 63.1719L234.552 145.937V198.997L343.141 63.1719H306.643Z" fill="#F2F2F2"/>
<path d="M402.359 63.1719L234.552 228.387V240.94L424.574 63.1719H402.359Z" fill="#F2F2F2"/>
<path d="M859.948 63.587L787.856 146.353V199.412L896.445 63.587H859.948Z" fill="#F2F2F2"/>
<path d="M955.663 63.587L787.856 228.803V241.356L977.878 63.587H955.663Z" fill="#F2F2F2"/>
<path d="M451.729 256.881V264.403C451.729 268.723 450.016 272.866 446.966 275.921C443.916 278.976 439.779 280.692 435.466 280.692H407.896C407.067 279.911 406.296 279.123 405.509 278.317C402.143 274.872 398.736 271.028 396.614 266.287C393.489 259.322 393.688 251.493 393.854 245.208C393.854 244.602 393.895 244.004 393.912 243.39C391.488 247.585 387.862 250.954 383.504 253.061C379.146 255.168 374.256 255.915 369.469 255.206C364.682 254.496 360.218 252.363 356.655 249.082C353.093 245.801 350.597 241.524 349.49 236.806C348.973 234.632 348.767 232.396 348.877 230.164C349.018 227.002 349.781 223.9 351.121 221.033C352.46 218.167 354.351 215.594 356.685 213.46L365.463 221.895L361.194 210.189C364.062 208.572 367.229 207.56 370.501 207.215C373.774 206.869 377.082 207.198 380.223 208.181C383.363 209.164 386.27 210.78 388.764 212.93C391.258 215.08 393.286 217.719 394.724 220.683C394.984 214.689 395.28 208.705 395.611 202.733H395.512C395.006 202.65 394.5 202.542 394.011 202.434L393.182 202.219C392.727 202.086 392.271 201.953 391.831 201.803L391.002 201.513C390.555 201.347 390.107 201.148 389.676 200.948C389.439 200.855 389.206 200.75 388.98 200.633C388.441 200.375 387.927 200.102 387.413 199.803C387.297 199.736 387.181 199.678 387.065 199.603C386.452 199.23 385.863 198.831 385.291 198.408C385.092 198.275 384.91 198.109 384.727 197.968C384.346 197.669 383.973 197.362 383.617 197.055L382.987 196.465C382.672 196.166 382.365 195.859 382.075 195.552C381.785 195.245 381.66 195.112 381.462 194.871C381.263 194.63 380.906 194.232 380.633 193.891L380.094 193.194C379.812 192.804 379.547 192.414 379.265 192.007C379.132 191.808 378.991 191.608 378.867 191.401C378.511 190.803 378.179 190.197 377.872 189.566C377.756 189.325 377.657 189.068 377.549 188.835C377.358 188.42 377.176 188.005 377.01 187.565C376.894 187.283 376.803 186.984 376.695 186.677C376.587 186.37 376.438 185.896 376.322 185.481C376.206 185.066 376.156 184.859 376.074 184.535C376.074 184.369 375.982 184.194 375.949 184.028C374.84 179.02 375.359 173.788 377.433 169.097C379.506 164.406 383.024 160.503 387.471 157.959L392.876 168.669L392.718 155.701C398.132 154.107 403.932 154.461 409.111 156.703C414.291 158.944 418.524 162.931 421.076 167.972L421.15 168.154C421.266 168.378 421.366 168.594 421.474 168.827C421.664 169.259 421.855 169.657 422.021 170.139C422.104 170.338 422.186 170.52 422.261 170.72C422.477 171.326 422.659 171.932 422.833 172.555C422.891 172.762 422.941 172.978 422.99 173.186C423.131 173.758 423.247 174.331 423.347 174.912C423.347 175.02 423.347 175.12 423.413 175.236C423.513 175.917 423.579 176.623 423.629 177.328C423.629 177.511 423.629 177.677 423.629 177.868C423.629 178.599 423.67 179.321 423.629 180.06C423.361 185.809 421.053 191.274 417.12 195.47C413.187 199.666 407.888 202.319 402.176 202.949C401.347 217.129 400.775 231.351 400.411 245.449C400.228 252.58 400.278 258.442 402.591 263.606C403.823 266.182 405.433 268.561 407.365 270.663C407.365 270.214 407.365 269.758 407.365 269.301C407.512 266.127 408.282 263.012 409.631 260.136C410.98 257.259 412.881 254.677 415.227 252.537C417.572 250.396 420.316 248.74 423.301 247.662C426.285 246.584 429.453 246.105 432.623 246.254H432.689L438.16 257.105L438.035 247.142C443.615 248.645 448.473 252.1 451.729 256.881Z" fill="#F2F2F2"/>
<path opacity="0.03" d="M624.145 57.3604H614.198V399.415H624.145V57.3604Z" fill="black"/>
<path d="M1025.86 399.788C1025.27 402.658 1023.71 405.237 1021.45 407.096C1019.19 408.954 1016.36 409.979 1013.43 410H225.699C223.149 409.984 220.663 409.199 218.566 407.746C216.469 406.293 214.859 404.24 213.945 401.856C249.696 392.781 344.541 385.434 467.479 382.005C474.325 381.805 481.258 381.628 488.276 381.473H489.578C491.235 381.432 492.976 381.407 494.684 381.357C502.139 381.197 509.682 381.044 517.313 380.901L519.949 380.851L528.985 380.693L532.201 380.643C538.55 380.544 544.955 380.455 551.415 380.378C571.881 380.128 592.861 379.979 614.198 379.954H632.881C638.789 379.954 644.669 379.954 650.521 379.954L668.144 380.07C703.878 380.311 738.304 380.901 770.864 381.731L783.712 382.088C789.862 382.254 795.941 382.436 801.948 382.636C905.745 385.957 987.121 392.158 1025.86 399.788Z" fill="#3F3D56"/>
<path d="M452.144 304.353C452.144 309.393 448.496 313.486 444.004 313.486H243.106C238.614 313.486 234.966 309.393 234.966 304.353C234.966 299.306 238.614 295.221 243.106 295.221H444.004C448.496 295.221 452.144 299.306 452.144 304.353Z" fill="#3F3D56"/>
<path d="M669.47 110.81H640.574V160.749H669.47V110.81Z" fill="#3F3D56"/>
<path opacity="0.1" d="M669.47 110.81H640.574V160.749H669.47V110.81Z" fill="black"/>
<path d="M782.618 151.658C784.342 150.62 786.48 150.686 788.495 150.827C789.701 150.79 790.899 151.047 791.984 151.575C794.057 152.828 794.372 155.659 794.471 158.084C794.571 160.973 794.571 164.178 792.648 166.386C791.122 168.105 788.743 168.736 786.48 169.134C784.887 169.302 783.327 169.699 781.847 170.313C780.38 171.173 779.027 172.213 777.818 173.41C775.124 175.709 771.543 177.968 768.012 178.524C765.641 173.734 765.028 169.142 768.733 165.024C770.781 162.75 773.425 160.998 775.646 158.889C777.868 156.78 779.907 153.293 782.618 151.658Z" fill="#A0616A"/>
<path d="M646.525 394.566C646.117 395.563 645.92 396.635 645.945 397.713C646.177 400.203 648.639 401.772 650.919 402.81C653.969 404.213 657.815 405.243 660.468 403.175C663.419 400.876 662.955 396.376 664.107 392.806C664.787 390.722 666.063 388.887 666.9 386.862C669.196 381.307 667.986 374.989 666.743 369.111L664.927 360.552C664.851 359.873 664.561 359.236 664.099 358.733C662.764 357.563 656.506 357.139 654.914 358.252C652.369 360.02 652.983 365.99 652.577 368.796C651.327 377.549 649.302 386.173 646.525 394.566Z" fill="#575A89"/>
<path d="M636.91 394.566C637.314 395.565 637.512 396.635 637.49 397.713C637.258 400.203 634.796 401.772 632.517 402.81C629.466 404.213 625.612 405.243 622.968 403.175C620.017 400.876 620.481 396.376 619.32 392.806C618.649 390.722 617.372 388.887 616.535 386.862C614.231 381.307 615.449 374.989 616.693 369.111L618.508 360.552C618.584 359.873 618.875 359.236 619.337 358.733C620.671 357.563 626.93 357.139 628.521 358.252C631.058 360.02 630.444 365.99 630.851 368.796C632.103 377.549 634.131 386.173 636.91 394.566Z" fill="#575A89"/>
<path d="M657.915 137.785C658.381 138.264 658.715 138.856 658.885 139.503C659.183 141.064 657.732 142.442 656.249 143.007C654.765 143.571 653.107 143.704 651.764 144.559C650.387 145.591 649.391 147.051 648.929 148.71C646.111 156.647 649.253 166.652 656.729 170.512C661.885 173.177 668.019 172.762 673.805 172.281C674.617 172.263 675.418 172.094 676.168 171.782C676.928 171.348 677.584 170.753 678.091 170.039C681.335 165.921 683.584 161.107 684.659 155.973C685.735 150.84 685.609 145.526 684.291 140.45C684.207 140.026 684.041 139.622 683.802 139.262C682.31 137.212 678.712 139.736 676.599 138.341C675.95 137.825 675.464 137.134 675.198 136.348C673.746 132.937 672.746 129.351 672.222 125.68C672.156 125.231 662.739 128.843 661.935 129.241C658.727 130.902 658.561 129.374 656.182 132.089C658.735 132.803 655.801 135.344 657.915 137.785Z" fill="#A0616A"/>
<path opacity="0.1" d="M657.915 137.785C658.381 138.264 658.715 138.856 658.885 139.503C659.183 141.064 657.732 142.442 656.249 143.007C654.765 143.571 653.107 143.704 651.764 144.559C650.387 145.591 649.391 147.051 648.929 148.71C646.111 156.647 649.253 166.652 656.729 170.512C661.885 173.177 668.019 172.762 673.805 172.281C674.617 172.263 675.418 172.094 676.168 171.782C676.928 171.348 677.584 170.753 678.091 170.039C681.335 165.921 683.584 161.107 684.659 155.973C685.735 150.84 685.609 145.526 684.291 140.45C684.207 140.026 684.041 139.622 683.802 139.262C682.31 137.212 678.712 139.736 676.599 138.341C675.95 137.825 675.464 137.134 675.198 136.348C673.746 132.937 672.746 129.351 672.222 125.68C672.156 125.231 662.739 128.843 661.935 129.241C658.727 130.902 658.561 129.374 656.182 132.089C658.735 132.803 655.801 135.344 657.915 137.785Z" fill="black"/>
<path d="M624.849 236.773C625.402 242.119 625.791 247.477 626.018 252.846C626.258 258.002 626.358 263.282 624.791 268.197C623.962 270.953 622.545 273.527 621.807 276.317C620.978 279.596 620.978 283.033 621.02 286.429C620.961 288.381 621.144 290.333 621.567 292.24C622.023 293.976 622.868 295.561 623.49 297.222C625.728 303.174 625.214 309.775 624.443 316.085C622.992 327.957 620.729 339.713 618.467 351.452L614.38 372.739C618.834 374.574 623.468 375.935 628.206 376.799C631.141 377.331 634.97 377.231 636.139 374.475C636.525 373.212 636.585 371.873 636.313 370.581C635.663 364.665 636.349 358.678 638.319 353.063C639.927 348.505 642.356 344.246 643.591 339.572C644.297 336.624 644.724 333.616 644.868 330.589C645.249 325.275 645.409 319.953 645.348 314.623C645.266 307.434 644.81 300.069 646.957 293.203C649.767 284.22 656.962 276.217 656.124 266.835C656.298 277.172 656.481 287.516 655.784 297.828C655.35 302.097 655.184 306.39 655.287 310.68C655.635 316.965 657.451 323.308 656.116 329.468C655.569 331.959 654.525 334.366 654.251 336.94C653.82 340.942 655.329 345.143 653.994 348.945C652.842 352.266 649.634 354.889 649.733 358.385C649.8 361 651.831 363.233 654.201 364.337C656.572 365.442 659.241 365.624 661.844 365.79C664.662 365.973 668.077 365.857 669.495 363.408C671.227 360.427 668.484 356.907 667.97 353.503C667.456 350.099 669.271 346.778 670.896 343.723C680.061 326.471 685.09 307.318 685.584 287.782C685.725 281.879 685.452 275.968 685.485 270.065C685.549 256.518 687.219 243.027 690.458 229.874C668.268 229.027 645.788 229.234 624.849 236.773Z" fill="#3C354C"/>
<path d="M660.41 137.776C669.644 137.776 677.129 130.279 677.129 121.031C677.129 111.782 669.644 104.285 660.41 104.285C651.176 104.285 643.691 111.782 643.691 121.031C643.691 130.279 651.176 137.776 660.41 137.776Z" fill="#A0616A"/>
<path d="M673.175 145.448C671.368 148.719 669.122 151.982 665.781 153.667C662.441 155.352 657.774 154.921 655.677 151.815C654.093 149.466 654.06 145.937 651.598 144.559C649.626 143.455 646.998 144.485 645.63 146.286C644.262 148.088 643.856 150.437 643.591 152.662C643.037 158.267 642.843 163.902 643.011 169.533C643.359 196.972 645.547 224.386 645.199 251.833C645.215 256.123 644.968 260.409 644.461 264.668C654.549 262.111 664.704 259.554 675.131 258.907C680.163 258.599 685.228 258.741 690.218 258.076C693.646 257.547 697.041 256.826 700.389 255.918C700.838 255.852 701.256 255.652 701.591 255.345C701.854 254.976 701.998 254.536 702.005 254.083C703.033 244.378 699.643 234.822 698.142 225.183C696.733 216.191 696.982 207.009 695.772 197.984C694.114 185.324 689.546 172.995 689.646 160.217C689.646 155.576 690.326 150.861 689.298 146.328C688.469 142.592 685.592 137.61 681.423 136.88C676.806 136.066 674.916 142.301 673.175 145.448Z" fill="#25929B"/>
<path d="M671.318 151.533C666.204 161.737 661.007 172.164 659.341 183.472C657.84 193.667 659.283 204.103 658.047 214.332C656.464 227.466 650.529 240.832 654.558 253.435C655.453 256.25 656.821 258.89 657.774 261.68C661.919 273.934 657.774 287.591 660.451 300.26C660.477 300.584 660.576 300.897 660.741 301.176C660.907 301.456 661.133 301.693 661.405 301.871C662.109 302.178 662.88 301.663 663.618 301.431C666.809 300.41 669.006 304.47 671.534 306.678C672.803 307.753 674.358 308.433 676.007 308.634C677.657 308.834 679.329 308.547 680.818 307.807C685.551 305.366 686.811 299.289 687.449 294C690.627 268.706 692.561 243.293 693.252 217.76C693.409 211.949 693.492 206.137 692.539 200.409C691.387 193.46 688.734 186.851 687.308 179.96C685.021 168.868 685.974 157.403 686.596 146.095C686.77 142.774 685.841 133.21 680.213 136.332C675.886 138.731 673.416 147.357 671.318 151.533Z" fill="#575A89"/>
<path opacity="0.1" d="M645.639 180.218C645.589 183.837 645.531 187.515 644.42 190.961C643.309 194.406 641.171 197.461 639.446 200.683C635.302 208.57 633.802 217.603 633.594 226.503C633.387 235.403 634.423 244.286 635.111 253.162C636.154 266.668 636.389 280.225 635.816 293.76C641.359 291.814 647.355 291.563 653.041 293.037C656.356 293.868 660.31 295.229 662.905 292.971C664.753 291.36 664.977 288.612 665.06 286.163C665.939 261.206 666.215 236.239 665.889 211.26C665.777 207.986 665.868 204.709 666.163 201.447C666.436 198.956 666.992 196.415 666.992 193.875C666.992 190.305 666.038 186.818 665.068 183.381L656.323 152.339C655.751 150.296 655.138 148.187 653.72 146.593C652.303 144.999 648.018 142.891 646.351 144.933C644.909 146.726 645.978 152.87 645.954 155.078L645.639 180.218Z" fill="black"/>
<path d="M644.511 179.645C644.461 183.264 644.395 186.951 643.284 190.396C642.174 193.842 640.043 196.889 638.311 200.118C634.166 208.005 632.666 217.038 632.459 225.938C632.251 234.838 633.288 243.722 633.976 252.597C635.018 266.101 635.254 279.655 634.68 293.187C640.227 291.245 646.224 290.994 651.913 292.464C655.229 293.336 659.175 294.665 661.769 292.406C663.618 290.796 663.842 288.048 663.933 285.59C664.806 260.634 665.082 235.666 664.762 210.687C664.647 207.416 664.735 204.142 665.027 200.882C665.435 198.374 665.711 195.847 665.856 193.31C665.856 189.74 664.911 186.245 663.941 182.816L655.196 151.774C654.616 149.723 654.002 147.623 652.585 146.02C651.167 144.418 646.882 142.326 645.216 144.401C643.782 146.186 644.851 152.338 644.818 154.539L644.511 179.645Z" fill="#575A89"/>
<path d="M648.042 141.612C643.525 142.069 640.052 145.971 638.286 150.155C636.52 154.339 636.006 158.939 634.664 163.273C632.318 170.786 627.452 177.561 626.665 185.39C625.935 192.779 628.952 200.276 627.493 207.549C627.039 209.498 626.455 211.415 625.744 213.286C622.926 221.546 621.318 230.164 619.71 238.749L617.323 251.526C615.665 260.534 613.949 269.791 615.491 278.816C617.089 277.665 619.037 277.104 621.002 277.23C622.967 277.356 624.827 278.16 626.267 279.505C627.096 280.277 627.784 281.256 628.869 281.423C630.735 281.688 631.878 279.463 632.367 277.645C634.128 271.152 635.307 264.514 635.89 257.811C636.205 254.174 636.355 250.488 637.424 247.018C638.104 244.834 639.082 242.784 639.828 240.617C641.486 235.494 641.262 229.982 641.95 224.643C642.538 220.019 643.807 215.511 644.528 210.911C645.271 205.309 645.601 199.659 645.514 194.008L645.837 161.488C645.879 157.278 646.161 152.521 649.36 149.798C651.018 148.412 655.32 147.133 654.922 144.526C654.533 142.077 649.899 141.429 648.042 141.612Z" fill="#FF6584"/>
<path d="M674.75 138.615C679.591 134.97 684.938 131.143 690.997 131.292C693.004 131.416 694.992 131.761 696.924 132.322L710.634 135.751C709.269 138.094 707.233 139.974 704.79 141.147C707.014 140.764 709.302 141.149 711.278 142.24C713.254 143.331 714.801 145.062 715.666 147.15C717.58 152.181 715.061 157.694 712.831 162.6C709.018 170.977 705.851 179.894 705.884 189.109C705.884 193.784 702.66 198.408 702.345 203.074C702.116 205.996 702.357 208.937 703.058 211.783C703.895 214.558 704.937 217.266 706.175 219.886C714.572 239.629 716.478 261.588 715.55 283.033H696.833C695.798 282.97 694.76 283.103 693.774 283.423C692.597 283.88 691.71 284.843 690.665 285.557C688.869 286.776 686.664 287.236 684.531 286.836C682.534 277.703 685.692 268.421 687.25 259.239C688.033 254.209 688.534 249.14 688.751 244.054C689.187 235.995 689.408 227.923 689.414 219.836C689.414 213.726 689.265 207.491 687.25 201.729C686.256 198.873 684.813 196.175 683.877 193.294C683.035 190.404 682.453 187.445 682.136 184.452C680.047 169.018 676.839 154.032 674.75 138.615Z" fill="#FF6584"/>
<path d="M634.738 151.533C633.329 152.563 632.915 154.439 632.293 156.075C630.735 160.176 627.427 163.331 625.255 167.133C624.009 169.476 622.977 171.927 622.172 174.456C619.295 182.675 616.369 191.251 617.397 199.894C617.629 201.828 618.118 203.854 619.486 205.241C622.478 208.254 628.007 206.395 630.32 202.825C632.633 199.255 632.765 194.771 633.23 190.554C634.108 182.517 636.437 174.78 638.203 166.892C639.164 162.936 639.862 158.92 640.292 154.871C640.416 153.625 641.121 150.852 639.944 150.064C639.206 149.566 635.426 151.068 634.738 151.533Z" fill="#FF6584"/>
<path d="M726.152 173.675C728.216 176.166 730.727 178.798 733.927 178.715C735.513 178.545 737.043 178.032 738.411 177.212C749.163 171.838 760.346 167.375 771.842 163.87C770.562 166.819 770.225 170.092 770.876 173.241C771.528 176.389 773.136 179.258 775.481 181.455C765.781 183.939 756.446 187.679 747.712 192.58C745.859 193.538 744.139 194.735 742.597 196.141C741.605 197.297 740.536 198.384 739.398 199.396C736.861 201.339 733.421 201.471 730.222 201.521C728.336 201.762 726.421 201.599 724.603 201.042C722.785 200.485 721.106 199.548 719.678 198.292L696.783 181.895C696.414 181.737 696.089 181.491 695.838 181.179C695.586 180.866 695.415 180.496 695.339 180.101C695.264 179.707 695.287 179.3 695.405 178.916C695.524 178.532 695.735 178.184 696.02 177.901L703.265 164.958C704.923 162.027 706.788 157.179 710.676 156.656C714.563 156.133 715.989 160.317 717.829 163.057C720.405 166.748 723.183 170.293 726.152 173.675Z" fill="#FF6584"/>
<path d="M624.815 145.578L616.906 148.71C615.16 149.401 614.305 151.378 614.995 153.127L624.162 176.351C624.852 178.099 626.826 178.956 628.572 178.265L636.481 175.134C638.226 174.443 639.082 172.465 638.392 170.717L629.225 147.492C628.535 145.744 626.561 144.887 624.815 145.578Z" fill="#3F3D56"/>
<path opacity="0.1" d="M624.815 145.578L616.906 148.71C615.16 149.401 614.305 151.378 614.995 153.127L624.162 176.351C624.852 178.099 626.826 178.956 628.572 178.265L636.481 175.134C638.226 174.443 639.082 172.465 638.392 170.717L629.225 147.492C628.535 145.744 626.561 144.887 624.815 145.578Z" fill="black"/>
<path d="M623.676 146.139L615.767 149.271C614.022 149.962 613.166 151.94 613.856 153.688L623.023 176.912C623.713 178.661 625.687 179.518 627.433 178.827L635.342 175.695C637.087 175.004 637.943 173.026 637.253 171.278L628.086 148.054C627.396 146.305 625.422 145.448 623.676 146.139Z" fill="#3F3D56"/>
<path d="M624.426 159.047C625.521 159.047 626.408 158.158 626.408 157.062C626.408 155.967 625.521 155.078 624.426 155.078C623.332 155.078 622.445 155.967 622.445 157.062C622.445 158.158 623.332 159.047 624.426 159.047Z" fill="#25929B"/>
<path d="M618.806 176.515C617.778 175.236 616.494 174.174 615.59 172.812C614.524 170.988 613.879 168.949 613.7 166.843C613.375 164.545 613.195 162.23 613.161 159.91C613.157 159.602 613.222 159.298 613.353 159.019C613.484 158.741 613.677 158.496 613.917 158.303C614.157 158.111 614.438 157.976 614.738 157.909C615.038 157.843 615.349 157.845 615.648 157.918C618.955 158.703 621.934 160.502 624.169 163.065C626.897 166.288 628.646 170.227 629.209 174.414C629.491 176.565 629.649 178.73 629.682 180.898L629.98 189.79C627.817 189.79 624.667 190.396 622.595 189.79C619.619 188.96 620.821 189.483 621.119 186.552C621.459 182.899 621.21 179.504 618.806 176.515Z" fill="#A0616A"/>
<path d="M624.65 186.021C623.46 186.126 622.262 185.961 621.144 185.539C618.873 184.585 617.571 182.218 616.444 180.035C616.633 184.804 616.389 189.581 615.714 194.307C615.283 196.797 614.612 199.288 614.67 201.837C614.762 205.065 616.03 208.148 618.234 210.504C618.837 211.194 619.584 211.741 620.423 212.107C622.213 212.812 624.252 212.156 625.894 211.16C628.277 209.711 630.169 207.576 631.323 205.033C632.981 201.347 632.898 197.287 632.981 193.335C633.064 189.641 634.249 185.763 634.183 182.218C631.315 181.878 628.14 185.838 624.65 186.021Z" fill="#FF6584"/>
<path d="M641.295 115.152C644.209 116.693 647.421 117.585 650.712 117.769C654.002 117.952 657.293 117.422 660.36 116.215C659.39 120.458 661.612 124.692 662.764 128.893C665.798 139.96 661.106 151.981 653.646 160.674C657.103 161.02 660.594 160.584 663.861 159.399C667.128 158.213 670.087 156.308 672.52 153.825C670.398 159.538 667.239 164.81 663.203 169.375C677.552 164.9 687.797 151.575 692.398 137.245C695.913 126.269 696.543 113.949 691.751 103.479C686.96 93.0103 675.952 85.0152 664.488 85.9616C656.124 86.6507 648.473 91.9974 644.221 99.2453C639.969 106.493 638.999 115.368 640.723 123.671L641.295 115.152Z" fill="#3F3D56"/>
<path opacity="0.1" d="M662.797 128.893C664.313 134.882 663.945 141.194 661.744 146.967C664.704 140.325 665.839 133.002 663.933 126.053C662.781 121.852 660.551 117.618 661.521 113.376C658.454 114.584 655.163 115.114 651.872 114.931C648.582 114.748 645.37 113.855 642.455 112.313L642.223 115.634C645.059 116.982 648.141 117.731 651.278 117.837C654.415 117.943 657.54 117.402 660.46 116.248C659.423 120.458 661.645 124.692 662.797 128.893Z" fill="black"/>
<path opacity="0.1" d="M642.886 101.894C639.88 108.74 639.122 116.366 640.723 123.671L641.229 116.547C640.74 111.6 641.305 106.606 642.886 101.894Z" fill="black"/>
<path opacity="0.1" d="M673.689 150.985C671.378 153.337 668.596 155.171 665.525 156.366C662.454 157.56 659.166 158.09 655.876 157.918C655.171 158.872 654.442 159.794 653.679 160.674C657.121 161.017 660.596 160.586 663.851 159.411C667.105 158.236 670.056 156.347 672.487 153.883C672.918 152.928 673.324 151.965 673.689 150.985Z" fill="black"/>
<path opacity="0.1" d="M665.964 166.012C665.135 167.183 664.198 168.312 663.236 169.4C676.74 165.19 686.612 153.135 691.552 139.785C686.537 151.434 677.709 161.703 665.964 166.012Z" fill="black"/>
<path d="M801.948 55.2848V20.4152H783.712V387.376C783.712 389.798 784.672 392.121 786.382 393.834C788.092 395.547 790.412 396.509 792.83 396.509C795.248 396.509 797.567 395.547 799.277 393.834C800.987 392.121 801.948 389.798 801.948 387.376V73.5498H846.71V99.4114C830.811 100.408 818.526 107.025 818.526 115.061C818.526 122.45 828.971 128.669 843.054 130.371C845.643 130.68 848.247 130.835 850.854 130.836C868.709 130.836 883.182 123.762 883.182 115.061C883.182 109.084 876.385 103.886 866.355 101.213C862.638 100.241 858.834 99.638 854.999 99.4114V73.5498H946.18V99.4114C943.621 99.5709 941.074 99.8898 938.554 100.366C926.518 102.666 917.997 108.378 917.997 115.061C918.003 116.347 918.312 117.613 918.9 118.756C922.307 125.68 935.081 130.836 950.325 130.836C968.18 130.836 982.653 123.762 982.653 115.061C982.653 107.025 970.368 100.408 954.469 99.4114V73.5498H1027V55.2848H801.948ZM976.021 115.061C976.021 121.977 964.516 127.589 950.325 127.589C936.134 127.589 924.628 121.977 924.628 115.061C924.628 114.395 924.737 113.733 924.952 113.102C925.83 110.329 928.566 107.871 932.503 106.037C937.199 103.97 942.241 102.807 947.366 102.608H953.284C966.083 103.314 976.021 108.627 976.021 115.061ZM863.926 104.268C871.486 106.468 876.551 110.478 876.551 115.061C876.551 121.977 865.045 127.589 850.854 127.589C849.063 127.592 847.273 127.501 845.491 127.315C833.886 126.12 825.158 121.089 825.158 115.061C825.158 108.627 835.105 103.314 847.895 102.608H853.814C857.234 102.784 860.626 103.335 863.926 104.252V104.268Z" fill="#3F3D56"/>
<path d="M531.919 212.92H529.001V302.145H531.919V212.92Z" fill="#575A89"/>
<path d="M540.987 212.92H538.061V302.145H540.987V212.92Z" fill="#575A89"/>
<path d="M522.544 393.968C525.3 393.968 527.534 391.731 527.534 388.97C527.534 386.21 525.3 383.972 522.544 383.972C519.788 383.972 517.554 386.21 517.554 388.97C517.554 391.731 519.788 393.968 522.544 393.968Z" fill="#575A89"/>
<path d="M504.871 298.019C504.871 298.019 509.845 293.967 514.213 295.37C518.582 296.773 529.963 298.176 531.952 305.333C533.941 312.49 531.952 391.22 531.952 391.22C531.952 391.22 522.303 393.711 519.659 392.466C517.015 391.22 517.322 379.381 517.322 379.381L516.551 309.551L504.871 298.019Z" fill="#25929B"/>
<path opacity="0.1" d="M504.871 298.019C504.871 298.019 509.845 293.967 514.213 295.37C518.582 296.773 529.963 298.176 531.952 305.333C533.941 312.49 531.952 391.22 531.952 391.22C531.952 391.22 522.303 393.711 519.659 392.466C517.015 391.22 517.322 379.381 517.322 379.381L516.551 309.551L504.871 298.019Z" fill="black"/>
<path d="M550.163 387.185L529.217 391.835L529.001 388.107L528.86 314.656C528.856 311.223 528.063 307.837 526.542 304.761C525.021 301.684 522.813 298.999 520.09 296.915C520.09 296.915 530.941 296.773 539.255 300.526C541.029 301.356 542.811 302.112 544.635 302.784C546.897 303.614 549.965 305.399 550.163 308.92C550.42 313.502 551.291 358.899 551.606 375.429C551.683 379.391 551.197 383.344 550.163 387.169V387.185Z" fill="#25929B"/>
<path d="M532.499 206.295H527.633V213.933H532.499V206.295Z" fill="#535461"/>
<path opacity="0.1" d="M532.499 206.295H527.633V213.933H532.499V206.295Z" fill="black"/>
<path d="M541.642 207.507H536.776V215.145H541.642V207.507Z" fill="#535461"/>
<path d="M541.642 207.524H536.776C535.868 207.548 534.985 207.828 534.229 208.331C533.472 208.835 532.873 209.542 532.499 210.371C532.433 210.521 532.367 210.67 532.3 210.836L531.231 209.799L529.001 207.64L527.633 206.32C527.633 206.32 536.619 201.712 541.642 207.524Z" fill="#535461"/>
<path d="M543.764 397.488C546.52 397.488 548.754 395.251 548.754 392.49C548.754 389.73 546.52 387.492 543.764 387.492C541.008 387.492 538.774 389.73 538.774 392.49C538.774 395.251 541.008 397.488 543.764 397.488Z" fill="#575A89"/>
<path d="M492.23 390.664C494.986 390.664 497.22 388.426 497.22 385.666C497.22 382.906 494.986 380.668 492.23 380.668C489.474 380.668 487.24 382.906 487.24 385.666C487.24 388.426 489.474 390.664 492.23 390.664Z" fill="#575A89"/>
<path d="M501.605 296.931C501.605 296.931 487.447 300.675 486.685 336.367C485.922 372.059 485.748 375.803 485.748 375.803C485.748 375.803 486.063 386.098 506.91 392.482H519.701L521.682 310.472C521.682 310.472 519.344 298.019 501.605 296.931Z" fill="#25929B"/>
<path opacity="0.1" d="M500.362 352.266C500.362 352.266 496.731 302.361 516.294 302.137L518.126 303.93C518.126 303.93 500.984 297.712 500.362 352.266Z" fill="black"/>
<path d="M509.157 401.847C511.913 401.847 514.147 399.609 514.147 396.849C514.147 394.089 511.913 391.851 509.157 391.851C506.401 391.851 504.167 394.089 504.167 396.849C504.167 399.609 506.401 401.847 509.157 401.847Z" fill="#575A89"/>
<path opacity="0.1" d="M536.834 207.474H536.785C535.877 207.498 534.994 207.778 534.237 208.282C533.481 208.785 532.881 209.492 532.507 210.322C532.441 210.471 532.375 210.621 532.308 210.787L531.239 209.749C531.231 209.658 531.231 209.566 531.239 209.475C531.34 208.746 531.721 208.085 532.3 207.632C532.856 207.171 533.521 206.862 534.231 206.734C534.941 206.606 535.672 206.663 536.354 206.901C536.594 207.017 536.884 207.208 536.834 207.474Z" fill="black"/>
</g>
<defs>
<clipPath id="clip0_2_311">
<rect width="814" height="390" fill="white" transform="translate(213 20)"/>
</clipPath>
</defs>
</svg>
