<svg width="1239" height="430" viewBox="0 0 1239 430" fill="none" xmlns="http://www.w3.org/2000/svg">
<g clip-path="url(#clip0_67_62)">
<rect width="1239" height="430" fill="white"/>
<path d="M736.702 398.385L748.088 410.665C748.088 410.665 758.622 410.785 756.561 404.978C756.149 403.719 755.856 402.425 755.686 401.112C755.167 396.99 754.919 392.838 754.944 388.683C754.944 385.96 754.986 384.049 754.986 384.049C754.986 384.049 738.401 376.791 740.096 384.353C740.307 385.298 740.42 386.262 740.435 387.231C740.442 390.033 739.794 392.799 738.543 395.307C738.032 396.391 737.415 397.422 736.702 398.385Z" fill="#FFB9B9"/>
<path d="M710.283 416.879C714.144 420.165 719.078 421.922 724.15 421.816C733.541 421.684 751.085 421.407 755.159 421.238C760.61 420.998 758.8 416.35 758.626 413.147V412.829C758.56 409.62 757.92 402.665 756.833 401.578C755.746 400.492 752.025 406.417 752.025 406.417C752.025 406.417 744.76 408.534 742.761 402.185C740.763 395.836 736.703 395.223 736.703 395.223C734.861 394.426 734.769 399.215 734.769 399.215L719.392 407.137L710.368 408.548C710.079 408.68 709.817 408.815 709.571 408.95C705.489 411.236 707.297 414.297 710.283 416.879Z" fill="#090814"/>
<path d="M693.902 398.385L705.288 410.665C705.288 410.665 715.822 410.785 713.761 404.978C713.35 403.719 713.056 402.425 712.886 401.112C712.367 396.99 712.119 392.838 712.144 388.683C712.144 385.96 712.187 384.049 712.187 384.049C712.187 384.049 695.602 376.791 697.296 384.353C697.507 385.298 697.621 386.262 697.635 387.231C697.642 390.033 696.994 392.799 695.743 395.307C695.232 396.391 694.615 397.422 693.902 398.385Z" fill="#FFB9B9"/>
<path d="M667.484 416.879C671.345 420.165 676.279 421.922 681.351 421.816C690.741 421.684 708.286 421.407 712.36 421.238C717.811 420.998 716.001 416.35 715.827 413.147V412.829C715.761 409.62 715.12 402.665 714.033 401.578C712.947 400.492 709.226 406.417 709.226 406.417C709.226 406.417 701.96 408.534 699.962 402.185C697.963 395.836 693.904 395.223 693.904 395.223C692.061 394.426 691.97 399.215 691.97 399.215L676.592 407.137L667.569 408.548C667.28 408.68 667.018 408.815 666.771 408.95C662.69 411.236 664.498 414.297 667.484 416.879Z" fill="#090814"/>
<path d="M487.566 36.6978C487.566 36.6978 487.898 55.6892 481.246 57.3457C474.594 59.0023 490.825 76.1758 499.523 73.971C508.221 71.7661 511.575 57.8441 511.575 57.8441C511.575 57.8441 503.699 48.2262 506.691 43.0391C509.684 37.8519 487.566 36.6978 487.566 36.6978Z" fill="#A0616A"/>
<path d="M745.702 83.9531C749.137 69.7795 752.049 53.7951 745.569 40.7385C741.073 31.6779 724.44 28.6303 714.906 31.8935C705.372 35.1566 698.478 44.0096 695.444 53.6622C692.41 63.3147 692.764 73.7166 694.086 83.7541C711.623 83.4148 729.158 83.0782 745.702 83.9531Z" fill="#090814"/>
<path d="M374.351 392.214C374.615 402.048 376.264 411.797 379.25 421.172C379.316 421.389 379.39 421.604 379.461 421.821H397.739C397.72 421.626 397.7 421.408 397.681 421.172C396.462 407.173 403.425 322.991 411.827 308.421C411.091 309.603 372.934 347.735 374.351 392.214Z" fill="#E6E6E6"/>
<path d="M375.723 421.172C375.876 421.389 376.035 421.607 376.198 421.821H389.911C389.807 421.636 389.687 421.418 389.547 421.172C387.282 417.087 380.577 404.875 374.353 392.214C367.667 378.609 361.528 364.487 362.045 359.376C361.884 360.528 357.256 395.669 375.723 421.172Z" fill="#E6E6E6"/>
<path d="M597.998 406.779C598.133 411.776 598.97 416.728 600.487 421.491C600.521 421.602 600.558 421.711 600.595 421.822H609.882C609.872 421.723 609.862 421.612 609.852 421.491C609.233 414.379 612.77 371.609 617.039 364.207C616.665 364.811 597.278 384.181 597.998 406.779Z" fill="#E6E6E6"/>
<path d="M598.696 421.489C598.773 421.6 598.854 421.71 598.936 421.82H605.904C605.851 421.726 605.79 421.616 605.719 421.489C604.568 419.414 601.161 413.209 598 406.777C594.603 399.865 591.484 392.69 591.747 390.094C591.665 390.681 589.314 408.534 598.696 421.489Z" fill="#E6E6E6"/>
<path d="M543.018 121.928L519.379 138.727L534.088 140.301L554.576 122.98L543.018 121.928Z" fill="#090814"/>
<path d="M705.811 103.695L735.314 104.133L726.723 76.91L707.237 80.9772C710.338 87.6072 709.679 95.2286 705.811 103.695Z" fill="#FFB9B9"/>
<path d="M449.21 407.579H468.077L477.048 352.788H449.207L449.21 407.579Z" fill="#9F616A"/>
<path d="M441.595 213.057C441.595 213.057 435.433 219.631 445.633 245.257V385.772H471.687L484.17 316.621L497.406 216.6L441.595 213.057Z" fill="#F2F2F2"/>
<path d="M408.582 189.576C406.629 189.571 404.754 188.806 403.357 187.442C401.959 186.079 401.148 184.226 401.096 182.275L399.544 123.852L426.095 73.5268C426.698 72.3936 427.58 71.4327 428.658 70.7349C429.736 70.0371 430.974 69.6254 432.256 69.5388L452.49 68.2412L450.743 186.006L409.237 189.55C409.019 189.568 408.8 189.576 408.582 189.576Z" fill="#25929B"/>
<path d="M508.746 233.621L508.384 233.566C466.084 227.121 434.164 220.942 433.846 220.88L433.449 220.803L444.541 193.857C444.453 191.042 442.053 111.976 446.648 89.2593C451.096 67.2684 472.064 63.6647 474.451 63.3254L476.85 55.3838L507.159 71.1414L512.446 89.3182L513.52 139.137L508.746 233.621Z" fill="#090814"/>
<path d="M467.093 158.202C447.565 158.202 431.677 136.988 431.677 110.914C431.677 84.8401 447.565 63.627 467.093 63.627C486.621 63.627 502.508 84.8401 502.508 110.914C502.508 136.988 486.621 158.202 467.093 158.202ZM467.093 68.2565C450.12 68.2565 436.311 87.393 436.311 110.914C436.311 134.436 450.12 153.572 467.093 153.572C484.066 153.572 497.875 134.436 497.875 110.914C497.875 87.393 484.066 68.2565 467.093 68.2565Z" fill="#25929B"/>
<path d="M527.001 131.086C525.636 131.085 524.286 131.367 523.035 131.913C521.784 132.46 520.66 133.259 519.734 134.26H468.789L450.128 138.228L453.191 161.839L519.575 147.574C520.674 148.815 522.067 149.76 523.626 150.325C525.185 150.89 526.86 151.055 528.5 150.806C530.139 150.557 531.69 149.902 533.01 148.9C534.331 147.898 535.379 146.582 536.06 145.071C536.74 143.56 537.031 141.903 536.905 140.252C536.78 138.6 536.242 137.006 535.341 135.615C534.44 134.224 533.205 133.081 531.748 132.29C530.292 131.498 528.66 131.085 527.001 131.086Z" fill="#9F616A"/>
<path d="M523.262 52.0374C532.851 42.4576 532.851 26.9257 523.262 17.3459C513.674 7.76618 498.128 7.76619 488.539 17.3459C478.95 26.9257 478.95 42.4576 488.539 52.0374C498.128 61.6171 513.674 61.6171 523.262 52.0374Z" fill="#9F616A"/>
<path d="M482.806 15.083L481.615 12.6895L487.604 9.71341C487.604 9.71341 494.211 -1.02774 506.168 1.99071C518.124 5.00916 523.504 6.81864 523.504 6.81864L529.478 9.82188L526.479 12.8026L531.858 14.6095L528.264 16.3951L532.445 18.7965L530.195 31.1051C530.195 31.1051 526.456 21.7694 519.272 25.3367C512.088 28.9041 498.938 23.4922 498.938 23.4922L487.515 45.5717C487.515 45.5717 485.159 37.8305 480.957 39.8946C480.957 39.8959 470.225 22.8209 482.806 15.083Z" fill="#090814"/>
<path d="M696.152 166.102L695.103 146.437L684.511 137.84L678.375 156.05L644.059 201.778C642.437 202.038 640.923 202.756 639.696 203.849C638.47 204.941 637.582 206.362 637.139 207.943C636.695 209.523 636.714 211.198 637.193 212.768C637.672 214.338 638.591 215.739 639.842 216.803C641.093 217.868 642.622 218.553 644.25 218.776C645.878 218.999 647.536 218.752 649.027 218.064C650.519 217.375 651.782 216.274 652.667 214.891C653.552 213.508 654.022 211.9 654.021 210.259C654.021 210.143 654.009 210.03 654.004 209.916L696.152 166.102Z" fill="#FFB9B9"/>
<path d="M725.917 81.4458C735.826 76.0339 739.468 63.621 734.051 53.7208C728.634 43.8205 716.21 40.182 706.3 45.5939C696.391 51.0059 692.749 63.4188 698.166 73.319C703.583 83.2192 716.007 86.8577 725.917 81.4458Z" fill="#FFB9B9"/>
<path d="M741.108 59.3117C741.176 55.8713 740.551 52.4522 739.27 49.258C737.988 46.0638 736.077 43.1597 733.65 40.7184C731.223 38.2771 728.329 36.3485 725.14 35.0473C721.952 33.7461 718.534 33.099 715.09 33.1443C711.646 33.1897 708.246 33.9266 705.093 35.3113C701.94 36.6959 699.097 38.7001 696.735 41.2044C694.373 43.7088 692.539 46.6622 691.343 49.8891C690.147 53.1159 689.612 56.5502 689.771 59.9876C707.273 60.0253 724.775 60.0623 741.108 59.3117Z" fill="#090814"/>
<path d="M683.274 186.602C683.274 186.602 679.946 234.889 681.751 249.619C683.556 264.348 695.251 389.326 695.251 389.326H715.883L722.456 241.344L736.507 392.978L758.347 391.16L764.03 243.094C764.03 243.094 762.666 186.98 751.577 181.353L683.274 186.602Z" fill="#090814"/>
<path d="M706.537 234.468C695.644 234.464 684.908 231.866 675.22 226.89L675.008 226.782L683.206 172.437L682.676 107.667C682.662 105.889 683.002 104.126 683.676 102.481C684.351 100.836 685.347 99.3419 686.606 98.0854C687.865 96.829 689.361 95.8356 691.009 95.1632C692.656 94.4908 694.421 94.153 696.2 94.1693L740.189 94.5727C742.136 94.5905 744.06 95.0085 745.839 95.8008C747.618 96.593 749.214 97.7426 750.529 99.1779C751.845 100.613 752.85 102.304 753.483 104.144C754.116 105.984 754.364 107.935 754.21 109.875L750.093 161.798L763.707 203.943L761.341 207.085C754.961 215.587 746.688 222.487 737.176 227.239C727.665 231.992 717.176 234.466 706.541 234.466L706.537 234.468Z" fill="#F2F2F2"/>
<path d="M678.253 150.048L682.863 103.057L684.344 100.95C685.359 99.5077 686.649 98.2796 688.14 97.3365C689.631 96.3934 691.294 95.7538 693.033 95.4545C694.772 95.1551 696.554 95.2018 698.275 95.5919C699.996 95.9821 701.623 96.708 703.062 97.728L704.332 98.6281L703.079 146.249L678.253 150.048Z" fill="#F2F2F2"/>
<path d="M867.13 379.625C879.046 376.336 884.132 394.415 872.245 397.809C860.33 401.1 855.245 383.021 867.13 379.625Z" fill="#090814"/>
<path d="M801.06 402.896C812.976 399.608 818.062 417.686 806.175 421.081C794.261 424.369 789.175 406.29 801.06 402.896Z" fill="#090814"/>
<path d="M774.321 212.221L774.505 212.169L805.199 295.423L809.246 294.286L778.332 210.436C778.265 209.143 777.757 207.913 776.894 206.948C776.03 205.983 774.863 205.343 773.585 205.133C758.235 202.708 752.013 216.321 752.013 216.321L752.074 216.412L783.452 301.529L787.498 300.393L757.045 217.78C766.317 208.618 774.321 212.221 774.321 212.221Z" fill="#090814"/>
<path d="M809.498 407.579C805.119 407.541 800.866 406.108 797.359 403.487C793.853 400.865 791.275 397.194 790.002 393.008C784.144 373.851 770.322 327.953 768.488 315.496C766.105 299.278 779.543 294.663 779.839 294.567C780.2 294.445 785.603 292.934 793.078 290.844C805.788 287.29 824.994 281.92 825.7 281.603C828.676 280.569 831.833 280.161 834.974 280.403C838.116 280.645 841.173 281.533 843.955 283.011C846.822 284.518 849.353 286.592 851.394 289.106C853.434 291.621 854.942 294.523 855.824 297.638L875.594 367.91C876.814 372.218 876.472 376.818 874.628 380.898C872.785 384.979 869.558 388.278 865.517 390.213C850.262 397.535 827.889 407.302 809.797 407.578L809.498 407.579Z" fill="#25929B"/>
<path d="M771.057 209.341L761.119 151.34L760.01 131.764L743.943 137.021L757.494 212.968C756.947 214.446 756.817 216.046 757.119 217.593C757.421 219.139 758.143 220.573 759.205 221.738C760.268 222.902 761.631 223.753 763.144 224.195C764.658 224.638 766.265 224.657 767.788 224.249C769.312 223.841 770.694 223.023 771.783 221.883C772.872 220.743 773.627 219.326 773.964 217.787C774.302 216.248 774.209 214.645 773.697 213.155C773.184 211.665 772.271 210.344 771.058 209.337L771.057 209.341Z" fill="#FFB9B9"/>
<path d="M763.837 147.704L738.76 146.341L732.868 99.0672L733.441 98.5705C734.853 97.3467 736.494 96.4136 738.268 95.8247C740.042 95.2359 741.915 95.0029 743.779 95.1391C745.643 95.2753 747.463 95.7781 749.132 96.6186C750.801 97.4591 752.288 98.6207 753.507 100.037L754.667 101.385L754.684 101.47L763.837 147.704Z" fill="#F2F2F2"/>
<path d="M865.958 378.62L840.326 291.947L780.055 308.965L779.694 307.692L841.225 290.319L841.411 290.946L867.228 378.245L865.958 378.62Z" fill="#3F3D56"/>
<path d="M410.495 183.362L407.766 123.905L435.722 69.3074L436.9 69.9099L409.105 124.195L411.819 183.301L410.495 183.362Z" fill="#3F3D56"/>
<path d="M924.338 423.143H314.662C314.486 423.143 314.318 423.073 314.194 422.949C314.07 422.825 314 422.657 314 422.481C314 422.306 314.07 422.138 314.194 422.014C314.318 421.89 314.486 421.82 314.662 421.82H924.338C924.514 421.82 924.682 421.89 924.806 422.014C924.93 422.138 925 422.306 925 422.481C925 422.657 924.93 422.825 924.806 422.949C924.682 423.073 924.514 423.143 924.338 423.143Z" fill="#CCCCCC"/>
<path d="M453.518 166.264L447.693 148.949L446.283 91.2329L448.766 83.044C449.659 80.0966 451.139 77.3597 453.116 74.9973C455.093 72.6349 457.528 70.6957 460.273 69.2959C463.019 67.896 466.019 67.0644 469.094 66.8508C472.169 66.6371 475.255 67.0459 478.168 68.0527C481.082 69.0594 483.761 70.6433 486.047 72.7095C488.332 74.7757 490.177 77.2816 491.47 80.0772C492.763 82.8727 493.478 85.9002 493.571 88.9783C493.665 92.0565 493.136 95.1218 492.015 97.9907L478.71 132.055L479.386 133.366L508.213 133.133L518.452 151.547L453.518 166.264Z" fill="#090814"/>
<path d="M637.152 289.475L637.132 289.479L605.182 295.869L577.698 306.927C577.343 307.07 576.963 307.142 576.58 307.138C576.196 307.134 575.818 307.055 575.466 306.905C575.113 306.755 574.794 306.537 574.526 306.264C574.257 305.991 574.046 305.668 573.903 305.313C573.869 305.229 573.839 305.145 573.813 305.058L553.735 237.889C553.524 237.193 553.582 236.444 553.898 235.789C554.214 235.134 554.764 234.621 555.44 234.352L583.427 223.092L583.448 223.088L615.397 216.698L642.881 205.64C643.237 205.497 643.617 205.425 644 205.429C644.383 205.433 644.761 205.512 645.114 205.662C645.466 205.812 645.785 206.029 646.054 206.303C646.322 206.576 646.534 206.899 646.677 207.254C646.71 207.337 646.74 207.422 646.766 207.509L666.844 274.678C667.055 275.374 666.997 276.123 666.681 276.778C666.365 277.433 665.815 277.946 665.139 278.215L637.152 289.475Z" fill="#25929B"/>
<path d="M602.868 244.356C595.541 241.773 587.969 239.51 580.361 237.631L579.979 237.536L583.841 250.456L603.517 244.585L602.868 244.356ZM584.144 249.898L580.636 238.161C587.876 239.962 595.081 242.11 602.068 244.551L584.144 249.898ZM641.26 261.821C637.85 259.895 634.39 258.05 630.882 256.286C629.915 255.801 628.944 255.322 627.969 254.847C622.028 251.96 615.996 249.327 609.874 246.95L609.802 246.922L584.998 254.323L591.771 276.982L641.718 262.079L641.26 261.821ZM592.076 276.426L585.559 254.624L609.787 247.395C615.691 249.688 621.528 252.229 627.297 255.018C628.299 255.503 629.297 255.994 630.291 256.491C633.766 258.229 637.196 260.049 640.582 261.952L592.076 276.426ZM641.26 261.821C637.85 259.895 634.39 258.05 630.882 256.286C629.915 255.801 628.944 255.322 627.969 254.847C622.028 251.96 615.996 249.327 609.874 246.95L609.802 246.922L584.998 254.323L591.771 276.982L641.718 262.079L641.26 261.821ZM592.076 276.426L585.559 254.624L609.787 247.395C615.691 249.688 621.528 252.229 627.297 255.018C628.299 255.503 629.297 255.994 630.291 256.491C633.766 258.229 637.196 260.049 640.582 261.952L592.076 276.426ZM602.871 244.356C595.544 241.773 587.972 239.51 580.364 237.631L579.982 237.536L583.844 250.456L603.52 244.585L602.871 244.356ZM584.147 249.898L580.638 238.161C587.878 239.962 595.083 242.11 602.071 244.551L584.147 249.898ZM602.871 244.356C595.544 241.773 587.972 239.51 580.364 237.631L579.982 237.536L583.844 250.456L603.52 244.585L602.871 244.356ZM584.147 249.898L580.638 238.161C587.878 239.962 595.083 242.11 602.071 244.551L584.147 249.898ZM641.263 261.821C637.852 259.895 634.393 258.05 630.885 256.286C629.917 255.801 628.946 255.322 627.972 254.847C622.031 251.96 615.999 249.327 609.876 246.95L609.805 246.922L584.998 254.323L591.771 276.982L641.718 262.079L641.263 261.821ZM592.078 276.426L585.561 254.624L609.79 247.395C615.694 249.688 621.531 252.229 627.3 255.018C628.302 255.503 629.3 255.994 630.294 256.491C633.769 258.229 637.199 260.049 640.585 261.952L592.078 276.426ZM571.645 287.2L571.773 287.63L588.755 282.563L590.618 288.792L573.635 293.859L573.764 294.289L591.174 289.094L589.055 282.005L571.645 287.2ZM596.204 291.804L597.505 296.157L597.924 295.989L596.763 292.106L662.978 272.348L662.85 271.918L596.204 291.804ZM659.706 261.393L659.578 260.964L592.927 280.85L595.045 287.939L661.694 268.053L661.566 267.624L595.348 287.38L593.485 281.148L659.706 261.393ZM610.209 242.122C600.059 238.226 589.633 235.09 579.017 232.741L577.717 228.392L577.299 228.56L578.609 232.943L579.048 233.208C589.623 235.554 600.008 238.682 610.119 242.567L610.19 242.595L650.492 230.57L650.363 230.14L610.209 242.122ZM579.416 251.31L562.434 256.377L562.562 256.807L579.972 251.612L573.534 230.074L573.116 230.242L579.416 251.31ZM651.649 234.437L616.219 245.008L616.796 245.25C622.23 247.535 627.65 250.06 633.056 252.826C633.824 253.219 634.592 253.617 635.359 254.021C639.175 256.023 642.961 258.137 646.718 260.362L647.135 260.466L658.423 257.099L658.294 256.669L647.034 260.028C643.317 257.824 639.566 255.727 635.781 253.736C635.023 253.339 634.265 252.945 633.506 252.554C628.215 249.838 622.895 247.347 617.547 245.08L651.779 234.866L651.649 234.437ZM574.92 298.155L575.048 298.584L592.028 293.516L593.32 297.838L593.738 297.67L592.329 292.958L574.92 298.155ZM563.716 260.673L563.844 261.102L580.826 256.036L587.343 277.838L570.361 282.904L570.49 283.334L587.899 278.139L581.126 255.478L563.716 260.673ZM602.868 244.356C595.541 241.773 587.969 239.51 580.361 237.631L579.979 237.536L583.841 250.456L603.517 244.585L602.868 244.356ZM584.144 249.898L580.636 238.161C587.876 239.962 595.081 242.11 602.068 244.551L584.144 249.898ZM641.26 261.821C637.85 259.895 634.39 258.05 630.882 256.286C629.915 255.801 628.944 255.322 627.969 254.847C622.028 251.96 615.996 249.327 609.874 246.95L609.802 246.922L584.998 254.323L591.771 276.982L641.718 262.079L641.26 261.821ZM592.076 276.426L585.559 254.624L609.787 247.395C615.691 249.688 621.528 252.229 627.297 255.018C628.299 255.503 629.297 255.994 630.291 256.491C633.766 258.229 637.196 260.049 640.582 261.952L592.076 276.426ZM602.871 244.356C595.544 241.773 587.972 239.51 580.364 237.631L579.982 237.536L583.844 250.456L603.52 244.585L602.871 244.356ZM584.147 249.898L580.638 238.161C587.878 239.962 595.083 242.11 602.071 244.551L584.147 249.898ZM641.263 261.821C637.852 259.895 634.393 258.05 630.885 256.286C629.917 255.801 628.946 255.322 627.972 254.847C622.031 251.96 615.999 249.327 609.876 246.95L609.805 246.922L584.998 254.323L591.771 276.982L641.718 262.079L641.263 261.821ZM592.078 276.426L585.561 254.624L609.79 247.395C615.694 249.688 621.531 252.229 627.3 255.018C628.302 255.503 629.3 255.994 630.294 256.491C633.769 258.229 637.199 260.049 640.585 261.952L592.078 276.426Z" fill="white"/>
<path d="M608.573 246.38C610.199 251.82 603.962 266.882 603.962 266.882C603.962 266.882 590.48 257.705 588.855 252.266C588.468 250.973 588.34 249.616 588.478 248.273C588.616 246.93 589.017 245.627 589.659 244.439C590.301 243.251 591.171 242.201 592.219 241.349C593.267 240.497 594.473 239.86 595.768 239.473C597.063 239.087 598.421 238.959 599.765 239.097C601.109 239.235 602.413 239.636 603.602 240.277C604.791 240.919 605.842 241.788 606.695 242.835C607.548 243.882 608.186 245.087 608.573 246.38Z" fill="#F2F2F2"/>
<path d="M603.093 247.551C603.359 248.442 603.355 249.391 603.081 250.28C602.808 251.168 602.276 251.955 601.554 252.542C600.833 253.129 599.953 253.488 599.027 253.575C598.101 253.662 597.169 253.473 596.351 253.032C595.532 252.59 594.863 251.916 594.428 251.094C593.993 250.272 593.811 249.34 593.907 248.416C594.002 247.491 594.369 246.615 594.963 245.899C595.556 245.183 596.348 244.659 597.24 244.393C598.435 244.037 599.723 244.169 600.821 244.761C601.919 245.353 602.736 246.357 603.093 247.551Z" fill="#25929B"/>
<path d="M605.294 274.105C606.826 274.105 608.068 272.864 608.068 271.334C608.068 269.803 606.826 268.563 605.294 268.563C603.762 268.563 602.52 269.803 602.52 271.334C602.52 272.864 603.762 274.105 605.294 274.105Z" fill="#F2F2F2"/>
<path d="M635.558 234.9L616.282 240.653C616.258 240.661 616.234 240.666 616.209 240.669L620.609 222.172C620.636 222.057 620.692 221.952 620.773 221.866C620.853 221.78 620.956 221.717 621.069 221.683C621.182 221.649 621.302 221.646 621.416 221.674C621.531 221.702 621.636 221.76 621.721 221.842L631.004 230.603L631.449 231.023L635.558 234.9Z" fill="white"/>
<path opacity="0.2" d="M635.558 234.899L628.977 236.862L630.806 231.21L630.939 230.803L631.005 230.599L631.449 231.019L635.558 234.899Z" fill="black"/>
<path d="M646.291 231.697L629.619 236.672L631.448 231.019L631.58 230.612L633.963 223.246C634.01 223.13 634.08 223.026 634.17 222.939C634.259 222.852 634.366 222.786 634.483 222.743C634.6 222.7 634.725 222.682 634.85 222.691C634.974 222.7 635.095 222.734 635.205 222.793C635.234 222.81 635.262 222.829 635.289 222.85L646.291 231.697Z" fill="white"/>
<path d="M446.733 422.167L493.031 423.201C496.184 422.972 498.856 420.785 499.455 417.946C499.74 416.512 499.462 415.024 498.679 413.788C497.896 412.553 496.668 411.666 495.249 411.31C485.389 408.39 482.718 405.158 477.942 399.716C472.29 390.082 471.845 390.493 468.105 396.994C459.782 404.729 454.197 402.331 446.439 397.558L441.359 415.834C441.142 416.591 441.117 417.39 441.284 418.159C441.451 418.928 441.807 419.645 442.318 420.244C442.869 420.866 443.55 421.361 444.313 421.693C445.075 422.026 445.902 422.187 446.733 422.167Z" fill="#090814"/>
</g>
<defs>
<clipPath id="clip0_67_62">
<rect width="1239" height="430" fill="white"/>
</clipPath>
</defs>
</svg>
