<svg width="1239" height="430" viewBox="0 0 1239 430" fill="none" xmlns="http://www.w3.org/2000/svg">
<rect width="1239" height="430" fill="white"/>
<g clip-path="url(#clip0_40_751)">
<path opacity="0.998" d="M791.161 162.602H766.556V175.399H791.161V162.602Z" fill="#F2F2F2"/>
<path opacity="0.998" d="M773.18 69.2339H748.575V82.0306H773.18V69.2339Z" fill="#F2F2F2"/>
<path opacity="0.998" d="M790.688 83.9263H766.083V96.723H790.688V83.9263Z" fill="#F2F2F2"/>
<path opacity="0.998" d="M743.37 70.1816H718.766V82.9783H743.37V70.1816Z" fill="#F2F2F2"/>
<path opacity="0.998" d="M430.605 207.628H406V220.424H430.605V207.628Z" fill="#F2F2F2"/>
<path opacity="0.998" d="M792.58 99.5667H767.975V112.363H792.58V99.5667Z" fill="#F2F2F2"/>
<path opacity="0.998" d="M760.878 84.8743H736.273V97.671H760.878V84.8743Z" fill="#F2F2F2"/>
<path opacity="0.998" d="M820.97 197.201H796.366V209.997H820.97V197.201Z" fill="#F2F2F2"/>
<path opacity="0.998" d="M791.161 198.149H766.556V210.945H791.161V198.149Z" fill="#F2F2F2"/>
<path opacity="0.998" d="M430.605 162.602H406V175.399H430.605V162.602Z" fill="#F2F2F2"/>
<path opacity="0.998" d="M448.112 177.295H423.507V190.091H448.112V177.295Z" fill="#F2F2F2"/>
<path opacity="0.998" d="M581.073 28H556.468V40.7967H581.073V28Z" fill="#F2F2F2"/>
<path opacity="0.998" d="M775.073 264.028H750.468V276.825H775.073V264.028Z" fill="#F2F2F2"/>
<path opacity="0.998" d="M450.005 192.935H425.4V205.732H450.005V192.935Z" fill="#F2F2F2"/>
<path opacity="0.998" d="M598.58 42.6924H573.975V55.4891H598.58V42.6924Z" fill="#F2F2F2"/>
<path opacity="0.998" d="M508.678 129.426H484.073V142.222H508.678V129.426Z" fill="#F2F2F2"/>
<path opacity="0.998" d="M526.185 144.118H501.58V156.915H526.185V144.118Z" fill="#F2F2F2"/>
<path opacity="0.998" d="M573.029 136.061H548.424V148.858H573.029V136.061Z" fill="#F2F2F2"/>
<path opacity="0.998" d="M528.078 159.759H503.473V172.555H528.078V159.759Z" fill="#F2F2F2"/>
<path opacity="0.998" d="M808.195 264.028H783.59V276.825H808.195V264.028Z" fill="#F2F2F2"/>
<path d="M644.043 55.2854C653.526 55.2854 662.621 59.0589 669.327 65.7758C676.033 72.4927 679.8 81.6028 679.8 91.1019V106.382H608.285V91.1019C608.285 81.6028 612.052 72.4927 618.758 65.7758C625.464 59.0589 634.559 55.2854 644.043 55.2854Z" fill="#CACACA"/>
<path d="M644.293 139.445C666.804 139.445 685.052 126.885 685.052 111.392C685.052 95.8985 666.804 83.3386 644.293 83.3386C621.783 83.3386 603.534 95.8985 603.534 111.392C603.534 126.885 621.783 139.445 644.293 139.445Z" fill="#CACACA"/>
<path d="M618.165 138.568C618.165 138.568 626.682 183.153 618.165 195.177C609.648 207.201 644.189 211.96 644.189 211.96L679.942 198.935L684.943 166.873C684.943 166.873 663.178 154.597 667.687 129.8L618.165 138.568Z" fill="#FFB9B9"/>
<path d="M723.691 288.858C723.691 288.858 725.944 298.627 713.688 300.38C706.452 301.446 699.093 301.358 691.885 300.119L689.183 275.583H717.692L723.691 288.858Z" fill="#FFB9B9"/>
<path d="M507.292 276.356C507.292 276.356 501.879 298.39 514.134 300.38C526.389 302.371 571.387 302.385 571.387 302.385V276.318L551.013 280.678L531.887 262.308L507.292 276.356Z" fill="#FFB9B9"/>
<path opacity="0.1" d="M620.796 152.972L572.906 163.114C572.906 163.114 554.651 163.868 542.898 188.162C531.144 212.457 505.635 281.844 505.635 281.844C505.635 281.844 527.401 259.8 552.9 283.346L569.906 252.539L566.154 301.385H697.922V278.337C697.922 278.337 725.428 293.114 723.431 301.38C723.431 301.38 746.971 240.629 741.885 213.021C740.353 204.486 739.414 195.856 739.074 187.191C738.774 180.055 736.276 173.186 731.923 167.529C727.57 161.871 721.576 157.702 714.763 155.593C712.283 154.829 709.558 154.114 706.529 153.474C678.272 147.464 671.042 153.474 671.042 153.474C671.042 153.474 665.567 171.314 665.666 179.399C665.789 189.793 650.913 196.684 650.913 196.684C650.913 196.684 628.906 191.423 627.907 187.167C626.909 182.911 619.035 157.981 620.796 152.972Z" fill="black"/>
<path d="M620.796 151.972L572.906 162.114C572.906 162.114 554.651 162.868 542.898 187.162C531.144 211.457 505.631 280.853 505.631 280.853C505.631 280.853 527.397 258.81 552.896 282.356L569.901 251.549L566.149 300.38H697.922V277.337C697.922 277.337 725.428 292.114 723.431 300.38C723.431 300.38 746.971 239.629 741.885 212.021C740.353 203.486 739.414 194.856 739.074 186.191C738.774 179.055 736.276 172.186 731.923 166.529C727.57 160.871 721.576 156.702 714.763 154.593C712.283 153.829 709.558 153.114 706.529 152.474C678.272 146.464 671.042 152.474 671.042 152.474C671.042 152.474 665.567 170.313 665.666 178.399C665.789 188.793 650.913 195.684 650.913 195.684C650.913 195.684 628.906 190.423 627.907 186.167C626.909 181.911 619.035 156.981 620.796 151.972Z" fill="#25929B"/>
<path opacity="0.1" d="M669.731 149.843C667.719 144.139 667.268 137.999 668.425 132.061L618.903 140.824C618.903 140.824 619.617 144.573 620.427 150.189C623.626 153.515 627.468 156.154 631.718 157.946C635.968 159.738 640.537 160.646 645.148 160.613C649.759 160.581 654.315 159.609 658.54 157.758C662.764 155.907 666.569 153.214 669.722 149.843H669.731Z" fill="black"/>
<path d="M678.177 124.293C678.231 128.766 677.405 133.206 675.746 137.359C674.087 141.513 671.627 145.298 668.508 148.5C665.388 151.701 661.67 154.255 657.564 156.017C653.459 157.779 649.048 158.714 644.582 158.768C640.116 158.822 635.683 157.995 631.537 156.333C627.39 154.671 623.611 152.207 620.415 149.083C613.96 142.772 610.273 134.151 610.164 125.117C610.168 124.842 610.168 124.568 610.168 124.293C610.166 119.335 611.244 114.436 613.328 109.938C615.412 105.441 618.451 101.454 622.233 98.2551C626.015 95.0564 630.449 92.7233 635.224 91.419C640 90.1147 645.002 89.8706 649.881 90.7037C657.415 91.9886 664.296 95.7792 669.414 101.464C674.531 107.148 677.587 114.394 678.087 122.032C678.147 122.781 678.177 123.534 678.177 124.293Z" fill="#FFB9B9"/>
<path d="M632.322 92.3627L632.369 92.3342C625.849 94.7469 620.224 99.1043 616.254 104.819C612.283 110.534 610.157 117.33 610.164 124.293C610.164 124.568 610.164 124.843 610.164 125.117C611.221 125.089 612.261 124.839 613.215 124.383C621.505 120.506 626.464 108.648 628.433 100.377C629.142 97.4339 629.81 94.0831 632.322 92.3627Z" fill="#090814"/>
<path d="M658.351 93.32C655.659 92.0813 652.816 91.2033 649.896 90.7085C652.291 91.2606 654.43 92.6066 655.966 94.5285C656.719 95.5541 657.344 96.6683 657.826 97.8462C653.3 95.864 648.398 94.8904 643.459 94.9927C638.521 95.0949 633.663 96.2707 629.223 98.4386C631.357 103.126 637.977 105.681 642.396 107.392C647.235 109.262 652.124 110.973 657.064 112.524L652.692 108.97L662.567 110.543C662.673 108.575 662.44 106.603 661.876 104.714C663.769 106.24 666.277 106.752 668.33 108.031C672.177 110.463 673.781 115.141 675.877 119.193C676.431 120.264 677.084 121.359 678.082 122.037C677.679 115.914 675.633 110.015 672.16 104.96C668.687 99.9059 663.916 95.8843 658.351 93.32Z" fill="#090814"/>
<path d="M606.284 117.904C606.284 117.904 641.298 74.3004 681.806 117.904L678.305 108.136C678.305 108.136 659.298 80.3338 645.798 86.334C632.298 92.3342 619.04 96.6045 619.04 96.6045L606.284 117.904Z" fill="#CACACA"/>
<path opacity="0.1" d="M577.524 211.836C577.524 211.836 570.025 231.875 580.524 249.909C591.024 267.943 571.274 275.46 571.274 275.46" fill="black"/>
<path opacity="0.1" d="M699.058 193.802C699.058 193.802 712.061 210.334 703.558 225.112C695.055 239.89 695.557 275.46 695.557 275.46" fill="black"/>
<path d="M566.021 290.238H710.561C713.745 290.238 716.798 291.504 719.049 293.759C721.3 296.014 722.565 299.073 722.565 302.262H554.022C554.022 299.074 555.286 296.016 557.536 293.761C559.786 291.506 562.839 290.239 566.021 290.238Z" fill="#090814"/>
<path d="M580.728 207.576H695.859C698.283 207.576 700.682 208.054 702.921 208.983C705.16 209.912 707.195 211.273 708.908 212.99C710.622 214.706 711.981 216.744 712.908 218.986C713.836 221.229 714.313 223.632 714.313 226.06V292.991H562.274V226.06C562.274 221.158 564.218 216.456 567.679 212.99C571.14 209.523 575.833 207.576 580.728 207.576Z" fill="#090814"/>
<path d="M638.166 263.061C643.139 263.061 647.17 259.023 647.17 254.042C647.17 249.061 643.139 245.022 638.166 245.022C633.193 245.022 629.161 249.061 629.161 254.042C629.161 259.023 633.193 263.061 638.166 263.061Z" fill="white"/>
<path opacity="0.1" d="M608.285 98.2396C608.285 98.2396 642.694 63.7928 679.805 97.6093" stroke="black" stroke-miterlimit="10"/>
<path d="M688.497 96.0452H685.043V115.662H688.497V96.0452Z" fill="#CACACA"/>
<path d="M680.434 108.738C683.591 108.738 686.62 109.994 688.852 112.23C691.085 114.467 692.339 117.5 692.339 120.662V121.43C692.339 124.593 691.085 127.626 688.852 129.862C686.62 132.099 683.591 133.355 680.434 133.355V108.738Z" fill="#25929B"/>
<path d="M683.505 110.278C683.505 108.791 682.302 107.586 680.817 107.586C679.333 107.586 678.13 108.791 678.13 110.278V131.819C678.13 133.306 679.333 134.511 680.817 134.511C682.302 134.511 683.505 133.306 683.505 131.819V110.278Z" fill="#090814"/>
<path d="M599.238 116.046H602.692V96.429H599.238V116.046Z" fill="#CACACA"/>
<path d="M607.301 133.739C604.143 133.739 601.115 132.482 598.883 130.246C596.65 128.01 595.396 124.977 595.396 121.814V121.046C595.396 119.48 595.704 117.929 596.302 116.483C596.9 115.036 597.777 113.721 598.883 112.614C599.988 111.507 601.301 110.628 602.745 110.029C604.189 109.43 605.737 109.121 607.301 109.121V133.739Z" fill="#25929B"/>
<path d="M604.23 132.198C604.23 133.685 605.433 134.89 606.918 134.89C608.402 134.89 609.605 133.685 609.605 132.198V110.657C609.605 109.17 608.402 107.965 606.918 107.965C605.433 107.965 604.23 109.17 604.23 110.657V132.198Z" fill="#090814"/>
<path d="M684.636 75.0776C679.956 65.3331 669.764 53.5507 647.795 52.6075V52.5791H647.53L639.746 52.9488V52.9867C617.924 53.9915 607.779 65.7313 603.113 75.4425C600.006 82.0259 598.356 89.2044 598.277 96.486L600.965 96.4196L603.653 96.358C603.769 89.8753 605.257 83.491 608.02 77.6275C613.944 65.4374 624.846 58.9585 640.418 58.3566L647.303 57.9727C662.884 58.5699 673.791 65.0582 679.71 77.2435C682.477 83.1093 683.969 89.4969 684.087 95.9836L686.775 96.0452L689.462 96.1116C689.385 88.8339 687.738 81.6588 684.636 75.0776Z" fill="#25929B"/>
<path d="M807.419 302.418H440.849V401H807.419V302.418Z" fill="#D6D6E3"/>
<path opacity="0.1" d="M807.419 309.053H440.849V319.48H807.419V309.053Z" fill="black"/>
<path d="M832 300.996H416.258V313.793H832V300.996Z" fill="#D6D6E3"/>
</g>
<defs>
<clipPath id="clip0_40_751">
<rect width="426" height="373" fill="white" transform="translate(406 28)"/>
</clipPath>
</defs>
</svg>
