<svg width="1239" height="430" viewBox="0 0 1239 430" fill="none" xmlns="http://www.w3.org/2000/svg">
<rect width="1239" height="430" fill="white"/>
<g clip-path="url(#clip0_40_2)">
<path d="M603.937 381.859C702.528 381.859 782.451 301.973 782.451 203.429C782.451 104.886 702.528 25 603.937 25C505.346 25 425.423 104.886 425.423 203.429C425.423 301.973 505.346 381.859 603.937 381.859Z" fill="#E6E6E6"/>
<path d="M767.717 81.8613C767.281 82.8646 766.824 83.8572 766.349 84.8386C727.491 86.3983 666.044 88.257 624.299 86.4243C624.047 85.932 623.8 85.4368 623.557 84.939C620.935 79.5551 625.229 73.3578 631.183 74.0213L631.322 74.0368C631.322 74.0368 639.125 50.6396 659.932 57.1388C659.932 57.1388 706.749 -16.1332 752.265 61.4544C752.265 61.4544 752.523 61.4078 753.003 61.3653C764.026 60.3899 772.129 71.717 767.717 81.8613Z" fill="white"/>
<path d="M797.378 192.772H774.226V393.125H797.378V192.772Z" fill="#2F2E43"/>
<path d="M857.084 396.708C855.646 388.497 853.876 380.253 850.332 372.707C846.789 365.161 841.307 358.288 833.923 354.413C822.343 348.337 806.809 351.087 798.022 360.77C789.234 370.452 788.005 386.172 795.181 397.102" fill="#E6E6E6"/>
<path d="M797.53 397.702C796.333 382.615 788.109 367.989 775.195 360.089C762.281 352.189 744.866 351.706 732.095 359.836C719.324 367.966 712.369 384.719 716.648 399.235" fill="#E6E6E6"/>
<path d="M894 397.331C891.371 387.301 882.557 379.173 872.344 377.361C867.338 376.473 861.643 377.23 858.159 380.931C853.888 385.469 854.354 392.548 855.093 398.735" fill="#E6E6E6"/>
<path d="M603.937 256.41C647.344 256.41 682.532 221.239 682.532 177.853C682.532 134.466 647.344 99.2949 603.937 99.2949C560.53 99.2949 525.342 134.466 525.342 177.853C525.342 221.239 560.53 256.41 603.937 256.41Z" fill="#FF6363"/>
<path d="M893.893 397.533C893.893 400.897 654.733 405 544.534 405C434.334 405 345 402.274 345 398.91C345 395.547 434.334 392.821 544.534 392.821C654.733 392.821 893.893 394.17 893.893 397.533Z" fill="#E6E6E6"/>
<path d="M387.331 335.262L392.523 355.673L443.508 364.503V325.588L387.331 323.093V335.262Z" fill="#2F2E43"/>
<path d="M699.591 313.045H439.436V373.942H699.591V313.045Z" fill="#2F2E43"/>
<path d="M452.23 366.026C452.23 383.178 445.63 397.083 423.29 397.083C403.997 397.083 397.397 383.178 397.397 366.026C397.397 348.873 407.307 334.968 423.29 334.968C439.274 334.968 452.23 348.873 452.23 366.026Z" fill="#2F2E43"/>
<path d="M415.675 388.558C422.404 388.558 427.86 377.788 427.86 364.503C427.86 351.218 422.404 340.449 415.675 340.449C408.945 340.449 403.489 351.218 403.489 364.503C403.489 377.788 408.945 388.558 415.675 388.558Z" fill="white"/>
<path d="M415.675 370.897C420.385 370.897 424.204 367.08 424.204 362.372C424.204 357.663 420.385 353.846 415.675 353.846C410.964 353.846 407.145 357.663 407.145 362.372C407.145 367.08 410.964 370.897 415.675 370.897Z" fill="#2F2E43"/>
<path d="M695.936 398.91C715.116 398.91 730.664 381.461 730.664 359.936C730.664 338.411 715.116 320.962 695.936 320.962C676.756 320.962 661.208 338.411 661.208 359.936C661.208 381.461 676.756 398.91 695.936 398.91Z" fill="#2F2E43"/>
<path d="M531.435 392.821C546.24 392.821 558.242 379.733 558.242 363.59C558.242 347.446 546.24 334.359 531.435 334.359C516.629 334.359 504.627 347.446 504.627 363.59C504.627 379.733 516.629 392.821 531.435 392.821Z" fill="#2F2E43"/>
<path d="M580.176 405C599.356 405 614.904 387.551 614.904 366.026C614.904 344.501 599.356 327.051 580.176 327.051C560.996 327.051 545.448 344.501 545.448 366.026C545.448 387.551 560.996 405 580.176 405Z" fill="#2F2E43"/>
<path d="M573.778 392.212C585.724 392.212 595.407 379.397 595.407 363.59C595.407 347.782 585.724 334.968 573.778 334.968C561.833 334.968 552.15 347.782 552.15 363.59C552.15 379.397 561.833 392.212 573.778 392.212Z" fill="white"/>
<path d="M573.474 371.506C579.867 371.506 585.05 366.326 585.05 359.936C585.05 353.546 579.867 348.365 573.474 348.365C567.081 348.365 561.898 353.546 561.898 359.936C561.898 366.326 567.081 371.506 573.474 371.506Z" fill="#2F2E43"/>
<path d="M374.549 346.434V300.09C374.549 296.021 377.849 292.723 381.92 292.723H391.758C391.758 292.723 399.834 244.231 415.065 237.532C430.297 230.833 566.772 200.385 641.711 230.224L666.691 275.897C666.691 275.897 723.353 275.897 729.445 288.686C729.445 288.686 756.253 281.987 758.69 311.218L751.988 345.321L749.551 357.5L617.341 353.237L592.97 350.192C592.97 350.192 589.315 322.179 571.646 322.179C553.977 322.179 546.666 326.442 546.666 326.442C546.666 326.442 533.262 348.365 537.527 370.288H438.253C438.253 370.288 433.952 336.186 413.847 335.577C404.692 335.3 395.569 331.923 392.523 355.673L381.611 354.379C377.583 353.901 374.549 350.488 374.549 346.434Z" fill="#25929B"/>
<path d="M662.029 274.984H542.829C538.901 274.984 535.594 272.17 534.967 268.294L530.479 240.565C530.157 238.573 530.66 236.599 531.898 235.006C533.134 233.415 534.92 232.44 536.928 232.258C601.711 226.416 628.148 230.647 636.508 232.737C641.64 234.019 645.956 237.69 648.052 242.554L662.029 274.984Z" fill="white"/>
<path d="M489.886 280.553C488.929 280.553 487.993 280.534 487.082 280.492C485.548 280.421 484.117 279.699 483.154 278.509C482.196 277.327 481.79 275.787 482.039 274.286L486.869 245.143C487.252 242.831 489.144 241.012 491.469 240.72L514.671 237.801C517.413 237.455 519.942 239.23 520.547 241.929L526.788 269.755C527.101 271.149 526.852 272.58 526.086 273.785C525.322 274.988 524.135 275.821 522.744 276.131C515.054 277.841 501.093 280.553 489.886 280.553Z" fill="white"/>
<path d="M423.026 286.116C421.577 286.116 420.201 285.456 419.295 284.311C418.321 283.079 418.019 281.449 418.486 279.949C422.224 267.972 429.107 247.606 433.22 245.779C437.315 243.96 458.426 242.34 470.646 241.536C472.107 241.442 473.507 242.008 474.487 243.094C475.468 244.182 475.889 245.634 475.643 247.078L470.177 279.198C469.808 281.368 468.016 282.99 465.819 283.143L423.359 286.104C423.248 286.112 423.137 286.116 423.026 286.116Z" fill="white"/>
<path d="M465.025 359.936V299.55L474.075 286.25H531.56L523.514 302.083L525.369 359.936H465.025Z" stroke="#2F2E43" stroke-miterlimit="10" stroke-linecap="round"/>
<path d="M446.589 359.936H465.025" stroke="#2F2E43" stroke-miterlimit="10" stroke-linecap="round"/>
<path d="M407.3 335.262C407.3 335.262 410.8 294.169 416.893 292.036L468.071 288.077" stroke="#2F2E43" stroke-miterlimit="10" stroke-linecap="round"/>
<path d="M419.939 306.346H428.086" stroke="#2F2E43" stroke-miterlimit="10" stroke-linecap="round"/>
<path d="M481.475 299.108H470.979V303.91H481.475V299.108Z" stroke="#2F2E43" stroke-miterlimit="10" stroke-linecap="round"/>
<path d="M531.56 286.25L638.97 282.292C638.97 282.292 652.009 289.284 654.933 311.669L727.313 314.567C727.313 314.567 734.015 298.125 729.445 288.686" stroke="#2F2E43" stroke-miterlimit="10" stroke-linecap="round"/>
<path d="M633.791 327.051C641.53 327.051 647.804 320.78 647.804 313.045C647.804 305.309 641.53 299.038 633.791 299.038C626.052 299.038 619.778 305.309 619.778 313.045C619.778 320.78 626.052 327.051 633.791 327.051Z" fill="#2F2E43"/>
<path d="M633.791 323.398C639.511 323.398 644.148 318.763 644.148 313.045C644.148 307.327 639.511 302.692 633.791 302.692C628.071 302.692 623.433 307.327 623.433 313.045C623.433 318.763 628.071 323.398 633.791 323.398Z" fill="white"/>
<path d="M749.246 329.183C755.303 329.183 760.213 323.184 760.213 315.785C760.213 308.386 755.303 302.388 749.246 302.388C743.19 302.388 738.28 308.386 738.28 315.785C738.28 323.184 743.19 329.183 749.246 329.183Z" fill="#2F2E43"/>
<path d="M748.333 327.051C752.37 327.051 755.644 322.144 755.644 316.09C755.644 310.036 752.37 305.128 748.333 305.128C744.295 305.128 741.021 310.036 741.021 316.09C741.021 322.144 744.295 327.051 748.333 327.051Z" fill="white"/>
<path d="M631.659 339.535C633.677 339.535 635.314 337.218 635.314 334.359C635.314 331.5 633.677 329.183 631.659 329.183C629.64 329.183 628.003 331.5 628.003 334.359C628.003 337.218 629.64 339.535 631.659 339.535Z" fill="white"/>
<path d="M747.114 344.103C748.796 344.103 750.16 341.921 750.16 339.231C750.16 336.54 748.796 334.359 747.114 334.359C745.432 334.359 744.068 336.54 744.068 339.231C744.068 341.921 745.432 344.103 747.114 344.103Z" fill="white"/>
<path d="M736.147 339.84H647.804L649.632 327.397C649.632 320.816 654.969 315.481 661.553 315.481H723.737C730.591 315.481 736.147 321.034 736.147 327.885V339.84Z" fill="#2F2E43"/>
<path d="M777.55 217.345C777.55 217.345 744.372 212.845 755.644 172.055H760.213C760.213 172.055 754.73 192.772 776.054 203.125L777.55 217.345Z" fill="#2F2E43"/>
<path d="M795.55 231.138C795.55 231.138 816.875 201.907 816.875 190.337H810.984C810.984 190.337 805.214 207.997 792.157 210.737L795.55 231.138Z" fill="#2F2E43"/>
<path d="M740.143 188.06C738.996 196.978 729.737 203.553 720.753 203.104C711.768 202.656 703.757 196.239 699.852 188.139C695.947 180.039 695.711 170.554 697.513 161.745C688.474 149.584 683.235 134.642 682.703 119.501C682.411 111.197 683.703 102.372 688.955 95.9308C693.165 90.7679 699.764 87.636 706.427 87.6377C713.091 87.6393 719.688 90.7745 723.896 95.9395L722.754 95.8029C721.72 87.4693 720.685 79.052 721.524 70.6966C722.363 62.3411 725.251 53.9323 731.1 47.9044C737.121 41.6992 745.618 38.6018 753.966 36.3435C766.098 33.0617 778.973 31.1443 791.205 34.0286C803.438 36.9129 814.924 45.3871 818.589 57.403C828.238 57.0531 838.247 58.1275 846.663 62.8589C855.079 67.5902 861.578 76.5834 861.197 86.2271C860.815 95.8708 852.012 105.026 842.421 103.909C848.648 107.894 854.763 112.303 859.236 118.188C863.709 124.073 866.39 131.676 864.969 138.928C863.548 146.181 857.339 152.661 849.951 152.977L848.334 153.806C857.225 162.111 856.911 177.353 849.648 187.113C842.385 196.873 829.886 201.62 817.735 202.301C805.585 202.983 793.546 200.122 781.713 197.281C767.876 193.959 754.039 190.637 740.202 187.315L740.143 188.06Z" fill="#25929B"/>
<path d="M559.391 84.082C559.186 84.552 558.973 85.017 558.75 85.4768C540.545 86.2075 511.757 87.0783 492.2 86.2197C492.082 85.989 491.966 85.7571 491.852 85.5238C490.624 83.0015 492.635 80.0981 495.425 80.4089L495.49 80.4162C495.49 80.4162 499.145 69.4546 508.894 72.4995C508.894 72.4995 530.827 38.1717 552.151 74.5214C552.151 74.5214 552.272 74.4995 552.497 74.4796C557.662 74.0226 561.458 79.3294 559.391 84.082Z" fill="white"/>
<path d="M542.899 177.47C542.462 178.474 542.006 179.466 541.53 180.448C502.673 182.007 441.226 183.866 399.481 182.033C399.229 181.541 398.981 181.046 398.739 180.548C396.117 175.164 400.411 168.967 406.365 169.63L406.504 169.646C406.504 169.646 414.306 146.249 435.114 152.748C435.114 152.748 481.93 79.4758 527.447 157.063C527.447 157.063 527.704 157.017 528.185 156.974C539.208 155.999 547.31 167.326 542.899 177.47Z" fill="white"/>
</g>
<defs>
<clipPath id="clip0_40_2">
<rect width="549" height="380" fill="white" transform="translate(345 25)"/>
</clipPath>
</defs>
</svg>
