<svg width="1239" height="430" viewBox="0 0 1239 430" fill="none" xmlns="http://www.w3.org/2000/svg">
<rect width="1239" height="430" fill="white"/>
<g clip-path="url(#clip0_40_230)">
<path d="M777.545 264.884C778.002 264.926 778.461 264.827 778.86 264.6C779.258 264.373 779.577 264.029 779.774 263.615C779.97 263.201 780.035 262.736 779.958 262.284C779.881 261.832 779.668 261.414 779.346 261.088C779.3 260.861 779.267 260.699 779.221 260.472C779.243 260.425 779.266 260.377 779.288 260.329C779.8 259.262 780.616 258.37 781.634 257.765C782.652 257.159 783.826 256.868 785.008 256.928C786.191 256.987 787.33 257.394 788.282 258.099C789.233 258.803 789.956 259.772 790.358 260.885C791.966 265.328 794.068 269.801 794.421 274.436C794.576 276.485 794.374 278.545 793.825 280.524C798.51 271.451 801.188 261.476 801.677 251.277C801.797 248.718 801.774 246.154 801.608 243.597C801.47 241.501 801.239 239.415 800.917 237.34C799.157 226.081 794.75 215.4 788.057 206.174C784.705 204.138 782.057 201.124 780.472 197.539C779.897 196.25 779.512 194.884 779.328 193.485C779.714 193.553 780.107 193.604 780.493 193.647C780.614 193.659 780.741 193.671 780.862 193.683L780.907 193.687C781.333 193.726 781.76 193.642 782.139 193.443C782.517 193.245 782.83 192.941 783.04 192.569C783.25 192.197 783.348 191.773 783.322 191.346C783.296 190.92 783.147 190.51 782.894 190.167C782.736 189.953 782.578 189.739 782.42 189.525C782.18 189.196 781.934 188.872 781.694 188.542C781.666 188.511 781.64 188.478 781.616 188.443C781.34 188.067 781.064 187.698 780.788 187.322C781.361 186.518 782.112 185.857 782.982 185.391C785.994 183.811 789.985 185.188 791.98 187.938C793.981 190.688 794.208 194.425 793.316 197.703C792.459 200.488 791.134 203.106 789.398 205.446C789.548 205.657 789.704 205.862 789.853 206.073C792.587 209.944 794.933 214.073 796.86 218.402C796.565 213.639 797.404 208.875 799.311 204.5C801.226 200.429 804.616 197.083 807.625 193.627C811.24 189.475 818.152 191.682 818.499 197.174C818.502 197.227 818.505 197.28 818.508 197.333C818.075 197.552 817.65 197.785 817.233 198.033C816.71 198.349 816.294 198.815 816.04 199.371C815.786 199.927 815.706 200.547 815.81 201.149C815.914 201.751 816.198 202.307 816.624 202.746C817.051 203.184 817.6 203.483 818.199 203.604L818.26 203.616C818.039 205.13 817.703 206.624 817.255 208.087C815.965 212.168 813.844 215.938 811.027 219.162C808.21 222.386 804.757 224.993 800.885 226.82C800.631 226.936 800.383 227.052 800.129 227.161C801.982 233.304 803.027 239.662 803.239 246.075C803.352 249.857 803.159 253.643 802.661 257.395L802.686 257.262C803.696 253.112 806.107 249.437 809.514 246.857C814.571 243.085 821.521 241.933 826.926 238.963C827.501 238.631 828.159 238.47 828.823 238.499C829.487 238.528 830.128 238.747 830.672 239.128C831.216 239.51 831.639 240.039 831.891 240.653C832.144 241.267 832.216 241.941 832.098 242.594C832.088 242.641 832.079 242.687 832.07 242.733C831.272 243.016 830.492 243.348 829.735 243.727C829.302 243.945 828.877 244.179 828.46 244.427C827.936 244.743 827.52 245.209 827.266 245.765C827.012 246.321 826.932 246.94 827.036 247.542C827.141 248.144 827.425 248.701 827.851 249.139C828.277 249.577 828.826 249.877 829.425 249.998L829.487 250.01C829.531 250.018 829.569 250.027 829.613 250.035C828.126 253.167 826.11 256.019 823.655 258.467C820.625 261.428 817.021 263.739 813.065 265.258C809.109 266.778 804.885 267.474 800.65 267.304L800.644 267.303C799.262 272.24 797.371 277.02 795 281.567L777.252 280.741C777.198 280.541 777.15 280.335 777.102 280.135C778.74 280.315 780.394 280.293 782.027 280.071C780.785 278.395 779.544 276.706 778.303 275.03C778.275 274.999 778.248 274.966 778.224 274.931C777.595 274.074 776.959 273.222 776.329 272.365L776.329 272.364C776.411 269.829 776.82 267.315 777.545 264.884L777.545 264.884Z" fill="#F2F2F2"/>
<path d="M419.945 111.511C419.491 111.582 419.027 111.511 418.615 111.309C418.204 111.107 417.864 110.784 417.642 110.382C417.42 109.981 417.327 109.521 417.376 109.065C417.424 108.609 417.612 108.179 417.913 107.834C417.945 107.605 417.968 107.44 418 107.211C417.974 107.165 417.949 107.119 417.923 107.073C417.347 106.039 416.477 105.199 415.424 104.658C414.371 104.117 413.181 103.899 412.004 104.031C410.827 104.163 409.716 104.64 408.809 105.402C407.903 106.163 407.242 107.176 406.909 108.311C405.579 112.845 403.758 117.439 403.692 122.087C403.664 124.141 403.992 126.185 404.663 128.127C399.426 119.36 396.137 109.57 395.018 99.4206C394.74 96.8735 394.604 94.3129 394.612 91.7507C394.621 89.65 394.721 87.5542 394.914 85.4634C395.975 74.1172 399.714 63.1843 405.823 53.5625C409.043 51.3236 411.5 48.1521 412.861 44.4753C413.355 43.1531 413.655 41.7664 413.751 40.3583C413.371 40.4509 412.981 40.5252 412.598 40.5924C412.478 40.6118 412.353 40.6319 412.233 40.6513L412.188 40.6583C411.765 40.7235 411.333 40.6652 410.943 40.4906C410.553 40.316 410.222 40.0325 409.99 39.6742C409.757 39.3158 409.633 38.8979 409.633 38.4709C409.632 38.0438 409.755 37.6257 409.987 37.2669C410.132 37.0437 410.276 36.8206 410.421 36.5976C410.64 36.2537 410.866 35.9155 411.084 35.5716C411.11 35.5384 411.134 35.5037 411.156 35.4677C411.408 35.0755 411.661 34.6895 411.913 34.2972C411.292 33.5305 410.501 32.9175 409.604 32.5061C406.5 31.1151 402.602 32.7359 400.781 35.6033C398.954 38.4714 398.958 42.216 400.051 45.4324C401.078 48.1587 402.562 50.6904 404.44 52.919C404.304 53.1386 404.16 53.3527 404.024 53.5723C401.536 57.6048 399.449 61.8712 397.793 66.3105C397.794 61.5388 396.661 56.835 394.488 52.5861C392.325 48.6412 388.734 45.5111 385.517 42.2473C381.653 38.3268 374.89 40.9562 374.884 46.4592C374.883 46.5124 374.884 46.5657 374.884 46.6189C375.33 46.8101 375.768 47.0168 376.2 47.239C376.742 47.5216 377.186 47.9612 377.474 48.5003C377.762 49.0395 377.88 49.6529 377.813 50.2604C377.746 50.8678 377.497 51.4409 377.099 51.9045C376.7 52.3681 376.171 52.7006 375.58 52.8585L375.52 52.8746C375.834 54.3715 376.262 55.8423 376.799 57.2743C378.34 61.2678 380.689 64.9002 383.7 67.9438C386.711 70.9874 390.319 73.3765 394.297 74.9614C394.557 75.0611 394.812 75.1615 395.072 75.2549C393.603 81.5007 392.952 87.911 393.137 94.3244C393.258 98.1069 393.685 101.873 394.414 105.587L394.381 105.456C393.117 101.376 390.482 97.8568 386.923 95.4929C381.642 92.0402 374.634 91.3193 369.056 88.6889C368.461 88.3927 367.794 88.2726 367.134 88.3428C366.473 88.413 365.846 88.6706 365.327 89.0851C364.808 89.4996 364.419 90.0537 364.205 90.6823C363.99 91.3108 363.961 91.9874 364.119 92.6323C364.131 92.6781 364.143 92.7239 364.155 92.7696C364.969 93.0022 365.768 93.2852 366.547 93.6171C366.993 93.8083 367.431 94.015 367.863 94.2372C368.405 94.5197 368.849 94.9594 369.137 95.4985C369.425 96.0377 369.543 96.6511 369.476 97.2586C369.409 97.866 369.16 98.439 368.762 98.9027C368.363 99.3663 367.834 99.6988 367.244 99.8567L367.183 99.8728C367.139 99.8839 367.102 99.8945 367.058 99.9056C368.736 102.939 370.924 105.662 373.527 107.954C376.734 110.722 380.474 112.806 384.516 114.078C388.558 115.35 392.818 115.784 397.034 115.353L397.04 115.352C398.724 120.194 400.907 124.849 403.554 129.24L421.217 127.32C421.259 127.117 421.294 126.908 421.33 126.706C419.706 126.986 418.054 127.067 416.411 126.946C417.546 125.197 418.681 123.435 419.816 121.685C419.842 121.652 419.866 121.617 419.888 121.581C420.463 120.687 421.046 119.797 421.621 118.903L421.621 118.902C421.382 116.377 420.819 113.893 419.945 111.512L419.945 111.511Z" fill="#F2F2F2"/>
<path d="M663.973 104.97C664.847 105.21 665.658 105.639 666.348 106.227C667.039 106.814 667.592 107.546 667.969 108.37C668.346 109.194 668.537 110.091 668.53 110.997C668.522 111.903 668.316 112.797 667.926 113.614L677.404 124.146L672.405 131.463L659.229 116.403C657.897 115.656 656.886 114.448 656.387 113.006C655.887 111.564 655.934 109.99 656.519 108.58C657.104 107.171 658.186 106.025 659.559 105.36C660.933 104.694 662.503 104.555 663.973 104.97Z" fill="#A0616A"/>
<path d="M752.708 130.829C751.853 129.439 750.733 128.232 749.41 127.276C748.088 126.319 746.589 125.634 745.001 125.258C743.413 124.881 741.766 124.822 740.154 125.084C738.543 125.345 737 125.922 735.612 126.781L704.44 146.075L670.814 117.51L662.448 125.294L699.595 173.459L747.874 148.306C746.747 148.893 754.069 133.044 752.708 130.829Z" fill="#CCCCCC"/>
<path d="M690.955 194.983C690.958 210.369 687.928 225.604 682.038 239.819C676.148 254.035 667.513 266.951 656.627 277.83C645.74 288.709 632.816 297.339 618.592 303.225C604.368 309.111 589.123 312.14 573.727 312.137C508.985 312.137 456.5 259.684 456.5 194.983C456.489 182.398 458.507 169.893 462.479 157.95C470.275 134.625 485.211 114.339 505.175 99.9613C525.139 85.5836 549.12 77.8416 573.727 77.8298C594.95 77.8225 615.776 83.5747 633.983 94.4725C652.189 105.37 667.093 121.005 677.103 139.706C679.584 144.32 681.749 149.098 683.583 154.006C683.837 154.689 684.084 155.372 684.325 156.062V156.069C685.4 159.102 686.346 162.191 687.165 165.337C689.689 175.017 690.963 184.98 690.955 194.983Z" fill="#3F3D56"/>
<path d="M560.902 115.941C555.634 113.094 549.784 111.487 543.8 111.242C537.816 110.998 531.855 112.122 526.372 114.529C521.544 116.629 516.46 120.396 514.85 127.198C521.364 123.356 529.796 129.426 531.472 139.164L531.081 139.272C530.195 146.016 532.172 153.359 535.998 157.542C536.5 153.197 539.358 150.241 542.169 148.394C544.981 146.547 548.091 145.206 550.236 142.031C552.78 138.268 553.426 132.767 554.437 127.75C555.447 122.732 557.364 117.339 560.902 115.941Z" fill="white"/>
<path d="M524.44 173.336C522.636 176.043 520.226 177.742 518.064 179.857C515.908 181.979 513.857 184.843 513.427 188.52C513.153 190.876 513.577 193.271 513.518 195.654C513.459 198.036 512.665 200.717 511.043 201.309C508.484 202.234 506.53 197.482 503.899 197.15C501.808 196.89 499.926 200.177 500.532 203.028C501.138 205.878 503.984 207.141 505.618 205.28C507.097 207.759 506.055 212.257 503.834 213.018C503.599 214.58 503.365 216.136 503.137 217.698C497.523 213.773 491.851 209.784 487.077 204.036C481.768 197.699 478.475 189.92 477.62 181.699C477.002 175.093 477.92 167.537 474.885 162.454C472.456 158.386 468.288 157.488 464.536 157.741C463.853 157.787 463.162 157.865 462.479 157.95C464.691 151.309 467.501 144.883 470.873 138.75C471.637 138.422 472.346 137.981 472.977 137.441C476.468 134.48 478.018 128.486 480.851 124.34C481.033 124.073 481.222 123.812 481.417 123.559C484.315 119.777 488.197 117.831 491.948 116.022C500.252 111.993 508.796 107.912 517.562 108.472L515.068 108.713C512.157 116.861 509.244 125.01 506.328 133.159C505.885 134.408 505.438 135.66 504.987 136.914C503.332 141.548 501.626 146.482 501.88 151.669C502.03 154.741 503.098 158.021 505.13 159.076C507.025 160.052 509.096 158.854 510.926 157.67C511.701 157.175 512.47 156.68 513.245 156.179C516.025 154.389 519.106 152.554 522.043 153.752C524.733 154.845 526.719 158.496 527.097 162.434C527.443 166.262 526.509 170.096 524.44 173.336Z" fill="white"/>
<path d="M540.979 228.969C532.857 223.971 524.735 218.974 516.613 213.976L516.751 213.621C511.701 215.543 509.605 224.514 510.439 231.85C511.274 239.186 514.104 245.744 515.533 252.892C517.461 262.674 516.733 272.794 513.426 282.2C524.106 270.224 533.558 257.208 541.639 243.348C542.768 241.601 543.628 239.695 544.191 237.693C544.707 235.563 544.628 233.002 543.594 231.294C542.93 230.314 542.031 229.515 540.979 228.969Z" fill="white"/>
<path d="M508.925 138.048C508.062 139.986 507.731 142.57 508.513 144.575C509.312 146.623 511.002 147.548 512.558 148.319L517.046 150.542C518.539 151.281 520.148 152.028 521.67 151.42C523.505 150.686 524.778 147.81 524.449 145.14C524.099 142.299 522.306 140.344 520.649 138.68C518.33 136.351 516.01 134.022 513.691 131.693L512.384 133.293C510.97 134.671 509.8 136.279 508.925 138.048Z" fill="white"/>
<path d="M666.897 168.422C668.916 168.897 670.935 169.372 672.954 169.847C672.602 176.662 669.222 182.969 664.689 185.253C662.801 186.203 660.697 186.555 659.134 188.332C657.721 189.946 657.005 192.458 656.347 194.86C655.194 199.051 654.041 203.243 652.889 207.434C651.651 211.951 650.062 216.969 646.845 218.596C644.084 219.995 640.925 218.284 638.802 215.413C636.679 212.543 635.383 208.684 634.126 204.922C634.204 209.022 632.296 213.044 629.593 214.47C626.884 215.895 623.588 214.606 621.778 211.424C620.475 209.139 619.935 206.126 618.658 203.809C617.382 201.492 614.705 200.164 613.311 202.338C612.393 203.783 612.51 205.996 612.054 207.831C611.344 210.682 609.195 212.472 607.066 212.628C604.943 212.784 602.872 211.56 601.094 209.901C597.427 206.464 594.724 201.01 593.676 194.951C593.213 192.25 593.083 189.308 593.884 186.776C594.685 184.244 596.619 182.292 598.541 182.773C599.804 180.105 597.31 176.564 595.063 176.876C592.809 177.189 591.045 179.604 589.195 181.459C587.352 183.313 584.773 184.661 582.917 182.819C582.93 184.53 581.536 185.663 580.331 185.52C579.133 185.383 578.065 184.42 576.964 183.736C572.712 181.087 567.313 182.845 564.291 187.856C566.179 179.825 568.947 170.609 574.75 168.721C577.121 167.947 579.706 168.585 581.946 167.244C585.913 164.868 586.714 155.893 583.288 152.19C583.724 155.691 583.64 159.779 581.79 162.174C579.941 164.569 576.059 163.007 576.293 159.466C575.759 161.907 573.102 162.278 571.878 160.403C570.647 158.529 570.751 155.463 571.624 153.224C572.497 150.986 573.981 149.378 575.421 147.835C578.514 144.523 581.653 141.171 585.235 139.088C588.824 137.005 592.966 136.302 596.561 138.372C598.456 139.465 600.123 141.288 602.057 142.251C603.992 143.221 606.447 143.097 607.73 140.832C609.169 138.307 608.492 134.558 609.026 131.401C609.983 125.824 615.565 123.214 618.658 126.897C616.346 126.305 613.956 129.039 613.669 132.352C613.376 135.664 615.05 139.01 617.29 140.012C621.055 141.678 624.741 137.487 627.587 133.608C630.557 129.546 633.531 125.487 636.509 121.43C636.985 120.74 637.519 120.091 638.105 119.491C639.038 118.582 640.281 118.062 641.584 118.035C642.886 118.009 644.15 118.478 645.119 119.348C648.128 121.801 649.541 126.832 652.009 130.295C655.591 135.326 660.951 136.55 665.94 137.526C669.659 138.248 673.38 138.975 677.103 139.706C679.584 144.32 681.749 149.098 683.583 154.006C677.278 156.681 671.463 161.686 666.897 168.422Z" fill="white"/>
<path d="M678.92 246.733C676.129 252.394 672.884 257.821 669.216 262.958C666.871 261.956 664.351 263.746 662.156 265.425C659.864 267.182 657.109 268.894 654.758 267.293C652.355 265.653 651.58 261.064 652.342 257.426C653.103 253.794 655.005 250.904 656.848 248.158C658.802 245.242 660.893 242.216 663.608 241.083C666.331 239.951 669.828 241.552 670.622 245.418L672.55 245.353C671.469 243.869 672.036 240.797 673.488 240.256C675.162 239.625 676.614 241.923 677.604 243.953C678.047 244.871 678.496 245.795 678.92 246.733Z" fill="white"/>
<path d="M605.089 219.241C600.945 219.501 597.663 214.404 595.482 209.389C593.301 204.374 591.311 198.639 587.572 196.086C585.436 194.627 583 194.427 580.683 193.72C578.366 193.014 575.941 191.551 574.833 188.573L572.204 187.512C568.733 189.462 565.216 191.449 562.225 194.623C558.87 198.184 556.781 202.749 556.279 207.615C555.777 212.872 557.631 218.735 561.095 220.71C563.832 222.271 567.02 221.287 569.792 222.716C573.257 224.501 575.314 229.687 576.092 234.806C576.871 239.926 576.673 245.247 577.23 250.425C577.787 255.603 579.323 260.991 582.5 263.645C586.475 266.965 592.309 264.206 594.093 258.161C594.968 255.196 594.938 251.851 595.592 248.773C596.745 243.353 599.854 239.332 602.321 234.885C604.788 230.439 606.729 224.401 605.089 219.241Z" fill="white"/>
<path d="M564.144 165.981C564.53 166.336 564.891 166.719 565.223 167.126C565.567 167.718 565.742 168.392 565.73 169.077C565.719 169.761 565.52 170.429 565.157 171.009C565.656 170.981 566.144 170.849 566.589 170.623C567.035 170.397 567.429 170.08 567.746 169.694C568.502 168.833 569.168 167.897 569.731 166.9C570.154 166.211 570.603 165.28 570.317 164.462C570.121 163.903 569.658 163.665 569.333 163.245C568.819 162.58 568.692 161.523 568.425 160.61C567.85 158.637 566.473 157.186 564.978 156.979L565.186 157.018C564.561 157.232 564.125 158.223 564.263 159.115C564.389 159.927 564.911 160.602 564.859 161.43C564.784 162.621 563.593 163.18 563.52 164.372C563.508 164.969 563.732 165.547 564.144 165.981Z" fill="white"/>
<path d="M557.045 145.739C557.051 145.737 557.057 145.737 557.063 145.735C557.191 145.619 557.309 145.494 557.417 145.359L557.045 145.739Z" fill="#E6E6E6"/>
<path d="M558.287 151.33C559.204 150.742 559.715 149.113 559.412 147.751C559.111 146.396 558.046 145.486 557.063 145.736C556.778 146.025 556.424 146.236 556.035 146.351C555.645 146.465 555.233 146.479 554.837 146.391C554.23 146.234 553.563 145.832 553.036 146.289C552.734 146.631 552.523 147.043 552.422 147.487C552.227 148.085 552.032 148.683 551.837 149.281C551.744 149.496 551.72 149.733 551.768 149.962C551.805 150.053 551.865 150.134 551.943 150.195C552.02 150.257 552.112 150.297 552.21 150.313C553.38 150.658 554.55 151.002 555.72 151.347C556.573 151.598 557.494 151.84 558.287 151.33Z" fill="white"/>
<path d="M646.626 228.521C646.085 227.636 645.544 226.751 645.003 225.866C644.472 224.841 643.746 223.929 642.865 223.182C642.671 223.02 642.447 222.899 642.206 222.824C641.964 222.75 641.711 222.725 641.459 222.75C641.208 222.775 640.964 222.85 640.742 222.971C640.521 223.091 640.325 223.255 640.167 223.452L640.233 223.958C641.466 225.504 642.771 227.221 643.083 229.515C643.207 230.42 643.164 231.356 643.272 232.264C643.38 233.173 643.688 234.115 644.274 234.506C645.126 235.075 646.126 234.237 646.732 233.214C647.274 232.373 647.517 231.375 647.422 230.38C647.287 229.712 647.016 229.079 646.626 228.521Z" fill="white"/>
<path d="M670.699 194.721C670.856 193.695 671.012 192.67 671.169 191.645C671.423 190.519 671.454 189.354 671.262 188.216C671.218 187.967 671.125 187.73 670.988 187.518C670.851 187.306 670.673 187.123 670.465 186.98C670.257 186.838 670.022 186.739 669.774 186.688C669.527 186.638 669.272 186.637 669.024 186.687L668.749 187.116C668.696 189.092 668.587 191.245 667.348 193.202C666.86 193.973 666.224 194.662 665.721 195.426C665.218 196.191 664.846 197.109 665.043 197.786C665.328 198.77 666.634 198.772 667.757 198.379C668.713 198.085 669.542 197.478 670.11 196.656C670.437 196.058 670.638 195.399 670.699 194.721Z" fill="#E6E6E6"/>
<path d="M655.111 229.672C655.376 228.913 654.994 228.041 654.913 227.201C654.875 226.117 655.162 225.046 655.739 224.126C656.312 223.259 656.747 222.308 657.026 221.307C657.144 220.85 657.123 220.37 656.965 219.926C656.786 219.524 656.352 219.34 656.103 219.659L656.635 220.001C655.917 219.873 655.178 219.909 654.475 220.106C654.074 220.259 653.716 220.507 653.431 220.828C653.146 221.149 652.942 221.534 652.838 221.95C652.75 222.599 652.606 223.24 652.408 223.864C652.091 224.516 651.476 224.733 651.09 225.306C650.827 225.813 650.694 226.379 650.703 226.95C650.713 227.522 650.864 228.082 651.144 228.581C651.629 229.396 652.401 230.002 653.308 230.281C653.958 230.514 654.814 230.526 655.111 229.672Z" fill="white"/>
<path d="M670.222 234.229C670.457 234.84 670.772 235.417 671.158 235.946C671.882 236.674 672.865 236.227 673.743 236.05C674.539 235.924 675.355 236.016 676.103 236.316C676.851 236.616 677.504 237.113 677.993 237.754C677.653 236.057 676.91 234.467 675.827 233.117C674.745 231.767 673.353 230.697 671.771 229.995C669.702 229.153 667.523 229.071 665.371 228.995L665 229.091C665.947 231.845 668.92 231.784 670.222 234.229Z" fill="white"/>
<path d="M606.222 239.863L606.228 239.875C606.264 239.806 606.3 239.737 606.336 239.667L606.222 239.863Z" fill="#E6E6E6"/>
<path d="M603.93 244.298C603.43 245.205 603 246.148 602.644 247.121C602.172 248.696 601.86 250.314 601.712 251.952C601.595 252.883 601.559 254.072 602.143 254.526C602.31 254.637 602.513 254.683 602.712 254.656C602.911 254.629 603.094 254.531 603.226 254.379C603.55 254.036 603.815 253.642 604.011 253.212C605.158 251.238 606.049 249.125 606.662 246.926C607.22 244.609 607.215 241.881 606.228 239.875C605.462 241.349 604.696 242.824 603.93 244.298Z" fill="white"/>
<path d="M581.815 126.158C582.179 126.513 582.639 126.755 583.139 126.852C583.639 126.95 584.156 126.899 584.628 126.706C585.604 126.28 586.499 125.689 587.274 124.959C587.916 124.485 588.461 123.891 588.878 123.21C589.108 122.804 589.256 122.356 589.312 121.892C589.369 121.428 589.333 120.958 589.207 120.508C588.844 119.449 587.925 119.094 587.113 118.853C585.814 118.468 584.516 118.083 583.217 117.699L584.156 116.852C583.19 116.334 582.12 117.296 581.516 118.487C581.129 119.265 580.858 120.096 580.714 120.953C580.391 122.823 580.707 125.049 581.815 126.158Z" fill="#E6E6E6"/>
<path d="M604.746 118.464C605.112 118.868 605.618 119.117 606.161 119.161C606.704 119.205 607.244 119.041 607.67 118.702C608.037 118.427 608.342 118.077 608.565 117.676C608.788 117.275 608.924 116.831 608.963 116.374C609.055 115.353 608.55 114.218 607.829 114.13L607.994 113.174C606.604 112.923 604.894 112.873 604.149 114.56C603.898 115.206 603.821 115.907 603.926 116.592C604.03 117.277 604.313 117.923 604.746 118.464Z" fill="#E6E6E6"/>
<path d="M601.683 67.6296C593.535 66.7111 585.356 69.0649 578.944 74.1732C572.533 79.2814 568.415 86.7256 567.496 94.8683C565.582 111.824 574.521 148.645 590.818 163.887C598.491 134.685 625.381 117.363 628.939 101.795C632.74 85.1593 618.65 69.5423 601.683 67.6296Z" fill="#25929B"/>
<path d="M596.047 105.325C601.616 105.325 606.13 100.814 606.13 95.2488C606.13 89.6837 601.616 85.1724 596.047 85.1724C590.479 85.1724 585.965 89.6837 585.965 95.2488C585.965 100.814 590.479 105.325 596.047 105.325Z" fill="white"/>
<path d="M585.446 178.416C589.093 178.416 592.05 175.461 592.05 171.816C592.05 168.171 589.093 165.217 585.446 165.217C581.799 165.217 578.842 168.171 578.842 171.816C578.842 175.461 581.799 178.416 585.446 178.416Z" fill="#25929B"/>
<path opacity="0.2" d="M604.39 88.0295C605.525 88.711 606.514 89.6093 607.302 90.673C608.089 91.7367 608.66 92.945 608.98 94.2289C609.3 95.5129 609.364 96.8473 609.169 98.1559C608.973 99.4646 608.521 100.722 607.839 101.856C607.157 102.99 606.258 103.979 605.194 104.766C604.13 105.553 602.921 106.123 601.636 106.443C599.041 107.09 596.296 106.68 594.004 105.303C596.341 105.823 598.786 105.494 600.903 104.376C603.02 103.258 604.669 101.424 605.557 99.2018C606.444 96.9795 606.51 94.5143 605.745 92.2473C604.979 89.9803 603.432 88.0596 601.378 86.8289C602.44 87.0641 603.457 87.4695 604.39 88.0295Z" fill="#231F20"/>
<path opacity="0.2" d="M628.978 101.827C625.42 117.396 598.531 134.717 590.857 163.92C589.325 162.473 587.901 160.914 586.598 159.257C595.221 131.807 620.437 115.128 623.875 100.086C626.951 86.6233 618.309 73.8289 605.907 68.4241C620.919 72.1953 632.462 86.5827 628.978 101.827Z" fill="#231F20"/>
<path d="M507.197 106.946C501.078 106.257 494.936 108.024 490.121 111.86C485.307 115.696 482.214 121.287 481.524 127.402C480.087 140.135 486.799 167.786 499.038 179.233C504.8 157.302 524.993 144.294 527.665 132.603C530.52 120.111 519.938 108.383 507.197 106.946Z" fill="#25929B"/>
<path d="M502.965 135.254C507.147 135.254 510.537 131.866 510.537 127.687C510.537 123.508 507.147 120.12 502.965 120.12C498.783 120.12 495.393 123.508 495.393 127.687C495.393 131.866 498.783 135.254 502.965 135.254Z" fill="white"/>
<path d="M495.004 190.143C497.743 190.143 499.963 187.924 499.963 185.187C499.963 182.45 497.743 180.231 495.004 180.231C492.265 180.231 490.044 182.45 490.044 185.187C490.044 187.924 492.265 190.143 495.004 190.143Z" fill="#25929B"/>
<path opacity="0.2" d="M509.23 122.266C510.082 122.777 510.825 123.452 511.417 124.251C512.008 125.05 512.436 125.957 512.677 126.921C512.918 127.885 512.966 128.888 512.819 129.87C512.672 130.853 512.332 131.797 511.82 132.649C511.308 133.501 510.633 134.243 509.834 134.834C509.035 135.425 508.127 135.853 507.162 136.094C506.197 136.334 505.194 136.382 504.211 136.235C503.227 136.088 502.283 135.749 501.43 135.238C503.185 135.628 505.022 135.381 506.612 134.542C508.201 133.702 509.44 132.325 510.106 130.656C510.772 128.987 510.822 127.136 510.247 125.433C509.673 123.731 508.51 122.288 506.968 121.364C507.766 121.541 508.53 121.845 509.23 122.266Z" fill="#231F20"/>
<path opacity="0.2" d="M527.695 132.627C525.023 144.319 504.83 157.327 499.067 179.257C497.916 178.17 496.847 177 495.869 175.755C502.345 155.141 521.281 142.616 523.862 131.32C526.173 121.21 519.683 111.602 510.37 107.543C521.643 110.375 530.311 121.179 527.695 132.627Z" fill="#231F20"/>
<path d="M744.254 381.065H735.94L731.985 349.019L744.256 349.019L744.254 381.065Z" fill="#A0616A"/>
<path d="M748.726 396.841H742.827L741.774 391.275L739.077 396.841H723.431C722.681 396.841 721.951 396.601 721.347 396.157C720.743 395.713 720.297 395.087 720.073 394.372C719.85 393.656 719.862 392.888 720.106 392.18C720.351 391.471 720.816 390.859 721.433 390.433L733.927 381.81V376.183L747.069 376.967L748.726 396.841Z" fill="#2F2E41"/>
<path d="M712.053 381.065H703.74L699.785 349.019L712.055 349.019L712.053 381.065Z" fill="#A0616A"/>
<path d="M716.526 396.841H710.626L709.573 391.275L706.877 396.841H691.231C690.481 396.841 689.75 396.601 689.146 396.157C688.542 395.713 688.096 395.087 687.873 394.372C687.65 393.656 687.661 392.888 687.906 392.18C688.15 391.471 688.615 390.859 689.232 390.433L701.727 381.81V376.183L714.868 376.967L716.526 396.841Z" fill="#2F2E41"/>
<path d="M680.469 296.455C682.06 298.84 699.368 364.401 699.368 364.401L714.714 366.15L712.893 349.654L710.108 320.463L705.797 300.979C705.797 300.979 721.022 266.35 721.985 263.591L722.669 261.612L727.426 304.755C727.991 306.295 728.237 307.934 728.15 309.572C728.007 312.267 730.711 352.81 730.711 352.81L732.011 367.35L745.16 369.176L750.494 344.018C754.949 335.846 752.396 306.806 750.574 304.103C748.753 301.4 749.476 282.575 749.476 282.575C751.802 281.757 765.674 234.487 758.736 234.766C759.181 232.246 759.531 229.996 759.531 229.996L747.488 220.289L717.347 212.459L709.743 208.81C709.743 208.81 696.162 233.907 696.297 235.155C696.484 236.736 696.122 238.333 695.271 239.679L681.559 285.54C681.559 285.54 678.862 294.047 680.469 296.455Z" fill="#2F2E41"/>
<path d="M756.192 132.345L751.397 122.171L735.077 122.798L729.754 133.382C729.754 133.382 714.541 151.541 714.049 157.446C713.429 164.872 718.576 201.268 713.429 198.909C713.429 198.909 701.296 213.142 708.475 213.142C715.655 213.142 748.133 233.517 750.264 235.809C752.395 238.1 761.909 239.585 761.111 234.802C760.313 230.018 756.192 204.148 756.192 204.148L767.35 163.469C770.561 154.686 771.56 144.835 764.301 138.936L756.192 132.345Z" fill="#CCCCCC"/>
<path d="M695.742 102.4C693.559 101.534 691.227 101.107 688.878 101.141C686.53 101.176 684.212 101.673 682.055 102.603C679.899 103.533 677.947 104.879 676.312 106.563C674.676 108.247 673.388 110.237 672.521 112.418C668.877 121.593 668.273 143.502 675.055 154.482C683.774 139.346 701.415 133.757 705.766 125.606C710.415 116.897 704.922 106.042 695.742 102.4Z" fill="#25929B"/>
<path d="M688.401 122.791C691.622 122.791 694.233 120.181 694.233 116.962C694.233 113.743 691.622 111.133 688.401 111.133C685.179 111.133 682.568 113.743 682.568 116.962C682.568 120.181 685.179 122.791 688.401 122.791Z" fill="white"/>
<path d="M670.852 161.911C672.961 161.911 674.672 160.202 674.672 158.093C674.672 155.985 672.961 154.275 670.852 154.275C668.742 154.275 667.031 155.985 667.031 158.093C667.031 160.202 668.742 161.911 670.852 161.911Z" fill="#25929B"/>
<path opacity="0.2" d="M694.154 114.198C695.223 115.315 695.804 116.809 695.77 118.354C695.737 119.898 695.091 121.366 693.975 122.435C692.859 123.504 691.364 124.087 689.818 124.055C688.273 124.023 686.803 123.379 685.733 122.264C686.958 122.909 688.373 123.097 689.725 122.794C691.076 122.491 692.275 121.717 693.108 120.611C693.941 119.506 694.353 118.14 694.27 116.758C694.187 115.376 693.614 114.07 692.655 113.071C693.213 113.363 693.719 113.744 694.154 114.198Z" fill="#231F20"/>
<path opacity="0.2" d="M705.783 125.63C701.432 133.781 683.791 139.37 675.072 154.507C674.436 153.466 673.878 152.38 673.403 151.258C682.386 137.244 698.995 131.759 703.199 123.884C706.961 116.836 704.081 108.383 697.979 103.485C705.786 107.867 710.043 117.649 705.783 125.63Z" fill="#231F20"/>
<path d="M669.13 156.779C670.018 156.596 670.935 156.61 671.818 156.819C672.7 157.029 673.525 157.43 674.236 157.993C674.946 158.556 675.524 159.267 675.93 160.078C676.335 160.888 676.558 161.778 676.582 162.684L689.814 167.76L688.689 176.548L670.103 169.118C668.578 169.057 667.128 168.44 666.027 167.383C664.927 166.325 664.253 164.901 664.133 163.38C664.013 161.859 664.455 160.347 665.376 159.131C666.297 157.914 667.633 157.077 669.13 156.779Z" fill="#A0616A"/>
<path d="M761.586 138.668C760.193 137.818 758.646 137.251 757.033 137C755.42 136.749 753.774 136.819 752.188 137.205C750.602 137.592 749.108 138.287 747.792 139.252C746.475 140.216 745.362 141.431 744.517 142.826L725.524 174.171L682.582 163.998L678.669 174.732L733.661 200.764L761.513 156.432C765.683 150.575 767.725 142.414 761.586 138.668Z" fill="#CCCCCC"/>
<path d="M762.296 100.255C762.297 103.276 761.556 106.251 760.138 108.919C758.72 111.587 756.668 113.866 754.163 115.557C751.658 117.248 748.776 118.298 745.769 118.615C742.763 118.933 739.725 118.508 736.921 117.378C734.118 116.248 731.635 114.448 729.69 112.135C727.745 109.822 726.398 107.068 725.767 104.113C725.136 101.159 725.241 98.0948 726.071 95.19C726.902 92.2853 728.434 89.6288 730.531 87.4537L730.62 87.3652C730.768 87.2101 730.916 87.0551 731.071 86.9074C731.072 86.9074 731.073 86.9072 731.074 86.9069C731.074 86.9065 731.075 86.906 731.076 86.9053C731.077 86.9046 731.077 86.9038 731.078 86.9028C731.078 86.9019 731.078 86.901 731.078 86.9C731.27 86.7228 731.462 86.5457 731.662 86.3759C734.33 84.0378 737.617 82.5179 741.127 81.9981C744.638 81.4783 748.224 81.9807 751.456 83.4451C754.688 84.9095 757.43 87.2738 759.352 90.2551C761.275 93.2363 762.297 96.7081 762.296 100.255Z" fill="#2F2E41"/>
<path d="M739.278 120.001C747.831 120.001 754.764 113.072 754.764 104.525C754.764 95.9779 747.831 89.0491 739.278 89.0491C730.726 89.0491 723.792 95.9779 723.792 104.525C723.792 113.072 730.726 120.001 739.278 120.001Z" fill="#9E616A"/>
<path d="M755.723 108.938L753.157 108.486C751.723 108.225 750.403 107.533 749.374 106.503C748.344 105.473 747.654 104.153 747.395 102.719L744.892 106.913L744.782 106.949C738.817 108.928 732.611 108.336 725.812 105.142C723.869 104.22 721.983 103.181 720.166 102.03L720.032 101.947L720.021 101.789C719.674 96.7548 720.805 92.5489 723.205 89.9463C724.126 88.9671 725.244 88.1935 726.486 87.6763C727.727 87.1591 729.064 86.9099 730.409 86.9451C730.505 86.9201 730.593 86.8716 730.665 86.804C730.699 86.7786 730.734 86.7535 730.768 86.7297V86.7037L730.946 86.62C731.328 86.4405 731.718 86.2685 732.107 86.1114C735.171 84.926 738.508 84.6286 741.734 85.2534C744.96 85.8783 747.944 87.4001 750.343 89.6438C755.113 94.1948 757.301 101.832 755.787 108.649L755.723 108.938Z" fill="#2F2E41"/>
<path d="M788.386 122.124C783.116 119.406 789.894 109.54 788.532 103.772C787.17 98.0039 777.362 96.1487 776.738 90.255C776.113 84.3614 774.643 78.2827 770.751 73.8106C768.265 70.9529 764.601 68.8433 760.828 69.2012C759.552 69.3224 758.316 69.717 757.206 70.3582C756.096 70.9994 755.138 71.8722 754.395 72.9171C753.653 73.962 753.145 75.1545 752.906 76.4133C752.667 77.6722 752.701 78.9678 753.008 80.2119C751.934 78.6909 749.154 79.0205 748.466 80.7506C747.855 82.2886 749.206 84.1516 750.796 84.2877C752.877 86.8559 755.26 89.5815 758.52 90.0996C759.04 90.2188 759.579 90.2185 760.099 90.0987C760.618 89.9789 761.103 89.7428 761.518 89.4081C762.285 88.672 762.345 87.2004 761.435 86.6504C765.532 88.2768 767.934 92.7037 768.542 97.0672C769.149 101.431 768.308 105.846 767.754 110.216C767.2 114.587 766.961 119.185 768.676 123.243C770.702 128.039 775.367 131.476 780.457 132.578C785.548 133.68 790.969 132.603 795.577 130.176C800.185 127.749 804.027 124.044 807.166 119.89C801.759 123.727 794.279 125.164 788.386 122.124Z" fill="#2F2E41"/>
<path d="M755.064 108.508C755.064 108.508 750.476 91.3959 730.812 87.4463C730.79 87.439 730.716 87.4094 730.62 87.3652C730.561 87.3283 730.487 87.2913 730.413 87.2544C730.635 87.1289 730.849 87.0183 731.071 86.9074L731.074 86.9069L731.076 86.9053L731.078 86.9029L731.078 86.9C731.27 86.7229 731.462 86.5457 731.662 86.3759L732.223 86.3981C732.223 86.3981 751.954 83.2753 755.064 108.508Z" fill="#FD6584"/>
<path opacity="0.2" d="M744.793 163.417L733.687 176.276L715.336 170.861L735.342 180.074L744.793 163.417Z" fill="black"/>
<path d="M811.456 397.81L640.7 398C640.504 397.999 640.317 397.922 640.18 397.783C640.042 397.645 639.964 397.458 639.964 397.263C639.964 397.068 640.042 396.881 640.18 396.743C640.317 396.605 640.504 396.527 640.7 396.526L811.456 396.336C811.651 396.336 811.839 396.414 811.977 396.552C812.115 396.69 812.193 396.877 812.193 397.073C812.193 397.268 812.115 397.456 811.977 397.594C811.839 397.732 811.651 397.81 811.456 397.81Z" fill="#CACACA"/>
<path d="M818.951 283.298C810.955 283.298 802.191 282.996 792.66 282.392C743.36 279.263 679.501 268.386 612.847 251.764C546.193 235.142 484.707 214.76 439.716 194.375C417.799 184.444 400.978 175.044 389.721 166.435C377.802 157.322 372.589 149.377 374.225 142.824C377.413 130.058 405.64 127.265 428.758 127.17L428.766 129.027C397.018 129.157 378.289 134.217 376.028 143.274C373.147 154.81 396.64 172.819 440.483 192.684C485.375 213.024 546.748 233.367 613.297 249.963C679.845 266.558 743.586 277.417 792.778 280.539C840.818 283.589 870.024 278.721 872.904 267.185C875.296 257.608 859.53 243.499 828.511 227.456L829.365 225.808C851.904 237.464 878.066 254.183 874.707 267.635C873.071 274.188 864.734 278.753 849.928 281.202C841.488 282.598 831.121 283.298 818.951 283.298Z" fill="#25929B"/>
</g>
<defs>
<clipPath id="clip0_40_230">
<rect width="511" height="366" fill="white" transform="translate(364 32)"/>
</clipPath>
</defs>
</svg>
