<svg width="1239" height="430" viewBox="0 0 1239 430" fill="none" xmlns="http://www.w3.org/2000/svg">
<rect width="1239" height="430" fill="white"/>
<g clip-path="url(#clip0_40_287)">
<path d="M810.479 178.801C810.268 177.696 810.045 176.595 809.811 175.497C809.286 173.037 808.71 170.583 808.088 168.15C807.78 166.92 807.449 165.69 807.113 164.465V164.459C796.236 125.573 773.277 91.1345 741.543 66.0994C709.808 41.0643 670.934 26.7241 630.515 25.1425H630.498C628.05 25.0452 625.596 24.9977 623.136 25C622.463 25 621.79 25.0058 621.123 25.017C579.886 25.4698 539.902 39.225 507.143 64.2282C474.385 89.2314 450.609 124.141 439.366 163.743C439.013 164.984 438.676 166.229 438.356 167.479C437.717 169.933 437.138 172.399 436.593 174.882V174.888C436.353 175.998 436.125 177.103 435.903 178.214C433.481 190.495 432.266 202.983 432.274 215.499C432.274 220.277 432.451 225.061 432.805 229.756C432.856 230.428 432.907 231.1 432.964 231.766C433.101 233.446 433.272 235.195 433.472 236.973C438.326 279.583 457.439 319.314 487.721 349.738C518.003 380.162 557.682 399.502 600.341 404.627C643 409.753 686.144 400.366 722.795 377.984C759.447 355.602 787.461 321.535 802.309 281.291C803.627 277.721 804.833 274.114 805.927 270.471C808.613 261.589 810.634 252.52 811.975 243.339C812.289 241.221 812.565 239.098 812.804 236.972C813.004 235.195 813.175 233.447 813.312 231.773C813.768 226.436 814.002 220.963 814.002 215.502C814.008 203.184 812.829 190.895 810.482 178.803L810.479 178.801Z" fill="white"/>
<path d="M667.866 61.1668C667.733 61.1668 667.605 61.114 667.511 61.0202C667.417 60.9263 667.364 60.799 667.364 60.6663C667.364 60.5336 667.417 60.4063 667.511 60.3125C667.605 60.2186 667.733 60.1659 667.866 60.1659H701.053C701.888 56.7279 703.853 53.6683 706.634 51.4753C709.416 49.2823 712.853 48.0823 716.397 48.0668C717.659 43.9931 720.079 40.3727 723.363 37.6456C726.647 34.9185 730.654 33.202 734.897 32.7046C739.14 32.2072 743.436 32.9504 747.264 34.8438C751.092 36.7372 754.287 39.6994 756.46 43.3704C756.953 43.332 757.435 43.3125 757.902 43.3125C762.621 43.3256 767.162 45.1168 770.615 48.3279C774.067 51.5389 776.178 55.9329 776.524 60.6306C776.529 60.6962 776.521 60.7621 776.5 60.8246C776.479 60.8871 776.446 60.9448 776.403 60.9945C776.36 61.0442 776.307 61.085 776.248 61.1144C776.189 61.1437 776.125 61.1612 776.059 61.1658H776.024C775.897 61.1657 775.775 61.1177 775.682 61.0314C775.589 60.9451 775.533 60.8269 775.524 60.7006L667.866 61.1668Z" fill="#E6E6E6"/>
<path d="M770.06 67.5827H687.836C687.771 67.5827 687.705 67.5697 687.645 67.5446C687.584 67.5194 687.529 67.4826 687.482 67.4361C687.435 67.3896 687.398 67.3344 687.373 67.2737C687.348 67.213 687.335 67.1479 687.335 67.0822C687.335 67.0165 687.348 66.9514 687.373 66.8907C687.398 66.83 687.435 66.7748 687.482 66.7284C687.529 66.6819 687.584 66.645 687.645 66.6199C687.705 66.5947 687.771 66.5818 687.836 66.5818H770.06C770.126 66.5818 770.191 66.5947 770.252 66.6199C770.312 66.645 770.368 66.6819 770.414 66.7284C770.461 66.7748 770.498 66.83 770.523 66.8907C770.548 66.9514 770.561 67.0165 770.561 67.0822C770.561 67.1479 770.548 67.213 770.523 67.2737C770.498 67.3344 770.461 67.3896 770.414 67.4361C770.368 67.4826 770.312 67.5194 770.252 67.5446C770.191 67.5697 770.126 67.5827 770.06 67.5827Z" fill="#E6E6E6"/>
<path d="M489.835 231.178H467.014V283.983H489.835V231.178Z" fill="#090814"/>
<path d="M779.259 231.178H756.437V283.983H779.259V231.178Z" fill="#090814"/>
<path d="M801.504 280.993C774.795 353.457 705.011 405.145 623.137 405.145C541.263 405.145 471.479 353.457 444.769 280.993H801.504Z" fill="#25929B"/>
<path d="M489.618 186.454C525.858 186.454 555.236 157.132 555.236 120.962C555.236 84.7908 525.858 55.4686 489.618 55.4686C453.378 55.4686 424 84.7908 424 120.962C424 157.132 453.378 186.454 489.618 186.454Z" fill="#E6E6E6"/>
<path d="M810.479 178.801C810.268 177.696 810.045 176.595 809.811 175.497C809.286 173.037 808.71 170.583 808.088 168.15C807.78 166.92 807.449 165.69 807.113 164.465V164.459C796.236 125.573 773.277 91.1345 741.543 66.0994C709.808 41.0643 670.934 26.7241 630.515 25.1425H630.498C628.05 25.0452 625.596 24.9977 623.136 25C622.463 25 621.79 25.0058 621.123 25.017C579.886 25.4698 539.902 39.225 507.143 64.2282C474.385 89.2314 450.609 124.141 439.366 163.743C439.013 164.984 438.676 166.229 438.356 167.479C437.717 169.933 437.138 172.399 436.593 174.882V174.888C436.353 175.998 436.125 177.103 435.903 178.214C433.481 190.495 432.266 202.983 432.274 215.499C432.274 220.277 432.451 225.061 432.805 229.756C432.856 230.428 432.907 231.1 432.964 231.766C433.101 233.446 433.272 235.195 433.472 236.973C438.326 279.583 457.439 319.314 487.721 349.738C518.003 380.162 557.682 399.502 600.341 404.627C643 409.753 686.144 400.366 722.795 377.984C759.447 355.602 787.461 321.535 802.309 281.291C803.627 277.721 804.833 274.114 805.927 270.471C808.613 261.589 810.634 252.52 811.975 243.339C812.289 241.221 812.565 239.098 812.804 236.972C813.004 235.195 813.175 233.447 813.312 231.773C813.768 226.436 814.002 220.963 814.002 215.502C814.008 203.184 812.829 190.895 810.482 178.803L810.479 178.801ZM811.603 231.626C811.472 233.283 811.301 235.02 811.101 236.775C810.862 238.888 810.59 240.995 810.286 243.096C808.948 252.194 806.944 261.182 804.29 269.988C803.199 273.593 802.003 277.161 800.701 280.692C773.454 354.624 702.095 404.291 623.137 404.291C544.179 404.291 472.82 354.624 445.574 280.696C440.349 266.527 436.856 251.781 435.173 236.776C434.973 235.024 434.802 233.285 434.665 231.622C434.608 230.961 434.556 230.301 434.505 229.634C434.164 224.982 433.986 220.232 433.986 215.499C433.977 202.336 435.35 189.208 438.081 176.33C438.321 175.185 438.577 174.047 438.834 172.908V172.902C439.439 170.328 440.091 167.772 440.791 165.236C440.889 164.883 440.986 164.53 441.088 164.183C441.179 163.847 441.277 163.511 441.381 163.175C441.552 162.56 441.735 161.951 441.917 161.347C465.111 84.1601 536.561 27.5968 621.134 26.72C621.801 26.7141 622.469 26.7088 623.136 26.7088C625.579 26.7088 628.013 26.7544 630.44 26.8455C712.959 29.9893 782.11 86.1536 804.585 162.103C804.962 163.379 805.327 164.662 805.681 165.953C806.363 168.459 806.997 170.993 807.582 173.538C807.839 174.666 808.084 175.799 808.318 176.938C810.967 189.621 812.298 202.543 812.289 215.499C812.288 220.91 812.06 226.337 811.603 231.626Z" fill="#090814"/>
<path d="M487.243 200.635H469.608V233.767H487.243V200.635Z" fill="#090814"/>
<path d="M476.351 129.193H472.201V203.741H476.351V129.193Z" fill="#090814"/>
<path d="M484.649 129.193H480.5V203.741H484.649V129.193Z" fill="#090814"/>
<path d="M483.612 132.3H474.276V137.477H483.612V132.3Z" fill="#090814"/>
<path d="M483.612 153.007H474.276V158.184H483.612V153.007Z" fill="#090814"/>
<path d="M483.612 175.785H474.276V180.963H483.612V175.785Z" fill="#090814"/>
<path d="M475.313 126.087H473.238V131.264H475.313V126.087Z" fill="#090814"/>
<path d="M483.612 126.087H481.538V131.264H483.612V126.087Z" fill="#090814"/>
<path d="M776.666 200.635H759.031V233.767H776.666V200.635Z" fill="#090814"/>
<path d="M765.775 129.193H761.625V203.741H765.775V129.193Z" fill="#090814"/>
<path d="M774.073 129.193H769.923V203.741H774.073V129.193Z" fill="#090814"/>
<path d="M773.035 132.3H763.699V137.477H773.035V132.3Z" fill="#090814"/>
<path d="M773.035 153.007H763.699V158.184H773.035V153.007Z" fill="#090814"/>
<path d="M773.035 175.785H763.699V180.963H773.035V175.785Z" fill="#090814"/>
<path d="M764.737 126.087H762.662V131.264H764.737V126.087Z" fill="#090814"/>
<path d="M773.035 126.087H770.96V131.264H773.035V126.087Z" fill="#090814"/>
<path d="M812.459 231.696C812.316 233.433 812.147 235.158 811.952 236.872H434.322C434.127 235.158 433.958 233.433 433.814 231.696H812.459Z" fill="#090814"/>
<path d="M625.98 223.642C576.242 223.642 524.943 191.399 473.468 127.773L475.082 126.471C526.858 190.47 578.328 222.484 628.036 221.553C676.352 220.672 724.508 188.692 771.166 126.502L772.827 127.744C725.767 190.471 677.066 222.729 628.076 223.623C627.377 223.636 626.679 223.642 625.98 223.642Z" fill="#090814"/>
<path d="M625.822 216.683C578.841 216.683 530.39 186.784 481.773 127.781L483.376 126.467C532.268 185.803 580.845 215.437 627.809 214.593C673.402 213.758 718.844 184.117 762.874 126.494L764.524 127.75C720.09 185.902 674.105 215.817 627.847 216.665C627.173 216.677 626.497 216.683 625.822 216.683Z" fill="#090814"/>
<path d="M810.48 178.801C809.761 178.186 809.036 177.565 808.317 176.939C792.791 163.447 777.226 147.058 761.62 127.773L763.235 126.474C778.053 144.795 792.835 160.483 807.581 173.538C808.323 174.199 809.066 174.852 809.812 175.497C810.046 176.597 810.269 177.698 810.48 178.801Z" fill="#090814"/>
<path d="M808.089 168.151C807.284 167.434 806.482 166.701 805.681 165.953C792.903 154.058 780.955 141.303 769.922 127.779L771.526 126.465C781.785 139.026 792.827 150.929 804.586 162.105C805.43 162.908 806.269 163.694 807.114 164.463V164.469C807.45 165.692 807.781 166.921 808.089 168.151Z" fill="#090814"/>
<path d="M497.733 143.459H495.659V233.249H497.733V143.459Z" fill="#090814"/>
<path d="M517.034 163.171H514.959V233.249H517.034V163.171Z" fill="#090814"/>
<path d="M543.326 185.086H541.251V233.767H543.326V185.086Z" fill="#090814"/>
<path d="M568.494 200.635H566.419V233.249H568.494V200.635Z" fill="#090814"/>
<path d="M589.378 209.426H587.303V234.285H589.378V209.426Z" fill="#090814"/>
<path d="M785.313 143.459H783.238V233.249H785.313V143.459Z" fill="#090814"/>
<path d="M804.613 163.171H802.538V233.249H804.613V163.171Z" fill="#090814"/>
<path d="M484.083 127.773C476.871 136.686 469.664 144.985 462.463 152.672C461.767 153.407 461.077 154.137 460.392 154.864C454.639 160.895 448.897 166.533 443.166 171.778C442.47 172.416 441.777 173.045 441.089 173.663C440.085 174.563 439.086 175.452 438.082 176.329C437.848 176.534 437.62 176.739 437.386 176.938C436.895 177.365 436.399 177.792 435.902 178.214C436.125 177.104 436.353 175.998 436.593 174.888V174.882C437.106 174.444 437.616 173.994 438.122 173.538C438.361 173.328 438.596 173.117 438.835 172.906V172.9C439.588 172.234 440.339 171.558 441.089 170.872C441.785 170.246 442.477 169.61 443.166 168.965C448.9 163.663 454.642 157.954 460.392 151.837C461.082 151.103 461.772 150.368 462.463 149.622C469.128 142.441 475.796 134.724 482.468 126.471L484.083 127.773Z" fill="#090814"/>
<path d="M475.781 127.779C471.268 133.258 466.758 138.483 462.253 143.456C461.631 144.137 461.015 144.819 460.393 145.489C454.59 151.805 448.791 157.699 442.996 163.172C442.357 163.776 441.721 164.372 441.09 164.96C440.993 165.057 440.89 165.148 440.793 165.234C440.536 165.477 440.28 165.712 440.023 165.951C439.469 166.469 438.916 166.976 438.357 167.478C438.676 166.23 439.013 164.985 439.367 163.742C439.955 163.207 440.538 162.66 441.119 162.102C441.387 161.851 441.649 161.6 441.918 161.344C447.898 155.677 453.883 149.557 459.874 142.983C464.639 137.755 469.407 132.248 474.179 126.462L475.781 127.779Z" fill="#090814"/>
<path d="M462.466 143.459H460.391V233.249H462.466V143.459Z" fill="#090814"/>
<path d="M443.165 163.171H441.09V233.249H443.165V163.171Z" fill="#090814"/>
<path d="M753.728 141.388H751.653V233.249H753.728V141.388Z" fill="#090814"/>
<path d="M734.426 163.171H732.351V233.249H734.426V163.171Z" fill="#090814"/>
<path d="M708.135 185.086H706.061V233.767H708.135V185.086Z" fill="#090814"/>
<path d="M682.967 200.635H680.893V233.249H682.967V200.635Z" fill="#090814"/>
<path d="M662.082 209.426H660.008V234.285H662.082V209.426Z" fill="#090814"/>
<path d="M621.863 215.537H619.788V234.285H621.863V215.537Z" fill="#090814"/>
<path d="M608.642 331.332H560.68C560.311 331.337 559.944 331.268 559.601 331.13C559.258 330.993 558.946 330.788 558.683 330.529C558.42 330.27 558.211 329.961 558.069 329.621C557.926 329.281 557.853 328.915 557.853 328.546C557.853 328.177 557.926 327.812 558.069 327.472C558.211 327.131 558.42 326.823 558.683 326.564C558.946 326.305 559.258 326.1 559.601 325.962C559.944 325.825 560.311 325.756 560.68 325.761H608.642C609.375 325.771 610.076 326.068 610.591 326.59C611.107 327.111 611.396 327.814 611.396 328.546C611.396 329.279 611.107 329.982 610.591 330.503C610.076 331.024 609.375 331.322 608.642 331.332Z" fill="white"/>
<path d="M685.593 314.184H637.632C637.263 314.189 636.896 314.121 636.553 313.983C636.21 313.845 635.898 313.641 635.635 313.381C635.372 313.122 635.163 312.814 635.02 312.473C634.878 312.133 634.804 311.768 634.804 311.399C634.804 311.03 634.878 310.665 635.02 310.324C635.163 309.984 635.372 309.675 635.635 309.416C635.898 309.157 636.21 308.953 636.553 308.815C636.896 308.677 637.263 308.609 637.632 308.613H685.593C686.333 308.613 687.043 308.907 687.566 309.429C688.09 309.952 688.384 310.66 688.384 311.399C688.384 312.137 688.09 312.846 687.566 313.368C687.043 313.891 686.334 314.184 685.593 314.184Z" fill="white"/>
<path d="M654.425 355.315H606.462C605.728 355.306 605.028 355.008 604.512 354.487C603.997 353.965 603.708 353.262 603.708 352.53C603.708 351.798 603.997 351.095 604.512 350.573C605.028 350.052 605.728 349.754 606.462 349.745H654.425C655.158 349.754 655.859 350.052 656.374 350.573C656.89 351.095 657.179 351.798 657.179 352.53C657.179 353.262 656.89 353.965 656.374 354.487C655.859 355.008 655.158 355.306 654.425 355.315Z" fill="white"/>
<path d="M575.529 109.167C575.396 109.167 575.268 109.115 575.174 109.021C575.08 108.927 575.027 108.8 575.027 108.667C575.027 108.534 575.08 108.407 575.174 108.313C575.268 108.219 575.396 108.167 575.529 108.167H608.716C609.551 104.729 611.516 101.669 614.298 99.476C617.079 97.283 620.516 96.083 624.06 96.0675C625.322 91.9938 627.742 88.3735 631.026 85.6464C634.31 82.9192 638.317 81.2027 642.56 80.7054C646.803 80.208 651.1 80.9511 654.927 82.8445C658.755 84.7379 661.95 87.7001 664.123 91.3712C664.616 91.3327 665.098 91.3133 665.565 91.3133C670.284 91.3263 674.825 93.1176 678.278 96.3286C681.731 99.5396 683.841 103.934 684.188 108.631C684.192 108.697 684.184 108.763 684.163 108.825C684.142 108.888 684.11 108.946 684.066 108.995C684.023 109.045 683.97 109.086 683.911 109.115C683.852 109.144 683.788 109.162 683.722 109.167H683.687C683.56 109.166 683.438 109.118 683.345 109.032C683.253 108.946 683.196 108.828 683.187 108.701L575.529 109.167Z" fill="#E6E6E6"/>
<path d="M615.554 122.839H587.979C587.846 122.839 587.719 122.786 587.625 122.693C587.531 122.599 587.478 122.471 587.478 122.339C587.478 122.206 587.531 122.079 587.625 121.985C587.719 121.891 587.846 121.838 587.979 121.838H615.554C615.687 121.838 615.815 121.891 615.909 121.985C616.003 122.079 616.056 122.206 616.056 122.339C616.056 122.471 616.003 122.599 615.909 122.693C615.815 122.786 615.687 122.839 615.554 122.839Z" fill="#E6E6E6"/>
<path d="M631.187 54.1811L635.357 50.8525C632.118 50.4959 630.787 52.2592 630.242 53.6547C627.711 52.6061 624.956 53.9802 624.956 53.9802L633.3 57.0033C632.879 55.8811 632.146 54.9021 631.187 54.1811Z" fill="#090814"/>
<path d="M646.022 140.746L650.191 137.417C646.952 137.061 645.621 138.824 645.076 140.219C642.546 139.171 639.791 140.545 639.791 140.545L648.133 143.568C647.713 142.446 646.98 141.467 646.022 140.746Z" fill="#090814"/>
<path d="M743.593 108.284L747.763 104.956C744.524 104.599 743.193 106.362 742.648 107.758C740.117 106.709 737.363 108.083 737.363 108.083L745.705 111.107C745.284 109.985 744.552 109.006 743.593 108.284Z" fill="#090814"/>
<path d="M497.607 274.158H457.095V280.992H497.607V274.158Z" fill="#090814"/>
<path d="M788.039 274.158H747.526V280.992H788.039V274.158Z" fill="#090814"/>
<path d="M812.762 226.695H433.446V228.404H812.762V226.695Z" fill="#090814"/>
</g>
<defs>
<clipPath id="clip0_40_287">
<rect width="390" height="381" fill="white" transform="translate(424 25)"/>
</clipPath>
</defs>
</svg>
